<svg width="160" height="32" viewBox="0 0 160 32" fill="none" xmlns="http://www.w3.org/2000/svg">
<path d="M-8.99114e-07 22.6132L0 -7.68882e-06L151.201 3.32665e-05C154.601 3.6267 156.501 5.65341 160.001 9.38674L160.001 32L8.80005 32C5.30005 28.3733 3.39999 26.2399 -8.99114e-07 22.6132Z" fill="white"/>
<path d="M17.552 11.248L16.592 11.248L16.592 10.288L17.552 10.288L17.552 11.248ZM18.784 11.248L17.824 11.248L17.824 10.288L18.784 10.288L18.784 11.248ZM20.016 11.248L19.056 11.248L19.056 10.288L20.016 10.288L20.016 11.248ZM21.248 11.248L20.288 11.248L20.288 10.288L21.248 10.288L21.248 11.248ZM16.32 12.48L15.36 12.48L15.36 11.52L16.32 11.52L16.32 12.48ZM15.088 13.712L14.144 13.712L14.144 12.752L15.088 12.752L15.088 13.712ZM15.088 14.944L14.144 14.944L14.144 13.984L15.088 13.984L15.088 14.944ZM15.088 16.176L14.144 16.176L14.144 15.216L15.088 15.216L15.088 16.176ZM15.088 17.408L14.144 17.408L14.144 16.448L15.088 16.448L15.088 17.408ZM15.088 18.64L14.144 18.64L14.144 17.68L15.088 17.68L15.088 18.64ZM16.32 19.856L15.36 19.856L15.36 18.912L16.32 18.912L16.32 19.856ZM17.552 21.088L16.592 21.088L16.592 20.144L17.552 20.144L17.552 21.088ZM18.784 21.088L17.824 21.088L17.824 20.144L18.784 20.144L18.784 21.088ZM20.016 21.088L19.056 21.088L19.056 20.144L20.016 20.144L20.016 21.088ZM21.248 21.088L20.288 21.088L20.288 20.144L21.248 20.144L21.248 21.088ZM26.1614 11.248L25.2014 11.248L25.2014 10.288L26.1614 10.288L26.1614 11.248ZM27.3934 11.248L26.4334 11.248L26.4334 10.288L27.3934 10.288L27.3934 11.248ZM28.6254 11.248L27.6654 11.248L27.6654 10.288L28.6254 10.288L28.6254 11.248ZM24.9294 12.48L23.9694 12.48L23.9694 11.52L24.9294 11.52L24.9294 12.48ZM29.8574 12.48L28.8974 12.48L28.8974 11.52L29.8574 11.52L29.8574 12.48ZM23.6974 13.712L22.7534 13.712L22.7534 12.752L23.6974 12.752L23.6974 13.712ZM31.0894 13.712L30.1294 13.712L30.1294 12.752L31.0894 12.752L31.0894 13.712ZM23.6974 14.944L22.7534 14.944L22.7534 13.984L23.6974 13.984L23.6974 14.944ZM31.0894 14.944L30.1294 14.944L30.1294 13.984L31.0894 13.984L31.0894 14.944ZM23.6974 16.176L22.7534 16.176L22.7534 15.216L23.6974 15.216L23.6974 16.176ZM31.0894 16.176L30.1294 16.176L30.1294 15.216L31.0894 15.216L31.0894 16.176ZM23.6974 17.408L22.7534 17.408L22.7534 16.448L23.6974 16.448L23.6974 17.408ZM31.0894 17.408L30.1294 17.408L30.1294 16.448L31.0894 16.448L31.0894 17.408ZM23.6974 18.64L22.7534 18.64L22.7534 17.68L23.6974 17.68L23.6974 18.64ZM31.0894 18.64L30.1294 18.64L30.1294 17.68L31.0894 17.68L31.0894 18.64ZM24.9294 19.856L23.9694 19.856L23.9694 18.912L24.9294 18.912L24.9294 19.856ZM29.8574 19.856L28.8974 19.856L28.8974 18.912L29.8574 18.912L29.8574 19.856ZM26.1614 21.088L25.2014 21.088L25.2014 20.144L26.1614 20.144L26.1614 21.088ZM27.3934 21.088L26.4334 21.088L26.4334 20.144L27.3934 20.144L27.3934 21.088ZM28.6254 21.088L27.6654 21.088L27.6654 20.144L28.6254 20.144L28.6254 21.088ZM33.5411 11.248L32.5971 11.248L32.5971 10.288L33.5411 10.288L33.5411 11.248ZM34.7731 11.248L33.8131 11.248L33.8131 10.288L34.7731 10.288L34.7731 11.248ZM40.9331 11.248L39.9731 11.248L39.9731 10.288L40.9331 10.288L40.9331 11.248ZM33.5411 12.48L32.5971 12.48L32.5971 11.52L33.5411 11.52L33.5411 12.48ZM34.7731 12.48L33.8131 12.48L33.8131 11.52L34.7731 11.52L34.7731 12.48ZM40.9331 12.48L39.9731 12.48L39.9731 11.52L40.9331 11.52L40.9331 12.48ZM33.5411 13.712L32.5971 13.712L32.5971 12.752L33.5411 12.752L33.5411 13.712ZM36.0051 13.712L35.0451 13.712L35.0451 12.752L36.0051 12.752L36.0051 13.712ZM40.9331 13.712L39.9731 13.712L39.9731 12.752L40.9331 12.752L40.9331 13.712ZM33.5411 14.944L32.5971 14.944L32.5971 13.984L33.5411 13.984L33.5411 14.944ZM36.0051 14.944L35.0451 14.944L35.0451 13.984L36.0051 13.984L36.0051 14.944ZM40.9331 14.944L39.9731 14.944L39.9731 13.984L40.9331 13.984L40.9331 14.944ZM33.5411 16.176L32.5971 16.176L32.5971 15.216L33.5411 15.216L33.5411 16.176ZM37.2371 16.176L36.2771 16.176L36.2771 15.216L37.2371 15.216L37.2371 16.176ZM40.9331 16.176L39.9731 16.176L39.9731 15.216L40.9331 15.216L40.9331 16.176ZM33.5411 17.408L32.5971 17.408L32.5971 16.448L33.5411 16.448L33.5411 17.408ZM37.2371 17.408L36.2771 17.408L36.2771 16.448L37.2371 16.448L37.2371 17.408ZM40.9331 17.408L39.9731 17.408L39.9731 16.448L40.9331 16.448L40.9331 17.408ZM33.5411 18.64L32.5971 18.64L32.5971 17.68L33.5411 17.68L33.5411 18.64ZM38.4691 18.64L37.5091 18.64L37.5091 17.68L38.4691 17.68L38.4691 18.64ZM40.9331 18.64L39.9731 18.64L39.9731 17.68L40.9331 17.68L40.9331 18.64ZM33.5411 19.856L32.5971 19.856L32.5971 18.912L33.5411 18.912L33.5411 19.856ZM38.4691 19.856L37.5091 19.856L37.5091 18.912L38.4691 18.912L38.4691 19.856ZM40.9331 19.856L39.9731 19.856L39.9731 18.912L40.9331 18.912L40.9331 19.856ZM33.5411 21.088L32.5971 21.088L32.5971 20.144L33.5411 20.144L33.5411 21.088ZM39.7011 21.088L38.7411 21.088L38.7411 20.144L39.7011 20.144L39.7011 21.088ZM40.9331 21.088L39.9731 21.088L39.9731 20.144L40.9331 20.144L40.9331 21.088ZM43.3849 11.248L42.4409 11.248L42.4409 10.288L43.3849 10.288L43.3849 11.248ZM44.6169 11.248L43.6569 11.248L43.6569 10.288L44.6169 10.288L44.6169 11.248ZM50.7769 11.248L49.8169 11.248L49.8169 10.288L50.7769 10.288L50.7769 11.248ZM43.3849 12.48L42.4409 12.48L42.4409 11.52L43.3849 11.52L43.3849 12.48ZM44.6169 12.48L43.6569 12.48L43.6569 11.52L44.6169 11.52L44.6169 12.48ZM50.7769 12.48L49.8169 12.48L49.8169 11.52L50.7769 11.52L50.7769 12.48ZM43.3849 13.712L42.4409 13.712L42.4409 12.752L43.3849 12.752L43.3849 13.712ZM45.8489 13.712L44.8889 13.712L44.8889 12.752L45.8489 12.752L45.8489 13.712ZM50.7769 13.712L49.8169 13.712L49.8169 12.752L50.7769 12.752L50.7769 13.712ZM43.3849 14.944L42.4409 14.944L42.4409 13.984L43.3849 13.984L43.3849 14.944ZM45.8489 14.944L44.8889 14.944L44.8889 13.984L45.8489 13.984L45.8489 14.944ZM50.7769 14.944L49.8169 14.944L49.8169 13.984L50.7769 13.984L50.7769 14.944ZM43.3849 16.176L42.4409 16.176L42.4409 15.216L43.3849 15.216L43.3849 16.176ZM47.0809 16.176L46.1209 16.176L46.1209 15.216L47.0809 15.216L47.0809 16.176ZM50.7769 16.176L49.8169 16.176L49.8169 15.216L50.7769 15.216L50.7769 16.176ZM43.3849 17.408L42.4409 17.408L42.4409 16.448L43.3849 16.448L43.3849 17.408ZM47.0809 17.408L46.1209 17.408L46.1209 16.448L47.0809 16.448L47.0809 17.408ZM50.7769 17.408L49.8169 17.408L49.8169 16.448L50.7769 16.448L50.7769 17.408ZM43.3849 18.64L42.4409 18.64L42.4409 17.68L43.3849 17.68L43.3849 18.64ZM48.3129 18.64L47.3529 18.64L47.3529 17.68L48.3129 17.68L48.3129 18.64ZM50.7769 18.64L49.8169 18.64L49.8169 17.68L50.7769 17.68L50.7769 18.64ZM43.3849 19.856L42.4409 19.856L42.4409 18.912L43.3849 18.912L43.3849 19.856ZM48.3129 19.856L47.3529 19.856L47.3529 18.912L48.3129 18.912L48.3129 19.856ZM50.7769 19.856L49.8169 19.856L49.8169 18.912L50.7769 18.912L50.7769 19.856ZM43.3849 21.088L42.4409 21.088L42.4409 20.144L43.3849 20.144L43.3849 21.088ZM49.5449 21.088L48.5849 21.088L48.5849 20.144L49.5449 20.144L49.5449 21.088ZM50.7769 21.088L49.8169 21.088L49.8169 20.144L50.7769 20.144L50.7769 21.088ZM53.2286 11.248L52.2846 11.248L52.2846 10.288L53.2286 10.288L53.2286 11.248ZM54.4606 11.248L53.5006 11.248L53.5006 10.288L54.4606 10.288L54.4606 11.248ZM55.6926 11.248L54.7326 11.248L54.7326 10.288L55.6926 10.288L55.6926 11.248ZM56.9246 11.248L55.9646 11.248L55.9646 10.288L56.9246 10.288L56.9246 11.248ZM58.1566 11.248L57.1966 11.248L57.1966 10.288L58.1566 10.288L58.1566 11.248ZM59.3886 11.248L58.4286 11.248L58.4286 10.288L59.3886 10.288L59.3886 11.248ZM53.2286 12.48L52.2846 12.48L52.2846 11.52L53.2286 11.52L53.2286 12.48ZM53.2286 13.712L52.2846 13.712L52.2846 12.752L53.2286 12.752L53.2286 13.712ZM53.2286 14.944L52.2846 14.944L52.2846 13.984L53.2286 13.984L53.2286 14.944ZM53.2286 16.176L52.2846 16.176L52.2846 15.216L53.2286 15.216L53.2286 16.176ZM54.4606 16.176L53.5006 16.176L53.5006 15.216L54.4606 15.216L54.4606 16.176ZM55.6926 16.176L54.7326 16.176L54.7326 15.216L55.6926 15.216L55.6926 16.176ZM56.9246 16.176L55.9646 16.176L55.9646 15.216L56.9246 15.216L56.9246 16.176ZM58.1566 16.176L57.1966 16.176L57.1966 15.216L58.1566 15.216L58.1566 16.176ZM53.2286 17.408L52.2846 17.408L52.2846 16.448L53.2286 16.448L53.2286 17.408ZM53.2286 18.64L52.2846 18.64L52.2846 17.68L53.2286 17.68L53.2286 18.64ZM53.2286 19.856L52.2846 19.856L52.2846 18.912L53.2286 18.912L53.2286 19.856ZM53.2286 21.088L52.2846 21.088L52.2846 20.144L53.2286 20.144L53.2286 21.088ZM54.4606 21.088L53.5006 21.088L53.5006 20.144L54.4606 20.144L54.4606 21.088ZM55.6926 21.088L54.7326 21.088L54.7326 20.144L55.6926 20.144L55.6926 21.088ZM56.9246 21.088L55.9646 21.088L55.9646 20.144L56.9246 20.144L56.9246 21.088ZM58.1566 21.088L57.1966 21.088L57.1966 20.144L58.1566 20.144L58.1566 21.088ZM59.3886 21.088L58.4286 21.088L58.4286 20.144L59.3886 20.144L59.3886 21.088ZM64.302 11.248L63.342 11.248L63.342 10.288L64.302 10.288L64.302 11.248ZM65.534 11.248L64.574 11.248L64.574 10.288L65.534 10.288L65.534 11.248ZM66.766 11.248L65.806 11.248L65.806 10.288L66.766 10.288L66.766 11.248ZM67.998 11.248L67.038 11.248L67.038 10.288L67.998 10.288L67.998 11.248ZM63.07 12.48L62.11 12.48L62.11 11.52L63.07 11.52L63.07 12.48ZM61.838 13.712L60.894 13.712L60.894 12.752L61.838 12.752L61.838 13.712ZM61.838 14.944L60.894 14.944L60.894 13.984L61.838 13.984L61.838 14.944ZM61.838 16.176L60.894 16.176L60.894 15.216L61.838 15.216L61.838 16.176ZM61.838 17.408L60.894 17.408L60.894 16.448L61.838 16.448L61.838 17.408ZM61.838 18.64L60.894 18.64L60.894 17.68L61.838 17.68L61.838 18.64ZM63.07 19.856L62.11 19.856L62.11 18.912L63.07 18.912L63.07 19.856ZM64.302 21.088L63.342 21.088L63.342 20.144L64.302 20.144L64.302 21.088ZM65.534 21.088L64.574 21.088L64.574 20.144L65.534 20.144L65.534 21.088ZM66.766 21.088L65.806 21.088L65.806 20.144L66.766 20.144L66.766 21.088ZM67.998 21.088L67.038 21.088L67.038 20.144L67.998 20.144L67.998 21.088ZM70.4474 11.248L69.5034 11.248L69.5034 10.288L70.4474 10.288L70.4474 11.248ZM71.6794 11.248L70.7194 11.248L70.7194 10.288L71.6794 10.288L71.6794 11.248ZM72.9114 11.248L71.9514 11.248L71.9514 10.288L72.9114 10.288L72.9114 11.248ZM74.1434 11.248L73.1834 11.248L73.1834 10.288L74.1434 10.288L74.1434 11.248ZM75.3754 11.248L74.4154 11.248L74.4154 10.288L75.3754 10.288L75.3754 11.248ZM76.6074 11.248L75.6474 11.248L75.6474 10.288L76.6074 10.288L76.6074 11.248ZM77.8394 11.248L76.8794 11.248L76.8794 10.288L77.8394 10.288L77.8394 11.248ZM74.1434 12.48L73.1834 12.48L73.1834 11.52L74.1434 11.52L74.1434 12.48ZM74.1434 13.712L73.1834 13.712L73.1834 12.752L74.1434 12.752L74.1434 13.712ZM74.1434 14.944L73.1834 14.944L73.1834 13.984L74.1434 13.984L74.1434 14.944ZM74.1434 16.176L73.1834 16.176L73.1834 15.216L74.1434 15.216L74.1434 16.176ZM74.1434 17.408L73.1834 17.408L73.1834 16.448L74.1434 16.448L74.1434 17.408ZM74.1434 18.64L73.1834 18.64L73.1834 17.68L74.1434 17.68L74.1434 18.64ZM74.1434 19.856L73.1834 19.856L73.1834 18.912L74.1434 18.912L74.1434 19.856ZM74.1434 21.088L73.1834 21.088L73.1834 20.144L74.1434 20.144L74.1434 21.088ZM85.1974 11.248L84.2534 11.248L84.2534 10.288L85.1974 10.288L85.1974 11.248ZM91.3574 11.248L90.3974 11.248L90.3974 10.288L91.3574 10.288L91.3574 11.248ZM97.5174 11.248L96.5574 11.248L96.5574 10.288L97.5174 10.288L97.5174 11.248ZM85.1974 12.48L84.2534 12.48L84.2534 11.52L85.1974 11.52L85.1974 12.48ZM91.3574 12.48L90.3974 12.48L90.3974 11.52L91.3574 11.52L91.3574 12.48ZM97.5174 12.48L96.5574 12.48L96.5574 11.52L97.5174 11.52L97.5174 12.48ZM85.1974 13.712L84.2534 13.712L84.2534 12.752L85.1974 12.752L85.1974 13.712ZM90.1254 13.712L89.1654 13.712L89.1654 12.752L90.1254 12.752L90.1254 13.712ZM92.5894 13.712L91.6294 13.712L91.6294 12.752L92.5894 12.752L92.5894 13.712ZM97.5174 13.712L96.5574 13.712L96.5574 12.752L97.5174 12.752L97.5174 13.712ZM86.4294 14.944L85.4694 14.944L85.4694 13.984L86.4294 13.984L86.4294 14.944ZM90.1254 14.944L89.1654 14.944L89.1654 13.984L90.1254 13.984L90.1254 14.944ZM92.5894 14.944L91.6294 14.944L91.6294 13.984L92.5894 13.984L92.5894 14.944ZM96.2854 14.944L95.3254 14.944L95.3254 13.984L96.2854 13.984L96.2854 14.944ZM86.4294 16.176L85.4694 16.176L85.4694 15.216L86.4294 15.216L86.4294 16.176ZM88.8934 16.176L87.9334 16.176L87.9334 15.216L88.8934 15.216L88.8934 16.176ZM93.8214 16.176L92.8614 16.176L92.8614 15.216L93.8214 15.216L93.8214 16.176ZM96.2854 16.176L95.3254 16.176L95.3254 15.216L96.2854 15.216L96.2854 16.176ZM86.4294 17.408L85.4694 17.408L85.4694 16.448L86.4294 16.448L86.4294 17.408ZM88.8934 17.408L87.9334 17.408L87.9334 16.448L88.8934 16.448L88.8934 17.408ZM93.8214 17.408L92.8614 17.408L92.8614 16.448L93.8214 16.448L93.8214 17.408ZM96.2854 17.408L95.3254 17.408L95.3254 16.448L96.2854 16.448L96.2854 17.408ZM86.4294 18.64L85.4694 18.64L85.4694 17.68L86.4294 17.68L86.4294 18.64ZM88.8934 18.64L87.9334 18.64L87.9334 17.68L88.8934 17.68L88.8934 18.64ZM93.8214 18.64L92.8614 18.64L92.8614 17.68L93.8214 17.68L93.8214 18.64ZM96.2854 18.64L95.3254 18.64L95.3254 17.68L96.2854 17.68L96.2854 18.64ZM87.6614 19.856L86.7014 19.856L86.7014 18.912L87.6614 18.912L87.6614 19.856ZM95.0534 19.856L94.0934 19.856L94.0934 18.912L95.0534 18.912L95.0534 19.856ZM87.6614 21.088L86.7014 21.088L86.7014 20.144L87.6614 20.144L87.6614 21.088ZM95.0534 21.088L94.0934 21.088L94.0934 20.144L95.0534 20.144L95.0534 21.088ZM103.659 11.248L102.699 11.248L102.699 10.288L103.659 10.288L103.659 11.248ZM104.891 11.248L103.931 11.248L103.931 10.288L104.891 10.288L104.891 11.248ZM103.659 12.48L102.699 12.48L102.699 11.52L103.659 11.52L103.659 12.48ZM104.891 12.48L103.931 12.48L103.931 11.52L104.891 11.52L104.891 12.48ZM102.427 13.712L101.467 13.712L101.467 12.752L102.427 12.752L102.427 13.712ZM106.123 13.712L105.163 13.712L105.163 12.752L106.123 12.752L106.123 13.712ZM102.427 14.944L101.467 14.944L101.467 13.984L102.427 13.984L102.427 14.944ZM106.123 14.944L105.163 14.944L105.163 13.984L106.123 13.984L106.123 14.944ZM101.195 16.176L100.235 16.176L100.235 15.216L101.195 15.216L101.195 16.176ZM107.355 16.176L106.395 16.176L106.395 15.216L107.355 15.216L107.355 16.176ZM101.195 17.408L100.235 17.408L100.235 16.448L101.195 16.448L101.195 17.408ZM107.355 17.408L106.395 17.408L106.395 16.448L107.355 16.448L107.355 17.408ZM101.195 18.64L100.235 18.64L100.235 17.68L101.195 17.68L101.195 18.64ZM102.427 18.64L101.467 18.64L101.467 17.68L102.427 17.68L102.427 18.64ZM103.659 18.64L102.699 18.64L102.699 17.68L103.659 17.68L103.659 18.64ZM104.891 18.64L103.931 18.64L103.931 17.68L104.891 17.68L104.891 18.64ZM106.123 18.64L105.163 18.64L105.163 17.68L106.123 17.68L106.123 18.64ZM107.355 18.64L106.395 18.64L106.395 17.68L107.355 17.68L107.355 18.64ZM99.963 19.856L99.019 19.856L99.019 18.912L99.963 18.912L99.963 19.856ZM108.587 19.856L107.627 19.856L107.627 18.912L108.587 18.912L108.587 19.856ZM99.963 21.088L99.019 21.088L99.019 20.144L99.963 20.144L99.963 21.088ZM108.587 21.088L107.627 21.088L107.627 20.144L108.587 20.144L108.587 21.088ZM111.041 11.248L110.097 11.248L110.097 10.288L111.041 10.288L111.041 11.248ZM111.041 12.48L110.097 12.48L110.097 11.52L111.041 11.52L111.041 12.48ZM111.041 13.712L110.097 13.712L110.097 12.752L111.041 12.752L111.041 13.712ZM111.041 14.944L110.097 14.944L110.097 13.984L111.041 13.984L111.041 14.944ZM111.041 16.176L110.097 16.176L110.097 15.216L111.041 15.216L111.041 16.176ZM111.041 17.408L110.097 17.408L110.097 16.448L111.041 16.448L111.041 17.408ZM111.041 18.64L110.097 18.64L110.097 17.68L111.041 17.68L111.041 18.64ZM111.041 19.856L110.097 19.856L110.097 18.912L111.041 18.912L111.041 19.856ZM111.041 21.088L110.097 21.088L110.097 20.144L111.041 20.144L111.041 21.088ZM112.273 21.088L111.313 21.088L111.313 20.144L112.273 20.144L112.273 21.088ZM113.505 21.088L112.545 21.088L112.545 20.144L113.505 20.144L113.505 21.088ZM114.737 21.088L113.777 21.088L113.777 20.144L114.737 20.144L114.737 21.088ZM115.969 21.088L115.009 21.088L115.009 20.144L115.969 20.144L115.969 21.088ZM117.201 21.088L116.241 21.088L116.241 20.144L117.201 20.144L117.201 21.088ZM119.65 11.248L118.706 11.248L118.706 10.288L119.65 10.288L119.65 11.248ZM119.65 12.48L118.706 12.48L118.706 11.52L119.65 11.52L119.65 12.48ZM119.65 13.712L118.706 13.712L118.706 12.752L119.65 12.752L119.65 13.712ZM119.65 14.944L118.706 14.944L118.706 13.984L119.65 13.984L119.65 14.944ZM119.65 16.176L118.706 16.176L118.706 15.216L119.65 15.216L119.65 16.176ZM119.65 17.408L118.706 17.408L118.706 16.448L119.65 16.448L119.65 17.408ZM119.65 18.64L118.706 18.64L118.706 17.68L119.65 17.68L119.65 18.64ZM119.65 19.856L118.706 19.856L118.706 18.912L119.65 18.912L119.65 19.856ZM119.65 21.088L118.706 21.088L118.706 20.144L119.65 20.144L119.65 21.088ZM120.882 21.088L119.922 21.088L119.922 20.144L120.882 20.144L120.882 21.088ZM122.114 21.088L121.154 21.088L121.154 20.144L122.114 20.144L122.114 21.088ZM123.346 21.088L122.386 21.088L122.386 20.144L123.346 20.144L123.346 21.088ZM124.578 21.088L123.618 21.088L123.618 20.144L124.578 20.144L124.578 21.088ZM125.81 21.088L124.85 21.088L124.85 20.144L125.81 20.144L125.81 21.088ZM128.26 11.248L127.316 11.248L127.316 10.288L128.26 10.288L128.26 11.248ZM129.492 11.248L128.532 11.248L128.532 10.288L129.492 10.288L129.492 11.248ZM130.724 11.248L129.764 11.248L129.764 10.288L130.724 10.288L130.724 11.248ZM131.956 11.248L130.996 11.248L130.996 10.288L131.956 10.288L131.956 11.248ZM133.188 11.248L132.228 11.248L132.228 10.288L133.188 10.288L133.188 11.248ZM134.42 11.248L133.46 11.248L133.46 10.288L134.42 10.288L134.42 11.248ZM128.26 12.48L127.316 12.48L127.316 11.52L128.26 11.52L128.26 12.48ZM128.26 13.712L127.316 13.712L127.316 12.752L128.26 12.752L128.26 13.712ZM128.26 14.944L127.316 14.944L127.316 13.984L128.26 13.984L128.26 14.944ZM128.26 16.176L127.316 16.176L127.316 15.216L128.26 15.216L128.26 16.176ZM129.492 16.176L128.532 16.176L128.532 15.216L129.492 15.216L129.492 16.176ZM130.724 16.176L129.764 16.176L129.764 15.216L130.724 15.216L130.724 16.176ZM131.956 16.176L130.996 16.176L130.996 15.216L131.956 15.216L131.956 16.176ZM133.188 16.176L132.228 16.176L132.228 15.216L133.188 15.216L133.188 16.176ZM128.26 17.408L127.316 17.408L127.316 16.448L128.26 16.448L128.26 17.408ZM128.26 18.64L127.316 18.64L127.316 17.68L128.26 17.68L128.26 18.64ZM128.26 19.856L127.316 19.856L127.316 18.912L128.26 18.912L128.26 19.856ZM128.26 21.088L127.316 21.088L127.316 20.144L128.26 20.144L128.26 21.088ZM129.492 21.088L128.532 21.088L128.532 20.144L129.492 20.144L129.492 21.088ZM130.724 21.088L129.764 21.088L129.764 20.144L130.724 20.144L130.724 21.088ZM131.956 21.088L130.996 21.088L130.996 20.144L131.956 20.144L131.956 21.088ZM133.188 21.088L132.228 21.088L132.228 20.144L133.188 20.144L133.188 21.088ZM134.42 21.088L133.46 21.088L133.46 20.144L134.42 20.144L134.42 21.088ZM136.869 11.248L135.925 11.248L135.925 10.288L136.869 10.288L136.869 11.248ZM138.101 11.248L137.141 11.248L137.141 10.288L138.101 10.288L138.101 11.248ZM139.333 11.248L138.373 11.248L138.373 10.288L139.333 10.288L139.333 11.248ZM140.565 11.248L139.605 11.248L139.605 10.288L140.565 10.288L140.565 11.248ZM141.797 11.248L140.837 11.248L140.837 10.288L141.797 10.288L141.797 11.248ZM143.029 11.248L142.069 11.248L142.069 10.288L143.029 10.288L143.029 11.248ZM144.261 11.248L143.301 11.248L143.301 10.288L144.261 10.288L144.261 11.248ZM140.565 12.48L139.605 12.48L139.605 11.52L140.565 11.52L140.565 12.48ZM140.565 13.712L139.605 13.712L139.605 12.752L140.565 12.752L140.565 13.712ZM140.565 14.944L139.605 14.944L139.605 13.984L140.565 13.984L140.565 14.944ZM140.565 16.176L139.605 16.176L139.605 15.216L140.565 15.216L140.565 16.176ZM140.565 17.408L139.605 17.408L139.605 16.448L140.565 16.448L140.565 17.408ZM140.565 18.64L139.605 18.64L139.605 17.68L140.565 17.68L140.565 18.64ZM140.565 19.856L139.605 19.856L139.605 18.912L140.565 18.912L140.565 19.856ZM140.565 21.088L139.605 21.088L139.605 20.144L140.565 20.144L140.565 21.088Z" fill="black"/>
</svg>
