<svg width="160" height="160" viewBox="0 0 160 160" fill="none" xmlns="http://www.w3.org/2000/svg">
<rect x="0.5" y="0.5" width="159" height="159" fill="white" fill-opacity="0.1"/>
<path fill-rule="evenodd" clip-rule="evenodd" d="M44.7651 109.203C44.7642 109.024 44.7742 108.845 44.7953 108.667V108.427C44.7953 108.281 44.7999 108.14 44.8045 108L44.8045 108C44.8137 107.724 44.8226 107.451 44.7953 107.148C44.7781 106.867 44.7698 106.583 44.7614 106.299C44.758 106.186 44.7547 106.072 44.7508 105.959V105.72C44.6959 104.212 44.64 102.702 44.5829 101.189C44.5829 101.002 44.5756 100.813 44.5684 100.624L44.5683 100.624C44.5569 100.327 44.5455 100.03 44.5623 99.7364C44.5629 99.5795 44.5538 99.4227 44.5349 99.267C44.4877 98.8701 44.4762 98.4699 44.5006 98.071C44.5172 97.8745 44.5114 97.6768 44.4835 97.4816C44.453 97.2453 44.4416 97.007 44.4492 96.7689V95.8059C44.4492 95.4951 44.4344 95.1844 44.4196 94.8736C44.4131 94.7355 44.4065 94.5973 44.4012 94.4592C44.3693 93.6802 44.3407 92.9046 44.3156 92.1325C44.3156 91.7624 44.2744 91.4094 44.2299 91.0565C44.2067 90.8586 44.1986 90.6593 44.2059 90.4602C44.2333 89.9374 44.2333 89.4135 44.2059 88.8907V88.5241C44.1579 87.1397 44.1077 85.7553 44.0551 84.3709C44.0551 84.248 44.0524 84.1263 44.0498 84.0052C44.0444 83.765 44.0392 83.5272 44.0551 83.288V82.5684C44.0551 82.3263 44.0435 82.0803 44.0319 81.8349C44.0281 81.7537 44.0243 81.6726 44.0209 81.5918C44.0077 81.2809 44.0157 80.9695 44.0449 80.6597V80.413C44.0173 80.318 44 80.2203 43.9935 80.1217C44.0117 79.7846 44.0057 79.4414 43.9996 79.0942L43.9996 79.094C43.9965 78.9189 43.9935 78.7428 43.9935 78.5659L43.8907 75.7834C43.8798 75.6055 43.8925 75.4269 43.9283 75.2523C43.9283 75.1073 43.9161 74.9623 43.9035 74.8134C43.8863 74.6104 43.8685 74.4002 43.8804 74.1728C43.8804 73.8816 43.8804 73.5286 43.853 73.2031C43.7753 71.0488 43.6953 68.8922 43.6131 66.7334L43.6099 66.6484C43.5869 66.026 43.5639 65.4073 43.6131 64.8075V64.4443V64.1976C43.5648 64.0672 43.5427 63.9287 43.548 63.7898C43.5811 63.1867 43.5559 62.5836 43.5307 61.9805L43.5206 61.7337C43.5206 61.601 43.5144 61.4672 43.5083 61.3335L43.5083 61.3334L43.5083 61.3333C43.5032 61.222 43.4981 61.1109 43.4966 61.0004C43.4943 60.836 43.4951 60.7013 43.4958 60.5752V60.5751V60.575V60.5749V60.5748V60.5747V60.5745V60.5744V60.5743V60.5742V60.5741V60.5739V60.5737V60.5735V60.5733V60.5732V60.573C43.4962 60.5133 43.4966 60.4555 43.4966 60.3973C43.5188 59.9544 43.5188 59.5106 43.4966 59.0677L43.4865 58.7764H43.4931L43.4889 58.7634L43.4857 58.754C43.4521 57.7962 43.4158 56.8385 43.3766 55.8808C43.3766 55.7581 43.3743 55.6361 43.372 55.5147V55.5146C43.3675 55.2732 43.363 55.0339 43.3766 54.7946V53.9516C43.3766 53.6139 43.3592 53.2744 43.3418 52.9358L43.3418 52.9357C43.3361 52.8242 43.3303 52.7127 43.3252 52.6014C43.313 52.2893 43.3222 51.9768 43.3527 51.6659C43.3218 50.8915 43.2944 50.1205 43.267 49.346L43.2629 49.2426C43.2435 48.7498 43.2242 48.2604 43.2498 47.78V47.0569C43.2498 46.779 43.2365 46.4998 43.2231 46.22C43.2151 46.0513 43.207 45.8825 43.2019 45.7137C43.2019 45.6463 43.1992 45.5767 43.1965 45.5072V45.5072V45.5071V45.507V45.507V45.5069V45.5069V45.5068V45.5067V45.5067V45.5066V45.5066V45.5066V45.5066V45.5065V45.5065V45.5065V45.5065C43.1912 45.3676 43.1859 45.2292 43.2019 45.1105C43.2399 44.4128 43.2075 43.6975 43.1753 42.9862L43.1676 42.8146C43.1676 42.6536 43.1676 42.4719 43.1505 42.328L43.1299 41.838C43.1465 41.6703 43.181 41.5049 43.2327 41.3445H43.3527C43.3672 41.3865 43.3753 41.4304 43.3766 41.4748C43.4109 41.4748 43.4486 41.4748 43.4692 41.3377C43.8118 41.3377 44.1853 41.3171 44.5452 41.2966C44.6377 41.2966 44.7234 41.3548 44.8056 41.6016C44.8254 41.6673 44.8369 41.7352 44.8399 41.8037V42.7632C44.8441 43.0103 44.8338 43.2575 44.809 43.5034C44.785 44.0894 44.7816 44.6856 44.809 45.3024C44.8192 45.4622 44.8192 45.6224 44.809 45.7822C44.7885 46.0947 44.7953 46.4163 44.8021 46.7399V46.74V46.7401V46.7401V46.7402V46.7403V46.7404V46.7405V46.7406V46.7407V46.7407C44.8056 46.903 44.809 47.0659 44.809 47.2283C44.8227 47.6155 44.8373 48.0019 44.8519 48.3882V48.3883V48.3883V48.3883V48.3883V48.3884V48.3884V48.3884V48.3884V48.3884V48.3885C44.8664 48.7748 44.881 49.161 44.8947 49.5482C44.9152 49.9489 44.9152 50.3503 44.8947 50.751C44.8707 51.1382 44.8947 51.5597 44.9187 51.9641C44.9187 52.1406 44.9237 52.3167 44.9286 52.4922L44.9286 52.4923C44.9385 52.8414 44.9483 53.188 44.9187 53.5301V54.2565L44.9187 54.2576V54.2577V54.2578V54.2579V54.2579V54.258V54.2581V54.2581V54.2582V54.2583V54.2584C44.9393 54.8677 44.9598 55.4771 44.9838 56.0899C44.997 56.4007 44.9889 56.7122 44.9598 57.0219C44.9941 57.9243 45.0272 58.8233 45.0592 59.7188C45.062 59.7975 45.065 59.8761 45.068 59.9546L45.068 59.9547L45.068 59.9548L45.068 59.9549C45.087 60.4477 45.1059 60.9387 45.0763 61.4322V62.1621C45.0864 62.4614 45.0973 62.7616 45.1082 63.0621L45.1083 63.0628L45.1083 63.0635L45.1083 63.0642L45.1083 63.0651C45.1197 63.376 45.131 63.6874 45.1414 63.9988C45.1414 64.08 45.1441 64.1639 45.1468 64.2477C45.1521 64.4149 45.1574 64.5815 45.1414 64.7253C45.1232 65.0445 45.1292 65.3652 45.1353 65.6885L45.1353 65.6887C45.1383 65.8512 45.1414 66.0143 45.1414 66.1782L45.3984 73.1654C45.4601 74.7645 45.5195 76.3637 45.5766 77.9628C45.6005 78.4057 45.6005 78.8495 45.5766 79.2924C45.568 79.4522 45.568 79.6124 45.5766 79.7722L45.5769 79.779C45.5973 80.3489 45.6176 80.9121 45.5766 81.465V82.0715C45.5766 82.3547 45.59 82.6366 45.6035 82.918L45.6035 82.9181L45.6035 82.9183C45.6115 83.0862 45.6195 83.2539 45.6246 83.4216C45.6246 83.5153 45.6265 83.6109 45.6284 83.7064V83.7065C45.6322 83.8976 45.636 84.0887 45.6246 84.2646V85.3543C45.6657 86.4578 45.7057 87.5612 45.7445 88.6646C45.7445 88.7812 45.7473 88.895 45.75 89.0065V89.0065C45.7553 89.2226 45.7603 89.4297 45.7445 89.6309C45.7312 89.949 45.7438 90.2676 45.7822 90.5836C45.8088 90.7996 45.8193 91.0478 45.8293 91.2845L45.8302 91.3066C45.8873 92.8189 45.9433 94.3313 45.9981 95.8436V96.5632C45.9916 96.7624 46.0008 96.9618 46.0255 97.1595C46.0654 97.4754 46.0746 97.7945 46.0529 98.1121C46.0319 98.4289 46.0434 98.7469 46.0872 99.0613C46.1117 99.2168 46.1266 99.3736 46.1317 99.5308C46.1317 99.877 46.1503 100.216 46.1689 100.554C46.1812 100.778 46.1934 101.002 46.2003 101.227C46.2088 101.508 46.2198 101.792 46.2309 102.076V102.076V102.076V102.076V102.076V102.076V102.076V102.076V102.076V102.076V102.077C46.2421 102.365 46.2533 102.654 46.262 102.94V103.663C46.2357 104.35 46.2597 105.037 46.3339 105.72C46.3716 106.038 46.3853 106.36 46.399 106.686C46.4159 107.128 46.4318 107.57 46.4478 108.011C46.4644 108.468 46.481 108.926 46.4984 109.383L46.519 109.873C46.519 109.927 46.5332 109.977 46.5477 110.028C46.56 110.071 46.5725 110.116 46.5772 110.164C46.5952 110.362 46.6032 110.561 46.6012 110.76C46.6012 110.902 46.5989 111.045 46.5967 111.187C46.5921 111.475 46.5875 111.765 46.6012 112.062C46.617 112.23 46.5812 112.399 46.4984 112.546C46.3755 112.573 46.2637 112.572 46.1572 112.477L45.2955 113.036C45.2538 113.063 45.2055 113.079 45.1556 113.082C45.1056 113.085 45.0558 113.075 45.0111 113.053C44.984 113.039 44.9614 113.017 44.946 112.991C44.8979 112.905 44.855 112.817 44.8123 112.729L44.8123 112.729C44.7941 112.692 44.7759 112.655 44.7575 112.618C44.7029 112.524 44.6625 112.422 44.6375 112.316C44.5467 112.077 44.4319 111.847 44.2949 111.631C44.2545 111.573 44.2211 111.511 44.1955 111.446C44.1223 111.25 44.0257 111.063 43.9076 110.891L43.3799 110.034C43.2826 109.889 43.2021 109.734 43.1401 109.571C43.0698 109.41 42.9837 109.256 42.883 109.112C42.7568 108.923 42.65 108.723 42.5644 108.512C42.5234 108.416 42.4729 108.324 42.4136 108.238C42.2765 108.012 42.1394 107.786 41.9989 107.553C41.9267 107.436 41.8724 107.309 41.8379 107.176L41.2245 106.182C41.0877 105.978 40.9728 105.76 40.8818 105.531C40.8409 105.435 40.7904 105.343 40.731 105.257C40.5905 105.031 40.4501 104.805 40.313 104.572C40.2536 104.484 40.2031 104.391 40.1622 104.294C40.0858 104.099 39.9881 103.913 39.8709 103.739C39.3386 102.88 38.8098 102.02 38.2843 101.159C37.9211 100.571 37.559 99.9832 37.1981 99.3938C37.0883 99.2364 36.9986 99.0661 36.9308 98.8866C36.9062 98.8209 36.8752 98.7578 36.8383 98.6982C36.7019 98.4935 36.5871 98.2753 36.4956 98.0471C36.4587 97.967 36.4152 97.8902 36.3654 97.8175C36.3111 97.7307 36.2559 97.64 36.2017 97.5511L36.2009 97.5498L36.2006 97.5493L36.2004 97.549C36.1524 97.4702 36.1053 97.3928 36.0604 97.3206C35.9938 97.2114 35.9365 97.0968 35.889 96.9779C35.829 96.8321 35.7555 96.6922 35.6697 96.5599L34.9193 95.3399C34.8444 95.2214 34.778 95.0977 34.7205 94.9699C34.6694 94.8437 34.5963 94.7277 34.5046 94.6272C34.4345 94.5479 34.3725 94.4618 34.3196 94.3702C33.9773 93.8157 33.635 93.2577 33.2927 92.6998L33.2916 92.6979C33.2375 92.6087 33.1895 92.5159 33.1476 92.4204C33.1177 92.3385 33.071 92.2638 33.0106 92.201C32.9164 92.1037 32.845 91.9867 32.8015 91.8584C32.7576 91.7287 32.6837 91.6113 32.5857 91.5157C32.5348 91.4693 32.492 91.4149 32.4589 91.3546C32.3408 91.1405 32.2103 90.9334 32.0682 90.7344C32.0048 90.6265 31.9389 90.5211 31.8729 90.4158L31.8729 90.4157L31.8728 90.4156C31.8069 90.3103 31.7409 90.2049 31.6776 90.097C31.6246 90.0077 31.5777 89.915 31.5371 89.8194C31.424 89.5433 31.2666 89.2875 31.071 89.0621C30.9803 88.955 30.8989 88.8404 30.8277 88.7195L30.3061 87.8667L30.3035 87.8695C30.2105 87.9697 30.1362 88.0858 30.0842 88.2122L29.7964 88.7982C29.7532 88.904 29.6917 89.0015 29.6147 89.086C29.5424 89.1739 29.4856 89.2736 29.4468 89.3807C29.3886 89.5174 29.31 89.6445 29.2138 89.7577C29.1711 89.8105 29.1364 89.8694 29.111 89.9324C29.031 90.0855 28.9557 90.2397 28.8848 90.395C28.8442 90.4767 28.7856 90.5482 28.7135 90.6041L28.678 90.6775L28.6779 90.6776L28.6778 90.6778C28.5799 90.88 28.4808 91.0847 28.3708 91.2894C28.3103 91.4381 28.2258 91.5759 28.1207 91.6972C28.0776 91.7511 28.043 91.8112 28.0179 91.8754C27.9425 92.0296 27.8671 92.1838 27.7883 92.338C27.7629 92.401 27.7282 92.4599 27.6855 92.5128C27.5952 92.6144 27.5222 92.7301 27.4696 92.8554C27.1783 93.4448 26.8905 94.0308 26.6026 94.6202L26.4582 94.917L26.4581 94.9172L26.4581 94.9173L26.4581 94.9173L26.4581 94.9174L26.458 94.9174L26.4578 94.9179L26.4577 94.9181L26.4575 94.9184L26.4575 94.9185L26.4575 94.9185L26.4572 94.919C26.3102 95.2215 26.1627 95.5249 26.0132 95.8264C25.9664 95.9436 25.8991 96.0515 25.8145 96.1451C25.7836 96.1786 25.7581 96.2168 25.7391 96.2582C25.6748 96.4054 25.5881 96.5418 25.4821 96.6626C25.4467 96.708 25.4189 96.759 25.3998 96.8133C25.3667 96.8776 25.3359 96.9418 25.3047 97.0067L25.3046 97.0068L25.3045 97.0071L25.3045 97.0072C25.2808 97.0563 25.257 97.1058 25.2319 97.156C25.1971 97.2285 25.1533 97.2965 25.1017 97.3582C25.0365 97.4373 24.9824 97.525 24.9406 97.6186C24.895 97.7111 24.8497 97.8036 24.8044 97.8961C24.7137 98.0812 24.6231 98.2663 24.5294 98.4513C24.4921 98.5354 24.4449 98.6148 24.3889 98.6878C24.3282 98.7551 24.2878 98.8383 24.2724 98.9277C24.2593 98.9947 24.2362 99.0594 24.2039 99.1195C24.0189 99.5033 23.8304 99.8837 23.6419 100.264C23.6114 100.325 23.5747 100.382 23.5323 100.435C23.4942 100.478 23.4692 100.53 23.4603 100.586C23.4499 100.679 23.4046 100.765 23.3335 100.826C23.2677 100.89 23.2265 100.975 23.217 101.066C23.2166 101.112 23.2048 101.156 23.1827 101.196C23.0996 101.332 23.0318 101.477 22.9805 101.628C22.9404 101.703 22.9032 101.779 22.8658 101.857L22.8657 101.857L22.8657 101.857C22.8328 101.924 22.7999 101.992 22.7647 102.06C22.7334 102.12 22.6967 102.177 22.655 102.231C22.5246 102.377 22.4368 102.556 22.4014 102.748C22.3781 102.836 22.346 102.921 22.3055 103.002L22.2485 103.118L22.2485 103.118C22.1551 103.308 22.0625 103.497 21.9628 103.687C21.9628 103.716 21.945 103.744 21.9272 103.772C21.9191 103.785 21.911 103.798 21.9045 103.811C21.9111 103.842 21.9111 103.875 21.9045 103.907C21.8905 103.962 21.866 104.014 21.8326 104.061C21.7519 104.154 21.6796 104.253 21.6167 104.359C21.5994 104.386 21.5744 104.407 21.5451 104.419C21.5157 104.431 21.4833 104.434 21.4522 104.428C21.3619 104.403 21.2783 104.359 21.2077 104.298C21.1371 104.237 21.0812 104.161 21.0444 104.075L20.784 103.944C20.7617 103.934 20.7423 103.918 20.7274 103.898C20.7125 103.879 20.7025 103.856 20.6983 103.831C20.5472 103.76 20.4121 103.658 20.3008 103.533C20.2778 103.51 20.2628 103.479 20.2579 103.447C20.253 103.414 20.2584 103.381 20.2734 103.352C20.2822 103.33 20.2929 103.308 20.3036 103.286C20.3179 103.256 20.3322 103.227 20.3419 103.197C20.3722 103.137 20.393 103.072 20.4036 103.005C20.4097 102.956 20.4266 102.908 20.4532 102.865C20.4799 102.822 20.5156 102.786 20.5578 102.759L20.5887 102.7C20.6148 102.651 20.6506 102.61 20.6864 102.569C20.7305 102.519 20.7747 102.469 20.8011 102.402C20.8314 102.327 20.8617 102.267 20.892 102.208C20.9097 102.173 20.9274 102.139 20.9451 102.101L20.9759 102.043C21.0866 101.813 21.1986 101.584 21.3104 101.356C21.3853 101.203 21.4602 101.051 21.5345 100.898C21.5875 100.774 21.6578 100.659 21.7435 100.555C21.7711 100.52 21.7877 100.477 21.7915 100.432C21.8107 100.319 21.866 100.216 21.9491 100.137C21.9938 100.101 22.0221 100.048 22.0279 99.9899C22.0379 99.9219 22.0664 99.8579 22.1101 99.8049C22.1621 99.7309 22.2101 99.6543 22.2541 99.5753C22.2872 99.511 22.3181 99.4468 22.3493 99.3819C22.373 99.3326 22.3968 99.2829 22.422 99.2326C22.4578 99.1598 22.4931 99.0865 22.5284 99.013L22.5285 99.0129L22.5287 99.0125C22.5881 98.8892 22.6476 98.7655 22.7098 98.6432C22.756 98.5517 22.7872 98.4533 22.8024 98.3519C22.8098 98.2954 22.835 98.2426 22.8743 98.2012C22.9736 98.0903 23.0525 97.9627 23.1073 97.8242L23.1553 97.7317C23.2032 97.6341 23.2516 97.5364 23.3002 97.4383L23.3007 97.4373L23.3011 97.4364C23.4229 97.1908 23.5461 96.9422 23.6659 96.6831C23.708 96.59 23.7634 96.5034 23.8304 96.4261C23.8747 96.3736 23.9126 96.3161 23.9435 96.2548C23.9846 96.176 24.0257 96.0937 24.0634 96.0081C24.1046 95.9277 24.1617 95.8566 24.2313 95.799L24.2621 95.7373V95.6448C24.3592 95.5341 24.4368 95.4079 24.4917 95.2713C24.6048 95.0383 24.7213 94.8053 24.8344 94.586C24.8461 94.561 24.8628 94.5387 24.8834 94.5204C24.904 94.5022 24.9282 94.4883 24.9544 94.4797C24.9787 94.38 25.0217 94.2858 25.0811 94.2022C25.1342 94.1284 25.1768 94.0477 25.2079 93.9623C25.4752 93.4186 25.7414 92.8737 26.0064 92.3277C26.0762 92.1587 26.1735 92.0024 26.2942 91.8651C26.3129 91.837 26.329 91.8071 26.3422 91.776L26.373 91.7143C26.3612 91.6953 26.3549 91.6733 26.3549 91.6509C26.3549 91.6285 26.3612 91.6066 26.373 91.5875C26.4982 91.4388 26.5989 91.2711 26.6712 91.0907C26.6814 91.0701 26.6913 91.0495 26.7012 91.029C26.721 90.9879 26.7408 90.9467 26.7637 90.9056C26.7872 90.8544 26.8184 90.807 26.8562 90.7651C26.939 90.6701 27.0061 90.5625 27.055 90.4464L27.1512 90.2485C27.2495 90.0461 27.3483 89.8426 27.449 89.6411C27.4907 89.5475 27.5449 89.4599 27.6101 89.3807C27.6614 89.3194 27.7041 89.2514 27.7369 89.1785C27.7986 89.0689 27.8534 88.9558 27.9048 88.8359C27.9455 88.7542 28.004 88.6827 28.0761 88.6268L28.3605 88.0409C28.4173 87.9034 28.496 87.7761 28.5936 87.6639C28.6363 87.6111 28.671 87.5522 28.6964 87.4891C28.7546 87.3761 28.8095 87.263 28.8643 87.1465C28.8833 87.0931 28.9111 87.0433 28.9465 86.9991C29.0895 86.8322 29.2052 86.6437 29.2892 86.4406L29.3509 86.3172L29.4126 86.1938C29.462 86.1598 29.518 86.1365 29.577 86.1253L29.6867 86.1767C29.69 86.1831 29.6917 86.1901 29.6917 86.1973C29.6917 86.2044 29.69 86.2115 29.6867 86.2178C29.7034 86.2255 29.7215 86.2295 29.7398 86.2295C29.7582 86.2295 29.7763 86.2255 29.7929 86.2178L30.0701 86.3535C30.0959 86.3597 30.1212 86.3683 30.1458 86.379L30.396 86.2316C30.4194 86.2146 30.4476 86.2055 30.4765 86.2055C30.5054 86.2055 30.5336 86.2146 30.557 86.2316C30.704 86.1402 30.874 86.0926 31.047 86.0946C31.1121 86.0946 31.191 86.146 31.2561 86.2385C31.2876 86.2833 31.3103 86.32 31.3311 86.3538C31.3533 86.3898 31.3735 86.4224 31.4 86.4578C31.4533 86.546 31.5153 86.6287 31.585 86.7045C31.6923 86.8136 31.765 86.9519 31.7941 87.102L31.8455 87.1911C31.8879 87.2638 31.9176 87.3392 31.9473 87.4146C31.9848 87.5098 32.0223 87.605 32.0853 87.6949C32.1663 87.8101 32.2244 87.9095 32.2835 88.0108C32.307 88.051 32.3307 88.0916 32.3561 88.1335L32.4109 88.2191L33.4389 89.8914C33.558 90.0646 33.659 90.2494 33.7405 90.4431C33.7684 90.5059 33.808 90.5629 33.857 90.611C33.9739 90.741 34.0626 90.8939 34.1174 91.0599C34.1408 91.1432 34.1858 91.2188 34.2476 91.2792C34.3205 91.3526 34.3776 91.4401 34.4155 91.5362C34.4772 91.6642 34.5423 91.7875 34.6109 91.9063L34.6283 91.9357C34.7222 92.0945 34.819 92.2582 34.9158 92.4066C34.9705 92.4956 35.0245 92.5846 35.0786 92.6737L35.0787 92.6738L35.0788 92.6741C35.1975 92.8696 35.3165 93.0657 35.4436 93.2633C35.5235 93.3976 35.6177 93.5228 35.7246 93.6369C35.7838 93.7006 35.8303 93.775 35.8616 93.8562C35.9445 94.0687 36.0514 94.271 36.1803 94.4593L36.2626 94.5929L37.2049 96.1247C37.2896 96.2571 37.3619 96.397 37.4208 96.5427C37.462 96.6386 37.5101 96.7314 37.5647 96.8203C37.6333 96.9402 37.7086 97.0636 37.784 97.163C37.8569 97.2795 37.9112 97.4067 37.9451 97.5399L37.9999 97.629C38.0113 97.6383 38.0242 97.6476 38.0369 97.6568C38.0666 97.6781 38.0955 97.6989 38.1027 97.7181C38.1864 97.927 38.2933 98.1259 38.4214 98.3109L38.4222 98.3122L38.4223 98.3123C38.631 98.6545 38.8398 98.9968 39.0519 99.339C39.0969 99.4045 39.1208 99.4822 39.1205 99.5617C39.2183 99.684 39.3033 99.8161 39.3741 99.9558C39.4325 100.084 39.5036 100.205 39.5865 100.319C39.9172 100.856 40.2463 101.394 40.5771 101.934C40.7364 102.195 40.8961 102.456 41.0566 102.718C41.211 102.949 41.3408 103.196 41.4438 103.454C41.4669 103.502 41.4933 103.548 41.5226 103.592L41.5775 103.681C41.608 103.691 41.636 103.707 41.6597 103.729C41.6833 103.751 41.702 103.778 41.7145 103.807C41.829 104.083 41.9713 104.346 42.1394 104.592C42.1546 104.617 42.17 104.641 42.1854 104.666L42.1855 104.666L42.1855 104.666C42.226 104.731 42.2668 104.796 42.3039 104.863C42.3513 104.937 42.3914 105.015 42.4239 105.096C42.4944 105.274 42.584 105.444 42.6911 105.603L43.4142 106.778C43.5 106.911 43.5734 107.051 43.6335 107.197C43.6804 107.31 43.7378 107.419 43.8048 107.522C43.9008 107.69 44.0036 107.865 44.1098 108.019C44.1807 108.137 44.2349 108.263 44.2709 108.396L44.7651 109.203ZM43.4857 58.754C43.4797 58.7372 43.4731 58.7207 43.4657 58.7045C43.4657 58.7215 43.4668 58.7353 43.4677 58.7478C43.4685 58.758 43.4692 58.7672 43.4692 58.7764H43.4865L43.4857 58.754ZM27.2126 90.4053H27.2331V90.3779C27.2331 90.3779 27.2057 90.3985 27.2023 90.4053H27.2126ZM84.4119 109.595L84.148 109.715C84.1035 109.736 84.0487 109.715 83.9733 109.647C83.8609 109.737 83.7024 109.714 83.547 109.691L83.5168 109.687L83.4811 109.682C83.4692 109.68 83.4573 109.679 83.4455 109.677C83.3736 109.677 83.2845 109.568 83.2057 109.424C83.1521 109.326 83.1207 109.258 83.0877 109.187L83.0876 109.187L83.0637 109.136C83.0555 109.118 83.047 109.1 83.0378 109.081C82.9725 108.951 82.8993 108.825 82.8185 108.704C82.6965 108.527 82.6104 108.328 82.5649 108.118L82.5032 107.985C82.453 107.875 82.4157 107.767 82.3783 107.659C82.3314 107.523 82.2844 107.387 82.2119 107.248C82.1254 107.082 82.0585 106.943 81.9912 106.803C81.9572 106.732 81.9231 106.661 81.8864 106.587C81.8658 106.542 81.8453 106.497 81.8213 106.453C81.684 106.171 81.5464 105.89 81.4087 105.608L81.407 105.604C81.136 105.049 80.8645 104.494 80.5945 103.938C80.4538 103.674 80.3325 103.4 80.2312 103.119C80.195 103.028 80.1491 102.942 80.0942 102.862C79.957 102.655 79.8508 102.43 79.7789 102.193C79.7478 102.071 79.6956 101.955 79.6247 101.851C79.5412 101.73 79.4733 101.598 79.4225 101.46C79.3506 101.278 79.2718 101.093 79.1895 100.912C79.0999 100.725 79.0083 100.54 78.9162 100.354L78.9159 100.353L78.9152 100.352L78.8229 100.165C78.7446 100.003 78.6659 99.8421 78.5873 99.6811C78.4558 99.4119 78.3244 99.1431 78.1958 98.8729C78.0947 98.6724 77.9802 98.4789 77.8531 98.2938C77.784 98.187 77.7287 98.0718 77.6886 97.9511C77.5836 97.6448 77.4553 97.3469 77.3048 97.0601C77.2844 97.0213 77.2651 96.9812 77.2457 96.9406L77.2226 96.8929L77.2054 96.858L76.0815 94.5518C75.9793 94.3525 75.8912 94.1464 75.8176 93.9349C75.7678 93.796 75.7106 93.6599 75.6463 93.5272C75.5617 93.3421 75.4726 93.1605 75.379 92.9823C75.2944 92.8094 75.2289 92.6279 75.1836 92.4409L75.1151 92.3038C75.0704 92.2596 75.0313 92.2101 74.9986 92.1565C74.8929 91.8537 74.7646 91.5593 74.6148 91.2758L74.5412 91.1249C74.4732 91.2733 74.3983 91.4185 74.3167 91.5601C74.2642 91.6491 74.2184 91.7419 74.1796 91.8377C74.0458 92.173 73.8901 92.4993 73.7136 92.8143C73.6528 92.9245 73.6002 93.0391 73.556 93.157C73.5227 93.2345 73.4898 93.3123 73.4568 93.3902C73.3776 93.5776 73.298 93.7656 73.2133 93.952C73.1446 94.1194 73.0668 94.283 72.9803 94.442C72.8672 94.6442 72.7676 94.8537 72.6821 95.0691L71.8597 97.0258C71.7825 97.2174 71.6956 97.405 71.5993 97.5878C71.4964 97.7636 71.418 97.9527 71.3663 98.1497C71.3226 98.2983 71.2688 98.4437 71.2052 98.5849C70.972 99.1485 70.7361 99.7107 70.5 100.273L70.4987 100.276C70.3606 100.606 70.2224 100.935 70.0847 101.265C70.023 101.405 69.9544 101.549 69.8825 101.679C69.8199 101.787 69.7705 101.902 69.7351 102.022C69.6862 102.221 69.6039 102.409 69.4918 102.581C69.3855 102.755 69.3069 102.944 69.2588 103.143C69.2383 103.241 69.2073 103.338 69.1663 103.43C69.0629 103.623 68.9871 103.827 68.9127 104.028L68.9127 104.028C68.8612 104.167 68.8104 104.304 68.7516 104.434C68.6699 104.615 68.5904 104.812 68.5099 105.011L68.5099 105.011C68.4487 105.162 68.387 105.314 68.3233 105.462C68.2647 105.605 68.1983 105.745 68.1246 105.88C67.9092 106.261 67.739 106.666 67.6174 107.087C67.5556 107.285 67.4836 107.479 67.4015 107.669L66.7333 109.263L66.6134 109.554C66.6093 109.617 66.6001 109.68 66.5859 109.742C66.546 109.86 66.4967 109.975 66.4386 110.085C66.3049 110.325 66.1782 110.568 66.0617 110.829C66.0034 110.956 65.8869 111.069 65.8321 111.062C65.7575 111.062 65.6885 111.048 65.6303 111.011L65.085 111.679C65.0267 111.754 64.9342 111.788 64.7423 111.733C64.694 111.716 64.6489 111.69 64.6087 111.658L64.0844 111.195C63.9447 111.08 63.8162 110.951 63.7006 110.812C63.3891 110.502 63.0595 110.212 62.7137 109.941C62.6186 109.872 62.5293 109.795 62.4464 109.712C62.1987 109.464 61.933 109.235 61.6514 109.026L60.3252 107.964C60.0917 107.788 59.8707 107.595 59.6638 107.388C59.4472 107.184 59.2183 106.993 58.9785 106.816C58.6757 106.584 58.3862 106.334 58.1115 106.069C57.9851 105.945 57.8499 105.831 57.7072 105.726L56.662 104.887C56.483 104.745 56.3178 104.587 56.1686 104.414L54.6265 103.184C54.2973 102.934 53.9838 102.664 53.6876 102.375C53.5309 102.225 53.365 102.086 53.1907 101.957L52.6904 101.556V100.244C52.6798 100.067 52.6798 99.8893 52.6904 99.7124C52.7265 99.3607 52.7403 99.007 52.7315 98.6536V93.5443V90.0319C52.7211 89.708 52.7348 89.3839 52.7727 89.0621C52.7795 88.948 52.7795 88.8335 52.7727 88.7194C52.7667 88.3063 52.785 87.8933 52.8275 87.4824C52.8363 87.334 52.8363 87.1852 52.8275 87.0369V86.0534C52.826 85.8475 52.8351 85.6416 52.8549 85.4366C52.8789 85.1723 52.8892 84.9069 52.8857 84.6416V82.2189C52.8815 81.9833 52.8895 81.7477 52.9097 81.513C52.9326 81.2851 52.9326 81.0555 52.9097 80.8276C52.8892 80.5946 52.8857 80.3273 52.8857 80.0737L55.5929 77.7846C55.7265 77.6716 55.8704 77.5619 56.0109 77.4625C56.1367 77.3839 56.2518 77.2894 56.3536 77.1815C56.5117 77.0101 56.6928 76.8614 56.8916 76.7395C57.0891 76.6145 57.2679 76.4622 57.4228 76.2872C57.4972 76.1995 57.5798 76.1192 57.6695 76.0473C57.8813 75.8969 58.0695 75.7256 58.2576 75.5544C58.3739 75.4486 58.4901 75.3428 58.6118 75.242L59.5713 74.4333C59.7084 74.3202 59.8489 74.2071 59.9894 74.1112C60.402 73.8277 60.7853 73.504 61.1339 73.1448C61.3004 72.9761 61.4754 72.816 61.6582 72.6651L63.1626 71.3938L63.4367 71.1607C63.4748 71.0987 63.5184 71.0402 63.5669 70.986C63.6744 70.8833 63.7889 70.7882 63.9096 70.7015C64.1666 70.5234 64.4202 70.3383 64.6738 70.1361C64.8006 70.0368 64.9719 69.9751 65.0164 70.0025C65.1673 70.0372 65.2612 70.1082 65.2756 70.2351L65.4865 70.1325L65.4891 70.1312C65.7186 70.0196 65.9475 69.9083 66.1747 69.7935C66.2269 69.77 66.2852 69.7636 66.3412 69.7753C66.3972 69.787 66.4481 69.8161 66.4865 69.8586C66.5191 69.8875 66.5459 69.9224 66.5654 69.9614C66.6179 70.0824 66.6674 70.2035 66.7169 70.3246C66.7416 70.3851 66.7664 70.4457 66.7915 70.5062C66.8574 70.6451 66.9068 70.7911 66.9389 70.9414C67.0581 71.294 67.2024 71.6375 67.3706 71.9694C67.4177 72.0564 67.4578 72.1469 67.4906 72.2402C67.5804 72.5238 67.6951 72.799 67.8333 73.0626L68.4638 74.351C68.5785 74.5716 68.6759 74.8007 68.7551 75.0364C68.8398 75.2726 68.9429 75.5017 69.0635 75.7217C69.2133 76.0076 69.3416 76.3043 69.4473 76.6093C69.5002 76.7501 69.562 76.8875 69.6323 77.0205C69.7934 77.3632 69.9578 77.7058 70.1292 78.0485C70.2122 78.222 70.2776 78.4034 70.3245 78.5899C70.5712 79.0902 70.8157 79.5905 71.0578 80.0909C71.2217 80.3994 71.3615 80.7202 71.4759 81.0503C71.5274 81.1918 71.5892 81.3292 71.6609 81.4616C71.7207 81.5861 71.7824 81.7107 71.844 81.8353C71.9518 82.0534 72.0597 82.2715 72.1578 82.4896C72.2271 82.6226 72.2877 82.76 72.3394 82.9008C72.4323 83.1834 72.5469 83.4583 72.6821 83.7232C73.2718 84.9302 73.8604 86.1362 74.4481 87.3412C74.9754 86.0838 75.5016 84.8275 76.0266 83.5723C76.1748 83.1886 76.3512 82.8163 76.5544 82.4586C76.5742 82.4228 76.5918 82.3801 76.6098 82.3365C76.6227 82.305 76.6359 82.273 76.6503 82.2428L76.7086 82.0988C76.7014 82.0081 76.7217 81.9174 76.7668 81.8384C76.9782 81.453 77.1626 81.0534 77.3185 80.6425C77.3391 80.5945 77.3593 80.5465 77.3795 80.4985L77.3796 80.4983C77.4199 80.4024 77.4602 80.3066 77.5036 80.2107C77.5514 80.0927 77.6075 79.9781 77.6715 79.868C77.8097 79.6194 77.931 79.3618 78.0347 79.097L78.8229 77.2157C78.9111 77.0004 79.0106 76.79 79.121 76.5852C79.2075 76.4274 79.2853 76.2649 79.354 76.0986C79.4189 75.9517 79.4816 75.8048 79.5446 75.6574L79.5447 75.6572L79.5447 75.657L79.5448 75.6568L79.5449 75.6566L79.5453 75.6556L79.5456 75.6549C79.5954 75.5383 79.6454 75.4212 79.6967 75.3036C79.7732 75.1184 79.8685 74.9416 79.9811 74.7759L80.5568 73.4052C80.6759 73.0918 80.8191 72.7882 80.9852 72.4971C81.0578 72.3607 81.1219 72.2199 81.1771 72.0756C81.2166 71.9844 81.2558 71.8924 81.2951 71.8001L81.2954 71.7994C81.3684 71.628 81.4419 71.4553 81.5197 71.284C81.5656 71.1663 81.6194 71.0518 81.6808 70.9413C81.9128 70.5102 82.1176 70.065 82.2942 69.6083L82.4141 69.3205L82.4504 69.2334C82.4792 69.1645 82.5075 69.0968 82.534 69.0292C82.5993 68.937 82.6778 68.855 82.7671 68.7859L82.8767 68.8339C82.8838 68.8608 82.8838 68.8892 82.8767 68.9161C82.8984 68.9255 82.9227 68.9269 82.9454 68.92C82.968 68.9131 82.9874 68.8983 83.0001 68.8784L83.9904 69.2896C84.0761 69.3273 84.1412 69.3993 84.1446 69.574C84.1448 69.6189 84.1354 69.6633 84.1172 69.7043C84.0636 69.82 84.0074 69.9344 83.9509 70.0491L83.9506 70.0497L83.9505 70.05C83.9169 70.1184 83.8832 70.187 83.8499 70.256C83.7852 70.4007 83.706 70.5384 83.6135 70.6672C83.4221 70.9979 83.2538 71.3414 83.1097 71.6952C83.0746 71.7914 83.031 71.8843 82.9795 71.9728C82.8231 72.2395 82.6901 72.5192 82.582 72.8089L82.0063 74.1796C81.9099 74.4165 81.7953 74.6456 81.6637 74.8649C81.5417 75.0928 81.4352 75.3287 81.345 75.5709C81.2231 75.883 81.0799 76.1864 80.9166 76.479C80.8428 76.6152 80.7775 76.756 80.7213 76.9004C80.6773 77.0056 80.6329 77.1107 80.5885 77.2159L80.5884 77.2161L80.5882 77.2166L80.5881 77.2168L80.588 77.2171C80.4807 77.4716 80.3731 77.7266 80.269 77.9833C80.1912 78.1685 80.0947 78.3453 79.9811 78.511L79.8976 78.7104C79.7031 79.1751 79.5086 79.6398 79.2958 80.1045C79.1685 80.4426 79.015 80.7703 78.8366 81.0845C78.7639 81.2221 78.6998 81.364 78.6447 81.5094C78.5375 81.762 78.4319 82.0145 78.3269 82.2659L78.3264 82.267L78.3249 82.2706L78.3232 82.2747L78.3227 82.2758L78.3223 82.2769L78.1889 82.5957C78.133 82.7408 78.0666 82.8817 77.9902 83.0172C77.8389 83.2873 77.7072 83.5678 77.5961 83.8567C77.0181 85.2275 76.4413 86.5982 75.8656 87.9689C75.6949 88.3769 75.5237 88.7843 75.3523 89.1917L75.3543 89.1958C75.5284 89.5512 75.7024 89.9063 75.8758 90.2615C76.0038 90.5047 76.1115 90.7579 76.198 91.0188C76.2304 91.1122 76.2681 91.2038 76.311 91.2929C76.4709 91.6025 76.6083 91.9231 76.7223 92.2524C76.7669 92.3701 76.8195 92.4846 76.8799 92.5951C76.9278 92.6951 76.9769 92.7951 77.026 92.8952C77.0996 93.0453 77.1732 93.1954 77.2431 93.3455C77.3217 93.5009 77.3904 93.6612 77.4487 93.8253C77.5243 94.0365 77.6136 94.2425 77.716 94.4421C77.8155 94.6467 77.9153 94.8513 78.0151 95.0559L78.0159 95.0574C78.215 95.4657 78.4142 95.874 78.6104 96.2823C78.7018 96.4598 78.7819 96.6429 78.8503 96.8305C78.9155 97.0163 79.0029 97.1935 79.1107 97.3583C79.1915 97.4834 79.2636 97.6139 79.3266 97.7489C79.7378 98.5873 80.1479 99.4269 80.5568 100.268C80.6212 100.403 80.6784 100.541 80.7281 100.682C80.7672 100.803 80.8226 100.919 80.8926 101.025C81.0053 101.187 81.0899 101.366 81.1428 101.556C81.1985 101.746 81.2866 101.924 81.4032 102.084C81.4618 102.161 81.5113 102.245 81.5506 102.334C81.6278 102.543 81.7293 102.729 81.8302 102.914L81.8302 102.914C81.8948 103.032 81.9591 103.15 82.0166 103.273L82.4826 104.229C82.5443 104.363 82.606 104.503 82.654 104.64C82.7945 105.039 82.9808 105.421 83.2091 105.778C83.3158 105.948 83.4119 106.124 83.4969 106.306L84.2268 107.803L84.3605 108.074C84.4052 108.117 84.4464 108.164 84.4839 108.214C84.5495 108.323 84.6045 108.438 84.6483 108.557C84.7374 108.807 84.83 109.054 84.943 109.304C84.9699 109.352 84.986 109.406 84.9901 109.461C84.9943 109.516 84.9864 109.571 84.967 109.623C84.8677 109.746 84.7032 109.804 84.4119 109.595ZM73.4703 88.8154C73.5173 88.9301 73.5693 89.0426 73.6262 89.1527L73.0488 90.5355C72.9295 90.8459 72.7874 91.1471 72.6239 91.4367C72.6054 91.4981 72.5939 91.5613 72.5896 91.6252L72.5279 91.7726C72.4155 91.9371 72.3202 92.1128 72.2435 92.2968C72.1681 92.4922 72.0859 92.6841 72.0002 92.876C71.9385 93.0165 71.8734 93.1638 71.8015 93.2906C71.688 93.492 71.5872 93.7003 71.4999 93.9143L70.4719 96.3678C70.4445 96.4398 70.4136 96.5118 70.3828 96.5837C70.263 96.8967 70.1198 97.2003 69.9544 97.4918C69.8916 97.5996 69.8421 97.7147 69.8071 97.8345C69.7476 98.0578 69.672 98.2766 69.5809 98.489L69.0052 99.8597C68.9411 100.001 68.8809 100.143 68.8209 100.284C68.7687 100.407 68.7168 100.53 68.6626 100.651C68.5803 100.843 68.4912 101.028 68.3987 101.21C68.3249 101.344 68.2685 101.487 68.2308 101.635C68.1995 101.756 68.1486 101.872 68.08 101.977C67.9448 102.196 67.841 102.432 67.7716 102.68C67.7472 102.777 67.7116 102.872 67.6654 102.961C67.5163 103.233 67.3869 103.516 67.2781 103.807C66.9012 104.698 66.5265 105.589 66.1542 106.48C66.137 106.528 66.1165 106.576 66.0959 106.621L66.0426 106.747L66.0424 106.748L66.0423 106.748L66.0421 106.748L66.042 106.749C65.9642 106.933 65.8912 107.106 65.8046 107.327C65.7458 107.477 65.6722 107.607 65.599 107.736C65.5402 107.84 65.4816 107.943 65.4311 108.056L65.3694 108.197C65.2388 108.377 65.1434 108.581 65.0884 108.797C65.0485 108.941 64.9993 109.083 64.9411 109.222C64.9188 109.282 64.894 109.342 64.8691 109.402L64.8689 109.402C64.8458 109.458 64.8227 109.514 64.8017 109.569C64.5064 109.328 64.2202 109.076 63.9439 108.814C63.8349 108.713 63.7205 108.618 63.6012 108.529L62.8336 107.916C62.6942 107.809 62.5604 107.694 62.4327 107.573C62.1605 107.306 61.8709 107.056 61.5657 106.826L60.243 105.768C60.0926 105.594 59.9262 105.434 59.7461 105.291C59.4891 105.089 59.2321 104.883 58.9785 104.674C58.8164 104.548 58.6609 104.413 58.5125 104.27C58.324 104.092 58.1218 103.917 57.9128 103.749L56.0932 102.293C55.8341 102.098 55.5891 101.885 55.3598 101.655C55.2518 101.552 55.1374 101.456 55.0172 101.368L54.5991 101.025L54.4243 100.888L54.3284 100.809V100.675V100.614L54.349 100.425C54.3576 100.322 54.3399 100.218 54.2976 100.124V99.9283V99.661C54.3465 99.1944 54.3659 98.7251 54.3558 98.2561V93.5237C54.3436 93.2886 54.3436 93.053 54.3558 92.8178C54.3748 92.5543 54.3748 92.2898 54.3558 92.0262C54.3994 91.9032 54.4192 91.7729 54.4141 91.6424V89.6069C54.4046 89.2283 54.4195 88.8494 54.4586 88.4727C54.4527 88.3995 54.4389 88.3271 54.4175 88.2568V88.0752C54.4589 87.8491 54.4796 87.6197 54.4792 87.3898V86.6736C54.4795 86.4985 54.4886 86.3235 54.5066 86.1494C54.5335 85.8864 54.545 85.6221 54.5409 85.3578V82.0544C54.5309 81.6722 54.5469 81.2898 54.5888 80.9098V80.8207C54.5895 80.8177 54.5899 80.8146 54.5901 80.8115C54.5905 80.8054 54.59 80.7993 54.5888 80.7933L54.5683 80.7625L54.5692 80.7589C54.5752 80.7344 54.5772 80.7265 54.6197 80.6905L55.9184 79.594L56.6415 78.9772C56.8265 78.8264 57.0115 78.6825 57.2 78.542C57.3433 78.4435 57.4744 78.3285 57.5907 78.1993C57.69 78.0907 57.8056 77.9982 57.9333 77.9251C58.1839 77.7691 58.4141 77.5827 58.6187 77.37C58.6975 77.285 58.7834 77.2071 58.8757 77.137C59.1669 76.9356 59.4451 76.7158 59.7084 76.4791L62.2236 74.3202L62.3573 74.2071C62.4333 74.1427 62.5062 74.082 62.579 74.0213C62.7194 73.9042 62.8596 73.7873 63.0221 73.6451C63.1566 73.5274 63.2941 73.4321 63.4314 73.3371L63.4315 73.337L63.4316 73.337C63.5461 73.2577 63.6604 73.1785 63.7725 73.0866L63.9096 72.9769C64.1315 72.8552 64.3318 72.6977 64.5024 72.5109C64.57 72.4433 64.6553 72.3669 64.7418 72.2893C64.787 72.2489 64.8325 72.2081 64.8759 72.1682L65.2186 71.8803C65.3468 71.7552 65.4343 71.6382 65.4518 71.5632C65.6056 71.8797 65.7429 72.204 65.8629 72.5349C65.9081 72.6523 65.9607 72.7668 66.0205 72.8775C66.0804 73.0025 66.1412 73.1265 66.2019 73.2506L66.202 73.2509C66.2629 73.3752 66.3237 73.4994 66.3837 73.6246C66.4523 73.7568 66.513 73.8929 66.5654 74.0324C66.6698 74.3378 66.7981 74.6346 66.9492 74.9199C67.1582 75.3517 67.3672 75.78 67.5797 76.2083C67.6262 76.3976 67.6929 76.5814 67.7784 76.7566C67.9018 77.0033 68.0252 77.2535 68.1417 77.5037C68.2203 77.6591 68.289 77.8193 68.3473 77.9834C68.4217 78.1945 68.5098 78.4006 68.6111 78.6002L69.4747 80.3718C69.6101 80.6129 69.7248 80.8651 69.8173 81.1257C69.8583 81.2433 69.9076 81.3578 69.9647 81.4684C70.0033 81.5542 70.0446 81.6387 70.0861 81.7234C70.1108 81.7741 70.1357 81.8249 70.16 81.8762C70.3595 82.2504 70.5313 82.6386 70.674 83.0379C70.7033 83.1214 70.7571 83.1942 70.8282 83.2469L70.8968 83.384C70.9318 83.4493 70.9627 83.5169 70.9893 83.5861C71.1203 83.9615 71.2783 84.3268 71.4622 84.6793C72.047 85.8764 72.6319 87.0746 73.2167 88.2739C73.3125 88.4489 73.3972 88.6298 73.4703 88.8154ZM69.5535 80.1937H69.5775C69.5658 80.1818 69.5518 80.1725 69.5364 80.1662L69.5535 80.1937ZM56.1377 102.495C56.1196 102.498 56.101 102.498 56.0829 102.495H56.1035H56.1377ZM78.2163 78.9325H78.2369V78.8811L78.2163 78.9325ZM111.357 112.357L111.644 112.326C111.847 112.611 112.032 112.614 112.206 112.546C112.254 112.525 112.299 112.371 112.282 112.234C112.254 111.96 112.234 111.689 112.234 111.422C112.225 111.297 112.207 111.173 112.179 111.052C112.161 110.991 112.137 110.933 112.107 110.877C112.102 110.848 112.097 110.819 112.091 110.791C112.077 110.718 112.062 110.646 112.062 110.572C112.021 110.277 111.98 109.98 111.939 109.684C111.903 109.423 111.866 109.161 111.829 108.9C111.805 108.699 111.769 108.5 111.72 108.303C111.612 107.889 111.553 107.463 111.545 107.035C111.543 106.966 111.535 106.895 111.527 106.824C111.517 106.744 111.507 106.663 111.507 106.583C111.497 106.508 111.487 106.434 111.476 106.36L111.451 106.186L111.451 106.186C111.419 105.968 111.388 105.749 111.36 105.521C111.343 105.381 111.317 105.247 111.291 105.115L111.291 105.115C111.25 104.901 111.209 104.691 111.209 104.469C111.197 104.371 111.176 104.274 111.144 104.181C111.085 103.99 111.056 103.791 111.058 103.591C111.067 103.391 111.043 103.191 110.986 102.999C110.951 102.88 110.932 102.756 110.932 102.632C110.927 102.481 110.915 102.33 110.894 102.18C110.766 101.243 110.636 100.305 110.503 99.3663C110.485 99.2173 110.458 99.0697 110.421 98.9242C110.368 98.732 110.34 98.5341 110.335 98.3348C110.328 98.1328 110.308 97.9315 110.277 97.7317C110.183 97.0464 110.089 96.361 109.993 95.6757C109.958 95.4487 109.938 95.2198 109.931 94.9903C109.926 94.8137 109.911 94.6375 109.886 94.4626C109.869 94.333 109.851 94.2034 109.832 94.0735C109.811 93.9251 109.79 93.7763 109.77 93.6265C109.747 93.5018 109.733 93.376 109.725 93.2495C109.72 92.896 109.689 92.5432 109.633 92.1941C109.618 92.0942 109.61 91.9935 109.609 91.8925C109.609 91.6155 109.584 91.3391 109.534 91.0667L109.122 88.1025C108.921 86.6587 108.721 85.2138 108.523 83.7677C108.47 83.4689 108.442 83.1664 108.437 82.863C108.433 82.7114 108.418 82.5602 108.392 82.4107C108.365 82.2076 108.337 82.0045 108.308 81.802L108.308 81.7997L108.308 81.7984C108.283 81.6228 108.259 81.4475 108.235 81.273C108.208 81.1225 108.192 80.9702 108.187 80.8173C108.18 80.4634 108.145 80.1105 108.084 79.7618C108.046 79.4833 108.008 79.2056 107.97 78.928L107.969 78.9275L107.969 78.9271L107.969 78.9266L107.969 78.9262L107.969 78.9257C107.931 78.6473 107.892 78.3689 107.854 78.0896C107.866 77.894 107.859 77.6979 107.834 77.5036C107.776 77.1267 107.724 76.7463 107.676 76.3693C107.649 76.22 107.633 76.0688 107.628 75.917C107.621 75.5897 107.59 75.2632 107.536 74.9404C107.492 74.6912 107.464 74.4393 107.454 74.1865C107.45 73.9351 107.429 73.6842 107.388 73.436C107.32 72.9563 107.255 72.4766 107.19 71.9968C107.135 71.7006 107.108 71.4001 107.107 71.099C107.108 70.9978 107.099 70.8968 107.08 70.7974C107.021 70.4257 106.99 70.0499 106.987 69.6735C107.003 69.5196 107.003 69.3647 106.987 69.2109L106.985 69.1695C107.031 69.1363 107.082 69.118 107.133 69.1001C107.178 69.0842 107.222 69.0685 107.262 69.043L107.313 69.0087C107.359 69.0078 107.403 68.9954 107.443 68.9726C107.482 68.9499 107.515 68.9175 107.539 68.8785C107.576 68.8312 107.619 68.7887 107.666 68.7517C107.688 68.7316 107.712 68.7139 107.736 68.6965L107.752 68.6847L107.77 68.6713C107.776 68.6673 107.781 68.6633 107.786 68.6592C107.81 68.6403 107.828 68.6144 107.837 68.585C107.847 68.5556 107.846 68.5241 107.837 68.4947C107.789 68.3353 107.715 68.1849 107.618 68.0492C107.624 68.0255 107.624 68.0008 107.619 67.977C107.614 67.9531 107.603 67.9309 107.587 67.9121L107.419 67.6757C107.417 67.5821 107.396 67.49 107.355 67.4055C107.315 67.321 107.258 67.2461 107.186 67.1857C107.164 67.1655 107.136 67.1522 107.106 67.1474C107.076 67.1425 107.046 67.1463 107.018 67.1583C106.922 67.2151 106.821 67.2633 106.717 67.3022C106.67 67.3212 106.628 67.3519 106.597 67.3913C106.582 67.417 106.572 67.4447 106.566 67.4735L106.467 67.5455L105.918 67.9464C105.848 67.9909 105.786 68.0464 105.733 68.1109C105.626 68.2498 105.481 68.3546 105.315 68.4124C105.258 68.4349 105.204 68.4636 105.154 68.4981L104.811 68.7517C104.705 68.8479 104.591 68.9339 104.469 69.0087C104.433 69.0296 104.404 69.0606 104.386 69.0978C104.343 69.1676 104.274 69.218 104.195 69.2383C104.112 69.2545 104.04 69.3025 103.992 69.3719C103.964 69.4143 103.924 69.4467 103.876 69.4645C103.817 69.4847 103.762 69.5136 103.711 69.5501C103.506 69.6964 103.3 69.8456 103.094 69.9949C102.992 70.0695 102.889 70.1441 102.786 70.2183C102.736 70.2544 102.691 70.297 102.653 70.3451C102.603 70.4107 102.535 70.4597 102.457 70.4856C102.382 70.5167 102.312 70.5582 102.248 70.609L101.563 71.099C101.491 71.1561 101.41 71.2012 101.323 71.2327C101.257 71.2609 101.194 71.2953 101.134 71.3355L100.86 71.5342C100.822 71.5691 100.778 71.5969 100.73 71.6165C100.594 71.6635 100.468 71.7343 100.357 71.8255C100.323 71.8498 100.286 71.8683 100.247 71.8803C100.139 71.9151 100.039 71.971 99.9522 72.0448L98.9756 72.7507L97.5501 73.7787C97.4565 73.8583 97.3482 73.9189 97.2314 73.9569C97.1727 73.9796 97.1182 74.012 97.0703 74.0529L96.6968 74.3236C96.6488 74.3625 96.5958 74.3948 96.5392 74.4195C96.4028 74.467 96.2762 74.539 96.1657 74.632L95.6174 75.0329C95.5361 75.0423 95.4584 75.0717 95.3912 75.1186C95.2937 75.1945 95.194 75.2661 95.0955 75.3368L95.0177 75.3927C94.9704 75.4318 94.9172 75.463 94.8601 75.4853C94.7358 75.5308 94.62 75.5969 94.5174 75.6806C94.4419 75.7498 94.3549 75.8055 94.2604 75.8451C94.162 75.8757 94.0702 75.9245 93.9897 75.989L93.5168 76.3317C93.4241 76.4125 93.3155 76.4732 93.1981 76.5099C93.1585 76.5222 93.1222 76.5433 93.0919 76.5715C93.0394 76.6127 92.984 76.6498 92.9261 76.6824C92.9271 76.5895 92.9275 76.4966 92.9275 76.4037C92.9549 76.109 92.9549 75.8143 92.9549 75.523C92.9618 75.3105 92.9789 75.1015 92.9995 74.8925C93.0183 74.7377 93.0183 74.5812 92.9995 74.4264C92.9773 74.2983 92.9773 74.1673 92.9995 74.0392C93.0441 73.7813 93.0545 73.5186 93.0303 73.2579C93.0201 73.1554 93.0201 73.052 93.0303 72.9495C93.0704 72.6347 93.0899 72.3176 93.0886 72.0003C93.1183 71.0111 93.1445 70.0231 93.1674 69.0361V68.8785C93.1845 68.6181 93.1845 68.4022 93.1845 68.1006C93.1845 67.9477 93.2057 67.8079 93.2265 67.6702C93.2468 67.5365 93.2668 67.4046 93.2668 67.2645V67.1103C93.3262 66.887 93.3425 66.6544 93.3147 66.425C93.2985 66.2713 93.2928 66.1168 93.2976 65.9624V65.5683C93.3103 65.4465 93.2774 65.3244 93.2051 65.2256C93.1756 65.2051 93.1462 65.183 93.1168 65.1609C92.9892 65.065 92.8612 64.9688 92.7219 64.9994C92.6911 64.8898 92.6465 64.8452 92.5985 64.8452L92.3073 64.8281C92.1565 64.4854 91.9749 64.4649 91.7967 64.53C91.7419 64.5437 91.6699 64.6945 91.6699 64.8384C91.6528 65.1296 91.6219 65.4072 91.5842 65.6882C91.5722 65.8181 91.5722 65.9489 91.5842 66.0789C91.591 66.1441 91.6048 66.2085 91.6253 66.2708V66.5929C91.6201 66.772 91.6136 66.9515 91.6071 67.1311C91.5922 67.5392 91.5774 67.9484 91.5774 68.3577C91.5774 68.4286 91.5755 68.4995 91.5736 68.5704C91.5697 68.7116 91.566 68.8524 91.5774 68.9916C91.6162 69.4382 91.6036 69.8878 91.5397 70.3315C91.5195 70.4883 91.508 70.6462 91.5054 70.8044C91.4999 70.9537 91.4966 71.1042 91.4934 71.2546C91.4884 71.4804 91.4835 71.7062 91.4711 71.9283C91.4625 72.0845 91.4654 72.2401 91.4683 72.3959C91.4723 72.6092 91.4763 72.8227 91.4506 73.0386C91.4371 73.141 91.4371 73.2446 91.4506 73.347C91.4814 73.5538 91.4814 73.7639 91.4506 73.9707C91.41 74.1749 91.4019 74.3842 91.4266 74.5909C91.4437 74.7206 91.4437 74.8519 91.4266 74.9816L91.4205 75.0354C91.405 75.1731 91.3889 75.3151 91.3889 75.4545L91.3869 75.5264C91.3602 76.4926 91.3335 77.4557 91.3101 78.422C91.3014 78.5795 91.3014 78.7374 91.3101 78.8949C91.334 79.1021 91.334 79.3114 91.3101 79.5186C91.2857 79.7291 91.272 79.9407 91.269 80.1525C91.2529 80.6339 91.2399 81.1169 91.227 81.6003L91.2269 81.6011L91.2269 81.6019L91.2269 81.6026L91.2269 81.6034C91.2205 81.8416 91.2141 82.0799 91.2073 82.3182C91.2068 82.5566 91.1908 82.7947 91.1593 83.031C91.1349 83.2128 91.1211 83.3959 91.1182 83.5793C91.0908 83.874 91.0908 84.1687 91.0908 84.4634C91.0922 84.5961 91.0865 84.7288 91.0736 84.8609C91.0202 85.2263 90.9927 85.595 90.9914 85.9643C90.9895 86.0699 90.9804 86.1752 90.964 86.2796C90.9192 86.5663 90.8986 86.8563 90.9023 87.1465C90.8715 88.1917 90.844 89.2334 90.8166 90.2786C90.7778 91.8046 90.7378 93.3295 90.6967 94.8533C90.6964 95.1698 90.6735 95.4859 90.6282 95.7991C90.6088 95.9571 90.5985 96.1162 90.5973 96.2754C90.5936 96.4212 90.588 96.5669 90.5825 96.7126C90.5728 96.9678 90.5631 97.223 90.5631 97.4782C90.5658 97.6373 90.5578 97.7965 90.5391 97.9545C90.4862 98.3211 90.461 98.691 90.4637 99.0614C90.4584 99.2427 90.4518 99.4239 90.4453 99.6051L90.4452 99.6068V99.607V99.6073V99.6075V99.6078C90.4304 100.015 90.4157 100.421 90.4157 100.826C90.3702 101.026 90.3449 101.231 90.3403 101.436C90.3374 101.608 90.3306 101.779 90.3239 101.951L90.3239 101.951C90.315 102.179 90.306 102.407 90.306 102.635C90.3077 102.794 90.2985 102.952 90.2786 103.108C90.232 103.449 90.208 103.792 90.2067 104.136C90.2121 104.401 90.1983 104.665 90.1655 104.928C90.1272 105.188 90.1077 105.45 90.1073 105.713L90.0662 107.234C90.0677 107.55 90.0448 107.865 89.9976 108.177C89.9806 108.281 89.9726 108.386 89.9736 108.492C89.9709 108.884 89.94 109.276 89.8811 109.664C89.842 109.822 89.8179 109.984 89.8092 110.147C89.8035 110.217 89.7958 110.286 89.7882 110.355C89.773 110.494 89.7578 110.632 89.7578 110.774C89.7568 110.82 89.7649 110.865 89.7818 110.908C89.8469 111.072 89.9325 111.117 90.025 111.117L91.0976 111.144C91.1285 111.062 91.1662 111.062 91.2004 111.062C91.1998 111.091 91.2057 111.121 91.2176 111.148H91.3375C91.3952 111.048 91.438 110.941 91.4643 110.829V110.51V110.188C91.464 109.687 91.4949 109.187 91.5568 108.691C91.5806 108.559 91.5955 108.426 91.6014 108.293C91.6288 108.002 91.6288 107.707 91.6288 107.416C91.6272 107.258 91.6363 107.1 91.6562 106.943C91.7052 106.602 91.7281 106.259 91.7247 105.915C91.7285 105.802 91.7327 105.689 91.7369 105.576V105.576V105.575V105.575V105.575C91.7514 105.181 91.7658 104.788 91.7658 104.397C91.8126 104.197 91.839 103.992 91.8447 103.787C91.8462 103.653 91.8513 103.519 91.8564 103.385C91.8625 103.224 91.8686 103.063 91.8686 102.903C91.8717 102.718 91.8855 102.534 91.9098 102.351C91.9408 102.116 91.9579 101.879 91.9612 101.642C91.9772 100.938 91.9954 100.244 92.016 99.5582C92.014 99.267 92.0346 98.9759 92.0777 98.6878C92.0954 98.5572 92.1057 98.4256 92.1085 98.2938V97.814C92.1058 97.3648 92.1344 96.916 92.1942 96.4707C92.2056 96.3784 92.1913 96.2848 92.1531 96.2V96.039V95.8025C92.2124 95.3859 92.2422 94.9657 92.2422 94.5449L92.4272 90.3197C92.4228 90.1081 92.4308 89.8964 92.4512 89.6858C92.4699 89.4508 92.4699 89.2148 92.4512 88.9799C92.4982 88.8718 92.5216 88.755 92.5197 88.6372L92.5711 86.8141C92.568 86.4704 92.5898 86.1268 92.6362 85.7861C92.6346 85.7208 92.623 85.6561 92.602 85.5942V85.4332C92.6489 85.2331 92.6753 85.0287 92.6808 84.8232V84.1858C92.6843 84.0287 92.6969 83.872 92.7185 83.7164C92.7495 83.4811 92.7666 83.2443 92.7699 83.007L92.8418 80.2896V80.0497C92.8397 79.7057 92.8637 79.3621 92.9138 79.0217C92.9294 78.892 92.9294 78.7608 92.9138 78.6311C92.8903 78.4232 92.8805 78.214 92.8843 78.005L92.9754 78.1307C93.0113 78.1337 93.0315 78.1576 93.0521 78.1819L93.061 78.1924C93.058 78.1976 93.0564 78.2035 93.0564 78.2095C93.0564 78.2128 93.0569 78.216 93.0578 78.219L93.0588 78.222C93.0594 78.2236 93.0602 78.2252 93.061 78.2267L93.133 78.3226C93.1861 78.3446 93.2438 78.3528 93.3009 78.3466L93.4003 78.2746L93.5031 78.2027C93.6506 78.0758 93.8186 77.975 94 77.9046C94.0464 77.8841 94.0892 77.8563 94.1268 77.8223C94.1626 77.7971 94.198 77.7713 94.2332 77.7457L94.2332 77.7456L94.2333 77.7456L94.2334 77.7455C94.289 77.705 94.3443 77.6647 94.4009 77.627C94.4481 77.5869 94.5013 77.5545 94.5585 77.531C94.6841 77.4882 94.8004 77.4219 94.9012 77.3357L95.3741 76.993C95.4551 76.9803 95.5323 76.9499 95.6003 76.9039C95.6894 76.8354 95.7819 76.7669 95.8744 76.7052C95.9314 76.6612 95.995 76.6265 96.0629 76.6024C96.1492 76.569 96.2301 76.5228 96.3028 76.4653L96.9538 75.9958C97.039 75.9221 97.138 75.8662 97.2451 75.8314C97.2938 75.8135 97.3399 75.7893 97.3822 75.7594L97.533 75.6497C97.6659 75.5379 97.8164 75.4487 97.9784 75.3859C98.0333 75.3756 98.0333 75.3276 98.0333 75.2865L98.0847 75.2488C98.108 75.2284 98.1347 75.2122 98.1635 75.2008C98.3171 75.1466 98.4599 75.0653 98.585 74.961L99.9077 74.0049C99.9666 73.9478 100.035 73.9014 100.11 73.8678C100.175 73.8475 100.217 73.8048 100.259 73.7623C100.28 73.7404 100.301 73.7186 100.326 73.6999C100.35 73.706 100.375 73.7064 100.4 73.7011C100.424 73.6957 100.447 73.6848 100.466 73.6691L101.035 73.2579C101.136 73.1719 101.252 73.1057 101.378 73.0625C101.395 73.0591 101.412 73.0146 101.412 72.9872L101.463 72.9495C101.545 72.9398 101.623 72.9091 101.69 72.8604C101.753 72.8086 101.819 72.7605 101.888 72.7164C101.938 72.6812 101.992 72.6525 102.049 72.6308C102.136 72.5999 102.217 72.5548 102.289 72.4971L103.136 71.8837L103.211 71.8323C103.311 71.745 103.428 71.6786 103.554 71.637C103.603 71.6197 103.645 71.5873 103.674 71.5445C103.727 71.4698 103.793 71.4048 103.869 71.3526L104.345 71.0099L104.377 70.9866L104.378 70.9864L104.378 70.986L104.378 70.9858C104.457 70.9281 104.538 70.8687 104.619 70.8146C104.688 70.77 104.759 70.73 104.832 70.6947C104.89 70.6741 104.94 70.6342 104.972 70.5816C104.986 70.5595 105.003 70.5407 105.025 70.5264C105.046 70.5122 105.07 70.5029 105.096 70.4993C105.196 70.4747 105.285 70.4152 105.346 70.3314C105.352 70.3243 105.359 70.3162 105.365 70.308C105.386 70.2809 105.409 70.2526 105.435 70.2526L105.439 70.251C105.458 70.4498 105.47 70.6492 105.476 70.8489C105.483 70.9753 105.498 71.1012 105.521 71.2258C105.533 71.3184 105.546 71.411 105.559 71.5036C105.585 71.6885 105.611 71.8735 105.634 72.0585C105.661 72.2067 105.677 72.3568 105.682 72.5074C105.689 72.8347 105.72 73.1611 105.774 73.484C105.807 73.7239 105.84 73.9629 105.874 74.202C105.907 74.441 105.941 74.68 105.973 74.9198C105.958 75.1164 105.965 75.3141 105.994 75.5092L105.994 75.5101C106.035 75.7874 106.076 76.0647 106.11 76.3454C106.135 76.5191 106.15 76.6942 106.155 76.8697C106.162 77.0991 106.182 77.328 106.216 77.555C106.31 78.2129 106.401 78.8709 106.491 79.5288C106.538 79.8028 106.563 80.0801 106.566 80.3581C106.571 80.4842 106.583 80.61 106.6 80.735C106.611 80.831 106.625 80.927 106.639 81.0239L106.649 81.0966C106.653 81.1279 106.658 81.1593 106.662 81.1908C106.734 81.6133 106.777 82.0404 106.789 82.469C106.792 82.559 106.822 82.6461 106.874 82.7191L106.895 82.8699C106.909 82.9446 106.918 83.0202 106.922 83.0961C106.93 83.4979 106.967 83.8987 107.032 84.2954C107.219 85.6319 107.406 86.9694 107.591 88.3082C107.628 88.5063 107.653 88.7066 107.666 88.9078C107.682 89.1328 107.715 89.3562 107.765 89.5761C107.74 89.6888 107.74 89.806 107.765 89.9187L108.002 91.6321C108.057 91.9514 108.089 92.2744 108.098 92.5984C108.11 92.6609 108.132 92.7211 108.163 92.7766L108.183 92.9274C108.168 93.1229 108.175 93.3195 108.204 93.5134C108.234 93.7167 108.261 93.9189 108.286 94.1199C108.307 94.2688 108.319 94.4186 108.324 94.5688C108.327 94.7985 108.348 95.0276 108.386 95.2542C108.488 96.1143 108.608 96.971 108.728 97.8277L108.759 98.0573C108.816 98.3798 108.846 98.7064 108.848 99.0339C108.852 99.159 108.87 99.2833 108.903 99.404C108.965 99.6207 109.011 99.8418 109.04 100.065C109.105 100.545 109.17 101.025 109.239 101.508C109.251 101.6 109.264 101.693 109.277 101.785C109.303 101.97 109.329 102.156 109.352 102.341C109.379 102.543 109.407 102.745 109.407 102.94C109.411 103.09 109.435 103.239 109.479 103.382C109.514 103.501 109.529 103.625 109.523 103.749C109.519 104 109.55 104.251 109.616 104.493C109.644 104.586 109.661 104.683 109.667 104.781C109.676 105.085 109.707 105.389 109.76 105.689L110.15 108.495L110.171 108.643C110.182 108.724 110.192 108.801 110.201 108.877C110.22 109.033 110.239 109.189 110.274 109.379C110.302 109.537 110.304 109.683 110.306 109.829C110.308 109.945 110.31 110.061 110.325 110.181C110.342 110.229 110.342 110.281 110.342 110.328C110.32 110.545 110.341 110.764 110.404 110.973C110.442 111.115 110.472 111.259 110.493 111.404C110.499 111.44 110.504 111.473 110.509 111.505L110.517 111.558L110.517 111.559L110.517 111.561L110.517 111.563C110.525 111.611 110.532 111.662 110.542 111.724L110.551 111.778C110.579 111.939 110.634 112.069 110.699 112.097C110.73 112.111 110.762 112.127 110.794 112.143C110.935 112.215 111.079 112.287 111.213 112.234C111.257 112.33 111.309 112.357 111.357 112.357ZM106.607 79.3438H106.583C106.583 79.3335 106.58 79.3061 106.58 79.3061C106.59 79.3178 106.599 79.3304 106.607 79.3438ZM91.7521 101.34V101.313C91.7521 101.313 91.7487 101.333 91.7521 101.34ZM91.8309 99.7364H91.8549C91.8507 99.7521 91.8496 99.7683 91.8515 99.7844C91.8418 99.7698 91.8348 99.7535 91.8309 99.7364ZM139.555 109.585L139.535 109.873C139.533 109.899 139.525 109.924 139.511 109.946C139.496 109.967 139.476 109.985 139.452 109.996C139.443 110.166 139.395 110.331 139.312 110.479C139.294 110.51 139.267 110.536 139.235 110.551C139.202 110.567 139.166 110.573 139.13 110.568H138.932C138.853 110.565 138.775 110.571 138.699 110.585C138.582 110.612 138.46 110.594 138.356 110.534H138.277C138.14 110.498 138.002 110.47 137.862 110.448C137.732 110.448 137.599 110.448 137.468 110.428H137.39L135.899 110.335C135.738 110.337 135.578 110.316 135.423 110.274C135.372 110.262 135.319 110.262 135.268 110.274C135.136 110.297 135 110.284 134.874 110.236C134.812 110.214 134.744 110.214 134.682 110.236C134.605 110.256 134.523 110.256 134.446 110.236C134.342 110.215 134.236 110.199 134.131 110.188C134.025 110.188 133.92 110.179 133.815 110.17L133.815 110.17C133.773 110.167 133.731 110.163 133.689 110.161L132.924 110.113C132.804 110.104 132.683 110.111 132.565 110.133C132.501 110.15 132.433 110.15 132.369 110.133C132.202 110.084 132.029 110.059 131.855 110.058H131.735L130.365 109.972C130.249 109.968 130.133 109.95 130.022 109.917C129.945 109.895 129.866 109.883 129.786 109.88C129.732 109.88 129.679 109.874 129.626 109.869C129.573 109.864 129.52 109.859 129.467 109.859C129.361 109.851 129.258 109.824 129.162 109.78H129.083C129.066 109.78 129.046 109.791 129.028 109.8C129.01 109.809 128.994 109.818 128.984 109.814C128.818 109.767 128.646 109.742 128.473 109.742L127.558 109.684C127.494 109.684 127.433 109.66 127.387 109.616C127.273 109.633 127.158 109.633 127.044 109.616C126.939 109.594 126.832 109.585 126.725 109.588L124.597 109.458C124.384 109.456 124.172 109.423 123.967 109.362C123.927 109.358 123.887 109.358 123.847 109.362H123.768C123.751 109.381 123.73 109.395 123.705 109.402C123.681 109.409 123.656 109.41 123.631 109.403C123.408 109.342 123.177 109.312 122.946 109.314L122.706 109.297C122.639 109.294 122.572 109.284 122.507 109.266C122.366 109.221 122.22 109.198 122.072 109.198L121.027 109.033C120.911 109.026 120.796 109.008 120.684 108.978C120.594 108.953 120.5 108.938 120.407 108.934C120.327 108.934 120.248 108.927 120.169 108.92C120.131 108.917 120.094 108.913 120.057 108.911C120.026 108.909 119.995 108.907 119.964 108.906C119.859 108.9 119.755 108.873 119.659 108.828L118.895 108.78C118.722 108.779 118.551 108.753 118.385 108.704C118.307 108.685 118.228 108.674 118.148 108.673L117.706 108.646C117.639 108.648 117.573 108.641 117.507 108.625C117.263 108.559 117.01 108.527 116.757 108.529H116.596H116.435C116.375 108.497 116.322 108.453 116.281 108.399V108.279C116.284 108.276 116.287 108.274 116.291 108.271C116.293 108.27 116.295 108.269 116.297 108.268L116.301 108.266C116.309 108.263 116.317 108.262 116.325 108.262C116.328 108.243 116.326 108.224 116.319 108.206C116.313 108.188 116.302 108.172 116.288 108.159L116.301 107.938C116.263 107.868 116.245 107.788 116.25 107.707L115.986 107.587C115.942 107.566 115.911 107.518 115.918 107.426C115.781 107.399 115.69 107.282 115.601 107.168L115.601 107.167C115.584 107.146 115.568 107.125 115.551 107.104C115.545 107.097 115.54 107.09 115.534 107.083C115.512 107.034 115.501 106.981 115.501 106.927C115.501 106.874 115.512 106.821 115.534 106.771L115.657 106.47C115.704 106.351 115.744 106.23 115.777 106.107C115.818 105.921 115.901 105.747 116.02 105.6L116.072 105.483C116.114 105.388 116.164 105.303 116.215 105.217L116.215 105.217C116.28 105.107 116.346 104.997 116.394 104.866C116.451 104.711 116.505 104.586 116.559 104.461L116.559 104.461L116.594 104.38C116.61 104.344 116.625 104.308 116.641 104.27L116.692 104.153L117.641 101.888C117.734 101.641 117.848 101.402 117.984 101.176C118.024 101.1 118.054 101.019 118.073 100.936C118.126 100.725 118.214 100.525 118.333 100.343C118.395 100.254 118.44 100.154 118.464 100.048C118.492 99.9219 118.539 99.8006 118.604 99.6884C118.683 99.5376 118.758 99.3765 118.83 99.2189L119.115 98.5335L119.601 97.3684C119.679 97.1891 119.741 97.0033 119.786 96.8133C119.813 96.7084 119.854 96.6079 119.91 96.5152C120.055 96.2704 120.179 96.0136 120.28 95.7476L120.355 95.566L121.226 93.4894C121.297 93.3067 121.383 93.1302 121.483 92.9616C121.548 92.8512 121.606 92.7368 121.657 92.619C121.699 92.5251 121.74 92.4242 121.779 92.3278L121.779 92.3276C121.807 92.2588 121.834 92.1923 121.86 92.1324C121.925 91.9736 122.01 91.8238 122.113 91.6869L122.165 91.5669C122.164 91.5112 122.172 91.4557 122.189 91.4025C122.324 91.1592 122.439 90.9047 122.531 90.6417L123.117 89.2505C123.151 89.1581 123.208 89.0757 123.282 89.0106C123.337 88.8223 123.41 88.6398 123.501 88.4657C123.581 88.3107 123.651 88.1504 123.71 87.986L124.529 86.0293L124.279 85.6866C124.067 85.4106 123.877 85.1185 123.71 84.8128C123.678 84.7549 123.642 84.6999 123.6 84.6483L123.522 84.5421C123.449 84.5129 123.388 84.4597 123.35 84.3913C123.173 84.0643 122.968 83.7535 122.737 83.4627L122.504 83.1371C122.437 83.0506 122.378 82.959 122.326 82.863C122.214 82.6494 122.083 82.4463 121.935 82.2565L120.907 80.8618C120.787 80.7047 120.679 80.5386 120.585 80.3649C120.511 80.2316 120.429 80.1034 120.338 79.9811C120.198 79.7823 120.054 79.5836 119.91 79.3883C119.808 79.2511 119.724 79.1013 119.66 78.9428L118.919 77.9148C118.745 77.6908 118.59 77.4524 118.457 77.202C118.394 77.0814 118.321 76.9667 118.237 76.8593L117.813 76.2699C117.743 76.1855 117.681 76.0949 117.628 75.9992C117.426 75.6391 117.197 75.2954 116.942 74.9712L116.788 74.7587L116.63 74.5428C116.595 74.452 116.575 74.3559 116.572 74.2584L116.668 74.1899C116.692 74.1979 116.712 74.2135 116.726 74.2344C116.745 74.2224 116.759 74.2042 116.766 74.183C116.773 74.1617 116.772 74.1387 116.764 74.1179L116.947 73.9841C116.939 73.9436 116.935 73.9024 116.935 73.861L116.767 73.6245C116.752 73.6048 116.742 73.5817 116.738 73.5572C116.734 73.5328 116.736 73.5077 116.743 73.484C116.646 73.3486 116.574 73.1964 116.531 73.0351C116.523 73.0037 116.524 72.9705 116.535 72.9399C116.546 72.9093 116.566 72.8828 116.593 72.8638L116.723 72.7644C116.775 72.725 116.823 72.6789 116.863 72.6273C116.892 72.5877 116.929 72.5546 116.971 72.5303C117.014 72.5061 117.061 72.4913 117.11 72.4868L117.165 72.4492C117.209 72.42 117.259 72.4019 117.308 72.3836C117.369 72.3611 117.431 72.3385 117.484 72.2949C117.55 72.2403 117.61 72.1988 117.669 72.1579C117.683 72.148 117.698 72.1381 117.712 72.1281C117.724 72.1199 117.736 72.1116 117.747 72.103L117.802 72.0619L118.83 71.3389C118.932 71.251 119.048 71.1814 119.173 71.1333C119.212 71.1136 119.245 71.084 119.269 71.0476C119.339 70.9596 119.435 70.896 119.543 70.866C119.57 70.8617 119.597 70.8515 119.62 70.8361C119.643 70.8207 119.662 70.8005 119.677 70.7769C119.714 70.7214 119.768 70.6794 119.831 70.657C119.911 70.6171 119.989 70.5724 120.064 70.5233C120.129 70.4802 120.19 70.4358 120.253 70.3908L120.253 70.3907C120.29 70.3642 120.327 70.3375 120.365 70.3109L120.883 69.9373C120.965 69.8807 121.038 69.8113 121.099 69.7317C121.131 69.6866 121.177 69.652 121.229 69.6324C121.366 69.5841 121.494 69.5122 121.606 69.4199L121.688 69.3616L122.613 68.6969C122.692 68.6346 122.78 68.5849 122.874 68.5495C122.936 68.5249 122.995 68.4927 123.049 68.4536C123.123 68.4061 123.195 68.3546 123.264 68.2994C123.336 68.2472 123.42 68.2131 123.508 68.2L123.563 68.1589C123.563 68.1314 123.587 68.0835 123.604 68.08C123.739 68.0299 123.864 67.9569 123.974 67.8642L124.597 67.4187C124.619 67.4022 124.643 67.3906 124.669 67.3847C124.695 67.3788 124.722 67.3787 124.748 67.3844C124.774 67.3643 124.797 67.3416 124.819 67.319C124.866 67.2723 124.913 67.2259 124.985 67.2028C125.064 67.1638 125.138 67.1142 125.204 67.0554L126.647 66.0274C126.783 65.9136 126.939 65.8243 127.106 65.7636C127.136 65.7486 127.165 65.7302 127.192 65.7087L127.246 65.671C127.246 65.6265 127.246 65.5785 127.308 65.5648C127.485 65.494 127.649 65.3957 127.795 65.2735L127.959 65.157C128.005 65.1248 128.054 65.0984 128.106 65.0782C128.223 65.0368 128.33 64.9753 128.425 64.8966L129.134 64.386C129.214 64.3251 129.302 64.2755 129.395 64.2386C129.468 64.2105 129.537 64.1724 129.601 64.1256C129.703 64.057 129.803 63.9851 129.899 63.9097C129.972 63.8569 130.056 63.8228 130.145 63.8103L130.659 63.4402C130.771 63.3476 130.897 63.2746 131.033 63.2243C131.095 63.1993 131.153 63.1646 131.204 63.1215L131.506 62.9056C131.548 62.8696 131.596 62.8397 131.646 62.8165C131.843 62.7324 132.025 62.6167 132.184 62.4739L132.294 62.3985L132.404 62.3197C132.462 62.3058 132.523 62.3058 132.582 62.3197L132.65 62.4156C132.651 62.4201 132.651 62.4247 132.649 62.4291C132.649 62.4317 132.648 62.4343 132.647 62.4368C132.644 62.4434 132.639 62.4491 132.633 62.4533C132.643 62.469 132.656 62.4825 132.672 62.4931C132.687 62.5037 132.704 62.5111 132.722 62.515L133.349 63.3854C133.378 63.4205 133.4 63.4611 133.413 63.5046C133.425 63.5481 133.43 63.5938 133.425 63.639C133.422 63.6604 133.411 63.6799 133.394 63.6938L133.161 63.8172C133.1 63.8547 133.033 63.8792 132.962 63.8891C132.804 63.9417 132.657 64.0218 132.527 64.1256C132.493 64.1543 132.453 64.1764 132.41 64.1907C132.285 64.2331 132.168 64.2994 132.068 64.386L131.55 64.7561C131.463 64.8261 131.365 64.8806 131.259 64.9171C131.156 64.9605 131.061 65.0207 130.978 65.0953C130.864 65.1862 130.737 65.259 130.601 65.3112C130.539 65.3369 130.482 65.3716 130.43 65.414L130.43 65.4141C130.293 65.51 130.156 65.606 130.022 65.7053C129.949 65.757 129.866 65.7921 129.779 65.8081L129.179 66.2399C129.058 66.3397 128.922 66.4184 128.775 66.4729C128.712 66.4978 128.654 66.5338 128.603 66.5791C128.547 66.6187 128.491 66.6589 128.435 66.6991L128.434 66.6995C128.355 66.7567 128.275 66.8141 128.192 66.8704C128.141 66.9135 128.083 66.9482 128.021 66.9732C127.896 67.0194 127.78 67.0866 127.678 67.1719L126.119 68.2891L125.053 69.0567C124.96 69.1363 124.851 69.1968 124.735 69.2349C124.693 69.2499 124.654 69.2706 124.618 69.2965C124.495 69.3939 124.357 69.4714 124.21 69.5261C124.16 69.5492 124.112 69.5792 124.07 69.6152C124.027 69.6451 123.986 69.6756 123.944 69.706L123.944 69.706C123.886 69.7487 123.828 69.7911 123.768 69.8311C123.704 69.8767 123.635 69.9147 123.563 69.9442C123.469 69.9811 123.382 70.0306 123.302 70.0915C123.208 70.1599 123.113 70.2262 123.019 70.2924L123.019 70.2925L123.019 70.2927C122.868 70.3991 122.717 70.5053 122.565 70.6193C122.494 70.6732 122.417 70.7191 122.336 70.7563C122.251 70.7858 122.178 70.8394 122.123 70.9105C122.08 70.9611 122.031 71.006 121.976 71.0442L120.965 71.7707C120.909 71.8082 120.85 71.8392 120.787 71.8632C120.735 71.884 120.69 71.9183 120.657 71.9626C120.606 72.037 120.529 72.0887 120.441 72.1065C120.354 72.1305 120.278 72.1853 120.228 72.2607C120.206 72.2988 120.176 72.3316 120.139 72.3566C120.005 72.4351 119.88 72.5282 119.766 72.6342L119.382 72.9049C119.326 72.9435 119.267 72.9757 119.204 73.0009C119.024 73.0728 118.867 73.191 118.748 73.3435C118.69 73.4107 118.623 73.4695 118.549 73.5183L118.167 73.792L118.296 73.998C118.372 74.1043 118.435 74.2194 118.484 74.3407C118.636 74.629 118.811 74.9041 119.008 75.1631C119.062 75.2319 119.109 75.3053 119.149 75.3824C119.269 75.6149 119.411 75.8352 119.574 76.0403L120.314 77.0684C120.444 77.2421 120.559 77.4266 120.657 77.6201C120.764 77.8103 120.886 77.9914 121.023 78.1615C121.199 78.3854 121.355 78.6238 121.489 78.8743C121.553 78.9889 121.626 79.0978 121.709 79.1998L122.291 80.0051C122.39 80.1424 122.473 80.2908 122.538 80.4471L123.426 81.6534C123.617 81.8927 123.786 82.1497 123.929 82.4209C123.994 82.5356 124.069 82.6446 124.152 82.7465L124.735 83.5552C124.819 83.6621 124.892 83.7769 124.954 83.8979C125.076 84.13 125.219 84.3502 125.382 84.5558L126.311 85.834L125.156 88.5925L124.155 90.9913C124.071 91.2178 123.966 91.4358 123.84 91.6423C123.795 91.7152 123.756 91.7921 123.724 91.8719C123.612 92.1578 123.477 92.4341 123.319 92.6978C123.267 92.7948 123.223 92.8956 123.186 92.9993L122.901 93.6847C122.843 93.826 122.775 93.9634 122.699 94.0959C122.603 94.2678 122.517 94.4451 122.442 94.627L121.757 96.2822C121.692 96.446 121.617 96.6051 121.531 96.7585C121.442 96.9067 121.376 97.0672 121.335 97.2348C121.299 97.3611 121.255 97.4848 121.202 97.6049L120.252 99.8734C120.201 99.9912 120.143 100.106 120.078 100.216C120.023 100.309 119.983 100.41 119.958 100.514C119.92 100.684 119.849 100.845 119.749 100.987C119.655 101.133 119.587 101.294 119.55 101.463C119.536 101.548 119.511 101.63 119.475 101.707C119.346 101.985 119.232 102.27 119.132 102.56L118.769 103.417C118.718 103.535 118.66 103.649 118.594 103.759C118.407 104.082 118.263 104.428 118.166 104.787C118.118 104.956 118.059 105.121 117.987 105.281L117.422 106.631L117.323 106.878C117.322 106.922 117.318 106.966 117.311 107.009C117.432 107.033 117.555 107.047 117.679 107.049C117.732 107.049 117.785 107.058 117.836 107.073C117.989 107.123 118.149 107.147 118.309 107.145L119.074 107.193C119.207 107.196 119.34 107.218 119.468 107.258C119.596 107.29 119.729 107.305 119.862 107.303C120.036 107.303 120.209 107.329 120.376 107.378C120.453 107.397 120.532 107.408 120.612 107.409L121.215 107.447C121.321 107.453 121.425 107.48 121.52 107.525L122.408 107.58C122.596 107.579 122.783 107.606 122.963 107.659C123.04 107.679 123.12 107.688 123.199 107.686L123.806 107.728C123.886 107.725 123.966 107.736 124.042 107.758C124.197 107.805 124.357 107.829 124.519 107.83L126.818 107.971L128.391 108.067C128.539 108.067 128.685 108.09 128.826 108.135C128.877 108.152 128.93 108.161 128.984 108.163C129.171 108.167 129.356 108.196 129.535 108.248C129.602 108.264 129.67 108.271 129.738 108.269C129.885 108.269 130.032 108.269 130.18 108.3C130.273 108.305 130.366 108.319 130.457 108.341C130.569 108.374 130.684 108.392 130.8 108.396L131.89 108.464C131.997 108.469 132.104 108.483 132.208 108.509C132.309 108.54 132.416 108.546 132.52 108.526C132.6 108.517 132.68 108.517 132.76 108.526L134.254 108.618C134.333 108.624 134.411 108.637 134.487 108.66C134.552 108.677 134.621 108.677 134.686 108.66C134.79 108.638 134.899 108.647 134.998 108.687C135.097 108.726 135.206 108.733 135.309 108.708C135.36 108.69 135.414 108.685 135.467 108.69C135.652 108.715 135.839 108.724 136.026 108.718C136.158 108.718 136.29 108.73 136.422 108.741L136.508 108.749C136.536 108.751 136.563 108.754 136.591 108.756C136.671 108.761 136.75 108.774 136.828 108.793C137.05 108.86 137.284 108.875 137.513 108.838C137.62 108.826 137.728 108.826 137.835 108.838L138.723 108.893H138.884C138.915 108.875 138.948 108.861 138.983 108.851C139.048 108.841 139.114 108.841 139.178 108.851C139.318 108.89 139.46 108.919 139.603 108.937C139.638 108.943 139.67 108.958 139.697 108.981C139.723 109.004 139.743 109.034 139.754 109.067C139.769 109.163 139.758 109.262 139.723 109.352C139.688 109.443 139.631 109.523 139.555 109.585ZM121.983 108.978V108.954L121.959 108.975L121.983 108.978ZM121.99 82.0646H121.966L121.949 82.0474C121.952 82.048 121.955 82.0487 121.958 82.0496C121.962 82.0508 121.966 82.0522 121.97 82.0539C121.977 82.0568 121.984 82.0604 121.99 82.0646ZM62.6418 79.9983H64.0125V99.4074H62.6418V79.9983Z" fill="white"/>
<rect x="0.5" y="0.5" width="159" height="159" stroke="#DDDDDD"/>
</svg>
