<svg width="160" height="160" viewBox="0 0 160 160" fill="none" xmlns="http://www.w3.org/2000/svg">
<rect x="0.5" y="0.5" width="159" height="159" fill="white" fill-opacity="0.1"/>
<path fill-rule="evenodd" clip-rule="evenodd" d="M47.7936 44.9529L48.0746 45.018C48.1226 45.018 48.1568 45.0899 48.1534 45.2476C48.3024 45.2251 48.403 45.3825 48.5024 45.5382C48.5242 45.5722 48.5459 45.6062 48.568 45.6382C48.6164 45.8061 48.6164 45.9843 48.568 46.1522L48.4515 46.7039C48.4417 46.7563 48.4313 46.8095 48.4209 46.8628L48.4208 46.863L48.4208 46.863L48.4208 46.8631L48.4208 46.8631L48.4208 46.8632C48.3876 47.0329 48.3541 47.2039 48.3384 47.355C48.3023 47.6768 48.2239 47.9925 48.1054 48.2939L48.054 48.5098C48.013 48.686 47.9626 48.8515 47.9119 49.0175L47.9119 49.0176C47.8484 49.226 47.7845 49.4354 47.7388 49.6681C47.6908 49.9101 47.6368 50.1522 47.5827 50.3943L47.5827 50.3945C47.5556 50.5156 47.5286 50.6367 47.5023 50.7578L47.4544 50.9771L46.5428 55.1235L46.3818 55.8602L46.3064 56.0692L46.2481 56.2234C46.207 56.3262 46.1659 56.429 46.1179 56.5284C46.0634 56.6664 46.0198 56.8085 45.9877 56.9533C45.8973 57.3174 45.7722 57.672 45.6142 58.0122C45.5328 58.1794 45.4707 58.3553 45.4291 58.5365C45.3799 58.7547 45.311 58.968 45.2235 59.1739C45.1139 59.4549 45.0042 59.7393 44.9048 60.0237L44.4936 61.2231L43.7877 63.2791C43.6746 63.6218 43.5821 63.9268 43.5033 64.2523C43.4605 64.4345 43.4008 64.6123 43.3251 64.7835C43.1291 65.2312 42.9564 65.6887 42.8077 66.1542L42.6843 66.4968L42.5404 66.9286L39.5454 69.6426C39.2815 69.8825 39.0211 70.1155 38.7435 70.328C38.653 70.3972 38.5642 70.4748 38.4726 70.5549C38.3874 70.6293 38.2996 70.706 38.2055 70.7803C37.9691 70.9927 37.7326 71.2052 37.5031 71.4211C37.2775 71.6267 37.0382 71.8167 36.7869 71.9899L36.6087 72.151C36.5545 72.2291 36.4937 72.3025 36.427 72.3703C36.0829 72.6262 35.7614 72.92 35.4388 73.2149C35.3857 73.2635 35.3324 73.3121 35.2791 73.3606L33.247 75.2008L32.1539 74.1042C32.0271 73.9775 31.9106 73.8541 31.8112 73.741C31.7783 73.7047 31.7485 73.6657 31.7221 73.6245C31.7013 73.5952 31.683 73.5643 31.6673 73.532C31.4056 73.2996 31.1563 73.0536 30.9203 72.7952C30.8085 72.6623 30.6694 72.5229 30.527 72.3802C30.4381 72.2911 30.3479 72.2008 30.2623 72.1099L25.835 67.6551L25.3792 67.1959L24.8104 66.6065L24.6767 66.1713L24.6082 65.9006C24.594 65.8417 24.5726 65.7769 24.5496 65.7075L24.5496 65.7074L24.5496 65.7074C24.5338 65.6596 24.5173 65.6096 24.5019 65.5579L24.4266 65.3386C24.3462 65.2371 24.2868 65.1206 24.2518 64.9959C24.0889 64.3731 23.8945 63.7589 23.6692 63.1558L23.4431 62.5013C23.4304 62.4618 23.4173 62.4216 23.404 62.3813L23.404 62.3811L23.4039 62.3809L23.4039 62.3809C23.3564 62.2359 23.3081 62.0884 23.2786 61.9598C23.1756 61.5563 23.0521 61.1583 22.9085 60.7673L21.9285 57.93C21.8154 57.6044 21.7091 57.2823 21.6269 56.9568C21.5715 56.7382 21.4939 56.503 21.4191 56.2761L21.3939 56.1995L21.202 55.6375L21.0855 54.8664C21.0421 54.5771 21.0192 54.2852 21.0169 53.9926L20.6983 51.8475L20.6845 51.7545C20.6169 51.2989 20.5494 50.8437 20.5269 50.3945C20.5269 50.2546 20.5023 50.0949 20.4769 49.9304C20.4656 49.8572 20.4542 49.783 20.4447 49.7092L20.2631 48.4687C20.2554 48.416 20.2467 48.3619 20.2379 48.3078C20.2153 48.1682 20.1926 48.0277 20.1877 47.9067C20.1616 47.3862 20.0803 46.84 19.9991 46.2951C19.9734 46.1226 19.9477 45.9501 19.9238 45.7787L19.8587 45.3264L19.7902 44.874C19.79 44.7161 19.8073 44.5587 19.8416 44.4046H19.9581C19.9783 44.4405 19.9911 44.4801 19.9958 44.5211C20.03 44.5211 20.0677 44.5005 20.078 44.3874L21.1403 44.2504C21.2328 44.2504 21.3254 44.2881 21.4316 44.5108C21.4589 44.5694 21.4774 44.6318 21.4864 44.6958L21.5824 45.5868C21.6131 45.8139 21.628 46.0429 21.6269 46.2722C21.6552 46.8633 21.7158 47.4524 21.8085 48.0369L21.8131 48.0699L21.8131 48.0699L21.8131 48.07L21.8131 48.07C21.8325 48.2085 21.8536 48.3587 21.8599 48.4824C21.885 48.9317 21.9365 49.3791 22.0141 49.8223L22.3294 51.9708C22.3932 52.3405 22.4356 52.7134 22.4562 53.088C22.469 53.3563 22.5141 53.6398 22.559 53.9216L22.559 53.9216L22.559 53.9216L22.559 53.9216L22.559 53.9216L22.559 53.9216L22.559 53.9217L22.559 53.9217L22.559 53.9217L22.559 53.9217C22.5743 54.0177 22.5896 54.1136 22.6035 54.2085L22.6926 54.8425L22.7338 55.1577C22.7449 55.2383 22.7507 55.3196 22.7509 55.401V55.425L22.7749 55.5175C22.8072 55.6616 22.8629 55.8238 22.9185 55.9856C22.9396 56.047 22.9607 56.1083 22.9805 56.1686L23.5459 57.7998C23.6418 58.076 23.7174 58.3589 23.7721 58.6462L24.6013 61.0449C24.627 61.1195 24.653 61.194 24.6789 61.2685L24.6791 61.2691C24.8293 61.7007 24.9788 62.1306 25.0811 62.5629C25.1397 62.7845 25.2094 63.0029 25.2901 63.2174L25.8521 64.852C25.8653 64.8903 25.8787 64.929 25.8923 64.9679L25.8924 64.9682L25.8924 64.9684L25.8926 64.9687L25.8927 64.969C25.9565 65.1524 26.0216 65.3394 26.0611 65.5031L26.1776 65.952C26.1982 65.9828 26.4449 66.2296 26.6197 66.4009L31.4171 71.1984L33.319 73.1071L33.7405 72.7233L33.8394 72.6336L33.8395 72.6336C34.1288 72.3714 34.4195 72.1079 34.724 71.8803C34.8438 71.7864 34.9582 71.6857 35.0666 71.5787L35.1142 71.5359C35.5125 71.177 35.9057 70.8227 36.3242 70.5096C36.4321 70.4254 36.55 70.3171 36.6656 70.2108L36.6656 70.2108L36.6656 70.2108L36.6656 70.2108C36.7006 70.1786 36.7355 70.1466 36.7697 70.1155L37.7429 69.2348C37.9485 69.0498 38.1644 68.8613 38.37 68.7003C38.6476 68.4844 38.9114 68.2513 39.1753 68.0149L41.1697 66.209L41.2588 65.9486L41.2755 65.9002L41.2755 65.9001C41.3697 65.627 41.4673 65.3442 41.574 65.0919C41.6929 64.8181 41.7891 64.535 41.8619 64.2455C41.917 64.0252 41.9833 63.8079 42.0606 63.5944L43.4313 59.5542C43.5033 59.3384 43.589 59.1225 43.6746 58.9169C43.7488 58.7451 43.8084 58.5675 43.8528 58.3857C43.919 58.0945 44.0179 57.8117 44.1475 57.5427C44.274 57.2707 44.3705 56.9858 44.4354 56.6929C44.464 56.5483 44.5041 56.4062 44.5553 56.268C44.6067 56.1378 44.6547 56.0076 44.7027 55.8739L44.8226 55.5004L44.8877 55.1577L44.9665 54.7842L45.3092 53.2148C45.3606 52.992 45.4154 52.7658 45.4771 52.5568C45.6639 51.9438 45.8026 51.317 45.8918 50.6824C45.9268 50.4056 45.9854 50.1347 46.0457 49.8559L46.0457 49.8559L46.0597 49.7914L46.6011 47.3242L46.697 46.8753C46.692 46.7828 46.692 46.6901 46.697 46.5977C46.7261 46.4127 46.7661 46.2296 46.817 46.0494C46.93 45.6656 47.0397 45.2784 47.1391 44.874C47.1871 44.6753 47.2933 44.4731 47.3515 44.4594C47.5674 44.3977 47.7388 44.4697 47.7936 44.9529ZM22.9188 60.5617H22.9462L22.9017 60.5035L22.9188 60.5617ZM104.205 109.033L103.938 108.923C103.89 108.903 103.862 108.851 103.869 108.742C103.727 108.725 103.637 108.592 103.547 108.461L103.547 108.46C103.527 108.43 103.506 108.4 103.485 108.372C103.446 108.252 103.455 108.122 103.509 108.008L103.64 107.642C103.692 107.498 103.736 107.352 103.773 107.203C103.814 106.999 103.892 106.804 104.003 106.628C103.955 106.563 103.909 106.497 103.866 106.429C103.608 106.089 103.326 105.769 103.023 105.469C102.944 105.392 102.871 105.31 102.803 105.223C102.605 104.958 102.386 104.709 102.149 104.479L101.042 103.331C100.846 103.138 100.664 102.93 100.497 102.711C100.323 102.495 100.135 102.29 99.9353 102.097C99.6793 101.845 99.4401 101.576 99.2191 101.292C99.1117 101.163 98.9973 101.039 98.8764 100.922L98.0026 100.017C97.8537 99.8621 97.7195 99.6935 97.6016 99.5136L96.3166 98.1806L95.9123 97.7591L95.7101 97.5295C95.6038 97.4095 95.501 97.2896 95.4051 97.1697C95.3267 97.0717 95.2757 97.0171 95.213 96.95L95.2127 96.9497L95.1687 96.9024L95.196 96.4501L95.292 95.0314C95.2968 94.8649 95.3128 94.6989 95.34 94.5345C95.3964 94.207 95.4319 93.8762 95.4462 93.5442L95.7546 88.7467L95.9225 86.1732L95.902 85.5359C95.8779 85.2325 95.8779 84.9277 95.902 84.6243C95.9093 84.5102 95.9093 84.3958 95.902 84.2817C95.8836 83.8945 95.8893 83.5065 95.9191 83.12C95.9275 82.9808 95.9275 82.8412 95.9191 82.7019L95.8917 81.7767C95.8813 81.5838 95.8813 81.3905 95.8917 81.1976C95.9054 80.9488 95.9054 80.6994 95.8917 80.4506L95.8232 78.1786V77.5138C95.8421 77.2956 95.8351 77.0759 95.8026 76.8593C95.781 76.6956 95.7684 76.5309 95.7649 76.3659L95.7306 75.3378L97.6359 73.6245C97.7593 73.5148 97.8929 73.4086 98.0231 73.3126C98.1346 73.234 98.2359 73.142 98.3247 73.0385C98.4674 72.8714 98.6336 72.726 98.8181 72.6067C99.0005 72.4859 99.1644 72.3393 99.3047 72.1715C99.37 72.0857 99.4447 72.0076 99.5275 71.9385C99.7237 71.7913 99.8974 71.6229 100.071 71.4547L100.071 71.4544C100.176 71.3525 100.281 71.2507 100.391 71.1538L101.272 70.369C101.394 70.2583 101.522 70.1542 101.655 70.0572C102.038 69.783 102.39 69.4682 102.704 69.1183C102.837 68.9694 102.985 68.8345 103.134 68.6984L103.18 68.6557L104.551 67.4186L104.801 67.1924C104.835 67.1328 104.874 67.0766 104.918 67.0245C105.013 66.9248 105.115 66.832 105.223 66.747C105.459 66.5756 105.696 66.4043 105.929 66.1987C106.042 66.1027 106.203 66.0411 106.251 66.0685C106.368 66.1371 106.451 66.2077 106.482 66.3099C106.502 66.3026 106.518 66.2896 106.53 66.2725C106.543 66.2539 106.55 66.2315 106.549 66.2089L107.577 65.9005C107.631 65.8852 107.689 65.8877 107.742 65.9074C107.795 65.9271 107.84 65.963 107.872 66.0101C107.898 66.0414 107.917 66.0775 107.93 66.1163L108.06 66.6749C108.098 66.8171 108.121 66.963 108.129 67.1101C108.185 67.4582 108.266 67.8018 108.372 68.1381C108.406 68.2276 108.429 68.3208 108.44 68.4157C108.483 68.6997 108.551 68.9795 108.643 69.2518L109.037 70.5746C109.11 70.7983 109.166 71.0275 109.205 71.2599C109.248 71.493 109.309 71.7222 109.39 71.9453C109.485 72.2412 109.56 72.5435 109.612 72.8499C109.639 72.9914 109.674 73.131 109.719 73.268L110.03 74.3131C110.084 74.4917 110.117 74.6756 110.13 74.8614L110.586 76.4C110.692 76.7189 110.775 77.0454 110.832 77.3767C110.857 77.5199 110.894 77.6609 110.942 77.7981L111.25 78.8467C111.296 78.9832 111.332 79.123 111.357 79.2648C111.402 79.5486 111.466 79.8291 111.549 80.1043L112.213 82.532L112.72 80.9474C112.836 80.548 112.98 80.1575 113.152 79.7789C113.171 79.7383 113.187 79.6898 113.202 79.6407L113.202 79.6405L113.213 79.6058C113.219 79.5878 113.225 79.57 113.231 79.5527L113.279 79.402C113.265 79.3103 113.276 79.2164 113.313 79.1312C113.494 78.7244 113.645 78.3053 113.766 77.877L113.913 77.4247C113.952 77.2998 113.999 77.1773 114.053 77.0581C114.171 76.7965 114.272 76.5275 114.355 76.2528L115.102 74.3269C115.184 74.1057 115.279 73.8895 115.386 73.6793C115.443 73.5733 115.493 73.4512 115.541 73.3341C115.563 73.2807 115.584 73.2283 115.606 73.179C115.715 72.9083 115.822 72.6375 115.924 72.3634C115.996 72.1726 116.088 71.99 116.199 71.8185L116.73 70.3793C116.844 70.0595 116.98 69.7481 117.138 69.4472C117.208 69.3072 117.27 69.163 117.323 69.0155L117.638 68.2033C117.68 68.0863 117.729 67.9719 117.785 67.8607C118.011 67.4174 118.207 66.9595 118.371 66.49L118.484 66.1952L118.601 65.9005C118.662 65.8052 118.737 65.7197 118.823 65.647L118.937 65.6915C118.943 65.7197 118.943 65.749 118.937 65.7772C118.96 65.7849 118.985 65.7847 119.008 65.7766C119.031 65.7685 119.05 65.7531 119.063 65.7326L120.064 66.1199C120.15 66.1507 120.215 66.2227 120.225 66.3974C120.225 66.4419 120.217 66.486 120.201 66.5276L119.944 67.0931C119.884 67.2413 119.808 67.3826 119.718 67.5145C119.535 67.8574 119.376 68.2123 119.242 68.5768C119.208 68.6747 119.167 68.7698 119.118 68.8613C118.968 69.1344 118.842 69.4199 118.741 69.7145L118.2 71.1126C118.112 71.3569 118.005 71.594 117.881 71.822C117.765 72.0561 117.664 72.2976 117.58 72.545C117.466 72.8634 117.331 73.1736 117.175 73.4737C117.104 73.6122 117.042 73.7553 116.99 73.902L116.565 75.0089C116.49 75.197 116.398 75.3781 116.291 75.5503L115.976 76.3624C115.866 76.6331 115.767 76.9039 115.681 77.1814C115.583 77.533 115.458 77.8766 115.308 78.2094C115.244 78.3537 115.191 78.5026 115.15 78.6549L114.787 79.7823C114.745 79.9336 114.691 80.0814 114.626 80.2244C114.497 80.5091 114.389 80.8022 114.3 81.1016L112.967 85.2853L113.396 86.8516C113.474 87.1035 113.531 87.3614 113.567 87.6226C113.577 87.7177 113.596 87.8117 113.622 87.9036C113.718 88.2256 113.79 88.5544 113.838 88.8871C113.859 89.003 113.888 89.1174 113.923 89.2298L114.136 90.0042C114.18 90.1655 114.216 90.3291 114.242 90.4943C114.275 90.7083 114.322 90.9201 114.382 91.1282L114.9 93.0232C114.91 93.0589 114.92 93.0944 114.931 93.1298C114.942 93.1652 114.953 93.2005 114.964 93.2356L114.964 93.2358C115 93.3509 115.036 93.4642 115.057 93.5749C115.094 93.7608 115.157 93.9407 115.243 94.1095C115.305 94.2394 115.359 94.3734 115.404 94.5104L116.277 97.0565C116.323 97.1924 116.361 97.3309 116.391 97.4711C116.414 97.5906 116.454 97.7061 116.51 97.8138C116.6 97.9813 116.659 98.1635 116.685 98.3518C116.715 98.5396 116.777 98.7206 116.87 98.8864C116.918 98.9661 116.956 99.0513 116.983 99.14C117.035 99.3645 117.118 99.5669 117.2 99.7695L117.2 99.7695L117.2 99.7696L117.2 99.7698L117.2 99.77C117.244 99.8764 117.287 99.9829 117.326 100.093L117.669 101.059C117.717 101.193 117.756 101.331 117.785 101.47C117.869 101.869 118.001 102.255 118.179 102.622C118.262 102.795 118.333 102.973 118.392 103.156L118.913 104.671L119.009 104.948C119.047 104.993 119.081 105.043 119.108 105.096C119.159 105.206 119.2 105.32 119.228 105.438C119.279 105.69 119.343 105.94 119.42 106.185C119.439 106.235 119.446 106.289 119.443 106.342C119.439 106.395 119.424 106.447 119.399 106.494C119.224 106.603 119.043 106.634 118.786 106.412L118.508 106.497C118.46 106.497 118.409 106.497 118.344 106.412C118.235 106.477 118.1 106.446 117.963 106.414C117.914 106.403 117.865 106.391 117.816 106.384C117.751 106.384 117.672 106.261 117.617 106.113L117.494 105.771C117.448 105.638 117.393 105.509 117.329 105.384C117.233 105.201 117.174 105 117.158 104.794L117.114 104.657C117.079 104.547 117.056 104.44 117.034 104.332L117.034 104.332L117.034 104.332C117.006 104.197 116.978 104.061 116.925 103.92C116.833 103.676 116.772 103.486 116.701 103.261L116.7 103.261L116.692 103.235L116.648 103.101L115.77 100.545C115.667 100.276 115.584 100 115.52 99.7191C115.497 99.6271 115.463 99.5384 115.417 99.4552C115.311 99.2389 115.237 99.0079 115.198 98.7699C115.184 98.65 115.148 98.5338 115.092 98.4272C115.024 98.3014 114.974 98.1663 114.944 98.0263C114.896 97.8447 114.845 97.6596 114.783 97.478L114.526 96.7172L114.077 95.4048C114.008 95.2016 113.924 95.0035 113.827 94.812C113.77 94.7048 113.731 94.5891 113.711 94.4693C113.647 94.1638 113.56 93.8636 113.45 93.5715L113.389 93.3625L112.738 90.9637C112.675 90.7575 112.629 90.5467 112.601 90.3332C112.579 90.1919 112.548 90.0522 112.508 89.9151C112.463 89.7267 112.412 89.5382 112.357 89.3532C112.307 89.1731 112.277 88.9881 112.268 88.8014L112.23 88.6609C112.195 88.6124 112.166 88.5594 112.145 88.5033C112.125 88.3695 112.101 88.2364 112.072 88.1043C112.048 88.1858 112.024 88.2674 112.001 88.3492C111.929 88.6266 111.836 88.898 111.723 89.1613C111.681 89.2559 111.646 89.3532 111.617 89.4526C111.525 89.8023 111.411 90.1457 111.274 90.4806C111.225 90.602 111.185 90.7269 111.154 90.8542L110.908 91.6903C110.858 91.8658 110.798 92.0386 110.73 92.2077C110.641 92.4249 110.564 92.6468 110.5 92.8725L109.897 94.9286C109.841 95.1297 109.775 95.3276 109.698 95.5214C109.618 95.7115 109.56 95.9105 109.527 96.1142C109.499 96.2682 109.463 96.4204 109.417 96.57L108.783 98.7357L108.533 99.4039C108.478 99.5511 108.415 99.6952 108.345 99.8357C108.287 99.9498 108.243 100.071 108.214 100.195C108.172 100.398 108.097 100.593 107.992 100.771C107.89 100.952 107.818 101.147 107.779 101.35C107.761 101.45 107.733 101.547 107.697 101.642C107.596 101.857 107.524 102.072 107.453 102.288C107.41 102.415 107.368 102.542 107.32 102.67L106.929 103.698C106.875 103.845 106.813 103.989 106.744 104.129C106.545 104.525 106.39 104.941 106.282 105.37C106.23 105.572 106.166 105.772 106.09 105.966L105.944 106.324C105.967 106.374 105.986 106.427 106.001 106.48L105.915 106.562C105.895 106.556 105.876 106.545 105.859 106.532L105.825 106.617C105.828 106.627 105.833 106.637 105.84 106.648L105.794 106.692L105.421 107.608L105.312 107.906C105.312 107.971 105.305 108.037 105.291 108.101C105.258 108.226 105.213 108.347 105.158 108.464C105.034 108.711 104.918 108.965 104.815 109.228C104.76 109.362 104.65 109.479 104.596 109.479C104.393 109.468 104.243 109.376 104.205 109.033ZM111.309 85.1348C111.318 85.1819 111.328 85.2288 111.339 85.2755C111.307 85.3677 111.273 85.4591 111.237 85.5495C111.151 85.7666 111.082 85.99 111.031 86.2178C110.956 86.309 110.901 86.4154 110.87 86.5296C110.685 87.0916 110.51 87.6673 110.342 88.243C110.26 88.5691 110.153 88.8887 110.024 89.199C110.008 89.2629 110.002 89.3288 110.006 89.3944L109.962 89.5451C109.868 89.7246 109.793 89.9128 109.736 90.1071C109.681 90.3093 109.606 90.5629 109.558 90.7137L109.542 90.7627L109.542 90.763C109.499 90.8984 109.455 91.0366 109.403 91.1557C109.311 91.3704 109.234 91.5914 109.174 91.8171L108.416 94.4009L108.348 94.627C108.258 94.956 108.143 95.2779 108.005 95.5899C107.954 95.7098 107.918 95.8351 107.896 95.9635C107.86 96.1952 107.808 96.4242 107.741 96.6488L107.316 98.0949L107.268 98.2628L107.049 98.8453C106.974 99.0407 106.892 99.2326 106.806 99.421C106.737 99.5591 106.687 99.7054 106.655 99.8562C106.627 99.9774 106.58 100.093 106.515 100.199C106.389 100.425 106.295 100.667 106.237 100.919C106.216 101.019 106.184 101.117 106.141 101.21C106 101.491 105.88 101.782 105.781 102.08L104.753 104.822L104.703 104.952C104.576 104.807 104.452 104.658 104.332 104.506C104.244 104.399 104.15 104.296 104.051 104.198L103.41 103.537C103.289 103.42 103.175 103.296 103.067 103.167C102.848 102.882 102.609 102.614 102.351 102.365L101.248 101.217C101.13 101.036 100.994 100.867 100.843 100.713C100.627 100.494 100.415 100.271 100.203 100.045C100.069 99.9042 99.9318 99.7569 99.8188 99.613C99.6654 99.4161 99.5007 99.2285 99.3253 99.051L97.8073 97.4781C97.5887 97.2647 97.386 97.0356 97.2007 96.7927C97.1164 96.6838 97.026 96.5797 96.93 96.4809L96.8066 96.3541L96.8306 96.0114C96.8478 95.7815 96.8776 95.5527 96.9197 95.3261C96.9373 95.2303 96.9266 95.1314 96.8889 95.0417V94.8738C96.8914 94.7899 96.8995 94.7064 96.9129 94.6236C96.9863 94.1894 97.0333 93.7511 97.0534 93.3112L97.3378 88.8769C97.342 88.6545 97.3592 88.4326 97.3892 88.2121C97.42 87.9667 97.4326 87.7193 97.4269 87.472C97.4755 87.3639 97.5034 87.2477 97.5091 87.1293L97.5674 86.2486L97.5331 85.1315C97.5091 84.7767 97.5091 84.4206 97.5331 84.0658C97.5243 83.9969 97.5082 83.9291 97.4851 83.8636V83.6957C97.5192 83.4839 97.5318 83.2692 97.5228 83.0549C97.5023 82.8184 97.5023 82.5957 97.5023 82.3695V81.8761C97.5178 81.6285 97.5178 81.3801 97.5023 81.1325L97.4132 78.2848V78.0313C97.3874 77.6731 97.3874 77.3135 97.4132 76.9553C97.4302 76.8187 97.4302 76.6806 97.4132 76.5441L97.4034 76.4769C97.3872 76.367 97.3686 76.2401 97.3686 76.1808V76.1089V76.0472L98.0163 75.4646L98.7016 74.8512C98.8695 74.7039 99.0409 74.5634 99.2122 74.4297C99.3403 74.3303 99.4555 74.2152 99.5549 74.0871C99.6427 73.982 99.7468 73.8917 99.8633 73.8198C100.092 73.669 100.3 73.488 100.48 73.2818C100.55 73.1987 100.628 73.1229 100.713 73.0556C100.983 72.8592 101.239 72.6452 101.481 72.4148L103.797 70.3416L103.917 70.232C104.115 70.0575 104.293 69.8957 104.501 69.707L104.527 69.6837C104.644 69.5775 104.767 69.486 104.891 69.3941C104.999 69.3138 105.107 69.2333 105.212 69.1423L105.336 69.036C105.544 68.9189 105.73 68.7657 105.884 68.5837C105.992 68.4635 106.107 68.3491 106.227 68.241L106.532 67.96C106.578 67.9084 106.619 67.8589 106.651 67.8134C106.707 68.0295 106.755 68.2475 106.796 68.4671C106.818 68.5834 106.849 68.698 106.888 68.8098L107.114 69.5739C107.16 69.7094 107.195 69.848 107.221 69.9886C107.271 70.2954 107.346 70.5979 107.443 70.8932L107.837 72.2125C107.85 72.3995 107.884 72.5845 107.937 72.7642C108.016 73.0178 108.091 73.2748 108.166 73.5318C108.214 73.6917 108.253 73.8541 108.283 74.0184C108.32 74.2305 108.37 74.4399 108.434 74.6455L108.975 76.4617C109.058 76.7122 109.121 76.9689 109.163 77.2293C109.181 77.3457 109.208 77.4604 109.246 77.572L109.369 77.99C109.496 78.3778 109.596 78.774 109.667 79.1757C109.682 79.2594 109.722 79.3362 109.784 79.395L109.825 79.5355C109.849 79.6039 109.868 79.6737 109.883 79.7445C109.94 80.1226 110.025 80.496 110.137 80.8617L111.165 84.5763C111.224 84.7594 111.272 84.9459 111.309 85.1348ZM114.509 76.0986H114.53C114.531 76.0815 114.531 76.0643 114.53 76.0472L114.509 76.0986ZM109.078 76.2493H109.054L109.044 76.215C109.05 76.2194 109.055 76.2243 109.061 76.2296C109.067 76.2356 109.073 76.2422 109.078 76.2493ZM97.8073 97.67H97.8278L97.8552 97.6905L97.8073 97.67ZM139.23 113.549H139.521C139.689 113.854 139.871 113.878 140.021 113.803C140.076 113.786 140.135 113.642 140.135 113.505C140.138 113.227 140.152 112.96 140.176 112.689C140.186 112.566 140.186 112.442 140.176 112.319C140.165 112.257 140.147 112.196 140.121 112.138V111.829L140.076 110.147C140.076 109.945 140.063 109.743 140.035 109.544C139.975 109.12 139.965 108.691 140.004 108.265C140.013 108.115 140.013 107.964 140.004 107.813L139.98 106.741C139.978 106.61 139.969 106.48 139.96 106.35L139.96 106.349V106.349V106.349V106.349V106.349V106.349V106.349V106.349V106.349V106.349V106.349V106.349V106.349C139.946 106.128 139.931 105.908 139.946 105.682C139.946 105.584 139.935 105.486 139.915 105.39C139.883 105.194 139.883 104.994 139.915 104.798C139.948 104.6 139.948 104.399 139.915 104.201C139.898 104.079 139.898 103.954 139.915 103.831V103.379L139.895 102.67L139.833 101.984L139.71 100.572C139.7 100.423 139.68 100.274 139.651 100.127C139.606 99.9328 139.587 99.7332 139.597 99.534C139.599 99.3338 139.59 99.1335 139.569 98.9344L139.391 96.8783C139.368 96.6506 139.359 96.4218 139.363 96.193C139.367 96.0904 139.361 95.9922 139.355 95.8946C139.351 95.8195 139.346 95.7447 139.346 95.6687L139.322 94.7948C139.306 94.6687 139.298 94.5416 139.298 94.4145C139.31 94.0634 139.297 93.7119 139.261 93.3625C139.251 93.2622 139.251 93.1612 139.261 93.0609C139.271 92.7852 139.26 92.509 139.226 92.2351C139.175 91.7416 139.148 91.2447 139.148 90.7479L139.1 89.2606L138.963 84.9121C138.94 84.611 138.94 84.3086 138.963 84.0074C138.973 83.8568 138.973 83.7057 138.963 83.5551L138.928 82.4106C138.918 82.26 138.918 82.1088 138.928 81.9582C138.956 81.607 138.956 81.2541 138.928 80.9028V80.4916L138.74 79.1483C138.753 78.9528 138.746 78.7564 138.719 78.5623L138.562 77.4315C138.536 77.2832 138.521 77.1331 138.517 76.9826C138.51 76.6564 138.479 76.3311 138.425 76.0094C138.381 75.7613 138.353 75.5106 138.342 75.2589C138.339 75.0086 138.318 74.7589 138.277 74.5119L138.078 73.0761C138.026 72.7797 137.998 72.4793 137.996 72.1783C137.997 72.0782 137.988 71.9784 137.969 71.8802C137.911 71.5105 137.88 71.1371 137.876 70.763C137.892 70.6081 137.892 70.452 137.876 70.297L137.873 70.2572L138.568 69.6973L138.61 69.663C138.681 69.6108 138.75 69.5548 138.815 69.4951C138.857 69.4554 138.908 69.4366 138.958 69.4179C138.999 69.4027 139.04 69.3876 139.076 69.3615L139.12 69.3306C139.161 69.3291 139.201 69.3169 139.236 69.2952C139.271 69.2736 139.299 69.2433 139.319 69.2073C139.345 69.1612 139.38 69.1205 139.422 69.0873C139.439 69.0685 139.458 69.0528 139.477 69.0368C139.493 69.0236 139.509 69.0103 139.525 68.9948C139.545 68.9754 139.559 68.9501 139.564 68.9226C139.57 68.895 139.567 68.8664 139.555 68.8406C139.493 68.6865 139.409 68.5423 139.305 68.4122C139.308 68.3889 139.305 68.3653 139.298 68.3429C139.291 68.3205 139.279 68.2998 139.264 68.282L139.086 68.0559C139.067 67.8665 138.974 67.692 138.829 67.5693C138.808 67.5496 138.782 67.5365 138.754 67.5316C138.726 67.5268 138.697 67.5303 138.671 67.5418C138.589 67.5976 138.5 67.6436 138.407 67.6789C138.365 67.6983 138.329 67.7277 138.301 67.7646C138.29 67.7895 138.283 67.8162 138.281 67.8434L138.198 67.9119L137.725 68.2923C137.667 68.3361 137.616 68.3894 137.575 68.4499C137.489 68.5813 137.363 68.6811 137.215 68.7344C137.165 68.7564 137.118 68.784 137.074 68.8166C137.029 68.8512 136.986 68.887 136.942 68.9228L136.942 68.9231C136.886 68.9688 136.83 69.0142 136.773 69.0565C136.686 69.1505 136.588 69.2333 136.482 69.3032C136.451 69.3169 136.416 69.3546 136.416 69.3889C136.4 69.4224 136.377 69.4518 136.348 69.4749C136.319 69.498 136.285 69.5143 136.249 69.5225C136.212 69.5297 136.178 69.5448 136.149 69.5667C136.119 69.5887 136.095 69.6169 136.077 69.6493C136.067 69.6698 136.052 69.6879 136.034 69.7026C136.017 69.7173 135.996 69.7283 135.974 69.735C135.924 69.7556 135.877 69.7833 135.834 69.8172L135.042 70.4546C134.997 70.4867 134.959 70.5274 134.929 70.5745C134.892 70.6375 134.834 70.685 134.765 70.7082C134.698 70.7396 134.636 70.7799 134.58 70.8281C134.467 70.9152 134.356 71.0046 134.245 71.0943L134.245 71.0949L134.244 71.0954C134.163 71.1606 134.083 71.226 134.001 71.2907C133.938 71.3444 133.867 71.3883 133.792 71.4209C133.732 71.4449 133.677 71.4772 133.627 71.5169L133.391 71.7054C133.359 71.7376 133.322 71.7642 133.281 71.7842C133.154 71.8248 133.037 71.8926 132.938 71.9829C132.91 72.0066 132.878 72.0241 132.842 72.0343C132.745 72.0658 132.657 72.1198 132.585 72.192L131.749 72.8773L130.529 73.8608C130.449 73.9363 130.355 73.9946 130.252 74.0321C130.2 74.0519 130.154 74.0823 130.115 74.1212C130.034 74.1819 129.955 74.2463 129.876 74.3103C129.848 74.3331 129.82 74.3558 129.793 74.3782C129.753 74.4175 129.707 74.4489 129.655 74.4707C129.528 74.5131 129.411 74.582 129.313 74.6729L128.843 75.0533C128.77 75.0632 128.701 75.0915 128.641 75.1355C128.538 75.2246 128.429 75.3103 128.322 75.3925C128.282 75.4307 128.236 75.4619 128.185 75.4851C128.073 75.5258 127.971 75.5887 127.884 75.6701C127.82 75.7355 127.745 75.7878 127.661 75.8243C127.575 75.8528 127.495 75.8996 127.428 75.9614L127.02 76.3041C126.942 76.3804 126.847 76.4379 126.743 76.472C126.707 76.4825 126.675 76.5027 126.65 76.5302C126.55 76.6185 126.433 76.6871 126.308 76.7324C126.248 76.7378 126.19 76.7578 126.14 76.7907C126.128 76.7977 126.116 76.8045 126.105 76.8112L126.082 76.8241L126.061 76.8356C126.024 76.8559 125.987 76.8764 125.951 76.9003L125.948 76.9033L125.945 76.9071L125.943 76.9102C125.941 76.9123 125.94 76.9145 125.939 76.9168C125.938 76.9186 125.937 76.9204 125.937 76.9222C125.934 76.9305 125.933 76.9395 125.934 76.9483C125.938 77.0374 125.973 77.1222 126.033 77.1882C126.27 77.4657 126.496 77.7433 126.719 78.0243C126.736 78.0278 126.753 78.0348 126.767 78.0448C126.782 78.0548 126.795 78.0676 126.804 78.0825V78.1168L126.88 78.2093C126.931 78.2292 126.986 78.2374 127.041 78.2333L127.127 78.1648C127.154 78.1401 127.182 78.1172 127.212 78.0962C127.337 77.9749 127.483 77.8784 127.644 77.8118C127.685 77.7919 127.722 77.7652 127.754 77.733L127.99 77.5445C128.029 77.5075 128.074 77.4774 128.124 77.4554C128.236 77.415 128.338 77.352 128.425 77.2704L128.83 76.9449C128.904 76.9359 128.974 76.9062 129.032 76.8592C129.107 76.7941 129.186 76.729 129.268 76.6707C129.317 76.63 129.371 76.5966 129.429 76.5713C129.507 76.5423 129.579 76.4994 129.642 76.4446L130.197 75.9956C130.271 75.9259 130.358 75.8722 130.454 75.838C130.497 75.8231 130.537 75.7998 130.57 75.7695C130.597 75.7507 130.623 75.7295 130.649 75.708C130.662 75.6978 130.674 75.6876 130.687 75.6776L130.701 75.6667C130.813 75.5585 130.946 75.4735 131.091 75.4165C131.132 75.4062 131.132 75.3617 131.132 75.3206L131.174 75.2863C131.193 75.2672 131.217 75.2521 131.242 75.2418C131.379 75.1902 131.505 75.1122 131.612 75.0122L132.74 74.1007C132.791 74.0492 132.85 74.0053 132.914 73.9704C132.973 73.9523 133.008 73.9118 133.043 73.8716C133.061 73.8509 133.078 73.8303 133.099 73.8128C133.121 73.8191 133.144 73.8198 133.166 73.8151C133.188 73.8103 133.209 73.8001 133.226 73.7854L133.713 73.3947C133.798 73.3118 133.899 73.2476 134.011 73.2063C134.038 73.2028 134.038 73.1583 134.038 73.1343L134.079 73.1C134.153 73.0905 134.223 73.0609 134.282 73.0144C134.333 72.9665 134.391 72.9221 134.449 72.8776L134.449 72.8773C134.493 72.8434 134.542 72.8157 134.593 72.7951C134.67 72.7675 134.741 72.7256 134.802 72.6717L135.525 72.0857L135.591 72.0343C135.677 71.9523 135.78 71.8892 135.892 71.8493C135.936 71.8349 135.973 71.8042 135.995 71.7636C136.037 71.6927 136.092 71.6301 136.156 71.5786L136.335 71.4282C136.349 71.5957 136.359 71.7635 136.365 71.9316C136.369 72.0581 136.383 72.1841 136.406 72.3085L136.519 73.1378C136.546 73.286 136.562 73.4361 136.567 73.5867C136.574 73.9118 136.605 74.2359 136.66 74.5564L136.859 75.9888C136.843 76.1843 136.85 76.3809 136.879 76.5748C136.92 76.8512 136.958 77.1288 136.992 77.4075C137.02 77.581 137.036 77.7562 137.04 77.9318C137.047 78.1613 137.067 78.3902 137.102 78.6171L137.376 80.5875V80.6184V80.961C137.377 81.0871 137.369 81.213 137.352 81.338C137.345 81.4635 137.345 81.5894 137.352 81.7149V82.1741C137.381 82.602 137.381 83.0313 137.352 83.4591C137.346 83.5476 137.366 83.636 137.41 83.7127V83.8669V84.0931C137.381 84.4935 137.381 84.8955 137.41 85.2959L137.54 89.3395C137.552 89.5403 137.552 89.7417 137.54 89.9426C137.531 90.1715 137.541 90.4008 137.571 90.6279C137.527 90.7364 137.511 90.8542 137.523 90.9706C137.527 91.0674 137.529 91.1643 137.531 91.261C137.536 91.4552 137.54 91.6488 137.554 91.841L137.63 92.7045C137.669 93.0251 137.682 93.3482 137.671 93.6709C137.684 93.7333 137.703 93.7942 137.729 93.8525V94.0067C137.706 94.1991 137.706 94.3934 137.729 94.5858C137.75 94.7891 137.767 94.9913 137.78 95.1924C137.789 95.3419 137.789 95.4917 137.78 95.6413C137.774 95.87 137.782 96.0989 137.804 96.3266L138.03 98.9035V99.1331C138.07 99.4559 138.083 99.7813 138.072 100.106C138.068 100.232 138.079 100.357 138.106 100.48C138.157 100.698 138.19 100.921 138.205 101.145L138.332 102.591C138.363 102.868 138.363 103.149 138.363 103.427V104.027C138.351 104.174 138.358 104.323 138.383 104.469C138.405 104.59 138.405 104.714 138.383 104.835C138.349 105.082 138.349 105.332 138.383 105.579C138.402 105.676 138.409 105.775 138.404 105.874C138.382 106.174 138.382 106.475 138.404 106.775L138.473 109.592V109.739C138.483 109.868 138.484 109.988 138.484 110.113C138.485 110.226 138.485 110.344 138.493 110.479C138.503 110.64 138.488 110.787 138.474 110.933L138.474 110.933C138.463 111.045 138.452 111.157 138.452 111.274V111.421C138.409 111.634 138.409 111.853 138.452 112.066C138.475 112.21 138.489 112.355 138.493 112.501V112.878C138.484 113.002 138.523 113.125 138.603 113.22C138.625 113.234 138.647 113.249 138.669 113.263C138.806 113.352 138.953 113.447 139.1 113.409C139.134 113.512 139.178 113.549 139.23 113.549ZM137.465 80.4402H137.441L137.438 80.3991C137.448 80.4119 137.457 80.4257 137.465 80.4402ZM125.245 67.0759H124.954C124.807 66.7641 124.611 66.7367 124.327 66.86C124.275 66.8737 124.207 67.0176 124.207 67.1547C124.197 67.4323 124.169 67.6996 124.138 67.9634C124.128 68.0877 124.128 68.2127 124.138 68.337C124.147 68.3991 124.164 68.46 124.186 68.5186V68.8235V70.5027C124.181 70.7039 124.188 70.9053 124.207 71.1058C124.258 71.5291 124.258 71.9571 124.207 72.3805C124.179 72.5244 124.179 72.6821 124.179 72.8328V73.902C124.179 74.0182 124.184 74.136 124.188 74.2541V74.2543C124.196 74.491 124.205 74.7288 124.179 74.9574C124.177 75.0551 124.185 75.1527 124.203 75.2487C124.238 75.4448 124.238 75.6454 124.203 75.8415C124.171 76.0378 124.171 76.2381 124.203 76.4344C124.219 76.5572 124.219 76.6816 124.203 76.8045C124.186 76.9546 124.176 77.1056 124.176 77.2568V77.9627L124.197 78.6652L124.241 80.077C124.245 80.2273 124.257 80.3772 124.279 80.5259C124.311 80.7218 124.318 80.9211 124.299 81.1187C124.289 81.3185 124.289 81.5187 124.299 81.7184L124.364 83.7745C124.379 84.0027 124.379 84.2316 124.364 84.4598C124.354 84.6344 124.354 84.8095 124.364 84.9841L124.388 85.8237C124.397 85.9492 124.397 86.0751 124.388 86.2006C124.359 86.5505 124.352 86.9019 124.368 87.2526C124.375 87.3519 124.375 87.4515 124.368 87.5508C124.344 87.8255 124.344 88.1018 124.368 88.3766V89.1202V89.8604L124.33 91.3476L124.224 95.6893C124.226 95.9897 124.205 96.2898 124.162 96.5871C124.143 96.737 124.133 96.8882 124.135 97.0394L124.104 98.1805C124.107 98.3317 124.099 98.4828 124.08 98.6329C124.03 98.9813 124.006 99.3329 124.008 99.6849C123.981 100.243 123.981 100.802 123.981 101.361C123.939 101.551 123.916 101.745 123.912 101.94V103.081C123.914 103.232 123.907 103.383 123.892 103.533C123.848 103.856 123.829 104.181 123.833 104.506C123.84 104.758 123.83 105.01 123.803 105.26C123.767 105.508 123.751 105.757 123.755 106.007L123.734 107.453C123.739 107.753 123.72 108.052 123.676 108.348C123.667 108.448 123.667 108.549 123.676 108.649C123.679 109.023 123.653 109.397 123.597 109.766C123.562 109.917 123.54 110.071 123.532 110.226L123.491 110.822C123.49 110.865 123.498 110.909 123.515 110.949C123.583 111.103 123.669 111.147 123.761 111.147H124.834C124.865 111.065 124.902 111.065 124.937 111.065C124.936 111.094 124.942 111.122 124.954 111.147H125.129C125.186 111.054 125.228 110.952 125.252 110.846V110.541V110.236C125.242 109.76 125.265 109.283 125.321 108.81C125.331 108.685 125.331 108.559 125.321 108.433V107.601C125.318 107.451 125.325 107.301 125.341 107.152C125.386 106.829 125.406 106.504 125.399 106.179L125.42 104.736C125.463 104.546 125.486 104.352 125.488 104.157V103.317C125.491 103.142 125.502 102.967 125.523 102.793C125.551 102.566 125.564 102.337 125.564 102.108L125.591 100.127C125.59 99.8506 125.609 99.5745 125.65 99.3011C125.667 99.1762 125.677 99.0503 125.68 98.9241V98.4684C125.678 98.0398 125.706 97.6116 125.763 97.1868C125.775 97.0997 125.759 97.0109 125.718 96.9332V96.779V96.5528C125.776 96.1557 125.805 95.7548 125.804 95.3535L125.9 91.3236C125.895 91.1211 125.903 90.9186 125.924 90.7171C125.941 90.489 125.941 90.2598 125.924 90.0317C125.971 89.924 125.994 89.8067 125.989 89.689C126.006 89.3978 126.006 89.1099 126.006 88.8221L125.978 87.9551C125.953 87.6335 125.953 87.3104 125.978 86.9888C125.969 86.9255 125.953 86.8635 125.931 86.8037V86.6529C125.964 86.4618 125.978 86.2678 125.972 86.0738V85.4639C125.961 85.3156 125.961 85.1667 125.972 85.0184C125.988 84.7902 125.988 84.5612 125.972 84.333L125.889 81.7493V81.5197C125.864 81.1946 125.864 80.8681 125.889 80.543C125.905 80.4202 125.905 80.2958 125.889 80.173C125.851 79.9464 125.829 79.7173 125.824 79.4876L125.78 78.0415V77.2054C125.781 77.1105 125.788 77.0164 125.795 76.9227C125.803 76.8167 125.811 76.7112 125.811 76.6057C125.829 76.459 125.829 76.3104 125.811 76.1637C125.79 76.0423 125.79 75.9183 125.811 75.797C125.852 75.5513 125.858 75.3008 125.828 75.0534C125.816 74.9566 125.816 74.8588 125.828 74.7621C125.864 74.4632 125.877 74.1618 125.865 73.8609L125.886 71.0475V70.9002L125.886 70.8419L125.886 70.8004L125.887 70.718L125.887 70.6618V70.6613C125.889 70.5053 125.891 70.3494 125.886 70.16C125.882 70.0101 125.901 69.8726 125.919 69.7364L125.919 69.7363C125.935 69.6141 125.951 69.493 125.951 69.365V69.2176C126.003 69.0081 126.014 68.7904 125.982 68.5768C125.965 68.4313 125.957 68.2848 125.958 68.1382V67.7647C125.965 67.7038 125.96 67.6421 125.943 67.5832C125.926 67.5243 125.897 67.4695 125.859 67.422C125.842 67.4109 125.826 67.3992 125.809 67.3872L125.808 67.3867C125.675 67.2922 125.521 67.183 125.372 67.2164C125.338 67.1136 125.293 67.0759 125.245 67.0759ZM125.42 100.247H125.44V100.291C125.435 100.285 125.431 100.278 125.428 100.27C125.424 100.263 125.422 100.255 125.42 100.247ZM31.8696 78.0928H31.5818C31.5155 78.0008 31.417 77.9371 31.306 77.9142C31.1949 77.8914 31.0793 77.9111 30.9821 77.9694C30.9307 77.9866 30.8827 78.1031 30.8827 78.2093V78.8467C30.8799 78.9445 30.8891 79.0424 30.9101 79.138C30.923 79.1872 30.9426 79.2345 30.9684 79.2785L30.9924 79.5149L31.1055 80.8274C31.1177 80.9852 31.1406 81.1421 31.174 81.2968C31.2537 81.6228 31.2826 81.9592 31.2596 82.294V82.6367L31.3316 83.4728C31.3733 83.7464 31.3996 84.0221 31.4104 84.2987C31.414 84.3758 31.429 84.4521 31.455 84.5248C31.501 84.6756 31.515 84.8343 31.4961 84.9909C31.4768 85.1458 31.4884 85.3031 31.5304 85.4535C31.5566 85.547 31.5659 85.6445 31.5578 85.7413C31.5513 85.8555 31.5513 85.9699 31.5578 86.084L31.695 87.6639H30.2042C30.0889 87.6757 29.9723 87.664 29.8616 87.6296C29.8059 87.621 29.7493 87.621 29.6936 87.6296H29.2687C29.2133 87.6403 29.1563 87.6403 29.1008 87.6296C28.9729 87.5928 28.8391 87.5812 28.7067 87.5954H28.0831C28.0163 87.5611 27.9422 87.5434 27.8672 87.5439H27.4457C27.3902 87.5546 27.3332 87.5546 27.2778 87.5439C27.1597 87.511 27.0369 87.4982 26.9145 87.5063C26.8215 87.5217 26.7266 87.5217 26.6335 87.5063C26.5444 87.4759 26.4499 87.4642 26.356 87.472H25.818C25.7026 87.486 25.5856 87.4743 25.4753 87.4377C25.4379 87.4308 25.3996 87.4308 25.3622 87.4377C25.222 87.4463 25.0815 87.4288 24.9476 87.3863C24.8958 87.3544 24.837 87.3355 24.7763 87.3315L24.5535 87.3041C24.5398 87.3006 24.509 87.3281 24.509 87.3281C24.458 87.3934 24.4325 87.4749 24.437 87.5577V88.5514C24.448 88.564 24.4564 88.5787 24.4617 88.5946C24.467 88.6105 24.4691 88.6272 24.4678 88.6439C24.4576 88.6234 24.437 88.6439 24.437 88.6439V88.7536C24.4657 88.7984 24.5044 88.836 24.5501 88.8633H24.7797C24.9578 88.8443 25.1378 88.8583 25.3108 88.9044C25.3574 88.9114 25.4048 88.9114 25.4513 88.9044H25.7597C25.8152 88.8937 25.8722 88.8937 25.9276 88.9044C26.0453 88.9396 26.1687 88.9513 26.2909 88.9386H26.8255C26.893 88.9744 26.9683 88.9932 27.0448 88.9935H27.3566C27.4212 88.9912 27.4858 88.9982 27.5485 89.014C27.6313 89.035 27.7167 89.0442 27.8021 89.0414H28.5388C28.6429 89.0324 28.7477 89.044 28.8472 89.0757C28.8921 89.0867 28.9381 89.0924 28.9843 89.0928H29.1556C29.3145 89.0789 29.4745 89.0929 29.6285 89.134C29.6697 89.1511 29.7005 89.1168 29.7245 89.0894H29.7827C29.8099 89.0842 29.8378 89.0842 29.865 89.0894C30.0095 89.1316 30.1605 89.1467 30.3105 89.134H31.8079C31.82 89.132 31.832 89.1303 31.8441 89.129C31.8372 89.2767 31.8377 89.4247 31.8456 89.5724L31.9381 91.1864C31.9519 91.3632 31.9519 91.5408 31.9381 91.7176C31.9279 91.8545 31.9279 91.9919 31.9381 92.1288L31.9758 92.7867C31.9826 92.8848 31.9826 92.9833 31.9758 93.0814C31.9501 93.3561 31.9501 93.6326 31.9758 93.9073C31.9828 93.9848 31.9828 94.0628 31.9758 94.1403C31.9518 94.3567 31.9518 94.575 31.9758 94.7914L32.1095 97.1181L32.3048 100.521C32.3374 100.755 32.3374 100.993 32.3048 101.227C32.295 101.341 32.295 101.455 32.3048 101.569V102.467C32.3147 102.581 32.3147 102.696 32.3048 102.81C32.2631 103.084 32.2471 103.362 32.2568 103.639V104.955C32.2148 105.102 32.194 105.255 32.1952 105.407V106.302C32.2068 106.416 32.2068 106.531 32.1952 106.645C32.158 106.897 32.1431 107.153 32.1506 107.409C32.1628 107.606 32.1559 107.805 32.13 108.002C32.0991 108.195 32.0853 108.391 32.0889 108.587V109.718C32.0909 109.96 32.0691 110.201 32.0238 110.438C32.0151 110.517 32.0151 110.596 32.0238 110.674C32.0311 110.968 32.0104 111.262 31.9621 111.552C31.928 111.663 31.9073 111.778 31.9005 111.894L31.8662 112.364C31.868 112.398 31.8774 112.432 31.8936 112.463C31.9165 112.51 31.9523 112.548 31.9966 112.575C32.0409 112.602 32.092 112.615 32.1437 112.614H33.2163C33.2232 112.593 33.2367 112.576 33.2547 112.564C33.2727 112.552 33.2942 112.547 33.3157 112.549C33.3162 112.571 33.3233 112.592 33.3363 112.61H33.4562C33.5085 112.539 33.5479 112.459 33.5727 112.374V112.131V111.894C33.557 111.52 33.5742 111.145 33.6241 110.774C33.6328 110.675 33.6328 110.575 33.6241 110.476V109.821C33.6144 109.707 33.6144 109.592 33.6241 109.478C33.6648 109.226 33.6798 108.97 33.6687 108.714V107.58C33.709 107.43 33.7297 107.276 33.7303 107.121V106.463C33.7306 106.324 33.7398 106.186 33.7578 106.048C33.7829 105.872 33.7944 105.695 33.792 105.517V103.958C33.7839 103.74 33.7965 103.522 33.8297 103.307C33.8455 103.209 33.8523 103.111 33.8503 103.012V102.652C33.8364 102.316 33.8536 101.978 33.9017 101.645C33.9066 101.61 33.9046 101.574 33.8958 101.54C33.887 101.506 33.8715 101.474 33.8503 101.446V101.326C33.8467 101.267 33.8467 101.207 33.8503 101.148C33.8864 100.835 33.8864 100.519 33.8503 100.206L33.6652 97.0393C33.6536 96.8808 33.6536 96.7216 33.6652 96.563C33.6693 96.3862 33.6555 96.2094 33.6241 96.0353C33.6632 95.9544 33.6787 95.8641 33.6687 95.7749L33.5898 94.4042C33.5642 94.1512 33.5642 93.8963 33.5898 93.6434C33.5792 93.5945 33.5619 93.5472 33.5384 93.5029V93.383C33.5709 93.2322 33.5824 93.0777 33.5727 92.9238C33.5453 92.7627 33.5453 92.6051 33.5453 92.444C33.5388 92.3299 33.5388 92.2155 33.5453 92.1014C33.5607 91.9247 33.5607 91.7469 33.5453 91.5702L33.4288 89.5382V89.3565C33.4228 89.3093 33.4177 89.262 33.4135 89.2146L33.4184 89.2106L33.4232 89.2064C33.4351 89.1962 33.4478 89.1854 33.4596 89.1854H33.5213C33.5878 89.2207 33.6619 89.2395 33.7372 89.2402C33.8125 89.2351 33.8881 89.2351 33.9634 89.2402C34.0188 89.24 34.0741 89.247 34.1279 89.2608C34.209 89.2844 34.2935 89.2949 34.378 89.2916H35.3375H35.4232C35.5455 89.2801 35.669 89.2929 35.7864 89.3293C35.8311 89.343 35.8788 89.343 35.9235 89.3293C36.0034 89.299 36.0882 89.2839 36.1736 89.2847H36.7116C36.7458 89.2847 36.7837 89.2844 36.8218 89.284C36.8983 89.2832 36.9754 89.2825 37.0235 89.2847C37.0556 89.2863 37.0885 89.2912 37.1217 89.2962L37.1218 89.2962C37.1629 89.3024 37.2045 89.3087 37.2462 89.3087C37.2994 89.3275 37.3575 89.3275 37.4107 89.3087C37.4321 89.2986 37.4555 89.2934 37.4792 89.2934C37.5029 89.2934 37.5263 89.2986 37.5478 89.3087C37.6362 89.3412 37.7334 89.3412 37.8219 89.3087C37.8578 89.2988 37.8957 89.2988 37.9315 89.3087C38.0427 89.3409 38.1593 89.3503 38.2742 89.3361H39.3228H39.3776C39.469 89.3413 39.5605 89.3413 39.6518 89.3361C39.7095 89.3306 39.7622 89.3462 39.8142 89.3617C39.8579 89.3747 39.9011 89.3875 39.9465 89.3875H40.0013C40.0367 89.4098 40.0768 89.4235 40.1184 89.4277C40.16 89.4319 40.2021 89.4263 40.2412 89.4115C40.2937 89.3919 40.3496 89.3826 40.4057 89.3841H40.5427C40.5706 89.3844 40.5978 89.3755 40.6201 89.3588C40.6424 89.342 40.6586 89.3184 40.6661 89.2916C40.7172 89.1452 40.7415 88.9908 40.7381 88.8358C40.755 88.8217 40.7684 88.8038 40.7774 88.7836C40.7863 88.7634 40.7904 88.7414 40.7895 88.7193V88.452C40.8497 88.379 40.8926 88.2933 40.9151 88.2013C40.9377 88.1094 40.9393 88.0135 40.9197 87.9209C40.9136 87.8945 40.9 87.8704 40.8805 87.8516C40.8611 87.8327 40.8366 87.8199 40.81 87.8147C40.7079 87.8067 40.6069 87.7883 40.5085 87.7598C40.4634 87.7496 40.4165 87.7496 40.3714 87.7598C40.3572 87.7616 40.3448 87.7735 40.3333 87.7846C40.3227 87.7949 40.3128 87.8044 40.3029 87.8044H40.1898H39.5661C39.4911 87.802 39.4161 87.8101 39.3434 87.8284C39.1891 87.8747 39.0247 87.8747 38.8705 87.8284C38.8157 87.8137 38.7593 87.8056 38.7026 87.8044H38.3051C38.1742 87.8198 38.0419 87.8198 37.911 87.8044C37.8741 87.8029 37.8374 87.8111 37.8048 87.8284C37.7702 87.8437 37.7329 87.8516 37.6951 87.8516C37.6573 87.8516 37.62 87.8437 37.5854 87.8284C37.5141 87.7992 37.4341 87.7992 37.3627 87.8284C37.3183 87.8438 37.27 87.8438 37.2256 87.8284C37.172 87.8137 37.1168 87.8057 37.0612 87.8044H36.0091C35.9533 87.802 35.8975 87.8101 35.8447 87.8284C35.7732 87.8505 35.6968 87.8505 35.6254 87.8284C35.5513 87.8112 35.4751 87.8043 35.3992 87.8078H34.635C34.5496 87.8106 34.4643 87.8013 34.3814 87.7804C34.3177 87.7636 34.252 87.7555 34.1861 87.7564H33.8777C33.83 87.7633 33.7815 87.7633 33.7338 87.7564C33.6071 87.7193 33.4749 87.7042 33.3431 87.7119C33.3227 87.7126 33.3023 87.7111 33.2822 87.7076L33.1889 86.6426L33.1341 85.988V85.5152C33.1419 85.3996 33.1291 85.2836 33.0964 85.1725C33.0674 85.0794 33.0603 84.9809 33.0758 84.8846C33.0975 84.6897 33.0848 84.4926 33.0381 84.3021C33.0158 84.2276 33.0042 84.1503 33.0039 84.0725C33.0169 83.8346 33.0078 83.5959 32.9765 83.3597L32.7811 81.1529V81.0364C32.776 80.9781 32.7721 80.9228 32.7683 80.8681L32.7683 80.868C32.7592 80.7393 32.7503 80.6135 32.7263 80.4573C32.7035 80.3092 32.711 80.1747 32.7186 80.0388C32.7224 79.9703 32.7263 79.9014 32.7263 79.8302V79.7137C32.7706 79.5475 32.7706 79.3727 32.7263 79.2065C32.6972 79.0941 32.6778 78.9795 32.668 78.8638L32.6338 78.5726C32.6167 78.4423 32.5721 78.343 32.5104 78.3155C32.3592 78.2236 32.1833 78.1805 32.0067 78.1922C31.969 78.1168 31.921 78.0928 31.8696 78.0928ZM33.6926 104.088H33.7166V104.122C33.7072 104.112 33.6991 104.101 33.6926 104.088ZM28.4703 89.014V88.9935C28.4689 89.0003 28.4689 89.0072 28.4703 89.014ZM48.3112 112.254H48.6025C48.7601 112.614 48.9418 112.648 49.0754 112.573C49.1302 112.573 49.1953 112.388 49.1953 112.23C49.2056 111.908 49.2262 111.6 49.257 111.291C49.269 111.146 49.269 111.001 49.257 110.856C49.2483 110.785 49.2323 110.715 49.209 110.647V108.341C49.2137 108.106 49.2045 107.872 49.1816 107.638C49.1319 107.146 49.1319 106.65 49.1816 106.158C49.1984 105.984 49.2064 105.809 49.2056 105.634V104.393C49.2056 104.257 49.2018 104.122 49.198 103.986C49.1904 103.713 49.1828 103.441 49.2056 103.166C49.2064 103.052 49.1973 102.937 49.1782 102.824C49.1459 102.596 49.1459 102.366 49.1782 102.138C49.2108 101.911 49.2108 101.68 49.1782 101.453C49.161 101.31 49.161 101.165 49.1782 101.021C49.1949 100.848 49.2029 100.674 49.2022 100.5L49.2262 97.2176V96.6933C49.199 96.4657 49.199 96.2356 49.2262 96.008C49.257 95.8025 49.257 95.5593 49.257 95.3229V95.3226L49.2776 92.9239C49.281 92.6566 49.2879 92.3962 49.3153 92.1358C49.3495 91.9439 49.3495 91.7315 49.3495 91.5259V91.5258V90.5526C49.3408 90.4054 49.3408 90.2578 49.3495 90.1105C49.3955 89.7056 49.4172 89.2982 49.4146 88.8906C49.413 88.776 49.4199 88.6615 49.4352 88.5479C49.4737 88.2296 49.4898 87.909 49.4832 87.5885V84.1274V79.073C49.4755 78.7228 49.4904 78.3726 49.5277 78.0244C49.5453 77.8491 49.5521 77.6728 49.5483 77.4967V76.1671C49.5377 75.9913 49.5377 75.8151 49.5483 75.6394C49.5918 75.2331 49.6079 74.8244 49.5963 74.416C49.5963 74.0902 49.6031 73.7643 49.61 73.4389V73.4388V73.4388V73.4387V73.4387V73.4386V73.4385L49.61 73.4383C49.6168 73.1137 49.6237 72.7895 49.6237 72.4662C49.6669 72.2402 49.691 72.0109 49.6956 71.7808L49.7162 70.4547C49.7135 70.2796 49.7215 70.1045 49.7402 69.9304C49.7849 69.5552 49.8055 69.1774 49.8019 68.7996C49.7958 68.5079 49.8073 68.2161 49.8361 67.9257C49.8735 67.6371 49.8918 67.3464 49.891 67.0553L49.9184 65.3762C49.9124 65.0326 49.9318 64.689 49.9766 64.3482C49.9921 64.2347 49.999 64.1201 49.9972 64.0055C49.9964 63.5702 50.0239 63.1352 50.0794 62.7034C50.1176 62.5286 50.1406 62.3509 50.148 62.1722L50.1925 61.4869C50.1941 61.4367 50.1859 61.3866 50.1685 61.3395C50.1 61.1579 50.0143 61.1099 49.9218 61.1099L48.8492 61.0928C48.8184 61.1887 48.7841 61.1887 48.7464 61.1887C48.7549 61.1573 48.7549 61.1242 48.7464 61.0928H48.6265C48.5713 61.2014 48.5298 61.3166 48.5031 61.4355V61.7781V62.1208C48.5108 62.6747 48.4856 63.2285 48.4277 63.7794C48.4188 63.9254 48.4188 64.0719 48.4277 64.218L48.4106 65.1878C48.4133 65.3629 48.4053 65.5379 48.3866 65.7121C48.3419 66.0873 48.3213 66.465 48.3249 66.8429L48.2975 68.522C48.2537 68.7479 48.2307 68.9773 48.229 69.2073V70.184L48.226 70.2778C48.2206 70.4518 48.215 70.6315 48.1947 70.7939C48.1649 71.0545 48.1489 71.3164 48.1467 71.5787L48.109 73.8849C48.1179 74.2053 48.1041 74.5259 48.0679 74.8444C48.0474 74.978 48.0474 75.1356 48.0474 75.2796V75.8141C48.0602 76.3094 48.0419 76.805 47.9925 77.2979C47.9812 77.3998 47.9978 77.5028 48.0405 77.596V77.7742C48.0458 77.8621 48.0458 77.9502 48.0405 78.0381C47.9916 78.5001 47.9722 78.9648 47.9823 79.4294L47.9651 84.1137C47.9783 84.342 47.9783 84.5708 47.9651 84.7991C47.9479 85.0592 47.9479 85.3202 47.9651 85.5804C47.9215 85.7022 47.9017 85.8314 47.9069 85.9607V87.9757C47.9123 88.351 47.8951 88.7264 47.8555 89.0996C47.86 89.1717 47.8726 89.2429 47.8932 89.3121V89.4903C47.8492 89.7161 47.8262 89.9456 47.8246 90.1756V90.8816C47.8244 91.0555 47.8153 91.2294 47.7972 91.4024C47.768 91.6618 47.7542 91.9227 47.7561 92.1837L47.7287 95.189V95.4563C47.7346 95.834 47.7163 96.2117 47.6738 96.5871C47.6567 96.7317 47.6567 96.8777 47.6738 97.0223C47.7038 97.2805 47.7164 97.5403 47.7116 97.8002V99.4827V100.459C47.71 100.561 47.7041 100.665 47.6983 100.769L47.6982 100.769L47.6982 100.77V100.77V100.77V100.77V100.77C47.6912 100.894 47.6841 101.02 47.6841 101.145C47.6636 101.317 47.6636 101.49 47.6841 101.662C47.7066 101.804 47.7066 101.949 47.6841 102.09C47.6498 102.377 47.6498 102.667 47.6841 102.954C47.6978 103.068 47.6978 103.183 47.6841 103.297C47.6516 103.646 47.6413 103.998 47.6533 104.349V107.81C47.6533 107.906 47.6521 107.997 47.651 108.088C47.6487 108.271 47.6464 108.454 47.6533 108.673C47.6588 108.85 47.6407 109.012 47.6227 109.174C47.6071 109.313 47.5916 109.452 47.5916 109.598V109.77C47.539 110.015 47.5297 110.268 47.5642 110.517C47.5916 110.685 47.5916 110.856 47.5916 111.027V111.463C47.5797 111.601 47.616 111.739 47.6944 111.853L47.717 111.872L47.7417 111.892C47.8778 112.006 48.0311 112.133 48.1844 112.093C48.2153 112.21 48.2598 112.254 48.3112 112.254ZM48.2975 73.6724H48.2735L48.277 73.621C48.2853 73.6375 48.2922 73.6547 48.2975 73.6724ZM72.5657 67.0383L72.8364 67.1411C72.8597 67.1499 72.8805 67.1642 72.8972 67.1826C72.9138 67.2011 72.9259 67.2233 72.9324 67.2473C73.0898 67.3052 73.2342 67.3937 73.3573 67.5077C73.382 67.5308 73.3991 67.5609 73.4065 67.5939C73.4138 67.6269 73.411 67.6614 73.3984 67.6928L73.3436 67.8607C73.319 67.9256 73.304 67.9937 73.299 68.0629C73.2975 68.1154 73.2848 68.1671 73.2618 68.2143C73.2387 68.2616 73.2059 68.3034 73.1654 68.337L73.1414 68.4021C73.0699 68.5114 73.0069 68.6259 72.9529 68.7448C72.9366 68.8027 72.9155 68.8607 72.8937 68.9207L72.8937 68.9207L72.8936 68.9208C72.8742 68.9743 72.8542 69.0293 72.8364 69.0874L72.8124 69.1526L72.3498 70.3965C72.311 70.534 72.2508 70.6647 72.1716 70.7837C72.1495 70.825 72.1366 70.8706 72.1339 70.9173C72.125 71.0356 72.0795 71.1482 72.0037 71.2395C71.9617 71.2828 71.9373 71.3402 71.9352 71.4005C71.9343 71.4713 71.9128 71.5404 71.8735 71.5993C71.8262 71.6806 71.785 71.7654 71.7501 71.8528C71.7193 71.9268 71.6922 72.0007 71.6651 72.0746L71.6651 72.0748C71.647 72.1242 71.6289 72.1736 71.6096 72.2229L71.3732 72.8603C71.3354 72.9604 71.3123 73.0654 71.3047 73.1721C71.3015 73.2314 71.2813 73.2885 71.2464 73.3366C71.1561 73.4624 71.0877 73.6026 71.0442 73.7513L71.0065 73.8506L70.5851 74.9917C70.5522 75.0928 70.5049 75.1886 70.4445 75.2762C70.4052 75.3349 70.373 75.3982 70.3486 75.4646C70.3098 75.5537 70.2755 75.6428 70.2458 75.7319C70.2159 75.822 70.1641 75.9033 70.095 75.9684L70.071 76.0369C70.071 76.0472 70.0733 76.0594 70.0756 76.0716C70.0802 76.0959 70.0847 76.1203 70.071 76.1294C69.9855 76.2571 69.9197 76.3968 69.8757 76.5441L69.5947 77.3082C69.5871 77.3353 69.5737 77.3604 69.5553 77.3817C69.537 77.4031 69.5142 77.4201 69.4885 77.4316C69.4748 77.5375 69.441 77.6398 69.3891 77.7332C69.3446 77.8168 69.3101 77.9053 69.2863 77.997L68.6489 79.7823C68.591 79.9474 68.5115 80.1041 68.4125 80.2484C68.3932 80.2789 68.3793 80.3125 68.3714 80.3478L68.3439 80.4129C68.3565 80.4323 68.3632 80.4549 68.3632 80.478C68.3632 80.5011 68.3565 80.5237 68.3439 80.5431C68.2342 80.7134 68.151 80.8994 68.0972 81.0948C68.0824 81.13 68.0696 81.1662 68.0566 81.2029C68.0456 81.234 68.0344 81.2655 68.0218 81.297C68.0018 81.3524 67.9754 81.4053 67.943 81.4546C67.8691 81.5591 67.8124 81.6748 67.7751 81.7973L67.4633 82.6745C67.429 82.7761 67.3818 82.8729 67.3228 82.9624C67.2799 83.0328 67.2443 83.1075 67.2166 83.1851C67.1686 83.3085 67.124 83.4318 67.0829 83.5586C67.0516 83.6473 67.0013 83.728 66.9356 83.7951L66.706 84.4359C66.662 84.5831 66.5962 84.7229 66.5106 84.8505C66.4721 84.9108 66.4432 84.9767 66.425 85.0458L66.2913 85.4159C66.2763 85.4726 66.2532 85.5268 66.2228 85.577C66.1011 85.7677 66.0087 85.9756 65.9487 86.1938L65.9007 86.3274L65.8527 86.4611C65.8066 86.5043 65.7516 86.537 65.6916 86.557L65.5786 86.5159C65.5755 86.5095 65.5739 86.5025 65.5739 86.4954C65.5739 86.4882 65.5755 86.4812 65.5786 86.4748C65.5621 86.4664 65.5439 86.462 65.5254 86.462C65.507 86.462 65.4888 86.4664 65.4723 86.4748L65.1485 86.3584L64.9036 86.4577C64.8822 86.47 64.858 86.4765 64.8333 86.4765C64.8087 86.4765 64.7844 86.47 64.7631 86.4577C64.6085 86.5256 64.4419 86.5617 64.2731 86.5639C64.2398 86.5652 64.207 86.556 64.1792 86.5375C64.1515 86.5191 64.1304 86.4923 64.1188 86.4611L64.0435 86.3034C64.0151 86.2394 63.9782 86.1794 63.9338 86.1253C63.8994 86.0863 63.8733 86.0406 63.8574 85.991C63.8415 85.9415 63.836 85.8892 63.8413 85.8374L63.8173 85.7757C63.7946 85.6516 63.7636 85.5291 63.7248 85.4091C63.6902 85.3443 63.6625 85.2767 63.6346 85.2091L63.6346 85.209C63.6183 85.1693 63.602 85.1296 63.5843 85.0904L63.5569 85.0287L63.036 83.8191C62.9683 83.6925 62.9209 83.556 62.8955 83.4147C62.8834 83.3702 62.8611 83.3292 62.8304 83.2948C62.7569 83.2025 62.7127 83.0903 62.7036 82.9726C62.7051 82.9129 62.6829 82.855 62.6419 82.8116C62.5938 82.7588 62.5618 82.6934 62.5494 82.6231C62.5276 82.532 62.499 82.4426 62.4637 82.3558C62.4239 82.2454 62.3758 82.1406 62.3268 82.0338L62.3268 82.0337L62.3095 81.996L62.0422 81.3724C62.0017 81.2742 61.9462 81.1828 61.8778 81.1016C61.8406 81.0566 61.8168 81.0019 61.8092 80.944C61.7854 80.7925 61.738 80.6457 61.6687 80.5088L61.6242 80.4094L61.1444 79.2992C61.0998 79.2034 61.0686 79.1019 61.0519 78.9976C61.0382 78.9283 61.0175 78.8606 60.9902 78.7954C60.956 78.7063 60.9183 78.6172 60.8772 78.535C60.842 78.4479 60.8245 78.3547 60.8257 78.2609L60.7983 78.1958C60.794 78.1921 60.789 78.1883 60.7835 78.1844L60.7716 78.1761C60.7494 78.1608 60.7264 78.1449 60.7264 78.1306C60.7029 77.9808 60.6542 77.836 60.5825 77.7023C60.4797 77.4521 60.37 77.2054 60.2569 76.9587C60.246 76.9327 60.2403 76.9047 60.2403 76.8765C60.2403 76.8482 60.246 76.8203 60.2569 76.7942C60.1944 76.7097 60.148 76.6145 60.1198 76.5132C60.0942 76.4222 60.0574 76.3347 60.0102 76.2528L59.2289 74.5394C59.1415 74.3727 59.0803 74.1936 59.0473 74.0083C59.0359 73.9742 59.0221 73.941 59.0061 73.9089L58.9787 73.8438C58.9376 73.8438 58.8896 73.8061 58.8828 73.7547C58.8449 73.558 58.7766 73.3684 58.6806 73.1927C58.6498 73.1276 58.6189 73.0625 58.5915 72.9974C58.5671 72.9436 58.5487 72.8873 58.5367 72.8295C58.5185 72.7007 58.4767 72.5764 58.4133 72.4628L58.0295 71.6164C57.9816 71.5211 57.947 71.4196 57.9267 71.3148C57.9103 71.2342 57.8838 71.1559 57.8479 71.0818C57.7999 70.9619 57.7451 70.8419 57.6868 70.722C57.6476 70.6372 57.6277 70.5447 57.6286 70.4513L57.3476 69.8345C57.2757 69.6993 57.226 69.5536 57.2003 69.4027C57.1856 69.3329 57.1602 69.2659 57.1249 69.204L56.9638 68.8613C56.9339 68.8117 56.913 68.7571 56.9021 68.7002C56.8559 68.4797 56.7774 68.2673 56.6691 68.0697L56.6108 67.9395L56.5526 67.8093C56.556 67.7472 56.5723 67.6865 56.6006 67.6311L56.7102 67.5831C56.7173 67.5845 56.724 67.5873 56.7299 67.5914C56.7358 67.5956 56.7408 67.6009 56.7445 67.6071L56.7517 67.6031C56.7801 67.5876 56.8072 67.5727 56.8199 67.5317L57.7965 67.0862C57.8365 67.0643 57.8807 67.0511 57.9262 67.0476C57.9717 67.044 58.0174 67.0502 58.0603 67.0657C58.0816 67.0736 58.0989 67.0896 58.1083 67.1102L58.194 67.3775C58.2203 67.4475 58.232 67.5221 58.2283 67.5968C58.2564 67.7719 58.3106 67.9417 58.3893 68.1005C58.4133 68.1415 58.4284 68.187 58.4339 68.2342C58.4572 68.3745 58.5035 68.5099 58.571 68.6351L58.8519 69.2519C58.9064 69.3596 58.9434 69.4753 58.9616 69.5946C58.9846 69.7151 59.0274 69.8309 59.0884 69.9373C59.1603 70.0727 59.2112 70.2183 59.2392 70.369C59.2527 70.4386 59.277 70.5057 59.3111 70.5678L59.3359 70.6248L59.3572 70.6744L59.3574 70.6749L59.3575 70.675C59.4143 70.8071 59.472 70.9413 59.5339 71.0544C59.5701 71.1413 59.5887 71.2344 59.5887 71.3285L59.9142 72.0447C59.9942 72.19 60.0498 72.3475 60.0787 72.5108C60.0941 72.5803 60.1195 72.6472 60.1541 72.7095L60.3768 73.1995C60.4098 73.2622 60.434 73.3291 60.4488 73.3983C60.4716 73.5398 60.5179 73.6765 60.5859 73.8027L61.4289 75.6565C61.4964 75.806 61.5647 75.9546 61.633 76.1032L61.633 76.1032L61.633 76.1032L61.633 76.1033L61.6331 76.1033C61.7589 76.3769 61.8846 76.6502 62.0045 76.9279C62.0653 77.0432 62.1048 77.1686 62.1211 77.2979C62.1272 77.3452 62.1399 77.3913 62.1588 77.435C62.2314 77.5843 62.2811 77.7438 62.3061 77.9079C62.3206 77.9659 62.3412 78.0222 62.3678 78.0758L62.5254 78.4185C62.5572 78.4947 62.5813 78.5739 62.5974 78.6549C62.6169 78.7601 62.6491 78.8625 62.6933 78.9599L63.0771 79.8474C63.1165 79.933 63.1464 80.0227 63.1662 80.1147C63.1787 80.2084 63.218 80.2965 63.2793 80.3683C63.3216 80.4252 63.3561 80.4874 63.3821 80.5534L63.9064 81.7664C63.9337 81.8328 63.9543 81.9016 63.9681 81.972C63.9761 82.0305 64.0011 82.0853 64.04 82.1297C64.103 82.2006 64.1383 82.2918 64.1394 82.3867C64.1466 82.4818 64.1865 82.5714 64.2525 82.6403C64.2872 82.672 64.3132 82.7121 64.3279 82.7568C64.3823 82.9136 64.4512 83.065 64.5335 83.2091L64.7288 83.6683C64.7561 83.7334 64.7767 83.8012 64.7905 83.8705C64.8197 84.0624 64.8959 84.2439 65.012 84.3992L65.2222 83.8156C65.256 83.7018 65.3081 83.5941 65.3764 83.4969C65.4389 83.3898 65.4861 83.2744 65.5169 83.1543C65.5583 83.0061 65.6243 82.8659 65.7122 82.7396C65.7497 82.6788 65.7785 82.6131 65.7979 82.5443C65.8548 82.3893 65.9118 82.2284 65.966 82.0752L65.9795 82.0372C66.0124 81.9493 66.0625 81.8689 66.1268 81.8007L66.3941 81.0571C66.4397 80.8963 66.5102 80.7437 66.6031 80.6048C66.6417 80.5445 66.6706 80.4786 66.6888 80.4094L66.8704 79.9023C66.8918 79.8348 66.9217 79.7702 66.9595 79.7104C67.04 79.5916 67.1012 79.4609 67.1412 79.3232L67.8265 77.3973L68.3028 76.078C68.3413 75.9554 68.3991 75.8397 68.4742 75.7354C68.5042 75.6987 68.5275 75.6569 68.5427 75.612C68.5927 75.4532 68.6667 75.303 68.762 75.1665C68.7935 75.1153 68.8177 75.0599 68.834 75.002L68.971 74.6319C68.9993 74.5539 69.036 74.4792 69.0807 74.4092C69.1415 74.3202 69.1899 74.2234 69.2246 74.1213L69.5673 73.2133C69.5975 73.1234 69.6377 73.0371 69.6872 72.9563C69.7405 72.884 69.7736 72.7988 69.7832 72.7095C69.7913 72.6387 69.8098 72.5694 69.838 72.5039L70.2972 71.2566C70.3248 71.191 70.3581 71.128 70.3966 71.0681C70.4313 71.0202 70.4505 70.9628 70.4514 70.9036C70.4559 70.8082 70.4935 70.7174 70.5576 70.6466C70.6196 70.5726 70.6535 70.4793 70.6536 70.3828C70.6526 70.336 70.6607 70.2894 70.6776 70.2457C70.7472 70.0944 70.8034 69.9373 70.8455 69.7762L71.0202 69.3068C71.046 69.241 71.0781 69.1778 71.1162 69.1183C71.2319 68.9515 71.3038 68.7582 71.3252 68.5563C71.3378 68.4608 71.3631 68.3675 71.4006 68.2787L71.6748 67.5386L71.7227 67.4049C71.7163 67.3721 71.7163 67.3383 71.7227 67.3055C71.7318 67.2476 71.7515 67.1918 71.781 67.1411C71.8548 67.0332 71.9179 66.9185 71.9695 66.7984C71.985 66.7697 72.0085 66.7462 72.037 66.7304C72.0655 66.7146 72.098 66.7073 72.1305 66.7093C72.2236 66.7266 72.3114 66.7653 72.3869 66.8224C72.4625 66.8795 72.5237 66.9534 72.5657 67.0383ZM67.6483 81.8555H67.6243C67.6233 81.8646 67.6233 81.8738 67.6243 81.8829L67.6483 81.8555ZM73.2956 108.437L73.0317 108.553C73.0098 108.566 72.985 108.573 72.9598 108.573C72.9345 108.573 72.9097 108.566 72.8878 108.553C72.7352 108.625 72.5696 108.665 72.4012 108.67C72.3676 108.671 72.3344 108.662 72.3062 108.643C72.278 108.625 72.2562 108.598 72.2436 108.567L72.1613 108.409C72.1318 108.345 72.0937 108.285 72.0482 108.231C72.0123 108.193 71.9846 108.148 71.9669 108.098C71.9492 108.048 71.9419 107.996 71.9454 107.943L71.918 107.878C71.8922 107.754 71.8578 107.631 71.8152 107.512C71.7752 107.437 71.7407 107.358 71.7064 107.28C71.6936 107.251 71.6809 107.222 71.6679 107.193L71.637 107.128L71.0785 105.911C71.0063 105.787 70.9553 105.652 70.9277 105.51C70.9151 105.464 70.8915 105.422 70.8592 105.387C70.782 105.295 70.7343 105.181 70.7221 105.062C70.7182 105.002 70.694 104.945 70.6535 104.9C70.6051 104.849 70.5719 104.785 70.5576 104.715C70.5302 104.623 70.4993 104.534 70.4651 104.445C70.4308 104.356 70.3554 104.205 70.2972 104.102L70.0127 103.475C69.9671 103.377 69.9083 103.286 69.838 103.204C69.7996 103.159 69.7737 103.105 69.7626 103.047C69.7371 102.892 69.685 102.744 69.6084 102.608L69.5638 102.509L69.0498 101.395C69.0019 101.298 68.9673 101.196 68.947 101.09C68.9332 101.02 68.9113 100.952 68.8819 100.888C68.8442 100.799 68.8065 100.713 68.762 100.627C68.7221 100.541 68.7011 100.448 68.7003 100.353L68.6695 100.285C68.6665 100.282 68.6633 100.28 68.6598 100.277C68.6539 100.273 68.6474 100.268 68.6409 100.264C68.6203 100.25 68.5998 100.237 68.5975 100.223C68.5683 100.072 68.5163 99.9264 68.4433 99.7912C68.3268 99.541 68.2137 99.2943 68.1006 99.0407C68.0888 99.0143 68.0827 98.9857 68.0827 98.9567C68.0827 98.9278 68.0888 98.8992 68.1006 98.8728C68.0367 98.7866 67.9902 98.6889 67.9635 98.5849C67.9395 98.4923 67.9025 98.4035 67.8539 98.3211L67.0863 96.57C66.9985 96.4002 66.9383 96.2174 66.9081 96.0286C66.9008 95.9937 66.8881 95.9602 66.8704 95.9292L66.8396 95.8607C66.7984 95.8435 66.7539 95.823 66.7471 95.7716C66.7109 95.5706 66.6439 95.3764 66.5483 95.1959C66.536 95.165 66.5222 95.1349 66.5087 95.1051L66.5087 95.1051L66.5085 95.1047C66.492 95.0684 66.4758 95.0328 66.4626 94.9971C66.4372 94.9426 66.4187 94.885 66.4078 94.8258C66.3886 94.694 66.3469 94.5665 66.2844 94.4489L65.9075 93.5887C65.8606 93.4909 65.8272 93.3871 65.8081 93.2803C65.7924 93.1988 65.7671 93.1194 65.7327 93.0439L65.7326 93.0435L65.7325 93.0434L65.7325 93.0434L65.7325 93.0433C65.6812 92.9201 65.6298 92.797 65.5717 92.6806C65.5343 92.5929 65.5156 92.4984 65.5168 92.4031L65.2427 91.776C65.1835 91.6599 65.1391 91.5369 65.1105 91.41C65.0881 91.4614 65.0639 91.5116 65.0398 91.5616C65.0203 91.6021 65.0008 91.6425 64.9823 91.6834L64.9515 91.7451L64.3895 92.9513C64.3389 93.0845 64.2684 93.2093 64.1804 93.3214C64.1534 93.3599 64.1369 93.4047 64.1325 93.4516C64.1128 93.5698 64.0564 93.6789 63.9714 93.7634C63.9281 93.8042 63.9002 93.8587 63.8926 93.9176C63.8854 93.9889 63.8581 94.0567 63.8138 94.1129C63.7613 94.1913 63.7132 94.2725 63.6698 94.3562C63.6385 94.4154 63.6099 94.4763 63.5821 94.5354C63.5551 94.5927 63.5289 94.6483 63.5019 94.6989L63.2107 95.3192C63.1642 95.4154 63.1329 95.5183 63.1181 95.6241C63.1071 95.6823 63.0811 95.7366 63.0428 95.7818C62.9432 95.9002 62.8644 96.0346 62.8097 96.1793L62.7652 96.2787L62.2443 97.3821C62.2038 97.4803 62.1483 97.5716 62.0798 97.6528C62.0362 97.7094 61.9983 97.7703 61.9668 97.8344C61.9256 97.9201 61.8845 98.0057 61.8468 98.0948C61.8067 98.1807 61.7482 98.2568 61.6755 98.3176L61.6446 98.3827V98.4786C61.548 98.5972 61.4706 98.7302 61.4151 98.8727C61.2985 99.1194 61.1855 99.3662 61.0724 99.6163C61.0505 99.669 61.0086 99.7109 60.9559 99.7328C60.932 99.8358 60.8915 99.9342 60.8359 100.024C60.7833 100.104 60.7418 100.19 60.7126 100.281L59.9416 102.018C59.8731 102.195 59.7784 102.36 59.6606 102.508C59.6425 102.539 59.6265 102.571 59.6126 102.604L59.5852 102.67C59.5852 102.684 59.5886 102.7 59.592 102.715C59.5989 102.745 59.6057 102.776 59.5852 102.803C59.4604 102.962 59.3621 103.141 59.2939 103.331C59.2785 103.363 59.2639 103.397 59.2493 103.43C59.2432 103.444 59.2371 103.458 59.2309 103.472C59.2223 103.492 59.2137 103.511 59.2048 103.53C59.1813 103.583 59.1513 103.634 59.1157 103.68C59.0324 103.783 58.9664 103.899 58.9204 104.023L58.5434 104.876C58.5019 104.975 58.4478 105.069 58.3824 105.154C58.332 105.22 58.2906 105.293 58.259 105.37C58.2149 105.461 58.1728 105.551 58.1342 105.635L58.098 105.713C58.0601 105.8 58.0026 105.877 57.93 105.939L57.6559 106.562C57.6017 106.707 57.5254 106.842 57.4297 106.963C57.3867 107.021 57.3521 107.084 57.3269 107.152L57.1659 107.494C57.1473 107.55 57.1207 107.604 57.0871 107.652C56.9524 107.833 56.845 108.033 56.7684 108.245L56.7101 108.375L56.6484 108.509C56.6004 108.548 56.5442 108.576 56.484 108.591L56.3743 108.543C56.371 108.536 56.3692 108.528 56.3692 108.521C56.3692 108.519 56.3693 108.518 56.3694 108.516C56.3695 108.515 56.3697 108.514 56.3699 108.513C56.3702 108.51 56.3708 108.508 56.3715 108.506C56.3722 108.503 56.3732 108.501 56.3743 108.498C56.3576 108.491 56.3395 108.487 56.3212 108.487C56.3028 108.487 56.2847 108.491 56.2681 108.498L55.288 108.063C55.2446 108.048 55.2049 108.024 55.1718 107.992C55.1387 107.96 55.1129 107.921 55.0961 107.878C55.0876 107.857 55.0876 107.834 55.0961 107.813L55.2435 107.57C55.2766 107.502 55.3246 107.442 55.384 107.395C55.4962 107.256 55.5875 107.101 55.6547 106.936C55.669 106.89 55.6936 106.848 55.7266 106.812C55.8173 106.702 55.888 106.577 55.9357 106.442L56.2132 105.819C56.2571 105.709 56.3171 105.606 56.3914 105.514C56.4623 105.417 56.5178 105.309 56.5559 105.195C56.6101 105.051 56.6864 104.915 56.7821 104.794C56.8244 104.736 56.8589 104.673 56.8849 104.606C56.9603 104.441 57.0322 104.28 57.1042 104.112C57.1433 104.028 57.1993 103.952 57.2687 103.889L57.5908 103.163C57.648 103.006 57.7301 102.859 57.8341 102.728C57.876 102.67 57.9094 102.607 57.9335 102.539L58.1562 102.046C58.1789 101.978 58.2124 101.914 58.2556 101.857C58.3466 101.746 58.4184 101.619 58.468 101.484L59.3007 99.6095C59.3813 99.4328 59.4596 99.2555 59.5376 99.0786L59.5377 99.0784C59.6489 98.8266 59.7597 98.5754 59.8764 98.3279C59.9238 98.2029 59.9922 98.087 60.0786 97.9852C60.1103 97.9497 60.1358 97.9092 60.154 97.8652C60.2188 97.7102 60.3065 97.5658 60.4144 97.4369C60.4486 97.3881 60.4762 97.3352 60.4967 97.2793L60.6646 96.9366C60.6998 96.86 60.7435 96.7876 60.7948 96.7207C60.8601 96.6361 60.9153 96.544 60.9593 96.4466L61.3705 95.5659C61.409 95.4784 61.4572 95.3957 61.5144 95.3192C61.5742 95.2459 61.6143 95.1587 61.6309 95.0656C61.6439 94.9952 61.667 94.9271 61.6995 94.8634L62.2649 93.6538C62.296 93.5905 62.334 93.5307 62.378 93.4756C62.4152 93.4292 62.439 93.3735 62.4465 93.3145C62.4595 93.2193 62.5042 93.1311 62.5733 93.0644C62.642 92.9971 62.6835 92.9068 62.6898 92.8108C62.6926 92.763 62.7055 92.7163 62.7275 92.6737C62.8069 92.5357 62.8746 92.3913 62.9297 92.2419L63.1421 91.7862C63.1737 91.722 63.2116 91.6612 63.2552 91.6046C63.3847 91.4471 63.473 91.2598 63.5122 91.0597C63.5324 90.9657 63.5646 90.8747 63.6082 90.789L63.9508 90.0728L64.0125 89.9426C64.0058 89.911 64.0058 89.8783 64.0125 89.8466C64.0273 89.7893 64.0516 89.7348 64.0845 89.6856C64.1654 89.5857 64.2376 89.4791 64.3004 89.3669C64.3173 89.3387 64.3425 89.3163 64.3725 89.3028C64.4025 89.2894 64.4359 89.2854 64.4683 89.2915C64.5602 89.3129 64.6456 89.3561 64.7172 89.4176L64.7274 89.4266L64.7287 89.4218L65.7122 88.99C65.7533 88.9694 65.7981 88.9572 65.8441 88.9543C65.89 88.9513 65.936 88.9577 65.9795 88.9729C66 88.9819 66.0169 88.9976 66.0274 89.0174L66.1097 89.2882C66.1348 89.3596 66.1452 89.4353 66.1405 89.5109C66.1669 89.6881 66.22 89.8603 66.2981 90.0215C66.3206 90.0643 66.3357 90.1107 66.3427 90.1586C66.3636 90.3007 66.4076 90.4384 66.4729 90.5663L66.7471 91.19C66.8035 91.2969 66.8406 91.4129 66.8567 91.5327C66.8808 91.6524 66.9223 91.7678 66.9801 91.8754C67.0515 92.0131 67.1012 92.1611 67.1274 92.314C67.1401 92.3849 67.1644 92.4532 67.1994 92.5162L67.2268 92.5823L67.2269 92.5823C67.2871 92.7275 67.3499 92.8789 67.4153 93.0096C67.4515 93.0977 67.4701 93.192 67.4701 93.2872L67.7888 94.0137C67.8678 94.1627 67.9222 94.3236 67.9498 94.49C67.9637 94.561 67.9892 94.6293 68.0252 94.6922L68.2411 95.189C68.2731 95.2542 68.2962 95.3233 68.3097 95.3946C68.3354 95.536 68.3804 95.6732 68.4433 95.8024L69.2726 97.6871C69.3407 97.8403 69.4074 97.9935 69.4742 98.1465L69.4747 98.1477C69.5958 98.4256 69.7168 98.703 69.8448 98.979C69.9084 99.0943 69.9524 99.2194 69.9751 99.3491C69.9808 99.3968 69.9947 99.4432 70.0162 99.4862C70.0931 99.6349 70.1474 99.7943 70.1772 99.9591C70.1911 100.018 70.2142 100.075 70.2458 100.127L70.4103 100.487C70.4442 100.563 70.4706 100.642 70.4891 100.723C70.5115 100.829 70.5472 100.931 70.5953 101.028L71.0031 101.916C71.0442 102.003 71.0775 102.093 71.1024 102.186C71.1168 102.28 71.1572 102.368 71.219 102.44C71.2634 102.497 71.3003 102.559 71.3286 102.625L71.8906 103.838C71.919 103.904 71.9408 103.973 71.9557 104.044C71.9659 104.102 71.9919 104.157 72.0311 104.201C72.097 104.271 72.1359 104.362 72.1408 104.458C72.1512 104.555 72.1934 104.645 72.2607 104.715C72.2969 104.745 72.3242 104.784 72.3395 104.828C72.3989 104.985 72.4711 105.136 72.5554 105.281L72.7679 105.74C72.7957 105.806 72.8175 105.875 72.833 105.946C72.8717 106.146 72.9587 106.334 73.0865 106.494C73.1443 106.57 73.1926 106.653 73.2305 106.741L73.5731 107.464L73.6348 107.594C73.6636 107.61 73.6901 107.629 73.7136 107.652C73.7487 107.701 73.7753 107.755 73.7925 107.813C73.8151 107.941 73.8495 108.066 73.8953 108.187C73.9055 108.218 73.9065 108.251 73.8979 108.283C73.8894 108.315 73.8718 108.343 73.8473 108.365C73.7676 108.42 73.676 108.455 73.5801 108.467C73.4842 108.48 73.3867 108.469 73.2956 108.437ZM58.7593 104.061H58.7799L58.7593 104.092C58.758 104.081 58.758 104.071 58.7593 104.061ZM90.1348 67.3945H90.4226C90.474 67.3945 90.5186 67.4733 90.5563 67.6824C90.7032 67.6104 90.8554 67.8245 90.9921 68.0168C91.0117 68.0443 91.0309 68.0713 91.0497 68.097C91.1315 68.3158 91.1676 68.549 91.1559 68.7823V69.5534V69.5536C91.1559 69.8585 91.1559 70.1874 91.1936 70.458C91.2387 70.8966 91.2387 71.3387 91.1936 71.7773V72.0857C91.1936 72.3303 91.1818 72.5617 91.17 72.7937C91.1547 73.0917 91.1394 73.3909 91.1491 73.7203V75.2452V75.5502L91.1765 78.4526V79.9022C91.1765 80.2096 91.1668 80.5171 91.1571 80.8246C91.1515 81.0003 91.146 81.176 91.1422 81.3517C91.1381 81.4762 91.1345 81.6011 91.131 81.726V81.7263C91.1167 82.2233 91.1024 82.7216 91.0531 83.209C91.0427 83.4099 91.0427 83.6112 91.0531 83.8121C91.0694 84.321 91.0511 84.8305 90.9983 85.337C90.9669 85.5881 90.9578 85.8416 90.9709 86.0943C90.9845 86.3983 90.9776 86.7028 90.9503 87.0058C90.9264 87.4102 90.9024 87.8248 90.8887 88.236C90.8887 88.648 90.8709 89.0618 90.8533 89.4722V89.4723L90.8531 89.4752C90.8463 89.6339 90.8395 89.792 90.8338 89.9494L90.7482 92.9238C90.7344 93.381 90.7447 93.8385 90.779 94.2945C90.7944 94.549 90.7944 94.8042 90.779 95.0587C90.735 95.6167 90.7362 96.1924 90.7375 96.7705C90.7377 96.8669 90.7379 96.9634 90.7379 97.0599V97.5294V102.831C90.7379 103.3 90.7379 103.759 90.707 104.201C90.6895 104.447 90.6869 104.718 90.6844 104.984L90.683 105.12V107.251V107.416C90.194 107.429 89.7422 107.425 89.3078 107.42H89.3077C89.0968 107.418 88.8901 107.416 88.6852 107.416H88.3117C88.1875 107.442 88.0615 107.459 87.9348 107.467C87.5038 107.446 87.0636 107.453 86.6204 107.46C86.3977 107.464 86.1742 107.467 85.9507 107.467L82.4623 107.628C82.2331 107.64 82.0034 107.627 81.7769 107.59C81.58 107.59 81.3893 107.602 81.1974 107.614C80.9419 107.63 80.6841 107.647 80.4062 107.635H80.406C80.0052 107.635 79.7207 107.635 78.8607 107.669H78.6037L76.5066 105.192L76.4003 99.2839C76.4003 99.0035 76.3969 98.7243 76.3934 98.4467V98.4466C76.3866 97.8965 76.3798 97.353 76.4003 96.82V96.354V96.0422C76.3535 95.8715 76.3327 95.6947 76.3387 95.5179C76.3706 94.9452 76.36 94.3604 76.3494 93.7725V93.7723C76.344 93.4773 76.3387 93.1815 76.3387 92.8861C76.3387 92.7824 76.3368 92.6784 76.3349 92.5742L76.3349 92.5738C76.3311 92.3648 76.3272 92.1552 76.3387 91.9472C76.3387 91.6868 76.3387 91.4092 76.3592 91.1762C76.4008 90.6582 76.4006 90.1252 76.4004 89.5801V89.5801L76.4003 89.4628V85.385V85.3848C76.4003 84.912 76.4003 84.4528 76.438 83.9937C76.4585 83.6528 76.462 83.2814 76.4654 82.92V82.9198L76.4655 82.9143V81.2009C76.4667 80.8003 76.4884 80.4 76.5306 80.0015L76.5614 77.0374V77.0368C76.5614 76.3517 76.5614 75.6905 76.6265 75.0362C76.6439 74.8344 76.6469 74.6019 76.6498 74.3702C76.6509 74.2831 76.652 74.1961 76.6539 74.111L76.6745 72.3976V71.6231C76.7367 70.8995 76.744 70.1543 76.7513 69.4083V69.408C76.7536 69.1685 76.756 68.9289 76.7601 68.6898V68.0662V67.4391C76.7845 67.2279 76.827 67.0193 76.8869 66.8154H77.0035C77.0169 66.8692 77.0238 66.9244 77.024 66.9799C77.0583 66.9799 77.096 66.9627 77.1234 66.812H78.1994C78.2919 66.812 78.3742 66.8976 78.4427 67.2129C78.4601 67.2986 78.4682 67.3859 78.4667 67.4733L78.4187 68.7001C78.4187 68.9507 78.3949 69.1757 78.3713 69.3978C78.3627 69.4794 78.3541 69.5606 78.3467 69.6425C78.2919 70.3895 78.2611 71.1502 78.2576 71.9384C78.2576 72.144 78.2576 72.3736 78.2371 72.5552C78.185 73.0887 78.1795 73.644 78.174 74.1993V74.1993L78.172 74.3954L78.1343 77.3664V77.3666C78.1343 77.8839 78.1343 78.3945 78.0795 78.9016C78.0396 79.2703 78.0432 79.6464 78.0468 80.023V80.0231C78.0482 80.1644 78.0495 80.3059 78.0486 80.447C78.0486 81.1324 78.0486 81.7937 78.0041 82.4482C77.9881 82.6333 77.9934 82.8457 77.9987 83.0582C78.0014 83.1644 78.0041 83.2707 78.0041 83.3735V85.7311C78.0028 86.1283 77.981 86.5252 77.9389 86.9202V90.3675C77.9389 91.0939 77.9389 91.8238 77.8978 92.5332V93.4618L77.9389 95.8126C77.9389 95.9166 77.9409 96.0237 77.9428 96.1305L77.9428 96.131C77.9466 96.3442 77.9504 96.5564 77.9389 96.7412C77.9047 97.3478 77.9184 97.968 77.9389 98.5951L78.0486 104.612L79.3028 106.093H79.3645L85.2037 105.949C85.3946 105.949 85.5854 105.945 85.7762 105.941H85.7763C86.1574 105.932 86.538 105.924 86.917 105.949H87.5339L88.5927 105.928C88.7641 105.928 88.9354 105.928 89.1479 105.959H89.1753V105.586V104.074V104.074C89.1753 103.711 89.1753 103.334 89.1958 102.995C89.2233 102.532 89.2267 102.073 89.2267 101.604V97.3649C89.2267 96.9503 89.2267 96.5185 89.2472 96.1278C89.273 95.7227 89.273 95.3164 89.2472 94.9113C89.2267 94.6235 89.2232 94.2945 89.2232 93.9861C89.2347 92.6947 89.2766 91.4049 89.3185 90.1155L89.3186 90.1134C89.3395 89.4704 89.3604 88.8275 89.3775 88.1846C89.3775 87.8983 89.4011 87.6061 89.4236 87.3271L89.4237 87.3264L89.4289 87.2628C89.451 87.0099 89.4579 86.7559 89.4494 86.5021C89.4304 86.0961 89.4442 85.6893 89.4905 85.2856C89.5357 84.8818 89.5483 84.4749 89.5282 84.0691C89.5164 83.8694 89.5164 83.6691 89.5282 83.4694C89.565 83.0064 89.569 82.5515 89.573 82.0971C89.5753 81.8318 89.5776 81.5668 89.5865 81.3003L89.6208 80.2003V79.1037V79.1033C89.6208 78.795 89.6208 78.4765 89.6379 78.1819C89.6796 77.3095 89.6716 76.4354 89.6139 75.5639C89.5865 75.1561 89.5796 74.7449 89.5762 74.3268L89.5419 70.8795V70.2524C89.5174 70.1302 89.5002 70.0066 89.4905 69.8823C89.4905 69.7995 89.4883 69.7132 89.486 69.6264V69.6262C89.4814 69.4511 89.4768 69.2739 89.4905 69.1182C89.5145 68.5699 89.5317 68.025 89.5351 67.4562C89.5231 67.2467 89.5619 67.0375 89.6482 66.8462C89.7852 66.7057 89.9703 66.7606 90.1348 67.3945ZM76.4997 89.127H76.5237C76.5237 89.0996 76.5237 89.0687 76.5031 89.0379L76.4997 89.127ZM102.704 86.1903L102.862 95.8949L104.232 95.8709L104.075 86.1697L103.965 76.4652L102.594 76.4789L102.704 86.1903Z" fill="white"/>
<rect x="0.5" y="0.5" width="159" height="159" stroke="#DDDDDD"/>
</svg>
