<svg width="160" height="160" viewBox="0 0 160 160" fill="none" xmlns="http://www.w3.org/2000/svg">
<rect x="0.5" y="0.5" width="159" height="159" fill="white" fill-opacity="0.1"/>
<path fill-rule="evenodd" clip-rule="evenodd" d="M57.882 43.9524L58.163 44.0312C58.211 44.0312 58.2418 44.1168 58.235 44.2916C58.3825 44.2693 58.4758 44.4416 58.5699 44.6154C58.5916 44.6555 58.6134 44.6957 58.6359 44.7336C58.6768 44.9245 58.6686 45.1226 58.6119 45.3093L58.4783 45.9296L58.462 46.0062C58.4151 46.2274 58.3658 46.4596 58.3412 46.656C58.2953 47.0163 58.2056 47.3696 58.0739 47.7081L58.0191 47.9514C57.9758 48.1328 57.9246 48.3029 57.8735 48.4725C57.7992 48.7193 57.7251 48.965 57.6764 49.2433C57.6156 49.5445 57.5455 49.8458 57.4757 50.1457C57.4511 50.2517 57.4264 50.3576 57.4023 50.4632L57.3474 50.7099L56.2989 55.3463L56.1309 56.0933L56.0076 56.3812L55.9185 56.5765C55.8602 56.7033 55.7985 56.8335 55.7334 56.9569C55.6624 57.1067 55.6017 57.2613 55.5518 57.4195C55.4197 57.8164 55.2546 58.2015 55.0584 58.5709C54.9559 58.7511 54.8732 58.9418 54.8116 59.1397C54.7379 59.3758 54.6439 59.6052 54.5306 59.8251C54.3901 60.1266 54.2497 60.435 54.116 60.7469L53.5677 62.049L52.6254 64.3004C52.4746 64.6602 52.3444 65.0063 52.2279 65.3593C52.164 65.5586 52.0838 65.7523 51.988 65.9384C51.7992 66.293 51.637 66.6686 51.4731 67.048L51.4731 67.0481L51.4729 67.0484C51.4168 67.1785 51.3604 67.309 51.3026 67.4393L51.0731 67.9876L51.0354 68.0184L47.636 71.0751C47.3516 71.3321 47.0706 71.5823 46.7691 71.8084C46.5971 71.939 46.4103 72.1021 46.2335 72.2565L46.1934 72.2916C45.9364 72.5178 45.6793 72.7473 45.4292 72.9769C45.1866 73.1965 44.9302 73.4002 44.6616 73.5869L44.4697 73.7583C44.4087 73.8423 44.3411 73.9214 44.2675 73.9947C43.8392 74.3134 43.4348 74.68 43.027 75.0536L41.1663 76.7258L39.6243 75.3551C39.4808 75.2355 39.3541 75.0972 39.2473 74.9439C39.153 74.8621 39.0582 74.7851 38.9633 74.708C38.7723 74.5528 38.5807 74.3972 38.3906 74.2003C38.2506 74.0557 38.0778 73.9052 37.9027 73.7527L37.9026 73.7526C37.8121 73.6738 37.7209 73.5944 37.6333 73.5149L32.5343 69.0533L31.9929 68.577L31.3075 67.9636L31.1328 67.501L31.0437 67.2234C31.0114 67.12 30.9577 67.0014 30.9115 66.8992L30.9032 66.8808L30.8072 66.6409C30.7134 66.5289 30.6424 66.3997 30.5982 66.2605C30.4313 65.7134 30.2142 65.1837 29.9957 64.6506L29.9957 64.6505L29.9956 64.6505C29.9405 64.5158 29.8852 64.381 29.8306 64.2456L29.5393 63.5328L29.5226 63.4905L29.5225 63.4905C29.4486 63.3042 29.371 63.1088 29.32 62.94C29.205 62.5626 29.0546 62.1903 28.9035 61.8166L28.83 61.6344L27.5655 58.5503C27.4182 58.2076 27.2811 57.841 27.1646 57.4812C27.0888 57.2477 26.9889 56.9956 26.8909 56.7483L26.8528 56.6519L26.6026 56.0282L26.4484 55.1476C26.3818 54.8264 26.336 54.5014 26.3113 54.1743L25.8316 51.7756L25.7936 51.5893C25.6959 51.1107 25.5987 50.6344 25.5472 50.1582C25.5274 49.9714 25.4818 49.7541 25.4376 49.5432L25.4376 49.5432L25.4376 49.5432C25.4283 49.4988 25.419 49.4547 25.4101 49.4112L25.1325 48.0405C25.1215 47.9844 25.1095 47.9269 25.0974 47.869C25.0645 47.7112 25.0311 47.5513 25.016 47.4134C24.952 46.8269 24.8305 46.2365 24.7089 45.6453L24.7089 45.6453C24.6678 45.4454 24.6266 45.2454 24.5877 45.0455L24.4883 44.5452L24.3855 44.038C24.3673 43.8626 24.3673 43.6857 24.3855 43.5103L24.502 43.4897C24.525 43.5302 24.5412 43.5742 24.55 43.62L24.5526 43.6186C24.586 43.602 24.6185 43.5859 24.6185 43.4623L25.6705 43.2464C25.7631 43.2259 25.859 43.2773 25.9824 43.5206C26.0129 43.5851 26.0359 43.6529 26.0509 43.7227L26.2154 44.7165C26.2638 44.9712 26.2959 45.2287 26.3113 45.4875C26.3867 46.0975 26.4895 46.7143 26.6266 47.3483C26.6637 47.5123 26.6923 47.6782 26.7123 47.8451C26.7718 48.3473 26.8576 48.846 26.9693 49.3392L27.4524 51.7379L27.4752 51.8534C27.5501 52.2324 27.6245 52.6085 27.6649 52.9818C27.6978 53.2856 27.7625 53.595 27.8272 53.9045C27.8501 54.0139 27.873 54.1234 27.8945 54.2326C27.9116 54.3158 27.9283 54.3989 27.9449 54.4814C27.9747 54.6302 28.0041 54.7769 28.035 54.918L28.0967 55.2606C28.1152 55.3476 28.1278 55.4358 28.1344 55.5245V55.5519L28.1686 55.6616C28.2233 55.8428 28.3094 56.0531 28.3924 56.2559L28.3924 56.2559L28.3924 56.2559L28.4393 56.3709L29.1658 58.1528C29.2912 58.4551 29.3965 58.7653 29.4811 59.0815L30.5605 61.7166L30.6474 61.9292C30.8452 62.4121 31.0416 62.8915 31.191 63.3786C31.2424 63.5518 31.3237 63.7484 31.4029 63.9398L31.403 63.9401C31.4241 63.9911 31.445 64.0417 31.4652 64.0914L32.1951 65.8801L32.2401 65.9906C32.3237 66.1948 32.4107 66.4073 32.4658 66.5929L32.6131 67.0452C32.6258 67.0611 32.7004 67.1264 32.7959 67.2099L32.796 67.21C32.9064 67.3066 33.0448 67.4276 33.1477 67.525L38.6511 72.3773L41.1492 74.5773L41.4919 74.2723C41.8303 73.9539 42.1849 73.6531 42.5541 73.371C42.6775 73.2785 42.8146 73.1586 42.9414 73.0284L42.9415 73.0282L42.9415 73.0282C43.387 72.6307 43.8324 72.2333 44.3121 71.8838C44.4364 71.7898 44.5697 71.6669 44.6993 71.5473L44.6994 71.5473L44.6994 71.5473L44.6996 71.5471C44.7306 71.5185 44.7614 71.4901 44.7918 71.4623L45.8473 70.5165L45.8706 70.4961L45.8706 70.496L45.8708 70.4959L45.8709 70.4958L45.871 70.4957C46.0865 70.3067 46.3112 70.1097 46.5326 69.9477C46.8342 69.7147 47.1186 69.4645 47.4064 69.2075L49.8052 67.0555L49.8394 66.9836L50.0176 66.5586C50.0861 66.4044 50.1581 66.2502 50.2301 66.1063C50.3821 65.8097 50.5105 65.5014 50.6139 65.1845C50.6858 64.9583 50.7886 64.7116 50.888 64.4752L52.7247 60.0821C52.8241 59.849 52.9338 59.6126 53.04 59.3967C53.135 59.2115 53.2153 59.019 53.2799 58.821C53.3801 58.5025 53.5121 58.1948 53.674 57.9027C53.8299 57.6078 53.9583 57.2992 54.0578 56.9809C54.1034 56.822 54.1594 56.6663 54.2257 56.5148C54.3011 56.3572 54.373 56.1961 54.4416 56.0351L54.6163 55.5896L54.6814 55.2743L54.7568 54.9145L55.1577 53.1566C55.216 52.9099 55.2777 52.6563 55.3496 52.4233C55.5559 51.7361 55.7139 51.0353 55.8225 50.3261C55.8731 49.9889 55.9436 49.675 56.0177 49.3451L56.0213 49.3289L56.6484 46.567L56.758 46.0667C56.758 45.9639 56.758 45.8679 56.7786 45.7582C56.8163 45.5561 56.8608 45.3333 56.9157 45.1449C57.0459 44.7165 57.1658 44.2813 57.2755 43.829C57.3049 43.6556 57.3847 43.4946 57.5051 43.3664C57.6764 43.3218 57.8443 43.4075 57.882 43.9524ZM28.8471 61.2917H28.8711C28.8562 61.2715 28.8401 61.252 28.8231 61.2335L28.8471 61.2917ZM39.5112 79.6729H39.8025C39.8505 79.6729 39.8985 79.6969 39.9362 79.7825C40.0796 79.7445 40.2281 79.819 40.3667 79.8885C40.3902 79.9004 40.4135 79.9121 40.4365 79.923C40.4947 79.9504 40.5393 80.0601 40.5564 80.1972L40.5804 80.5124C40.5892 80.6359 40.6076 80.7584 40.6352 80.8791C40.678 81.057 40.678 81.2426 40.6352 81.4205V81.5439C40.6352 81.6324 40.6291 81.7173 40.623 81.8026C40.6132 81.9386 40.6033 82.0755 40.6181 82.2292C40.634 82.3954 40.6409 82.5237 40.6477 82.6514C40.6511 82.716 40.6546 82.7804 40.6592 82.8495V82.9763L40.81 85.3441C40.8379 85.5967 40.8436 85.8513 40.8271 86.1049C40.823 86.188 40.8323 86.2714 40.8545 86.3516C40.8977 86.5566 40.907 86.7673 40.8819 86.9753C40.8597 87.078 40.8597 87.1843 40.8819 87.2871C40.8971 87.3503 40.9072 87.4144 40.9121 87.479H41.6735C41.8384 87.4657 42.0044 87.4749 42.1669 87.5064C42.2254 87.5194 42.2852 87.5251 42.3451 87.5235C42.5539 87.5115 42.7634 87.5253 42.9688 87.5647C43.044 87.5716 43.1197 87.5716 43.195 87.5647H43.6918C43.7961 87.5615 43.9004 87.5673 44.0037 87.5818C44.1372 87.6047 44.2727 87.6139 44.408 87.6092L45.6382 87.6778C45.7523 87.6684 45.8669 87.6684 45.9809 87.6778C46.0938 87.7024 46.2107 87.7024 46.3236 87.6778C46.4114 87.6593 46.5011 87.6512 46.5909 87.6538L48.27 87.6195C48.3595 87.6195 48.4488 87.6264 48.5373 87.6401C48.6094 87.6571 48.6845 87.6571 48.7566 87.6401C48.8685 87.6079 48.9873 87.6079 49.0992 87.6401C49.2113 87.6713 49.3298 87.6713 49.4419 87.6401C49.4982 87.6212 49.5573 87.612 49.6167 87.6126C49.8254 87.6281 50.035 87.6281 50.2438 87.6126H50.8777C50.9666 87.6039 51.0561 87.6039 51.145 87.6126C51.3948 87.6641 51.6525 87.6641 51.9023 87.6126C52.0208 87.5894 52.1414 87.5779 52.2621 87.5784L53.2593 87.5612H53.4409C53.4734 87.5393 53.5093 87.5231 53.5472 87.5133C53.6209 87.5011 53.6962 87.5011 53.7699 87.5133C53.9283 87.5426 54.0887 87.5598 54.2497 87.5647C54.2873 87.5656 54.3239 87.577 54.3553 87.5976C54.3868 87.6181 54.4119 87.6471 54.4278 87.6812C54.451 87.7658 54.4522 87.8549 54.4312 87.9401C54.4102 88.0253 54.3678 88.1036 54.3079 88.1678V88.4556C54.3084 88.483 54.3008 88.5099 54.2862 88.533C54.2716 88.5561 54.2506 88.5745 54.2257 88.5859C54.2302 88.7557 54.1925 88.9241 54.116 89.0759C54.0956 89.1099 54.0663 89.1378 54.0313 89.1565C53.9963 89.1752 53.9569 89.184 53.9173 89.1821H53.6945C53.6069 89.1859 53.5197 89.1973 53.4341 89.2164C53.3075 89.2531 53.1722 89.2459 53.0503 89.1958H52.9612C52.8047 89.1698 52.6468 89.1527 52.4883 89.1444H52.0463H51.9572L50.2815 89.1752C50.1018 89.1896 49.9211 89.1815 49.7435 89.1513C49.6858 89.1396 49.6264 89.1396 49.5687 89.1513C49.4234 89.1855 49.272 89.1855 49.1267 89.1513C49.0552 89.1291 48.9788 89.1291 48.9073 89.1513C48.8206 89.1718 48.7302 89.1718 48.6435 89.1513C48.5839 89.1513 48.5234 89.1459 48.4643 89.1406C48.4079 89.1356 48.3527 89.1307 48.3008 89.1307H47.8005H46.9404C46.8063 89.1322 46.6729 89.1495 46.5429 89.1821C46.4696 89.1992 46.3934 89.1992 46.3201 89.1821C46.1295 89.1449 45.9347 89.1334 45.741 89.1478H45.604L44.0653 89.1752C43.9312 89.1827 43.7967 89.1746 43.6644 89.1513C43.5772 89.1373 43.4889 89.1305 43.4006 89.1307H43.0373C42.9207 89.1336 42.8045 89.115 42.6946 89.0759H42.5884C42.5694 89.0759 42.5477 89.0881 42.5278 89.0994C42.5084 89.1104 42.4906 89.1204 42.4788 89.117C42.2888 89.0838 42.0954 89.0746 41.9031 89.0896H40.9694L41.0327 90.0662C41.0412 90.2556 41.0676 90.4438 41.1115 90.6282C41.1353 90.7303 41.1423 90.8357 41.1321 90.94C41.1081 91.2137 41.1081 91.4888 41.1321 91.7624V91.9543L41.3308 94.1269C41.3462 94.3162 41.3462 94.5064 41.3308 94.6957C41.3207 94.8223 41.3207 94.9495 41.3308 95.0761C41.3308 95.2272 41.3503 95.3838 41.3691 95.536L41.3691 95.536L41.3754 95.5867C41.3963 95.7494 41.3963 95.9141 41.3754 96.0767V96.207C41.3754 96.2341 41.3917 96.2652 41.4065 96.2934C41.4198 96.3186 41.4318 96.3416 41.4302 96.3577C41.4149 96.63 41.4253 96.903 41.4611 97.1733L41.5913 98.6297C41.6054 98.7233 41.5948 98.819 41.5604 98.9072C41.596 99.0937 41.6154 99.2828 41.6187 99.4726C41.6181 99.6424 41.6307 99.812 41.6564 99.9798L41.9648 103.365C42.0092 103.706 42.0184 104.051 41.9922 104.393C41.9853 104.457 41.9853 104.522 41.9922 104.585V104.712C42.034 104.776 42.0533 104.852 42.047 104.928C42.0161 105.287 42.0161 105.648 42.047 106.007V106.395C42.0558 106.501 42.0558 106.607 42.047 106.713C42.0272 106.941 42.0272 107.171 42.047 107.399L42.0984 109.071C42.1139 109.261 42.1139 109.453 42.0984 109.643C42.0881 109.792 42.0881 109.94 42.0984 110.089C42.0984 110.317 42.1053 110.554 42.119 110.798C42.1227 110.964 42.1066 111.13 42.071 111.292L42.1087 112.508C42.1328 112.782 42.1328 113.057 42.1087 113.33C42.0984 113.457 42.0984 113.584 42.1087 113.711V114.417C42.1172 114.523 42.1172 114.629 42.1087 114.735C42.0744 115.137 42.0744 115.54 42.1087 115.942V116.195V116.452C42.0869 116.545 42.0486 116.633 41.9956 116.713H41.8791C41.8636 116.693 41.8551 116.669 41.8551 116.644C41.8335 116.644 41.8124 116.651 41.7951 116.664C41.7778 116.677 41.7652 116.695 41.7592 116.716L40.6832 116.75C40.6299 116.753 40.5772 116.739 40.532 116.711C40.4867 116.683 40.451 116.642 40.4296 116.593C40.4118 116.561 40.4023 116.526 40.4022 116.49V115.986C40.4036 115.856 40.4197 115.726 40.4502 115.599C40.4892 115.286 40.5007 114.971 40.4844 114.657C40.4757 114.572 40.4757 114.487 40.4844 114.403C40.5153 114.153 40.5222 113.9 40.505 113.649L40.4673 112.433C40.4535 112.222 40.4604 112.011 40.4879 111.802C40.5067 111.591 40.5067 111.379 40.4879 111.168C40.4724 110.894 40.4792 110.619 40.5084 110.346C40.5188 110.22 40.5188 110.094 40.5084 109.969L40.481 109.009C40.4759 108.844 40.4909 108.678 40.5256 108.516L40.4844 107.104C40.457 106.809 40.457 106.512 40.4844 106.216C40.4948 106.09 40.4948 105.963 40.4844 105.836L40.457 104.873C40.4467 104.745 40.4467 104.617 40.457 104.489C40.4878 104.238 40.4878 103.984 40.457 103.732L40.1143 100.083L39.8882 97.5845C39.8587 97.3573 39.8506 97.1278 39.8642 96.8991C39.8727 96.816 39.8727 96.7322 39.8642 96.649C39.8295 96.3545 39.8203 96.0576 39.8368 95.7615C39.8382 95.6549 39.8313 95.5483 39.8162 95.4428L39.7545 94.7574C39.7462 94.6102 39.7462 94.4626 39.7545 94.3154C39.7614 94.1244 39.7545 93.9331 39.734 93.7431L39.5798 92.0297C39.5678 91.8598 39.5678 91.6891 39.5798 91.5192C39.5926 91.3527 39.5811 91.1853 39.5455 91.0223C39.5199 90.8981 39.505 90.772 39.501 90.6453L39.3963 89.0313H37.5374C37.2983 89.0412 37.0589 89.0216 36.8246 88.9731C36.7801 88.9695 36.7354 88.9695 36.691 88.9731H36.5985C36.5792 88.9928 36.5554 89.0076 36.5291 89.0159C36.5028 89.0243 36.4748 89.026 36.4477 89.021C36.1969 88.9746 35.9416 88.9574 35.6869 88.9696H35.4162C35.3414 88.9735 35.2664 88.9666 35.1935 88.9491C35.0312 88.9159 34.8654 88.9032 34.7 88.9114H33.5212C33.3856 88.9154 33.2499 88.904 33.1169 88.8771C33.0139 88.859 32.9096 88.8499 32.805 88.8497H32.291C32.1741 88.8488 32.0582 88.8279 31.9483 88.788H31.0848C30.8905 88.796 30.696 88.7799 30.5057 88.74C30.4169 88.7295 30.3272 88.7295 30.2384 88.74H29.7415C29.6675 88.7488 29.5928 88.7488 29.5188 88.74C29.2385 88.6892 28.9534 88.6708 28.6689 88.6852H28.3057C28.2387 88.658 28.178 88.6171 28.1275 88.5653V88.4453C28.1402 88.4324 28.1574 88.425 28.1755 88.4248C28.177 88.4055 28.1733 88.3861 28.1649 88.3686C28.1565 88.3512 28.1436 88.3363 28.1275 88.3254V87.2528C28.1247 87.2048 28.1339 87.1567 28.1543 87.1131C28.1746 87.0694 28.2054 87.0315 28.244 87.0027C28.266 86.9866 28.2922 86.9771 28.3194 86.9753L28.6621 87.013C28.7549 87.0174 28.8464 87.0371 28.9328 87.0712C29.1508 87.1205 29.3741 87.1424 29.5976 87.1363C29.6568 87.1291 29.7166 87.1291 29.7758 87.1363C29.951 87.1763 30.1308 87.1925 30.3104 87.1843H31.167C31.3165 87.1778 31.4662 87.1905 31.6125 87.222C31.7605 87.2489 31.9114 87.257 32.0614 87.246C32.2555 87.2386 32.4498 87.2536 32.6405 87.2905C32.7284 87.3086 32.8184 87.3144 32.9078 87.3077H33.5932C33.7101 87.3086 33.826 87.3294 33.9359 87.3693H34.933C35.1433 87.3595 35.3539 87.3756 35.5601 87.4173C35.6501 87.4279 35.7409 87.4279 35.8309 87.4173H36.5162C36.6058 87.4152 36.6953 87.4221 36.7835 87.4379C36.9604 87.4738 37.1412 87.4876 37.3215 87.479H39.3032C39.2821 87.3465 39.2806 87.2114 39.2988 87.0781C39.321 86.9109 39.3105 86.741 39.2679 86.5778C39.2427 86.4991 39.2288 86.4171 39.2268 86.3345C39.2207 86.0377 39.199 85.7414 39.1617 85.4469L39.1069 84.5457C39.1 84.419 39.1 84.292 39.1069 84.1653C39.135 83.8065 39.1131 83.4455 39.0418 83.0928C39.0085 82.9268 38.989 82.7583 38.9835 82.589L38.891 81.1738V80.9168C38.8659 80.8701 38.8464 80.8206 38.8327 80.7694C38.8158 80.6653 38.8089 80.5597 38.8122 80.4542C38.8122 80.379 38.8148 80.3043 38.8175 80.2293C38.8228 80.0785 38.8282 79.9267 38.8122 79.7688C38.8122 79.6523 38.8636 79.5255 38.915 79.5084C38.9647 79.4793 39.0198 79.4604 39.077 79.4529C39.1341 79.4455 39.1922 79.4495 39.2478 79.4648C39.3034 79.4802 39.3553 79.5065 39.4006 79.5422C39.4458 79.5779 39.4834 79.6224 39.5112 79.6729ZM41.9853 107.543H41.9648C41.9704 107.556 41.9785 107.567 41.9888 107.577L41.9853 107.543ZM34.5801 88.8463V88.8668H34.5561L34.5801 88.8463ZM134.929 116.096H134.638C134.59 116.096 134.545 116.048 134.508 115.918C134.359 115.966 134.205 115.83 134.068 115.707C134.049 115.691 134.032 115.676 134.014 115.661C133.931 115.533 133.892 115.381 133.905 115.229L133.887 114.746V114.745C133.887 114.554 133.887 114.345 133.85 114.177C133.807 113.901 133.807 113.62 133.85 113.344V113.152C133.85 113.001 133.86 112.855 133.871 112.708C133.885 112.52 133.899 112.329 133.891 112.124C133.885 111.962 133.884 111.818 133.883 111.68V111.68C133.883 111.506 133.882 111.342 133.87 111.165V110.98L133.798 107.33C133.776 106.941 133.776 106.551 133.798 106.162C133.803 106.034 133.796 105.907 133.778 105.781C133.778 105.713 133.771 105.646 133.764 105.579L133.764 105.579C133.758 105.521 133.752 105.463 133.75 105.404V105.086V104.921C133.759 104.761 133.745 104.601 133.709 104.445C133.666 104.257 133.642 104.065 133.637 103.872C133.637 103.643 133.615 103.405 133.593 103.172L133.586 103.098L133.473 102.015L133.281 100.148C133.251 99.8588 133.206 99.5718 133.147 99.2875C133.114 99.1297 133.096 98.969 133.092 98.8077C133.091 98.386 133.062 97.9648 133.007 97.5467L132.976 97.252L132.633 93.9178C132.604 93.6286 132.595 93.3378 132.606 93.0474C132.616 92.8545 132.616 92.6612 132.606 92.4682C132.606 92.2385 132.587 92.0061 132.569 91.7757L132.569 91.7756V91.7754V91.7753L132.561 91.6835C132.54 91.4327 132.54 91.1805 132.561 90.9296V90.7309C132.534 90.6555 132.516 90.5773 132.506 90.4979C132.519 90.0806 132.507 89.663 132.472 89.2471L132.339 87.0129C132.325 86.8692 132.337 86.7242 132.373 86.5845C132.334 86.296 132.314 86.0053 132.311 85.7141C132.311 85.5504 132.299 85.3614 132.288 85.1731L132.288 85.1728L132.287 85.1724L132.287 85.172C132.282 85.0926 132.278 85.0134 132.273 84.9362L132.116 82.3353C132.016 81.4752 131.897 80.622 131.773 79.7584C131.695 79.2488 131.647 78.735 131.629 78.2198C131.629 78.1535 131.618 78.0796 131.606 78.0051L131.606 78.005C131.602 77.9795 131.598 77.9539 131.595 77.9285L131.571 77.7332C131.516 77.6344 131.484 77.5242 131.478 77.4111C131.456 76.8612 131.401 76.3132 131.314 75.7697L131.239 75.1837L131.232 75.1228L131.228 75.09C131.213 74.9551 131.197 74.8143 131.197 74.7005C131.184 74.3448 131.151 73.9902 131.098 73.6383L130.755 71.099L130.721 70.842V70.633V70.4651V70.4649C130.721 70.3553 130.721 70.2491 130.738 70.1224C130.752 69.979 130.747 69.8264 130.743 69.6719C130.741 69.5938 130.738 69.5152 130.738 69.4371V68.3546C130.691 68.3429 130.644 68.3312 130.594 68.3199L130.505 68.2993L128.792 67.9018C128.607 67.8686 128.427 67.8158 128.254 67.7442C128.197 67.7232 128.137 67.7127 128.076 67.7134C127.92 67.7101 127.768 67.6702 127.63 67.5969C127.564 67.5578 127.488 67.5376 127.411 67.5386C127.318 67.54 127.226 67.5225 127.14 67.4872C127.028 67.4429 126.914 67.4051 126.798 67.3741C126.706 67.3494 126.611 67.3278 126.516 67.3065C126.441 67.2894 126.365 67.2725 126.294 67.2542L125.423 67.052C125.288 67.0169 125.149 66.9985 125.009 66.9972C124.932 66.9975 124.856 66.9811 124.786 66.9492C124.601 66.8646 124.407 66.8036 124.207 66.7676L124.07 66.7333L122.514 66.3701C122.376 66.3435 122.241 66.3009 122.113 66.2433C122.028 66.2066 121.94 66.1779 121.849 66.1576C121.729 66.1234 121.606 66.0925 121.483 66.0685C121.361 66.0428 121.245 65.9952 121.14 65.928L121.047 65.9075C121.035 65.9075 121.02 65.9104 121.006 65.9135C120.975 65.9196 120.945 65.9258 120.931 65.9075C120.747 65.8253 120.554 65.7666 120.355 65.7327C120.013 65.6505 119.67 65.5682 119.31 65.4997C119.24 65.4877 119.175 65.4542 119.125 65.4037C118.985 65.395 118.847 65.3697 118.714 65.3284C118.596 65.2874 118.474 65.2598 118.351 65.2461L115.907 64.7492C115.662 64.7122 115.423 64.6443 115.195 64.547C115.15 64.5332 115.104 64.5228 115.057 64.5162L114.965 64.4956C114.94 64.5111 114.912 64.5207 114.883 64.5237C114.854 64.5266 114.824 64.5229 114.797 64.5128C114.551 64.4143 114.295 64.3453 114.033 64.3072L113.755 64.2489C113.679 64.235 113.604 64.2132 113.533 64.1838C113.375 64.1159 113.209 64.0687 113.039 64.0433L111.836 63.8C111.698 63.7773 111.563 63.7406 111.432 63.6904C111.33 63.6514 111.224 63.6216 111.117 63.6013C110.949 63.5636 110.774 63.5293 110.61 63.4985C110.488 63.4741 110.373 63.4289 110.267 63.3648L109.39 63.1866C109.189 63.1588 108.993 63.1046 108.807 63.0256C108.721 62.9919 108.631 62.9678 108.54 62.9536L108.033 62.8508C107.956 62.8406 107.88 62.8222 107.806 62.796C107.666 62.7422 107.523 62.6962 107.378 62.6581V62.8577V63.0291V63.1524C107.356 63.3334 107.356 63.5164 107.378 63.6973C107.397 63.9162 107.397 64.1363 107.378 64.3552C107.361 64.6465 107.354 64.9446 107.351 65.2428V68.6284C107.351 68.971 107.351 69.3137 107.392 69.6221C107.409 69.8045 107.409 69.9881 107.392 70.1704C107.351 70.6513 107.336 71.134 107.347 71.6165V75.78V75.7807C107.347 76.1231 107.347 76.4656 107.323 76.7806V77.442V78.3432C107.329 78.6307 107.313 78.9183 107.275 79.2034V79.4329C107.296 79.522 107.311 79.6125 107.32 79.7036C107.286 80.1803 107.278 80.6585 107.296 81.136L107.33 83.7061C107.337 83.8701 107.318 84.0342 107.275 84.1927C107.301 84.5244 107.309 84.8573 107.299 85.1899C107.283 85.3676 107.289 85.5711 107.294 85.7762V85.7763V85.7764V85.7764V85.7765V85.7766C107.297 85.8798 107.299 85.9834 107.299 86.0843L107.337 89.0724L107.265 92.0571L107.262 92.1511C107.246 92.7221 107.23 93.2864 107.162 93.8322V94.1748V94.401C107.204 94.5231 107.218 94.6531 107.203 94.7814C107.137 95.3034 107.124 95.8426 107.111 96.3824L107.109 96.4809C107.107 96.5461 107.106 96.6112 107.104 96.6764V97.3617C107.104 97.5502 107.104 97.7489 107.07 97.9168C107.023 98.3241 106.999 98.7337 106.998 99.1436L106.922 102.084V102.279L106.946 102.622C106.946 102.749 106.946 102.875 106.964 103.002C106.964 103.223 106.986 103.467 107.008 103.706L107.015 103.777L107.142 105.014C107.171 105.301 107.18 105.589 107.169 105.877L107.385 108.005L107.402 108.174C107.445 108.6 107.488 109.024 107.488 109.444C107.488 109.596 107.506 109.773 107.523 109.948L107.523 109.948L107.53 110.014C107.533 110.046 107.536 110.078 107.539 110.109L107.663 111.322C107.688 111.506 107.704 111.692 107.711 111.877C107.711 112.411 107.769 112.964 107.827 113.515C107.843 113.672 107.86 113.829 107.875 113.985L107.92 114.434L107.964 114.883C107.959 115.039 107.935 115.195 107.892 115.345H107.776C107.756 115.309 107.744 115.27 107.741 115.229C107.707 115.229 107.673 115.249 107.656 115.362L106.587 115.472C106.494 115.472 106.405 115.428 106.309 115.208C106.286 115.15 106.271 115.089 106.264 115.027L106.21 114.143C106.193 113.914 106.193 113.685 106.21 113.457C106.203 112.904 106.167 112.352 106.103 111.802C106.083 111.654 106.073 111.506 106.073 111.357C106.067 110.913 106.036 110.47 105.98 110.03L105.764 107.899C105.72 107.532 105.696 107.162 105.692 106.792C105.692 106.548 105.663 106.275 105.633 106.005L105.633 106.004L105.633 106.003C105.621 105.895 105.609 105.787 105.6 105.682C105.54 105.203 105.506 104.722 105.497 104.239C105.497 104.069 105.475 103.872 105.454 103.68L105.454 103.68V103.68L105.442 103.574L105.319 102.313V101.779C105.327 101.492 105.354 101.206 105.401 100.922L105.466 98.4377C105.467 97.9168 105.495 97.3964 105.552 96.8785C105.572 96.729 105.575 96.5523 105.579 96.3718V96.3715C105.58 96.3122 105.581 96.2525 105.583 96.1932L105.607 94.5312C105.607 94.3085 105.607 94.0652 105.641 93.8459C105.688 93.4031 105.714 92.9582 105.716 92.5128L105.802 89.2917L105.764 86.074L105.706 81.6638C105.69 81.2559 105.698 80.8474 105.73 80.4404C105.739 80.2932 105.739 80.1456 105.73 79.9984C105.73 79.4706 105.73 78.9498 105.764 78.4426V77.8806V76.6367V75.8588C105.792 75.5162 105.798 75.1975 105.798 74.8582V71.8015C105.798 71.5034 105.798 71.1916 105.822 70.9106C105.848 70.6187 105.848 70.3252 105.822 70.0334C105.802 69.8243 105.798 69.5913 105.798 69.348V65.1811C105.798 64.9583 105.798 64.7322 105.822 64.5163C105.84 64.3339 105.84 64.1504 105.822 63.968C105.79 63.6753 105.79 63.38 105.822 63.0873V62.9091C105.815 62.6894 105.791 62.4706 105.75 62.2546C105.719 62.1125 105.698 61.9682 105.689 61.8228C105.689 61.4978 105.652 61.1832 105.616 60.8654C105.593 60.6672 105.57 60.4677 105.555 60.2637L105.425 58.6874C105.408 58.4646 105.397 58.235 105.394 58.0192C105.393 57.389 105.341 56.7599 105.24 56.1379C105.192 55.8432 105.164 55.5485 105.14 55.2503L104.935 52.7694L104.897 52.3205C104.867 52.2345 104.844 52.1463 104.829 52.0566C104.801 51.8739 104.785 51.6896 104.781 51.5049C104.781 51.1108 104.781 50.7167 104.743 50.3055C104.721 50.1521 104.75 49.9957 104.825 49.8601C105.022 49.7734 105.184 49.7768 105.347 50.0466L105.61 49.0959C105.621 49.0477 105.643 49.0031 105.677 48.9665C105.71 48.9298 105.752 48.9024 105.798 48.8869C105.828 48.88 105.858 48.88 105.888 48.8869L106.254 49.024C106.351 49.0571 106.444 49.1032 106.528 49.161C106.747 49.2718 106.976 49.358 107.214 49.418C107.278 49.4299 107.341 49.4518 107.399 49.4832C107.575 49.572 107.761 49.6387 107.954 49.6819L108.865 49.9355C109.026 49.9718 109.181 50.0282 109.328 50.1034C109.481 50.1685 109.639 50.2189 109.801 50.2542C110.009 50.3023 110.212 50.3735 110.404 50.4666C110.494 50.5077 110.588 50.5387 110.685 50.5592L111.405 50.7579C111.526 50.794 111.642 50.8483 111.747 50.919L112.806 51.2103C113.032 51.2614 113.252 51.3384 113.461 51.4398C113.551 51.4804 113.645 51.5114 113.742 51.5324L114.465 51.7345C114.561 51.7566 114.655 51.7876 114.746 51.8271C114.923 51.9156 115.111 51.9823 115.304 52.0258L118.046 52.7866L119.927 53.304C120.104 53.3417 120.276 53.4028 120.438 53.4856C120.497 53.5152 120.559 53.5381 120.623 53.5541C120.847 53.608 121.065 53.6849 121.274 53.7838C121.349 53.8175 121.429 53.8428 121.51 53.8591L122.038 54.0065C122.155 54.0333 122.27 54.0712 122.38 54.1196C122.515 54.1844 122.656 54.2338 122.802 54.2669L124.104 54.6096C124.232 54.6414 124.356 54.6826 124.478 54.7329C124.595 54.7906 124.721 54.8255 124.851 54.8357C124.95 54.8444 125.047 54.8627 125.142 54.8906L126.928 55.3772C127.022 55.4043 127.113 55.4386 127.202 55.48C127.276 55.5152 127.356 55.5361 127.438 55.5417C127.57 55.547 127.698 55.5846 127.812 55.6513C127.926 55.7153 128.055 55.7495 128.185 55.7507C128.25 55.7493 128.315 55.7585 128.377 55.7781C128.595 55.8527 128.819 55.9112 129.046 55.9529L129.731 56.1413C129.826 56.1667 129.919 56.1999 130.008 56.2407C130.261 56.3625 130.534 56.4368 130.814 56.46C130.945 56.4757 131.074 56.5021 131.201 56.5389L132.263 56.8301L132.455 56.8815C132.497 56.8746 132.54 56.8746 132.582 56.8815C132.663 56.8932 132.742 56.9138 132.818 56.9432C132.978 57.0206 133.143 57.087 133.312 57.142C133.398 57.1694 133.473 57.255 133.469 57.3099C133.465 57.4096 133.431 57.5056 133.37 57.5847C133.309 57.6639 133.225 57.7223 133.13 57.7519L133.051 58.0295C133.042 58.0561 133.026 58.0796 133.004 58.0972C132.982 58.1148 132.956 58.1258 132.928 58.1289C132.883 58.2955 132.795 58.447 132.671 58.5675C132.638 58.5936 132.598 58.6108 132.556 58.6174C132.514 58.624 132.471 58.6198 132.431 58.6052L132.191 58.5469C132.098 58.5248 132.003 58.5088 131.907 58.4989C131.763 58.496 131.624 58.4481 131.509 58.3619L131.413 58.3345C131.34 58.3119 131.272 58.2793 131.204 58.2464C131.118 58.2046 131.03 58.1622 130.927 58.1391C130.781 58.1068 130.672 58.0745 130.557 58.0404C130.525 58.0312 130.494 58.0219 130.461 58.0124L130.365 57.9884L128.583 57.5018C128.389 57.4618 128.2 57.3985 128.021 57.3133C127.961 57.2896 127.897 57.2768 127.832 57.2756C127.669 57.263 127.51 57.215 127.366 57.1351C127.296 57.0924 127.216 57.0687 127.133 57.0666C127.036 57.0625 126.941 57.0392 126.852 56.998C126.729 56.9501 126.606 56.9055 126.479 56.8678L125.951 56.7239L125.036 56.4737C124.895 56.4321 124.749 56.4068 124.601 56.3983C124.519 56.3941 124.438 56.3731 124.365 56.3367C124.173 56.2421 123.97 56.1708 123.761 56.1242L123.614 56.0865L121.983 55.641C121.839 55.6058 121.699 55.5552 121.565 55.4903C121.476 55.449 121.383 55.4157 121.287 55.3909L121.286 55.3906C121.16 55.353 121.033 55.3154 120.904 55.2846C120.782 55.2511 120.666 55.1979 120.561 55.127L120.465 55.0996C120.45 55.0996 120.433 55.1024 120.417 55.1051C120.385 55.1104 120.354 55.1155 120.338 55.0996C120.147 55.0072 119.946 54.9382 119.738 54.894L118.642 54.5925C118.568 54.5742 118.501 54.5335 118.45 54.4759C118.305 54.458 118.162 54.4223 118.025 54.3697C117.902 54.3192 117.775 54.2802 117.645 54.2532L115.102 53.5679C114.845 53.5095 114.596 53.4221 114.358 53.3074C114.313 53.288 114.266 53.2731 114.218 53.2629L114.122 53.2355C114.095 53.2483 114.065 53.255 114.035 53.255C114.004 53.255 113.975 53.2483 113.947 53.2355C113.693 53.1159 113.427 53.0251 113.152 52.9648L112.864 52.8825C112.786 52.8619 112.709 52.8344 112.635 52.8003C112.472 52.719 112.299 52.658 112.121 52.6186L110.87 52.276C110.727 52.2381 110.587 52.1876 110.452 52.1252C110.346 52.0787 110.238 52.0398 110.126 52.0087L110.056 51.9878C109.906 51.9435 109.758 51.8998 109.595 51.8613C109.473 51.8267 109.357 51.7723 109.253 51.7003L108.341 51.4501C108.133 51.4026 107.93 51.3313 107.738 51.2377C107.648 51.1966 107.554 51.1656 107.457 51.1451L106.929 50.9978C106.849 50.9789 106.77 50.9537 106.693 50.9224C106.616 50.8875 106.538 50.8547 106.46 50.8242C106.505 50.9341 106.529 51.0525 106.528 51.1725L106.58 51.7242C106.584 51.7666 106.589 51.8096 106.593 51.8528L106.593 51.853L106.593 51.8531L106.593 51.8534C106.612 52.0337 106.632 52.2172 106.662 52.3719C106.722 52.6844 106.74 53.0038 106.713 53.3211V53.5404C106.726 53.7291 106.727 53.9088 106.728 54.0897V54.0899C106.729 54.2932 106.729 54.498 106.748 54.7192C106.773 54.963 106.792 55.2083 106.811 55.4542C106.821 55.5746 106.83 55.6952 106.84 55.8158L106.857 56.0316L107.2 60.1951C107.207 60.2847 107.214 60.3742 107.222 60.4636L107.222 60.4651L107.222 60.4666C107.235 60.6274 107.248 60.788 107.258 60.9481L107.272 60.9524C107.366 60.976 107.456 61.0142 107.539 61.0655C107.754 61.1568 107.978 61.2234 108.207 61.2642C108.269 61.2724 108.329 61.2897 108.386 61.3156C108.557 61.3917 108.738 61.4436 108.924 61.4698L109.801 61.648C109.954 61.672 110.104 61.7158 110.246 61.7782C110.393 61.8319 110.544 61.8698 110.699 61.8913C110.9 61.9224 111.096 61.9764 111.285 62.0524C111.371 62.088 111.462 62.1122 111.555 62.1243L112.241 62.2648C112.361 62.2895 112.477 62.3335 112.583 62.395L113.611 62.6041C113.828 62.6365 114.04 62.6952 114.242 62.7788C114.329 62.8117 114.42 62.8347 114.513 62.8474L115.198 62.9913C115.291 63.0055 115.381 63.0296 115.469 63.0633C115.641 63.1358 115.822 63.1864 116.007 63.214L118.652 63.752C118.854 63.7947 119.057 63.8351 119.26 63.8755C119.659 63.9551 120.059 64.0347 120.455 64.1324C120.624 64.1608 120.789 64.2127 120.945 64.2866C121.001 64.3136 121.061 64.3332 121.123 64.3449C121.338 64.3873 121.547 64.4552 121.747 64.547C121.82 64.5737 121.896 64.5943 121.973 64.6087L122.48 64.7287C122.586 64.752 122.689 64.7852 122.788 64.828C122.919 64.8826 123.054 64.925 123.193 64.9548L124.433 65.2461C124.556 65.2701 124.677 65.3057 124.793 65.3523C124.9 65.4042 125.017 65.4323 125.136 65.4346C125.229 65.4396 125.322 65.4545 125.413 65.4791L127.127 65.8766C127.217 65.898 127.305 65.9267 127.39 65.9623C127.461 65.9959 127.538 66.0134 127.617 66.0137C127.737 66.0139 127.855 66.0458 127.959 66.1062C128.065 66.1606 128.183 66.1888 128.302 66.1885C128.362 66.1763 128.424 66.1763 128.484 66.1885C128.694 66.2503 128.908 66.2973 129.124 66.329L129.769 66.4832C129.859 66.5045 129.947 66.5332 130.032 66.5688C130.269 66.6736 130.522 66.7347 130.78 66.7494L130.769 65.7327C130.752 65.3122 130.762 64.8911 130.797 64.4717C130.808 64.3553 130.804 64.2222 130.8 64.0885C130.798 64.0215 130.797 63.9544 130.797 63.8891V62.8063V62.3197C130.839 61.705 130.85 61.0884 130.827 60.4727V60.0786V59.6811C130.85 59.5443 130.889 59.4108 130.944 59.2836H131.06C131.077 59.3151 131.084 59.3508 131.081 59.3864C131.119 59.3864 131.153 59.3864 131.18 59.2801H132.256C132.349 59.2801 132.435 59.3281 132.506 59.5269C132.526 59.5795 132.537 59.6352 132.537 59.6914L132.51 60.4658C132.508 60.6644 132.491 60.8626 132.459 61.0586C132.416 61.5406 132.401 62.0245 132.414 62.5081C132.423 62.6371 132.423 62.7664 132.414 62.8954C132.378 63.2815 132.368 63.6696 132.383 64.057L132.404 65.9281C132.415 66.2516 132.406 66.5755 132.376 66.8978C132.373 66.9595 132.37 67.0212 132.368 67.083L132.383 67.0863C132.422 67.0745 132.462 67.0675 132.503 67.0657C132.58 67.0722 132.657 67.0896 132.729 67.1171C132.883 67.1851 133.041 67.2434 133.202 67.2919C133.284 67.3124 133.356 67.3947 133.353 67.4495C133.363 67.5433 133.347 67.6381 133.306 67.723C133.264 67.8079 133.2 67.8794 133.12 67.9292L133.048 68.2102C133.041 68.2367 133.027 68.2606 133.007 68.2789C132.987 68.2972 132.962 68.3091 132.935 68.313C132.897 68.4803 132.817 68.6349 132.702 68.7619C132.672 68.7895 132.635 68.8088 132.596 68.8178C132.556 68.8268 132.515 68.8253 132.476 68.8134L132.367 68.792C132.362 68.9066 132.354 69.0211 132.345 69.1355C132.335 69.3295 132.335 69.524 132.345 69.718V70.7152L132.397 71.0887C132.429 71.3387 132.442 71.5907 132.435 71.8426L132.716 74.0049C132.786 74.4588 132.83 74.9165 132.846 75.3756C132.846 75.5051 132.866 75.6553 132.887 75.8038L132.887 75.804L132.897 75.8773L132.901 75.9049L132.907 75.9581L133.099 77.4316L133.112 77.5332L133.112 77.5334C133.133 77.6988 133.155 77.8694 133.158 78.0142C133.17 78.4044 133.207 78.7935 133.267 79.1793L133.63 81.979C133.675 82.5563 133.709 83.135 133.743 83.7142C133.764 84.0734 133.785 84.4329 133.809 84.7923L134.038 88.6406C134.068 88.9973 134.076 89.3555 134.062 89.7131C134.056 89.8421 134.056 89.9714 134.062 90.1004C134.095 90.5565 134.105 91.014 134.09 91.4711C134.09 91.6184 134.09 91.7966 134.11 91.9611L134.175 93.0474C134.175 93.2735 134.175 93.5134 134.196 93.7327C134.196 94.024 134.223 94.3118 134.254 94.6065L134.532 97.2554L134.539 97.3356C134.561 97.5709 134.583 97.8118 134.587 98.0333C134.59 98.2889 134.617 98.5436 134.669 98.794C134.706 98.9722 134.73 99.1778 134.751 99.3697L135.131 103.002C135.152 103.194 135.162 103.393 135.166 103.581C135.166 103.742 135.185 103.901 135.22 104.058C135.276 104.308 135.299 104.565 135.289 104.822V105.01C135.281 105.216 135.292 105.423 135.32 105.627C135.342 105.751 135.352 105.878 135.351 106.004C135.336 106.294 135.35 106.58 135.365 106.865C135.374 107.034 135.382 107.204 135.385 107.375L135.409 108.745V109.328C135.369 109.877 135.38 110.429 135.44 110.976C135.467 111.235 135.481 111.494 135.481 111.754L135.522 113.93V114.324C135.545 114.4 135.562 114.478 135.573 114.557C135.585 114.718 135.585 114.879 135.573 115.04C135.549 115.383 135.532 115.726 135.529 116.085C135.529 116.264 135.471 116.452 135.419 116.473C135.279 116.524 135.097 116.493 134.929 116.096ZM131.215 73.3778H131.239L131.211 73.323L131.215 73.3778ZM112.039 52.4473V52.4679L112.004 52.4473H112.039ZM106.864 99.3629H106.84C106.843 99.3748 106.847 99.3865 106.851 99.3981C106.855 99.4093 106.859 99.4205 106.864 99.4315V99.3629ZM93.8767 45.186H93.5854C93.4175 44.7165 93.2325 44.6788 93.0509 44.7885C92.9661 44.9259 92.9276 45.0868 92.9412 45.2477C92.9412 45.6691 92.9275 46.0804 92.9069 46.4881C92.8951 46.6787 92.8951 46.8698 92.9069 47.0604C92.9196 47.1539 92.9379 47.2467 92.9618 47.338V47.804L93.02 50.3844C93.0269 50.6962 93.0372 51.0012 93.068 51.3096C93.1315 51.9598 93.1452 52.6139 93.1091 53.2663V53.9516L93.1434 55.593C93.1742 56.1329 93.1742 56.674 93.1434 57.2139C93.1315 57.3633 93.1315 57.5134 93.1434 57.6628C93.1703 57.9664 93.1645 58.272 93.1262 58.5743C93.0828 58.875 93.0736 59.1796 93.0988 59.4824C93.1142 59.6717 93.1142 59.8619 93.0988 60.0512C93.0783 60.2671 93.0577 60.5036 93.0577 60.7366L92.9652 65.0748V65.7602C92.9908 66.0635 92.9908 66.3684 92.9652 66.6717C92.9275 66.963 92.9275 67.2851 92.9275 67.597L92.8487 70.777C92.8727 71.1196 92.8727 71.4623 92.8487 71.805V72.6137L92.8658 73.9056V74.4881C92.835 75.0193 92.835 75.5607 92.835 76.109C92.8437 76.2619 92.8437 76.4153 92.835 76.5682C92.804 76.9924 92.7972 77.418 92.8144 77.8429C92.8144 78.6071 92.8487 79.3713 92.8864 80.132L92.9926 82.4211L93.2942 89.1067C93.3182 89.5761 93.3387 90.0422 93.3181 90.4979C93.3124 90.6115 93.3196 90.7403 93.327 90.8727V90.8728V90.8729V90.873V90.8731C93.3328 90.9761 93.3387 91.0813 93.3387 91.1833L93.4312 92.9412C93.4552 93.1639 93.4552 93.4208 93.4552 93.6264V93.6266C93.4428 94.1672 93.4577 94.7082 93.4998 95.2474L93.6368 97.8243C93.6177 98.1222 93.6177 98.4209 93.6368 98.7187L93.6964 99.847C93.6748 99.8541 93.6537 99.8629 93.6335 99.8736H93.4347L92.3347 99.8221C92.2025 99.8102 92.0694 99.8102 91.9372 99.8221C91.6586 99.861 91.3751 99.8482 91.1011 99.7845C91.0051 99.7647 90.9077 99.7521 90.8098 99.7468L90.1245 99.7125C89.8957 99.7201 89.6666 99.7109 89.4391 99.6851C89.3755 99.6752 89.3108 99.6752 89.2472 99.6851C89.1202 99.7176 88.987 99.7176 88.86 99.6851C88.735 99.6446 88.6018 99.6364 88.4728 99.6611C88.3924 99.6764 88.3098 99.6764 88.2295 99.6611C88.1322 99.6416 88.0338 99.629 87.9348 99.6234L86.0843 99.5377C85.9863 99.5291 85.8877 99.5291 85.7896 99.5377C85.6607 99.5634 85.5279 99.5634 85.399 99.5377C85.2701 99.5135 85.1394 99.4998 85.0083 99.4966L83.6582 99.4315C83.5084 99.4281 83.3593 99.4109 83.2127 99.3801C83.0998 99.3562 82.9852 99.3413 82.87 99.3356L82.3217 99.3116C82.238 99.3102 82.1544 99.3034 82.0716 99.291C81.8468 99.2383 81.6171 99.2096 81.3862 99.2053C81.3203 99.2034 81.2548 99.1942 81.1909 99.1779C81.0139 99.1337 80.832 99.1119 80.6495 99.1128C80.2169 99.0923 79.7843 99.0809 79.3527 99.0695L79.3522 99.0695L79.3518 99.0695C79.1341 99.0638 78.9167 99.058 78.6997 99.0511L75.8452 98.9723C75.6461 98.9735 75.4474 98.9539 75.2524 98.9141C75.1554 98.8941 75.0566 98.8849 74.9577 98.8867L74.2072 98.8627C74.1074 98.8664 74.0074 98.8595 73.9091 98.8421C73.684 98.7931 73.4539 98.7712 73.2237 98.777L72.1237 98.7461C72.0011 98.7039 71.873 98.6796 71.7434 98.6742L70.9963 98.6536C70.8975 98.6565 70.7987 98.6484 70.7016 98.6296C70.4908 98.5868 70.276 98.5661 70.0608 98.568C69.8956 98.5739 69.7302 98.5624 69.5674 98.5337C69.408 98.4959 69.2445 98.4787 69.0808 98.4823L68.1316 98.4549C67.9333 98.4585 67.7354 98.4378 67.5422 98.3932C67.4783 98.3774 67.4126 98.3704 67.3468 98.3726C67.1012 98.3731 66.8563 98.3455 66.6169 98.2904C66.5874 98.2788 66.5573 98.2687 66.5268 98.2601C66.5393 98.1467 66.5502 98.031 66.5586 97.9168L66.8704 93.5032C66.8978 93.2667 66.8978 93.0201 66.8978 92.7973V92.7972C66.8927 92.4888 66.9134 92.1805 66.9595 91.8754C67.0042 91.563 67.0328 91.2485 67.0452 90.9331L67.124 87.7085C67.1308 87.3316 67.1445 86.9889 67.1788 86.6462C67.2062 86.3892 67.2268 86.1014 67.2268 85.8272L67.261 84.5114C67.2713 84.412 67.2713 84.3083 67.2713 84.2072C67.2713 84.1061 67.2713 84.0076 67.2816 83.9185C67.3467 83.384 67.3741 82.8288 67.3741 82.2737C67.3753 82.1167 67.3856 81.96 67.405 81.8042C67.4505 81.3751 67.4733 80.9439 67.4735 80.5123C67.5023 79.495 67.5154 78.4949 67.5284 77.4953C67.5355 76.9494 67.5426 76.4037 67.5523 75.8554L67.6483 69.0498C67.6417 68.5783 67.6646 68.1067 67.7168 67.638C67.7613 67.429 67.7613 67.172 67.7613 66.9321L67.8333 65.1399C67.8357 65.0855 67.8377 65.0298 67.8397 64.9737L67.8397 64.9732V64.973L67.8397 64.9726C67.8465 64.7854 67.8534 64.5938 67.8744 64.4306C67.9388 63.8834 67.9754 63.3332 67.9841 62.7823L68.0869 60.154C68.1383 59.8537 68.1704 59.5504 68.1828 59.2459L68.2514 57.4606C68.2535 57.4115 68.2553 57.3616 68.2572 57.3113V57.3112C68.2643 57.1193 68.2715 56.923 68.2959 56.7547C68.3458 56.2468 68.3561 55.7358 68.3268 55.2263V54.0475V52.8721L68.2788 50.6071C68.253 50.1379 68.253 49.6678 68.2788 49.1987V48.7292C68.2582 48.1261 68.2685 47.5435 68.3028 46.9713C68.3341 46.7327 68.349 46.4923 68.3473 46.2516L68.3645 45.3161C68.3625 45.2489 68.3521 45.1821 68.3336 45.1174C68.2582 44.8775 68.1691 44.8158 68.0766 44.8158L67.004 44.8398C66.9766 44.97 66.9423 44.97 66.9081 44.97C66.9084 44.9277 66.9003 44.8858 66.8841 44.8467H66.7779C66.7253 45.0025 66.6885 45.1632 66.6682 45.3264V45.8027V46.2756C66.6682 46.5249 66.6743 46.775 66.6804 47.0247L66.6804 47.025C66.6926 47.5234 66.7047 48.0202 66.6682 48.5065V49.0958L66.6956 50.4014V51.0868C66.6699 51.5936 66.6699 52.1014 66.6956 52.6083L66.7402 54.8631C66.7065 55.1645 66.6927 55.4679 66.6991 55.7712V56.4257L66.6716 57.0802L66.6702 57.1093C66.6569 57.3746 66.6431 57.6512 66.6134 57.8992C66.5723 58.2487 66.538 58.6119 66.538 58.9546L66.4181 62.0387C66.411 62.4706 66.3813 62.9018 66.329 63.3306C66.305 63.5054 66.2878 63.7178 66.2878 63.9131L66.257 64.6293C66.2521 64.7482 66.2478 64.8672 66.2435 64.9862L66.2435 64.9877C66.2234 65.5401 66.2035 66.0912 66.1302 66.6237C66.1151 66.7583 66.1268 66.8945 66.1645 67.0246V67.2611C66.1439 67.3673 66.1439 67.4975 66.1439 67.6037C66.081 68.2254 66.0513 68.85 66.0548 69.4748L65.9657 75.78C65.9648 75.864 65.9649 75.9502 65.9649 76.0368V76.0368V76.0369V76.037C65.9651 76.2752 65.9653 76.5163 65.9452 76.7224C65.9247 77.0739 65.9247 77.4263 65.9452 77.7778C65.897 77.9436 65.8739 78.1157 65.8766 78.2884C65.8663 79.1964 65.8458 80.0977 65.8218 80.9989C65.8228 81.5013 65.7976 82.0035 65.7464 82.5033C65.7494 82.6 65.7609 82.6964 65.7807 82.7911V83.031C65.7324 83.3291 65.7049 83.6303 65.6984 83.9322C65.6969 84.0754 65.6918 84.2192 65.6867 84.3631L65.6867 84.3633V84.3634V84.3634C65.6806 84.5364 65.6745 84.7094 65.6745 84.8815C65.6676 85.1042 65.6573 85.3475 65.6333 85.5668C65.5956 85.9095 65.5751 86.2727 65.5751 86.6154L65.4791 90.6487V90.9913C65.4541 91.4985 65.4026 92.0041 65.3249 92.506C65.2967 92.6977 65.2841 92.8914 65.2872 93.0851C65.2941 93.4483 65.2838 93.791 65.2564 94.1337L65.0988 96.3885L65.0028 97.6941C64.9788 98.0059 64.948 98.3177 64.9103 98.6262C64.8782 98.8531 64.8644 99.0823 64.8692 99.3115C64.8766 99.5045 64.8617 99.6977 64.8246 99.8872C64.7574 100.268 64.7264 100.655 64.7321 101.042C64.7359 101.195 64.729 101.349 64.7115 101.501C64.6841 101.654 64.6636 101.812 64.6499 101.974L64.6053 102.498V102.995L64.6533 107.409V107.639V108.8C64.6609 109.045 64.6464 109.27 64.632 109.494L64.632 109.494C64.6203 109.674 64.6087 109.855 64.6087 110.044V110.277C64.5585 110.609 64.5516 110.947 64.5882 111.281C64.6259 111.487 64.6259 111.737 64.6259 111.967V112.552C64.6119 112.735 64.6486 112.917 64.7321 113.08C64.7531 113.102 64.7745 113.125 64.7963 113.148C64.9306 113.291 65.0781 113.448 65.2255 113.392C65.2598 113.553 65.3044 113.611 65.3558 113.611L65.3558 113.975C65.3743 113.984 65.3897 113.998 65.4001 114.015C65.4105 114.033 65.4154 114.054 65.414 114.074C65.4039 114.072 65.3935 114.073 65.3838 114.077C65.3742 114.081 65.3657 114.087 65.3592 114.095V114.211C65.4188 114.264 65.4889 114.304 65.5648 114.328H65.9692C66.285 114.31 66.6018 114.324 66.9149 114.369C66.9981 114.377 67.0819 114.377 67.1651 114.369H67.7202C67.8205 114.358 67.9215 114.358 68.0218 114.369C68.2345 114.405 68.4505 114.418 68.666 114.406H69.6255C69.7607 114.418 69.8969 114.41 70.0299 114.382H70.5884C70.7031 114.382 70.8176 114.39 70.9311 114.406C71.0798 114.428 71.2299 114.437 71.38 114.434H72.6959C72.8804 114.422 73.0656 114.432 73.2476 114.465C73.3307 114.474 73.4146 114.474 73.4977 114.465H73.7993C74.0842 114.446 74.3703 114.459 74.6526 114.502C74.6826 114.508 74.7135 114.506 74.7427 114.497C74.7719 114.488 74.7986 114.472 74.8205 114.451H74.9198C74.97 114.446 75.0205 114.446 75.0706 114.451C75.3343 114.495 75.6021 114.51 75.8691 114.496L78.5454 114.468C78.6786 114.454 78.813 114.454 78.9463 114.468C79.0943 114.485 79.2438 114.485 79.3918 114.468C79.4575 114.511 79.5362 114.531 79.6145 114.523H80.1902L80.7625 114.482C80.9754 114.458 81.1903 114.458 81.4033 114.482C81.4171 114.485 81.4379 114.473 81.46 114.46C81.4816 114.447 81.5045 114.434 81.5232 114.434H81.626C81.7528 114.463 81.8833 114.474 82.0132 114.465C82.1468 114.434 82.2804 114.434 82.4141 114.434H82.4142C82.5134 114.427 82.613 114.427 82.7123 114.434C82.8615 114.449 83.0119 114.449 83.1612 114.434L84.8746 114.304H85.0253C85.2406 114.28 85.4578 114.28 85.673 114.304C85.7558 114.314 85.8398 114.307 85.9197 114.283C86.064 114.242 86.2122 114.217 86.3618 114.208L87.3213 114.132L87.8764 114.095H88.2773C88.3755 114.103 88.4744 114.093 88.5686 114.064C88.6493 114.041 88.7346 114.041 88.8153 114.064C88.9757 114.081 89.138 114.065 89.2916 114.016C89.3535 113.995 89.4185 113.986 89.4835 113.988C89.6839 114.012 89.8863 114.012 90.0867 113.988L91.9542 113.848H92.0536C92.0652 113.847 92.0767 113.846 92.088 113.845C92.1089 113.844 92.1295 113.842 92.1498 113.841C92.1648 113.84 92.1797 113.839 92.1945 113.838L92.227 113.836H92.227C92.3253 113.831 92.4241 113.825 92.5436 113.81C92.6593 113.795 92.7659 113.805 92.8722 113.815C92.9391 113.821 93.0059 113.827 93.0748 113.827H93.1742C93.314 113.868 93.4627 113.868 93.6025 113.827C93.6966 113.801 93.793 113.784 93.8903 113.776L94.1371 113.752C94.2467 113.735 94.3324 113.694 94.353 113.632C94.4303 113.477 94.4646 113.304 94.4523 113.132C94.4781 113.121 94.4998 113.102 94.5145 113.078C94.5292 113.054 94.5362 113.026 94.5346 112.998V112.758H94.6443C94.6751 112.635 94.7128 112.635 94.7471 112.635C94.7461 112.677 94.7518 112.718 94.7642 112.758H94.8842C94.9436 112.608 94.9861 112.452 95.011 112.292V111.823V111.357C95.0149 111.189 95.0173 111.022 95.0198 110.854L95.0198 110.853L95.0198 110.853L95.0198 110.852C95.0282 110.283 95.0366 109.716 95.1001 109.163C95.1172 108.992 95.1172 108.78 95.1172 108.584L95.1412 107.303C95.1429 107.246 95.144 107.187 95.1451 107.128L95.1451 107.126C95.1483 106.951 95.1516 106.771 95.172 106.617C95.2406 106.127 95.2406 105.624 95.2406 105.12V105.12L95.2817 102.903C95.3274 102.608 95.3526 102.31 95.3571 102.012V101.388L95.3194 100.672V99.8667C95.3296 99.524 95.3159 99.1813 95.2954 98.8387L95.1343 95.7957C95.1019 95.3727 95.0916 94.9484 95.1035 94.5244V93.9487L95.0658 93.2633C95.0597 93.1458 95.053 93.0281 95.0463 92.9104C95.0157 92.3696 94.985 91.8289 95.0075 91.2998C95.0104 91.1675 94.9871 91.0359 94.939 90.9126V90.6761V90.3335C94.963 89.7338 94.939 89.117 94.9082 88.4967L94.6272 82.3286C94.6239 82.2554 94.6203 82.1806 94.6166 82.1055C94.6049 81.864 94.5929 81.6185 94.5929 81.4068C94.5925 81.0634 94.5742 80.7202 94.5381 80.3787C94.5739 80.2122 94.5866 80.0415 94.5758 79.8716C94.5697 79.7155 94.5611 79.5595 94.5525 79.4035C94.5367 79.1175 94.5209 78.8315 94.5209 78.5454L94.5004 77.2158L94.4979 77.0507C94.4912 76.6084 94.4844 76.1652 94.5209 75.7355C94.5153 75.6406 94.5004 75.5465 94.4764 75.4545V75.2215C94.5141 74.9261 94.5301 74.6283 94.5244 74.3305V73.3984V72.7131C94.5449 72.3704 94.5449 72.0277 94.5449 71.6851L94.4867 67.7272V67.3845C94.4869 66.8843 94.5132 66.3844 94.5655 65.887C94.5827 65.6966 94.5827 65.5051 94.5655 65.3147C94.5449 64.972 94.5449 64.6294 94.5449 64.2867L94.5929 62.0627L94.6237 60.7743C94.634 60.4659 94.6477 60.1575 94.6717 59.8525C94.6925 59.6245 94.6925 59.3951 94.6717 59.1671C94.6569 58.9786 94.6626 58.789 94.6888 58.6017C94.7376 58.2234 94.7502 57.8413 94.7265 57.4606C94.7163 57.31 94.7163 57.1589 94.7265 57.0083C94.7766 56.5532 94.7915 56.0949 94.7711 55.6376L94.6751 51.2959V51.0663C94.6713 50.9237 94.6689 50.7807 94.6665 50.6377V50.6372C94.6625 50.3988 94.6584 50.1607 94.6477 49.9252C94.6358 49.6733 94.6492 49.4432 94.6625 49.213C94.6723 49.0455 94.682 48.8779 94.682 48.7018V48.4722C94.7234 48.1434 94.7234 47.8107 94.682 47.4819C94.6374 47.2694 94.6374 47.0261 94.6374 46.7966L94.6169 46.2209C94.6279 46.0412 94.5888 45.8621 94.5038 45.7034C94.4815 45.6816 94.4588 45.6584 94.4358 45.6349C94.3 45.496 94.1534 45.3462 94.0069 45.4019C93.9727 45.2442 93.9247 45.186 93.8767 45.186ZM93.5067 101.426C93.5883 101.414 93.6708 101.408 93.7533 101.408V101.46C93.75 101.497 93.75 101.533 93.7533 101.57V101.714V102.005V102.588C93.7502 102.707 93.7509 102.826 93.7516 102.945V102.946V102.946C93.7533 103.214 93.7549 103.481 93.7122 103.742C93.6505 104.119 93.6505 104.503 93.6505 104.894L93.6128 107.114C93.6142 107.572 93.5913 108.03 93.5443 108.485C93.5255 108.637 93.5175 108.791 93.5203 108.944C93.5169 109.527 93.4861 110.099 93.4278 110.658C93.3889 110.884 93.3649 111.113 93.3558 111.343L93.3108 112.144L92.2352 112.227C92.1012 112.234 91.9682 112.254 91.8377 112.285C91.5626 112.356 91.2772 112.376 90.9947 112.347C90.8955 112.34 90.7959 112.34 90.6966 112.347L89.9907 112.398C89.7641 112.436 89.535 112.456 89.3054 112.46C89.2398 112.463 89.1751 112.475 89.1135 112.498C88.9866 112.54 88.8513 112.551 88.7194 112.529C88.5892 112.504 88.4549 112.512 88.3287 112.553C88.2497 112.575 88.1671 112.582 88.0854 112.573C87.9862 112.566 87.8866 112.566 87.7873 112.573L85.9232 112.714C85.8228 112.721 85.7231 112.736 85.625 112.758C85.4981 112.794 85.3654 112.804 85.2344 112.789C85.102 112.78 84.9692 112.78 84.8369 112.789L83.4662 112.892C83.3168 112.906 83.1666 112.906 83.0173 112.892C82.9033 112.882 82.7886 112.882 82.6746 112.892L82.1195 112.933C82.0363 112.941 81.9525 112.941 81.8693 112.933C81.6414 112.91 81.4118 112.91 81.1839 112.933C81.1179 112.94 81.0513 112.94 80.9852 112.933C80.8032 112.909 80.6189 112.909 80.4369 112.933C80.11 112.963 79.7817 112.975 79.4534 112.971H78.4665L75.5881 113.001C75.3875 113.014 75.1862 113.003 74.9884 112.967C74.8881 112.957 74.7871 112.957 74.6868 112.967H73.9295C73.8304 112.978 73.7305 112.978 73.6314 112.967C73.405 112.93 73.1752 112.917 72.946 112.93H71.8323C71.7082 112.89 71.5787 112.871 71.4485 112.871H70.6912C70.5921 112.882 70.4922 112.882 70.3931 112.871C70.1804 112.835 69.9644 112.822 69.7489 112.834C69.5826 112.851 69.4149 112.851 69.2486 112.834C69.0848 112.803 68.9181 112.792 68.7517 112.799H67.7956C67.5972 112.813 67.3979 112.8 67.2028 112.762C67.1368 112.753 67.07 112.753 67.004 112.762C66.7783 112.77 66.5524 112.756 66.3297 112.718C66.3355 112.606 66.3421 112.494 66.3495 112.381C66.3597 112.188 66.3597 111.995 66.3495 111.802C66.3416 111.706 66.3244 111.611 66.2981 111.518V111.038L66.2707 108.413C66.2673 108.094 66.2604 107.782 66.233 107.471C66.1765 106.807 66.1696 106.141 66.2124 105.476C66.2296 105.25 66.2296 105.007 66.2296 104.77V103.098V102.608C66.2433 102.269 66.2604 101.861 66.3084 101.491C66.3187 101.338 66.3187 101.185 66.3084 101.032C66.299 100.722 66.3208 100.412 66.3735 100.107C66.3883 100.026 66.4009 99.9461 66.4113 99.8655C66.6768 99.8674 66.9418 99.893 67.2029 99.9421C67.2849 99.9508 67.3676 99.9508 67.4496 99.9421L67.9979 99.9592C68.0967 99.9564 68.1956 99.9644 68.2926 99.9832C68.5021 100.028 68.7159 100.048 68.93 100.045L69.8758 100.069C69.9975 100.114 70.1262 100.139 70.2561 100.141H70.8044C70.9194 100.143 71.034 100.155 71.1471 100.175C71.2925 100.205 71.4406 100.22 71.5892 100.22L72.8913 100.257C73.0722 100.255 73.2527 100.273 73.4293 100.312C73.5106 100.328 73.5932 100.338 73.676 100.34H73.9742C74.2547 100.332 74.5351 100.357 74.8103 100.412C74.8398 100.417 74.8702 100.416 74.8993 100.408C74.9283 100.401 74.9553 100.386 74.9782 100.367H75.081C75.13 100.362 75.1794 100.362 75.2284 100.367C75.4854 100.42 75.7473 100.445 76.0097 100.442L78.6517 100.518C78.7828 100.506 78.9147 100.506 79.0458 100.518C79.1924 100.538 79.3412 100.538 79.4878 100.518C79.5487 100.564 79.624 100.587 79.7003 100.583C80.0772 100.593 80.4576 100.61 80.8345 100.627C81.0468 100.627 81.2583 100.651 81.4651 100.699C81.479 100.703 81.4999 100.694 81.5226 100.684C81.5446 100.675 81.5682 100.665 81.5884 100.665H81.6878C81.8083 100.712 81.9356 100.738 82.0647 100.744H82.4622C82.5603 100.747 82.6578 100.76 82.7535 100.782C82.8985 100.815 83.0467 100.834 83.1956 100.836L84.885 100.915H85.0357C85.2503 100.913 85.4644 100.937 85.6731 100.987C85.7533 101.004 85.8362 101.004 85.9164 100.987C86.0625 100.964 86.2107 100.956 86.3585 100.963L87.3042 101.008L87.8525 101.035C87.9862 101.045 88.1164 101.059 88.2432 101.08C88.3391 101.101 88.4385 101.101 88.5344 101.08C88.6156 101.063 88.6997 101.069 88.7777 101.097C88.9345 101.143 89.0993 101.154 89.2609 101.131C89.3253 101.118 89.3918 101.118 89.4562 101.131C89.6499 101.173 89.8476 101.192 90.0456 101.189L91.8927 101.275H91.9886C92.1325 101.296 92.3141 101.296 92.4751 101.296H92.4752C92.649 101.314 92.8217 101.342 92.9927 101.378H93.0886C93.22 101.436 93.3657 101.452 93.5067 101.426ZM95.0418 96.1281H95.0658L95.0692 96.1966C95.0572 96.175 95.048 96.152 95.0418 96.1281ZM72.6034 114.365V114.341L72.5759 114.365H72.6034ZM66.5688 61.7303H66.5448L66.5483 61.6618C66.5688 61.6858 66.5688 61.7097 66.5688 61.7303ZM72.7817 100.028V100.014C72.7706 100.018 72.761 100.025 72.7543 100.035L72.7817 100.028ZM112.971 63.9131V63.9371L112.94 63.9131H112.971Z" fill="white"/>
<rect x="0.5" y="0.5" width="159" height="159" stroke="#DDDDDD"/>
</svg>
