<svg width="160" height="160" viewBox="0 0 160 160" fill="none" xmlns="http://www.w3.org/2000/svg">
<rect x="0.5" y="0.5" width="159" height="159" fill="white" fill-opacity="0.1"/>
<path fill-rule="evenodd" clip-rule="evenodd" d="M50.134 114.619H50.4218C50.6172 115.092 50.8022 115.133 51.001 115.02C51.0783 114.87 51.1082 114.7 51.0866 114.533C51.0524 114.091 51.0524 113.663 51.0524 113.235V113.235C51.0479 113.035 51.0319 112.836 51.0044 112.638C50.9888 112.541 50.9659 112.444 50.9359 112.35L50.9462 111.895L50.7508 109.205C50.7268 108.879 50.6994 108.56 50.6514 108.242C50.5534 107.561 50.5041 106.874 50.5041 106.186C50.5041 106.072 50.4974 105.954 50.4906 105.834V105.834V105.834V105.834V105.834V105.834V105.834V105.834C50.4837 105.711 50.4767 105.587 50.4767 105.466L50.3533 103.753L50.3328 103.503L50.3122 103.294L50.3465 102.738C50.3602 102.54 50.3773 102.341 50.4081 102.142C50.4185 101.986 50.4185 101.829 50.4081 101.673C50.4033 101.354 50.4297 101.037 50.487 100.723C50.5483 100.412 50.5771 100.095 50.5726 99.7777C50.5716 99.579 50.5876 99.3807 50.6206 99.1848L50.6265 99.1455C50.6317 99.1111 50.6372 99.0765 50.6427 99.0417C50.6724 98.8531 50.7028 98.6598 50.7028 98.4686L51.0763 93.9487C51.0969 93.7054 51.1141 93.4519 51.1141 93.2257C51.1148 92.9088 51.1411 92.5925 51.1929 92.2799C51.1978 92.2421 51.204 92.2038 51.2102 92.165L51.2102 92.165V92.1649V92.1649V92.1649V92.1648V92.1648V92.1648C51.2253 92.07 51.2408 91.9728 51.2408 91.8756L51.2854 91.4095L51.2614 91.2108L50.8571 87.9279C50.8125 87.5647 50.7714 87.2049 50.7542 86.8451C50.7449 86.6036 50.7161 86.3425 50.6879 86.0871L50.6789 86.0055L50.5144 84.6691C50.5072 84.6078 50.4986 84.5453 50.4899 84.483C50.4695 84.3361 50.4493 84.1901 50.4493 84.0626C50.4291 83.5205 50.3625 82.9685 50.2952 82.4099V82.4099L50.2916 82.38C50.2711 82.219 50.2505 82.0476 50.2505 81.9037C50.2327 81.4609 50.1915 81.0194 50.1272 80.581L50.0072 79.6044L50.2368 75.9446L50.6754 68.9711L50.7131 68.3852L50.7371 68.0973L50.7714 67.7546V67.412C50.7751 67.2962 50.7669 67.1667 50.7586 67.034C50.7513 66.9191 50.744 66.8018 50.744 66.6889L50.6309 64.859C50.6 64.6158 50.6 64.3486 50.6 64.1328V64.1326C50.6177 63.6554 50.5873 63.1707 50.5566 62.6827V62.6826V62.6826V62.6825V62.6825V62.6824V62.6824V62.6823V62.6823V62.6822V62.6822C50.5516 62.6026 50.5466 62.5229 50.5418 62.4432L50.3773 59.7566C50.398 59.4474 50.398 59.1372 50.3773 58.8279L50.2642 57.0015C50.2368 56.7617 50.2368 56.4981 50.2368 56.2822V56.2819V55.8946V55.504V54.7193C50.2368 54.5844 50.233 54.4479 50.2292 54.3116V54.3115C50.2216 54.0393 50.214 53.7676 50.2368 53.5096C50.269 53.1118 50.2804 52.7127 50.2711 52.3137V49.9972C50.2577 49.5171 50.2703 49.0367 50.3088 48.558C50.3176 48.3982 50.3176 48.238 50.3088 48.0782C50.3019 47.4648 50.3225 46.8686 50.3636 46.286C50.3981 46.0419 50.4176 45.7958 50.4218 45.5493L50.4527 44.5967C50.4515 44.5273 50.4423 44.4583 50.4253 44.391C50.3533 44.1443 50.2677 44.0826 50.1751 44.0826H49.0991C49.0717 44.2163 49.0374 44.2163 48.9997 44.2163C49.0081 44.1733 49.0081 44.1291 48.9997 44.0861H48.8798C48.8231 44.2446 48.784 44.4089 48.7633 44.5761V45.0695V45.5561C48.7633 45.7257 48.7646 45.8957 48.766 46.0658V46.0661V46.0664V46.0667V46.067V46.0673V46.0676V46.0678V46.0681V46.0684V46.0687C48.7707 46.6679 48.7755 47.2683 48.7222 47.8521V48.4586V49.8019C48.7222 49.8832 48.7245 49.9669 48.7268 50.0503C48.7313 50.2163 48.7359 50.3812 48.7222 50.5249C48.6845 51.0389 48.6845 51.5631 48.6845 52.0908V52.091V54.4143C48.646 54.7246 48.6277 55.0371 48.6297 55.3498V56.0351L48.6674 56.7205C48.6948 57.0015 48.6948 57.2962 48.6948 57.5635C48.6879 57.9233 48.705 58.2831 48.7256 58.6498L48.9209 61.8332C48.9655 62.2821 48.9826 62.7276 48.9655 63.1628C48.9617 63.2637 48.9674 63.3763 48.9732 63.491L48.9732 63.4912C48.9779 63.5829 48.9826 63.6761 48.9826 63.7659L49.0272 64.4992C49.0335 64.6047 49.0401 64.7102 49.0468 64.8157C49.0834 65.3956 49.12 65.9754 49.1026 66.5553C49.1019 66.6947 49.1274 66.8331 49.1779 66.9631V67.2098V67.573C49.1812 67.6335 49.1812 67.6941 49.1779 67.7546C49.1685 67.8057 49.1616 67.8571 49.1574 67.9088L49.1334 68.1179L49.0957 68.5394L49.0374 69.3892L48.6331 75.8452C48.6271 75.9386 48.6223 76.0345 48.6175 76.1309V76.1309C48.6057 76.3668 48.5938 76.6047 48.5646 76.8115C48.526 77.169 48.5054 77.5281 48.5029 77.8875C48.4499 78.0576 48.4199 78.2339 48.4138 78.4119L48.3349 79.6455L48.544 81.3589C48.5566 81.4589 48.5699 81.559 48.5833 81.6591L48.5833 81.6593L48.5833 81.6594C48.639 82.0773 48.6948 82.4953 48.6948 82.9043C48.714 83.0017 48.7392 83.0978 48.7701 83.1922L48.801 83.4355C48.8 83.747 48.8183 84.0583 48.8558 84.3676C48.9004 84.6897 48.9415 85.0118 48.9758 85.3339L48.9835 85.3999L48.9933 85.4806C49.0169 85.675 49.0409 85.8724 49.0409 86.0501C49.0546 86.4099 49.0957 86.7663 49.1402 87.1295L49.6508 91.2416L49.6748 91.4369L49.6131 92.1703C49.5857 92.4307 49.5549 92.6877 49.5069 92.9413C49.4751 93.1384 49.4591 93.3378 49.4589 93.5375C49.4624 93.8905 49.4452 94.2434 49.4144 94.6135L49.2225 96.93L49.1265 98.2767C49.0957 98.5954 49.058 98.9175 49.0169 99.2328C48.9806 99.4674 48.9645 99.7047 48.9689 99.9421C48.9729 100.14 48.9545 100.338 48.9141 100.532C48.841 100.924 48.8043 101.322 48.8044 101.721C48.8062 101.878 48.797 102.034 48.777 102.19L48.7718 102.219L48.7596 102.284C48.735 102.413 48.7085 102.552 48.7085 102.687L48.6811 102.941L48.6537 103.283L48.6913 103.811L49.034 108.327V108.564L49.05 108.799L49.05 108.799L49.05 108.799L49.05 108.799L49.05 108.799L49.05 108.8L49.05 108.8L49.05 108.8L49.0501 108.8L49.0501 108.8L49.0501 108.8C49.0715 109.119 49.0929 109.437 49.1231 109.753C49.1412 109.992 49.1421 110.213 49.143 110.433V110.433C49.1437 110.629 49.1445 110.823 49.1574 111.028V111.268C49.1303 111.611 49.1464 111.956 49.2054 112.296C49.2337 112.44 49.2504 112.621 49.2672 112.803C49.2727 112.862 49.2782 112.922 49.2842 112.981L49.3356 113.581C49.335 113.767 49.3835 113.95 49.4761 114.112C49.492 114.126 49.5079 114.141 49.524 114.156L49.5603 114.191C49.7027 114.326 49.8494 114.466 49.9866 114.403C50.0346 114.564 50.0826 114.619 50.134 114.619ZM49.0203 61.5625H48.9963L48.9929 61.494C49.0045 61.5158 49.0137 61.5387 49.0203 61.5625ZM40.1689 49.3357L40.1614 49.3926L41.1114 49.3289C41.2039 49.3289 41.293 49.3803 41.3787 49.603C41.4011 49.6622 41.4138 49.7247 41.4164 49.788L41.4369 50.6721C41.4545 50.9002 41.4545 51.1294 41.4369 51.3575V51.3582C41.4369 51.896 41.4369 52.4474 41.4815 53.0126C41.4898 53.161 41.4898 53.3097 41.4815 53.4581C41.4709 53.9006 41.4857 54.3434 41.526 54.7842L41.6597 56.9191C41.6897 57.2872 41.7012 57.6566 41.6939 58.0259C41.6939 58.3493 41.7183 58.7246 41.7412 59.0768L41.7453 59.1396C41.7504 59.23 41.756 59.3202 41.7615 59.4103C41.7859 59.8053 41.81 60.1972 41.7933 60.5823C41.7933 60.781 41.7933 61.0243 41.8207 61.2471C41.8293 61.4227 41.8412 61.5983 41.8531 61.7739C41.8793 62.1603 41.9055 62.5467 41.8961 62.933C41.8958 63.222 41.8752 63.5105 41.8344 63.7966V66.281C41.8344 66.8053 41.8344 67.3296 41.7864 67.8436C41.7727 67.9761 41.7773 68.1299 41.7819 68.2837C41.7842 68.3606 41.7864 68.4376 41.7864 68.5118V70.2252V70.9105C41.7503 71.355 41.7366 71.8011 41.7453 72.247V75.4647L41.6871 78.679L41.6048 83.0755C41.607 83.483 41.5864 83.8903 41.5432 84.2954C41.5432 84.3659 41.5365 84.444 41.5297 84.5237L41.5297 84.5238C41.5236 84.5952 41.5174 84.6679 41.5157 84.7375C41.5157 85.2652 41.4952 85.7861 41.4369 86.2898C41.421 86.42 41.4195 86.573 41.418 86.7214C41.4175 86.7643 41.4171 86.8069 41.4164 86.8484L41.3924 88.0888V88.3835V88.5309V88.7913C41.3924 89.0789 41.4213 89.352 41.4509 89.6308L41.4602 89.7189L41.4678 89.7919L41.8104 92.8143L41.8198 92.9046C41.8479 93.1743 41.8766 93.4492 41.8858 93.7019C41.8901 93.9933 41.9222 94.2836 41.9818 94.5688C42.0229 94.7744 42.0503 95.0075 42.0743 95.2268L42.5266 99.3731C42.5506 99.5959 42.5643 99.822 42.5746 100.035C42.5774 100.218 42.5981 100.4 42.6363 100.579C42.697 100.865 42.7257 101.157 42.722 101.45V101.686V101.878V102.046C42.722 102.156 42.722 102.269 42.7425 102.389C42.7622 102.532 42.7702 102.676 42.7665 102.82C42.7415 103.171 42.7497 103.509 42.758 103.853V103.853C42.7622 104.027 42.7665 104.203 42.7665 104.383V105.959V105.96C42.7665 106.182 42.7665 106.412 42.7357 106.624C42.686 107.25 42.686 107.879 42.7357 108.505C42.7597 108.8 42.7596 109.095 42.7562 109.396V111.874V112.326C42.7794 112.414 42.7955 112.503 42.8042 112.594C42.8145 112.776 42.8145 112.959 42.8042 113.142C42.7699 113.536 42.7425 113.93 42.7322 114.338C42.7322 114.537 42.6637 114.752 42.6089 114.773C42.369 114.807 42.1702 114.766 42.0263 114.307H41.7385C41.6871 114.307 41.6425 114.249 41.6117 114.098C41.4586 114.15 41.3055 113.986 41.172 113.843C41.1561 113.826 41.1404 113.809 41.1251 113.793C41.0451 113.64 41.0106 113.468 41.0257 113.296V112.744C41.0257 112.525 41.0257 112.289 41.0017 112.097C40.972 111.78 40.9847 111.461 41.0394 111.147V110.928C41.0394 110.734 41.0562 110.552 41.0732 110.367C41.0914 110.17 41.1097 109.971 41.108 109.753V108.66V108.44L41.1388 104.277C41.1301 103.832 41.1438 103.387 41.1799 102.944C41.1917 102.799 41.1917 102.653 41.1799 102.509C41.1799 102.368 41.1799 102.228 41.1628 102.087V101.882V101.738V101.535C41.1668 101.353 41.1484 101.172 41.108 100.994C41.0623 100.781 41.036 100.564 41.0291 100.346C41.012 100.055 40.9914 99.7569 40.9606 99.4622L40.827 98.232L40.5974 96.1074C40.5597 95.7648 40.5117 95.4461 40.4466 95.1274C40.4094 94.948 40.3887 94.7657 40.3849 94.5825C40.3724 94.1023 40.3347 93.623 40.2718 93.1467L40.2376 92.8041L39.8229 89.0106L39.7886 88.668V88.4212V88.2396C39.7886 88.1208 39.7989 88.0066 39.8195 87.897C39.8396 87.6958 39.8466 87.4684 39.8533 87.2501L39.8538 87.2356V86.3412C39.8592 86.0541 39.8856 85.7678 39.9326 85.4845V85.2583C39.9118 85.1695 39.8992 85.0788 39.8949 84.9876C39.9421 84.5139 39.9649 84.0381 39.9634 83.5621L40.0114 81.0058C40.009 80.8421 40.0321 80.6791 40.0799 80.5226C40.0612 80.1916 40.0612 79.8598 40.0799 79.5288C40.1031 79.3309 40.1031 79.0984 40.1031 78.8687V78.8686C40.1031 78.7921 40.1031 78.7158 40.1039 78.6413L40.1587 75.6703V72.7027C40.1587 72.1065 40.1588 71.5136 40.2136 70.938V70.5953V70.3691C40.1706 70.2495 40.1531 70.1223 40.1622 69.9956C40.2161 69.4559 40.215 68.903 40.2139 68.3485C40.2137 68.2693 40.2136 68.1901 40.2136 68.1109V67.4255C40.2098 67.2414 40.2167 67.0572 40.2341 66.8738C40.2674 66.4692 40.28 66.0632 40.2718 65.6573V63.2828C40.2446 63.3505 40.2113 63.4159 40.1724 63.4781C40.1537 63.5071 40.1267 63.5299 40.0949 63.5433C40.0631 63.5568 40.028 63.5603 39.9942 63.5534L39.8125 63.5295C39.742 63.521 39.6706 63.521 39.6001 63.5295C39.5468 63.5379 39.4924 63.5355 39.44 63.5226C39.3876 63.5096 39.3384 63.4863 39.2951 63.4541H39.2231C39.1016 63.4054 38.9768 63.3653 38.8496 63.3341C38.7592 63.3341 38.6708 63.3147 38.5873 63.2963L38.5872 63.2963C38.5599 63.2903 38.5331 63.2844 38.5069 63.2793H38.435L37.0643 63.0668C36.9159 63.055 36.7703 63.0203 36.6325 62.964C36.5863 62.9536 36.5383 62.9536 36.492 62.964C36.3739 62.9748 36.2552 62.9522 36.1493 62.8989C36.0974 62.8661 36.0351 62.8539 35.9746 62.8647C35.9018 62.8758 35.8273 62.8676 35.7587 62.8407C35.6654 62.8103 35.5704 62.7852 35.4743 62.7653L35.0734 62.7036L34.388 62.5939C34.2745 62.5753 34.1588 62.5753 34.0453 62.5939C33.9849 62.602 33.9233 62.5937 33.8671 62.57C33.7201 62.5061 33.564 62.4656 33.4045 62.45H33.2949L32.0544 62.2581C31.9445 62.2454 31.8371 62.2165 31.7357 62.1725C31.6676 62.1443 31.5962 62.1247 31.5232 62.1142C31.4273 62.0971 31.3279 62.0799 31.232 62.0697C31.1352 62.054 31.0428 62.0178 30.9612 61.9634H30.8893C30.8751 61.9634 30.858 61.9714 30.8417 61.979C30.8226 61.9879 30.8044 61.9964 30.7933 61.9908C30.6483 61.9296 30.4945 61.8914 30.3376 61.8778L29.5049 61.7407C29.4756 61.738 29.4472 61.7289 29.4217 61.7141C29.3963 61.6993 29.3744 61.6792 29.3575 61.655C29.2473 61.6588 29.1372 61.6437 29.032 61.6105C28.9391 61.5783 28.8423 61.5587 28.7441 61.5522L26.8114 61.2267C26.6169 61.2028 26.4266 61.152 26.246 61.0759C26.212 61.0627 26.1762 61.0546 26.1398 61.0519H26.0644C26.0472 61.0678 26.026 61.0787 26.0031 61.0835C25.9802 61.0883 25.9564 61.0869 25.9342 61.0793C25.7405 60.9995 25.5362 60.9487 25.3277 60.9285L25.1084 60.8909C25.0482 60.881 24.9895 60.8637 24.9336 60.8394C24.8097 60.7838 24.6779 60.748 24.5429 60.7332L23.5903 60.5722C23.4808 60.5574 23.3737 60.5286 23.2716 60.4865C23.1922 60.4544 23.1094 60.4315 23.0249 60.418C22.8912 60.3906 22.7576 60.3666 22.624 60.3494C22.5275 60.3327 22.4354 60.2966 22.3532 60.2432L21.6679 60.1233C21.5098 60.106 21.3551 60.0656 21.2087 60.0033C21.1415 59.9738 21.0695 59.9564 20.9962 59.9519L20.5953 59.88C20.5334 59.8751 20.4724 59.8624 20.4137 59.8423C20.296 59.7947 20.1749 59.7566 20.0515 59.7285C20.0505 59.7698 20.049 59.8111 20.047 59.8525C20.0338 60.0391 20.0431 60.2266 20.0745 60.411C20.1088 60.6378 20.1237 60.8671 20.119 61.0964C20.119 61.3979 20.119 61.7063 20.143 62.0113L20.2115 63.2861L20.3315 65.4895C20.3462 65.8337 20.3794 66.1769 20.4308 66.5175C20.4573 66.7048 20.4688 66.8938 20.4651 67.0829C20.4509 67.5789 20.4624 68.0753 20.4994 68.5701L20.5199 68.9128L20.7358 72.8467V73.1517V73.3916V73.58C20.7358 73.6887 20.7207 73.7974 20.7056 73.9061L20.6981 73.9604C20.6787 74.1297 20.6683 74.3193 20.6577 74.5109L20.6501 74.6458C20.6501 74.8263 20.6419 75.0069 20.6337 75.1868C20.6279 75.3142 20.6221 75.4412 20.6193 75.5676C20.6107 75.8629 20.581 76.1572 20.5302 76.4482V76.6812C20.5473 76.7729 20.5576 76.8657 20.561 76.9588C20.5032 77.382 20.4886 77.8214 20.4741 78.2602L20.4685 78.4255L20.3794 81.0572C20.3801 81.2257 20.3547 81.3934 20.304 81.5541C20.3147 81.897 20.3067 82.2401 20.2801 82.5821C20.255 82.7829 20.2501 83.015 20.2452 83.246C20.2435 83.3304 20.2417 83.4146 20.2389 83.4971L20.1361 86.5572C20.1474 87.2321 20.1719 87.907 20.1962 88.5741C20.2089 88.9232 20.2215 89.2701 20.2321 89.6138C20.2561 90.2306 20.2766 90.8406 20.2321 91.4334V91.7761V92.0091C20.2792 92.1326 20.3002 92.2644 20.2938 92.3964C20.2642 92.8941 20.281 93.4044 20.298 93.9159C20.3026 94.0559 20.3072 94.196 20.3109 94.3359L20.3349 95.0212V95.5901C20.3126 96.009 20.3126 96.4288 20.3349 96.8477L20.4411 99.8598C20.4411 99.974 20.4442 100.088 20.4472 100.202C20.4533 100.431 20.4594 100.659 20.4411 100.888V100.888C20.4411 101.142 20.4411 101.419 20.4582 101.69L20.5234 102.964C20.5369 103.26 20.5312 103.557 20.5062 103.852L20.6193 106.045C20.6562 106.539 20.6677 107.034 20.6536 107.529C20.6488 107.758 20.6557 107.986 20.6741 108.214L20.7358 109.486C20.7526 109.676 20.7594 109.867 20.7564 110.058C20.7332 110.592 20.7622 111.139 20.7911 111.685C20.8007 111.867 20.8103 112.049 20.8181 112.23L20.842 112.693L20.866 113.156C20.8529 113.315 20.8207 113.473 20.7701 113.625H20.6501C20.6356 113.585 20.6275 113.544 20.6262 113.502C20.5919 113.502 20.5542 113.502 20.5336 113.635L19.4611 113.69C19.3685 113.69 19.2794 113.639 19.1938 113.406C19.1739 113.344 19.1624 113.279 19.1595 113.214V112.306C19.1515 112.071 19.1595 111.837 19.1835 111.603C19.2006 111.048 19.1835 110.483 19.1561 109.89C19.1477 109.738 19.1477 109.586 19.1561 109.434C19.1726 108.977 19.1635 108.519 19.1287 108.063L19.0156 105.863C18.9883 105.484 18.9814 105.103 18.995 104.722C19.0098 104.458 18.9926 104.178 18.9754 103.898C18.9688 103.79 18.9621 103.682 18.9573 103.574C18.9537 103.498 18.9498 103.421 18.9458 103.345L18.9458 103.345C18.9242 102.922 18.9027 102.502 18.9231 102.087V102.087C18.9231 101.881 18.9231 101.631 18.9059 101.402L18.8237 99.6645C18.8126 99.3683 18.8229 99.0717 18.8545 98.777L18.7654 96.2137C18.7381 95.6772 18.7381 95.1397 18.7654 94.6032V93.9178L18.7072 92.1702C18.7072 92.0935 18.7049 92.0142 18.7026 91.935C18.698 91.777 18.6935 91.6195 18.7072 91.4848C18.7309 91.0282 18.7309 90.5707 18.7072 90.1141L18.5941 86.797C18.6065 86.1314 18.63 85.4657 18.6535 84.8008C18.669 84.3601 18.6846 83.9198 18.6969 83.4799L18.8511 78.9395C18.854 78.5179 18.8815 78.0968 18.9333 77.6784C18.9533 77.5454 18.9603 77.3866 18.967 77.2364L18.9676 77.2227C18.9847 76.6813 19.0053 76.1433 19.0738 75.6224C19.0892 75.4943 19.0931 75.3431 19.0969 75.1934L19.0969 75.1934C19.0982 75.1429 19.0995 75.0925 19.1013 75.0433L19.1458 73.7651V73.4533V73.299V73.1688V73.0146C19.1458 72.672 19.1458 72.3293 19.1218 71.9866L18.9505 68.8546C18.9333 68.5461 18.9162 68.2275 18.9231 67.9362C18.9318 67.636 18.9146 67.3356 18.8717 67.0384C18.8415 66.8305 18.8277 66.5963 18.8143 66.368L18.8134 66.353L18.577 62.0593C18.577 61.9826 18.5751 61.9056 18.5731 61.8287C18.5693 61.6752 18.5656 61.5223 18.577 61.3739C18.583 61.186 18.5715 60.9978 18.5427 60.812C18.4966 60.5139 18.4828 60.2117 18.5016 59.9107C18.5158 59.6088 18.4939 59.3063 18.4365 59.0095C18.4076 58.8579 18.3892 58.7045 18.3816 58.5503C18.3816 58.2067 18.3458 57.8686 18.3099 57.5308C18.2893 57.3363 18.2686 57.1419 18.2548 56.9466L18.1349 55.3257C18.1178 55.0961 18.1075 54.8597 18.1075 54.6404C18.1066 53.9923 18.0574 53.3451 17.9601 52.7043C17.9122 52.4027 17.8882 52.1012 17.8642 51.7928L17.6723 49.2433L17.6346 48.7806C17.6041 48.6913 17.5812 48.5996 17.5661 48.5065C17.5396 48.3203 17.5247 48.1326 17.5215 47.9445V47.9445C17.5215 47.5367 17.5215 47.1324 17.4907 46.7109C17.4686 46.553 17.4974 46.3921 17.5729 46.2517C17.7614 46.1489 17.9464 46.1763 18.1418 46.6355H18.433C18.481 46.6355 18.529 46.6869 18.577 46.8411C18.7146 46.778 18.8619 46.9117 19.0047 47.0414C19.0325 47.0666 19.0602 47.0918 19.0875 47.1152C19.1793 47.266 19.2279 47.4391 19.228 47.6155L19.276 48.1878C19.2823 48.2462 19.2881 48.3061 19.294 48.3661C19.3104 48.5351 19.327 48.706 19.3548 48.8526C19.4141 49.1746 19.4302 49.503 19.4028 49.8292V50.0554C19.4161 50.2565 19.4165 50.4463 19.4169 50.6377C19.4173 50.841 19.4178 51.0461 19.4337 51.2685C19.4573 51.5031 19.4742 51.7391 19.4912 51.9757L19.4912 51.9757L19.4912 51.9757C19.5012 52.1157 19.5113 52.2558 19.5227 52.3959L19.5399 52.622L19.862 56.9055C19.8685 56.9928 19.8755 57.0803 19.8825 57.1678L19.8825 57.1678L19.8825 57.1678C19.9057 57.4571 19.9289 57.7464 19.9342 58.0315L20.0093 58.0535C20.085 58.0705 20.1562 58.1032 20.2184 58.1495C20.3859 58.2255 20.5637 58.2763 20.7461 58.3002C20.7946 58.3055 20.842 58.3182 20.8866 58.3379C21.0188 58.402 21.1617 58.4415 21.3081 58.4544L21.9934 58.5709C22.1122 58.5857 22.2279 58.6192 22.3361 58.6703C22.4513 58.7154 22.5726 58.7431 22.6959 58.7526C22.854 58.7718 23.0086 58.8134 23.1551 58.8759C23.2234 58.9022 23.2948 58.9195 23.3676 58.9273C23.4248 58.937 23.482 58.9471 23.5394 58.9572C23.664 58.9791 23.7891 59.0011 23.9158 59.0198C24.0111 59.0372 24.102 59.0733 24.1831 59.1261L24.9884 59.2632C25.1597 59.281 25.3273 59.3249 25.4853 59.3934C25.5546 59.4201 25.6272 59.4374 25.7012 59.4448L26.2495 59.5373C26.3224 59.5462 26.3938 59.5646 26.4619 59.5921C26.5968 59.6517 26.7402 59.6898 26.8868 59.7052L28.9737 60.0479L30.4027 60.2877C30.5376 60.2985 30.6697 60.3321 30.7933 60.3871C30.837 60.41 30.8847 60.4239 30.9338 60.4282C31.1048 60.4477 31.2722 60.4915 31.4307 60.5585C31.4878 60.5802 31.5479 60.5929 31.6089 60.5961L32.0133 60.6613C32.0973 60.6757 32.1798 60.6974 32.26 60.7264C32.3633 60.7678 32.4716 60.7954 32.5821 60.8086L33.569 60.9662C33.6672 60.9781 33.7638 61.0011 33.8568 61.0348C33.9462 61.0739 34.0445 61.0881 34.1413 61.0759C34.2141 61.0675 34.2877 61.0675 34.3606 61.0759L35.7313 61.2884C35.8028 61.3005 35.8728 61.32 35.9403 61.3466C35.9964 61.3707 36.0577 61.3802 36.1185 61.374C36.2164 61.358 36.3168 61.3761 36.4029 61.4254C36.4904 61.4709 36.5902 61.4865 36.6873 61.47C36.7348 61.4598 36.7838 61.4598 36.8313 61.47C36.999 61.509 37.1699 61.5331 37.3419 61.5419L37.8524 61.6242C37.9251 61.6363 37.9963 61.6558 38.0649 61.6824C38.2586 61.7635 38.4691 61.7965 38.6783 61.7784C38.777 61.7733 38.876 61.7802 38.973 61.7989L39.7783 61.9257L39.9256 61.9463C39.9556 61.9298 39.988 61.9183 40.0216 61.912C40.0822 61.9091 40.1428 61.9184 40.1998 61.9394C40.22 61.9478 40.2402 61.9558 40.2606 61.9635C40.2622 61.8884 40.2656 61.813 40.2718 61.7371C40.2718 61.4938 40.2718 61.2231 40.2478 60.9661L40.169 59.7325C40.1483 59.4461 40.1483 59.1587 40.169 58.8724L40.032 56.7478L40.0261 56.6569L40.0261 56.6569C39.997 56.2074 39.9679 55.7584 39.984 55.3154C39.9863 55.0935 39.9772 54.8716 39.9566 54.6506L39.8777 53.4204C39.8777 53.3359 39.8713 53.2479 39.865 53.1611L39.865 53.1611V53.1611V53.161V53.161V53.161V53.161V53.1609V53.1609L39.865 53.1608C39.8574 53.0577 39.85 52.9564 39.8538 52.8652C39.8723 52.3359 39.8356 51.7902 39.799 51.2455C39.7882 51.085 39.7774 50.9246 39.7681 50.7647L39.7407 50.3157L39.7398 50.3035C39.7309 50.3037 39.722 50.3032 39.7131 50.3021H39.5281C39.4552 50.2935 39.3816 50.2935 39.3088 50.3021C39.2003 50.3216 39.0885 50.2983 38.9969 50.237H38.9215C38.7957 50.1955 38.6675 50.1612 38.5377 50.1342C38.456 50.1342 38.3758 50.1221 38.295 50.11L38.295 50.11C38.2539 50.1039 38.2127 50.0977 38.1711 50.0931H38.0991L36.7078 49.9354C36.5572 49.9306 36.4081 49.9029 36.2658 49.8532C36.2174 49.8411 36.1668 49.8411 36.1185 49.8532C35.9938 49.87 35.867 49.8522 35.7518 49.8018C35.6968 49.7703 35.632 49.7605 35.5702 49.7744C35.4985 49.7947 35.4226 49.7947 35.3509 49.7744C35.2549 49.7497 35.1577 49.7302 35.0596 49.7161C34.9225 49.6955 34.7855 49.6818 34.645 49.6681L33.9322 49.5859C33.8187 49.5681 33.703 49.5681 33.5895 49.5859C33.5274 49.5959 33.4637 49.59 33.4045 49.5687C33.2522 49.5098 33.0913 49.4763 32.9282 49.4694H32.8151L31.5403 49.3289C31.4234 49.32 31.3082 49.2958 31.1976 49.2569C31.1279 49.2321 31.0554 49.216 30.9817 49.2089C30.8819 49.1925 30.7812 49.181 30.6802 49.1747C30.5824 49.1627 30.488 49.1312 30.4026 49.0822H30.3272C30.3108 49.0822 30.2927 49.0916 30.2762 49.1004C30.2582 49.1098 30.242 49.1183 30.2313 49.113C30.0793 49.0583 29.9198 49.0271 29.7584 49.0205L29.2375 48.9622L28.8435 48.8868C28.8138 48.8837 28.785 48.8746 28.7591 48.8598C28.7331 48.8451 28.7105 48.8251 28.6927 48.8012C28.5763 48.8008 28.4607 48.7823 28.35 48.7463C28.2549 48.713 28.1558 48.6923 28.0553 48.6847L26.1226 48.27C25.9254 48.2426 25.7329 48.1885 25.5504 48.109C25.5153 48.0947 25.4784 48.0854 25.4407 48.0815H25.3653C25.3476 48.0978 25.3256 48.1087 25.302 48.1129C25.2783 48.1172 25.2539 48.1146 25.2317 48.1055C25.0349 48.0224 24.8271 47.9681 24.6148 47.9445L24.3921 47.8999C24.3302 47.891 24.2701 47.8726 24.2139 47.8451C24.088 47.7879 23.9538 47.7509 23.8164 47.7354L22.8501 47.5538C22.7322 47.5386 22.6169 47.5075 22.5074 47.4613C22.4269 47.4281 22.343 47.404 22.2572 47.3893C22.1202 47.3585 21.9831 47.3345 21.846 47.314C21.7482 47.2943 21.6551 47.2559 21.5719 47.2009L20.8694 47.0707C20.7075 47.0498 20.5494 47.006 20.3999 46.9404C20.3309 46.9114 20.2583 46.8918 20.1841 46.8822L19.7763 46.8068C19.7141 46.7996 19.6531 46.7847 19.5947 46.7622C19.3752 46.6724 19.1447 46.6125 18.9093 46.5841L18.7619 46.5566L18.6146 46.5292C18.5608 46.4917 18.5163 46.4425 18.4844 46.3853L18.5084 46.2688C18.5147 46.2655 18.5218 46.2638 18.5289 46.2638C18.5361 46.2638 18.5431 46.2655 18.5495 46.2688C18.5552 46.2508 18.5563 46.2316 18.5527 46.2131C18.5491 46.1945 18.541 46.1771 18.5289 46.1626L18.7243 45.1071C18.731 45.0614 18.7469 45.0174 18.771 44.978C18.7952 44.9385 18.8271 44.9043 18.8648 44.8775C18.886 44.8711 18.9086 44.8711 18.9299 44.8775L19.2143 44.9666C19.2922 44.9848 19.3657 45.0187 19.4302 45.066C19.5994 45.1458 19.7796 45.2001 19.9647 45.2271C20.0145 45.2334 20.063 45.2473 20.1087 45.2682C20.2434 45.3334 20.3882 45.3751 20.537 45.3915L21.2429 45.5252C21.3675 45.5405 21.4889 45.5752 21.6027 45.628C21.7183 45.6769 21.8409 45.707 21.966 45.7171C22.128 45.739 22.2861 45.784 22.4354 45.8507C22.5046 45.8786 22.5772 45.8971 22.6513 45.9055L23.2099 46.0084C23.3068 46.0274 23.3989 46.0659 23.4806 46.1214L24.2996 46.2722C24.4749 46.2926 24.6459 46.3401 24.8067 46.4127C24.8776 46.439 24.9512 46.4574 25.0261 46.4675L25.5846 46.5703C25.6584 46.582 25.7308 46.6016 25.8005 46.6286C25.9384 46.6919 26.0852 46.7335 26.2357 46.752L28.3603 47.146L29.4808 47.3516L29.7653 47.3859C29.9037 47.3907 30.0403 47.4185 30.1696 47.4681C30.2151 47.4883 30.2639 47.5 30.3135 47.5024C30.4891 47.5173 30.6619 47.5553 30.8276 47.6155C30.888 47.6318 30.95 47.641 31.0126 47.6429L31.4272 47.6909C31.5144 47.7015 31.6004 47.7199 31.6842 47.7457C31.7948 47.7845 31.91 47.8087 32.0269 47.8177L33.0549 47.9308C33.155 47.9396 33.2538 47.9591 33.3496 47.989C33.4427 48.0231 33.5428 48.0337 33.6409 48.0199C33.7158 48.0079 33.7922 48.0079 33.8671 48.0199L35.2618 48.1741C35.3352 48.1843 35.4075 48.2015 35.4777 48.2255C35.5382 48.2424 35.6022 48.2424 35.6627 48.2255C35.7616 48.2061 35.8643 48.2206 35.954 48.2666C36.0448 48.3094 36.1475 48.3203 36.2452 48.2974C36.2937 48.2857 36.3442 48.2857 36.3926 48.2974C36.5646 48.3281 36.7388 48.3453 36.9135 48.3488L37.4412 48.4071C37.5158 48.4169 37.5893 48.4341 37.6605 48.4585C37.8621 48.5315 38.0781 48.5561 38.291 48.5305C38.3899 48.5168 38.4902 48.5168 38.5891 48.5305L39.4184 48.623H39.5692C39.5983 48.6041 39.6309 48.5912 39.6651 48.5853C39.7254 48.5765 39.7865 48.5765 39.8468 48.5853C39.9751 48.6311 40.1069 48.6666 40.2408 48.6915C40.2737 48.6996 40.3036 48.7168 40.3272 48.741C40.3508 48.7652 40.3672 48.7956 40.3745 48.8286C40.3841 48.9235 40.3704 49.0192 40.3345 49.1076C40.2987 49.196 40.2418 49.2743 40.1689 49.3357ZM23.7684 47.5744V47.5504C23.7589 47.5552 23.7506 47.5622 23.7444 47.571L23.7684 47.5744ZM40.4911 65.4037H40.4672V65.3421C40.4766 65.362 40.4846 65.3826 40.4911 65.4037ZM106.465 111.473L106.374 111.435C106.42 111.513 106.455 111.597 106.479 111.685L106.393 111.771C106.366 111.765 106.342 111.75 106.325 111.73C106.311 111.748 106.304 111.77 106.304 111.793C106.304 111.816 106.311 111.838 106.325 111.856L105.578 112.627C105.537 112.666 105.485 112.692 105.429 112.7C105.373 112.708 105.316 112.698 105.266 112.672C105.226 112.657 105.189 112.634 105.16 112.603L104.769 112.175C104.665 112.07 104.571 111.955 104.488 111.832C104.264 111.546 104.019 111.277 103.755 111.027C103.681 110.962 103.615 110.89 103.556 110.811C103.376 110.581 103.177 110.366 102.96 110.17L101.952 109.187C101.774 109.02 101.609 108.84 101.459 108.649C101.303 108.46 101.132 108.283 100.948 108.121C100.716 107.909 100.499 107.68 100.3 107.436C100.207 107.323 100.106 107.216 99.9988 107.117L99.2038 106.343C99.068 106.209 98.9462 106.062 98.8406 105.904L97.6721 104.76L97.302 104.396L97.3017 104.396C97.2435 104.334 97.1854 104.273 97.1306 104.208C97.0758 104.143 96.9696 104.023 96.8805 103.923C96.7726 103.803 96.6582 103.689 96.5378 103.581V103.344L96.5104 102.011C96.4983 101.865 96.4983 101.719 96.5104 101.573C96.5395 101.28 96.5464 100.986 96.5309 100.692L96.435 96.4565L96.3699 93.5575C96.3543 93.2878 96.3612 93.0173 96.3905 92.7488C96.3976 92.6518 96.3976 92.5545 96.3905 92.4575C96.3753 92.1146 96.3845 91.7711 96.4179 91.4295C96.4264 91.3074 96.4264 91.1849 96.4179 91.0628V90.2438C96.4075 90.0738 96.4075 89.9033 96.4179 89.7332C96.4316 89.513 96.4316 89.2921 96.4179 89.0719L96.3733 87.0638C96.3629 86.8686 96.3629 86.673 96.3733 86.4778C96.3998 86.2329 96.3998 85.9859 96.3733 85.7411C96.3733 85.6817 96.3663 85.6183 96.3593 85.5553C96.3534 85.5019 96.3475 85.4487 96.3459 85.3984L96.5686 85.2339L98.9674 83.5205C99.0873 83.4349 99.2141 83.356 99.3375 83.2841C99.444 83.2271 99.542 83.1556 99.6287 83.0716C99.767 82.9313 99.928 82.8154 100.105 82.7289C100.278 82.6407 100.435 82.525 100.571 82.3863C100.636 82.3161 100.709 82.2529 100.787 82.1978C100.976 82.0881 101.145 81.9555 101.314 81.8228L101.314 81.8227L101.315 81.8225C101.415 81.7438 101.515 81.6652 101.62 81.5913L102.466 80.9882C102.585 80.9025 102.709 80.8236 102.836 80.7517C103.2 80.5519 103.538 80.3091 103.844 80.0287C103.99 79.8971 104.145 79.7747 104.306 79.662L105.636 78.7094L105.876 78.5346C105.909 78.4821 105.948 78.4338 105.992 78.3907C106.082 78.3109 106.18 78.2397 106.283 78.1782C106.513 78.0514 106.736 77.9178 106.969 77.767C107.082 77.6951 107.233 77.6642 107.274 77.695C107.326 77.7289 107.37 77.767 107.403 77.8119L108.391 77.4825C108.44 77.4654 108.493 77.4632 108.544 77.476C108.594 77.4887 108.64 77.516 108.675 77.5545C108.701 77.5793 108.721 77.6098 108.734 77.6435L108.847 78.1096C108.882 78.2299 108.902 78.3543 108.905 78.4797C108.952 78.7758 109.025 79.0671 109.124 79.3501C109.153 79.4252 109.174 79.5033 109.186 79.5831C109.222 79.8174 109.283 80.0471 109.368 80.2684L109.71 81.3753C109.778 81.5643 109.827 81.7594 109.858 81.9578C109.896 82.1566 109.952 82.3516 110.025 82.5404C110.115 82.7864 110.182 83.0398 110.228 83.2977C110.25 83.4145 110.282 83.5291 110.324 83.6404L110.605 84.5108C110.653 84.6607 110.683 84.8161 110.694 84.9734L111.108 86.255C111.207 86.5206 111.28 86.7948 111.328 87.074C111.351 87.1908 111.384 87.3055 111.427 87.4166L111.708 88.2939C111.75 88.4051 111.782 88.5198 111.804 88.6366C111.846 88.8714 111.912 89.1011 112.003 89.3219L112.875 91.7968L113.737 89.322C113.835 89.0064 113.961 88.7001 114.114 88.4071C114.143 88.3514 114.166 88.2928 114.182 88.2323L114.227 88.1124C114.208 88.041 114.217 87.9653 114.251 87.8999C114.412 87.585 114.546 87.2572 114.652 86.9199L114.778 86.5772C114.813 86.4795 114.854 86.3845 114.902 86.2928C115.011 86.0923 115.1 85.881 115.166 85.6622L115.717 84.1202C115.776 83.9432 115.85 83.7713 115.937 83.6062C116.001 83.4764 116.058 83.3425 116.105 83.2053C116.187 82.9894 116.266 82.7735 116.338 82.5542C116.39 82.4008 116.464 82.2555 116.557 82.1224L116.954 80.9984C117.037 80.7421 117.141 80.4934 117.266 80.2548C117.322 80.1447 117.369 80.0301 117.407 79.9122L117.64 79.2611C117.668 79.1607 117.706 79.0632 117.753 78.9698C117.931 78.6198 118.079 78.2552 118.195 77.8801L118.281 77.6436L118.363 77.4038C118.417 77.3278 118.485 77.2617 118.562 77.2084L118.671 77.2496C118.68 77.2716 118.68 77.2961 118.671 77.3181C118.692 77.3256 118.715 77.3267 118.736 77.3212C118.757 77.3157 118.777 77.3039 118.791 77.2873L119.819 77.6299C119.869 77.6472 119.913 77.6789 119.945 77.7209C119.978 77.7629 119.997 77.8135 120.001 77.8664C120.007 77.9015 120.007 77.9375 120.001 77.9726L119.802 78.4249C119.754 78.5456 119.694 78.6606 119.62 78.7676C119.471 79.0388 119.347 79.3233 119.25 79.6174C119.227 79.6972 119.195 79.7742 119.154 79.847C119.034 80.0645 118.938 80.2943 118.867 80.5324L118.442 81.6461C118.377 81.8423 118.295 82.0326 118.198 82.2149C118.105 82.4009 118.028 82.5947 117.969 82.794C117.886 83.0503 117.782 83.2991 117.657 83.5376C117.601 83.6478 117.554 83.7624 117.516 83.8803L117.201 84.7679C117.148 84.9205 117.075 85.0656 116.985 85.1996L116.519 86.5052C116.43 86.7836 116.315 87.0532 116.177 87.3105C116.122 87.4208 116.076 87.5354 116.039 87.6532L115.721 88.5441C115.682 88.6619 115.633 88.7764 115.577 88.8868C115.461 89.1058 115.365 89.3353 115.292 89.5722L114.107 92.9646L113.702 94.1372L113.963 94.8733C114.046 95.0788 114.108 95.2924 114.148 95.5106C114.159 95.5905 114.18 95.6687 114.21 95.7436C114.309 96.0075 114.385 96.2791 114.439 96.5558C114.464 96.6546 114.495 96.7519 114.532 96.8471L114.758 97.481C114.805 97.6143 114.842 97.7505 114.871 97.8888C114.908 98.0671 114.958 98.2424 115.022 98.4131L115.573 99.9723C115.628 100.124 115.673 100.28 115.707 100.438C115.733 100.595 115.786 100.747 115.861 100.887C115.916 100.997 115.962 101.112 115.998 101.23L116.728 103.44C116.765 103.553 116.796 103.667 116.821 103.783C116.838 103.88 116.871 103.974 116.92 104.06C116.998 104.201 117.047 104.356 117.064 104.516C117.084 104.675 117.137 104.828 117.218 104.965C117.261 105.032 117.295 105.105 117.318 105.181C117.397 105.453 117.491 105.721 117.599 105.983L117.873 106.795C117.911 106.907 117.942 107.022 117.965 107.138C118.031 107.477 118.147 107.805 118.308 108.111C118.38 108.255 118.441 108.405 118.49 108.56L118.925 109.838L119.007 110.067C119.042 110.106 119.073 110.147 119.099 110.191C119.141 110.283 119.174 110.378 119.199 110.475C119.237 110.689 119.287 110.901 119.35 111.109C119.381 111.215 119.35 111.346 119.312 111.373C119.228 111.444 119.12 111.481 119.01 111.476C118.9 111.471 118.796 111.424 118.719 111.346L118.445 111.435C118.397 111.435 118.346 111.435 118.287 111.366C118.119 111.421 117.938 111.421 117.77 111.366C117.705 111.366 117.636 111.267 117.588 111.143L117.486 110.862C117.447 110.751 117.4 110.642 117.345 110.537C117.258 110.386 117.209 110.215 117.205 110.04L117.167 109.927C117.138 109.834 117.122 109.743 117.106 109.652L117.106 109.652C117.086 109.537 117.065 109.422 117.019 109.303C116.965 109.162 116.925 109.042 116.886 108.922L116.886 108.921L116.885 108.921C116.866 108.861 116.846 108.801 116.824 108.738L116.786 108.625L116.043 106.487C115.956 106.264 115.889 106.035 115.841 105.801C115.823 105.724 115.794 105.651 115.755 105.582C115.662 105.404 115.6 105.212 115.573 105.013C115.564 104.914 115.533 104.818 115.484 104.732C115.424 104.626 115.382 104.51 115.361 104.389C115.323 104.235 115.279 104.078 115.231 103.923L115.015 103.286L114.641 102.186C114.586 102.014 114.513 101.847 114.425 101.689C114.379 101.601 114.346 101.506 114.329 101.408C114.284 101.149 114.213 100.896 114.117 100.651L114.059 100.479L113.373 98.5193C113.309 98.3503 113.258 98.176 113.223 97.9985C113.199 97.8819 113.167 97.7674 113.127 97.6558L113.127 97.6555C113.075 97.5014 113.024 97.3473 112.966 97.1966C112.912 97.0486 112.879 96.8942 112.866 96.7374L112.825 96.6209C112.817 96.6101 112.807 96.5986 112.798 96.5868L112.784 96.5702C112.728 96.7015 112.666 96.8305 112.599 96.9568C112.553 97.0515 112.515 97.1501 112.486 97.2515L112.256 97.9026C112.209 98.0398 112.153 98.1738 112.088 98.3035C112.005 98.4712 111.933 98.644 111.873 98.821L111.311 100.428C111.257 100.586 111.192 100.739 111.115 100.887C111.035 101.029 110.978 101.183 110.947 101.343C110.918 101.459 110.881 101.574 110.838 101.686L110.015 103.869C109.972 103.986 109.92 104.101 109.861 104.211C109.812 104.301 109.778 104.398 109.758 104.499C109.727 104.661 109.666 104.816 109.577 104.955C109.49 105.095 109.432 105.251 109.405 105.414C109.396 105.494 109.375 105.573 109.344 105.647C109.23 105.915 109.13 106.188 109.045 106.466L108.73 107.292C108.686 107.409 108.636 107.523 108.579 107.635C108.408 107.944 108.283 108.276 108.206 108.621C108.169 108.783 108.119 108.941 108.059 109.094L107.569 110.393L107.476 110.636C107.481 110.689 107.481 110.742 107.476 110.794C107.45 110.893 107.415 110.99 107.37 111.082C107.261 111.279 107.163 111.481 107.075 111.688C107.031 111.791 106.931 111.88 106.876 111.873C106.771 111.869 106.67 111.825 106.594 111.751C106.519 111.677 106.473 111.578 106.465 111.473ZM104.968 109.972C105.193 110.246 105.433 110.508 105.687 110.756C105.688 110.704 105.699 110.641 105.718 110.575L105.821 110.283C105.862 110.172 105.895 110.057 105.92 109.941C105.951 109.765 106.023 109.599 106.133 109.458L106.177 109.341C106.214 109.253 106.258 109.173 106.303 109.093C106.363 108.985 106.424 108.876 106.465 108.748C106.515 108.595 106.563 108.472 106.611 108.348C106.633 108.292 106.655 108.236 106.678 108.176L106.722 108.063L107.541 105.887C107.617 105.65 107.715 105.421 107.832 105.202C107.869 105.129 107.895 105.052 107.908 104.972C107.948 104.77 108.025 104.578 108.134 104.403C108.192 104.318 108.23 104.221 108.247 104.119C108.268 103.999 108.308 103.883 108.367 103.776C108.435 103.629 108.504 103.478 108.566 103.324L108.809 102.68L109.23 101.559C109.298 101.387 109.35 101.209 109.385 101.028C109.404 100.927 109.439 100.829 109.491 100.74C109.628 100.506 109.743 100.259 109.834 100.003L109.895 99.825L110.598 97.8101C110.655 97.634 110.727 97.4632 110.814 97.2995C110.868 97.1882 110.916 97.0738 110.958 96.9568C111.016 96.8026 111.074 96.645 111.122 96.4839C111.176 96.3316 111.248 96.1866 111.338 96.0522L111.379 95.9356C111.371 95.8834 111.371 95.8303 111.379 95.778C111.5 95.5406 111.6 95.2929 111.677 95.0378L112 94.1185C111.932 93.9709 111.876 93.8175 111.835 93.6602C111.796 93.5032 111.744 93.3497 111.681 93.201L110.601 90.1443C110.482 89.8457 110.394 89.5357 110.337 89.2191C110.324 89.1597 110.307 89.1013 110.286 89.0443L110.248 88.9279C110.19 88.8848 110.151 88.821 110.139 88.7497C110.079 88.4109 109.988 88.0783 109.868 87.7559L109.755 87.4132C109.724 87.3178 109.698 87.2205 109.679 87.1219C109.645 86.9021 109.589 86.6863 109.511 86.4777L109.021 84.9357C108.963 84.7635 108.919 84.5871 108.888 84.408C108.86 84.269 108.825 84.1317 108.782 83.9967L108.741 83.8712L108.741 83.8704C108.686 83.6991 108.63 83.5264 108.573 83.3559C108.528 83.201 108.505 83.0408 108.504 82.8796L108.144 81.7762C108.053 81.5298 107.987 81.2749 107.945 81.0155C107.922 80.8986 107.889 80.784 107.846 80.6728L107.64 80.0354C107.605 79.9405 107.576 79.8431 107.555 79.7441C107.535 79.6395 107.514 79.5355 107.489 79.432C107.478 79.4426 107.466 79.4532 107.454 79.4638C107.444 79.4716 107.435 79.4794 107.425 79.4872L107.13 79.7065C107.009 79.7882 106.895 79.8787 106.787 79.9773C106.638 80.1262 106.459 80.2429 106.263 80.3199L106.143 80.4022C106.048 80.4686 105.95 80.5217 105.852 80.575C105.728 80.6427 105.602 80.7107 105.482 80.8065C105.338 80.9208 105.212 81.0076 105.086 81.0944C105.024 81.1378 104.961 81.1812 104.896 81.228L104.776 81.3137L102.545 82.914C102.314 83.0957 102.069 83.2585 101.812 83.4006C101.73 83.4516 101.654 83.5113 101.585 83.5788C101.41 83.7449 101.21 83.8836 100.993 83.99C100.883 84.0407 100.783 84.1103 100.698 84.1956C100.596 84.2971 100.48 84.3847 100.355 84.456L100.325 84.474C100.169 84.5682 100.004 84.6682 99.8652 84.7713L99.2004 85.2476L98.0559 86.07L98.0147 86.1009V86.1214C98.0114 86.1278 98.0097 86.1348 98.0097 86.142C98.0097 86.1492 98.0114 86.1562 98.0147 86.1626V86.1968C98.0147 86.1978 98.0139 86.1981 98.0124 86.1985C98.0043 86.201 97.977 86.2092 97.977 86.3956V86.8753V87.0981L98.0353 89.6133C98.0439 89.8328 98.037 90.0527 98.0147 90.2712C98.006 90.4162 98.006 90.5615 98.0147 90.7064V91.2993C98.0213 91.4888 98.0064 91.6785 97.9702 91.8647V92.012C97.9907 92.0699 98.0056 92.1295 98.0147 92.1902C97.9821 92.5032 97.9753 92.8184 97.9942 93.1326L98.0319 94.8185C98.0372 94.9283 98.0197 95.038 97.9805 95.1407C98.0065 95.3578 98.0133 95.5768 98.001 95.7952C97.9891 95.9914 97.9891 96.1883 98.001 96.3846L98.0901 100.305C98.1103 100.694 98.1012 101.085 98.0627 101.473C98.0575 101.546 98.0575 101.62 98.0627 101.693V101.843C98.1076 101.917 98.1268 102.004 98.1175 102.09C98.0969 102.273 98.0866 102.457 98.0867 102.642V102.878L98.121 102.909L98.2683 103.056C98.3569 103.14 98.4393 103.229 98.515 103.324C98.6805 103.536 98.864 103.733 99.0633 103.913L100.434 105.284C100.595 105.434 100.745 105.595 100.883 105.767C100.99 105.898 101.104 106.023 101.226 106.141C101.418 106.336 101.613 106.528 101.812 106.713C101.947 106.847 102.069 106.996 102.175 107.155L103.179 108.135C103.412 108.346 103.628 108.576 103.826 108.82C103.921 108.932 104.021 109.039 104.128 109.139L104.711 109.708C104.802 109.79 104.888 109.878 104.968 109.972ZM115.327 85.5526H115.347C115.35 85.539 115.35 85.525 115.347 85.5115L115.327 85.5526ZM109.611 86.2824H109.587L109.577 86.2584L109.611 86.2824ZM20.2287 97.0842H20.2526V97.1493C20.2431 97.1281 20.2351 97.1064 20.2287 97.0842ZM24.471 60.5139V60.4899C24.4603 60.4945 24.4509 60.5015 24.4436 60.5105L24.471 60.5139ZM73.0829 103.821L73.2577 104.051C73.2741 104.069 73.2859 104.091 73.2918 104.115C73.2978 104.139 73.2979 104.164 73.2919 104.188C73.3957 104.318 73.4758 104.465 73.5284 104.623C73.5393 104.652 73.5406 104.685 73.532 104.715C73.5233 104.745 73.5053 104.772 73.4804 104.791L73.3639 104.89C73.3164 104.931 73.2738 104.977 73.2371 105.027C73.2133 105.067 73.1803 105.101 73.141 105.125C73.1017 105.149 73.0571 105.164 73.0109 105.168L72.963 105.206C72.9219 105.235 72.8753 105.253 72.8288 105.271C72.7706 105.293 72.7124 105.316 72.6648 105.36C72.6032 105.416 72.547 105.459 72.4909 105.501L72.4616 105.523L72.4463 105.535L72.425 105.552L72.377 105.589L71.4552 106.312C71.3637 106.4 71.2568 106.469 71.1399 106.518C71.105 106.539 71.0756 106.569 71.0543 106.604C70.9944 106.691 70.906 106.755 70.8041 106.785C70.7784 106.791 70.7541 106.801 70.7329 106.817C70.7116 106.832 70.6938 106.852 70.6808 106.874C70.6497 106.93 70.5999 106.972 70.5403 106.994C70.4683 107.035 70.3963 107.08 70.3278 107.128L70.0536 107.34L69.5808 107.711C69.5056 107.769 69.4408 107.84 69.3889 107.92C69.3599 107.963 69.318 107.997 69.2689 108.015C69.142 108.065 69.0257 108.138 68.9263 108.231L68.8543 108.29L68.0113 108.951C67.9383 109.012 67.8562 109.062 67.768 109.098C67.7111 109.123 67.6571 109.154 67.607 109.191L67.5607 109.227L67.5605 109.227C67.5099 109.267 67.4588 109.307 67.4116 109.349C67.345 109.401 67.2659 109.435 67.182 109.448L67.1341 109.489C67.1341 109.516 67.1341 109.561 67.0998 109.568C66.9732 109.618 66.857 109.691 66.7571 109.784L66.1883 110.226C66.1698 110.243 66.1473 110.256 66.1228 110.262C66.0982 110.269 66.0725 110.269 66.0478 110.263C66.0243 110.284 66.0038 110.306 65.9834 110.328L65.9833 110.328C65.9409 110.374 65.8989 110.42 65.8319 110.445C65.7572 110.483 65.689 110.533 65.6297 110.592L64.3173 111.62C64.193 111.734 64.049 111.823 63.8924 111.884C63.8651 111.899 63.8398 111.918 63.817 111.939L63.7656 111.98C63.7656 112.021 63.7656 112.069 63.7142 112.083C63.549 112.152 63.3971 112.25 63.2653 112.371C63.2185 112.413 63.1693 112.452 63.1179 112.487C63.0759 112.521 63.0298 112.548 62.9808 112.57C62.8729 112.611 62.7739 112.672 62.6896 112.751L62.0419 113.258C61.9696 113.319 61.8888 113.369 61.802 113.406C61.7343 113.436 61.6708 113.475 61.6136 113.522L61.6134 113.522C61.5209 113.591 61.4285 113.659 61.3394 113.735C61.2738 113.787 61.1961 113.823 61.1133 113.838L60.6438 114.208C60.5421 114.298 60.4263 114.371 60.3011 114.424C60.2437 114.45 60.1905 114.484 60.1435 114.526C60.1199 114.544 60.0964 114.563 60.0728 114.582L60.0319 114.615L60.0318 114.615C59.9795 114.657 59.9267 114.699 59.8728 114.739C59.8357 114.777 59.7914 114.807 59.7426 114.828C59.5592 114.914 59.3914 115.03 59.2457 115.171L59.1463 115.246L59.0469 115.325C58.9906 115.338 58.9319 115.338 58.8756 115.325L58.8002 115.232C58.7974 115.226 58.796 115.22 58.796 115.213C58.796 115.207 58.7974 115.2 58.8002 115.195C58.7784 115.166 58.7466 115.146 58.7111 115.14C58.6198 115.025 58.5291 114.909 58.4385 114.793C58.308 114.627 58.1778 114.461 58.0463 114.297C57.9862 114.229 57.9533 114.141 57.9538 114.05C57.9545 114.04 57.9572 114.029 57.9619 114.02C57.9642 114.015 57.9668 114.011 57.9698 114.007C57.9731 114.003 57.977 113.999 57.9812 113.995C58.0269 113.965 58.0756 113.939 58.1243 113.912L58.1509 113.898C58.1664 113.889 58.1818 113.881 58.1971 113.872C58.2509 113.831 58.315 113.806 58.3821 113.8C58.5289 113.742 58.6655 113.661 58.7865 113.56C58.8162 113.53 58.8526 113.508 58.8927 113.495C58.9599 113.47 59.024 113.437 59.0839 113.398C59.0589 113.364 59.0375 113.304 59.0195 113.21C58.856 113.269 58.6926 113.066 58.5529 112.893L58.5329 112.868C58.4565 112.704 58.4246 112.523 58.4404 112.343V111.757C58.4404 111.528 58.4404 111.278 58.4198 111.072C58.3938 110.738 58.4088 110.402 58.4643 110.071V109.842C58.4643 109.635 58.4837 109.442 58.5033 109.247C58.524 109.04 58.5449 108.832 58.5432 108.605V107.447V107.217L58.6117 102.82C58.607 102.35 58.6299 101.88 58.6802 101.412C58.6922 101.26 58.6922 101.108 58.6802 100.956C58.66 100.57 58.676 100.182 58.7282 99.7981C58.7556 99.6086 58.7625 99.4168 58.7487 99.2258C58.7303 98.9977 58.7303 98.7686 58.7487 98.5405C58.7727 98.2321 58.7933 97.9202 58.8036 97.6084L58.8447 96.3028L58.9098 94.0446V92.9994C58.8909 92.8068 58.8909 92.6129 58.9098 92.4203C58.9407 92.1736 58.9612 91.92 58.9715 91.6664L58.9955 90.9811L58.9681 90.7138L58.5192 86.7147C58.478 86.3721 58.4438 86.0294 58.4335 85.6662C58.4335 85.4576 58.4079 85.2203 58.3845 85.0036V85.0036V85.0036L58.3821 84.9808C58.3512 84.669 58.317 84.3537 58.2759 84.0419C58.2408 83.7417 58.2271 83.4394 58.2347 83.1372L58.2107 82.9008C58.1783 82.8092 58.1531 82.7153 58.1354 82.6198C58.1199 82.1176 58.0776 81.6165 58.0086 81.1188L57.8304 79.5083L57.9023 78.2781C57.906 78.1046 57.9349 77.9327 57.988 77.7675C57.9876 77.4242 58.0047 77.081 58.0394 76.7395C58.0677 76.5462 58.0781 76.3238 58.0886 76.1011V76.101C58.0933 76 58.0981 75.8989 58.1045 75.8005L58.5055 69.5159L58.5534 68.714L58.5877 68.3165V68.1212C58.5877 68.0663 58.5877 67.967 58.6083 67.967C58.6107 67.958 58.6107 67.9485 58.6083 67.9396V67.871V67.7374V67.3947V67.1583C58.5618 67.0322 58.5397 66.8985 58.5432 66.7642C58.5759 66.1418 58.546 65.5007 58.5164 64.8647L58.5123 64.7767L58.4815 64.0639V63.4814C58.5037 63.0533 58.5037 62.6244 58.4815 62.1963L58.3547 59.1123C58.3547 58.9992 58.3521 58.8862 58.3494 58.7723V58.7722V58.7721V58.772V58.7718V58.7717V58.7716V58.7715V58.7713C58.3441 58.5402 58.3386 58.3056 58.3547 58.0602V57.2447L58.3341 56.5902C58.3341 56.4425 58.3133 56.2948 58.2924 56.147C58.2828 56.0789 58.2732 56.0107 58.2656 55.9425C58.2365 55.6419 58.2274 55.3397 58.2382 55.0378L58.0154 52.8036C57.9547 52.302 57.9193 51.7976 57.9092 51.2924C57.9092 51.138 57.8905 50.9594 57.8725 50.7868L57.8724 50.7867V50.7867C57.8661 50.7256 57.8597 50.6653 57.8544 50.607L57.7242 49.3152C57.7189 49.2557 57.7125 49.1947 57.706 49.1336L57.706 49.1335C57.6911 48.9937 57.6762 48.8531 57.6762 48.7292C57.6762 48.1772 57.6188 47.6153 57.5612 47.051L57.5612 47.0508L57.5611 47.05C57.5429 46.872 57.5247 46.6938 57.5083 46.5155L57.4603 46.046L57.4123 45.5731C57.4211 45.4102 57.4451 45.2484 57.4843 45.09H57.6042C57.6209 45.1292 57.6313 45.1709 57.6351 45.2133C57.6693 45.2133 57.707 45.1928 57.7207 45.0728L58.7899 44.9666C58.8824 44.9666 58.9749 45.0112 59.0709 45.2442C59.094 45.3071 59.109 45.3727 59.1154 45.4395L59.1737 46.3682C59.1906 46.6077 59.1906 46.8482 59.1737 47.0878C59.1737 47.66 59.2216 48.2392 59.2867 48.8354C59.3062 48.9901 59.3176 49.1456 59.321 49.3015C59.3268 49.7688 59.3577 50.2355 59.4135 50.6996L59.6397 52.9441L59.6407 52.9543V52.9543V52.9543V52.9544V52.9544V52.9545V52.9545V52.9546V52.9546C59.6781 53.3451 59.7151 53.7322 59.7151 54.1126C59.7151 54.3767 59.7443 54.6457 59.7737 54.9162V54.9162V54.9163V54.9163V54.9163V54.9163V54.9164V54.9164V54.9164L59.7737 54.9165L59.7737 54.9166L59.7738 54.9167L59.7738 54.9167L59.7738 54.9168L59.7738 54.9169L59.7738 54.917L59.7738 54.917C59.7871 55.0393 59.8004 55.1619 59.8111 55.2846C59.8798 55.7875 59.9095 56.2951 59.9001 56.8026V57.5085L59.9721 59.287C59.9846 59.5898 59.9778 59.8931 59.9515 60.1951L60.0578 62.8166L60.0652 62.9833V62.9834V62.9835V62.9836V62.9837V62.9838V62.9839V62.984V62.9841C60.0873 63.4798 60.1095 63.9748 60.0818 64.4614V65.1673L60.1571 66.9527C60.1571 67.0316 60.1598 67.1128 60.1625 67.1939V67.194V67.194V67.1941V67.1941V67.1942V67.1942V67.1943V67.1943C60.1678 67.356 60.1731 67.5172 60.1571 67.6586V67.8196V68.0149L60.1297 68.3199L60.1092 68.5906L60.0749 69.1355L59.6877 75.8999L59.5026 79.4535L59.6054 80.3684C59.6625 80.7947 59.698 81.2236 59.7117 81.6534C59.7139 81.8081 59.7242 81.9625 59.7425 82.116L59.744 82.129L59.744 82.129C59.8052 82.6763 59.866 83.2202 59.8762 83.7506C59.8762 83.8792 59.894 84.0256 59.9117 84.1705C59.9185 84.2264 59.9253 84.2822 59.931 84.3366L60.0749 85.6387L60.082 85.7089C60.1074 85.9582 60.1337 86.2163 60.14 86.4543C60.14 86.7242 60.1698 86.9942 60.2008 87.2758C60.2092 87.3517 60.2177 87.4285 60.2257 87.5063L60.5684 90.6966L60.5923 90.9159V91.334C60.5923 91.4608 60.5923 91.5842 60.5649 91.7041C60.5296 92.01 60.5216 92.3185 60.541 92.6259V93.3112L60.4141 97.7078C60.4141 97.9442 60.3902 98.1807 60.3662 98.3931C60.3553 98.53 60.3521 98.6674 60.3568 98.8046L60.9386 98.3315C61.0139 98.2545 61.1051 98.1948 61.2058 98.1567C61.2378 98.1407 61.2633 98.114 61.2778 98.0813C61.3013 98.0429 61.3322 98.0095 61.3687 97.9831C61.4051 97.9566 61.4464 97.9376 61.4903 97.9271C61.5124 97.9229 61.5332 97.9136 61.551 97.8999C61.5689 97.8862 61.5833 97.8685 61.5931 97.8483C61.6184 97.8004 61.6596 97.7628 61.7096 97.742C61.7728 97.7101 61.8335 97.6734 61.8912 97.6324C61.9495 97.5893 62.0059 97.5425 62.0618 97.4961C62.0815 97.4797 62.1011 97.4634 62.1208 97.4474C62.251 97.3377 62.3846 97.2315 62.5183 97.1252C62.5803 97.0746 62.6326 97.013 62.6725 96.9436C62.694 96.9039 62.7294 96.8734 62.7719 96.8579C62.8823 96.8199 62.9829 96.7579 63.0666 96.6763L63.1317 96.6249L63.8376 96.0527C63.8966 95.9974 63.9667 95.9553 64.0432 95.9293C64.0922 95.9078 64.1382 95.8802 64.1803 95.8471C64.2381 95.8063 64.293 95.7616 64.3448 95.7134C64.4017 95.6674 64.4707 95.6389 64.5435 95.6312L64.5846 95.5969C64.5846 95.5729 64.5846 95.5284 64.6086 95.5249C64.7168 95.4848 64.815 95.4216 64.8965 95.3399L65.3728 94.9561C65.39 94.9414 65.4106 94.9312 65.4327 94.9264C65.4548 94.9217 65.4778 94.9224 65.4996 94.9287C65.5185 94.9119 65.5346 94.8927 65.5507 94.8734C65.5841 94.8333 65.6177 94.793 65.6778 94.7745C65.7409 94.7427 65.7978 94.6997 65.8457 94.6477L66.9491 93.7499C67.0528 93.6522 67.1752 93.5764 67.3089 93.5271C67.3326 93.5155 67.3545 93.5005 67.374 93.4826L67.4151 93.4483C67.4151 93.4072 67.4151 93.3627 67.4562 93.3524C67.5981 93.2961 67.7274 93.2122 67.8366 93.1057L67.96 93.0063C67.9943 92.9765 68.0338 92.9532 68.0765 92.9377C68.17 92.905 68.2554 92.8524 68.3266 92.7835L68.8681 92.3449C68.9286 92.2908 68.9982 92.2479 69.0737 92.2181C69.1317 92.1941 69.186 92.1618 69.2347 92.1222C69.3147 92.0651 69.3901 92.0034 69.4609 91.9371C69.5182 91.8918 69.5871 91.8633 69.6596 91.8549L70.0537 91.5328C70.1373 91.4512 70.238 91.3892 70.3484 91.3511C70.3979 91.3296 70.4431 91.2994 70.4821 91.2621L70.7082 91.077C70.7395 91.045 70.7768 91.0194 70.8179 91.0016C70.974 90.9352 71.1167 90.8412 71.2394 90.7241L71.3216 90.6555L71.4073 90.587C71.461 90.5832 71.5148 90.5914 71.5649 90.611L71.6403 90.7035V90.7378C71.65 90.7527 71.6625 90.7655 71.6773 90.7755C71.692 90.7855 71.7085 90.7925 71.726 90.796L71.8506 90.9492C72.0354 91.1766 72.2211 91.4049 72.4113 91.6287C72.4716 91.6948 72.5078 91.7793 72.5141 91.8686C72.5183 91.8759 72.5206 91.8842 72.5206 91.8926C72.5206 91.901 72.5183 91.9093 72.5141 91.9166C72.4822 91.9372 72.4481 91.9559 72.4138 91.9747C72.3855 91.9902 72.3569 92.0058 72.3291 92.0228C72.2809 92.0543 72.2255 92.0732 72.168 92.0776C72.0408 92.1201 71.924 92.189 71.8254 92.2798C71.8016 92.3063 71.7706 92.3253 71.7363 92.3346C71.6332 92.3671 71.5393 92.4234 71.4621 92.4991L71.068 92.8212C71.0012 92.8816 70.9232 92.9281 70.8384 92.9583C70.7562 92.9937 70.6817 93.045 70.6191 93.1091C70.5341 93.1888 70.4339 93.2506 70.3244 93.2907C70.2756 93.3115 70.2313 93.3418 70.1942 93.3798L70.1938 93.3801C70.0877 93.4623 69.9816 93.5444 69.8824 93.6334C69.8243 93.6774 69.7558 93.7057 69.6836 93.7156L69.2244 94.0857C69.1358 94.1758 69.0281 94.2449 68.9092 94.2879C68.8593 94.3086 68.8139 94.3388 68.7755 94.377C68.7329 94.411 68.6904 94.4463 68.6475 94.4817C68.587 94.5319 68.5259 94.5824 68.4637 94.6305C68.4238 94.6658 68.3788 94.6947 68.3301 94.7162C68.2282 94.753 68.135 94.8102 68.0559 94.8841L66.8668 95.8505L66.0136 96.4981C65.9433 96.5683 65.8577 96.6211 65.7634 96.6523C65.7288 96.6639 65.6963 96.6813 65.6675 96.7038C65.5752 96.7893 65.4669 96.8556 65.3488 96.8991C65.3077 96.9168 65.2704 96.9424 65.2391 96.9745C65.2195 96.9905 65.1998 97.0069 65.1801 97.0232L65.18 97.0233C65.1241 97.0697 65.0678 97.1165 65.0095 97.1595C64.9608 97.1991 64.9065 97.2315 64.8485 97.2555C64.7735 97.2862 64.704 97.329 64.6429 97.3822L64.0809 97.838C64.0269 97.8862 63.9656 97.9255 63.8993 97.9545C63.831 97.9778 63.7737 98.0254 63.7382 98.0882C63.7104 98.1333 63.6743 98.1728 63.632 98.2046C63.5649 98.2592 63.4979 98.314 63.4308 98.3688L63.4305 98.369L63.4303 98.3691L63.4301 98.3693L63.4299 98.3695C63.24 98.5246 63.0497 98.68 62.8575 98.8318C62.8159 98.8645 62.7697 98.8911 62.7205 98.9106C62.6782 98.9263 62.6429 98.9567 62.6211 98.9962C62.6048 99.0289 62.5812 99.0573 62.552 99.0793C62.5229 99.1013 62.4891 99.1163 62.4532 99.123C62.418 99.1306 62.3851 99.1463 62.3571 99.1689C62.3292 99.1916 62.3069 99.2204 62.2921 99.2533L62.2889 99.2597C62.2728 99.2921 62.2559 99.3261 62.227 99.3389C62.1553 99.3705 62.1018 99.4255 62.0481 99.4807L62.0481 99.4807L62.048 99.4807C62.0145 99.5152 61.9808 99.5498 61.9426 99.5788C61.8851 99.6224 61.8298 99.6684 61.7743 99.7146L61.7741 99.7147L61.7209 99.7588C61.698 99.7777 61.6749 99.7966 61.6513 99.8152C61.6097 99.848 61.5635 99.8745 61.5143 99.8941C61.3715 99.9481 61.251 100.048 61.1716 100.178C61.1308 100.237 61.0811 100.289 61.0242 100.333L60.5308 100.699L60.4485 100.768C60.4458 100.795 60.4389 100.822 60.428 100.847C60.4016 100.881 60.3676 100.909 60.3286 100.929L60.3114 100.936C60.3156 101.048 60.3133 101.16 60.3045 101.272C60.2702 101.666 60.2709 102.056 60.2716 102.447C60.2719 102.603 60.2722 102.76 60.2702 102.916L60.2428 104.578C60.2428 104.815 60.2257 105.055 60.2051 105.264C60.1452 105.923 60.1349 106.587 60.1743 107.248C60.1948 107.56 60.1914 107.872 60.1743 108.187L60.1332 110.801V111.278C60.1555 111.37 60.1704 111.464 60.1777 111.559C60.1898 111.752 60.1898 111.945 60.1777 112.138C60.1621 112.309 60.1483 112.48 60.1362 112.653C60.1614 112.633 60.1855 112.612 60.2086 112.59C60.3098 112.499 60.4257 112.426 60.5513 112.374C60.6081 112.349 60.6602 112.314 60.7055 112.272C60.8323 112.176 60.9556 112.08 61.079 111.977C61.146 111.927 61.2233 111.893 61.3052 111.877L61.8534 111.446C61.9619 111.347 62.0872 111.268 62.2235 111.213C62.2807 111.185 62.3338 111.149 62.3812 111.106L62.7547 110.815C62.8011 110.772 62.8544 110.738 62.9123 110.712C63.0311 110.667 63.1403 110.599 63.2344 110.514L64.6497 109.396L65.6229 108.636C65.7063 108.556 65.8055 108.494 65.9141 108.454C65.9539 108.44 65.9909 108.419 66.0238 108.392C66.1348 108.294 66.2625 108.216 66.4007 108.163C66.4471 108.14 66.4898 108.109 66.5275 108.074C66.5584 108.05 66.5888 108.025 66.6193 108.001C66.6802 107.952 66.7411 107.904 66.8051 107.858C66.8626 107.814 66.9246 107.776 66.9901 107.745C67.0777 107.709 67.1588 107.659 67.23 107.597L67.9154 107.07C67.9784 107.015 68.0488 106.969 68.1244 106.933C68.2034 106.903 68.2708 106.849 68.3163 106.778C68.3547 106.729 68.3997 106.685 68.4499 106.648L69.3717 105.922C69.4214 105.884 69.4755 105.853 69.5328 105.829C69.5825 105.81 69.6245 105.775 69.6527 105.73C69.6747 105.694 69.7036 105.663 69.7377 105.638C69.7718 105.613 69.8105 105.596 69.8515 105.586C69.8921 105.574 69.93 105.555 69.9629 105.528C69.9959 105.502 70.0232 105.469 70.0434 105.432L70.0488 105.423L70.0488 105.423C70.0682 105.39 70.0909 105.352 70.1222 105.339C70.2454 105.258 70.3602 105.165 70.4649 105.062C70.521 105.019 70.5764 104.974 70.6314 104.93L70.6317 104.93C70.6906 104.882 70.7491 104.835 70.8075 104.791C70.8566 104.752 70.9108 104.719 70.9686 104.695C71.1369 104.623 71.2808 104.504 71.3832 104.352C71.435 104.286 71.4962 104.227 71.5649 104.178L72.1097 103.746L72.2091 103.667V103.667C72.2091 103.64 72.2091 103.605 72.2399 103.585C72.2733 103.544 72.314 103.511 72.3599 103.485C72.4655 103.443 72.5665 103.39 72.6614 103.328C72.6868 103.311 72.7166 103.302 72.7471 103.302C72.7776 103.302 72.8074 103.311 72.8328 103.328C72.9065 103.388 72.9668 103.463 73.0098 103.548C73.0529 103.633 73.0778 103.726 73.0829 103.821ZM58.6083 61.8913H58.5843L58.5808 61.8262C58.5914 61.8473 58.6006 61.8691 58.6083 61.8913ZM93.2254 103.263C93.1672 103.184 93.1089 103.108 93.0473 103.033C93.0481 102.935 93.0273 102.838 92.9864 102.75C92.9456 102.661 92.8856 102.582 92.8108 102.519C92.7855 102.502 92.7556 102.493 92.7251 102.493C92.6946 102.493 92.6648 102.502 92.6395 102.519C92.5434 102.58 92.4425 102.632 92.3379 102.677C92.2912 102.699 92.2502 102.732 92.218 102.773C92.1871 102.793 92.1871 102.831 92.1871 102.858L92.0878 102.937L91.5395 103.365C91.4716 103.416 91.4106 103.474 91.3579 103.54C91.2557 103.692 91.1117 103.811 90.9432 103.883C90.8854 103.907 90.8312 103.94 90.7822 103.979L90.7151 104.034L90.715 104.034L90.715 104.034C90.6264 104.106 90.5351 104.181 90.4395 104.25C90.3357 104.354 90.2208 104.447 90.0968 104.527C90.0688 104.538 90.0476 104.57 90.0277 104.6L90.023 104.607L90.0146 104.62C89.9944 104.657 89.9671 104.69 89.9341 104.716C89.9012 104.742 89.8633 104.762 89.8227 104.774C89.7409 104.796 89.6702 104.847 89.6239 104.918C89.5966 104.963 89.5541 104.997 89.504 105.014C89.4473 105.04 89.3933 105.072 89.3429 105.11L89.3424 105.11C89.0342 105.35 88.7259 105.59 88.4211 105.833C88.3709 105.87 88.3259 105.914 88.2875 105.963C88.242 106.034 88.1746 106.088 88.0956 106.117C88.0194 106.154 87.9481 106.2 87.8831 106.254L87.8128 106.307C87.5994 106.469 87.3986 106.621 87.1978 106.778C87.1248 106.84 87.0427 106.89 86.9545 106.926C86.889 106.957 86.827 106.995 86.7694 107.039C86.7055 107.085 86.6445 107.133 86.5836 107.182L86.546 107.212C86.528 107.226 86.51 107.241 86.4919 107.255C86.4536 107.29 86.411 107.32 86.3651 107.344C86.2276 107.398 86.1002 107.474 85.9881 107.57C85.956 107.598 85.9188 107.619 85.8785 107.632C85.7694 107.673 85.6694 107.734 85.5838 107.813L84.614 108.574L83.1919 109.688C83.0968 109.772 82.9878 109.839 82.8698 109.887C82.8124 109.911 82.7593 109.945 82.7122 109.986L82.3387 110.277C82.2932 110.322 82.2397 110.358 82.181 110.383C82.0447 110.438 81.9194 110.517 81.8109 110.616L81.2627 111.048C81.1793 111.062 81.1005 111.097 81.0331 111.148C80.9411 111.224 80.8451 111.298 80.7497 111.372L80.7496 111.372L80.7495 111.372L80.7494 111.372L80.663 111.439C80.6206 111.477 80.5732 111.509 80.5221 111.534C80.5201 111.444 80.519 111.354 80.519 111.264C80.5104 111.071 80.4921 110.879 80.4641 110.688C80.4463 110.594 80.4211 110.501 80.3887 110.411L80.3442 109.938L80.1009 107.337C80.0735 107.022 80.0426 106.713 79.9878 106.405C79.8763 105.752 79.8145 105.091 79.8028 104.428C79.7993 104.219 79.7856 103.975 79.7651 103.742L79.6109 102.087C79.5972 101.93 79.5732 101.717 79.556 101.587V100.717C79.5972 100.769 79.6456 100.815 79.7 100.854C79.7209 100.873 79.7473 100.885 79.7755 100.889C79.8038 100.893 79.8325 100.888 79.8577 100.874C79.9414 100.817 80.031 100.769 80.1249 100.73C80.1642 100.708 80.1982 100.678 80.2243 100.641C80.2449 100.621 80.2449 100.586 80.2449 100.559L80.3271 100.487L80.7966 100.089C80.8543 100.043 80.904 99.9874 80.9439 99.9249C81.0239 99.7911 81.1437 99.6857 81.2866 99.6234C81.3373 99.6003 81.3846 99.5703 81.4271 99.5343C81.4766 99.4933 81.5261 99.4515 81.5757 99.4096L81.5762 99.4091C81.6259 99.3672 81.6756 99.3252 81.7252 99.2841C81.7622 99.2535 81.795 99.2181 81.8277 99.1827C81.8828 99.1231 81.9378 99.0637 82.0131 99.0271C82.0439 99.0134 82.0782 98.9723 82.0782 98.938C82.0943 98.9044 82.1172 98.8746 82.1456 98.8504C82.1739 98.8262 82.207 98.8082 82.2427 98.7975C82.2792 98.7889 82.3134 98.7725 82.3429 98.7494C82.3725 98.7264 82.3967 98.6972 82.414 98.6639C82.4238 98.6431 82.4376 98.6246 82.4547 98.6093C82.4717 98.594 82.4917 98.5822 82.5134 98.5748C82.5638 98.5512 82.611 98.5212 82.6539 98.4857L83.4386 97.8175C83.4815 97.7815 83.5196 97.74 83.5517 97.6941C83.5858 97.6279 83.6431 97.5766 83.7127 97.5502C83.7798 97.5196 83.8412 97.4779 83.8944 97.4268C84.0286 97.3255 84.1597 97.2097 84.2908 97.0937L84.291 97.0935L84.2913 97.0932C84.3508 97.0407 84.4103 96.9881 84.47 96.9368C84.5315 96.8806 84.6023 96.8354 84.6791 96.8032C84.7375 96.7755 84.7917 96.7398 84.8401 96.6969C84.8914 96.6585 84.9399 96.6161 84.9883 96.5739C85.0176 96.5483 85.0469 96.5227 85.0766 96.4982C85.1084 96.4649 85.1454 96.4371 85.1863 96.4159C85.3065 96.3664 85.4168 96.2956 85.5118 96.2069C85.5395 96.1812 85.5721 96.1613 85.6077 96.1486C85.7038 96.1141 85.7906 96.0578 85.8613 95.9842L86.6906 95.2783L87.8968 94.2502C87.9761 94.1716 88.0706 94.1099 88.1744 94.0686C88.2253 94.0463 88.2717 94.015 88.3114 93.9761C88.3765 93.9232 88.4392 93.8692 88.5015 93.8153L88.5018 93.8151C88.5262 93.794 88.5505 93.773 88.575 93.7522C88.5933 93.7365 88.6117 93.7209 88.6301 93.7054C88.6694 93.6642 88.7158 93.6305 88.7672 93.606C88.8891 93.5586 88.9991 93.4849 89.0893 93.3901L89.5554 92.9926C89.6288 92.9805 89.6976 92.9485 89.7541 92.9001C89.8569 92.8076 89.9631 92.7185 90.0728 92.6294C90.1104 92.5895 90.1559 92.558 90.2064 92.5369C90.3178 92.4906 90.419 92.4231 90.5046 92.3381C90.5692 92.2699 90.6459 92.2141 90.7307 92.1736C90.8176 92.1428 90.8961 92.0924 90.9603 92.0263L91.3647 91.6836C91.4413 91.6025 91.5366 91.5413 91.6422 91.5054C91.677 91.4914 91.7085 91.4704 91.7348 91.4437C91.8337 91.3492 91.9501 91.2747 92.0774 91.2244C92.137 91.2175 92.1937 91.195 92.2419 91.1593C92.2689 91.1437 92.3024 91.1227 92.3338 91.1031L92.334 91.103C92.3783 91.0753 92.4184 91.0502 92.4304 91.0462C92.451 91.0394 92.451 91.0119 92.451 90.9948C92.4428 90.9057 92.4041 90.8221 92.3413 90.7584L91.656 89.9428C91.6217 89.9356 91.5912 89.9161 91.5703 89.888C91.5726 89.8826 91.5737 89.8767 91.5737 89.8709C91.5737 89.865 91.5726 89.8591 91.5703 89.8537L91.4915 89.7612C91.4384 89.7494 91.3834 89.7494 91.3304 89.7612L91.2447 89.8331L91.1591 89.9051C91.0365 90.0316 90.8912 90.1339 90.7307 90.2067C90.689 90.2264 90.6517 90.2544 90.6211 90.2889L90.3881 90.4842C90.3487 90.5245 90.3022 90.557 90.251 90.5802C90.1389 90.6251 90.0374 90.6928 89.9529 90.7789L89.5519 91.1216C89.4783 91.133 89.4093 91.1651 89.3532 91.2141C89.2778 91.2827 89.199 91.3478 89.1202 91.4129C89.0696 91.4535 89.0144 91.488 88.9557 91.5157C88.8789 91.5495 88.8083 91.5958 88.7467 91.6527L88.1949 92.1222C88.1235 92.1958 88.037 92.2531 87.9413 92.2901C87.8988 92.3074 87.8594 92.3318 87.8249 92.3621C87.7803 92.3964 87.7392 92.4341 87.6981 92.4717C87.5861 92.5825 87.4549 92.6719 87.3108 92.7356C87.2697 92.7493 87.2697 92.7939 87.2697 92.835L87.2286 92.8727C87.2194 92.8779 87.2113 92.8861 87.2032 92.8943C87.1901 92.9075 87.177 92.9206 87.1601 92.9206C87.0232 92.9772 86.8987 93.0598 86.7934 93.164L85.6763 94.12C85.6262 94.1753 85.5671 94.2216 85.5015 94.2571C85.4428 94.2774 85.4094 94.3186 85.3758 94.3599C85.3584 94.3814 85.3409 94.4029 85.3199 94.4216C85.297 94.4168 85.2733 94.4174 85.2507 94.4234C85.2282 94.4293 85.2072 94.4404 85.1897 94.4558L84.7099 94.867C84.6264 94.952 84.526 95.0185 84.4152 95.0624C84.3912 95.0692 84.3912 95.1138 84.3912 95.1378L84.3467 95.1755C84.273 95.1869 84.2041 95.219 84.1479 95.268C84.0931 95.316 84.0383 95.3639 83.9766 95.4085C83.9361 95.4455 83.8898 95.4756 83.8395 95.4976C83.7608 95.528 83.6886 95.5734 83.6271 95.6312L82.9109 96.2446L82.8458 96.2994C82.7622 96.386 82.6604 96.4527 82.5476 96.4947C82.5031 96.5117 82.4664 96.5447 82.4448 96.5873C82.405 96.6607 82.3515 96.7258 82.2872 96.7792L81.8863 97.1219C81.8543 97.1483 81.8228 97.1753 81.7912 97.2024C81.7451 97.2421 81.6987 97.282 81.6498 97.3206C81.5913 97.3653 81.5295 97.4054 81.4648 97.4405C81.4137 97.463 81.3723 97.5032 81.3483 97.5536C81.3384 97.5748 81.3236 97.5932 81.3051 97.6075C81.2866 97.6218 81.265 97.6316 81.2421 97.6359C81.1971 97.648 81.1551 97.6691 81.1185 97.6979C81.082 97.7268 81.0517 97.7628 81.0296 97.8038C81.0262 97.8089 81.0227 97.8144 81.0191 97.8202C81.0009 97.8492 80.9799 97.8826 80.9542 97.8826C80.8517 97.9256 80.7594 97.9899 80.6835 98.0711L79.8988 98.7564L79.8577 98.7907C79.837 98.8083 79.8166 98.8246 79.7962 98.8409C79.7492 98.8786 79.7023 98.9162 79.652 98.9689C79.6174 99.0051 79.5749 99.0255 79.5313 99.0438C79.5576 98.7578 79.5555 98.4699 79.5252 98.1842C79.508 97.9927 79.508 97.8 79.5252 97.6085V96.9232L79.4635 92.5266L79.4603 92.4148V92.4147C79.455 92.2249 79.4492 92.0212 79.4293 91.8413C79.4035 91.5346 79.4035 91.2262 79.4293 90.9195V89.984L79.395 86.7731C79.371 86.4065 79.371 86.0638 79.395 85.7211C79.4121 85.4642 79.4121 85.1764 79.4121 84.9023V84.9021V83.5965V83.0071C79.4464 82.4725 79.4464 81.9243 79.4464 81.3691V80.9031C79.4785 80.4744 79.4865 80.0442 79.4704 79.6146V78.6826L79.7205 75.0468L80.2003 68.3201L80.238 67.7718L80.262 67.5011L80.2962 67.1789V66.9699V66.8123C80.2979 66.7146 80.2885 66.6025 80.2787 66.4851C80.2688 66.3677 80.2585 66.2452 80.2585 66.1269L80.118 64.3553L80.1094 64.2481C80.0939 64.0554 80.0769 63.8457 80.0769 63.67C80.0861 63.1885 80.0459 62.6988 80.0054 62.2058V62.2057V62.2057V62.2057V62.2056V62.2056L79.9912 62.032L79.7856 59.4345C79.8059 59.1333 79.8059 58.831 79.7856 58.5298L79.6451 56.765L79.6371 56.6632C79.6222 56.4763 79.6074 56.2915 79.6074 56.0797V55.3258V54.5651C79.6074 54.4335 79.6055 54.3015 79.6036 54.1699L79.6036 54.1695C79.5998 53.9071 79.596 53.6463 79.6074 53.3931C79.6188 53.1399 79.6151 52.8822 79.6113 52.6229L79.6112 52.6225C79.6093 52.4924 79.6074 52.3619 79.6074 52.2314L79.5629 49.9869C79.5428 49.5221 79.5485 49.0565 79.58 48.5922C79.5887 48.437 79.5887 48.2814 79.58 48.1262C79.5629 47.53 79.5732 46.9543 79.6074 46.3888C79.6388 46.1514 79.6537 45.9121 79.652 45.6726V44.7474C79.6498 44.6813 79.6394 44.6157 79.6212 44.5521C79.5458 44.3122 79.4567 44.254 79.3641 44.254L78.2916 44.2779C78.2642 44.4082 78.2299 44.4082 78.1956 44.4082C78.1957 44.3648 78.1876 44.3217 78.1716 44.2814H78.0517C77.999 44.436 77.9623 44.5956 77.942 44.7577V45.234V45.7069C77.9452 45.8429 77.949 45.979 77.9528 46.1151C77.9698 46.7265 77.9869 47.3373 77.942 47.9343V48.5203L77.966 49.8225V50.5249C77.9403 51.0318 77.9403 51.5396 77.966 52.0464L78.0106 54.2944C77.9753 54.5968 77.9616 54.9014 77.9695 55.2059V55.8604L78.0208 56.5115L78.0276 56.6179L78.0276 56.6181V56.6181V56.6182V56.6183V56.6184C78.0429 56.8588 78.0586 57.1033 78.0586 57.327C78.0586 57.6766 78.0825 58.0398 78.1099 58.3825L78.3533 61.4666C78.397 61.8946 78.4187 62.3247 78.4184 62.755C78.4166 62.8451 78.4239 62.9452 78.4315 63.0479V63.0479V63.0479V63.0479C78.4385 63.1443 78.4458 63.243 78.4458 63.3375L78.5006 64.0503L78.5173 64.265L78.5173 64.2651C78.5638 64.8616 78.6103 65.4569 78.6103 66.0413C78.6103 66.1765 78.6371 66.3105 78.6891 66.4353L78.7096 66.6718C78.7302 66.7814 78.7302 66.9082 78.7302 67.0145C78.7346 67.0841 78.7346 67.1539 78.7302 67.2235C78.7293 67.2349 78.7293 67.2463 78.7302 67.2578V67.3571L78.7096 67.5525L78.6719 67.95L78.6137 68.7518L78.1819 75.0091C78.1763 75.0938 78.1718 75.1807 78.1672 75.2681L78.1672 75.2682L78.1672 75.2684L78.1671 75.2686L78.1671 75.2688C78.1548 75.503 78.1424 75.7401 78.1099 75.9446C78.072 76.286 78.0514 76.6291 78.0483 76.9726C77.9909 77.1358 77.9585 77.3068 77.9523 77.4798L77.8701 78.6826L77.8872 80.2486C77.8876 80.3033 77.8881 80.358 77.8887 80.4127C77.8891 80.4495 77.8896 80.4864 77.89 80.5232V80.5233V80.5233V80.5234V80.5235V80.5236V80.5236V80.5236V80.5237V80.5237C77.8948 80.9364 77.8997 81.3492 77.8632 81.7529C77.8689 81.849 77.8838 81.9442 77.9078 82.0373V82.2738C77.8672 82.5735 77.85 82.876 77.8564 83.1785V84.1242V84.8096C77.8358 85.1557 77.8358 85.5189 77.8358 85.8616L77.8804 89.8846V90.2273C77.8999 90.7334 77.8919 91.2401 77.8564 91.7453C77.8394 91.938 77.8394 92.1318 77.8564 92.3245C77.8906 92.6671 77.9146 93.0098 77.9146 93.3525L77.9455 95.6039L77.9626 96.9095V97.8415C77.948 98.07 77.9538 98.2994 77.9797 98.5269C78.002 98.717 78.002 98.909 77.9797 99.0992C77.9438 99.4844 77.9438 99.8722 77.9797 100.257C77.9896 100.409 77.9896 100.561 77.9797 100.713C77.9592 100.867 77.9592 101.025 77.9592 101.183V101.183V101.7L78.0071 102.207L78.4184 106.556L78.4389 106.785C78.4528 106.927 78.4654 107.07 78.4779 107.212L78.4779 107.212C78.4992 107.454 78.5205 107.696 78.5486 107.933C78.5796 108.183 78.5821 108.412 78.5846 108.64V108.64C78.5866 108.816 78.5885 108.99 78.6034 109.174L78.624 109.403C78.601 109.737 78.6229 110.073 78.6891 110.401C78.7219 110.568 78.7439 110.759 78.7653 110.946C78.7707 110.993 78.7761 111.04 78.7816 111.086L78.8398 111.665C78.8429 111.846 78.895 112.022 78.9906 112.176C79.0216 112.201 79.0527 112.229 79.0838 112.256L79.0838 112.256C79.1404 112.306 79.197 112.356 79.2531 112.394L79.1655 112.463C79.0728 112.55 78.9631 112.617 78.8434 112.659C78.8036 112.672 78.7674 112.695 78.7371 112.724C78.6175 112.827 78.4806 112.908 78.3328 112.964C78.2665 112.972 78.2031 112.995 78.1477 113.032L78.1021 113.058L78.1016 113.058C78.0441 113.091 77.9859 113.124 77.9319 113.159C77.9168 113.172 77.907 113.191 77.9044 113.211C77.9033 113.301 77.9363 113.389 77.9969 113.457C78.1516 113.652 78.3046 113.849 78.4572 114.045L78.4582 114.047C78.525 114.132 78.5917 114.218 78.6583 114.304C78.6764 114.307 78.6936 114.313 78.7089 114.324C78.7242 114.334 78.7373 114.347 78.7474 114.362V114.396L78.8194 114.492C78.8768 114.506 78.9367 114.506 78.9941 114.492L79.0935 114.413L79.1929 114.338C79.3391 114.202 79.5071 114.092 79.6898 114.012C79.7367 113.988 79.7805 113.958 79.82 113.923L79.8204 113.923C79.9094 113.851 79.9983 113.779 80.0907 113.711C80.1377 113.669 80.1909 113.634 80.2483 113.608C80.3742 113.556 80.4901 113.483 80.591 113.392L81.0605 113.022C81.1443 113.009 81.2234 112.975 81.2901 112.923C81.3792 112.847 81.4683 112.775 81.5642 112.707C81.6217 112.663 81.6837 112.625 81.7492 112.594C81.8375 112.557 81.9196 112.508 81.9925 112.446L82.6402 111.939C82.7264 111.863 82.8249 111.801 82.9315 111.758C82.981 111.739 83.0273 111.712 83.0686 111.679L83.2193 111.562C83.3499 111.441 83.5007 111.344 83.6648 111.274C83.7196 111.261 83.7196 111.213 83.7196 111.172L83.7676 111.13C83.7923 111.111 83.8186 111.094 83.8464 111.079C84.0016 111.015 84.1452 110.926 84.2713 110.815C84.5618 110.586 84.8553 110.358 85.1488 110.129C85.2951 110.015 85.4413 109.901 85.5872 109.787C85.6467 109.728 85.7149 109.678 85.7894 109.64C85.8543 109.617 85.8944 109.573 85.9344 109.529C85.9436 109.519 85.9528 109.508 85.9623 109.499C85.9748 109.486 85.9877 109.473 86.0019 109.462C86.0271 109.467 86.0532 109.466 86.0781 109.459C86.103 109.453 86.1262 109.441 86.1458 109.424L86.7112 108.982C86.8113 108.89 86.9274 108.816 87.0539 108.766C87.0881 108.763 87.0881 108.715 87.0881 108.687L87.1395 108.649C87.2219 108.633 87.2993 108.598 87.3657 108.547C87.4289 108.492 87.4953 108.44 87.5645 108.392C87.614 108.354 87.6681 108.322 87.7255 108.297C87.8128 108.262 87.8938 108.213 87.9654 108.153L88.8084 107.491L88.8837 107.433C88.984 107.341 89.1001 107.268 89.2264 107.217C89.2761 107.2 89.3184 107.166 89.3464 107.121C89.3983 107.042 89.4632 106.973 89.5383 106.916C89.6456 106.836 89.7499 106.753 89.8542 106.67L89.92 106.617C89.9503 106.593 89.9807 106.569 90.0112 106.545L90.2853 106.333C90.354 106.284 90.4261 106.241 90.5012 106.203C90.5578 106.177 90.6055 106.136 90.6382 106.083C90.6511 106.06 90.6689 106.04 90.6902 106.025C90.7115 106.009 90.7358 105.999 90.7616 105.994C90.8629 105.963 90.9509 105.899 91.0118 105.812C91.0323 105.775 91.0633 105.746 91.1009 105.726C91.2177 105.678 91.3246 105.608 91.4161 105.521L92.3379 104.801L92.3859 104.764C92.414 104.741 92.4413 104.721 92.4685 104.701C92.5208 104.662 92.5728 104.624 92.6292 104.572C92.6769 104.528 92.7341 104.505 92.7915 104.482C92.8371 104.464 92.8829 104.446 92.9239 104.417L92.9753 104.38C93.0214 104.376 93.066 104.361 93.1054 104.337C93.1447 104.312 93.1777 104.279 93.2015 104.239C93.2373 104.188 93.2799 104.142 93.3283 104.102L93.4448 104.003C93.4696 103.984 93.4877 103.957 93.4963 103.927C93.5049 103.897 93.5037 103.864 93.4927 103.835C93.4415 103.676 93.3613 103.529 93.2563 103.4C93.263 103.376 93.2636 103.351 93.2582 103.327C93.2529 103.303 93.2416 103.281 93.2254 103.263ZM78.4526 61.1136H78.4766C78.469 61.0902 78.4598 61.0673 78.4492 61.0451L78.4526 61.1136ZM88.3217 92.1942V92.1771V92.1668C88.3222 92.1695 88.3225 92.1723 88.3227 92.1752C88.323 92.1815 88.3227 92.1879 88.3217 92.1942ZM126.577 115.725H126.285C126.234 115.725 126.189 115.663 126.155 115.499C126.006 115.559 125.856 115.394 125.718 115.242L125.685 115.205L125.658 115.177C125.576 115.009 125.538 114.822 125.549 114.635V114.029V114.029C125.549 113.789 125.549 113.528 125.508 113.316C125.465 112.975 125.465 112.629 125.508 112.288V112.048C125.508 111.857 125.519 111.676 125.53 111.494C125.544 111.257 125.558 111.019 125.549 110.76C125.536 110.476 125.533 110.188 125.529 109.901L125.529 109.897C125.528 109.783 125.527 109.67 125.525 109.557V109.543L125.425 109.458C125.388 109.428 125.358 109.391 125.337 109.348C125.316 109.305 125.305 109.258 125.305 109.211C125.306 109.186 125.316 109.161 125.333 109.142L125.519 108.97L125.453 104.746C125.453 104.582 125.449 104.418 125.444 104.255C125.436 103.928 125.428 103.601 125.453 103.279C125.455 103.12 125.446 102.961 125.425 102.803C125.379 102.402 125.369 101.999 125.398 101.596C125.42 101.398 125.42 101.198 125.398 101C125.369 100.762 125.358 100.521 125.367 100.281V99.3074L125.322 97.9367L125.244 95.5894C125.244 95.2159 125.206 94.8595 125.165 94.5031C125.14 94.3031 125.132 94.1013 125.141 93.9C125.164 93.5554 125.156 93.2032 125.148 92.8495C125.145 92.6721 125.141 92.4943 125.141 92.3168V91.9433V87.7387C125.141 87.3652 125.141 87.0019 125.172 86.6421C125.172 86.5212 125.178 86.3914 125.184 86.2591L125.184 86.2587C125.189 86.1437 125.194 86.0269 125.196 85.9122V84.9253C125.193 84.6102 125.212 84.2953 125.254 83.983V83.7328C125.231 83.6349 125.217 83.5351 125.213 83.4347C125.256 82.9765 125.252 82.5184 125.248 82.0384L125.247 81.8618V80.4534C125.247 80.152 125.26 79.852 125.273 79.5516L125.273 79.551L125.273 79.5505L125.273 79.5499C125.28 79.383 125.287 79.2159 125.292 79.0485C125.295 78.8685 125.322 78.6898 125.374 78.5173C125.365 78.1537 125.377 77.7899 125.408 77.4276C125.435 77.222 125.441 76.984 125.447 76.7461C125.45 76.6469 125.452 76.5478 125.456 76.451L125.713 69.9401C125.728 69.3704 125.768 68.8059 125.808 68.2553L125.826 68.0006V67.6339V67.3872C125.78 67.2541 125.759 67.1135 125.765 66.9726C125.797 66.5157 125.786 66.0588 125.775 65.6019C125.77 65.3734 125.765 65.145 125.765 64.9165V64.1763V63.5698C125.787 63.2803 125.78 62.9832 125.772 62.6836C125.768 62.5328 125.765 62.3814 125.765 62.2299L125.682 59.0157V57.9191V57.0693V55.6986C125.685 55.3821 125.708 55.0662 125.751 54.7528L125.775 52.4089V52.4087C125.775 51.8776 125.775 51.3465 125.833 50.8291C125.852 50.6542 125.854 50.4487 125.856 50.2492C125.856 50.1986 125.856 50.1485 125.857 50.0993V48.7286C125.857 48.5229 125.857 48.2968 125.874 48.1151C125.931 47.5496 125.935 46.9667 125.94 46.3824V46.3822V46.3819V46.3815V46.3811C125.941 46.1869 125.943 45.9926 125.946 45.7987V45.3052V44.8118C125.972 44.6438 126.013 44.4785 126.07 44.3183H126.189C126.204 44.3613 126.21 44.4067 126.207 44.4519C126.244 44.4519 126.279 44.4519 126.309 44.3183H127.382C127.474 44.3183 127.56 44.3869 127.632 44.637C127.647 44.7046 127.653 44.7735 127.653 44.8426L127.608 45.809C127.603 46.058 127.582 46.3065 127.543 46.5526C127.492 47.142 127.461 47.7416 127.464 48.3653C127.466 48.5266 127.459 48.6879 127.444 48.8485C127.4 49.3315 127.38 49.8164 127.385 50.3014L127.361 52.6453C127.361 53.0531 127.361 53.4575 127.313 53.855C127.279 54.1388 127.28 54.4314 127.281 54.7252V54.7253V54.7253V54.7254V54.7265C127.281 54.8437 127.281 54.9612 127.279 55.0783C127.279 55.6095 127.262 56.1372 127.231 56.658V57.3879L127.279 59.2418C127.286 59.5564 127.274 59.8712 127.241 60.1842L127.313 62.9084C127.313 63.1007 127.318 63.2929 127.322 63.4846L127.322 63.4852C127.33 63.8674 127.339 64.2477 127.313 64.6218V65.3551L127.358 67.2159V67.9492C127.358 68.1101 127.343 68.2951 127.329 68.4782L127.329 68.4785L127.329 68.4794C127.323 68.5455 127.318 68.6113 127.313 68.6757L127.279 69.4124L127.024 75.8323L127.122 75.7452C127.14 75.7273 127.162 75.7144 127.187 75.7078C127.212 75.7012 127.237 75.7011 127.262 75.7075C127.386 75.593 127.531 75.5055 127.69 75.4505C127.724 75.4399 127.761 75.4394 127.795 75.4492C127.829 75.4589 127.859 75.4784 127.882 75.5053L128.013 75.639C128.064 75.6935 128.121 75.7418 128.184 75.7829C128.232 75.8097 128.275 75.846 128.309 75.8896C128.343 75.9331 128.368 75.9831 128.383 76.0365L128.431 76.0947C128.5 76.2135 128.577 76.3279 128.66 76.4374C128.714 76.4888 128.763 76.5439 128.813 76.599C128.846 76.6357 128.88 76.6725 128.914 76.7081L128.962 76.7629L129.925 77.791C130.035 77.8912 130.131 78.0066 130.209 78.1336C130.238 78.1744 130.275 78.2083 130.319 78.233C130.425 78.3034 130.509 78.4019 130.562 78.5174C130.586 78.5763 130.629 78.6249 130.685 78.6545C130.75 78.6934 130.804 78.7475 130.843 78.8121C130.899 78.8957 130.959 78.9758 131.025 79.052C131.08 79.1151 131.137 79.177 131.194 79.2385C131.233 79.2804 131.272 79.3221 131.309 79.3638L131.803 79.895C131.88 79.979 131.967 80.0527 132.063 80.1143C132.118 80.1459 132.163 80.1922 132.193 80.2479C132.273 80.3922 132.373 80.5239 132.491 80.6386L132.57 80.7243L133.451 81.6735C133.532 81.7547 133.601 81.847 133.656 81.9476C133.696 82.0127 133.742 82.0736 133.794 82.1292C133.859 82.2046 133.927 82.28 133.999 82.352C134.068 82.4262 134.12 82.5136 134.153 82.609L134.205 82.6638C134.236 82.6638 134.287 82.6844 134.297 82.7049C134.378 82.8473 134.48 82.9767 134.599 83.0887L134.599 83.089L134.599 83.0891C134.794 83.3014 134.99 83.5138 135.195 83.7192C135.238 83.7606 135.264 83.817 135.267 83.8769C135.294 83.9041 135.324 83.9277 135.355 83.9513L135.355 83.9514C135.412 83.9962 135.47 84.0416 135.51 84.1133C135.569 84.1964 135.638 84.2713 135.716 84.3361L137.128 85.7856C137.276 85.9236 137.404 86.0816 137.508 86.255C137.529 86.286 137.553 86.3148 137.58 86.3407L137.635 86.3955C137.659 86.3919 137.684 86.395 137.706 86.4047C137.729 86.4144 137.748 86.4302 137.762 86.4504C137.873 86.6354 138.012 86.8028 138.173 86.9472L138.334 87.1117C138.378 87.1567 138.417 87.2061 138.45 87.2591C138.52 87.3806 138.608 87.4905 138.711 87.5846L139.396 88.2974C139.478 88.3771 139.55 88.4669 139.609 88.5647C139.658 88.6378 139.713 88.7065 139.773 88.7703C139.869 88.8731 139.969 88.9759 140.068 89.0718C140.14 89.1434 140.195 89.23 140.229 89.3254L140.736 89.8428C140.857 89.9542 140.96 90.0823 141.045 90.2232C141.086 90.2877 141.135 90.3465 141.192 90.398L141.483 90.6995C141.532 90.7403 141.574 90.7876 141.61 90.84C141.738 91.0431 141.894 91.2276 142.073 91.3883L142.179 91.498L142.285 91.6076C142.308 91.6688 142.316 91.7346 142.309 91.7995L142.223 91.8852C142.215 91.8857 142.207 91.8843 142.199 91.8814C142.194 91.8792 142.188 91.8762 142.184 91.8724C142.182 91.871 142.18 91.8696 142.179 91.868C142.164 91.8801 142.153 91.8954 142.146 91.9127C142.139 91.93 142.136 91.9488 142.138 91.9674L141.926 92.1748C141.929 92.1991 141.932 92.2237 141.932 92.2485L142.148 92.4438C142.168 92.4611 142.183 92.4838 142.191 92.5093C142.199 92.5348 142.2 92.562 142.193 92.5877C142.322 92.6969 142.423 92.8356 142.487 92.9921C142.5 93.027 142.503 93.0649 142.495 93.1014C142.487 93.1378 142.469 93.1712 142.443 93.1977L142.316 93.3519C142.264 93.4134 142.218 93.48 142.179 93.5506C142.129 93.6594 142.039 93.7451 141.929 93.7905L141.874 93.8488C141.826 93.8997 141.771 93.9395 141.714 93.9805C141.652 94.025 141.588 94.0707 141.531 94.1332C141.469 94.2013 141.421 94.2573 141.375 94.3112L141.375 94.3113C141.34 94.3522 141.306 94.3919 141.267 94.4347L141.216 94.4964L140.208 95.6375C140.11 95.7662 139.994 95.8814 139.866 95.9802C139.825 96.0151 139.792 96.0583 139.77 96.107C139.707 96.2272 139.612 96.3279 139.496 96.3983C139.436 96.4326 139.388 96.4839 139.359 96.5456C139.325 96.6194 139.273 96.6832 139.208 96.7307C139.125 96.8016 139.046 96.8771 138.971 96.9568C138.869 97.0665 138.773 97.1796 138.673 97.2995L138.156 97.8889C138.073 97.9785 138.003 98.0788 137.947 98.187C137.918 98.2491 137.873 98.3024 137.817 98.3412C137.671 98.4434 137.542 98.5671 137.433 98.7079L137.354 98.8004L136.429 99.8284C136.35 99.9232 136.26 100.008 136.161 100.082C136.097 100.131 136.037 100.186 135.983 100.247C135.908 100.326 135.836 100.409 135.767 100.493C135.697 100.575 135.61 100.641 135.514 100.689L135.459 100.75C135.459 100.785 135.459 100.839 135.425 100.85C135.283 100.954 135.156 101.077 135.048 101.216L134.431 101.919C134.392 101.97 134.334 102.005 134.27 102.015C134.207 102.12 134.129 102.215 134.037 102.296C133.954 102.367 133.881 102.447 133.818 102.536L132.389 104.177C132.253 104.347 132.097 104.499 131.923 104.629C131.891 104.656 131.862 104.685 131.837 104.718L131.806 104.811C131.809 104.836 131.807 104.862 131.798 104.886C131.789 104.91 131.774 104.931 131.755 104.948C131.569 105.087 131.403 105.251 131.261 105.435L131.1 105.623C131.055 105.673 131.006 105.719 130.953 105.76C130.824 105.846 130.708 105.952 130.61 106.072L129.925 106.881C129.846 106.975 129.758 107.06 129.661 107.134C129.585 107.192 129.516 107.259 129.455 107.333C129.352 107.443 129.253 107.557 129.157 107.676C129.086 107.757 129 107.825 128.904 107.874L128.379 108.443C128.271 108.583 128.143 108.707 127.999 108.81C127.935 108.861 127.878 108.92 127.828 108.985L127.529 109.327C127.49 109.383 127.443 109.433 127.389 109.475C127.329 109.522 127.271 109.571 127.215 109.622C127.225 109.838 127.23 110.047 127.235 110.266L127.279 113.008V113.501C127.302 113.598 127.319 113.697 127.331 113.796C127.342 113.997 127.342 114.198 127.331 114.399C127.307 114.831 127.289 115.262 127.289 115.711C127.303 115.881 127.264 116.05 127.18 116.198C126.926 116.266 126.741 116.225 126.577 115.725ZM140.753 92.3718C140.768 92.4173 140.789 92.4606 140.814 92.5007L140.226 93.1737C140.151 93.2528 140.085 93.3402 140.03 93.4341C139.917 93.6375 139.762 93.814 139.574 93.9516C139.51 94.001 139.451 94.0561 139.396 94.116L139.013 94.5478C138.899 94.7022 138.774 94.8477 138.639 94.983C138.602 95.0212 138.572 95.0667 138.553 95.1167C138.509 95.2174 138.435 95.3022 138.341 95.3599C138.247 95.4136 138.171 95.495 138.125 95.593C138.094 95.6539 138.05 95.7067 137.995 95.7472C137.929 95.7955 137.868 95.8507 137.813 95.9117L136.806 97.0562C136.749 97.1155 136.7 97.1824 136.662 97.255C136.61 97.35 136.537 97.432 136.449 97.4948C136.364 97.5634 136.286 97.6403 136.216 97.7244L135.48 98.5571C135.401 98.6519 135.311 98.737 135.212 98.8107C135.138 98.8695 135.069 98.9349 135.007 99.006L134.705 99.3487C134.662 99.4027 134.614 99.4521 134.561 99.496C134.408 99.6089 134.268 99.7401 134.147 99.8867C134.113 99.9293 134.072 99.9663 134.027 99.9964C133.897 100.08 133.781 100.184 133.684 100.305L132.625 101.518L131.08 103.293C130.982 103.423 130.867 103.538 130.737 103.636C130.671 103.686 130.612 103.745 130.562 103.81L130.154 104.276C130.105 104.342 130.048 104.401 129.983 104.451C129.828 104.564 129.691 104.699 129.575 104.852L128.979 105.537C128.883 105.586 128.798 105.654 128.729 105.736L128.321 106.202C128.272 106.267 128.214 106.324 128.15 106.374C128.008 106.479 127.881 106.604 127.773 106.744C127.69 106.852 127.595 106.95 127.488 107.035C127.377 107.114 127.278 107.209 127.194 107.316L127.152 107.363C127.154 107.32 127.157 107.277 127.159 107.233V106.5L127.132 104.766C127.132 104.513 127.118 104.26 127.103 104.007V104.007V104.007V104.006C127.085 103.691 127.067 103.374 127.077 103.053C127.073 102.895 127.059 102.737 127.036 102.58C126.992 102.262 126.98 101.941 127.002 101.62C127.026 101.301 127.018 100.979 126.978 100.661C126.952 100.462 126.944 100.262 126.954 100.061V99.3314L126.799 94.7533C126.793 94.51 126.779 94.253 126.755 94.0234C126.716 93.7051 126.704 93.3841 126.721 93.0639C126.734 92.8602 126.73 92.6505 126.725 92.4328C126.723 92.321 126.721 92.207 126.721 92.0907V88.753C126.721 88.3795 126.724 88.0163 126.751 87.653C126.775 87.3857 126.775 87.091 126.775 86.8032V85.4325C126.775 85.3915 126.775 85.3498 126.774 85.3077L126.772 85.2221C126.768 85.0808 126.764 84.9401 126.775 84.8191C126.823 84.2537 126.823 83.6814 126.823 83.1057C126.814 82.9448 126.814 82.7835 126.823 82.6226C126.857 82.1768 126.869 81.7296 126.858 81.2827V80.0799L126.906 78.8703L126.979 76.9754L127.009 77.0062L127.581 77.6265C127.649 77.7029 127.724 77.7719 127.807 77.8321C127.986 77.9527 128.135 78.1134 128.242 78.3015C128.282 78.3676 128.328 78.4295 128.379 78.4866L128.746 78.9184C128.878 79.0369 129 79.1652 129.113 79.3022C129.143 79.3419 129.183 79.3737 129.229 79.3947C129.32 79.4426 129.391 79.52 129.431 79.614C129.472 79.7073 129.542 79.7853 129.63 79.8367C129.683 79.8698 129.727 79.9158 129.757 79.9704C129.797 80.0356 129.843 80.0975 129.894 80.1554L130.857 81.1834C130.907 81.2409 130.965 81.2915 131.028 81.3342C131.114 81.3867 131.184 81.4613 131.23 81.5501C131.285 81.636 131.348 81.7163 131.419 81.79L132.104 82.5507C132.184 82.6323 132.255 82.7232 132.313 82.8214C132.359 82.898 132.413 82.9693 132.474 83.0339L132.759 83.3457C132.805 83.3886 132.847 83.4369 132.882 83.4897C132.969 83.6453 133.078 83.7883 133.204 83.9146C133.24 83.951 133.27 83.9926 133.293 84.0379C133.358 84.1658 133.443 84.2816 133.547 84.3806C133.889 84.7507 134.232 85.1174 134.575 85.46L136.103 87.026C136.215 87.1261 136.312 87.2414 136.391 87.3687C136.43 87.4338 136.479 87.4927 136.535 87.5435L136.936 87.9581C136.994 88.0088 137.045 88.0677 137.087 88.1329C137.179 88.2855 137.295 88.4231 137.429 88.5407L138.019 89.1472C138.057 89.2397 138.111 89.3245 138.18 89.3974L138.581 89.8086C138.637 89.8602 138.687 89.919 138.728 89.9833C138.812 90.1242 138.916 90.2524 139.036 90.3637C139.134 90.4462 139.219 90.5433 139.287 90.6516C139.35 90.7614 139.43 90.8608 139.523 90.9463L140.03 91.4671C140.143 91.5651 140.239 91.6808 140.315 91.8098C140.34 91.8539 140.372 91.8934 140.411 91.9263C140.545 92.0584 140.66 92.2083 140.753 92.3718ZM125.782 61.9078H125.802C125.797 61.8829 125.789 61.8587 125.778 61.8359L125.782 61.9078ZM130.459 106.058V106.038C130.458 106.049 130.458 106.061 130.459 106.072V106.058ZM104.522 94.4895L104.68 104.194L106.05 104.174L105.893 94.4724L105.787 84.7644L104.416 84.7815L104.522 94.4895Z" fill="white"/>
<rect x="0.5" y="0.5" width="159" height="159" stroke="#DDDDDD"/>
</svg>
