<svg width="160" height="160" viewBox="0 0 160 160" fill="none" xmlns="http://www.w3.org/2000/svg">
<rect x="0.5" y="0.5" width="159" height="159" fill="white" fill-opacity="0.1"/>
<path fill-rule="evenodd" clip-rule="evenodd" d="M125.19 108.995H124.903C124.851 108.995 124.807 108.944 124.776 108.807C124.626 108.855 124.477 108.715 124.343 108.589L124.343 108.589L124.32 108.568C124.308 108.557 124.297 108.546 124.286 108.536C124.206 108.402 124.171 108.246 124.186 108.091V107.594C124.186 107.399 124.186 107.19 124.159 107.015C124.127 106.732 124.138 106.445 124.19 106.165V105.97C124.19 105.809 124.206 105.648 124.222 105.484C124.24 105.3 124.259 105.112 124.255 104.918C124.25 104.674 124.252 104.465 124.253 104.255V104.255V104.255V104.254C124.254 104.149 124.255 104.044 124.255 103.934V103.739L124.272 100.01C124.261 99.6103 124.273 99.2098 124.31 98.8111C124.32 98.6822 124.32 98.5528 124.31 98.4239C124.286 98.0965 124.286 97.7678 124.31 97.4404C124.325 97.2781 124.318 97.1143 124.289 96.9538C124.257 96.7603 124.243 96.564 124.248 96.3678V95.5763L124.19 94.4694L124.087 92.5539C124.072 92.2577 124.041 91.9626 123.994 91.6698C123.968 91.5078 123.959 91.3436 123.967 91.1797C123.968 91.1479 123.969 91.1161 123.97 91.0843C123.932 91.0494 123.896 91.0129 123.86 90.9763C123.786 90.9018 123.712 90.8269 123.617 90.7651C123.502 90.6898 123.409 90.6226 123.317 90.5557L123.317 90.5555L123.317 90.5554C123.275 90.5249 123.233 90.4946 123.189 90.4635L123.083 90.4156L121.459 89.2573C121.278 89.1422 121.109 89.009 120.955 88.8598C120.903 88.8134 120.844 88.7753 120.78 88.7467C120.619 88.673 120.475 88.5655 120.359 88.4315C120.302 88.364 120.231 88.3111 120.15 88.2773C120.052 88.237 119.963 88.1776 119.889 88.1025C119.783 88.01 119.673 87.9175 119.546 87.8318L119.067 87.4891L118.231 86.8963C118.102 86.8021 117.965 86.7217 117.819 86.6564C117.739 86.6195 117.666 86.5684 117.603 86.5056C117.442 86.3402 117.263 86.1931 117.069 86.067L116.932 85.9779L115.4 84.9739C115.264 84.8905 115.137 84.7941 115.02 84.686C114.942 84.6145 114.858 84.5492 114.77 84.4907C114.65 84.4085 114.53 84.3297 114.406 84.2543C114.291 84.1785 114.187 84.0861 114.098 83.9801L114.009 83.9185C113.961 83.9185 113.896 83.9185 113.875 83.8808C113.707 83.726 113.523 83.5893 113.327 83.473L113.23 83.4086C113.116 83.5177 112.99 83.614 112.854 83.6958C112.732 83.767 112.618 83.8496 112.511 83.9425L110.216 85.6559C109.996 85.8355 109.755 85.9884 109.499 86.1117C109.452 86.1385 109.406 86.1683 109.362 86.2008L109.273 86.2625C109.264 86.293 109.249 86.3213 109.228 86.3455C109.208 86.3697 109.182 86.3893 109.153 86.403C108.879 86.5341 108.618 86.6925 108.375 86.8759L108.108 87.0609C108.035 87.1125 107.957 87.1573 107.875 87.1945C107.696 87.2759 107.526 87.3758 107.368 87.4927L106.206 88.2911C106.076 88.3852 105.937 88.4667 105.792 88.5344C105.679 88.5888 105.572 88.6518 105.469 88.7229L105.384 88.7795L105.384 88.7796C105.245 88.8715 105.102 88.9662 104.979 89.0656C104.863 89.1432 104.736 89.2043 104.603 89.2472L104.227 89.5044L104.219 89.7166C104.219 89.9838 104.198 90.2649 104.167 90.515C104.133 90.7751 104.123 91.0379 104.14 91.2997V91.896L103.999 95.638C103.999 95.8367 103.975 96.0423 103.951 96.2342C103.936 96.3972 103.936 96.5613 103.951 96.7243C103.971 96.9864 103.959 97.25 103.914 97.509C103.878 97.7693 103.878 98.0334 103.914 98.2937C103.915 98.4094 103.908 98.5251 103.893 98.6398C103.866 98.9552 103.875 99.266 103.884 99.5763V99.5767V99.5771V99.5775V99.5778C103.889 99.7323 103.893 99.8866 103.893 100.041L103.869 101.46C103.869 101.659 103.869 101.864 103.835 102.056C103.777 102.618 103.769 103.183 103.811 103.746C103.825 104.012 103.825 104.278 103.811 104.544L103.78 106.772V107.207C103.8 107.287 103.815 107.368 103.825 107.45C103.837 107.614 103.837 107.779 103.825 107.943C103.79 108.286 103.763 108.649 103.749 109.016C103.749 109.194 103.677 109.386 103.626 109.407C103.441 109.465 103.259 109.424 103.105 109.013H102.817C102.766 109.013 102.721 108.961 102.69 108.824C102.55 108.866 102.422 108.746 102.293 108.625L102.293 108.625L102.272 108.606C102.251 108.585 102.229 108.566 102.207 108.547C102.13 108.41 102.096 108.254 102.111 108.098V107.601C102.111 107.405 102.111 107.193 102.091 107.018C102.06 106.733 102.074 106.446 102.132 106.165V105.966C102.132 105.801 102.15 105.636 102.169 105.469C102.189 105.288 102.209 105.104 102.207 104.914C102.205 104.67 102.206 104.459 102.206 104.248L102.207 104.135C102.207 104.067 102.207 103.998 102.207 103.927V103.732L102.262 99.9866C102.255 99.5862 102.272 99.1858 102.31 98.7872C102.32 98.6572 102.32 98.5266 102.31 98.3965C102.279 98.0676 102.289 97.736 102.341 97.4096C102.369 97.248 102.377 97.0833 102.365 96.9196C102.346 96.7236 102.346 96.5262 102.365 96.3302C102.389 96.0698 102.409 95.8025 102.423 95.5352L102.468 94.4249L102.536 92.5025C102.553 92.2046 102.553 91.906 102.536 91.6081C102.526 91.4435 102.532 91.2783 102.553 91.1147C102.579 90.9199 102.6 90.7245 102.615 90.5287L102.399 90.6796C102.328 90.7332 102.252 90.7803 102.173 90.8201C101.87 90.9707 101.581 91.1485 101.309 91.3512L101.131 91.4745L100.953 91.5979C100.873 91.6208 100.789 91.629 100.706 91.6219L100.641 91.5225C100.643 91.5165 100.645 91.5107 100.647 91.5053C100.649 91.5017 100.651 91.4983 100.653 91.495C100.659 91.4868 100.667 91.4798 100.675 91.4745C100.665 91.4564 100.649 91.4419 100.63 91.4328C100.611 91.4236 100.59 91.4202 100.569 91.4231L99.9627 90.539C99.9331 90.4984 99.9149 90.4506 99.9101 90.4006C99.9053 90.3506 99.914 90.3002 99.9353 90.2546C99.9477 90.2258 99.9679 90.2008 99.9935 90.1827L100.364 89.9736C100.457 89.9133 100.558 89.8672 100.665 89.8366C100.907 89.7278 101.136 89.5946 101.351 89.4391C101.405 89.3945 101.466 89.3587 101.532 89.3328C101.729 89.2424 101.913 89.1272 102.08 88.9901L102.68 88.5821L102.773 86.0911C102.779 85.7929 102.803 85.4954 102.845 85.2001C102.871 85.0237 102.882 84.8215 102.892 84.628V84.6278L102.892 84.6276L102.892 84.6107C102.91 84.3434 102.923 84.0727 102.93 83.8054C102.94 83.5486 102.971 83.293 103.023 83.0412V82.8391C103.006 82.7578 102.996 82.6753 102.992 82.5924C103.049 82.1697 103.083 81.744 103.091 81.3176L103.194 79.0217C103.195 78.8746 103.221 78.7287 103.269 78.5899C103.261 78.2926 103.272 77.995 103.3 77.6989C103.33 77.4338 103.344 77.1673 103.345 76.9005L103.37 76.3495L102.817 75.9615C102.622 75.837 102.44 75.6923 102.276 75.5298C102.198 75.4558 102.113 75.3903 102.022 75.3344L101.539 74.9917C101.463 74.9456 101.391 74.8916 101.326 74.8307C101.079 74.5995 100.811 74.3918 100.525 74.2104L100.35 74.0837L100.172 73.9603C100.121 73.8939 100.084 73.8182 100.062 73.7375L100.13 73.6416C100.149 73.6342 100.17 73.6342 100.189 73.6416C100.2 73.6243 100.206 73.6041 100.206 73.5834C100.206 73.5627 100.2 73.5424 100.189 73.5251L100.806 72.6444C100.832 72.6026 100.87 72.5689 100.915 72.5471C100.96 72.5254 101.01 72.5164 101.059 72.5211C101.091 72.5212 101.122 72.5308 101.148 72.5485L101.474 72.8226C101.562 72.8888 101.641 72.9672 101.707 73.0556C101.894 73.2445 102.099 73.4144 102.32 73.5628C102.382 73.5985 102.437 73.6436 102.485 73.6964C102.635 73.8473 102.801 73.9807 102.982 74.0939L103.456 74.4284L103.465 74.2345V71.5685C103.451 71.0403 103.467 70.5117 103.513 69.9853C103.518 69.886 103.518 69.7865 103.513 69.6872V69.4816C103.468 69.3734 103.45 69.2556 103.461 69.1389C103.504 68.5757 103.518 68.0107 103.502 67.4461V66.8395C103.499 66.6737 103.505 66.5079 103.52 66.3427C103.552 65.9793 103.563 65.6142 103.55 65.2496V62.6247V61.7269C103.562 61.5802 103.558 61.4228 103.554 61.268V61.2679V61.2678V61.2676V61.2675C103.552 61.191 103.55 61.1151 103.55 61.0415V61.0412C103.55 60.6712 103.55 60.2978 103.523 59.9278C103.517 59.6701 103.531 59.4124 103.564 59.1568L103.52 57.2412C103.496 56.8109 103.496 56.3796 103.52 55.9493C103.532 55.7508 103.532 55.5517 103.52 55.3531L103.496 54.2462C103.487 54.0796 103.487 53.9126 103.496 53.7459C103.528 53.1147 103.528 52.4822 103.496 51.8509V51.45V51.0456C103.513 50.9053 103.55 50.768 103.605 50.6379H103.722C103.737 50.6711 103.746 50.7074 103.746 50.7441C103.78 50.7441 103.818 50.7441 103.842 50.6344L104.914 50.607C105.007 50.607 105.096 50.655 105.171 50.8572C105.191 50.911 105.201 50.9678 105.202 51.0251L105.185 51.8201C105.186 52.0241 105.172 52.228 105.144 52.4301C105.109 52.925 105.1 53.4214 105.116 53.9173C105.127 54.0496 105.127 54.1825 105.116 54.3148C105.091 54.7119 105.091 55.1102 105.116 55.5073L105.161 57.4263C105.182 57.7572 105.182 58.0891 105.161 58.42C105.142 58.7533 105.142 59.0874 105.161 59.4206C105.183 59.8521 105.183 60.2845 105.161 60.7159C105.151 60.9157 105.151 61.1159 105.161 61.3156C105.161 61.5838 105.169 61.8519 105.177 62.1205L105.177 62.121C105.183 62.3569 105.19 62.5932 105.192 62.8303C105.193 63.0884 105.173 63.3462 105.134 63.6013V65.8355C105.147 66.303 105.134 66.7709 105.096 67.2371C105.084 67.4379 105.084 67.6393 105.096 67.8402V69.3617C105.106 69.5626 105.106 69.7638 105.096 69.9647C105.061 70.3635 105.048 70.7639 105.058 71.1641V74.0563C105.044 74.5722 105.022 75.0881 104.999 75.6034C105.066 75.6608 105.132 75.7208 105.195 75.7834C105.274 75.8557 105.359 75.921 105.449 75.9787L106.11 76.4413C106.224 76.5219 106.326 76.6189 106.412 76.7291L107.385 77.4145C107.597 77.5484 107.795 77.7046 107.974 77.8805C108.052 77.9545 108.137 78.0199 108.228 78.0758L108.889 78.5419C108.98 78.6 109.065 78.6666 109.143 78.7406C109.295 78.8924 109.467 79.0236 109.653 79.1313L112.234 80.8207L113.239 81.4795L113.334 81.4102C113.485 81.2853 113.651 81.1795 113.827 81.0949C113.892 81.0635 113.952 81.0256 114.009 80.9818C114.205 80.8292 114.415 80.695 114.636 80.5809C114.715 80.5374 114.789 80.4869 114.859 80.4301L115.339 80.0874C115.439 80.0133 115.544 79.9457 115.654 79.8853C115.796 79.8114 115.931 79.7254 116.058 79.6283L117.234 78.7579C117.349 78.6733 117.471 78.5999 117.6 78.5385C117.728 78.483 117.844 78.404 117.943 78.3056C118.021 78.2322 118.106 78.1667 118.196 78.1102L119.872 77.0034C119.962 76.9453 120.056 76.8938 120.153 76.8492C120.234 76.8144 120.307 76.7643 120.369 76.7018C120.465 76.6029 120.582 76.5267 120.712 76.4791C120.842 76.428 120.959 76.3484 121.054 76.2461C121.101 76.1923 121.155 76.1461 121.215 76.109C121.431 75.9828 121.638 75.8432 121.836 75.6909L122.47 75.2729C122.559 75.2142 122.653 75.1627 122.751 75.1187C123.028 74.9958 123.283 74.8267 123.504 74.6184C123.611 74.523 123.726 74.437 123.847 74.3614L124.341 74.0358L124.224 71.565C124.19 71.0357 124.183 70.505 124.204 69.975C124.209 69.8757 124.209 69.7762 124.204 69.6769V69.4747C124.157 69.3667 124.135 69.2496 124.138 69.132C124.161 68.5608 124.151 67.9888 124.111 67.4186L124.084 66.8121C124.075 66.6466 124.075 66.4808 124.084 66.3152C124.106 65.9501 124.106 65.5838 124.084 65.2187L123.964 62.5904V62.3231V62.1209V61.9529C123.964 61.8733 123.976 61.7936 123.99 61.7087L123.99 61.7082C123.993 61.691 123.995 61.6736 123.998 61.656C124 61.6409 124.003 61.6257 124.005 61.6103C124.03 61.4367 124.043 61.2455 124.057 61.0597L124.06 61.0111L124.066 60.9249C124.09 60.5548 124.108 60.1848 124.125 59.8147C124.137 59.5554 124.17 59.2975 124.224 59.0437L124.327 57.1315C124.337 56.7014 124.374 56.2722 124.437 55.8465C124.459 55.7178 124.467 55.5676 124.475 55.4192C124.478 55.3622 124.481 55.3054 124.485 55.2502L124.543 54.1434V54.1433C124.543 53.9754 124.543 53.8007 124.577 53.6431C124.66 53.0168 124.711 52.3865 124.728 51.7549L124.748 51.354L124.769 50.9497C124.801 50.8123 124.848 50.679 124.909 50.5522H125.029C125.038 50.5871 125.038 50.6235 125.029 50.6584C125.067 50.6584 125.101 50.6584 125.136 50.5556L126.208 50.6104C126.301 50.6104 126.383 50.6721 126.445 50.8811C126.458 50.9361 126.464 50.9926 126.462 51.049C126.437 51.2893 126.415 51.5295 126.393 51.7672L126.393 51.7676L126.393 51.7681L126.393 51.7688L126.386 51.8372C126.37 52.0413 126.339 52.244 126.294 52.4437C126.22 52.9343 126.173 53.4284 126.153 53.9241C126.153 54.0562 126.141 54.188 126.119 54.3182C126.061 54.7121 126.025 55.1092 126.013 55.5072L125.913 57.4228C125.903 57.7532 125.873 58.0827 125.824 58.4097C125.782 58.7405 125.757 59.0734 125.749 59.4069C125.737 59.8381 125.7 60.2683 125.639 60.6954C125.612 60.8942 125.596 61.0944 125.591 61.295L125.537 62.3231L125.557 62.7206C125.567 62.9791 125.558 63.2379 125.53 63.495L125.632 65.719C125.668 66.1841 125.675 66.6511 125.653 67.1171V67.7202L125.722 69.2382C125.732 69.438 125.732 69.6381 125.722 69.8379C125.698 70.2362 125.698 70.6356 125.722 71.0338L125.816 73.0721L125.838 73.0592C125.874 73.0378 125.916 73.0265 125.958 73.0265C126 73.0265 126.042 73.0378 126.078 73.0592C126.143 73.1225 126.189 73.2037 126.208 73.2928C126.228 73.3818 126.221 73.4746 126.188 73.5595L126.345 73.8028C126.361 73.8267 126.369 73.8547 126.369 73.8833C126.369 73.9119 126.361 73.9399 126.345 73.9638C126.441 74.1083 126.493 74.2772 126.496 74.4505C126.496 74.5121 126.445 74.5978 126.352 74.6663L126.136 74.8171C126.049 74.8739 125.967 74.9394 125.893 75.0124C125.871 75.0348 125.848 75.0558 125.824 75.0754L125.756 76.8628L125.608 80.807C125.606 81.1739 125.578 81.5403 125.526 81.9035C125.509 82.0342 125.498 82.1658 125.495 82.2976C125.485 82.7629 125.449 83.2273 125.389 83.6889C125.374 83.7999 125.37 83.9333 125.366 84.0602V84.0602V84.0603V84.0604C125.365 84.1057 125.364 84.1502 125.362 84.1926L125.317 85.3063V85.5804V85.7175V85.8272V85.9505C125.302 86.2496 125.302 86.5492 125.317 86.8483L125.465 89.5897C125.465 89.7029 125.469 89.8186 125.474 89.9336C125.477 90.0021 125.48 90.0703 125.482 90.1377L125.492 90.1448C125.538 90.1494 125.583 90.161 125.626 90.1791C125.703 90.2206 125.776 90.2712 125.841 90.3299C125.978 90.4658 126.122 90.594 126.273 90.7137C126.308 90.7378 126.336 90.7709 126.354 90.8094C126.372 90.848 126.38 90.8906 126.376 90.933C126.347 91.0263 126.289 91.108 126.211 91.1664C126.133 91.2249 126.038 91.2571 125.941 91.2585L125.766 91.4916C125.747 91.5131 125.723 91.5288 125.696 91.5367C125.668 91.5446 125.639 91.5444 125.612 91.5361C125.601 91.559 125.587 91.5801 125.572 91.5997C125.576 91.6573 125.579 91.7149 125.581 91.7726L125.783 95.518V96.1143C125.778 96.2782 125.788 96.4423 125.814 96.6043C125.858 96.8646 125.869 97.1293 125.848 97.3924C125.824 97.6535 125.824 97.9162 125.848 98.1772C125.87 98.3051 125.878 98.4349 125.872 98.5644C125.85 98.8818 125.857 99.1916 125.865 99.5019L125.865 99.5025C125.869 99.6577 125.872 99.8129 125.872 99.9694V101.388C125.872 101.59 125.872 101.796 125.848 101.988C125.799 102.551 125.799 103.117 125.848 103.681C125.872 103.944 125.872 104.212 125.872 104.479V106.71V107.118C125.896 107.196 125.912 107.276 125.92 107.357C125.931 107.522 125.931 107.687 125.92 107.851C125.889 108.194 125.866 108.56 125.855 108.927C125.855 109.109 125.787 109.3 125.735 109.321C125.53 109.444 125.348 109.407 125.19 108.995ZM111.733 82.3558C111.783 82.3968 111.835 82.4351 111.889 82.4706L111.62 82.6678L109.14 84.5045C108.974 84.6409 108.792 84.756 108.598 84.8472C108.502 84.8948 108.41 84.951 108.324 85.0151L107.639 85.4709C107.554 85.5364 107.463 85.5938 107.368 85.6422C107.139 85.7467 106.923 85.8766 106.724 86.0294L105.744 86.7148C105.611 86.7577 105.486 86.8188 105.37 86.8964L104.705 87.3522C104.619 87.4168 104.528 87.473 104.431 87.5201C104.387 87.5401 104.342 87.5612 104.299 87.5831L104.321 86.9751C104.332 86.6736 104.349 86.3755 104.387 86.0808C104.417 85.8717 104.445 85.6284 104.445 85.3954L104.493 84.2817C104.496 84.2324 104.498 84.1793 104.5 84.1252C104.505 84.0065 104.511 83.8827 104.527 83.7814C104.591 83.353 104.614 82.9154 104.636 82.4716L104.64 82.3867C104.644 82.2537 104.656 82.121 104.674 81.9892C104.727 81.626 104.757 81.2597 104.763 80.8927L104.911 77.5682C104.976 77.6217 105.043 77.6722 105.113 77.7194L106.264 78.5282C106.431 78.6322 106.585 78.7552 106.724 78.8948C106.787 78.9572 106.856 79.0145 106.929 79.0662L107.196 79.2512C107.452 79.4154 107.692 79.6036 107.913 79.8132C107.936 79.8357 107.963 79.8531 107.993 79.8643C108.023 79.8755 108.055 79.8803 108.087 79.8783L108.176 79.94C108.222 79.9684 108.266 80.0004 108.307 80.0359C108.514 80.2341 108.744 80.4066 108.992 80.5499L111.391 82.116C111.512 82.186 111.626 82.2663 111.733 82.3558ZM114.636 82.4518L114.627 82.4461C114.751 82.3587 114.881 82.2804 115.016 82.2121C115.035 82.2029 115.053 82.1725 115.071 82.142C115.08 82.1268 115.09 82.1115 115.099 82.0989L115.184 82.0339C115.316 81.9886 115.44 81.9226 115.551 81.8385C115.657 81.7528 115.774 81.6672 115.894 81.5849C115.977 81.5209 116.067 81.4647 116.161 81.417C116.304 81.3444 116.439 81.2584 116.565 81.16L118.035 80.0703L118.166 79.9744C118.353 79.8373 118.555 79.7223 118.769 79.6317C118.85 79.5956 118.924 79.5457 118.988 79.4843C119.1 79.3713 119.224 79.2713 119.358 79.1862L120.211 78.6208L120.708 78.2781C120.828 78.2027 120.952 78.1342 121.078 78.0691C121.175 78.025 121.262 77.9634 121.335 77.8875C121.395 77.8236 121.471 77.7764 121.555 77.7504C121.72 77.6875 121.872 77.5919 122 77.4694C122.048 77.4193 122.103 77.3776 122.165 77.346C122.361 77.2509 122.547 77.1361 122.72 77.0034L124.274 75.9747L124.241 76.8491C124.238 76.9214 124.237 76.9952 124.235 77.0691C124.23 77.2718 124.225 77.4752 124.2 77.6509C124.175 77.9472 124.167 78.2447 124.176 78.5419C124.127 78.6818 124.102 78.8288 124.101 78.9771L124.015 81.273C124.01 81.7004 123.98 82.1272 123.926 82.5512C123.928 82.6343 123.938 82.717 123.957 82.7979V83.0001C123.904 83.2528 123.874 83.5097 123.868 83.7677C123.865 83.8789 123.859 83.9906 123.853 84.1025C123.845 84.2596 123.837 84.4168 123.837 84.573L123.836 84.5898V84.59C123.826 84.7836 123.816 84.9861 123.789 85.1658L123.785 85.192L123.779 85.2334C123.765 85.3277 123.751 85.417 123.751 85.5085V85.6764V85.8957V86.1595L123.911 89.0718C123.665 88.9439 123.44 88.7788 123.244 88.5823C123.168 88.5075 123.087 88.4387 123.001 88.3767L122.384 87.9346C122.17 87.8044 121.964 87.6614 121.767 87.5063C121.713 87.4621 121.651 87.4273 121.585 87.4034C121.453 87.3514 121.335 87.2679 121.243 87.1602C121.148 87.0528 121.031 86.9675 120.9 86.91C120.819 86.8738 120.746 86.8226 120.684 86.7592C120.608 86.6852 120.527 86.6165 120.441 86.5536L118.806 85.3919C118.721 85.3279 118.631 85.2717 118.536 85.224C118.407 85.1658 118.29 85.0832 118.193 84.9807C118.087 84.8825 117.972 84.7942 117.85 84.7169L116.63 83.915C116.493 83.8307 116.365 83.7332 116.246 83.6238C116.153 83.5422 116.053 83.4677 115.948 83.401L115.451 83.0583C115.373 83.0145 115.3 82.9628 115.232 82.9041C115.049 82.7338 114.849 82.5823 114.636 82.4518ZM124.145 65.0302H124.169C124.163 65.0102 124.155 64.9907 124.145 64.9719V65.0302ZM103.729 65.0062H103.705V64.9514C103.714 64.969 103.722 64.9874 103.729 65.0062ZM48.8664 52.9783L48.7978 52.6973C48.8603 52.6281 48.9001 52.5413 48.9117 52.4488C48.9234 52.3563 48.9063 52.2624 48.863 52.1799C48.8311 52.1496 48.7919 52.1281 48.7493 52.1173C48.7067 52.1065 48.6621 52.1068 48.6196 52.1182C48.4209 52.1593 48.2256 52.1867 48.0302 52.2073C47.94 52.22 47.8514 52.243 47.7664 52.2758C47.7231 52.298 47.6828 52.3257 47.6465 52.3581L47.4306 52.4129L46.2346 52.7213C46.091 52.7566 45.9501 52.8024 45.8131 52.8584C45.5248 52.9838 45.2182 53.0625 44.905 53.0914C44.7897 53.1034 44.6752 53.1229 44.5624 53.1496L43.8016 53.345C43.5547 53.4268 43.3029 53.4932 43.0478 53.5437C42.9783 53.561 42.9114 53.5875 42.849 53.6225C42.7179 53.6888 42.5742 53.7262 42.4275 53.7322C42.2804 53.7345 42.1355 53.7684 42.0026 53.8316C41.9198 53.8714 41.8303 53.8958 41.7387 53.9035C41.6231 53.9137 41.5085 53.9332 41.3961 53.9618L39.3846 54.4792C39.2766 54.5042 39.1712 54.5385 39.0693 54.582C38.9368 54.6444 38.7939 54.6816 38.6478 54.6917C38.5018 54.7102 38.3574 54.7399 38.216 54.7808L36.746 55.1577C36.5855 55.2024 36.4216 55.2333 36.2559 55.2502C36.1275 55.2646 36.0003 55.2886 35.8756 55.3222L35.2793 55.473C35.1897 55.5009 35.0981 55.5216 35.0052 55.5347C34.7478 55.5582 34.4932 55.6052 34.2444 55.6751L34.1348 55.6991H34.0799H34.0559C34.0185 55.6929 33.9803 55.6929 33.9429 55.6991L33.8709 55.6751L33.7715 55.6512L31.6504 55.1132L28.5663 54.3284C28.3485 54.2834 28.136 54.2156 27.9323 54.1262C27.8306 54.0842 27.725 54.0521 27.6171 54.0303L26.8015 53.8213C26.6913 53.7996 26.5835 53.7675 26.4794 53.7253C26.2417 53.6215 25.9935 53.5434 25.7392 53.4923L24.5433 53.1873C24.4187 53.1159 24.285 53.0617 24.1458 53.0263L23.3302 52.8207C23.2223 52.7989 23.1167 52.7668 23.0149 52.7247C22.7943 52.6291 22.5647 52.5556 22.3296 52.5054C22.1476 52.4711 21.9697 52.4183 21.7985 52.3478C21.6306 52.2713 21.4548 52.2138 21.2742 52.1764L20.2461 51.916C20.0297 51.8724 19.8192 51.8034 19.619 51.7104C19.5511 51.6794 19.4798 51.6564 19.4066 51.6419C19.1382 51.5809 18.8765 51.4937 18.6253 51.3814C18.5284 51.3204 18.4234 51.2731 18.3134 51.2409L17.8954 51.1004C17.8643 51.09 17.8306 51.09 17.7994 51.1004C17.7502 51.1124 17.7054 51.138 17.6702 51.1744C17.6351 51.2108 17.6109 51.2565 17.6007 51.306L17.3368 52.3341C17.3539 52.3468 17.3664 52.3646 17.3726 52.3849C17.3788 52.4053 17.3782 52.4271 17.3711 52.4472C17.3613 52.443 17.3508 52.4409 17.3402 52.4409C17.3296 52.4409 17.3192 52.443 17.3094 52.4472L17.2786 52.5636C17.3298 52.6314 17.3939 52.6884 17.467 52.7316L17.6863 52.7898L17.9022 52.8446C18.2458 52.9145 18.5819 53.0166 18.9063 53.1496C18.9926 53.1845 19.0821 53.2109 19.1736 53.2284L19.7664 53.3792C19.8754 53.4009 19.9822 53.4331 20.0851 53.4752C20.3051 53.5714 20.5349 53.6438 20.7704 53.6911L21.7985 53.9515C21.9219 54.0261 22.0559 54.0816 22.196 54.116L22.7956 54.2668C22.9203 54.299 23.0427 54.339 23.1623 54.3867C23.3153 54.4514 23.4735 54.503 23.6352 54.5409L25.0504 54.8836C25.2497 54.9239 25.4439 54.986 25.6296 55.0686C25.7147 55.1053 25.803 55.134 25.8934 55.1543L26.2361 55.2399C26.5435 55.3039 26.8441 55.3968 27.1339 55.5175C27.1965 55.5432 27.2667 55.5432 27.3292 55.5175L27.4389 55.5449C27.4925 55.5557 27.5452 55.5706 27.5965 55.5895C27.8671 55.7063 28.1482 55.7969 28.4361 55.8602L31.3077 56.5867C31.4539 56.6116 31.5973 56.6507 31.736 56.7032C31.8925 56.7582 32.0545 56.7962 32.2192 56.8163C32.2794 56.8756 32.3557 56.916 32.4385 56.9328L33.7463 57.2533C33.7348 57.4776 33.718 57.6969 33.6961 57.9163C33.6858 58.06 33.6858 58.2043 33.6961 58.3481C33.7052 58.4203 33.7212 58.4914 33.7441 58.5605V60.8633C33.7388 61.092 33.7468 61.3209 33.7681 61.5487C33.8178 62.0409 33.8178 62.5368 33.7681 63.029C33.7514 63.2021 33.7434 63.376 33.7441 63.5499V64.7904C33.7441 64.9275 33.7479 65.0638 33.7517 65.1998V65.1999V65.2V65.2V65.2001V65.2001V65.2002V65.2003V65.2003V65.2004V65.2004V65.2005V65.2006V65.2006C33.7593 65.4725 33.7669 65.7433 33.7441 66.0172C33.7421 66.1319 33.7501 66.2465 33.7681 66.3599C33.8006 66.5871 33.8006 66.8179 33.7681 67.0452C33.7375 67.2726 33.7375 67.5031 33.7681 67.7306C33.7835 67.8729 33.7835 68.0165 33.7681 68.1589C33.7441 68.3371 33.7441 68.5084 33.7441 68.6797V69.5022L33.7098 70.3212L33.6516 71.9592C33.6413 72.1326 33.6413 72.3066 33.6516 72.48C33.6691 72.7087 33.661 72.9385 33.6276 73.1654C33.5967 73.3744 33.5762 73.6177 33.5762 73.8507L33.4837 76.2495C33.4769 76.5119 33.4563 76.7738 33.422 77.0342C33.3946 77.2261 33.374 77.4385 33.374 77.6407L33.3329 78.6173C33.3204 78.6939 33.32 78.7732 33.3195 78.8505C33.3192 78.922 33.3188 78.9917 33.3089 79.0559C33.2513 79.4591 33.2181 79.8653 33.2095 80.2725C33.2054 80.3873 33.194 80.5018 33.1752 80.6151C33.129 80.933 33.1038 81.2535 33.0999 81.5746L32.9799 85.0322L32.8086 90.0901C32.8041 90.4341 32.7778 90.7775 32.7298 91.1181C32.7076 91.292 32.6961 91.4671 32.6955 91.6424L32.6475 92.9754C32.6464 93.1506 32.6361 93.3256 32.6167 93.4997C32.5493 93.8988 32.507 94.3016 32.4899 94.7059V96.6592C32.45 96.8855 32.4294 97.1147 32.4282 97.3445V98.6741C32.4388 98.8476 32.4388 99.0215 32.4282 99.195C32.391 99.5719 32.3761 99.9506 32.3837 100.329C32.3941 100.622 32.3872 100.915 32.3631 101.206C32.3287 101.495 32.3149 101.786 32.322 102.077V103.756C32.3323 104.099 32.3174 104.443 32.2774 104.784C32.2706 104.898 32.2706 105.013 32.2774 105.127C32.2831 105.56 32.2625 105.994 32.2158 106.425C32.1784 106.601 32.1578 106.78 32.1541 106.96L32.1198 107.645C32.1186 107.696 32.1267 107.745 32.1438 107.793C32.2158 107.971 32.3014 108.019 32.3939 108.019H33.5282C33.5556 107.923 33.5933 107.923 33.6276 107.923C33.6261 107.955 33.6332 107.987 33.6481 108.015H33.7646C33.8206 107.907 33.861 107.792 33.8846 107.673V107.33V106.987C33.8672 106.435 33.8844 105.882 33.936 105.332C33.9448 105.186 33.9448 105.04 33.936 104.894V103.924C33.9271 103.749 33.9271 103.574 33.936 103.4C33.9766 103.025 33.9915 102.649 33.9805 102.272V100.597C34.0219 100.37 34.0426 100.141 34.0422 99.9112V98.938L34.0423 98.9339C34.0457 98.7296 34.0492 98.5186 34.0696 98.328C34.0949 98.0672 34.1063 97.8053 34.1039 97.5433V95.2405C34.1025 94.9205 34.1254 94.601 34.1724 94.2845C34.1912 94.1401 34.2026 93.9948 34.2067 93.8493L34.2273 93.3181C34.2291 92.823 34.2623 92.3286 34.3266 91.8378C34.3414 91.7365 34.3271 91.6331 34.2855 91.5396V91.3614V91.101C34.3487 90.6467 34.3831 90.1889 34.3883 89.7303L34.5699 85.0665C34.5681 84.8376 34.5784 84.6089 34.6008 84.3811C34.6194 84.121 34.6194 83.8599 34.6008 83.5998C34.6499 83.4791 34.6744 83.3498 34.6727 83.2195L34.779 81.1942C34.782 80.8193 34.8095 80.445 34.8612 80.0737C34.8594 80.0008 34.8491 79.9283 34.8304 79.8578V79.6796C34.8809 79.4545 34.9096 79.225 34.916 78.9943C34.9176 78.8874 34.9235 78.7798 34.9295 78.6718V78.6718V78.6717V78.6717V78.6717V78.6716V78.6716V78.6716V78.6715V78.6715V78.6715V78.6714V78.6714L34.9295 78.6713V78.6712V78.6712V78.6711V78.6711V78.6711V78.671V78.671V78.6709L34.9295 78.6709C34.9364 78.5437 34.9434 78.416 34.9434 78.2884L34.9443 78.2745C34.9543 78.104 34.9646 77.9277 34.988 77.7709C35.0254 77.5109 35.0472 77.2489 35.0531 76.9862L35.1662 73.9844V73.7171C35.1715 73.3386 35.2012 72.9609 35.2553 72.5862C35.2708 72.4427 35.2708 72.298 35.2553 72.1545C35.2398 71.8943 35.2398 71.6334 35.2553 71.3732L35.3204 69.6906V68.714C35.322 68.6124 35.3278 68.5085 35.3337 68.4039L35.3337 68.4038C35.3407 68.2792 35.3478 68.1534 35.3478 68.0287C35.3667 67.8567 35.3667 67.6832 35.3478 67.5112C35.3254 67.3693 35.3254 67.2248 35.3478 67.0829C35.3856 66.7963 35.3856 66.506 35.3478 66.2193C35.336 66.1054 35.336 65.9906 35.3478 65.8767C35.3817 65.5271 35.3931 65.1757 35.3821 64.8246V61.3739C35.3821 61.278 35.3828 61.187 35.3836 61.096C35.3851 60.914 35.3866 60.732 35.3821 60.5104C35.3785 60.3348 35.3959 60.1745 35.4131 60.0158V60.0158V60.0158V60.0158C35.4285 59.8741 35.4438 59.7338 35.4438 59.5852V59.4138C35.4959 59.1671 35.5063 58.9135 35.4746 58.6634C35.4551 58.4938 35.4448 58.3234 35.4438 58.1528V57.7176C35.4551 57.5794 35.4188 57.4416 35.341 57.3269C35.3255 57.3144 35.3098 57.3013 35.2939 57.2881L35.2937 57.2879L35.2936 57.2878C35.1797 57.1931 35.0538 57.0884 34.9258 57.0801C34.933 57.0751 34.94 57.0704 34.9469 57.0664L35.0566 57.0356C35.1998 57.0409 35.343 57.0248 35.4815 56.9876C35.6254 56.9465 35.7693 56.9122 35.9167 56.8779C36.0225 56.8506 36.1301 56.8311 36.2388 56.8197C36.4045 56.8053 36.5686 56.7755 36.7288 56.7306L38.569 56.2543L38.73 56.2132C38.9599 56.1436 39.1966 56.0988 39.436 56.0795C39.5277 56.0725 39.6172 56.0481 39.6998 56.0076C39.8509 55.9385 40.0081 55.8834 40.1693 55.8431L41.1973 55.5792L41.797 55.425C41.9409 55.3907 42.0848 55.3633 42.2288 55.3428C42.3384 55.3326 42.4453 55.3024 42.544 55.2537C42.6252 55.2108 42.7161 55.1895 42.8079 55.192C42.9916 55.1858 43.1723 55.1427 43.339 55.0652C43.4039 55.0332 43.4732 55.0112 43.5446 55.0001C43.7656 54.9777 43.9838 54.9329 44.1957 54.8664L46.2038 54.349L46.31 54.325C46.3551 54.3133 46.3978 54.3024 46.4395 54.2918C46.5685 54.2589 46.6875 54.2286 46.8377 54.1845C46.9469 54.1525 47.053 54.1433 47.1589 54.134C47.2457 54.1265 47.3323 54.1189 47.4203 54.0988L47.5231 54.0714C47.6837 54.0849 47.8449 54.0541 47.9891 53.9823C48.0878 53.9387 48.1897 53.9032 48.2941 53.8761L48.5614 53.8007C48.6745 53.763 48.7739 53.7048 48.7739 53.6397C48.831 53.4753 48.8393 53.298 48.7978 53.1291C48.8231 53.1137 48.8431 53.0911 48.8553 53.0642C48.8675 53.0373 48.8714 53.0074 48.8664 52.9783ZM24.9751 54.7088V54.7328L24.9374 54.7259L24.9751 54.7088ZM33.9394 95.4701H33.96V95.5215C33.9517 95.505 33.9448 95.4878 33.9394 95.4701ZM70.753 106.908L70.4754 106.987C70.424 106.987 70.3692 106.987 70.2938 106.857C70.1812 106.938 70.0351 106.877 69.8784 106.813C69.8347 106.795 69.7903 106.777 69.7455 106.761C69.6283 106.661 69.5456 106.527 69.5091 106.377L69.348 105.918C69.3309 105.873 69.3139 105.826 69.297 105.78C69.2463 105.641 69.1955 105.503 69.139 105.387C69.0184 105.134 68.9375 104.863 68.8991 104.585L68.8374 104.4C68.7921 104.254 68.7587 104.114 68.7254 103.975C68.6806 103.788 68.636 103.602 68.5633 103.403C68.4787 103.172 68.4155 102.978 68.3523 102.784C68.3207 102.687 68.2891 102.59 68.2549 102.488L68.1932 102.303L67.0212 98.8282C66.8858 98.4592 66.7713 98.0828 66.6785 97.7008C66.6423 97.5835 66.5976 97.469 66.5449 97.3581C66.4089 97.0646 66.311 96.7548 66.2536 96.4363C66.2322 96.2775 66.1871 96.1227 66.12 95.9771C66.0438 95.8006 65.9853 95.6169 65.9452 95.4289C65.8835 95.1787 65.8184 94.9252 65.7465 94.675L65.4312 93.6298L64.8864 91.8308C64.8038 91.5528 64.7065 91.2795 64.5951 91.0118C64.5316 90.8628 64.4834 90.7079 64.4512 90.5492C64.3632 90.1334 64.2487 89.7236 64.1085 89.3224L64.0228 89.038L63.0496 85.8237C63.0218 85.7275 62.9921 85.633 62.9625 85.5389C62.9045 85.3547 62.8472 85.1724 62.8063 84.9841C62.7652 84.8094 62.7035 84.6141 62.6418 84.429L62.6414 84.4277C62.5593 84.178 62.4772 83.9283 62.3883 83.682C62.3042 83.4449 62.2422 83.2005 62.2032 82.9521L62.1381 82.7636C62.0918 82.6972 62.0527 82.6259 62.0216 82.5512C61.9235 82.1444 61.801 81.7439 61.6549 81.3518L60.9285 79.2237C60.8771 79.089 60.8493 78.9464 60.8462 78.8023C60.7337 78.5338 60.6364 78.2593 60.5549 77.9798C60.4874 77.7277 60.4062 77.4795 60.3116 77.2363L59.4344 74.6662L58.8553 72.1235C58.7294 71.62 58.6322 71.1097 58.564 70.5952C58.564 70.5358 58.5457 70.4703 58.5274 70.4048C58.5183 70.3721 58.5092 70.3393 58.5023 70.3073L58.4612 70.112C58.3949 70.0199 58.3525 69.9127 58.3378 69.8002C58.2611 69.2511 58.1547 68.7066 58.0191 68.169L57.8855 67.5899C57.8778 67.5497 57.8695 67.5082 57.861 67.4664C57.8358 67.3409 57.8101 67.213 57.7998 67.1102C57.7523 66.7549 57.6848 66.4025 57.5977 66.0548L57.0254 63.5395L56.9945 63.4025L56.8986 63.1386C56.8609 63.0324 56.8266 62.9261 56.7958 62.8165C56.7416 62.6357 56.6662 62.4417 56.5928 62.2531L56.5628 62.1757C56.4293 61.8334 56.2924 61.4911 56.1555 61.1488L56.155 61.1476C56.0587 60.9133 55.9819 60.6715 55.9254 60.4246L55.2401 58.6838C55.0714 58.2977 54.926 57.9017 54.8049 57.4981C54.7462 57.3107 54.6775 57.1266 54.5992 56.9464L54.1949 55.9424C54.1444 55.8284 54.0985 55.7125 54.0575 55.5948L54.0372 55.6924C54.0023 55.8439 53.9588 55.9828 53.9154 56.1211C53.8607 56.2954 53.8062 56.4687 53.7699 56.6656C53.718 56.9473 53.6703 57.168 53.6201 57.4007L53.5815 57.5805L53.5438 57.7655L52.8344 61.2609C52.7679 61.6368 52.6798 62.0087 52.5706 62.3745C52.5375 62.4933 52.5157 62.6149 52.5055 62.7378C52.4723 63.0507 52.4033 63.3589 52.2999 63.6562C52.2435 63.801 52.2088 63.9534 52.1971 64.1085C52.179 64.2945 52.1423 64.4781 52.0874 64.6567C52.0189 64.9 51.9537 65.1433 51.8989 65.3935L51.6728 66.4215L51.2855 68.2103C51.2254 68.4864 51.1797 68.7655 51.1485 69.0464C51.1331 69.2025 51.1009 69.3564 51.0525 69.5056C50.926 69.8975 50.8241 70.2969 50.7475 70.7015L50.6859 70.9826L50.0005 74.1763C49.9442 74.454 49.8733 74.7285 49.788 74.9987C49.7332 75.1666 49.6887 75.3414 49.6475 75.5435C49.5894 75.7932 49.5381 76.0429 49.4868 76.2925L49.4868 76.2926L49.4868 76.2927L49.4868 76.2928L49.4867 76.2929L49.4867 76.293L49.4867 76.2931L49.4867 76.2932L49.4866 76.2933L49.4866 76.2934L49.4866 76.2935L49.4865 76.294C49.4358 76.5278 49.3659 76.7571 49.2775 76.9794L49.2363 77.1678C49.2439 77.2453 49.2439 77.3234 49.2363 77.4009C49.1155 77.7887 49.0183 78.1835 48.9451 78.5831L48.4893 80.7179C48.4629 80.8562 48.4143 80.9893 48.3454 81.112C48.3063 81.3919 48.2491 81.6689 48.174 81.9413C48.1062 82.1861 48.0513 82.4343 48.0096 82.6849L47.4784 85.1659L47.0809 87.6743C47.0116 88.1728 46.9143 88.667 46.7896 89.1546C46.7733 89.2106 46.7633 89.2761 46.7532 89.3425L46.7532 89.3426C46.7485 89.3737 46.7437 89.405 46.7382 89.4356L46.7108 89.6241C46.7398 89.7364 46.7398 89.8543 46.7108 89.9667C46.5798 90.4882 46.4791 91.0168 46.4093 91.5499L46.3202 92.1187C46.2968 92.2746 46.2648 92.4291 46.2242 92.5813C46.1378 92.9198 46.0714 93.2631 46.0255 93.6094L45.6348 96.0767L45.5937 96.3234L45.5354 96.5221L45.484 96.6763L45.484 96.6764L45.484 96.6764L45.484 96.6765L45.484 96.6765L45.484 96.6766L45.4839 96.6766L45.4839 96.6767L45.4839 96.6767L45.4839 96.6768L45.4839 96.6768L45.4839 96.6768C45.4496 96.7795 45.4154 96.8821 45.3744 96.9813C45.299 97.1766 45.2339 97.3994 45.1722 97.6118C45.0728 97.9545 44.9735 98.2972 44.8844 98.6399C44.8175 98.8754 44.7303 99.1047 44.6239 99.3252L44.1305 101.08C44.0287 101.477 43.904 101.869 43.757 102.252C43.6897 102.43 43.6325 102.612 43.5856 102.797L43.2978 103.825C43.2617 103.979 43.2159 104.131 43.1607 104.28C42.9508 104.841 42.7712 105.413 42.6227 105.994L42.5199 106.364L42.4137 106.734C42.3566 106.858 42.2828 106.973 42.1944 107.077L42.0813 107.042C42.0744 107.008 42.0744 106.973 42.0813 106.939C42.047 106.939 42.0093 106.939 41.9579 107.015L40.9299 106.724C40.8408 106.7 40.7723 106.624 40.7585 106.419C40.7489 106.365 40.7489 106.311 40.7585 106.258L40.995 105.541C41.0514 105.355 41.1237 105.174 41.2109 105C41.3843 104.561 41.5319 104.113 41.6529 103.657C41.6833 103.54 41.7223 103.425 41.7694 103.314C41.9061 102.962 42.0206 102.601 42.1121 102.235L42.609 100.477C42.6875 100.172 42.7848 99.8718 42.9003 99.5788C43.0117 99.281 43.1044 98.9766 43.1778 98.6673C43.2812 98.2698 43.4071 97.8786 43.5548 97.4953C43.6199 97.3377 43.6713 97.1526 43.7261 96.9505L43.9934 96.0081L44.0448 95.6654C44.0849 95.4226 44.1433 95.1832 44.2196 94.9492L44.5622 92.8486C44.6217 92.4078 44.7063 91.9708 44.8158 91.5396C44.8608 91.3533 44.8951 91.1645 44.9186 90.9742L45.1482 89.5452C45.1732 89.3561 45.2086 89.1685 45.2544 88.9833C45.3489 88.6142 45.4221 88.2401 45.4738 87.8627L45.9055 85.1453C46.022 84.5449 46.1506 83.9476 46.2792 83.3502L46.2792 83.3501L46.2792 83.35L46.2792 83.3498L46.2793 83.3497L46.2793 83.3496L46.2793 83.3495L46.2793 83.3494L46.2794 83.3493L46.2794 83.3492L46.2794 83.349C46.3438 83.0501 46.4081 82.7512 46.4709 82.4519L47.2557 78.7681C47.3185 78.4201 47.4043 78.0767 47.5127 77.7401C47.5511 77.6197 47.5832 77.4972 47.6086 77.3734C47.6989 76.9368 47.8133 76.5055 47.9513 76.0816C47.9966 75.9284 48.0332 75.7728 48.061 75.6155L48.2837 74.5875C48.3317 74.3716 48.3831 74.1454 48.4482 73.9467C48.5339 73.6759 48.599 73.3984 48.6606 73.1174L49.2123 70.5713L49.2308 70.4877L49.2308 70.4877C49.2797 70.2665 49.3301 70.0384 49.394 69.8346C49.4716 69.5974 49.5245 69.3528 49.5516 69.1047C49.5739 68.9156 49.6071 68.728 49.651 68.5427L50.4049 65.0577C50.446 64.8726 50.494 64.6842 50.5488 64.5094C50.5971 64.3602 50.6293 64.2063 50.6447 64.0502C50.6693 63.8008 50.7257 63.5555 50.8126 63.3203C50.8959 63.085 50.9466 62.8395 50.9634 62.5904C50.9695 62.4669 50.9867 62.3442 51.0148 62.2238C51.0927 61.9564 51.1396 61.6877 51.1864 61.4193C51.2158 61.2509 51.2451 61.0826 51.2821 60.9147L51.5597 59.5954C51.6008 59.4104 51.6453 59.2185 51.7002 59.0437C51.8636 58.5302 51.9783 58.0024 52.0428 57.4674C52.0688 57.2306 52.1162 56.9969 52.1648 56.7575L52.1649 56.7574L52.1731 56.717L52.6048 54.6609L52.6837 54.284C52.6768 54.2053 52.6768 54.1262 52.6837 54.0475C52.7049 53.8927 52.7358 53.7393 52.7762 53.5883C52.8707 53.2818 52.9591 52.9722 53.0353 52.6506C53.0355 52.6342 53.036 52.6177 53.0366 52.6013L53.048 52.5967C53.0864 52.4303 53.1845 52.2588 53.2388 52.2588C53.3562 52.1976 53.477 52.2168 53.564 52.3834L54.2497 52.1044C54.3354 52.0702 54.4348 52.0873 54.5924 52.2449C54.6283 52.2881 54.6572 52.3367 54.6781 52.3889L54.9351 53.1187C55.0066 53.306 55.0639 53.4985 55.1064 53.6945C55.2416 54.1605 55.4041 54.6182 55.593 55.0652C55.6455 55.1843 55.6901 55.3068 55.7266 55.4318C55.8357 55.8065 55.9685 56.1739 56.1242 56.5318L56.8266 58.2726C56.9601 58.57 57.0746 58.8756 57.1693 59.1875C57.2661 59.4988 57.3805 59.8042 57.512 60.1025C57.6786 60.4906 57.8239 60.8876 57.9472 61.2916C58.0044 61.4795 58.073 61.6637 58.1528 61.8433L58.5777 62.8987L58.6874 63.3716C58.7427 63.6174 58.7782 63.8672 58.7936 64.1186L59.2768 66.2466C59.3916 66.6897 59.4786 67.1395 59.5372 67.5934C59.5522 67.7209 59.5854 67.8666 59.6183 68.0106L59.6183 68.0106L59.6183 68.0107L59.6184 68.0109L59.6184 68.0113L59.6185 68.0117C59.6306 68.0647 59.6427 68.1175 59.6537 68.169L59.9964 69.622C60.0459 69.8114 60.0837 70.0036 60.1095 70.1977C60.161 70.5853 60.2342 70.9697 60.3288 71.3491L60.9833 74.2241L61.8366 76.7188L63.0873 80.382C63.2119 80.7181 63.3161 81.0614 63.3992 81.41C63.4264 81.5367 63.4618 81.6615 63.5054 81.7836C63.6586 82.213 63.7902 82.6499 63.8995 83.0926C63.9408 83.2518 63.9911 83.4085 64.0502 83.562L64.3929 84.5901C64.4705 84.804 64.5346 85.0226 64.5848 85.2446C64.6431 85.5324 64.7253 85.81 64.811 86.0944L65.5854 88.661L65.5888 88.6722L65.5888 88.6723C65.6632 88.919 65.7404 89.1753 65.791 89.4149C65.8407 89.6673 65.9153 89.9141 66.0138 90.1517C66.087 90.3322 66.151 90.5163 66.2057 90.7034L67.268 94.2158C67.3262 94.4043 67.3742 94.5962 67.4119 94.7812C67.4453 94.9396 67.4935 95.0945 67.5558 95.2438C67.6593 95.479 67.7319 95.7267 67.7717 95.9806C67.8162 96.2352 67.897 96.4822 68.0116 96.7139C68.0693 96.8238 68.1175 96.9384 68.1555 97.0566C68.2267 97.331 68.3248 97.5939 68.4224 97.8554C68.4845 98.0217 68.5463 98.1875 68.601 98.3553L69.043 99.6712C69.1047 99.8562 69.1629 100.052 69.2075 100.233C69.3348 100.771 69.5114 101.297 69.7352 101.803C69.8334 102.021 69.911 102.248 69.9899 102.479L70.0094 102.536L70.6947 104.592L70.8215 104.966C70.8674 105.032 70.9086 105.102 70.9449 105.175C71.0065 105.323 71.058 105.475 71.0991 105.63C71.1813 105.973 71.2704 106.316 71.3766 106.658C71.428 106.83 71.4315 107.028 71.3766 107.063C71.2156 107.207 71.0305 107.237 70.753 106.908ZM57.673 65.7943H57.697L57.6628 65.7429L57.673 65.7943ZM45.8096 93.8081H45.8301L45.8096 93.8664C45.8079 93.847 45.8079 93.8275 45.8096 93.8081ZM56.5696 108.081H56.2818C56.2563 108.084 56.2305 108.08 56.207 108.07C56.1835 108.059 56.1632 108.043 56.1481 108.022C55.9798 108.035 55.8107 108.012 55.6512 107.957C55.6192 107.946 55.5913 107.925 55.5712 107.897C55.551 107.87 55.5395 107.837 55.5382 107.803L55.5176 107.621C55.512 107.549 55.4971 107.477 55.473 107.409C55.4517 107.359 55.4408 107.305 55.4408 107.251C55.4408 107.197 55.4517 107.143 55.473 107.094V107.022C55.4903 106.891 55.5006 106.759 55.5039 106.628C55.4931 106.554 55.4877 106.478 55.4827 106.406L55.4788 106.352C55.477 106.329 55.4752 106.306 55.473 106.285V106.213L55.3702 104.842C55.348 104.696 55.348 104.547 55.3702 104.4C55.375 104.351 55.3679 104.302 55.3497 104.256C55.308 104.14 55.302 104.013 55.3325 103.893C55.3547 103.836 55.3547 103.772 55.3325 103.715C55.3043 103.647 55.296 103.572 55.3086 103.499C55.3154 103.401 55.3154 103.302 55.3086 103.204C55.3086 103.107 55.3 103.012 55.2913 102.915L55.2913 102.915C55.2877 102.876 55.2841 102.836 55.2811 102.796L55.2297 102.091C55.2244 101.98 55.2012 101.871 55.1612 101.768C55.1449 101.709 55.1449 101.646 55.1612 101.587C55.1852 101.428 55.1852 101.266 55.1612 101.107V100.997L55.0687 99.7363C55.0519 99.6227 55.0519 99.5073 55.0687 99.3937C55.0755 99.3207 55.0755 99.2473 55.0687 99.1744C55.0658 99.0747 55.0578 98.9751 55.0447 98.8762C55.0391 98.7785 55.053 98.6806 55.0858 98.5884V98.5164C55.0803 98.5065 55.0729 98.4957 55.0656 98.4851C55.0504 98.463 55.0355 98.4412 55.0378 98.4273C55.0619 98.2706 55.0619 98.1112 55.0378 97.9545L54.983 97.1115C54.9789 97.0822 54.9811 97.0525 54.9894 97.0241C54.9976 96.9957 55.0118 96.9695 55.031 96.947C55.0012 96.8354 54.9919 96.7193 55.0036 96.6043C55.0154 96.5065 55.0154 96.4075 55.0036 96.3096L54.8871 94.3461C54.8579 94.1518 54.8579 93.9543 54.8871 93.7601C54.8922 93.7226 54.8922 93.6846 54.8871 93.647V93.575C54.8669 93.5619 54.8508 93.5434 54.8405 93.5216C54.8302 93.4999 54.8262 93.4756 54.8288 93.4517C54.8597 93.2438 54.8597 93.0325 54.8288 92.8246V92.6019C54.8202 92.5405 54.8202 92.4782 54.8288 92.4168C54.8494 92.2828 54.8494 92.1465 54.8288 92.0125L54.7706 91.0461C54.7541 90.9325 54.7541 90.8171 54.7706 90.7034C54.7809 90.6181 54.7809 90.5318 54.7706 90.4464V90.4464C54.7706 90.3093 54.7706 90.1723 54.7466 90.0352C54.7407 89.9386 54.7547 89.8418 54.7877 89.7508L54.7466 89.0449C54.7282 88.8862 54.734 88.7256 54.7637 88.5686C54.774 88.4958 54.774 88.422 54.7637 88.3493L54.7397 87.9415C54.7329 87.88 54.7329 87.8179 54.7397 87.7564C54.771 87.5291 54.771 87.2985 54.7397 87.0711V86.9238V86.773C54.7653 86.7137 54.804 86.661 54.8528 86.6188H54.9693C54.9763 86.6224 54.9822 86.6277 54.9864 86.6344C54.9906 86.641 54.993 86.6486 54.9933 86.6565C55.0121 86.6573 55.0307 86.6534 55.0475 86.645C55.0643 86.6366 55.0787 86.624 55.0892 86.6085L56.1618 86.5468C56.2073 86.5402 56.2537 86.5439 56.2975 86.5575C56.3414 86.5712 56.3817 86.5944 56.4154 86.6256C56.4327 86.6403 56.4438 86.6612 56.4462 86.6839V86.9785C56.4474 87.0562 56.4322 87.1333 56.4017 87.2047C56.3641 87.3849 56.3537 87.5697 56.3709 87.753C56.3794 87.8017 56.3794 87.8516 56.3709 87.9004C56.3434 88.0453 56.3434 88.194 56.3709 88.339L56.412 89.0449C56.4308 89.1664 56.4308 89.29 56.412 89.4115C56.3948 89.5332 56.3948 89.6566 56.412 89.7782C56.4359 89.9372 56.4359 90.099 56.412 90.258C56.4016 90.3307 56.4016 90.4046 56.412 90.4773C56.412 90.6161 56.4235 90.7549 56.4351 90.8937L56.439 90.9409C56.4415 90.9714 56.444 91.0019 56.4462 91.0324C56.4507 91.1304 56.4356 91.2282 56.4017 91.3203L56.4497 92.1393C56.4771 92.3095 56.4771 92.483 56.4497 92.6533C56.4394 92.7272 56.4394 92.8021 56.4497 92.876L56.4805 93.4346C56.4909 93.5073 56.4909 93.5811 56.4805 93.6539C56.4566 93.8002 56.4566 93.9495 56.4805 94.0959L56.6073 96.2171C56.6189 96.3983 56.629 96.5795 56.6391 96.7606C56.656 97.0626 56.6728 97.3646 56.6964 97.6666C56.7187 97.8005 56.7187 97.9371 56.6964 98.0709C56.6877 98.1197 56.6877 98.1696 56.6964 98.2183C56.7222 98.3887 56.7222 98.562 56.6964 98.7323C56.6896 98.7938 56.6896 98.8559 56.6964 98.9174L56.7238 99.3286C56.7324 99.414 56.7324 99.5001 56.7238 99.5856C56.7074 99.6992 56.7074 99.8146 56.7238 99.9283L56.7958 100.929C56.8061 101.027 56.8061 101.126 56.7958 101.224C56.7761 101.32 56.7844 101.42 56.8198 101.511C56.8412 101.583 56.8538 101.656 56.8575 101.731L56.9603 103.101C56.9671 103.174 56.9671 103.248 56.9603 103.321C56.9495 103.382 56.9554 103.444 56.9774 103.502C57.0098 103.596 57.0098 103.697 56.9774 103.79C56.9542 103.886 56.9626 103.987 57.0014 104.078C57.0237 104.122 57.0354 104.17 57.0356 104.219C57.036 104.391 57.0521 104.563 57.0836 104.733L57.1179 105.253C57.1248 105.326 57.1248 105.4 57.1179 105.473C57.0827 105.681 57.098 105.895 57.1624 106.096C57.1906 106.191 57.2067 106.289 57.2104 106.388L57.2721 107.203V107.351C57.2721 107.367 57.2858 107.382 57.2995 107.396C57.3116 107.409 57.3237 107.422 57.3269 107.436C57.3371 107.496 57.3371 107.558 57.3269 107.618C57.3046 107.749 57.2943 107.882 57.2961 108.015C57.295 108.049 57.284 108.082 57.2645 108.109C57.245 108.136 57.2178 108.158 57.1864 108.17C57.0855 108.213 56.9743 108.228 56.8654 108.213C56.7564 108.197 56.654 108.151 56.5696 108.081ZM54.9693 91.9439H54.9933L54.9693 91.9234V91.9439ZM93.3044 54.5066H93.0131C92.8426 54.41 92.6422 54.3806 92.4511 54.4244C92.4243 54.4267 92.3988 54.4372 92.378 54.4543C92.3573 54.4714 92.3421 54.4944 92.3346 54.5203C92.3243 54.6115 92.3036 54.7011 92.2729 54.7876C92.2626 54.8281 92.2626 54.8705 92.2729 54.911C92.2773 54.924 92.2899 54.9357 92.3029 54.9477L92.303 54.9477C92.3105 54.9547 92.3181 54.9617 92.3244 54.9692V55.6237C92.3219 55.6911 92.3311 55.7583 92.3518 55.8225C92.4013 55.9574 92.4013 56.1056 92.3518 56.2405C92.3355 56.2879 92.3274 56.3378 92.3278 56.3879V56.7306C92.3429 56.8443 92.3429 56.9595 92.3278 57.0732C92.3219 57.0908 92.3306 57.1107 92.339 57.1302C92.3455 57.1449 92.3518 57.1594 92.3518 57.1726C92.3677 57.2021 92.376 57.2351 92.376 57.2686C92.376 57.3021 92.3677 57.335 92.3518 57.3645C92.3367 57.3949 92.3288 57.4283 92.3288 57.4622C92.3288 57.4961 92.3367 57.5295 92.3518 57.5598C92.3603 57.5793 92.3646 57.6003 92.3646 57.6215C92.3646 57.6427 92.3603 57.6637 92.3518 57.6832C92.3371 57.731 92.3291 57.7806 92.3278 57.8305V58.7592C92.3254 58.8106 92.3336 58.8619 92.3518 58.91C92.3775 58.9726 92.3775 59.0427 92.3518 59.1053C92.3352 59.1691 92.3271 59.2348 92.3278 59.3006V59.986C92.3312 60.0615 92.3208 60.137 92.2969 60.2087C92.2787 60.2651 92.2705 60.3243 92.2729 60.3835V60.6611C92.2799 60.7019 92.2799 60.7436 92.2729 60.7844C92.2312 60.8936 92.2136 61.0105 92.2215 61.1271C92.2217 61.1613 92.2147 61.1951 92.201 61.2264C92.1663 61.3122 92.1534 61.4052 92.1633 61.4972V62.4772V63.9096C92.1718 64.0108 92.1578 64.1126 92.1222 64.2077C92.1115 64.2563 92.1115 64.3065 92.1222 64.3551V64.7321C92.1326 64.7818 92.1326 64.8331 92.1222 64.8828C92.0809 64.992 92.0656 65.1093 92.0776 65.2255V65.7772C92.0409 65.8348 92.0197 65.9009 92.0159 65.9691V66.346C92.0211 66.3958 92.0152 66.4461 91.9988 66.4934C91.9614 66.5964 91.9474 66.7064 91.9577 66.8155C91.9681 66.8983 91.9611 66.9823 91.9371 67.0622C91.9331 67.0719 91.9294 67.0816 91.926 67.0914C91.7779 66.9719 91.6586 66.8202 91.5773 66.6476C91.5417 66.5842 91.5016 66.5235 91.4574 66.4659L91.1147 66.0684C90.9883 65.9494 90.8736 65.8186 90.772 65.6778C90.7419 65.6401 90.7046 65.6086 90.6623 65.5853C90.5773 65.5356 90.5119 65.4582 90.4773 65.366C90.4459 65.2732 90.3844 65.1936 90.3025 65.1398C90.2516 65.1075 90.2111 65.061 90.186 65.0061C90.1533 64.94 90.1131 64.878 90.0661 64.8211L89.1957 63.7691C89.1513 63.7121 89.0994 63.6614 89.0415 63.6183C88.9606 63.5639 88.8965 63.4879 88.8564 63.399C88.81 63.3128 88.7536 63.2323 88.6885 63.1591L88.0546 62.3915C87.9829 62.3093 87.9218 62.2184 87.873 62.1208C87.8334 62.0447 87.7851 61.9734 87.729 61.9084L87.472 61.5931C87.4296 61.5499 87.3928 61.5015 87.3624 61.4492C87.2899 61.2938 87.1939 61.1505 87.078 61.0243C87.0453 60.9882 87.0197 60.9464 87.0026 60.9009C86.9471 60.7747 86.8707 60.6588 86.7764 60.5582C86.5921 60.3391 86.4164 60.1139 86.2404 59.8884L86.2401 59.888L86.2399 59.8877C86.1216 59.7361 86.0032 59.5843 85.882 59.4343L84.5867 57.7791C84.4876 57.67 84.4077 57.5448 84.3503 57.409C84.3172 57.3434 84.2757 57.2824 84.2269 57.2274L83.8842 56.7922C83.8347 56.7379 83.7932 56.6767 83.7609 56.6106C83.6896 56.4543 83.5948 56.3099 83.4799 56.1823L82.9796 55.5449C82.9569 55.4515 82.9149 55.364 82.8562 55.2879C82.7397 55.144 82.6266 55 82.5135 54.8527C82.465 54.7982 82.4246 54.7371 82.3936 54.6711C82.3271 54.5271 82.2406 54.3933 82.1366 54.2736C82.0511 54.1863 81.9805 54.0856 81.9275 53.9754C81.881 53.8628 81.8162 53.7586 81.7356 53.667L81.3039 53.1187C81.2067 53.0101 81.128 52.8862 81.0709 52.7521C81.0524 52.7064 81.0257 52.6646 80.992 52.6287C80.8742 52.4899 80.7783 52.3339 80.7076 52.1661C80.6925 52.09 80.6622 52.0177 80.6185 51.9537L80.4677 51.7069C80.4607 51.698 80.4519 51.6907 80.4418 51.6854C80.4318 51.6801 80.4208 51.6769 80.4095 51.6761C80.3635 51.6695 80.3166 51.6731 80.2722 51.6867C80.2277 51.7004 80.1869 51.7236 80.1525 51.7549L79.3095 52.4197C79.3082 52.4383 79.3026 52.4564 79.293 52.4724C79.2845 52.4868 79.2732 52.4992 79.2596 52.5089L79.2525 52.5097C79.2432 52.4997 79.2306 52.4933 79.217 52.4917L79.1836 52.5179L79.145 52.5225C78.9257 52.1524 78.7407 52.1456 78.5864 52.2244C78.5193 52.3454 78.4986 52.4867 78.5282 52.6219C78.5727 52.9646 78.6002 53.3072 78.6241 53.6499C78.6381 53.8091 78.6633 53.9672 78.6995 54.1228C78.7213 54.199 78.7488 54.2735 78.7818 54.3455L78.8435 54.7328L79.169 56.8608C79.2101 57.1178 79.2512 57.3679 79.3129 57.6181C79.4445 58.1487 79.5283 58.69 79.5631 59.2355C79.5734 59.4206 79.5973 59.6159 79.6248 59.8078L79.8338 61.1785C79.8584 61.3469 79.8894 61.5139 79.9204 61.6813L79.9205 61.6813L79.9205 61.6814L79.9205 61.6815L79.9205 61.6816L79.9205 61.6816L79.9205 61.6817C79.9716 61.9568 80.0228 62.2329 80.0462 62.5183C80.0613 62.643 80.0888 62.7659 80.1285 62.885C80.2008 63.1286 80.2377 63.3814 80.2381 63.6355C80.2331 63.8892 80.2607 64.1427 80.3204 64.3894C80.3566 64.5446 80.3773 64.703 80.3821 64.8623C80.3889 65.0473 80.4026 65.246 80.4266 65.4379L80.8618 69.0292C80.8801 69.2215 80.9099 69.4126 80.9509 69.6015C81.0078 69.8489 81.0388 70.1015 81.0434 70.3553C81.0537 70.5986 81.0846 70.8659 81.1154 71.1229L81.4307 73.7444L81.4402 73.8251L81.4402 73.8252C81.4716 74.089 81.5026 74.3502 81.5026 74.6114V74.6833V74.793L81.5609 75.0808L81.6191 75.3378L81.8419 76.4138C81.8512 76.4528 81.8612 76.4927 81.8712 76.5327L81.8712 76.533L81.8713 76.5331L81.8714 76.5335L81.8714 76.5338L81.8715 76.5339L81.8715 76.5341C81.9019 76.6555 81.9327 76.7788 81.9481 76.8867C82.0103 77.3335 82.0984 77.7763 82.212 78.2129C82.2161 78.2315 82.2206 78.2505 82.2253 78.2696L82.2355 78.3105C82.2594 78.4056 82.2839 78.5034 82.2839 78.5898C82.3296 78.9369 82.3995 79.2804 82.4929 79.6178L83.3839 83.3324L84.0076 85.9265L84.4668 88.7536C84.5364 89.1332 84.5845 89.5165 84.6107 89.9015C84.6251 90.0947 84.6503 90.2869 84.6861 90.4773L84.9191 91.9268C84.9558 92.1182 84.9821 92.3115 84.9979 92.5059C85.0294 92.9556 85.0878 93.403 85.1727 93.8457L85.5153 95.9737C85.5155 96.2239 85.5349 96.4737 85.5736 96.7208L85.8203 98.1634C85.8591 98.3525 85.8877 98.5436 85.906 98.7357C85.9395 99.1521 85.9967 99.5663 86.0773 99.9762C86.144 100.292 86.1932 100.611 86.2247 100.932C86.2469 101.252 86.2893 101.57 86.3515 101.885L86.6702 103.711C86.7463 104.089 86.7978 104.471 86.8244 104.856C86.8323 104.984 86.8495 105.111 86.8758 105.236C86.9283 105.511 86.9716 105.786 87.0056 106.064L86.8621 105.857C86.7788 105.735 86.686 105.621 86.5845 105.514C86.3639 105.288 86.1811 105.027 86.0431 104.743C85.9926 104.643 85.9353 104.547 85.8717 104.455L85.4194 103.807C85.2548 103.604 85.1026 103.391 84.9636 103.17C84.9233 103.11 84.8749 103.056 84.8197 103.009C84.7122 102.914 84.6258 102.797 84.5661 102.666C84.5129 102.529 84.4298 102.405 84.3228 102.303C84.256 102.239 84.2014 102.164 84.1618 102.08C84.1126 101.981 84.0553 101.886 83.9904 101.796L82.7911 100.082C82.7288 99.99 82.6589 99.9029 82.582 99.8221C82.4772 99.7186 82.3923 99.5966 82.3319 99.4623C82.2638 99.3299 82.1859 99.2027 82.0989 99.0819L81.2456 97.8209C81.149 97.6838 81.063 97.5394 80.9886 97.3891C80.9331 97.2696 80.8678 97.155 80.7933 97.0464L80.4506 96.529C80.3924 96.4555 80.3419 96.3763 80.2998 96.2925C80.1898 96.0525 80.0579 95.8231 79.9058 95.6072C79.8622 95.5463 79.8254 95.4807 79.7961 95.4118C79.7128 95.2245 79.6081 95.0475 79.4843 94.8841L78.2506 93.0645L75.7799 89.4287L75.6326 90.0867C75.5687 90.4134 75.4816 90.7352 75.3722 91.0496C75.3161 91.2128 75.2725 91.3801 75.2419 91.5499L74.937 92.8932C74.9022 93.0714 74.8575 93.2476 74.8033 93.4209C74.7746 93.4957 74.7434 93.5947 74.7199 93.6691L74.7074 93.7087C74.686 93.7695 74.6677 93.8312 74.6525 93.8938L74.5634 94.2776L74.2893 95.4907C74.2181 95.6171 74.1661 95.7533 74.1351 95.895L73.9501 96.7174C73.929 96.827 73.8992 96.9347 73.861 97.0395C73.7715 97.2609 73.7038 97.4904 73.6588 97.7249C73.6275 97.9083 73.5793 98.0884 73.5149 98.2629C73.4448 98.4343 73.392 98.6122 73.3572 98.794L73.1208 99.8221C73.0814 100.041 73.0182 100.255 72.9323 100.459C72.903 100.528 72.8812 100.599 72.8672 100.672C72.8132 100.944 72.7329 101.21 72.6273 101.467C72.5671 101.566 72.522 101.673 72.4937 101.786L72.3635 102.207C72.3547 102.24 72.3547 102.274 72.3635 102.306C72.3772 102.356 72.4044 102.4 72.4419 102.434C72.4794 102.469 72.5259 102.492 72.5759 102.502L73.6245 102.738C73.6362 102.721 73.6532 102.708 73.673 102.701C73.6928 102.694 73.7143 102.694 73.7342 102.701C73.7279 102.721 73.7279 102.742 73.7342 102.762L73.8507 102.79C73.9156 102.734 73.9712 102.668 74.0152 102.594L74.0666 102.375L74.1145 102.156C74.1759 101.805 74.2699 101.461 74.3955 101.128C74.4292 101.041 74.4533 100.952 74.4675 100.86L74.6046 100.257C74.6257 100.148 74.6554 100.04 74.6937 99.9352C74.7833 99.7139 74.851 99.4843 74.8958 99.2498L75.1289 98.2218C75.2001 98.0954 75.252 97.9591 75.2831 97.8174C75.3242 97.6152 75.3722 97.4131 75.4201 97.2109C75.4485 97.0837 75.4863 96.9589 75.5332 96.8374C75.5924 96.6813 75.6394 96.5209 75.6737 96.3576L75.9993 94.9253C76.0349 94.7232 76.0924 94.5255 76.1706 94.3358C76.205 94.2505 76.2314 94.1622 76.2494 94.072L76.2837 93.9315C76.3077 93.8321 76.3728 93.6848 76.3899 93.6813C76.3985 93.6796 76.3934 93.6634 76.3861 93.6404C76.3788 93.6172 76.3693 93.5872 76.3693 93.558V93.5203C76.3763 93.5133 76.3708 93.5041 76.3658 93.4956C76.3584 93.4832 76.3519 93.4723 76.3865 93.4723C76.4421 93.4723 76.4571 93.4068 76.4762 93.3234L76.479 93.3112V93.2564L76.9348 93.9418C77.0284 94.0596 77.111 94.1858 77.1815 94.3187C77.2619 94.4631 77.3572 94.5986 77.4659 94.7231C77.4736 94.8085 77.5044 94.8902 77.555 94.9595L78.2746 96.0218C78.4185 96.2131 78.5426 96.4187 78.6447 96.6352C78.6523 96.6578 78.6875 96.6805 78.7206 96.7018C78.7326 96.7095 78.7443 96.717 78.7544 96.7243L78.8161 96.8202C78.8611 96.9578 78.9257 97.0883 79.0079 97.2074C79.097 97.3308 79.1793 97.4542 79.2615 97.581C79.3228 97.6731 79.3777 97.7693 79.426 97.8688C79.4964 98.0206 79.5813 98.1652 79.6796 98.3006L80.7556 99.8872L80.8515 100.024C80.9936 100.22 81.1175 100.429 81.2216 100.648C81.2615 100.731 81.316 100.807 81.3827 100.871C81.5018 100.988 81.6096 101.117 81.7048 101.254L82.3182 102.132L82.6609 102.639C82.7431 102.762 82.8219 102.889 82.8939 103.019C82.9428 103.118 83.0089 103.207 83.0892 103.283C83.1569 103.345 83.2086 103.423 83.24 103.509C83.3127 103.679 83.4174 103.834 83.5484 103.965C83.601 104.015 83.646 104.073 83.682 104.136C83.778 104.336 83.8928 104.527 84.0247 104.705L85.2241 106.419L85.2892 106.508C85.3258 106.56 85.3592 106.609 85.3926 106.658L85.3927 106.658C85.456 106.751 85.5192 106.844 85.6044 106.957C85.6762 107.051 85.7229 107.146 85.7694 107.241C85.8073 107.318 85.8449 107.395 85.8957 107.471L85.9574 107.563C86.002 107.718 86.0885 107.858 86.2076 107.967C86.2824 108.046 86.3522 108.13 86.4166 108.218L86.5811 108.44C86.6565 108.536 86.7421 108.588 86.8072 108.588C86.9815 108.585 87.1509 108.53 87.2938 108.43C87.3181 108.446 87.3468 108.455 87.3761 108.455C87.4054 108.455 87.434 108.446 87.4583 108.43L87.5464 108.372H87.5474L87.8286 108.322C87.8929 108.339 87.9606 108.34 88.0267 108.327C88.086 108.315 88.1418 108.292 88.191 108.259L88.6029 108.187C88.6166 108.087 88.6508 108.063 88.6851 108.063C88.6895 108.099 88.7024 108.133 88.7228 108.163L88.8393 108.142C88.874 108.01 88.8902 107.874 88.8873 107.738L88.8222 107.351L88.7536 106.967C88.6341 106.369 88.546 105.765 88.4898 105.157C88.4746 104.996 88.4506 104.836 88.4178 104.678L88.2328 103.622C88.2234 103.564 88.2118 103.504 88.2002 103.445L88.2002 103.445C88.1737 103.308 88.1471 103.172 88.1471 103.05C88.115 102.635 88.0578 102.221 87.9758 101.813L87.6605 99.9899C87.6567 99.7406 87.6338 99.4921 87.592 99.2463C87.5234 98.8933 87.4617 98.5267 87.4069 98.184C87.3692 97.9613 87.3315 97.7282 87.3144 97.5192C87.2964 97.2675 87.2574 97.0183 87.2181 96.7672L87.2181 96.7671L87.2181 96.7669L87.2181 96.7667L87.218 96.7665L87.218 96.7663L87.218 96.7661L87.2013 96.6591L86.7935 94.1473C86.7301 93.7982 86.6866 93.4459 86.6633 93.0919C86.6566 92.9619 86.6306 92.7867 86.6071 92.629L86.607 92.6283L86.6051 92.6155L86.5125 92.0364C86.4121 91.4993 86.3412 90.957 86.3001 90.4121C86.2916 90.2992 86.2564 90.19 86.1973 90.0935L86.1664 89.9015C86.1619 89.8696 86.1558 89.8368 86.1497 89.8041C86.1375 89.7386 86.1253 89.6731 86.1253 89.6137C86.0909 89.1021 86.0268 88.5929 85.9334 88.0888L85.5325 85.6181L84.8951 82.9658C84.8848 82.9209 84.8737 82.8755 84.8623 82.8299C84.8529 82.7923 84.8433 82.7544 84.8337 82.7167L84.8335 82.7158C84.7889 82.5411 84.7446 82.3671 84.7238 82.2119C84.6711 81.9281 84.6013 81.6477 84.5147 81.3723C84.5243 81.2305 84.5104 81.0881 84.4736 80.9509L83.9527 78.7886C83.8468 78.3892 83.7632 77.9842 83.7026 77.5755C83.68 77.4981 83.6489 77.4234 83.6101 77.3528L83.5621 77.1643C83.5459 76.9159 83.508 76.6694 83.449 76.4276C83.3839 76.174 83.3222 75.9204 83.2674 75.6668C83.2228 75.4783 83.1783 75.283 83.1543 75.1048C83.1406 74.9997 83.1235 74.8935 83.1029 74.7861L83.0515 74.5257C83.0647 74.5367 83.061 74.4955 83.0566 74.4473V74.4472C83.0541 74.4203 83.0515 74.3914 83.0515 74.3681L82.6506 71.0715L82.6163 70.7802C82.554 70.3672 82.5185 69.9506 82.5101 69.5329C82.5064 69.3724 82.4858 69.2128 82.4484 69.0566C82.3843 68.7761 82.3351 68.4924 82.3011 68.2067L82.0783 66.3598L81.9515 65.2906C81.9241 65.037 81.9035 64.7766 81.8864 64.523C81.8794 64.3323 81.853 64.1429 81.8076 63.9576C81.7699 63.8041 81.7526 63.6462 81.7562 63.4881C81.7557 63.1689 81.7142 62.851 81.6328 62.5424C81.5986 62.4212 81.5745 62.2974 81.5609 62.1722C81.5349 61.7849 81.4868 61.3993 81.417 61.0174L80.8687 57.4365L80.8378 57.248C80.8236 57.1556 80.81 57.0625 80.7963 56.9693C80.764 56.7481 80.7315 56.526 80.6905 56.3091C80.6543 56.1056 80.6435 55.9168 80.6329 55.7306C80.6243 55.5813 80.6159 55.4335 80.5945 55.281L80.5671 55.0926C80.5715 54.9918 80.5699 54.891 80.5626 54.7907L80.8515 55.1577C80.8754 55.2523 80.9186 55.3409 80.9783 55.4181C81.064 55.5209 81.1497 55.6271 81.2285 55.7368C81.2817 55.8037 81.3276 55.8761 81.3656 55.9527C81.4119 56.0522 81.4706 56.1454 81.5403 56.2302L82.1332 56.9841C82.2238 57.0854 82.2968 57.2013 82.349 57.3268C82.3744 57.3828 82.4079 57.4348 82.4484 57.481C82.4758 57.5221 82.5063 57.5602 82.5367 57.5983C82.552 57.6173 82.5672 57.6364 82.5821 57.6558C82.7206 57.8108 82.8361 57.9851 82.9247 58.1732C82.936 58.1942 82.9528 58.2117 82.9734 58.2238C82.9939 58.2359 83.0174 58.2421 83.0412 58.2417L83.0858 58.3C83.1116 58.3265 83.1335 58.3565 83.1509 58.3891C83.231 58.5672 83.3372 58.7324 83.4662 58.8791L84.6689 60.4109C84.7375 60.4816 84.7962 60.5611 84.8437 60.6473C84.8737 60.7235 84.9256 60.7733 84.9771 60.8228C85.0021 60.8468 85.027 60.8707 85.0493 60.8975C85.0464 60.9267 85.0498 60.9562 85.0593 60.9839C85.0687 61.0117 85.084 61.0371 85.1041 61.0585C85.1878 61.1612 85.2679 61.2623 85.3473 61.3627C85.4403 61.4802 85.5324 61.5966 85.6284 61.713C85.7383 61.8251 85.8287 61.9549 85.8957 62.0968C85.9026 62.1174 85.954 62.1414 85.9848 62.1414L86.0328 62.1962C86.0558 62.2898 86.1004 62.3766 86.163 62.4498C86.2281 62.5252 86.2932 62.6006 86.3515 62.6794C86.3996 62.7342 86.44 62.7952 86.4714 62.861C86.5182 62.9597 86.5794 63.051 86.653 63.1317L87.4515 64.0946L87.52 64.1803C87.6298 64.2964 87.72 64.4294 87.7873 64.5744C87.8141 64.629 87.8542 64.6761 87.9038 64.7114C87.9949 64.7728 88.0758 64.8479 88.1437 64.9342L88.5892 65.4722L88.6238 65.5132L88.6605 65.5563L88.6617 65.5577C88.7262 65.6333 88.7897 65.7076 88.8496 65.7875C88.9083 65.8639 88.9621 65.944 89.0106 66.0273C89.0433 66.093 89.093 66.1486 89.1546 66.1884C89.2078 66.2194 89.2471 66.2697 89.2642 66.3289C89.3088 66.4436 89.3863 66.5426 89.487 66.6133C89.5266 66.6392 89.5604 66.673 89.5863 66.7127C89.6517 66.8399 89.7373 66.9557 89.8399 67.0553L90.7103 68.1074L90.7549 68.1622C90.7737 68.1853 90.7923 68.2086 90.8109 68.2319L90.8109 68.2319C90.8668 68.302 90.9227 68.372 90.9845 68.4363C91.0588 68.5457 91.1252 68.6602 91.1832 68.779L91.2278 68.8338C91.2385 68.8865 91.2599 68.9364 91.2905 68.9806C91.3211 69.0248 91.3604 69.0623 91.4059 69.0908C91.4642 69.1335 91.5171 69.1829 91.5636 69.2382L91.6835 69.3718C91.7039 69.3994 91.7322 69.4202 91.7646 69.4312C91.7971 69.4422 91.8322 69.443 91.8651 69.4335C92.0269 69.3853 92.1772 69.3048 92.3072 69.1971C92.331 69.2051 92.3564 69.2069 92.3811 69.2021C92.4057 69.1973 92.4287 69.1861 92.4477 69.1697L92.6567 69.0018H93.0508C93.0803 68.9824 93.115 68.9729 93.1502 68.9744C93.1502 69.0018 93.1708 69.0018 93.1708 69.0018H93.2907C93.3365 68.9779 93.3764 68.9439 93.4072 68.9024V68.7996C93.4055 68.7665 93.4055 68.7333 93.4072 68.7002C93.3906 68.5421 93.4069 68.3823 93.4552 68.2308C93.4621 68.1899 93.4621 68.1482 93.4552 68.1074V67.8298C93.4445 67.7813 93.4445 67.731 93.4552 67.6825C93.4933 67.5808 93.5085 67.472 93.4997 67.3638V66.8874C93.5378 66.8307 93.5581 66.7639 93.558 66.6956V66.418C93.5573 66.36 93.5654 66.3022 93.582 66.2466C93.6083 66.1755 93.62 66.0997 93.6162 66.0239V65.3694C93.6067 65.2775 93.6197 65.1846 93.6539 65.0987C93.6677 65.059 93.6746 65.0173 93.6745 64.9753V64.8245C93.6596 64.6822 93.676 64.5384 93.7225 64.4031C93.7396 64.3688 93.7053 64.3414 93.6745 64.3208V64.2694C93.6694 64.2445 93.6694 64.2189 93.6745 64.194C93.7216 64.0683 93.7403 63.9337 93.7293 63.7999V62.4738C93.7155 62.4083 93.7155 62.3406 93.7293 62.2751C93.7568 62.2224 93.7476 62.1743 93.7384 62.1267C93.7338 62.1031 93.7293 62.0796 93.7293 62.0557C93.7476 62.044 93.7626 62.0278 93.7728 62.0086C93.783 61.9893 93.7881 61.9678 93.7876 61.9461V61.3738C93.7756 61.2669 93.7897 61.1588 93.8287 61.0585C93.8321 61.0517 93.8218 61.0414 93.8107 61.0303C93.7996 61.0191 93.7876 61.0072 93.7876 60.9969V60.9455C93.8267 60.8905 93.8471 60.8244 93.8458 60.757C93.8424 60.6896 93.8424 60.6222 93.8458 60.5548C93.8471 60.5048 93.8552 60.4553 93.8698 60.4075C93.8962 60.3375 93.9078 60.2628 93.9041 60.1882V59.2595C93.8934 59.1513 93.9087 59.042 93.9486 58.9408C93.9571 58.9214 93.9615 58.9004 93.9615 58.8791C93.9615 58.8579 93.9571 58.8369 93.9486 58.8175C93.9185 58.7471 93.9033 58.6713 93.9041 58.5947V58.1184V57.8443C93.9048 57.7771 93.914 57.7103 93.9315 57.6455C93.9502 57.5993 93.9502 57.5477 93.9315 57.5016C93.9207 57.4828 93.915 57.4616 93.915 57.4399C93.915 57.4183 93.9207 57.397 93.9315 57.3782C93.9484 57.3399 93.9571 57.2985 93.9571 57.2566C93.9571 57.2147 93.9484 57.1733 93.9315 57.1349C93.9218 57.1037 93.9218 57.0702 93.9315 57.039C93.9648 56.9433 93.9765 56.8415 93.9658 56.7408V55.7642C93.9658 55.7368 93.9669 55.7105 93.9681 55.6843V55.6841C93.9703 55.6316 93.9726 55.5791 93.9658 55.5175C93.9603 55.4678 93.9775 55.4221 93.9946 55.3766C94.0093 55.3374 94.024 55.2983 94.024 55.2571C94.0256 55.2411 94.0256 55.225 94.024 55.2091C94.0484 55.18 94.0639 55.1445 94.0688 55.1069C94.0737 55.0692 94.0676 55.031 94.0514 54.9966C94.032 54.9512 94.0227 54.9021 94.024 54.8527V54.7293C94.0214 54.7023 94.0098 54.6769 93.9913 54.6571C93.9727 54.6372 93.948 54.6241 93.9212 54.6197C93.7622 54.5727 93.597 54.5496 93.4312 54.5512C93.4142 54.5356 93.3941 54.5236 93.3724 54.5159C93.3506 54.5083 93.3275 54.5051 93.3044 54.5066ZM93.486 65.4311H93.51V65.4482L93.486 65.4311ZM86.7044 94.3769H86.7284L86.7353 94.4283C86.7237 94.4119 86.7134 94.3948 86.7044 94.3769ZM75.8074 95.0315H75.7868C75.7854 95.0429 75.7854 95.0543 75.7868 95.0657L75.8074 95.0315ZM107.179 87.4207V87.4001C107.178 87.4115 107.178 87.4231 107.179 87.4344V87.4207ZM134.422 109.002H134.713C134.874 109.41 135.056 109.448 135.176 109.389C135.259 109.276 135.3 109.136 135.292 108.995C135.299 108.629 135.323 108.266 135.351 107.923C135.361 107.757 135.361 107.591 135.351 107.426C135.339 107.345 135.322 107.265 135.299 107.186V106.782V104.554C135.299 104.525 135.299 104.495 135.298 104.466C135.296 104.226 135.293 103.991 135.268 103.756C135.219 103.193 135.219 102.626 135.268 102.063C135.289 101.871 135.289 101.666 135.289 101.467V100.048C135.289 99.8929 135.285 99.7381 135.281 99.5831C135.274 99.2728 135.266 98.962 135.289 98.6466C135.29 98.517 135.281 98.3876 135.262 98.2594C135.227 97.9989 135.227 97.7351 135.262 97.4747C135.3 97.2148 135.306 96.9512 135.279 96.69C135.262 96.5271 135.262 96.3628 135.279 96.1999C135.31 96.008 135.31 95.8024 135.31 95.6037L135.344 91.8651C135.35 91.6662 135.345 91.467 135.327 91.2688C135.301 91.0079 135.301 90.745 135.327 90.4841C135.358 90.2305 135.358 89.9529 135.358 89.6857L135.385 86.9443C135.388 86.6393 135.395 86.3446 135.426 86.0465L135.495 85.3611L135.58 84.2543C135.584 84.2095 135.588 84.1616 135.591 84.1127C135.6 83.9895 135.609 83.8594 135.628 83.754C135.705 83.3002 135.757 82.8426 135.786 82.3833C135.796 82.2511 135.813 82.1195 135.837 81.9892C135.9 81.6289 135.94 81.2649 135.957 80.8995L136.259 76.969L136.475 74.1796L136.341 71.1298C136.317 70.7304 136.317 70.3298 136.341 69.9304C136.351 69.7307 136.351 69.5305 136.341 69.3307L136.276 67.8127C136.266 67.6129 136.266 67.4128 136.276 67.213C136.298 66.7459 136.292 66.2779 136.259 65.8115L136.163 63.5875C136.192 63.3304 136.2 63.0714 136.187 62.813L136.166 62.3881L136.204 61.3601C136.205 61.1609 136.216 60.9618 136.238 60.7639C136.291 60.3352 136.32 59.9039 136.324 59.472C136.325 59.1389 136.343 58.806 136.379 58.4748C136.42 58.1462 136.444 57.8156 136.451 57.4845L136.512 55.5655C136.515 55.1678 136.543 54.7707 136.595 54.3764C136.615 54.2449 136.624 54.1119 136.622 53.9789C136.631 53.4837 136.669 52.9894 136.735 52.4985C136.777 52.2987 136.803 52.0959 136.814 51.892L136.872 51.1004C136.876 51.0439 136.87 50.9872 136.855 50.9325C136.787 50.7269 136.704 50.6652 136.612 50.6652L135.539 50.631C135.508 50.7372 135.471 50.7372 135.436 50.7372C135.437 50.701 135.432 50.665 135.419 50.631H135.279C135.219 50.7573 135.175 50.8909 135.149 51.0285V51.4362V51.8372C135.142 51.9956 135.137 52.1544 135.132 52.3131C135.117 52.7898 135.102 53.266 135.035 53.7287C135.017 53.8949 135.008 54.0619 135.008 54.2291L134.97 55.3359C134.97 55.5351 134.958 55.7342 134.936 55.9321C134.883 56.3608 134.855 56.7921 134.85 57.224L134.785 59.1361C134.738 59.3907 134.709 59.6484 134.7 59.9072C134.697 60.0653 134.69 60.2235 134.683 60.3819C134.674 60.5942 134.665 60.807 134.665 61.0209L134.664 61.0442C134.654 61.2637 134.644 61.4977 134.614 61.7062C134.583 61.8159 134.583 61.9255 134.583 62.0318L134.563 62.3745V62.6451L134.676 65.2769C134.698 65.6421 134.698 66.0083 134.676 66.3734V66.8704L134.703 67.4769C134.742 68.0472 134.75 68.6191 134.727 69.1903C134.72 69.3081 134.742 69.426 134.792 69.5329V69.7351C134.797 69.8356 134.797 69.9362 134.792 70.0367C134.771 70.5655 134.776 71.095 134.809 71.6233L134.919 74.1488L134.71 76.8627C134.704 76.9419 134.699 77.0235 134.695 77.1052C134.684 77.2995 134.673 77.4948 134.641 77.6612C134.604 77.9579 134.585 78.2565 134.583 78.5556C134.528 78.6931 134.496 78.8392 134.491 78.9873L134.312 81.2867C134.291 81.715 134.246 82.1418 134.175 82.5649C134.175 82.6476 134.182 82.7302 134.196 82.8116V83.0138C134.134 83.2658 134.094 83.5226 134.076 83.7814C134.059 84.0487 134.038 84.3194 134.014 84.5866C134.01 84.6235 134.007 84.6608 134.003 84.6981C133.987 84.8622 133.97 85.0288 133.942 85.1795C133.888 85.4734 133.859 85.7715 133.857 86.0704L133.822 89.4972V89.8022C133.83 90.2346 133.812 90.6672 133.768 91.0975C133.75 91.2627 133.75 91.4292 133.768 91.5943C133.795 91.8917 133.806 92.1902 133.802 92.4888L133.785 94.418V95.5317C133.781 95.799 133.768 96.0663 133.75 96.3301C133.732 96.5262 133.732 96.7235 133.75 96.9195C133.773 97.0833 133.773 97.2493 133.75 97.413C133.713 97.7409 133.713 98.072 133.75 98.3999C133.764 98.5286 133.764 98.6584 133.75 98.7871C133.721 99.1873 133.711 99.5888 133.723 99.9899L133.744 103.732V103.931V104.914C133.749 105.116 133.732 105.309 133.716 105.499C133.702 105.657 133.689 105.813 133.689 105.97V106.168C133.641 106.45 133.633 106.737 133.665 107.022C133.699 107.193 133.699 107.405 133.699 107.604V108.101C133.686 108.257 133.723 108.413 133.805 108.547C133.823 108.562 133.84 108.579 133.858 108.595C133.993 108.721 134.144 108.862 134.295 108.814C134.33 108.951 134.374 109.002 134.422 109.002ZM134.813 65.0336H134.789V64.9753C134.798 64.9941 134.806 65.0136 134.813 65.0336Z" fill="white"/>
<rect x="0.5" y="0.5" width="159" height="159" stroke="#DDDDDD"/>
</svg>
