<svg width="24" height="41" viewBox="0 0 24 41" fill="none" xmlns="http://www.w3.org/2000/svg">
<path fill-rule="evenodd" clip-rule="evenodd" d="M1.7572e-06 -5.72205e-06L1.3638e-06 2.99999L3 2.99999L3 -5.32864e-06L1.7572e-06 -5.72205e-06ZM3.5 6.39999L3.5 3.39999L6.5 3.39999L6.5 6.39999L3.5 6.39999ZM7 9.89999L7 6.89999L10 6.89999L10 9.89999L7 9.89999ZM10.5 13.4L10.5 10.4L13.5 10.4L13.5 13.4L10.5 13.4ZM14 6.89999L14 9.89999L17 9.89999L17 6.89999L14 6.89999ZM21 2.99999L21 -5.82925e-06L24 -5.43585e-06L24 2.99999L21 2.99999ZM17.5 3.39999L17.5 6.39999L20.5 6.39999L20.5 3.39999L17.5 3.39999Z" fill="#DDDDDD" fill-opacity="0.3"/>
<path fill-rule="evenodd" clip-rule="evenodd" d="M1.7572e-06 13.4L1.3638e-06 16.4L3 16.4L3 13.4L1.7572e-06 13.4ZM3.5 19.8L3.5 16.8L6.5 16.8L6.5 19.8L3.5 19.8ZM7 23.3L7 20.3L10 20.3L10 23.3L7 23.3ZM10.5 26.8L10.5 23.8L13.5 23.8L13.5 26.8L10.5 26.8ZM14 20.3L14 23.3L17 23.3L17 20.3L14 20.3ZM21 16.4L21 13.4L24 13.4L24 16.4L21 16.4ZM17.5 16.8L17.5 19.8L20.5 19.8L20.5 16.8L17.5 16.8Z" fill="#DDDDDD" fill-opacity="0.6"/>
<path fill-rule="evenodd" clip-rule="evenodd" d="M1.7572e-06 26.8L1.3638e-06 29.8L3 29.8L3 26.8L1.7572e-06 26.8ZM3.5 33.2L3.5 30.2L6.5 30.2L6.5 33.2L3.5 33.2ZM7 36.7L7 33.7L10 33.7L10 36.7L7 36.7ZM10.5 40.2L10.5 37.2L13.5 37.2L13.5 40.2L10.5 40.2ZM14 33.7L14 36.7L17 36.7L17 33.7L14 33.7ZM21 29.8L21 26.8L24 26.8L24 29.8L21 29.8ZM17.5 30.2L17.5 33.2L20.5 33.2L20.5 30.2L17.5 30.2Z" fill="#DDDDDD"/>
</svg>
