<svg width="12" height="12" viewBox="0 0 12 12" fill="none" xmlns="http://www.w3.org/2000/svg">
<path d="M9.96548 2.41362C9.96231 2.40748 9.95706 2.40267 9.95066 2.40005C9.21154 2.06093 8.43155 1.81911 7.63021 1.68065C7.62293 1.67929 7.61541 1.68027 7.60872 1.68344C7.60202 1.6866 7.5965 1.6918 7.59293 1.69829C7.48672 1.89106 7.3903 2.08907 7.30405 2.29156C6.44026 2.16043 5.56162 2.16043 4.69782 2.29156C4.611 2.08855 4.51304 1.8905 4.40439 1.69829C4.40066 1.69194 4.39511 1.68687 4.38846 1.68372C4.38181 1.68057 4.37436 1.6795 4.36709 1.68065C3.56567 1.81882 2.78563 2.06066 2.0466 2.40007C2.04027 2.40275 2.03493 2.40733 2.03132 2.41318C0.553406 4.62025 0.14855 6.77305 0.347159 8.8992C0.347717 8.90441 0.349318 8.90945 0.351866 8.91403C0.354414 8.91861 0.357857 8.92263 0.36199 8.92586C1.22257 9.56305 2.18513 10.0494 3.20861 10.3642C3.21581 10.3664 3.22351 10.3663 3.23066 10.3639C3.23781 10.3616 3.24407 10.3571 3.2486 10.3511C3.46842 10.052 3.6632 9.73529 3.83096 9.40417C3.83326 9.39963 3.83458 9.39465 3.83482 9.38956C3.83506 9.38447 3.83422 9.37939 3.83235 9.37465C3.83048 9.36991 3.82763 9.36562 3.82399 9.36206C3.82034 9.3585 3.81598 9.35575 3.8112 9.354C3.50405 9.23648 3.20669 9.09481 2.92192 8.93032C2.91675 8.92728 2.9124 8.92301 2.90927 8.91789C2.90614 8.91277 2.90431 8.90696 2.90396 8.90097C2.9036 8.89498 2.90473 8.88899 2.90724 8.88354C2.90974 8.87809 2.91355 8.87334 2.91833 8.86971C2.97826 8.82495 3.03714 8.77881 3.09494 8.73134C3.10001 8.72716 3.10614 8.72449 3.11265 8.72361C3.11916 8.72273 3.12578 8.72369 3.13177 8.72638C4.99744 9.57783 7.01729 9.57783 8.86088 8.72638C8.86688 8.72352 8.87358 8.72243 8.88018 8.72323C8.88678 8.72403 8.89302 8.72669 8.89818 8.73089C8.95604 8.77862 9.01507 8.8249 9.07523 8.86971C9.08003 8.8733 9.08387 8.87802 9.08642 8.88345C9.08897 8.88889 9.09014 8.89486 9.08983 8.90085C9.08952 8.90684 9.08774 8.91266 9.08464 8.9178C9.08155 8.92294 9.07724 8.92724 9.07209 8.93032C8.78796 9.09619 8.49033 9.23777 8.18238 9.35355C8.1776 9.35537 8.17325 9.35818 8.16963 9.36179C8.16601 9.36541 8.16319 9.36975 8.16136 9.37453C8.15953 9.3793 8.15873 9.38441 8.15901 9.38952C8.15929 9.39463 8.16065 9.39962 8.16299 9.40417C8.33355 9.73345 8.52804 10.0498 8.7449 10.3506C8.7493 10.3568 8.75553 10.3614 8.76271 10.3638C8.76988 10.3663 8.77765 10.3664 8.78489 10.3642C9.8102 10.0504 10.7745 9.56401 11.6361 8.92586C11.6403 8.92279 11.6438 8.91887 11.6464 8.91435C11.6489 8.90983 11.6505 8.90482 11.6509 8.89964C11.8887 6.4416 11.2529 4.30644 9.96548 2.41362ZM4.10958 7.6046C3.54787 7.6046 3.08505 7.08913 3.08505 6.45608C3.08505 5.82303 3.5389 5.30753 4.10958 5.30753C4.68472 5.30753 5.14307 5.82751 5.13409 6.45604C5.13409 7.08913 4.68022 7.6046 4.10958 7.6046ZM7.89757 7.6046C7.33589 7.6046 6.87306 7.08913 6.87306 6.45608C6.87306 5.82303 7.32691 5.30753 7.89757 5.30753C8.47275 5.30753 8.93108 5.82751 8.9221 6.45604C8.9221 7.08913 8.47275 7.6046 7.89757 7.6046Z" fill="#060910"/>
</svg>
