<svg width="24" height="24" viewBox="0 0 24 24" fill="none" xmlns="http://www.w3.org/2000/svg">
<path d="M19.9308 4.82725C19.9245 4.81497 19.914 4.80534 19.9012 4.8001C18.423 4.12186 16.863 3.63823 15.2603 3.36129C15.2457 3.35859 15.2307 3.36054 15.2173 3.36687C15.2039 3.37321 15.1929 3.3836 15.1857 3.39658C14.9733 3.78212 14.7805 4.17814 14.608 4.58311C12.8804 4.32087 11.1231 4.32087 9.39553 4.58311C9.22188 4.17711 9.02596 3.78099 8.80866 3.39658C8.8012 3.38389 8.7901 3.37373 8.7768 3.36744C8.76349 3.36114 8.74859 3.359 8.73405 3.36129C7.13122 3.63765 5.57113 4.12132 4.09307 4.80014C4.08042 4.80551 4.06975 4.81466 4.06252 4.82635C1.10669 9.2405 0.296977 13.5461 0.694195 17.7984C0.695312 17.8088 0.698514 17.8189 0.70361 17.8281C0.708706 17.8372 0.715592 17.8453 0.723858 17.8517C2.44501 19.1261 4.37014 20.0988 6.41709 20.7284C6.43151 20.7328 6.4469 20.7326 6.4612 20.7279C6.4755 20.7232 6.48803 20.7142 6.49709 20.7022C6.93673 20.104 7.32628 19.4706 7.66179 18.8083C7.6664 18.7993 7.66903 18.7893 7.66951 18.7791C7.66999 18.7689 7.66831 18.7588 7.66458 18.7493C7.66085 18.7398 7.65515 18.7312 7.64785 18.7241C7.64056 18.717 7.63185 18.7115 7.62228 18.708C7.00798 18.473 6.41326 18.1896 5.84372 17.8606C5.83337 17.8546 5.82468 17.846 5.81842 17.8358C5.81215 17.8255 5.8085 17.8139 5.80779 17.8019C5.80709 17.79 5.80934 17.778 5.81435 17.7671C5.81937 17.7562 5.82699 17.7467 5.83654 17.7394C5.95639 17.6499 6.07416 17.5576 6.18975 17.4627C6.19989 17.4543 6.21216 17.449 6.22517 17.4472C6.23819 17.4455 6.25144 17.4474 6.26342 17.4528C9.99477 19.1557 14.0345 19.1557 17.7216 17.4528C17.7336 17.447 17.747 17.4449 17.7602 17.4465C17.7734 17.4481 17.7859 17.4534 17.7962 17.4618C17.912 17.5572 18.03 17.6498 18.1503 17.7394C18.1599 17.7466 18.1676 17.756 18.1727 17.7669C18.1778 17.7778 18.1802 17.7897 18.1795 17.8017C18.1789 17.8137 18.1754 17.8253 18.1692 17.8356C18.163 17.8459 18.1543 17.8545 18.144 17.8606C17.5758 18.1924 16.9805 18.4755 16.3646 18.7071C16.3551 18.7107 16.3464 18.7164 16.3391 18.7236C16.3319 18.7308 16.3263 18.7395 16.3226 18.7491C16.3189 18.7586 16.3173 18.7688 16.3179 18.779C16.3185 18.7893 16.3212 18.7992 16.3259 18.8083C16.667 19.4669 17.056 20.0995 17.4897 20.7012C17.4985 20.7135 17.5109 20.7228 17.5253 20.7277C17.5396 20.7325 17.5552 20.7328 17.5697 20.7283C19.6203 20.1009 21.5488 19.128 23.2721 17.8517C23.2805 17.8456 23.2875 17.8377 23.2926 17.8287C23.2977 17.8197 23.3008 17.8096 23.3018 17.7993C23.7773 12.8832 22.5056 8.61287 19.9308 4.82725ZM8.21904 15.2092C7.09563 15.2092 6.16998 14.1783 6.16998 12.9122C6.16998 11.6461 7.07767 10.6151 8.21904 10.6151C9.36932 10.6151 10.286 11.655 10.2681 12.9121C10.2681 14.1783 9.36032 15.2092 8.21904 15.2092ZM15.795 15.2092C14.6717 15.2092 13.746 14.1783 13.746 12.9122C13.746 11.6461 14.6537 10.6151 15.795 10.6151C16.9454 10.6151 17.862 11.655 17.8441 12.9121C17.8441 14.1783 16.9454 15.2092 15.795 15.2092Z" fill="white"/>
</svg>
