<svg width="24" height="24" viewBox="0 0 24 24" fill="none" xmlns="http://www.w3.org/2000/svg">
<path fill-rule="evenodd" clip-rule="evenodd" d="M21.5993 11.5148C21.5991 11.6763 21.5989 11.8379 21.5989 11.9997C21.5989 12.1807 21.5992 12.3614 21.5995 12.5419C21.6012 13.6842 21.6028 14.8197 21.5365 15.9623C21.462 17.4993 21.1138 18.861 19.9875 19.9874C18.8635 21.1113 17.4994 21.4619 15.9624 21.5364C14.8007 21.6018 13.6463 21.6005 12.4847 21.5992C12.3232 21.599 12.1616 21.5988 11.9998 21.5988C11.8383 21.5988 11.677 21.599 11.5158 21.5992C10.3558 21.6005 9.20112 21.6018 8.03721 21.5364C6.5002 21.4619 5.13851 21.1137 4.01217 19.9874C2.88823 18.8634 2.5376 17.4993 2.46315 15.9623C2.39778 14.8005 2.39907 13.6443 2.40035 12.4838C2.40053 12.3225 2.40071 12.1612 2.40071 11.9997C2.40071 11.8382 2.40053 11.6769 2.40035 11.5157C2.39907 10.3556 2.39778 9.20101 2.46315 8.03712C2.5376 6.50011 2.88583 5.13842 4.01217 4.01208C5.13611 2.88814 6.5002 2.53751 8.03721 2.46306C9.19896 2.3977 10.3533 2.39897 11.5149 2.40026C11.6764 2.40044 11.838 2.40062 11.9998 2.40062C12.1613 2.40062 12.3226 2.40044 12.4839 2.40026C13.6439 2.39898 14.7985 2.39769 15.9624 2.46306C17.4994 2.53751 18.8611 2.88573 19.9875 4.01208C21.1114 5.13601 21.462 6.50011 21.5365 8.03712C21.6018 9.19887 21.6006 10.3532 21.5993 11.5148ZM7.07178 11.9997C7.07178 14.7255 9.27162 16.9254 11.9974 16.9254C14.7232 16.9254 16.923 14.7255 16.923 11.9997C16.923 9.27393 14.7232 7.07409 11.9974 7.07409C9.27162 7.07409 7.07178 9.27393 7.07178 11.9997ZM15.9744 6.87235C15.9744 7.50877 16.4884 8.02271 17.1248 8.02271C17.7612 8.02271 18.2727 7.51117 18.2751 6.87235C18.2751 6.23594 17.7612 5.722 17.1248 5.722C16.4884 5.722 15.9744 6.23594 15.9744 6.87235ZM8.7961 11.9997C8.7961 10.237 10.2347 8.79843 11.9974 8.79843C13.7602 8.79843 15.1987 10.237 15.1987 11.9997C15.1987 13.7625 13.7602 15.201 11.9974 15.201C10.2347 15.201 8.7961 13.7625 8.7961 11.9997Z" fill="white"/>
</svg>
