<svg width="18" height="18" viewBox="0 0 18 18" fill="none" xmlns="http://www.w3.org/2000/svg">
<path fill-rule="evenodd" clip-rule="evenodd" d="M2.5 2H0.5V4H2.5V2ZM2.5 8H0.5V10H2.5V8ZM0.5 14H2.5V16H0.5V14ZM5.5 2H3.5V4H5.5V2ZM3.5 8H5.5V10H3.5V8ZM5.5 14H3.5V16H5.5V14ZM6.5 2H8.5V4H6.5V2ZM8.5 8H6.5V10H8.5V8ZM6.5 14H8.5V16H6.5V14ZM11.5 2H9.5V4H11.5V2ZM12.5 2H14.5V4H12.5V2ZM17.5 2H15.5V4H17.5V2ZM9.5 8H11.5V10H9.5V8ZM14.5 8H12.5V10H14.5V8ZM15.5 8H17.5V10H15.5V8ZM11.5 14H9.5V16H11.5V14ZM12.5 14H14.5V16H12.5V14ZM17.5 14H15.5V16H17.5V14Z" fill="#D9D9D9"/>
</svg>
