<svg width="8" height="28" viewBox="0 0 8 28" fill="none" xmlns="http://www.w3.org/2000/svg">
<path fill-rule="evenodd" clip-rule="evenodd" d="M6 28L8 28L8 26L6 26L6 28ZM6 25L8 25L8 23L6 23L6 25ZM8 22L6 22L6 20L8 20L8 22ZM3 28L5 28L5 26L3 26L3 28ZM2 28L0 28L1.74845e-07 26L2 26L2 28ZM8 2L8 0L6 -1.74846e-07L6 2L8 2ZM5 2L5 -2.62268e-07L3 -4.37114e-07L3 2L5 2ZM2 -5.24537e-07L2 2L2.27299e-06 2L2.44784e-06 -6.99382e-07L2 -5.24537e-07ZM8 5L8 3L6 3L6 5L8 5ZM8 6L8 8L6 8L6 6L8 6Z" fill="#DDDDDD"/>
</svg>
