<svg width="24" height="24" viewBox="0 0 24 24" fill="none" xmlns="http://www.w3.org/2000/svg">
<path d="M21.0787 7.84343C21.0787 7.62955 21.0746 7.41809 21.0652 7.20808C21.9794 6.52685 22.7727 5.67409 23.4 4.69828C22.548 5.08164 21.6414 5.32968 20.7129 5.43344C21.6793 4.83875 22.4204 3.88767 22.7706 2.74632C21.8658 3.29507 20.8649 3.68739 19.8007 3.89181C18.948 2.92158 17.7312 2.30361 16.3861 2.28065C13.8026 2.23794 11.7084 4.4211 11.7084 7.15624C11.7084 7.54502 11.749 7.92205 11.8298 8.28613C7.93943 8.03578 4.49209 6.01079 2.1861 2.9581C1.78374 3.68948 1.55289 4.54425 1.55289 5.46026C1.55289 7.1928 2.37874 8.73266 3.63355 9.64132C2.86537 9.60657 2.14577 9.37391 1.51461 8.99246V9.05608C1.51461 11.4775 3.12754 13.5063 5.26771 13.9797C4.87536 14.0913 4.46153 14.1494 4.03591 14.1473C3.7402 14.1458 3.44545 14.1135 3.15641 14.051C3.7511 16.0353 5.47945 17.485 7.52564 17.5333C5.92421 18.8612 3.9069 19.6543 1.71669 19.6488C1.33906 19.6488 0.965888 19.6234 0.600037 19.5775C2.671 20.9981 5.12929 21.8255 7.77193 21.8255C16.3743 21.8275 21.0787 14.3399 21.0787 7.84343Z" fill="white"/>
</svg>
