<svg width="12" height="12" viewBox="0 0 12 12" fill="none" xmlns="http://www.w3.org/2000/svg">
<path d="M10.5394 3.92171C10.5394 3.81478 10.5373 3.70905 10.5326 3.60404C10.9897 3.26343 11.3864 2.83705 11.7 2.34914C11.274 2.54082 10.8207 2.66484 10.3565 2.71672C10.8397 2.41938 11.2102 1.94383 11.3853 1.37316C10.9329 1.64754 10.4325 1.84369 9.90039 1.9459C9.47405 1.46079 8.86565 1.1518 8.19307 1.14032C6.90135 1.11897 5.85422 2.21055 5.85422 3.57812C5.85422 3.77251 5.87455 3.96102 5.91491 4.14307C3.96975 4.01789 2.24608 3.00539 1.09308 1.47905C0.891899 1.84474 0.776477 2.27212 0.776477 2.73013C0.776477 3.5964 1.1894 4.36633 1.8168 4.82066C1.43271 4.80328 1.07291 4.68696 0.757333 4.49623V4.52804C0.757333 5.73877 1.5638 6.75317 2.63389 6.98985C2.43771 7.04565 2.23079 7.07469 2.01799 7.07364C1.87013 7.07288 1.72275 7.05674 1.57824 7.02548C1.87558 8.01765 2.73976 8.74252 3.76285 8.76667C2.96214 9.43058 1.95348 9.82716 0.858378 9.82439C0.66956 9.82439 0.482975 9.81172 0.300049 9.78875C1.33553 10.499 2.56467 10.9127 3.886 10.9127C8.18718 10.9138 10.5394 7.16996 10.5394 3.92171Z" fill="#060910"/>
</svg>
