<svg width="40" height="40" viewBox="0 0 40 40" fill="none" xmlns="http://www.w3.org/2000/svg">
<path d="M34.8311 10.5374C34.174 13.3946 29.3168 13.3493 26.1049 12.1803C19.6764 9.84448 18.1121 17.9899 18.1121 17.9899L18.0573 18.1923L17.3597 20.8329C17.3352 20.9266 17.2803 21.0095 17.2036 21.0687C17.1269 21.1279 17.0328 21.16 16.9359 21.16C16.839 21.16 16.7449 21.1279 16.6682 21.0687C16.5915 21.0095 16.5366 20.9266 16.5121 20.8329L14.9645 14.9827C14.8888 14.6716 14.7108 14.395 14.4591 14.1971C14.2074 13.9993 13.8965 13.8918 13.5764 13.8918C13.2562 13.8918 12.9454 13.9993 12.6936 14.1971C12.4419 14.395 12.2639 14.6716 12.1883 14.9827L10.5669 21.1091C10.5415 21.2017 10.4865 21.2835 10.4101 21.3419C10.3337 21.4002 10.2403 21.4317 10.1442 21.4317C10.0482 21.4317 9.95474 21.4002 9.87837 21.3419C9.802 21.2835 9.74692 21.2017 9.72161 21.1091L7.36685 12.8827C7.3277 12.6891 7.24886 12.5059 7.13532 12.3444C7.02178 12.1828 6.87599 12.0466 6.70717 11.9443C6.53834 11.842 6.35014 11.7757 6.15443 11.7498C5.95872 11.7238 5.75976 11.7387 5.5701 11.7935C5.38044 11.8483 5.20419 11.9418 5.05249 12.0682C4.90078 12.1945 4.77691 12.3509 4.68868 12.5275C4.60045 12.7042 4.54979 12.8971 4.53988 13.0943C4.52998 13.2915 4.56105 13.4886 4.63114 13.6732L8.82637 28.3331C8.91541 28.6341 9.10002 28.8979 9.35228 29.0847C9.60455 29.2714 9.91076 29.371 10.2246 29.3683C10.5385 29.3656 10.843 29.2608 11.092 29.0697C11.341 28.8787 11.5211 28.6117 11.6049 28.3092L13.1526 22.4591C13.1771 22.3654 13.232 22.2824 13.3087 22.2233C13.3854 22.1641 13.4795 22.132 13.5764 22.132C13.6732 22.132 13.7674 22.1641 13.8441 22.2233C13.9207 22.2824 13.9756 22.3654 14.0002 22.4591L15.5478 28.3092C15.6235 28.6203 15.8014 28.897 16.0532 29.0948C16.3049 29.2927 16.6157 29.4002 16.9359 29.4002C17.256 29.4002 17.5669 29.2927 17.8186 29.0948C18.0704 28.897 18.2483 28.6203 18.324 28.3092L20.6097 19.6709L20.6978 19.3423C21.5764 16.1256 23.4145 14.7613 25.774 15.578C30.6692 17.2447 33.3716 15.797 34.1073 15.2113C36.5645 13.2422 34.8311 10.5374 34.8311 10.5374Z" fill="#DDDDDD"/>
<path d="M30.0476 26.607H24.8952C24.8281 26.607 24.7619 26.5917 24.7017 26.5621C24.6415 26.5325 24.5889 26.4894 24.5479 26.4363C24.507 26.3832 24.4788 26.3213 24.4655 26.2555C24.4522 26.1898 24.4542 26.1218 24.4714 26.057L26.4285 18.6139C26.5904 18.0091 26.1023 17.352 25.3428 17.1496C24.5833 16.9472 23.838 17.2734 23.6761 17.8782C23.6761 17.8782 21.0166 27.1189 21.0166 28.0308C21.0166 28.4097 21.1671 28.7731 21.435 29.041C21.7029 29.3089 22.0663 29.4594 22.4452 29.4594H30.0404C30.4193 29.4594 30.7827 29.3089 31.0506 29.041C31.3185 28.7731 31.469 28.4097 31.469 28.0308C31.4677 27.654 31.3176 27.2929 31.0514 27.0263C30.7852 26.7596 30.4244 26.6089 30.0476 26.607Z" fill="#DDDDDD"/>
<path d="M26.2695 25.0376C26.2695 25.0376 26.3267 21.4447 30.4481 20.0661C32.3362 19.4351 34.9457 18.1398 35.2933 16.7327C35.2933 16.7327 35.2719 21.8399 30.9505 22.7304C29.7076 22.9733 28.1719 23.19 26.2695 25.0376Z" fill="#DDDDDD"/>
<path d="M39.2857 19.9996C39.2894 24.9873 37.3606 29.7825 33.9044 33.3785C30.4481 36.9745 25.7332 39.0916 20.7494 39.2854C15.7655 39.4792 10.9004 37.7346 7.17539 34.4179C3.45035 31.1011 1.15508 26.4702 0.771435 21.4972C0.365648 16.5139 1.91093 11.5678 5.08142 7.70179C8.2519 3.83584 12.7998 1.35225 17.766 0.774765C22.7322 0.197282 27.7286 1.57104 31.7016 4.60635C35.6745 7.64165 38.3134 12.1013 39.0619 17.0447C39.2115 18.0226 39.2864 19.0104 39.2857 19.9996C39.2857 20.0943 39.3233 20.1851 39.3903 20.2521C39.4573 20.3191 39.5481 20.3567 39.6429 20.3567C39.7376 20.3567 39.8284 20.3191 39.8954 20.2521C39.9624 20.1851 40 20.0943 40 19.9996C39.9998 16.4067 39.0318 12.8801 37.1978 9.79063C35.3637 6.70112 32.7313 4.16273 29.5772 2.44223C26.4231 0.721732 22.8638 -0.117337 19.2733 0.0132093C15.6829 0.143755 12.1939 1.2391 9.17305 3.18411C6.15221 5.12913 3.71108 7.85199 2.10621 11.0665C0.501342 14.2811 -0.207997 17.8686 0.0527447 21.452C0.313486 25.0355 1.53468 28.4825 3.58798 31.4308C5.64128 34.3792 8.45086 36.72 11.7214 38.2072C14.5313 39.4845 17.5987 40.0941 20.6834 39.9882C23.7682 39.8824 26.7866 39.064 29.5023 37.5972C32.2181 36.1303 34.5574 34.0548 36.3373 31.533C38.1172 29.0113 39.2894 26.1118 39.7619 23.0616C39.9162 22.0481 39.9957 21.0247 40 19.9996C40 19.9048 39.9624 19.814 39.8954 19.747C39.8284 19.68 39.7376 19.6424 39.6429 19.6424C39.5481 19.6424 39.4573 19.68 39.3903 19.747C39.3233 19.814 39.2857 19.9048 39.2857 19.9996Z" fill="#DDDDDD"/>
</svg>
