<svg width="160" height="160" fill="none" xmlns="http://www.w3.org/2000/svg"><path fill="#fff" fill-opacity=".1" d="M.5.5h159v159H.5z"/><path fill-rule="evenodd" clip-rule="evenodd" d="M44.765 109.203c0-.179.01-.358.03-.536v-.24c0-.146.005-.287.01-.427.009-.276.018-.549-.01-.852-.017-.281-.025-.565-.034-.849l-.01-.34v-.239l-.168-4.531c0-.187-.007-.376-.015-.565-.011-.297-.023-.594-.006-.888 0-.157-.008-.313-.027-.469a6.676 6.676 0 0 1-.034-1.196c.016-.197.01-.394-.017-.59a4.456 4.456 0 0 1-.035-.712v-.963c0-.31-.015-.622-.03-.932l-.018-.415a276.22 276.22 0 0 1-.085-2.327c0-.37-.042-.723-.086-1.076a3.895 3.895 0 0 1-.024-.596c.027-.523.027-1.046 0-1.57v-.366c-.048-1.384-.098-2.769-.15-4.153 0-.123-.004-.245-.006-.366-.006-.24-.01-.478.005-.717v-.72c0-.242-.011-.488-.023-.733l-.011-.243a6.84 6.84 0 0 1 .024-.932v-.247a1.367 1.367 0 0 1-.052-.291c.019-.337.013-.68.007-1.028a29.795 29.795 0 0 1-.007-.528l-.102-2.783c-.011-.177.002-.356.037-.53 0-.146-.012-.29-.024-.44a4.574 4.574 0 0 1-.024-.64c0-.291 0-.644-.027-.97-.078-2.154-.158-4.31-.24-6.47l-.003-.085c-.023-.622-.046-1.24.003-1.84v-.61a1.058 1.058 0 0 1-.065-.408c.033-.603.008-1.206-.017-1.81l-.01-.246c0-.133-.007-.267-.013-.4-.005-.112-.01-.223-.011-.334-.003-.164-.002-.299-.001-.425v-.178a13.28 13.28 0 0 0 0-1.33l-.01-.29h.007l-.004-.014-.003-.009c-.034-.958-.07-1.915-.11-2.873 0-.123-.002-.245-.004-.366-.005-.242-.009-.481.005-.72v-.843c0-.338-.018-.678-.035-1.016l-.017-.335a6.843 6.843 0 0 1 .028-.935c-.031-.774-.059-1.545-.086-2.32l-.004-.103c-.02-.493-.039-.983-.013-1.463v-.723c0-.278-.014-.557-.027-.837-.008-.169-.016-.337-.021-.506a5.38 5.38 0 0 0-.005-.207c-.006-.14-.011-.278.005-.396.038-.698.006-1.413-.027-2.125l-.007-.171c0-.161 0-.343-.017-.487l-.021-.49a2.37 2.37 0 0 1 .103-.494h.12a.439.439 0 0 1 .024.13c.034 0 .072 0 .092-.136.343 0 .716-.02 1.076-.041.093 0 .178.058.26.305.02.065.032.133.035.202v.96c.004.246-.006.493-.031.74a20.995 20.995 0 0 0 0 1.798c.01.16.01.32 0 .48-.02.313-.014.634-.007.958.004.163.007.326.007.488l.043 1.16.043 1.16c.02.4.02.802 0 1.203-.024.387 0 .809.024 1.213 0 .177.005.353.01.528.01.35.02.696-.01 1.038v.728c.02.61.04 1.22.065 1.832.013.31.005.622-.024.932a1187.551 1187.551 0 0 1 .108 2.933c.019.493.038.984.008 1.477v.73l.032.9v.003c.012.311.023.622.033.934 0 .081.003.165.006.249.005.167.01.334-.006.477-.018.32-.012.64-.006.964.003.162.006.325.006.49l.257 6.986c.062 1.6.121 3.199.179 4.798.023.443.023.887 0 1.33-.009.16-.009.32 0 .48v.006c.02.57.04 1.133 0 1.686v.606c0 .284.013.566.026.847.008.168.017.336.022.504l.003.284c.004.192.008.383-.003.559v1.09l.12 3.31c0 .116.002.23.005.341.005.217.01.424-.005.625-.014.318-.001.637.037.953.027.216.037.464.047.7l.001.023c.057 1.512.113 3.024.168 4.537v.72c-.006.198.003.398.028.596.04.315.049.635.027.952a4.65 4.65 0 0 0 .034.95c.025.155.04.312.045.469 0 .346.018.685.037 1.023.012.224.024.448.031.673l.03.849v.001c.012.288.023.577.032.863v.723c-.026.687-.002 1.374.072 2.057.038.318.051.64.065.966l.049 1.325.05 1.372.021.49c0 .054.014.104.029.155a.762.762 0 0 1 .03.136c.017.198.025.397.023.596 0 .142-.002.285-.004.427-.005.288-.01.578.004.875a.828.828 0 0 1-.103.484c-.122.027-.234.026-.34-.069l-.863.559a.29.29 0 0 1-.284.017.164.164 0 0 1-.065-.062 5.044 5.044 0 0 1-.134-.262 28.483 28.483 0 0 0-.054-.111 1.108 1.108 0 0 1-.12-.302 3.798 3.798 0 0 0-.343-.685.902.902 0 0 1-.1-.185 2.57 2.57 0 0 0-.287-.555l-.528-.857a2.295 2.295 0 0 1-.24-.463 2.655 2.655 0 0 0-.257-.459 3.34 3.34 0 0 1-.319-.6 1.567 1.567 0 0 0-.15-.274l-.415-.685a1.375 1.375 0 0 1-.161-.377l-.614-.994a3.468 3.468 0 0 1-.342-.651 1.554 1.554 0 0 0-.151-.274c-.14-.226-.28-.452-.418-.685a1.626 1.626 0 0 1-.15-.278 2.863 2.863 0 0 0-.292-.555 447.06 447.06 0 0 1-1.587-2.58c-.363-.588-.725-1.176-1.086-1.765-.11-.158-.2-.328-.267-.507a1.072 1.072 0 0 0-.093-.189 3.57 3.57 0 0 1-.342-.65 1.564 1.564 0 0 0-.13-.23c-.055-.087-.11-.178-.164-.267l-.001-.001v-.001l-.14-.228a2.289 2.289 0 0 1-.172-.343 2.556 2.556 0 0 0-.22-.418l-.75-1.22a2.984 2.984 0 0 1-.198-.37 1.147 1.147 0 0 0-.216-.343 1.585 1.585 0 0 1-.185-.257c-.343-.554-.685-1.112-1.027-1.67l-.001-.002a2.375 2.375 0 0 1-.144-.278.626.626 0 0 0-.137-.219.915.915 0 0 1-.21-.343.867.867 0 0 0-.215-.342.625.625 0 0 1-.127-.161 6.322 6.322 0 0 0-.39-.62 13.02 13.02 0 0 0-.196-.32c-.066-.105-.132-.21-.195-.318-.053-.09-.1-.182-.14-.278a2.74 2.74 0 0 0-.467-.757 2.468 2.468 0 0 1-.243-.343l-.522-.852-.003.002c-.093.1-.167.217-.219.343l-.288.586a.974.974 0 0 1-.181.288 1 1 0 0 0-.168.295 1.474 1.474 0 0 1-.233.377.686.686 0 0 0-.103.174 9.67 9.67 0 0 0-.226.463.606.606 0 0 1-.172.21l-.035.072c-.098.203-.197.408-.307.612-.06.15-.145.287-.25.408a.684.684 0 0 0-.103.178c-.076.155-.15.309-.23.463a.688.688 0 0 1-.102.175c-.09.101-.164.217-.216.342-.292.59-.58 1.176-.867 1.765l-.145.297v.002c-.148.303-.295.606-.445.907a1.063 1.063 0 0 1-.199.32.434.434 0 0 0-.075.112 1.56 1.56 0 0 1-.257.405.533.533 0 0 0-.082.15c-.033.065-.064.129-.095.194l-.073.149a.969.969 0 0 1-.13.202 1.14 1.14 0 0 0-.161.26l-.137.278c-.09.185-.18.37-.275.555a1.164 1.164 0 0 1-.14.237.48.48 0 0 0-.117.24.682.682 0 0 1-.068.192c-.185.383-.374.764-.562 1.144a.962.962 0 0 1-.11.171.298.298 0 0 0-.072.151.37.37 0 0 1-.127.24.392.392 0 0 0-.116.24c0 .046-.012.09-.034.13-.083.136-.151.281-.203.432a5.82 5.82 0 0 0-.114.229c-.033.067-.066.135-.101.203a1.15 1.15 0 0 1-.11.171c-.13.146-.218.325-.254.517a1.327 1.327 0 0 1-.096.254l-.056.116c-.094.19-.186.379-.286.569 0 .029-.018.057-.036.085a.491.491 0 0 0-.023.039.235.235 0 0 1 0 .096.463.463 0 0 1-.071.154c-.081.093-.153.192-.216.298a.155.155 0 0 1-.072.06.164.164 0 0 1-.093.009.63.63 0 0 1-.408-.353l-.26-.131a.145.145 0 0 1-.057-.046.148.148 0 0 1-.029-.067 1.239 1.239 0 0 1-.397-.298.156.156 0 0 1-.028-.181l.03-.066c.015-.03.03-.059.039-.089a.653.653 0 0 0 .062-.192.349.349 0 0 1 .154-.246l.03-.059c.027-.049.063-.09.098-.131.044-.05.089-.1.115-.167.03-.075.06-.135.091-.194l.053-.107.03-.058.335-.687.225-.458a1.41 1.41 0 0 1 .209-.343.23.23 0 0 0 .047-.123.529.529 0 0 1 .158-.295.216.216 0 0 0 .079-.147.377.377 0 0 1 .082-.185c.052-.074.1-.15.144-.23.033-.064.064-.128.095-.193l.073-.15c.036-.072.071-.145.106-.219.06-.124.12-.248.182-.37a.963.963 0 0 0 .092-.291.27.27 0 0 1 .072-.15c.1-.112.178-.24.233-.378l.048-.092.145-.294.001-.002c.122-.245.245-.494.365-.753.042-.093.097-.18.164-.257a.88.88 0 0 0 .114-.171 4.16 4.16 0 0 0 .12-.247.665.665 0 0 1 .167-.209l.031-.062v-.092c.097-.11.175-.237.23-.374.113-.233.23-.466.342-.685a.203.203 0 0 1 .12-.106.81.81 0 0 1 .127-.278.991.991 0 0 0 .127-.24c.267-.543.533-1.088.798-1.634.07-.17.168-.326.288-.463a.546.546 0 0 0 .048-.089l.031-.062a.12.12 0 0 1 0-.126c.125-.15.226-.317.298-.497l.03-.062c.02-.041.04-.082.063-.123a.556.556 0 0 1 .092-.14c.083-.096.15-.204.199-.32l.096-.197c.099-.203.197-.406.298-.608a1.14 1.14 0 0 1 .161-.26.874.874 0 0 0 .127-.203c.062-.11.116-.222.168-.342.04-.082.099-.153.171-.21l.284-.585c.057-.138.136-.265.234-.377a.685.685 0 0 0 .102-.175c.059-.113.113-.226.168-.343a.508.508 0 0 1 .082-.147 2.08 2.08 0 0 0 .343-.558l.062-.124.062-.123a.432.432 0 0 1 .164-.069l.11.052a.045.045 0 0 1 0 .04.127.127 0 0 0 .106 0l.277.136a.459.459 0 0 1 .076.026l.25-.147a.137.137 0 0 1 .161 0 .908.908 0 0 1 .49-.137c.065 0 .144.051.21.144.03.044.053.081.074.115.022.036.043.068.069.104.053.088.115.17.185.246.107.11.18.248.21.398l.05.09c.043.072.073.147.102.223.038.095.075.19.138.28.081.115.14.215.198.316l.073.123.055.085 1.028 1.672c.119.174.22.358.301.552.028.063.068.12.117.168.117.13.206.283.26.449a.493.493 0 0 0 .13.22.76.76 0 0 1 .169.256c.061.128.126.251.195.37l.017.03c.094.158.191.322.288.47l.163.268c.118.196.237.392.365.59.08.134.174.259.28.373.06.064.106.138.138.22.082.212.19.414.318.602l.083.134.942 1.532c.085.132.157.272.216.418.041.096.09.188.144.277.068.12.144.244.219.343.073.117.127.244.161.377l.055.089c.011.01.024.019.037.028.03.021.059.042.066.061.083.209.19.408.318.593l.001.001c.209.343.418.685.63 1.027a.39.39 0 0 1 .069.223c.097.122.182.254.253.394.058.128.13.249.212.363.331.537.66 1.075.991 1.615l.48.784c.154.231.284.478.387.736.023.048.05.094.079.138l.054.089a.222.222 0 0 1 .138.126c.114.276.256.539.424.785l.046.074c.041.065.082.13.119.197.047.074.087.152.12.233.07.178.16.348.267.507l.723 1.175c.086.133.16.273.22.419.046.113.104.222.17.325.097.168.2.343.306.497.07.118.125.244.16.377l.495.807Zm-1.28-50.449a.624.624 0 0 0-.02-.05c0 .017.002.031.003.044l.001.028h.017v-.022ZM27.214 90.405h.02v-.027s-.027.02-.03.027h.01Zm57.199 19.19-.264.12c-.044.021-.1 0-.175-.068-.112.09-.27.067-.426.044l-.03-.004-.036-.005-.035-.005c-.072 0-.162-.109-.24-.253-.054-.098-.085-.166-.118-.237l-.024-.051a3.541 3.541 0 0 0-.245-.432 1.647 1.647 0 0 1-.254-.586l-.062-.133c-.05-.11-.087-.218-.125-.326a2.902 2.902 0 0 0-.166-.411 14.528 14.528 0 0 1-.22-.445 17.158 17.158 0 0 0-.106-.216c-.02-.045-.04-.09-.065-.134l-.412-.845-.002-.004-.813-1.666a6.244 6.244 0 0 1-.363-.819 1.308 1.308 0 0 0-.137-.257 2.55 2.55 0 0 1-.315-.669 1.082 1.082 0 0 0-.154-.342 1.76 1.76 0 0 1-.203-.391c-.071-.182-.15-.367-.233-.548-.09-.187-.18-.372-.273-.558v-.002l-.093-.187-.236-.484c-.131-.27-.263-.538-.391-.808a5 5 0 0 0-.343-.58 1.504 1.504 0 0 1-.164-.342 6.347 6.347 0 0 0-.384-.89 3.497 3.497 0 0 1-.06-.12l-.022-.048-.018-.035-1.123-2.306c-.103-.2-.19-.406-.264-.617a4.137 4.137 0 0 0-.172-.408 11.045 11.045 0 0 0-.267-.545 2.653 2.653 0 0 1-.195-.541l-.069-.137a.774.774 0 0 1-.116-.148 6.4 6.4 0 0 0-.384-.88l-.074-.151a5.26 5.26 0 0 1-.224.435 2.092 2.092 0 0 0-.137.278c-.134.335-.29.661-.466.976-.061.11-.114.225-.158.343l-.1.233c-.078.188-.158.376-.243.562a4.99 4.99 0 0 1-.233.49 5.26 5.26 0 0 0-.298.627l-.822 1.957c-.078.191-.164.379-.26.562a2.236 2.236 0 0 0-.234.562 3.385 3.385 0 0 1-.16.435c-.234.564-.47 1.126-.706 1.688l-.001.003c-.138.33-.277.659-.414.989-.062.14-.13.284-.203.414a1.568 1.568 0 0 0-.147.343 1.816 1.816 0 0 1-.243.559 1.96 1.96 0 0 0-.233.562c-.02.098-.052.195-.093.287-.103.193-.179.397-.253.598a6.295 6.295 0 0 1-.161.406c-.082.181-.162.378-.242.577a22.97 22.97 0 0 1-.187.451 4.186 4.186 0 0 1-.198.418 5.622 5.622 0 0 0-.508 1.207 5.892 5.892 0 0 1-.216.582l-.668 1.594-.12.291a1.189 1.189 0 0 1-.027.188 2.34 2.34 0 0 1-.147.343 9.34 9.34 0 0 0-.377.744c-.059.127-.175.24-.23.233a.37.37 0 0 1-.202-.051l-.545.668c-.058.075-.15.109-.343.054a.462.462 0 0 1-.133-.075l-.525-.463a2.888 2.888 0 0 1-.383-.383c-.312-.31-.642-.6-.987-.871a2.227 2.227 0 0 1-.268-.229 7.122 7.122 0 0 0-.795-.686l-1.326-1.062a6.285 6.285 0 0 1-.661-.576 7.469 7.469 0 0 0-.686-.572 10.08 10.08 0 0 1-.867-.747 3.748 3.748 0 0 0-.404-.343l-1.045-.839a3.63 3.63 0 0 1-.493-.473l-1.542-1.23c-.33-.25-.643-.52-.94-.809a5.135 5.135 0 0 0-.496-.418l-.5-.401v-1.312a4.447 4.447 0 0 1 0-.532c.035-.351.05-.705.04-1.058v-8.622c-.01-.324.004-.648.042-.97a2.881 2.881 0 0 0 0-.343c-.006-.413.012-.826.054-1.237a3.762 3.762 0 0 0 0-.445v-.984a5.964 5.964 0 0 1 .028-.616c.024-.265.034-.53.03-.795v-2.423a6.815 6.815 0 0 1 .025-.706 3.428 3.428 0 0 0 0-.685 8.97 8.97 0 0 1-.024-.754l2.707-2.29c.133-.112.277-.222.418-.322.126-.078.24-.173.343-.28.158-.172.339-.32.538-.442.197-.125.376-.278.53-.453.075-.088.158-.168.248-.24.211-.15.4-.321.588-.493.116-.105.232-.211.354-.312l.96-.809c.136-.113.277-.226.417-.322a7.564 7.564 0 0 0 1.145-.966c.166-.169.341-.329.524-.48l1.505-1.271.274-.233a1.22 1.22 0 0 1 .13-.175c.107-.103.222-.198.343-.285.257-.178.51-.363.764-.565.127-.1.298-.16.342-.133.151.034.245.105.26.232l.21-.103h.003c.23-.112.459-.224.686-.339a.27.27 0 0 1 .312.066c.032.029.059.063.078.102a18.39 18.39 0 0 1 .227.545c.065.14.115.285.147.435a7.8 7.8 0 0 0 .432 1.028c.047.087.087.178.12.271.09.284.204.559.342.823l.63 1.288c.116.22.213.45.292.685.085.237.188.466.309.686.15.286.278.582.383.887.053.141.115.279.185.412.161.342.326.685.497 1.028.083.173.149.354.195.54.247.501.492 1.002.734 1.502.164.308.303.63.418.96.051.14.113.278.185.41.06.125.121.25.183.374.108.218.216.437.314.655.07.133.13.27.181.41.093.283.208.558.343.823l1.766 3.618c.527-1.257 1.054-2.513 1.579-3.769.148-.383.324-.756.527-1.113.02-.036.038-.079.056-.123.013-.031.026-.063.04-.093l.059-.144a.453.453 0 0 1 .058-.26c.211-.386.396-.786.552-1.197l.06-.143c.04-.097.081-.192.125-.288.047-.118.103-.233.167-.343a6.36 6.36 0 0 0 .364-.771l.788-1.881c.088-.216.188-.426.298-.63.087-.159.164-.321.233-.487.065-.147.128-.294.19-.442l.001-.001v-.001c.05-.117.1-.234.152-.351.076-.186.171-.362.284-.528l.576-1.37a6.47 6.47 0 0 1 .428-.909c.073-.136.137-.277.192-.421l.118-.276c.073-.172.147-.345.225-.516a2.8 2.8 0 0 1 .16-.343c.233-.43.438-.876.614-1.333l.12-.288.036-.087c.03-.069.057-.136.084-.204.065-.092.144-.174.233-.243l.11.048a.161.161 0 0 1 0 .082.1.1 0 0 0 .123-.038l.99.412c.086.037.151.11.155.284 0 .045-.01.09-.028.13-.053.116-.11.23-.166.345v.001l-.101.206a2.348 2.348 0 0 1-.236.411 8.31 8.31 0 0 0-.504 1.028c-.035.096-.079.19-.13.278a5.35 5.35 0 0 0-.398.836l-.576 1.37a4.98 4.98 0 0 1-.342.686 5.743 5.743 0 0 0-.319.706 7.352 7.352 0 0 1-.428.908c-.074.136-.14.277-.196.421l-.133.316v.001c-.107.255-.215.51-.319.766a2.962 2.962 0 0 1-.288.528l-.083.2c-.195.464-.39.929-.602 1.394-.128.338-.281.665-.46.98-.072.137-.136.279-.191.424-.108.253-.213.505-.318.757v.001l-.002.004-.002.004v.002l-.134.319a3.202 3.202 0 0 1-.199.421c-.151.27-.283.55-.394.84a3188.113 3188.113 0 0 0-2.244 5.335l.002.004.522 1.066c.128.243.236.496.322.757.032.093.07.185.113.274.16.31.297.63.411.96.045.117.098.232.158.342l.146.3c.074.15.147.3.217.45.079.156.147.316.206.48.075.212.165.418.267.617l.3.614v.001c.199.409.398.817.594 1.225.092.178.172.36.24.549.066.185.153.362.26.527.082.125.154.256.217.39l1.23 2.52c.064.135.121.273.171.414.04.121.095.237.165.343.112.162.197.341.25.531.055.19.144.368.26.528.059.077.108.161.148.25.077.209.178.395.28.58.064.118.128.236.186.359l.466.956c.061.134.123.274.171.411.14.399.327.781.555 1.138.107.17.203.346.288.528l.73 1.497.133.271c.045.043.086.09.124.14.066.109.12.224.164.343.09.25.182.497.295.747a.38.38 0 0 1 .024.319c-.1.123-.264.181-.555-.028ZM73.47 88.815c.047.115.1.228.156.338l-.577 1.382c-.12.31-.262.612-.425.902a.851.851 0 0 0-.034.188l-.062.148c-.113.164-.208.34-.285.524a12.125 12.125 0 0 1-.441.994c-.114.201-.215.41-.302.623l-1.028 2.454c-.027.072-.058.144-.09.216-.119.313-.262.616-.428.908a1.537 1.537 0 0 0-.147.343c-.06.223-.135.442-.226.654l-.576 1.37c-.064.142-.124.284-.184.425-.052.123-.104.246-.158.367a9.442 9.442 0 0 1-.264.559c-.074.134-.13.277-.168.425a1.155 1.155 0 0 1-.151.342 2.745 2.745 0 0 0-.308.703 1.3 1.3 0 0 1-.107.281c-.149.272-.278.555-.387.846a660.949 660.949 0 0 0-1.182 2.814l-.053.126v.001l-.001.001c-.078.184-.15.357-.237.578-.06.15-.133.28-.206.409-.059.104-.117.207-.168.32l-.062.141c-.13.18-.226.384-.28.6-.04.144-.09.286-.148.425a5.19 5.19 0 0 1-.072.18l-.067.167a15.377 15.377 0 0 1-.858-.755 4.191 4.191 0 0 0-.343-.285l-.767-.613a5.09 5.09 0 0 1-.401-.343 8.816 8.816 0 0 0-.867-.747l-1.323-1.058a3.692 3.692 0 0 0-.497-.477 42.619 42.619 0 0 1-.768-.617 5.815 5.815 0 0 1-.465-.404c-.189-.178-.391-.353-.6-.521l-1.82-1.456a6.861 6.861 0 0 1-.733-.638 3.448 3.448 0 0 0-.343-.287l-.418-.343-.175-.137-.096-.079v-.195l.021-.189a.611.611 0 0 0-.051-.301v-.463c.048-.467.068-.936.058-1.405v-4.732a6.812 6.812 0 0 1 0-.706 5.504 5.504 0 0 0 0-.792c.043-.123.063-.253.058-.384v-2.035a8.84 8.84 0 0 1 .045-1.134 1.024 1.024 0 0 0-.042-.216v-.182c.042-.226.063-.455.062-.685v-.716c0-.175.01-.35.028-.525a6.75 6.75 0 0 0 .034-.791v-3.304c-.01-.382.006-.764.048-1.144v-.09l.001-.008a.07.07 0 0 0-.001-.019l-.02-.03v-.004c.006-.025.008-.032.05-.069l1.3-1.096.723-.617c.184-.15.37-.294.558-.435a2.21 2.21 0 0 0 .39-.343c.1-.108.216-.2.343-.274.25-.156.481-.342.686-.555.078-.085.164-.163.257-.233.29-.201.57-.421.832-.658l2.516-2.159.133-.113.222-.186c.14-.117.28-.234.443-.376.135-.118.272-.213.41-.308.114-.08.228-.159.34-.25l.138-.11c.222-.122.422-.28.592-.466.068-.068.153-.144.24-.222l.134-.12.343-.289c.128-.125.215-.242.233-.317.154.317.29.641.41.972.046.117.099.232.159.343l.18.373h.001c.06.124.122.248.182.374.068.132.129.268.181.407.105.306.233.603.384.888.21.432.418.86.63 1.288.047.19.114.373.2.549.123.246.246.496.363.747.078.155.147.315.205.48.075.21.163.417.264.616l.864 1.772c.135.24.25.493.342.754.041.117.09.232.148.342.038.086.08.17.121.255l.074.153c.2.374.371.763.514 1.162.03.083.083.156.154.209l.069.137c.035.065.066.133.092.202.131.376.29.74.473 1.093l1.755 3.595c.096.175.18.356.253.541Zm-3.916-8.621h.023a.123.123 0 0 0-.04-.028l.016.028Zm-13.416 22.301a.168.168 0 0 1-.055 0H56.138Zm22.078-23.563h.02v-.05l-.02.05Zm33.141 33.425.287-.031c.203.285.388.288.562.22.048-.021.093-.175.076-.312a8.014 8.014 0 0 1-.048-.812 2.41 2.41 0 0 0-.055-.37.92.92 0 0 0-.072-.175 2.188 2.188 0 0 0-.016-.086c-.014-.073-.029-.145-.029-.219l-.123-.888-.11-.784c-.024-.201-.06-.4-.109-.597a5.428 5.428 0 0 1-.175-1.268c-.002-.069-.01-.14-.018-.211-.01-.08-.02-.161-.02-.241l-.031-.223-.025-.174a28.231 28.231 0 0 1-.091-.665 5.536 5.536 0 0 0-.069-.406c-.041-.214-.082-.424-.082-.646a1.414 1.414 0 0 0-.065-.288 1.933 1.933 0 0 1-.086-.59c.009-.2-.015-.4-.072-.592a1.304 1.304 0 0 1-.054-.367 4.282 4.282 0 0 0-.038-.452c-.128-.937-.258-1.875-.391-2.814a3.492 3.492 0 0 0-.082-.442 2.446 2.446 0 0 1-.086-.59 5.082 5.082 0 0 0-.058-.602c-.094-.686-.188-1.371-.284-2.056a5.621 5.621 0 0 1-.062-.686 4.662 4.662 0 0 0-.045-.527l-.054-.39a57.39 57.39 0 0 1-.062-.447 3.183 3.183 0 0 1-.045-.377 7.318 7.318 0 0 0-.092-1.055c-.015-.1-.023-.2-.024-.302 0-.276-.025-.553-.075-.825l-.412-2.964c-.201-1.444-.401-2.89-.599-4.335a5.718 5.718 0 0 1-.086-.905 3.12 3.12 0 0 0-.045-.452 61 61 0 0 0-.084-.609v-.004l-.073-.525a3.167 3.167 0 0 1-.048-.456 6.92 6.92 0 0 0-.103-1.055l-.114-.834h-.001v-.002l-.115-.836a3.102 3.102 0 0 0-.02-.586c-.058-.377-.11-.758-.158-1.135-.027-.149-.043-.3-.048-.452a6.802 6.802 0 0 0-.092-.977 5.613 5.613 0 0 1-.082-.754 5.102 5.102 0 0 0-.066-.75c-.068-.48-.133-.96-.198-1.44a5.008 5.008 0 0 1-.083-.897 1.526 1.526 0 0 0-.027-.302 7.554 7.554 0 0 1-.093-1.123 2.235 2.235 0 0 0 0-.463l-.002-.041a.56.56 0 0 1 .148-.07.616.616 0 0 0 .129-.057l.051-.034a.271.271 0 0 0 .226-.13.75.75 0 0 1 .127-.127.79.79 0 0 1 .07-.055l.016-.012.018-.014a.196.196 0 0 0 .016-.012.151.151 0 0 0 .051-.164 1.52 1.52 0 0 0-.219-.446.16.16 0 0 0 .001-.072.146.146 0 0 0-.032-.065l-.168-.236a.65.65 0 0 0-.233-.49.157.157 0 0 0-.168-.027 1.897 1.897 0 0 1-.301.143.292.292 0 0 0-.12.09.272.272 0 0 0-.031.082l-.099.072-.549.4a.783.783 0 0 0-.185.165.902.902 0 0 1-.418.301.801.801 0 0 0-.161.086l-.343.254c-.106.096-.22.182-.342.257a.208.208 0 0 0-.083.089.318.318 0 0 1-.191.14.321.321 0 0 0-.203.134.238.238 0 0 1-.116.093.638.638 0 0 0-.165.085 104.31 104.31 0 0 0-.925.668.667.667 0 0 0-.133.127.408.408 0 0 1-.196.14.875.875 0 0 0-.209.124l-.685.49a.854.854 0 0 1-.24.134 1.153 1.153 0 0 0-.189.102l-.274.2a.435.435 0 0 1-.13.082 1.21 1.21 0 0 0-.373.209.383.383 0 0 1-.11.054.864.864 0 0 0-.295.165l-.976.706-1.426 1.028a.942.942 0 0 1-.319.178.558.558 0 0 0-.16.096l-.374.27a.686.686 0 0 1-.158.097c-.136.047-.263.119-.373.212l-.549.4a.494.494 0 0 0-.226.087 9.423 9.423 0 0 1-.296.218l-.077.056c-.048.039-.1.07-.158.092-.124.046-.24.112-.343.196a.889.889 0 0 1-.257.164.824.824 0 0 0-.27.144l-.473.343a.889.889 0 0 1-.319.178.276.276 0 0 0-.106.061 1.309 1.309 0 0 1-.166.111l.001-.278c.028-.295.028-.59.028-.881.007-.212.024-.421.044-.63a1.933 1.933 0 0 0 0-.467 1.134 1.134 0 0 1 0-.387c.045-.258.056-.52.031-.781a1.558 1.558 0 0 1 0-.308c.04-.315.06-.632.059-.95.03-.989.055-1.977.078-2.964v-.157c.017-.26.017-.477.017-.778 0-.153.022-.293.043-.43.02-.135.04-.266.04-.407v-.154c.06-.223.076-.456.048-.685a3.404 3.404 0 0 1-.017-.463v-.394a.493.493 0 0 0-.093-.342 2.96 2.96 0 0 1-.088-.065c-.128-.096-.256-.192-.395-.162-.03-.11-.075-.154-.123-.154l-.292-.017c-.15-.343-.332-.363-.51-.298-.055.014-.127.165-.127.308-.017.292-.048.57-.086.85-.012.13-.012.26 0 .39a.92.92 0 0 0 .041.193v.322l-.018.538c-.015.408-.03.817-.03 1.227l-.003.212c-.004.142-.008.282.003.422.04.446.027.896-.037 1.34-.02.156-.032.314-.035.472l-.012.45c-.005.226-.01.452-.022.674-.008.157-.006.312-.003.468.004.213.008.427-.017.643a1.18 1.18 0 0 0 0 .308c.03.207.03.417 0 .624-.041.204-.05.413-.024.62.017.13.017.26 0 .39l-.007.054c-.015.138-.031.28-.031.42l-.002.071c-.027.967-.053 1.93-.077 2.896a4.287 4.287 0 0 0 0 .473c.024.207.024.416 0 .624-.024.21-.038.422-.041.633-.016.482-.03.965-.042 1.448v.003l-.02.715c0 .239-.016.477-.048.713a4.678 4.678 0 0 0-.04.548c-.028.295-.028.59-.028.884a3.69 3.69 0 0 1-.017.398 7.82 7.82 0 0 0-.083 1.103c-.001.106-.01.211-.027.316a5.187 5.187 0 0 0-.062.867 962.85 962.85 0 0 0-.085 3.132l-.12 4.574c0 .317-.023.633-.069.946-.02.158-.03.317-.03.476-.004.146-.01.292-.016.438-.01.255-.019.51-.019.765.003.16-.005.319-.024.477a7.373 7.373 0 0 0-.075 1.106l-.019.544v.002c-.015.408-.03.814-.03 1.219-.045.2-.07.405-.075.61-.003.172-.01.343-.016.515-.009.228-.018.456-.018.684.002.159-.007.317-.027.473-.047.341-.071.684-.072 1.028.005.265-.009.529-.041.792a5.44 5.44 0 0 0-.059.785l-.04 1.521c0 .316-.022.631-.07.943a1.841 1.841 0 0 0-.023.315 8.188 8.188 0 0 1-.093 1.172c-.039.158-.063.32-.072.483-.005.07-.013.139-.02.208-.016.139-.031.277-.031.419a.344.344 0 0 0 .024.134c.065.164.15.209.243.209l1.073.027c.03-.082.068-.082.102-.082 0 .029.006.059.018.086h.12c.057-.1.1-.207.126-.319v-.641c0-.501.03-1.001.093-1.497a2.99 2.99 0 0 0 .044-.398c.028-.291.028-.586.028-.877a3.48 3.48 0 0 1 .027-.473c.05-.341.072-.684.069-1.028l.012-.339v-.001c.014-.394.029-.787.029-1.178.047-.2.073-.405.079-.61.001-.134.006-.268.011-.402.007-.161.013-.322.013-.482.003-.185.016-.369.04-.552a6.07 6.07 0 0 0 .052-.709c.016-.704.034-1.398.055-2.084a5.623 5.623 0 0 1 .062-.87c.017-.13.028-.262.03-.394v-.48c-.002-.45.026-.898.086-1.343a.508.508 0 0 0-.04-.271v-.398c.058-.416.088-.836.088-1.257l.185-4.225a5.409 5.409 0 0 1 .024-.634 4.448 4.448 0 0 0 0-.706.826.826 0 0 0 .069-.343l.051-1.823a7.141 7.141 0 0 1 .065-1.028.647.647 0 0 0-.034-.192v-.16c.047-.2.073-.405.079-.61v-.638c.003-.157.016-.314.038-.47.03-.235.048-.472.05-.709l.073-2.717v-.24a6.775 6.775 0 0 1 .072-1.028c.015-.13.015-.261 0-.39a4.798 4.798 0 0 1-.03-.627l.091.126c.036.003.056.027.077.05l.009.011a.034.034 0 0 0-.003.027v.003a.04.04 0 0 0 .003.005l.072.096c.053.022.11.03.168.024l.1-.072.102-.072c.148-.127.316-.228.497-.298a.476.476 0 0 0 .127-.083l.106-.076c.056-.041.111-.081.168-.119a.59.59 0 0 1 .157-.096c.126-.043.242-.11.343-.195l.473-.343a.558.558 0 0 0 .226-.09c.09-.068.182-.136.274-.198a.682.682 0 0 1 .189-.103.925.925 0 0 0 .24-.137l.65-.47a.844.844 0 0 1 .292-.164.59.59 0 0 0 .137-.072l.151-.11c.133-.111.283-.2.445-.263.055-.01.055-.058.055-.1l.052-.037a.271.271 0 0 1 .079-.048 1.37 1.37 0 0 0 .421-.24l1.323-.956a.704.704 0 0 1 .202-.137c.065-.02.107-.063.149-.106a.552.552 0 0 1 .067-.062.162.162 0 0 0 .14-.03l.569-.412c.101-.086.217-.152.343-.195.017-.004.034-.048.034-.076l.051-.037c.082-.01.16-.04.227-.09.063-.051.129-.1.198-.144a.732.732 0 0 1 .161-.085.825.825 0 0 0 .24-.134l.847-.613.075-.052a.998.998 0 0 1 .343-.195.242.242 0 0 0 .12-.093.782.782 0 0 1 .195-.191l.476-.343.032-.023h.001v-.001c.079-.058.16-.117.241-.171a1.98 1.98 0 0 1 .213-.12.27.27 0 0 0 .14-.113.177.177 0 0 1 .124-.083.44.44 0 0 0 .25-.168l.019-.023c.021-.027.044-.055.07-.055l.004-.002c.019.199.031.398.037.598.007.126.022.252.045.377l.038.278c.026.184.052.37.075.554.027.149.043.299.048.45.007.327.038.653.092.976l.1.718c.033.239.067.478.099.718-.015.196-.008.394.021.59.041.277.082.555.116.835a4.6 4.6 0 0 1 .045.525c.007.23.027.458.061.685.094.658.185 1.316.275 1.974.047.274.072.551.075.83.005.125.017.251.034.376.011.096.025.192.039.289l.01.073.013.094c.072.422.115.85.127 1.278.003.09.033.177.085.25l.021.15c.014.076.023.151.027.227.008.402.045.803.11 1.2.187 1.336.374 2.673.559 4.012.037.198.062.399.075.6.016.225.049.448.099.668a.792.792 0 0 0 0 .343l.237 1.713c.055.32.087.642.096.966a.596.596 0 0 0 .065.179l.02.15c-.015.196-.008.392.021.586.03.204.057.406.082.607.021.149.033.299.038.449a4.5 4.5 0 0 0 .062.685c.102.86.222 1.717.342 2.574l.031.23c.057.322.087.648.089.976.004.125.022.25.055.37.062.217.108.438.137.661a199.086 199.086 0 0 0 .237 1.72c.026.185.052.371.075.556.027.202.055.404.055.599.004.15.028.299.072.442.035.119.05.243.044.367-.004.251.027.502.093.744.028.093.045.19.051.288.009.304.04.608.093.908l.39 2.806.021.148.03.234c.019.156.038.312.073.502.028.158.03.304.032.45.002.116.004.232.019.352.017.048.017.1.017.147-.022.217-.001.436.062.645.038.142.068.286.089.431l.016.101.008.053v.005l.025.161.009.054c.028.161.083.291.148.319l.095.046c.141.072.285.144.419.091.044.096.096.123.144.123Zm-4.75-33.013h-.024l-.003-.038c.01.012.019.024.027.038ZM91.752 101.34v-.027s-.003.02 0 .027Zm.079-1.604h.024a.127.127 0 0 0-.004.048.145.145 0 0 1-.02-.048Zm47.724 9.849-.02.288a.158.158 0 0 1-.024.073.15.15 0 0 1-.059.05c-.009.17-.057.335-.14.483a.182.182 0 0 1-.182.089h-.198a1.063 1.063 0 0 0-.233.017.472.472 0 0 1-.343-.051h-.079a4.185 4.185 0 0 0-.415-.086c-.13 0-.263 0-.394-.02h-.078l-1.491-.093a1.737 1.737 0 0 1-.476-.061.338.338 0 0 0-.155 0 .746.746 0 0 1-.394-.038.288.288 0 0 0-.192 0 .472.472 0 0 1-.236 0 3.374 3.374 0 0 0-.315-.048c-.106 0-.211-.009-.316-.018l-.126-.009-.765-.048a1.393 1.393 0 0 0-.359.02.383.383 0 0 1-.196 0 1.863 1.863 0 0 0-.514-.075h-.12l-1.37-.086a1.373 1.373 0 0 1-.343-.055.992.992 0 0 0-.236-.037c-.054 0-.107-.006-.16-.011-.053-.005-.106-.01-.159-.01a.893.893 0 0 1-.305-.079h-.079c-.017 0-.037.011-.055.02-.018.009-.034.018-.044.014a1.877 1.877 0 0 0-.511-.072l-.915-.058a.246.246 0 0 1-.171-.068 1.16 1.16 0 0 1-.343 0 1.368 1.368 0 0 0-.319-.028l-2.128-.13a2.285 2.285 0 0 1-.63-.096.602.602 0 0 0-.12 0h-.079a.131.131 0 0 1-.063.04.133.133 0 0 1-.074.001 2.516 2.516 0 0 0-.685-.089l-.24-.017a.897.897 0 0 1-.199-.031 1.427 1.427 0 0 0-.435-.068l-1.045-.165a1.728 1.728 0 0 1-.343-.055 1.24 1.24 0 0 0-.277-.044 2.69 2.69 0 0 1-.238-.014l-.112-.009-.093-.005a.833.833 0 0 1-.305-.078l-.764-.048a1.836 1.836 0 0 1-.51-.076 1.055 1.055 0 0 0-.237-.031l-.442-.027a.745.745 0 0 1-.199-.021 2.791 2.791 0 0 0-.75-.096h-.322a.471.471 0 0 1-.154-.13v-.12l.01-.008.006-.003.004-.002a.067.067 0 0 1 .024-.004.107.107 0 0 0-.006-.056.114.114 0 0 0-.031-.047l.013-.221a.429.429 0 0 1-.051-.231l-.264-.12c-.044-.021-.075-.069-.068-.161-.137-.027-.228-.144-.317-.258v-.001l-.05-.063-.017-.021a.38.38 0 0 1 0-.312l.123-.301c.047-.119.087-.24.12-.363.041-.186.124-.36.243-.507l.052-.117c.042-.095.092-.18.143-.266.065-.11.131-.22.179-.351.057-.155.111-.28.165-.405l.035-.081.047-.11.051-.117.949-2.265a4.36 4.36 0 0 1 .343-.712.991.991 0 0 0 .089-.24c.053-.211.141-.411.26-.593a.842.842 0 0 0 .131-.295c.028-.126.075-.247.14-.36.079-.15.154-.312.226-.47l.285-.684.486-1.166c.078-.179.14-.365.185-.555a1.11 1.11 0 0 1 .124-.298c.145-.245.269-.501.37-.767l.075-.182.871-2.077c.071-.182.157-.359.257-.527.065-.11.123-.225.174-.343.042-.094.083-.195.122-.291.028-.07.055-.136.081-.196.065-.158.15-.308.253-.445l.052-.12a.51.51 0 0 1 .024-.164c.135-.244.25-.498.342-.761l.586-1.391a.593.593 0 0 1 .165-.24c.055-.189.128-.371.219-.545.08-.155.15-.316.209-.48l.819-1.957-.25-.342a6.732 6.732 0 0 1-.569-.874 1.107 1.107 0 0 0-.11-.165l-.078-.106a.342.342 0 0 1-.172-.15 6.36 6.36 0 0 0-.613-.93l-.233-.325a2.009 2.009 0 0 1-.178-.274 4.03 4.03 0 0 0-.391-.606l-1.028-1.395a3.794 3.794 0 0 1-.322-.497 3.433 3.433 0 0 0-.247-.384c-.14-.199-.284-.397-.428-.593a2.005 2.005 0 0 1-.25-.445l-.741-1.028a4.941 4.941 0 0 1-.462-.713 2.233 2.233 0 0 0-.22-.343l-.424-.59a1.76 1.76 0 0 1-.185-.27 7.966 7.966 0 0 0-.686-1.028l-.154-.212-.158-.216a.865.865 0 0 1-.058-.285l.096-.068a.112.112 0 0 1 .058.044.096.096 0 0 0 .038-.116l.183-.134a.635.635 0 0 1-.012-.123l-.168-.237a.151.151 0 0 1-.029-.067.165.165 0 0 1 .005-.073 1.383 1.383 0 0 1-.212-.449.158.158 0 0 1 .062-.171l.13-.1c.052-.039.1-.085.14-.137a.347.347 0 0 1 .247-.14l.055-.038c.044-.029.094-.047.143-.065.061-.023.123-.046.176-.09.066-.054.126-.095.185-.136l.043-.03a.681.681 0 0 0 .035-.025l.055-.041 1.028-.723c.102-.088.218-.158.343-.206a.25.25 0 0 0 .096-.085.532.532 0 0 1 .274-.182.195.195 0 0 0 .134-.09.31.31 0 0 1 .154-.119 2.3 2.3 0 0 0 .233-.134c.065-.043.126-.087.189-.132l.112-.08.518-.374a.958.958 0 0 0 .216-.205.281.281 0 0 1 .13-.1c.137-.048.265-.12.377-.212l.082-.058.925-.665a.978.978 0 0 1 .261-.148.805.805 0 0 0 .175-.095c.074-.048.146-.1.215-.155a.556.556 0 0 1 .244-.099l.055-.041c0-.028.024-.076.041-.079.135-.05.26-.123.37-.216l.623-.445a.182.182 0 0 1 .151-.034.684.684 0 0 0 .071-.066.413.413 0 0 1 .166-.116.985.985 0 0 0 .219-.148l1.443-1.028c.136-.113.292-.203.459-.263a.49.49 0 0 0 .086-.055l.054-.038c0-.045 0-.093.062-.106a1.8 1.8 0 0 0 .487-.291l.164-.117a.694.694 0 0 1 .147-.079c.117-.041.224-.103.319-.181l.709-.511c.08-.06.168-.11.261-.147a.892.892 0 0 0 .206-.113c.102-.069.202-.14.298-.216a.55.55 0 0 1 .246-.1l.514-.37c.112-.092.238-.165.374-.216a.63.63 0 0 0 .171-.102l.302-.216a.611.611 0 0 1 .14-.09c.197-.084.379-.2.538-.342l.11-.075.11-.08a.385.385 0 0 1 .178 0l.068.097a.02.02 0 0 1-.001.013.021.021 0 0 1-.002.008.041.041 0 0 1-.014.016c.01.016.023.03.039.04.015.01.032.018.05.022l.627.87a.341.341 0 0 1 .064.12c.012.043.017.089.012.134a.086.086 0 0 1-.031.055l-.233.123a.514.514 0 0 1-.199.072 1.411 1.411 0 0 0-.435.237.356.356 0 0 1-.117.065 1.028 1.028 0 0 0-.342.195l-.518.37a.965.965 0 0 1-.291.161 1.003 1.003 0 0 0-.281.178c-.114.091-.241.164-.377.216a.685.685 0 0 0-.171.103 18.57 18.57 0 0 0-.408.291.613.613 0 0 1-.243.103l-.6.432c-.121.1-.257.178-.404.233a.58.58 0 0 0-.172.106l-.168.12h-.001a9.616 9.616 0 0 1-.242.171.63.63 0 0 1-.171.103 1.163 1.163 0 0 0-.343.199l-1.559 1.117-1.066.768a.942.942 0 0 1-.318.178.47.47 0 0 0-.117.061 1.5 1.5 0 0 1-.408.23.608.608 0 0 0-.14.09l-.126.09a4.627 4.627 0 0 1-.176.125 1.02 1.02 0 0 1-.205.113 1.083 1.083 0 0 0-.261.147c-.094.069-.189.135-.283.201-.151.107-.302.213-.454.327-.071.054-.148.1-.229.137a.459.459 0 0 0-.213.154.766.766 0 0 1-.147.134l-1.011.727a.885.885 0 0 1-.178.092.301.301 0 0 0-.13.1.345.345 0 0 1-.216.144.376.376 0 0 0-.213.154.29.29 0 0 1-.089.096 2.126 2.126 0 0 0-.373.277l-.384.27a.905.905 0 0 1-.178.097c-.18.072-.337.19-.456.343a.964.964 0 0 1-.199.174l-.382.274.129.206c.076.106.139.221.188.343.152.288.327.563.524.822.054.069.101.142.141.22.12.232.262.452.425.657l.74 1.028c.13.174.245.359.343.552.107.19.229.371.366.541.176.224.332.463.466.713.064.115.137.224.22.326l.582.805c.099.137.182.286.247.442l.888 1.206c.191.24.36.497.503.768.065.115.14.224.223.325l.583.81c.084.106.157.22.219.342.122.232.265.452.428.658l.929 1.278-1.155 2.758-1.001 2.4a3.757 3.757 0 0 1-.315.65c-.045.073-.084.15-.116.23a5.532 5.532 0 0 1-.405.826 2.206 2.206 0 0 0-.133.301l-.285.686a3.496 3.496 0 0 1-.202.41c-.096.173-.182.35-.257.532l-.685 1.655c-.065.164-.14.323-.226.477a1.718 1.718 0 0 0-.196.476c-.036.126-.08.25-.133.37l-.95 2.268a3.076 3.076 0 0 1-.174.343 1.083 1.083 0 0 0-.12.298c-.038.17-.109.331-.209.473a1.455 1.455 0 0 0-.199.476.933.933 0 0 1-.075.244 8.984 8.984 0 0 0-.343.853l-.363.857a2.898 2.898 0 0 1-.175.342 4.283 4.283 0 0 0-.428 1.028 3.595 3.595 0 0 1-.179.494l-.565 1.35-.099.247a.952.952 0 0 1-.012.131c.121.024.244.038.368.04.053 0 .106.009.157.024.153.05.313.074.473.072l.765.048c.133.003.266.025.394.065.128.032.261.047.394.045.174 0 .347.026.514.075.077.019.156.03.236.031l.603.038c.106.006.21.033.305.078l.888.055a1.93 1.93 0 0 1 .555.079c.077.02.157.029.236.027l.607.042a.75.75 0 0 1 .236.03c.155.047.315.071.477.072l2.299.141 1.573.096c.148 0 .294.023.435.068a.564.564 0 0 0 .158.028c.187.004.372.033.551.085a.774.774 0 0 0 .203.021c.147 0 .294 0 .442.031.093.005.186.019.277.041.112.033.227.051.343.055l1.09.068c.107.005.214.019.318.045a.647.647 0 0 0 .312.017c.08-.009.16-.009.24 0l1.494.092c.079.006.157.019.233.042a.395.395 0 0 0 .199 0 .537.537 0 0 1 .312.027.517.517 0 0 0 .311.021c.051-.018.105-.023.158-.018.185.025.372.034.559.028.132 0 .264.012.396.023l.086.008.083.007c.08.005.159.018.237.037.222.067.456.082.685.045.107-.012.215-.012.322 0l.888.055h.161a.434.434 0 0 1 .099-.042.637.637 0 0 1 .195 0c.14.039.282.068.425.086a.195.195 0 0 1 .151.13.553.553 0 0 1-.199.518Zm-17.572-.607v-.024l-.024.021.024.003Zm.007-26.913h-.024l-.017-.018a.098.098 0 0 1 .021.007.106.106 0 0 1 .02.01Zm-59.348-2.067h1.37v19.41h-1.37v-19.41Z" fill="#fff"/><path stroke="#DDD" d="M.5.5h159v159H.5z"/></svg>