<svg width="160" height="160" fill="none" xmlns="http://www.w3.org/2000/svg"><path fill="#fff" fill-opacity=".1" d="M.5.5h159v159H.5z"/><path fill-rule="evenodd" clip-rule="evenodd" d="m57.882 43.952.281.08c.048 0 .079.085.072.26.148-.023.24.15.335.323.022.04.043.08.066.119.04.19.033.389-.024.575l-.134.62-.016.077c-.047.221-.096.454-.12.65-.047.36-.136.714-.268 1.052l-.055.243a9.13 9.13 0 0 1-.145.521c-.075.247-.149.493-.198.771-.06.301-.13.603-.2.903l-.074.317-.055.247-1.048 4.636-.168.747-.123.288-.09.196c-.058.126-.12.257-.185.38a3.63 3.63 0 0 0-.181.462 7.512 7.512 0 0 1-.494 1.152c-.102.18-.185.37-.246.569a4.283 4.283 0 0 1-.281.685c-.14.302-.281.61-.415.922l-.548 1.302-.943 2.251c-.15.36-.28.706-.397 1.06a3.8 3.8 0 0 1-.24.578c-.189.355-.351.73-.515 1.11l-.17.391-.23.549-.038.03-3.399 3.057c-.284.257-.565.507-.867.733-.172.131-.359.294-.535.448l-.04.036c-.258.226-.515.455-.765.685a7.65 7.65 0 0 1-.767.61l-.192.171a1.954 1.954 0 0 1-.203.237c-.428.318-.832.685-1.24 1.059l-1.86 1.672-1.543-1.37a2.091 2.091 0 0 1-.377-.412c-.094-.082-.189-.159-.284-.236-.19-.155-.382-.31-.572-.508a8.154 8.154 0 0 0-.488-.447c-.09-.08-.182-.159-.27-.238l-5.099-4.462-.541-.476-.685-.613-.175-.463-.09-.278c-.032-.103-.085-.222-.131-.324l-.009-.018-.096-.24a1.12 1.12 0 0 1-.209-.38c-.167-.548-.384-1.077-.602-1.61l-.165-.405-.292-.713-.016-.043c-.074-.186-.152-.381-.203-.55-.115-.377-.265-.75-.416-1.123l-.074-.183-1.264-3.084c-.148-.342-.285-.709-.401-1.069a12.774 12.774 0 0 0-.274-.733l-.038-.096-.25-.624-.155-.88a7.619 7.619 0 0 1-.137-.974l-.48-2.398-.037-.187a15.586 15.586 0 0 1-.247-1.43c-.02-.188-.065-.405-.11-.616l-.027-.132-.277-1.37a14.25 14.25 0 0 0-.036-.172c-.033-.158-.066-.318-.081-.456-.064-.586-.185-1.176-.307-1.768-.041-.2-.082-.4-.121-.6l-.1-.5-.102-.507a2.557 2.557 0 0 1 0-.528l.116-.02c.023.04.04.084.048.13l.003-.001c.033-.017.066-.033.066-.157l1.052-.216c.092-.02.188.031.311.275a.93.93 0 0 1 .069.202l.164.994c.049.254.08.512.096.77.076.61.178 1.227.316 1.861.037.164.065.33.085.497.06.502.146 1.001.257 1.494l.483 2.399.023.115c.075.38.15.755.19 1.129.033.304.098.613.162.922.023.11.046.22.067.329.018.083.034.166.05.248.03.15.06.296.091.437l.062.343c.018.087.03.175.037.264v.027l.035.11c.054.18.14.391.223.594l.047.115.727 1.782c.125.302.23.612.315.928l1.08 2.636.086.212c.198.483.395.962.544 1.45.051.173.133.37.212.56v.001l.062.151.73 1.79.045.11c.084.204.17.416.226.602l.147.452c.013.016.087.081.183.165.11.097.249.218.352.315l5.503 4.852 2.498 2.2.343-.305c.338-.318.693-.619 1.062-.901a3.43 3.43 0 0 0 .387-.343c.446-.397.891-.795 1.371-1.144.124-.094.258-.217.387-.337l.093-.085 1.055-.946.024-.02c.215-.19.44-.386.662-.548.301-.233.586-.483.873-.74l2.4-2.153.033-.071.179-.425c.068-.155.14-.309.212-.453a6.32 6.32 0 0 0 .384-.921c.072-.227.175-.473.274-.71l1.837-4.393c.1-.233.209-.47.315-.685.095-.185.175-.378.24-.576.1-.319.232-.626.394-.918.156-.295.284-.604.384-.922.045-.159.101-.315.168-.466.075-.158.147-.319.216-.48l.174-.445.065-.316.076-.36.4-1.757c.059-.247.12-.5.193-.734.206-.687.364-1.388.472-2.097.051-.337.122-.651.196-.98l.003-.017.627-2.762.11-.5c0-.103 0-.2.02-.309a6.66 6.66 0 0 1 .138-.613c.13-.428.25-.864.36-1.316a.894.894 0 0 1 .23-.463c.17-.044.338.041.376.586Zm-29.035 17.34h.024a.703.703 0 0 0-.048-.059l.024.059Zm10.664 18.38h.291c.048 0 .096.025.134.11.144-.037.292.037.43.106l.07.035c.059.027.103.137.12.274l.024.315c.01.124.028.246.055.367.043.178.043.364 0 .541v.124c0 .088-.006.173-.012.259-.01.136-.02.273-.005.426.016.166.023.295.03.422a14 14 0 0 0 .011.199v.126l.151 2.368c.028.253.034.507.017.76a.781.781 0 0 0 .028.248c.043.205.052.415.027.623a.738.738 0 0 0 0 .312c.015.063.025.127.03.192h.761c.165-.013.331-.004.494.027a.731.731 0 0 0 .178.017c.209-.011.418.002.624.042.075.007.15.007.226 0h.497c.104-.004.208.002.312.017.133.023.269.032.404.027l1.23.069c.114-.01.229-.01.343 0 .113.024.23.024.343 0 .087-.019.177-.027.267-.024l1.679-.034c.09 0 .179.006.267.02a.478.478 0 0 0 .22 0 .62.62 0 0 1 .342 0 .64.64 0 0 0 .343 0 .532.532 0 0 1 .175-.027c.208.015.418.015.627 0h.634c.089-.01.178-.01.267 0 .25.051.508.051.757 0 .119-.024.24-.035.36-.035l.997-.017h.182a.344.344 0 0 1 .106-.048.682.682 0 0 1 .223 0c.158.03.319.047.48.052a.201.201 0 0 1 .178.116.514.514 0 0 1-.12.487v.288a.14.14 0 0 1-.082.13c.004.17-.033.338-.11.49a.22.22 0 0 1-.199.106h-.223a1.493 1.493 0 0 0-.26.034.583.583 0 0 1-.384-.02h-.089a4.238 4.238 0 0 0-.473-.052h-.531l-1.675.031c-.18.015-.36.007-.538-.024a.44.44 0 0 0-.175 0 .965.965 0 0 1-.442 0 .37.37 0 0 0-.22 0 .573.573 0 0 1-.263 0c-.06 0-.12-.005-.18-.01-.056-.005-.111-.01-.163-.01H46.94a1.713 1.713 0 0 0-.398.051.49.49 0 0 1-.223 0 2.18 2.18 0 0 0-.579-.034h-.137l-1.539.027c-.134.008-.268 0-.4-.024a1.641 1.641 0 0 0-.264-.02h-.364a.952.952 0 0 1-.342-.055h-.107a.14.14 0 0 0-.06.023c-.02.011-.037.021-.05.018a2.304 2.304 0 0 0-.575-.027h-.934l.064.976c.008.19.035.378.078.562.024.102.031.208.021.312a4.706 4.706 0 0 0 0 .822v.192l.199 2.173c.015.19.015.38 0 .569-.01.126-.01.254 0 .38 0 .151.02.308.038.46l.006.05c.021.163.021.328 0 .49v.131a.21.21 0 0 0 .032.086c.013.026.025.049.023.065-.015.272-.005.545.031.815l.13 1.457a.542.542 0 0 1-.03.277c.035.187.054.376.058.566 0 .17.012.339.037.507l.309 3.385c.044.341.053.686.027 1.028a.893.893 0 0 0 0 .192v.127c.042.064.061.14.055.216-.03.359-.03.72 0 1.079v.388c.009.106.009.212 0 .318-.02.228-.02.458 0 .686l.051 1.672c.016.19.016.382 0 .572-.01.149-.01.297 0 .446 0 .228.007.465.021.709.004.166-.012.332-.048.494l.038 1.216c.024.274.024.549 0 .822-.01.127-.01.254 0 .381v.706c.008.106.008.212 0 .318a7.092 7.092 0 0 0 0 1.207v.51a.804.804 0 0 1-.113.261h-.117a.112.112 0 0 1-.024-.069.1.1 0 0 0-.096.072l-1.076.034a.26.26 0 0 1-.253-.157.212.212 0 0 1-.028-.103v-.504c.002-.13.018-.26.048-.387.04-.313.05-.628.034-.942a1.24 1.24 0 0 1 0-.254c.031-.25.038-.503.021-.754l-.038-1.216a3.221 3.221 0 0 1 .02-.631 3.57 3.57 0 0 0 0-.634 5.049 5.049 0 0 1 .021-.822c.01-.126.01-.252 0-.377l-.027-.96c-.005-.165.01-.331.045-.493l-.042-1.412a4.807 4.807 0 0 1 0-.888c.01-.126.01-.253 0-.38l-.027-.963a2.39 2.39 0 0 1 0-.384c.03-.251.03-.505 0-.757l-.343-3.649-.226-2.498a3.644 3.644 0 0 1-.024-.686 1.23 1.23 0 0 0 0-.25 5.14 5.14 0 0 1-.027-.888 2.059 2.059 0 0 0-.02-.318l-.063-.686a3.926 3.926 0 0 1 0-.442c.007-.19 0-.382-.02-.572l-.154-1.713a3.624 3.624 0 0 1 0-.51 1.713 1.713 0 0 0-.035-.498 2.213 2.213 0 0 1-.044-.377l-.105-1.614h-1.859a2.92 2.92 0 0 1-.712-.058.828.828 0 0 0-.134 0h-.093a.168.168 0 0 1-.15.048 3.311 3.311 0 0 0-.761-.051h-.27a.78.78 0 0 1-.224-.02 1.975 1.975 0 0 0-.493-.039h-1.179a1.776 1.776 0 0 1-.404-.034 1.822 1.822 0 0 0-.312-.027h-.514c-.117-.001-.233-.022-.343-.062h-.863a2.35 2.35 0 0 1-.58-.048 1.138 1.138 0 0 0-.267 0h-.497a.943.943 0 0 1-.222 0c-.28-.05-.566-.07-.85-.055h-.363a.525.525 0 0 1-.178-.12v-.12a.068.068 0 0 1 .047-.02.11.11 0 0 0-.047-.1v-1.072a.29.29 0 0 1 .116-.25.144.144 0 0 1 .075-.028l.343.038a.847.847 0 0 1 .27.058c.219.05.442.071.666.065a.738.738 0 0 1 .178 0c.175.04.355.056.534.048h.857c.15-.006.3.007.445.038.149.027.3.035.45.024a2.54 2.54 0 0 1 .579.044.967.967 0 0 0 .267.018h.685c.117 0 .233.021.343.061h.997c.21-.01.42.007.627.048.09.01.18.01.27 0h.686c.09-.002.18.005.267.02.177.037.358.05.538.042h1.982a1.37 1.37 0 0 1-.004-.4 1.302 1.302 0 0 0-.031-.501.867.867 0 0 1-.041-.243 8.445 8.445 0 0 0-.065-.888l-.055-.901a3.498 3.498 0 0 1 0-.38c.028-.36.006-.72-.065-1.073a3.068 3.068 0 0 1-.059-.504l-.092-1.415v-.257a.686.686 0 0 1-.058-.148 1.646 1.646 0 0 1-.02-.315c0-.075.002-.15.005-.225.005-.15.01-.302-.006-.46 0-.117.052-.244.103-.26a.432.432 0 0 1 .596.164Zm2.474 27.871h-.02a.105.105 0 0 0 .024.034l-.004-.034ZM34.58 88.846v.02h-.024l.024-.02Zm100.349 27.25h-.291c-.048 0-.093-.048-.13-.178-.149.048-.303-.088-.44-.211l-.054-.046a.687.687 0 0 1-.109-.432l-.018-.483v-.001c0-.191 0-.4-.037-.568a2.706 2.706 0 0 1 0-.833v-.192c0-.151.01-.297.021-.444.014-.188.028-.379.02-.584-.006-.162-.007-.306-.008-.444 0-.174-.001-.338-.013-.515v-.185l-.072-3.65a10.343 10.343 0 0 1 0-1.168 2.107 2.107 0 0 0-.02-.381c0-.068-.007-.135-.014-.202a2.527 2.527 0 0 1-.014-.175v-.483c.009-.16-.005-.32-.041-.476a2.908 2.908 0 0 1-.072-.573c0-.229-.022-.467-.044-.7l-.007-.074-.113-1.083-.192-1.867a8.602 8.602 0 0 0-.134-.86 2.667 2.667 0 0 1-.055-.48 9.848 9.848 0 0 0-.085-1.261l-.031-.295-.343-3.334a6.324 6.324 0 0 1-.027-.87c.01-.194.01-.387 0-.58 0-.23-.019-.462-.037-.692l-.008-.093a4.519 4.519 0 0 1 0-.753v-.2a1.097 1.097 0 0 1-.055-.232c.013-.417.001-.835-.034-1.25l-.133-2.235a1.237 1.237 0 0 1 .034-.428 7.037 7.037 0 0 1-.062-.87c0-.165-.012-.354-.023-.542h-.001v-.001l-.014-.236-.157-2.6c-.1-.86-.219-1.714-.343-2.578a13.22 13.22 0 0 1-.144-1.538c0-.067-.011-.14-.023-.215a2.041 2.041 0 0 1-.011-.076l-.024-.196a.744.744 0 0 1-.093-.322 13.9 13.9 0 0 0-.164-1.641l-.075-.586-.007-.061-.004-.033c-.015-.135-.031-.276-.031-.39a9.449 9.449 0 0 0-.099-1.062l-.343-2.539-.034-.257v-.377c0-.11 0-.216.017-.343.014-.143.009-.296.005-.45-.002-.078-.005-.157-.005-.235v-1.082c-.047-.012-.094-.024-.144-.035l-.089-.02-1.713-.398a2.612 2.612 0 0 1-.538-.158.497.497 0 0 0-.178-.03.994.994 0 0 1-.446-.117.42.42 0 0 0-.219-.058.686.686 0 0 1-.271-.052 3.118 3.118 0 0 0-.342-.113 6.998 6.998 0 0 0-.282-.067c-.075-.018-.151-.035-.222-.053l-.871-.202a1.708 1.708 0 0 0-.414-.055.533.533 0 0 1-.223-.048 2.423 2.423 0 0 0-.579-.181l-.137-.035-1.556-.363a1.816 1.816 0 0 1-.401-.127 1.475 1.475 0 0 0-.264-.085 4.456 4.456 0 0 0-.366-.09 1.03 1.03 0 0 1-.343-.14l-.093-.02a.206.206 0 0 0-.041.005c-.031.007-.061.013-.075-.005a2.398 2.398 0 0 0-.576-.175 22.102 22.102 0 0 0-1.045-.233.342.342 0 0 1-.185-.096 1.752 1.752 0 0 1-.411-.076 1.67 1.67 0 0 0-.363-.082l-2.444-.497a2.926 2.926 0 0 1-.712-.202.894.894 0 0 0-.138-.03l-.092-.021a.193.193 0 0 1-.168.017 3.351 3.351 0 0 0-.764-.206l-.278-.058a1.099 1.099 0 0 1-.222-.065 2 2 0 0 0-.494-.14l-1.203-.244a2.064 2.064 0 0 1-.404-.11 1.85 1.85 0 0 0-.315-.089 14.949 14.949 0 0 0-.507-.102 1.064 1.064 0 0 1-.343-.134l-.877-.178a2.296 2.296 0 0 1-.583-.161 1.27 1.27 0 0 0-.267-.072l-.507-.103a1.121 1.121 0 0 1-.227-.055c-.14-.054-.283-.1-.428-.138v.494a2.258 2.258 0 0 0 0 .545c.019.22.019.44 0 .658-.017.291-.024.59-.027.888v3.385c0 .343 0 .686.041.994.017.183.017.366 0 .548-.041.481-.056.964-.045 1.447v4.163c0 .343 0 .686-.024 1V78.344c.006.288-.01.575-.048.86v.23c.021.089.036.18.045.27-.034.477-.042.956-.024 1.433l.034 2.57c.007.164-.012.328-.055.487.026.331.034.664.024.997-.016.178-.01.381-.005.586.003.104.005.207.005.308l.038 2.988-.072 2.985-.003.094c-.016.571-.032 1.135-.1 1.681V94.401a.862.862 0 0 1 .041.38c-.066.522-.079 1.062-.092 1.601l-.002.099-.005.195v.686c0 .188 0 .387-.034.555-.047.407-.071.817-.072 1.227l-.076 2.94v.195l.024.343c0 .127 0 .253.018.38 0 .221.022.465.044.704l.007.071.127 1.237c.029.287.038.575.027.863l.216 2.128.017.169c.043.426.086.85.086 1.27 0 .152.018.329.035.504l.007.066.009.095.124 1.213c.025.184.041.37.048.555 0 .534.058 1.087.116 1.638l.048.47.045.449.044.449a1.902 1.902 0 0 1-.072.462h-.116a.28.28 0 0 1-.035-.116c-.034 0-.068.02-.085.133l-1.069.11c-.093 0-.182-.044-.278-.264a.706.706 0 0 1-.045-.181l-.054-.884a4.62 4.62 0 0 1 0-.686 16.074 16.074 0 0 0-.107-1.655 3.316 3.316 0 0 1-.03-.445 11.77 11.77 0 0 0-.093-1.327l-.216-2.131a10.235 10.235 0 0 1-.072-1.107c0-.244-.029-.517-.059-.787v-.002c-.012-.108-.024-.216-.033-.321-.06-.479-.094-.96-.103-1.443 0-.17-.022-.367-.043-.559l-.012-.106-.123-1.261v-.534c.008-.287.035-.573.082-.857l.065-2.484c.001-.521.029-1.042.086-1.56.02-.149.023-.326.027-.506l.004-.179.024-1.662c0-.223 0-.466.034-.685.047-.443.073-.888.075-1.333l.086-3.221-.038-3.218-.058-4.41c-.016-.408-.008-.817.024-1.224a3.621 3.621 0 0 0 0-.442c0-.527 0-1.048.034-1.555v-2.584c.028-.343.034-.661.034-1v-3.057c0-.299 0-.61.024-.891a4.942 4.942 0 0 0 0-.878 7.395 7.395 0 0 1-.024-.685v-4.167c0-.223 0-.449.024-.665a2.79 2.79 0 0 0 0-.548 4.052 4.052 0 0 1 0-.88v-.179a4.232 4.232 0 0 0-.072-.654 2.854 2.854 0 0 1-.061-.432c0-.325-.037-.64-.073-.958a14.27 14.27 0 0 1-.061-.601l-.13-1.577a10.92 10.92 0 0 1-.031-.668c-.001-.63-.053-1.26-.154-1.881-.048-.295-.076-.59-.1-.888l-.205-2.48-.038-.45a1.605 1.605 0 0 1-.068-.263 4.25 4.25 0 0 1-.048-.552c0-.394 0-.788-.038-1.2a.712.712 0 0 1 .082-.445c.197-.087.359-.083.522.187l.263-.951a.286.286 0 0 1 .188-.209.198.198 0 0 1 .09 0l.366.137c.097.033.19.08.274.137.219.11.448.197.686.257a.633.633 0 0 1 .185.065c.176.089.362.156.555.199l.911.253c.161.037.316.093.463.168.153.066.311.116.473.151.208.048.411.12.603.213.09.04.184.072.281.092l.72.199c.121.036.237.09.342.161l1.059.291c.226.051.446.128.655.23.09.04.184.071.281.092l.723.203c.096.022.19.053.281.092.177.089.365.155.558.199l2.742.76 1.881.518c.177.038.349.099.511.182.059.03.121.052.185.068.224.054.442.13.651.23.075.034.155.059.236.075l.528.148c.117.026.232.064.342.113.135.064.276.114.422.147l1.302.343c.128.031.252.073.374.123.117.058.243.093.373.103.099.008.196.027.291.055l1.786.486c.094.027.185.062.274.103a.653.653 0 0 0 .236.062c.132.005.26.043.374.11a.779.779 0 0 0 .373.099.595.595 0 0 1 .192.027c.218.075.442.133.669.175l.685.188c.095.026.188.059.277.1.253.121.526.196.806.219.131.016.26.042.387.079l1.062.291.192.052a.392.392 0 0 1 .127 0c.081.011.16.032.236.061.16.078.325.144.494.199.086.027.161.113.157.168a.48.48 0 0 1-.339.442l-.079.277a.146.146 0 0 1-.123.1.959.959 0 0 1-.257.439.248.248 0 0 1-.24.037l-.24-.058a2.21 2.21 0 0 0-.284-.048.686.686 0 0 1-.398-.137l-.096-.028a1.502 1.502 0 0 1-.209-.088 1.251 1.251 0 0 0-.277-.107 5.01 5.01 0 0 1-.37-.099l-.096-.028-.096-.024-1.782-.486a2.468 2.468 0 0 1-.562-.189.542.542 0 0 0-.189-.037 1.142 1.142 0 0 1-.466-.14.47.47 0 0 0-.233-.07.742.742 0 0 1-.281-.068 4.754 4.754 0 0 0-.373-.13l-.528-.144-.915-.25a1.928 1.928 0 0 0-.435-.076.6.6 0 0 1-.236-.061 2.693 2.693 0 0 0-.604-.213l-.147-.038-1.631-.445a2.106 2.106 0 0 1-.418-.15 1.627 1.627 0 0 0-.278-.1h-.001a7.124 7.124 0 0 0-.382-.106 1.164 1.164 0 0 1-.343-.158l-.096-.027a.303.303 0 0 0-.048.005c-.032.005-.063.01-.079-.005a2.633 2.633 0 0 0-.6-.206l-1.096-.301a.378.378 0 0 1-.192-.117 1.803 1.803 0 0 1-.425-.106c-.123-.05-.25-.09-.38-.117l-2.543-.685a3.497 3.497 0 0 1-.744-.26.745.745 0 0 0-.14-.045l-.096-.027a.204.204 0 0 1-.175 0 3.75 3.75 0 0 0-.795-.271l-.288-.083a1.406 1.406 0 0 1-.229-.082 2.234 2.234 0 0 0-.514-.181l-1.251-.343a2.56 2.56 0 0 1-.418-.15 2.421 2.421 0 0 0-.326-.117l-.07-.021a8.432 8.432 0 0 0-.461-.127 1.155 1.155 0 0 1-.342-.16l-.912-.25a2.801 2.801 0 0 1-.603-.213 1.345 1.345 0 0 0-.281-.093l-.528-.147a1.61 1.61 0 0 1-.236-.076 4.797 4.797 0 0 0-.233-.098.9.9 0 0 1 .068.349l.052.551.013.129c.019.18.039.364.069.519.06.312.078.632.051.95v.218c.013.19.014.369.015.55.001.203.001.408.02.63.025.243.044.488.063.734l.029.362.017.216.343 4.163.022.269v.003c.013.16.026.321.036.481l.014.004a.946.946 0 0 1 .267.114 3.1 3.1 0 0 0 .668.198.632.632 0 0 1 .179.052c.171.076.352.128.538.154l.877.178c.153.024.303.068.445.13.147.054.298.092.453.113.201.031.397.085.586.161.086.036.177.06.27.072l.686.14c.12.025.236.07.342.131l1.028.21c.217.032.429.09.631.174.087.033.178.056.271.068l.685.144c.093.014.183.039.271.072.172.073.353.123.538.151l2.645.538c.202.043.405.083.608.123.399.08.799.16 1.195.257.169.029.334.08.49.155a.716.716 0 0 0 .178.058c.215.042.424.11.624.202.073.027.149.047.226.062l.507.12c.106.023.209.056.308.099.131.055.266.097.405.127l1.24.291c.123.024.244.06.36.106.107.052.224.08.343.083.093.005.186.02.277.044l1.714.398c.09.021.178.05.263.085a.534.534 0 0 0 .227.052c.12 0 .238.032.342.092a.748.748 0 0 0 .343.083.457.457 0 0 1 .182 0c.21.061.424.108.64.14l.645.154c.09.021.178.05.263.086.237.105.49.166.748.18l-.011-1.016c-.017-.42-.007-.842.028-1.261.011-.117.007-.25.003-.383a6.715 6.715 0 0 1-.003-.2V62.32a17.51 17.51 0 0 0 .03-1.847v-.792a1.72 1.72 0 0 1 .117-.397h.116a.184.184 0 0 1 .021.102c.038 0 .072 0 .099-.106h1.076c.093 0 .179.048.25.247.02.053.031.108.031.164l-.027.775a3.924 3.924 0 0 1-.051.593c-.043.482-.058.966-.045 1.45.009.128.009.257 0 .386a8.832 8.832 0 0 0-.031 1.162l.021 1.871c.011.324.002.648-.028.97l-.008.185.015.003a.487.487 0 0 1 .12-.02.834.834 0 0 1 .226.051c.154.068.312.126.473.175.082.02.154.103.151.157a.506.506 0 0 1-.233.48l-.072.281a.142.142 0 0 1-.041.069.135.135 0 0 1-.072.034.997.997 0 0 1-.233.449.236.236 0 0 1-.226.051l-.109-.021c-.005.115-.013.23-.022.343-.01.194-.01.389 0 .583v.997l.052.374c.032.25.045.502.038.754l.281 2.162c.07.454.114.912.13 1.37 0 .13.02.28.041.429l.01.073.004.028.006.053.192 1.474.013.101c.021.166.043.336.046.481.012.39.049.78.109 1.165l.363 2.8c.045.577.079 1.156.113 1.735.021.36.042.719.066 1.078l.229 3.849c.03.356.038.715.024 1.072a4.169 4.169 0 0 0 0 .387c.033.457.043.914.028 1.371 0 .147 0 .326.02.49l.065 1.086c0 .227 0 .466.021.686 0 .291.027.579.058.873l.278 2.65.007.08c.022.235.044.476.048.697.003.256.03.51.082.761.037.178.061.384.082.576l.38 3.632c.021.192.031.391.035.579 0 .161.019.32.054.477.056.25.079.507.069.764v.188c-.008.206.003.413.031.617.022.124.032.251.031.377-.015.29-.001.576.014.861.009.169.017.339.02.51l.024 1.37v.583a9.073 9.073 0 0 0 .031 1.648c.027.259.041.518.041.778l.041 2.176v.394c.023.076.04.154.051.233.012.161.012.322 0 .483-.024.343-.041.686-.044 1.045 0 .179-.058.367-.11.388-.14.051-.322.02-.49-.377Zm-3.714-42.718h.024l-.028-.055.004.055Zm-19.176-20.93v.02l-.035-.02h.035Zm-5.175 46.915h-.024a.434.434 0 0 0 .011.035l.013.034v-.07ZM93.877 45.186h-.292c-.167-.47-.352-.507-.534-.398a.753.753 0 0 0-.11.46c0 .421-.014.832-.034 1.24a4.63 4.63 0 0 0 0 .572c.013.094.03.187.055.278v.466l.058 2.58c.007.312.017.617.048.926.064.65.077 1.304.041 1.956v.686l.034 1.641c.031.54.031 1.081 0 1.62-.011.15-.011.3 0 .45.027.303.022.609-.017.911-.043.301-.052.606-.027.908.015.19.015.38 0 .57-.02.215-.041.452-.041.685l-.093 4.338v.685c.026.303.026.608 0 .912-.038.291-.038.613-.038.925l-.078 3.18c.024.343.024.685 0 1.028v.809l.017 1.292v.582c-.031.531-.031 1.073-.031 1.621.009.153.009.306 0 .46-.031.423-.038.849-.02 1.274 0 .764.034 1.528.071 2.289l.107 2.29.301 6.685c.024.47.045.935.024 1.39-.006.115.002.243.009.376.006.103.012.208.012.31l.092 1.758c.024.223.024.48.024.685-.012.541.003 1.082.045 1.621l.137 2.577c-.02.298-.02.597 0 .895l.06 1.128a.403.403 0 0 0-.064.027h-.198l-1.1-.052a2.217 2.217 0 0 0-.398 0 2.293 2.293 0 0 1-.836-.038 1.97 1.97 0 0 0-.291-.037l-.686-.034a4.699 4.699 0 0 1-.685-.028.624.624 0 0 0-.192 0 .781.781 0 0 1-.387 0 .78.78 0 0 0-.387-.024.65.65 0 0 1-.243 0 2.104 2.104 0 0 0-.295-.038l-1.85-.085a1.686 1.686 0 0 0-.295 0 1 1 0 0 1-.391 0 2.44 2.44 0 0 0-.39-.041l-1.35-.066a2.435 2.435 0 0 1-.446-.05 2.173 2.173 0 0 0-.343-.045l-.548-.024a1.904 1.904 0 0 1-.25-.021 3.27 3.27 0 0 0-.686-.086.894.894 0 0 1-.195-.027 2.19 2.19 0 0 0-.541-.065c-.433-.02-.866-.032-1.297-.043h-.001l-.652-.019-2.855-.079c-.199.002-.398-.018-.593-.058a1.338 1.338 0 0 0-.294-.027l-.75-.024c-.1.003-.2-.004-.299-.02a2.881 2.881 0 0 0-.685-.066l-1.1-.03a1.34 1.34 0 0 0-.38-.073l-.748-.02a1.343 1.343 0 0 1-.294-.024 3.084 3.084 0 0 0-.641-.062 2.358 2.358 0 0 1-.494-.034 1.925 1.925 0 0 0-.486-.052l-.95-.027a2.424 2.424 0 0 1-.589-.062.714.714 0 0 0-.195-.02c-.246 0-.49-.028-.73-.083a.953.953 0 0 0-.09-.03c.012-.113.023-.229.032-.343l.311-4.414c.028-.236.028-.483.028-.706a5.555 5.555 0 0 1 .062-.922c.044-.312.073-.626.085-.942l.079-3.225c.007-.376.02-.72.055-1.062.027-.257.048-.545.048-.819l.034-1.316c.01-.099.01-.203.01-.304 0-.1 0-.2.01-.288.066-.535.093-1.09.093-1.645a4.05 4.05 0 0 1 .031-.47c.046-.429.068-.86.069-1.292.028-1.017.041-2.017.054-3.017l.024-1.64.096-6.805c-.006-.472.017-.943.069-1.412.044-.209.044-.466.044-.706l.072-1.792.007-.166v-.001c.007-.188.013-.38.034-.542.065-.548.101-1.098.11-1.649l.103-2.628c.051-.3.083-.604.096-.908l.068-1.785.006-.15c.007-.192.014-.388.039-.556.05-.508.06-1.02.03-1.529v-2.354l-.047-2.265c-.026-.47-.026-.94 0-1.408v-.47c-.02-.603-.01-1.185.024-1.758.031-.238.046-.479.044-.72l.018-.935a.81.81 0 0 0-.031-.199c-.076-.24-.165-.301-.257-.301l-1.073.024c-.027.13-.062.13-.096.13a.316.316 0 0 0-.024-.123h-.106c-.053.155-.09.316-.11.48v.949c0 .249.006.499.012.749.013.498.025.995-.012 1.482v.589l.028 1.305v.686a15.022 15.022 0 0 0 0 1.521l.044 2.255a6.869 6.869 0 0 0-.04.908v.655l-.028.654-.002.03c-.013.265-.027.541-.057.79a9.22 9.22 0 0 0-.075 1.055l-.12 3.084c-.007.432-.037.863-.089 1.292a4.48 4.48 0 0 0-.041.582l-.031.716-.014.357v.002c-.02.552-.04 1.103-.113 1.636-.015.134-.003.27.035.4v.237c-.021.106-.021.237-.021.343a17.609 17.609 0 0 0-.09 1.87l-.088 6.306-.001.257c0 .238 0 .48-.02.685-.02.352-.02.704 0 1.056a1.732 1.732 0 0 0-.068.51c-.01.908-.031 1.81-.055 2.71a14.48 14.48 0 0 1-.076 1.505c.003.097.015.193.035.288v.24c-.049.298-.076.6-.083.901-.001.143-.006.287-.011.431-.006.173-.013.346-.013.519a9.099 9.099 0 0 1-.04.685 9.774 9.774 0 0 0-.059 1.048l-.096 4.034v.342a14.599 14.599 0 0 1-.154 1.515c-.028.192-.04.385-.038.58.007.362-.003.705-.03 1.048l-.158 2.254-.096 1.306c-.024.312-.055.624-.093.932a4.256 4.256 0 0 0-.04.685c.007.193-.008.387-.045.576-.068.381-.099.768-.093 1.155.004.153-.003.307-.02.459a5.145 5.145 0 0 0-.062.473l-.045.524v.497l.048 4.414v1.391c.008.245-.007.47-.021.694a8.37 8.37 0 0 0-.023.55v.233c-.05.332-.057.67-.02 1.004.037.206.037.456.037.686v.585a.99.99 0 0 0 .106.528l.064.068c.135.143.282.3.43.244.034.161.078.219.13.219v.364a.107.107 0 0 1 .044.04c.01.018.015.039.014.059a.052.052 0 0 0-.03.003.062.062 0 0 0-.025.018v.116c.06.053.13.093.206.117h.404c.316-.018.633-.004.946.041.083.008.167.008.25 0h.555c.1-.011.201-.011.302 0 .212.036.428.049.644.037h.96c.135.012.27.004.404-.024h.558c.115 0 .23.008.343.024.149.022.299.031.449.028h1.316c.184-.012.37-.002.552.031.083.009.167.009.25 0h.301a3.93 3.93 0 0 1 .854.037c.03.006.06.004.09-.005a.197.197 0 0 0 .078-.046h.099a.76.76 0 0 1 .15 0c.264.044.532.059.8.045l2.675-.028c.134-.014.268-.014.401 0 .148.017.298.017.446 0a.344.344 0 0 0 .223.055h.575l.573-.041a2.86 2.86 0 0 1 .64 0c.014.003.035-.009.057-.022s.044-.026.063-.026h.103c.127.029.257.04.387.031.134-.031.267-.031.401-.031.1-.007.199-.007.298 0 .15.015.3.015.45 0l1.713-.13h.15c.216-.024.433-.024.648 0 .083.01.167.003.247-.021.144-.041.292-.066.442-.075l.96-.076.554-.037h.401a.776.776 0 0 0 .292-.031.45.45 0 0 1 .246 0c.16.017.323.001.477-.048a.545.545 0 0 1 .192-.028c.2.024.402.024.603 0l1.867-.14h.1l.034-.003.062-.004.044-.003.033-.002c.098-.005.197-.011.317-.026.115-.015.222-.005.328.005.067.006.134.012.203.012h.1c.139.041.288.041.428 0 .094-.026.19-.043.287-.051l.247-.024c.11-.017.195-.058.216-.12a.967.967 0 0 0 .1-.5.136.136 0 0 0 .082-.134v-.24h.11c.03-.123.068-.123.102-.123a.382.382 0 0 0 .017.123h.12c.06-.15.102-.306.127-.466v-.935l.009-.503v-.002c.008-.569.017-1.136.08-1.689.017-.171.017-.383.017-.579l.024-1.281.004-.175v-.002c.003-.175.007-.355.027-.509.069-.49.069-.993.069-1.497l.04-2.217a6.46 6.46 0 0 0 .076-.891v-.624l-.038-.716v-.805c.01-.343-.003-.686-.024-1.028l-.16-3.043a12.173 12.173 0 0 1-.032-1.272v-.575l-.037-.686-.02-.353c-.03-.54-.061-1.081-.039-1.61a1.005 1.005 0 0 0-.068-.387V90.333c.024-.6 0-1.216-.03-1.836l-.282-6.168a53.747 53.747 0 0 0-.01-.223c-.012-.242-.024-.487-.024-.7a9.89 9.89 0 0 0-.055-1.027c.036-.167.049-.338.038-.507-.006-.156-.015-.313-.023-.469a15.565 15.565 0 0 1-.032-.858l-.02-1.33-.003-.164c-.007-.443-.014-.886.023-1.316a1.452 1.452 0 0 0-.045-.28v-.233c.038-.296.054-.594.048-.891v-1.618c.02-.343.02-.685.02-1.028l-.057-3.958v-.343c0-.5.026-1 .079-1.497a3.18 3.18 0 0 0 0-.572c-.021-.343-.021-.686-.021-1.028l.048-2.224.03-1.289c.011-.308.025-.617.049-.922.02-.227.02-.457 0-.685a2.608 2.608 0 0 1 .017-.565c.049-.379.061-.76.038-1.141-.01-.151-.01-.302 0-.453.05-.455.064-.913.044-1.37l-.096-4.342v-.23a43.515 43.515 0 0 1-.008-.428 24.963 24.963 0 0 0-.02-.713c-.011-.252.002-.482.015-.712.01-.168.02-.335.02-.511v-.23a3.964 3.964 0 0 0 0-.99c-.045-.213-.045-.456-.045-.685l-.02-.576a.97.97 0 0 0-.113-.518c-.023-.021-.045-.045-.068-.068-.136-.139-.283-.289-.43-.233-.033-.158-.081-.216-.13-.216Zm-.37 56.24c.081-.012.164-.018.246-.018v.052a.612.612 0 0 0 0 .11V102.588c-.003.119-.002.238-.001.357v.001c.001.268.003.535-.04.796-.062.377-.062.761-.062 1.152l-.037 2.22c.001.458-.022.916-.069 1.371a3.26 3.26 0 0 0-.024.459 17.511 17.511 0 0 1-.092 1.714 5.267 5.267 0 0 0-.072.685l-.045.801-1.076.083a2.222 2.222 0 0 0-.397.058c-.275.071-.56.091-.843.062a2.118 2.118 0 0 0-.298 0l-.706.051a4.63 4.63 0 0 1-.686.062.63.63 0 0 0-.192.038.824.824 0 0 1-.394.031.785.785 0 0 0-.39.024.644.644 0 0 1-.244.02 2.118 2.118 0 0 0-.298 0l-1.864.141c-.1.007-.2.022-.298.044a1.01 1.01 0 0 1-.39.031 2.93 2.93 0 0 0-.398 0l-1.37.103c-.15.014-.3.014-.45 0a1.961 1.961 0 0 0-.342 0l-.555.041a1.307 1.307 0 0 1-.25 0 3.413 3.413 0 0 0-.686 0 .943.943 0 0 1-.199 0 2.097 2.097 0 0 0-.548 0c-.327.03-.655.042-.984.038h-.987l-2.878.03a2.46 2.46 0 0 1-.6-.034 1.52 1.52 0 0 0-.301 0h-.757a1.35 1.35 0 0 1-.299 0c-.226-.037-.456-.05-.685-.037h-1.114a1.25 1.25 0 0 0-.383-.059h-.758a1.35 1.35 0 0 1-.298 0 2.896 2.896 0 0 0-.644-.037 2.46 2.46 0 0 1-.5 0 2.179 2.179 0 0 0-.497-.035h-.956a2.267 2.267 0 0 1-.593-.037.735.735 0 0 0-.199 0 3.31 3.31 0 0 1-.674-.044c.005-.112.012-.224.02-.337.01-.193.01-.386 0-.579a1.493 1.493 0 0 0-.052-.284v-.48l-.027-2.625c-.004-.319-.01-.631-.038-.942a13.38 13.38 0 0 1-.02-1.995c.017-.226.017-.469.017-.706v-2.162c.013-.339.03-.747.078-1.117.01-.153.01-.306 0-.459-.009-.31.013-.62.066-.925.014-.081.027-.16.037-.242.266.002.53.028.792.077.082.009.165.009.247 0l.548.017c.099-.003.198.005.295.024.21.045.423.065.637.062l.946.024c.121.045.25.07.38.072h.548c.115.002.23.014.343.034.145.03.294.045.442.045l1.302.037c.181-.002.362.016.538.055.082.016.164.026.247.028h.298c.28-.008.561.017.836.072a.206.206 0 0 0 .168-.045h.103a.726.726 0 0 1 .147 0c.257.053.52.078.782.075l2.642.076c.13-.012.263-.012.394 0 .146.02.295.02.442 0 .06.046.136.069.212.065.377.01.758.027 1.135.044.212 0 .423.024.63.072.014.004.035-.005.058-.015.022-.009.045-.019.065-.019h.1c.12.047.248.073.377.079h.397c.098.003.196.016.291.038.145.033.294.052.443.054l1.689.079h.15a2.63 2.63 0 0 1 .638.072c.08.017.163.017.243 0a2.18 2.18 0 0 1 .443-.024l.945.045.549.027c.133.01.263.024.39.045a.68.68 0 0 0 .291 0 .448.448 0 0 1 .244.017c.156.046.321.057.483.034a.494.494 0 0 1 .195 0c.194.042.392.061.59.058l1.847.086h.096c.143.021.325.021.486.021.174.018.347.046.518.082h.096a.714.714 0 0 0 .418.048Zm1.535-5.298h.024l.003.069a.292.292 0 0 1-.027-.069Zm-22.439 18.237v-.024l-.027.024h.027ZM66.57 61.73h-.024l.003-.068c.02.024.02.048.02.068Zm6.213 38.298v-.014a.055.055 0 0 0-.028.021l.028-.007Zm40.189-36.115v.024l-.031-.024h.031Z" fill="#fff"/><path stroke="#DDD" d="M.5.5h159v159H.5z"/></svg>