<svg width="175" height="40" fill="none" xmlns="http://www.w3.org/2000/svg"><path d="m68.978 34.724.039-.014c-.03-.013-.047-.03-.04.014ZM71.68 30.417c-1.907-.556-3.32.695-5.178.394a.889.889 0 0 1-.04-.07.018.018 0 0 1 .013 0l-.023-.02v-.008c.024 0 .066-.008.053.01.056-.055-.079-.083 0-.107h.007c-.028-.055-.057-.03-.107-.038a.21.21 0 0 1-.01-.031l.14-.032h-.076c0-.009 0-.024.038-.021-.053-.028-.032 0-.08-.01.065-.039-.033-.104.084-.114-.056-.012-.043.036-.082 0 .127-.012-.022-.046.036-.08.067.01.03.041.09.008-.11-.021.024-.067 0-.095-.087 0-.036-.062-.065-.11.028 0 .052-.091.085-.14h.007c-.089-.01-.07-.057-.088-.091a.139.139 0 0 1 .098.029v-.032a.069.069 0 0 1-.053-.04l.067.01c0-.041-.077-.087-.03-.138a.285.285 0 0 0-.075 0v-.018c.009-.007 0-.012 0-.014a.213.213 0 0 0 .007-.028h.025s-.02.015 0 .023a.113.113 0 0 1 .078-.052c-.028 0-.065 0-.07-.021 0-.042.059-.011.085-.034-.033-.012 0-.037-.068-.043 0-.01.035-.01.055-.015-.024-.018-.012-.07-.043-.083.024-.12.028-.243.01-.364h.015c-.016-.034-.042-.04 0-.084.037.038.037 0 .026.038.025-.04.064-.046 0-.097.06.02.08-.024.064-.046l-.047.025a.09.09 0 0 1 .007-.061l.08.019c.107-.075-.149-.174.022-.22-.052-.029-.044.042-.108.014.015-.038.139-.065.139-.077.051-.048-.111-.064-.074-.117-.029 0-.107 0-.129-.046.015-.038.127-.032.139 0 .013.032-.008.012-.018.011a.04.04 0 0 0 .022.022.04.04 0 0 0 .03-.001l-.027-.008c.03-.017.035-.071.08-.052-.023-.033-.045-.02-.063 0 .048-.046.012-.079.048-.126-.016 0-.051.008-.05 0 .046-.071-.05-.04-.055-.095.048-.022.102.025.073-.032.035-.026.077 0 .099.021-.049-.055.049-.083.063-.108l.019.027a.045.045 0 0 1-.007-.04h-.06c.013-.014.014-.026.038-.022-.035-.02-.097 0-.14-.04.033-.016-.023-.064.055-.059-.032.052.057.013.078.046 0-.008 0-.015.01-.025.003 0 .007.001.01.003a.024.024 0 0 1 .009.007c.078-.049-.08-.04-.07-.1.042.014.084 0 .076-.013 0 .024-.073 0-.102-.027.039-.034-.018-.046-.011-.066l-.02.021c-.041-.015-.033-.033-.041-.062.033 0 .018.027.035.02-.07-.041.089-.055.044-.105.032-.015.08.01.103 0-.047-.056.067-.042.03-.099-.06 0-.047.01-.097-.035l.027.09-.075-.067c0 .025.027.058.016.07-.043-.031-.029-.027-.079-.023.092-.02-.039-.075.025-.104l.139.025c.074-.047-.054-.116 0-.185l-.03.02c-.053-.02 0-.048-.017-.077a.185.185 0 0 0 .098-.007c-.034 0 .013-.054-.08-.078l.068-.024c.036-.055-.122-.093-.096-.15.049.028.088.007.117.053 0-.02.015-.034-.017-.041.032 0-.053-.066 0-.075-.02-.013-.068-.025-.06-.046h.024c-.024 0-.025-.04-.08-.03.156-.034.02-.172.156-.2a.616.616 0 0 1-.008-.139c.014 0 .024 0 .017.012.055-.045-.128-.06-.067-.112.082-.015.035.04.067.028.157.022 0-.078.093-.1l.007.011c.06-.02-.043-.087-.021-.139a.069.069 0 0 0 .022 0 .263.263 0 0 1-.096-.176c.057.028.028.029.092.032 0-.024-.101-.014-.108-.061a.304.304 0 0 1 .139-.024v.042c.089 0 .008-.053.027-.073l.036.012c0-.067-.091-.088-.069-.155h-.03c-.084-.057.06-.02 0-.072l.095.01a.618.618 0 0 1-.079-.154c.049.038.09.085.123.139.006-.024.01-.085-.032-.107.006.01.026.029.01.036-.067-.048-.095-.095-.083-.14.18.05.075-.116.224-.119-.047-.101.068-.164.08-.265-.15 0 0-.03-.14-.059 0-.025 0-.033.01-.033h.008l.103-.05c.046-.007.026.03.06.035.022-.047.067 0 .113-.03-.053 0-.07-.035-.044-.06l-.076.024c-.061-.088.139-.032.076-.122l.04.034c-.017-.044.034-.14-.074-.2.018 0 .06 0 .066.019.04-.084-.075-.225.013-.278l.033.015c0-.02-.058-.046-.018-.057.014 0 .034.016.038.009.004-.007-.052-.059-.025-.075l.034.027c.069-.073-.063-.154-.07-.232a.163.163 0 0 0 .18-.06h.016c.037-.097-.044-.191-.062-.293.128-.027.099-.18.185-.255a.103.103 0 0 1-.086-.043c.028-.016-.056-.078.039-.05v.007c.097.01.083-.042.096-.075l-.123-.04c.205-.041 0-.254.173-.26-.025-.028-.018-.056-.043-.085l.066.02a.278.278 0 0 0 .055-.163l.043.029c.016-.04-.177-.106-.17-.14l.103.016c.018-.072.125-.122.056-.22.015 0 .043.016.043.028.012-.033.105-.114-.035-.139.089.024.03-.073 0-.123l.064.025c-.075-.057-.097-.066-.107-.119.011-.008.055 0 .035.016.044-.027-.054-.046-.007-.08l.037.027c.016-.036-.008-.039-.05-.074-.02-.032.038-.066.097-.055-.034-.015-.076-.05-.052-.068a.07.07 0 0 1 .04.022c.063-.05-.049-.115.028-.139a.101.101 0 0 0 .041 0c-.016.049-.031.089-.036.083.062.018.084-.02.157.037-.036-.046-.118-.13-.079-.162h.022c.009-.007 0-.016 0-.027.014-.01.024-.016.028-.027.052.01.04-.039.05-.058-.067-.018-.048-.04-.11-.032v.03a.312.312 0 0 1-.01.052c-.028-.025-.052-.05-.009-.063l-.097-.058c.1 0 .165-.04.223-.03-.019-.073.018-.152-.093-.227-.01-.022.042-.01.063-.011.02-.002 0 .025.02.036-.022-.045.019-.107-.065-.14.052-.031.071.05.075-.014l.025.015c.17-.075-.15-.253.045-.334a.043.043 0 0 1-.024 0c.124-.126.023-.332.192-.441.038-.035-.015-.056-.049-.095l.073.012-.067-.069a.038.038 0 0 1 0-.024c.02-.05.197-.04.12-.139h-.05c.019-.024 0-.097.055-.075-.008 0-.047-.025-.018-.029l.036.011-.04-.089c.044-.044.139.056.175-.019 0-.035-.08-.118-.107-.115 0 .01-.032.022-.07.01l-.01-.03.035.013-.034-.018c0-.04.008-.081.01-.121-.174-.687.132-1.59-.627-1.876-.615-.061-1.89-.456-2.013.44a2.6 2.6 0 0 1-.154.34c-.025-.01-.033 0-.032.016 0 .021-.007.041-.02.057l-.02.022a.143.143 0 0 0-.018.024s-.011.011-.019.015c-.006.004-.023.007-.042-.012-.02-.02-.012-.025-.012-.036 0-.012.025-.013.012-.04 0 0-.014-.01-.016-.008-.028.025-.051.055-.079.08a.999.999 0 0 0-.08.09.26.26 0 0 1-.11.07.121.121 0 0 0-.064.041c-.014.015-.028.03-.044.044a.553.553 0 0 1-.161.094.758.758 0 0 0-.122.068.535.535 0 0 1-.128.06c-.032.008-.064.019-.096.029-.01 0-.023 0-.03.01a.219.219 0 0 1-.167.06c-.025 0-.036.021-.049.046a.178.178 0 0 0 .117-.026.393.393 0 0 1 .108-.046c.113-.033.221-.08.323-.139a.406.406 0 0 0 .096-.072.14.14 0 0 1 .075-.04.175.175 0 0 1 0 .152h-.024c-.008 0-.017-.016-.022 0-.006.017-.01.023-.049.013 0-.028.014-.03.017-.049.003-.02 0 0-.008 0-.009 0-.035.011-.018.053.016.042 0 .036 0 .04 0 .004-.045.03-.07.042a.09.09 0 0 1-.086 0 .04.04 0 0 0-.053.008s-.012 0 0 .03c.013.029.032.097-.025.056-.012.067-.07.038-.099.07-.029.032-.034.036-.064 0-.007-.008-.015-.008-.019 0-.011.043-.043.044-.072.033-.03-.01-.045.025-.07.03a1.411 1.411 0 0 0-.185.054.744.744 0 0 1-.145.039.673.673 0 0 1-.15 0c-.063.054-.15 0-.212.058-.01.01-.02.015-.025 0-.026-.068-.03-.028-.044 0-.014.028-.03.018-.046.025-.036-.047-.067-.011-.095.007a.2.2 0 0 1-.139.033 1.573 1.573 0 0 0-.199-.01c-.01 0-.026 0-.023.024.003.025.015.01.025.008h.011c.015 0 .036-.022.046.021.01.043-.011.08-.039.081a.067.067 0 0 1-.028-.007c-.008-.025.016-.011.011-.032a.066.066 0 0 0-.075.02c-.025.023-.044.016-.07.012-.024-.004-.05-.022-.073 0a.024.024 0 0 1-.03 0c-.07-.061-.138-.01-.209-.022a.498.498 0 0 1-.213-.038c-.034.027-.073-.012-.105 0a.087.087 0 0 1-.084.011.047.047 0 0 0-.051.014c-.01.01-.03 0-.028.034a.043.043 0 0 0 .03.041c.024 0 .047.018.07.011a.291.291 0 0 1 .146 0h.035c.044-.045.094-.016.139-.026h.015c.005.003.01.006.013.01.022.037.051.039.08.048-.008.048-.046 0-.051.049.014 0 .028 0 .042.02a.101.101 0 0 1-.05.084c-.019.015-.048.018-.059.059l-.164.014a.062.062 0 0 1 0-.024c0-.015-.007-.026-.012-.024-.027.015-.049-.012-.074-.02-.025-.009-.051 0-.065.05a.14.14 0 0 1-.011.03h-.09c-.013-.014-.026-.01-.04 0h-.012l-.127.008v-.008c-.007-.025-.02-.012-.03-.011-.011.001-.023 0-.045-.056 0-.015-.012-.01-.02-.007a.058.058 0 0 0-.017.035c-.01.035-.034.047-.049.02-.028-.053-.058-.03-.088-.02a.195.195 0 0 1-.173 0c-.056-.032-.11.011-.164.045-.008 0-.017.015-.028.023h-.556c.01-.107.02-.212.028-.32h-.056c.08-.926.164-1.866.25-2.819l-.133-.007v-.053h-.132v-.068h-.117v-.054h-.132v-.054h-.132v-.068h-.139v-.054h-.118v-.068h-.132v-.055l-.139-.006v-.055h-.139v-.068h-.139v-.055l-.13-.028v.055h-.138v.069h-.06v.054h-.139v.054h-.06v.068h-.075v.055h-.12v.07h-.073v.054h-.06l-.008.123h-.058v.055h-.074v.068h-.06v.054h-.073l-.007.123h-.06l-.046.07h-.058v.109h-.074l-.013.189h-.058c0 .058-.007.117-.011.175h-.074c0 .076-.01.153-.014.228h-.058l-.008.12h-.059c0 .04 0 .08-.007.12h-.073l-.007.12h-.059v.105h-.073l-.007.12h-.059c0 .039 0 .079-.007.118h-.058c0 .039 0 .08-.007.118h-.074v.053h-.058c0 .039 0 .08-.007.118h-.072c0 .039 0 .08-.007.118h-.058c0 .04 0 .08-.007.118h-.059v.106h-.072c0 .039 0 .078-.007.116h-.058l-.009.17h-.073c0 .078-.007.156-.011.234h-.059l-.02.4h-.059l-.032.664h-.072l-.02.392h-.058c0 .075-.007.15-.011.225h-.057l-.009.162h-.07v.113h-.057v.1h-.071v.111h-.057c0 .075 0 .149-.011.224h.058c-.051.018-.03.042 0 .065v.054h-.049l.049.021v.03c-.024 0-.049 0-.058-.01-.049.034.037.025-.017.055h-.018l.032.03c-.022 0-.072.008-.059-.012-.055.057.081.085 0 .109.03.058.059.029.112.037v-.044l-.128.03h.075c0 .009-.007.024-.038.021.053.03.032 0 .08.011-.064.04.034.104-.084.114.056.013.043-.036.082 0-.126.014.022.047-.036.082-.065-.01-.03-.043-.089-.008.111.02-.025.067 0 .096.089 0 .038.064.067.112-.028 0-.052.092-.085.14h-.015c.089.01.07.058.087.092a.158.158 0 0 1-.097-.029v.034a.065.065 0 0 1 .051.04l-.066-.011c0 .041.076.089.029.139.057 0 .153-.028.201.01v.015c-.033 0-.078 0-.09-.017-.013-.017.028.02.013.03l-.056-.027c-.026.023.047.015.04.036-.048 0-.035.012-.073.007 0 0 .02-.017 0-.025a.108.108 0 0 1-.077.054c.027 0 .064 0 .07.02 0 .044-.06.012-.087.036.034.012 0 .037.069.043 0 .012-.035.012-.055.015.031.024 0 .103.081.085.065.079-.05.149-.028.222H56.5c.023.046.006.097.055.14 0 .012-.047.026-.075.017.015.035.042.04 0 .084-.037-.037-.037.008-.026-.037-.025.04-.064.046 0 .099-.06-.022-.08.024-.064.046l.046-.025a.094.094 0 0 1 0 .062l-.081-.02c-.107.075.149.175-.024.222.055.03.046-.042.11-.014-.017.039-.139.065-.139.078-.05.048.113.065.075.12.03 0 .107 0 .128.045-.015.038-.126.034-.146 0-.02-.033.009-.012.018-.011a.036.036 0 0 0-.051-.02l.028.008c-.032.016-.037.07-.082.052.023.034.045.018.064 0-.05.045-.013.08-.048.128.017 0 .052-.01.05 0-.047.072.049.042.055.096-.048.024-.103-.025-.074.032-.033.028-.076 0-.099-.02.049.056-.048.084-.062.11l-.02-.029a.047.047 0 0 1 .007.042h.06c-.013.012-.014.025-.038.022.035.02.098 0 .14.04-.031.016.022.064-.055.06.032-.053-.057-.014-.078-.047 0 .005 0 .01-.002.014a.029.029 0 0 1-.009.01h-.01a.02.02 0 0 1-.008-.007c-.078.048.08.038.07.1-.042-.014-.084 0-.077.014 0-.026.074 0 .103.026-.04.035.018.047.011.067l.02-.021c.04.015.032.033.041.064-.034 0-.02-.03-.036-.023.071.043-.089.057-.044.107-.032.016-.08-.01-.103 0 .047.056-.067.042-.03.1.06 0 .047-.01.097.034l-.027-.09.075.068c0-.025-.028-.059-.015-.073.042.034.028.03.078.025-.092.02.04.075-.025.106l-.14-.025c-.073.047.055.117 0 .186l.03-.02c.054.02 0 .05.018.078a.185.185 0 0 0-.099 0c.036 0-.012.056.081.08l-.068.022c-.036.057.122.096.096.153-.049-.028-.088-.007-.117-.054 0 .02-.017.036.017.043-.032 0 .053.066 0 .076.02.013.068.024.06.046a.093.093 0 0 1-.023 0c.024 0 .025.04.08.03-.158.034-.021.174-.158.202.008.046.011.093.009.139-.014 0-.024 0-.017-.011-.056.046.128.06.067.112-.084.016-.035-.041-.068-.027-.157-.023.007.079-.093.101l-.007-.011c-.059.02.043.089.02.139a.083.083 0 0 0-.022 0 .265.265 0 0 1 .096.178c-.058-.028-.028-.03-.092-.032 0 .023.1.014.109.062a.304.304 0 0 1-.14.024v-.043c-.09 0-.008.054-.028.074l-.037-.012c0 .067.092.088.07.156h.03c.084.058-.06.02 0 .074l-.095-.01c.033.048.06.1.079.156a.487.487 0 0 1-.122-.14c0 .026-.012.085.032.109-.007-.012-.028-.03-.012-.036.069.047.096.094.082.139-.179-.049-.075.118-.223.12.047.104-.069.166-.081.27.15 0 0 .03.139.057 0 .027 0 .035-.01.035h-.008l-.103.05c-.046 0-.026-.03-.06-.035-.023.049-.066 0-.112.032.053 0 .07.035.043.06l.076-.025c.06.09-.139.033-.078.124l-.04-.035c.018.044-.033.139.075.201-.02 0-.06 0-.066-.016-.04.083.075.226-.014.278l-.034-.016c0 .02.059.046.018.057-.014 0-.033-.015-.037-.008-.004.007.051.06.025.076l-.035-.029c-.068.075.064.157.07.237a.164.164 0 0 0-.181.06h-.015c-.04.098.043.192.06.297-.129.027-.1.183-.187.258a.103.103 0 0 1 .086.043c-.028.017.056.08-.039.05-.097-.008-.084.043-.096.077l.123.04c-.206.041 0 .256-.174.262.025.03.017.058.042.088l-.066-.02a.285.285 0 0 0-.055.163l-.043-.028c-.017.042.176.107.17.148l-.104-.017c-.019.075-.126.125-.058.224-.014 0-.042-.016-.042-.03-.012.035-.105.116.034.14-.09-.026-.03.073 0 .125l-.063-.026c.074.058.096.066.106.119-.013.01-.056 0-.035-.016-.044.028.054.048 0 .082l-.036-.029c-.017.038.007.04.05.077.018.03-.038.066-.099.055.035.015.077.05.053.068a.062.062 0 0 1-.04-.022c-.063.051.048.118-.028.139a.101.101 0 0 0-.042 0c.017-.05.032-.09.036-.085-.06-.018-.083.02-.157-.036.037.046.118.13.078.163h-.022c-.008.007 0 .016 0 .027-.014.01-.024.016-.028.028-.051-.01-.04.04-.05.059.067.018.049.04.11.032 0 0-.007 0 0-.021s0-.007 0-.01c0-.014 0-.032.011-.053.028.027.051.052.008.064.04.022.08.047.098.06-.1 0-.166.039-.224.03.018.073-.02.153.092.23.01.022-.042.01-.063.01-.02.002 0-.026-.02-.037.021.046-.019.109.065.14-.053.033-.073-.05-.077.016l-.023-.017c-.14.061.037.187.016.278h-.017v.034a.163.163 0 0 1-.045.029.036.036 0 0 1 .025 0c-.125.127-.025.336-.195.446-.039.035.015.057.049.096l-.074-.013.067.07h-.013v.043c-.047.033-.172.037-.107.125h.052c-.018.025 0 .098-.054.076.007 0 .045.025.016.03l-.036-.012.04.09c-.044.046-.139-.055-.176.021 0 .034.08.118.107.116 0-.011.033-.023.07-.011l.01.033h.014v.253h.05v.175h.064v.03h.052v.087h.051v.039h.064v.087h.052v.088h.064v.038h-.008v.088h.05v.049h.065v.039h.05v.086h.05v.037h.115v.048h.064v.037h.05v.039h.164v.047h.226v.024h.163V34.7h.163v.038h.112v.047h.05v.038h.063v.037h.05v.085h.062v.122h.05v.085h.05v.083h.062v.085h.01v.075h.05v.084h.06v.045h.05v.075h.062v.046h.05v.082h.05v.036h.062v.082h.05v.038h.063v.083h.05v.036h.008v.082h.061v.046h.049v.036h.061v.082h.049v.036h.049v.082h.06v.037h.05v.08h.038v.082h.049v.036h.048v.082h.042v.08h.049v.081h.06v.073h.03v.08h.049v.045h.06v.036h.047v.036h.048v.044h.06v.037h.157v.044h.156v-.044h.156v.044h.06c0 .05-.008.1-.012.15h.049c0 .039-.007.077-.01.115h.06l-.013.157h.049l-.01.113h.107v-.036h.107v-.045h.049v-.034h.106v-.043h.047v-.035h.06l.007-.08h.047v-.034h.047c0-.038.007-.077.01-.114h.06l.012-.158h.047l.03-.346h.048l.054-.637h.063c.025-.278.048-.556.074-.834h.048l.046-.528h.06c.012-.139.025-.277.036-.416h.05c.012-.152.026-.303.04-.455h.049l.038-.417h.06c.014-.157.028-.314.044-.472h.048l.043-.468h.059l.048-.521h.05l.052-.567h.05l.028-.302h.064l.058-.63h.05c.024-.257.049-.515.072-.773h-.055l.098-1.063h-.065l.256-2.78h.067l.189-2.037.025-.022a.279.279 0 0 1 .118-.054.119.119 0 0 0 .07-.032c.014-.014.031-.026.048-.039l.055-.03a.589.589 0 0 1 .119-.04.681.681 0 0 0 .13-.048.553.553 0 0 1 .14-.042c.031 0 .066-.01.1-.014h.03a.212.212 0 0 1 .174-.034c.025 0 .038-.018.054-.04a.18.18 0 0 0-.118.01.416.416 0 0 1-.114.028c-.117.017-.23.047-.34.09a.457.457 0 0 0-.105.058.12.12 0 0 1-.08.03c-.013-.062 0-.139.027-.151.027-.013.014 0 .022.01.009.01.014.017.021 0 .007-.019.014-.021.05 0 0 .027-.018.026-.022.045-.004.02 0 .007.007 0s.036 0 .026-.05c-.01-.05 0-.036.01-.04.01-.004.049-.022.075-.03a.095.095 0 0 1 .085.015.042.042 0 0 0 .054 0s.013 0 0-.03c-.012-.029-.017-.1.035-.052.022-.063.075-.025.108-.055.034-.029.04-.03.063 0 0 .01.015.012.02 0 .019-.041.05-.038.077-.022.028.017.047-.02.074-.02.064-.005.127-.014.19-.027a.695.695 0 0 1 .299 0c.07-.046.149.024.218-.028.01-.008.021-.01.024 0 .015.072.026.034.044 0 .018-.033.032-.014.049-.018.03.051.064.021.094 0a.198.198 0 0 1 .14-.014c.064.017.13.03.195.04.011 0 .027.008.027-.022 0-.029-.014-.012-.023-.012h-.012c-.014-.007-.039.017-.042-.027-.002-.043.023-.077.05-.075.01.003.018.007.027.012 0 .026-.017.008-.016.03.026.02.059 0 .077-.01a.066.066 0 0 1 .07 0c.024.009.048.028.074 0a.024.024 0 0 1 .028 0c.063.071.14.03.206.053.072.008.142.03.206.067 0 .012.007.023.01.036-.035.03-.056 0-.079-.025-.022-.025-.013-.02-.023-.02a1.475 1.475 0 0 1-.19 0 .19.19 0 0 1-.14-.037.055.055 0 0 0-.027-.01c-.04 0-.047.013-.034.071v.036c0 .011.018.038.031.03.012-.006 0-.027 0-.044 0-.016.012-.036.025-.033.072.022.145.04.218.054.047 0 .093.035.14.01.024-.013.048 0 .074.008.777 3.319-1.095 7.144-1.162 10.348-.615 2.003 3.015 5.54 3.764 2.182.35-.788 1.295-1.08 1.837-1.758-.11-.771.335-.564.702-1.05.566-1.101 2.538-1.289 2.43-2.74Zm-3.324-8.74c0 .017-.01.017-.023.015a.059.059 0 0 0 0-.026h-.007l.03.011ZM54.645 31.49c0-.015.01-.017.023-.014a.053.053 0 0 0 0 .025h.007a.135.135 0 0 1-.03-.008v-.003Zm2.038-8.462c-.022-.017-.036-.034 0-.049v.049Zm-.03.022a.102.102 0 0 1 .029 0v.049c-.022-.018-.04-.032-.033-.052l.004.003Zm.014.064h.012v.033c-.029-.005-.043-.015-.016-.036l.004.003Zm-.053-.783a.05.05 0 0 1 .03-.006v.036a.139.139 0 0 1-.034-.032l.004.002Zm.028.865a.049.049 0 0 0 .033.016v.028c-.025-.015-.039-.034-.037-.047l.004.003Zm.054.763v.055c-.09-.016-.036-.034-.004-.058l.004.003Zm-.05.793.012.013v.04h-.01c-.016-.022-.023-.04-.006-.056l.004.003Zm.085-.051h-.07v.023l-.028.025c-.041-.044-.114-.01-.083-.057.008.011 0-.038.061-.051-.026-.022-.054-.044-.028-.07.03 0 .099.017.119.016-.073-.028-.01-.092-.088-.125.024.01.05.015.075.015l-.06-.024c.022-.015.032-.016.07-.01.018-.05-.117 0-.06-.052 0 0 .014 0 .022.015.033-.06-.023-.126.011-.18h.013l-.009.17h.07l-.015.305Zm9.648 5.586a.096.096 0 0 0-.017-.009l.017.009Zm1.071-7.294v-.018c0 .005-.002.01-.004.015l.004.003Zm-.12.556h-.016v-.017l.013.008.004.009Zm-.021.03v-.029c.009.005.017.01.025.018a.033.033 0 0 1-.03.003l.005.008Zm.265-.856-.033.014.008-.023.025.01Zm-3.021-3.172c.029.024.05.01.069-.014.02-.023.013-.01.022 0 .011.04-.02.03-.025.049-.01.048-.041.023-.064.025-.022.001-.025-.028-.037-.045.01-.004.014-.03.035-.015Zm-.244.165c.02 0 .035.01.04.037v.015l-.06.022a.04.04 0 0 0 0-.026.032.032 0 0 1-.002-.03.032.032 0 0 1 .022-.018Zm-.139.05c.014-.013.025 0 .032.014.007.01.01.023.011.035l-.045.014a.127.127 0 0 1-.013-.032c.006-.02.014-.022.02-.03h-.005Zm-.355-.163.087.069c.01.008.022.024.018.036-.01.046.007.117-.036.139-.013-.047 0-.1-.044-.139a.131.131 0 0 1-.02-.105h-.005Zm-.078.173a.052.052 0 0 1 .036.021c-.025.065.02.03.03.047.007.018.02.011.031 0 .011-.01.024 0 .03.024.008.024-.006.03-.013.043l-.054.012c-.04 0-.08-.02-.119-.008 0-.097 0-.097-.058-.13l.117-.009Zm-.163.19c-.039.024-.057-.013-.08-.06-.021-.045-.052-.048-.071.012-.012.032-.021.07-.052.018-.017-.028-.033-.02-.04.015 0 .015-.011.028-.022.018a.047.047 0 0 1-.011-.048c.022-.037.03-.084.065-.107.035-.024.07.01.103 0 .033-.011.075.08.122.083.01 0 .022.035.032.057v.012l-.037.008a.014.014 0 0 0-.003-.008h-.006Zm-1.3 3.217c-.027-.026-.05-.015-.072 0a.015.015 0 0 1-.005.004.015.015 0 0 1-.013 0 .014.014 0 0 1-.005-.004c0-.041.026-.027.032-.044.018-.046.044-.017.068-.015.023.001.02.03.029.048.008.018-.013.034-.03.011h-.005Zm.238-.139h.043a.037.037 0 0 1-.02.01c-.002 0-.006 0-.009-.002a.024.024 0 0 1-.008-.006l-.006-.002Zm.494.192-.078-.082a.044.044 0 0 1-.011-.017c-.003-.006-.004-.014-.003-.02a.442.442 0 0 0 .017-.069h.04a.11.11 0 0 0 .024.08.138.138 0 0 1 .016.11l-.005-.002Zm.1-.161c-.014 0-.034-.022-.034-.025h.124c.01.01.02.018.03.026l-.12-.001Zm.376.015c-.038.02-.068-.02-.102-.01-.035.012-.04-.01-.052-.03h.197a.107.107 0 0 1-.037.042l-.006-.002Zm.484.093a.031.031 0 0 1-.015-.004.031.031 0 0 1-.011-.011c-.017-.04-.046-.046-.074-.06.017-.044.047 0 .058-.04-.012 0-.027 0-.039-.025a.03.03 0 0 0 0-.011l.148-.014.014.049a.293.293 0 0 0-.125 0c.04.029.089.044.139.044l.022.078c-.032.017-.071-.008-.111-.004l-.006-.002Z" fill="#fff"/><path d="M66.69 28.394c.001.004.003.007.006.01a.018.018 0 0 0 .01.004c-.005-.008-.009-.014-.016-.014ZM66.803 28.234a.016.016 0 0 0-.007.01c.007-.003.012-.007.007-.01ZM66.582 29.856l.032.008-.032-.008ZM66.49 30.182c.028 0 .04.012.046.018h.049c.002-.01-.066-.014-.095-.018ZM66.475 30.742l.01.01-.01-.01ZM66.608 29.611h.024a.067.067 0 0 0-.024 0ZM66.933 27.93c.006.014.005.008 0 0ZM67.449 25.056c-.068.018-.064-.07-.139-.037.024.001.096.07.139.037ZM67.013 27.205a.104.104 0 0 0-.03 0c.01.002.02.002.03 0ZM66.826 27.727l.012-.012a.022.022 0 0 0-.012.012ZM66.975 26.902s.007 0 0-.013h-.01s.013.009.01.013ZM67.024 26.617h-.016v.01l.016-.01ZM66.904 27.948a.022.022 0 0 0 0 .012v-.012ZM68.277 21.631h-.016l.02.011-.004-.01ZM66.492 30.47c.026-.01.06-.022.069 0 .076-.068-.06.015-.05-.055a.646.646 0 0 0-.02.055ZM66.55 30.25c.012.028.039 0 .054 0-.025-.017-.032-.022-.054 0ZM66.617 29.042l.06.01c-.005-.023-.023-.002-.06-.01ZM66.776 28.69l.009.011-.018-.039.01.028ZM67.072 26.68l-.076-.009c.011.018.095.038.076.009ZM67.174 25.8c.039 0 .068-.02.035-.043-.009.018-.043.032-.035.043ZM67.942 23.282l-.012-.038-.009.014.021.024ZM56.486 23.674l.01-.01a.016.016 0 0 0-.01.01ZM56.337 24.697a.02.02 0 0 0-.006-.01.02.02 0 0 0-.01-.004c.004.008.008.014.017.014ZM56.225 24.86l.007-.01c-.008.002-.013.005-.007.01ZM56.486 23.674l-.028.025c.027.004.021-.013.028-.025ZM56.446 23.218v-.012l-.033-.009.033.021ZM56.538 22.886c-.028 0-.042-.011-.048-.018h-.048c-.003.011.066.014.096.018ZM56.55 22.32l-.01-.01.01.01ZM54.326 33.442l-.036-.014.036.014ZM56.093 25.165c-.006-.014-.006-.007 0 0ZM55.568 28.076c.068-.02.063.07.139.037-.024-.001-.09-.07-.14-.037ZM56.01 25.901c.01.002.02.002.03 0a.083.083 0 0 0-.03 0ZM56.2 25.372l-.011.012a.022.022 0 0 0 .01-.012ZM56.048 26.207v.014h.009s-.011-.01-.009-.014ZM55.998 26.496h.016v-.01l-.016.01ZM56.122 25.15a.015.015 0 0 0 0-.01v.01ZM54.545 32.322a.016.016 0 0 0-.01 0h.01ZM54.724 31.543v.007h.018l-.02-.011.002.004ZM56.635 24.666c.007-.013.01-.024-.03-.03l.03.03ZM56.63 24.702a.023.023 0 0 0 .005-.008.023.023 0 0 0 .003-.01l-.002-.01a.023.023 0 0 0-.007-.008c0 .011-.008.024 0 .036ZM56.535 22.594c-.027.011-.061.024-.068 0-.078.07.058-.015.048.057l.02-.057ZM56.426 22.818c.024.018.031.022.053 0-.015-.03-.04.001-.053 0ZM56.411 24.04l-.061-.01c.007.024.024.01.061.01ZM56.261 24.425l-.01-.029-.008-.01.018.04ZM55.95 26.432l.076.008c-.017-.018-.094-.039-.076-.008ZM55.81 27.366c.01-.018.044-.03.035-.043-.038.001-.068.02-.034.043ZM55.067 29.871l.011.039.009-.014-.02-.025ZM32.27 22.628c.015.016.033.06.03.01v-.015a.039.039 0 0 1-.03.005ZM32.295 22.623c.012-.012-.01-.037 0 0ZM32.255 22.625h.015c-.007-.005-.011-.007-.015 0ZM94.097 11.054c.4-.34.424-.695.408-1.09-.014-.305-.235-.418-.704-.35-.666.098-1.325.234-1.975.409-.507.139-1.092.139-1.375.497-.013.016-.103 0-.148.007-.339.087-.734.132-1.005.278-.663.344-1.476.296-2.258.321-.708.023-1.426 0-2.135.009-1.06.023-2.115.108-3.178.091-1.785-.028-3.572-.108-5.36-.182a1.686 1.686 0 0 1-.708-.187c-.497-.3-1.154-.253-1.697-.438a.696.696 0 0 0-.358.043c-.36.115-.71.243-1.111.383.028.122.075.239.139.346.424.581.724 1.244.88 1.946.138.567.26 1.111 1.204 1.456a2.348 2.348 0 0 1 1.508-.011l-.467.254.067.067 1.501-.125c.157.257.496.213.827.188.02-.202.03-.306.147-.342a.194.194 0 0 0 .016.048.082.082 0 0 1-.032.08c-.117.077-.084.139.03.212V15c-.054.043-.187-.034-.197.073-.01.108-.064.206-.075.312a.88.88 0 0 1-.298.539c-.03.03-.07.054-.079.097a.09.09 0 0 0 .035.1c.035.024.064 0 .096-.01.118-.031.122-.138.196-.21.026.047.046.1.016.14-.129.152-.101.347-.16.517a.376.376 0 0 0 .024.375c.05.07.01.139-.02.204-.028.065-.063.172 0 .222.1.08.093.17.112.278.046-.057.063-.108.103-.126a.287.287 0 0 0 .07-.04c-.25.696-.557 1.38-.696 2.092l-.07-.02c-.09.495-.278.996-.388 1.493a1.246 1.246 0 0 0-.057.172l-.084-.023c-.08.353-.179.703-.296 1.046-.108.346-.228.688-.353 1.03-.125.342-.258.68-.394 1.017-.531 1.098-.889 2.204-1.296 3.335-.262.667-.433 1.396-.822 1.988-.063.06-.034.185-.11.278l-.071-.02c-.063.06-.033.186-.084.21a.948.948 0 0 0-.196.308c.037-.1.058-.204.065-.309a1.745 1.745 0 0 1-.258.425.03.03 0 0 0-.007.017.068.068 0 0 0 .028.08.066.066 0 0 0 .081-.01.724.724 0 0 0 .037-.074c.14.039.157.199.102.339.035.01.083-.015.12 0-.133.236-.124.51-.397.707-.014.035-.02.149-.033.185a4.795 4.795 0 0 0-.8 1.067c-.315.13-.629.278-.986.424a1.3 1.3 0 0 0 .18.35.475.475 0 0 1 .103.171l-.038.14-.064-.012c-.021.074-.042.139-.064.22l-.08-.014c-.02.073-.043.147-.064.22-.301.25-.685.5-.564.865.193.583-1.05.785-.018 1.074.025.122.292.21.695.278a.488.488 0 0 0-.389.182.31.31 0 0 1-.158.08c-.062.019-.094-.015-.05-.11a.112.112 0 0 0 0-.115l-.263.262-.02.02h-.184l.173.013a.117.117 0 0 0-.02.106c.038.184.163.193.269.244.106.052.099-.03.118-.122.007-.028.045-.043.075-.042l.498.018c.043 0 .079.027.062.103-.036.163.04.172.12.19a.505.505 0 0 0 .4-.025c.068-.043.132.067.168-.023.088-.23.19-.14.278-.102a.863.863 0 0 0 .39.064.433.433 0 0 0 .195-.091c.087-.06.071.129.14.13.027 0 .055.015.08 0 .139-.072.278.035.417-.086.062-.053.07.039.101.076.03.038-.014.074-.018.106-.025.203-.147.106-.224.185.05.092.12.2.19.076.11-.19.23-.175.352-.201.05-.01.126-.01.13-.071.01-.139.057-.104.107-.097.05.007.079 0 .12 0a.895.895 0 0 1 .547 0c-.075.1-.195.01-.252.187l.431-.06a.44.44 0 0 0 .378-.26v-.006l.045-.007.125.007c.03.125.072.198.174.123.044-.032.079-.01.115 0 .311.14.653.034.985.011a1.928 1.928 0 0 1-.383-.1c.514.021 1.045.042 1.588.06l-.03.017.06.054c.013 0 .024 0 .027-.03a.083.083 0 0 0 0-.04h.067c.008.14.11.128.175.147.156.04.327.026.482.068.156.041.295-.049.44-.046a.556.556 0 0 0 .31-.128h.176a.14.14 0 0 0 .153 0c.526.012 1.059.02 1.591.026a.888.888 0 0 0-.101.045c.139.084.265.046.376.07.195.046.398.052.595.019.115-.038.233-.066.352-.084a5.41 5.41 0 0 0 .73-.046c2.78-.019 5.769-.208 7.553-.573.218.07.432.15.671.234.38-.138.695-.237.986-.37.784-.365 1.834-.6 1.794-1.389.009-.17.001-.34-.024-.508-.139-.54-.197-.705-.617-.49-.845.194-.46-1.848-.048-2.252-.04-.382.165-.725.11-1.131-.04-.315.248-.695-.242-.592-.705.16-1.398.36-2.078.603-.526.178-1.145.23-1.414.628-.01.017-.108 0-.154.018-.353.118-.766.198-1.04.366-.672.417-1.53.423-2.364.512-.747.08-1.51.106-2.26.178-1.122.107-2.233.278-3.361.345-.954.057-1.91.099-2.866.139.03-.102.062-.199.099-.293l-.106-.03a.857.857 0 0 0 .22-.555c-.034-.01-.048.025-.082.015.255-.556.237-1.1.458-1.668-.035-.01-.049.027-.083.016.22-.755.249-1.529.399-2.3.203-1.112.625-2.084.834-3.196.082-.47.272-.915.555-1.3.278-.54.544-1.079.526-1.63a3.505 3.505 0 0 1 .148-1.056c.105-.36.17-.73.197-1.102.034.01.104.029.118-.007.155-.89.65-1.647.72-2.522.163.084.19-.181.119-.2.635-.67 1.32-1.29 2.05-1.855l.08.013c0-.016.009-.034.014-.051l.063.011.027-.09c.297 0 .594-.013.889-.03a.266.266 0 0 0 .174-.088c.37.046.593.077.817.098a2.1 2.1 0 0 1 .4.009c.769.26 1.594.286 2.406.36.246.03.497.01.735-.059.324-.13.578-.053.852.056.222.089.434.19.674.296.367-.106.678-.175.954-.278.767-.292 1.77-.442 1.798-1.197.023-.16.03-.324.02-.486a14.119 14.119 0 0 0-.313-1.569c-.145-.465-.198-.936.22-1.292Zm-3.805 25.612.07.013a.907.907 0 0 0 .184 0l.05-.009c.075.011.149.027.221.048l-.786.036c.082-.041.17-.07.261-.088Zm-4.928 0c.397.02.636.036.875.04.14 0 .306-.052.417-.022.111.03.24.054.359.075l-1.807.007a.268.268 0 0 0 .156-.097v-.003Zm-2.485.063h.02a.652.652 0 0 1 .226.055h-.264a.396.396 0 0 0 .018-.053v-.002Zm-.463-.045a3.3 3.3 0 0 0 .19.016c-.064.081-.12.029-.2 0l.01-.016Zm-6.156.51a1.035 1.035 0 0 1-.47-.029l.501.022-.03.007Zm2.421-22.07c-.01.033-.013.09-.079.074-.065-.017-.044-.055-.036-.09.008-.037 0-.08.064-.069a.065.065 0 0 1 .061.059c.001.01 0 .02-.004.03l-.005-.004Zm-.233 1.528-.07-.019a6.564 6.564 0 0 1-.041.158.104.104 0 0 1-.05-.044c0-.008-.04 0-.043.026-.004.027-.014.067-.021.1.037.011.061-.02.094-.01-.05.177-.107.352-.168.526a.188.188 0 0 0-.064-.07c-.029-.025-.044-.056-.029-.084.063-.111 0-.203-.07-.302a.247.247 0 0 1 .044-.354c.086.062.01.139.066.201a.217.217 0 0 0 .071-.228.355.355 0 0 1 0-.175.987.987 0 0 0 .114-.5.159.159 0 0 1 .045-.115.407.407 0 0 0 .13-.356c-.01-.05.048-.07.09-.082.069-.02.046.043.07.067.046.043.114.033.12-.021.018-.167.077-.327.172-.466a.752.752 0 0 0 .088-.23l.091.014c-.187.664-.436 1.317-.633 1.973l-.006-.009ZM110.298 34.575c-.129-.566-.25-1.133-.417-1.69-.152-.497-.251-1.007 0-1.426.252-.418.208-.796.139-1.22-.048-.33-.218-.433-.539-.329-.462.158-.91.355-1.338.59-.341.183-.752.231-.906.644-.007.018-.073 0-.103.02-.228.117-.499.197-.673.37-.417.417-1.002.431-1.55.516-.494.076-1.004.097-1.502.167-.581.08-1.155.2-1.737.278.157-2.55.06-5.099.531-7.643.04-.403.083-.805.122-1.207a25.79 25.79 0 0 0 .139-2.422c.017-.363.039-.724.064-1.086.103-1.442.278-2.873.24-4.307.012-.517.058-1.032.139-1.543.082-.51.134-1.024.156-1.54.061-1.554.385-3.7 1.044-5.08.112-.234.071-.686 0-1-.042-.176-.305-.261-.453-.417-.091-.092-.139-.27-.231-.349a8.79 8.79 0 0 0-.709-.532c-.278-.19-.385.156-.492.292-.254-.168-.464-.417-.654-.417-.479.021-.958.043-1.435.084-.44.082-1.04.056-1.55.168-.51.11-.93.36-1.003.99.417.695-.314 1.537-.089 2.304.093.192.259.417.53.346.467-.153.98-.765 1.39-.305.461.653.072 1.535.337 2.264a.199.199 0 0 0 .192-.038 1.174 1.174 0 0 0-.087.498c.294 1.19.246 2.418.086 3.645.2-.177.453-.284.72-.303-.117.488-.27-.008-.359.35-.239.606-.078 1.251-.21 1.889-.039.342-.09.682-.15 1.024-.18 1.024-.436 2.05-.643 3.064-.074.364-.14.728-.181 1.093-.054.47-.106.944-.163 1.42-.057.475-.115.951-.183 1.426-.304 2.467-.915 4.807-2.49 6.993-.044.06-.085.122-.122.187a2.28 2.28 0 0 1-.539-.106c-.065-.026-.176.028-.246.073-.239.153-.47.318-.738.501.034.127.08.25.14.367a7.61 7.61 0 0 1 .87 2.067c.166.61.326 1.189 1.035 1.5.289-.17.636-.303 1.06-.122l-.296.311.056.068 1.04-.247c.14.268.377.194.608.139-.026-.459-.026-.459.709-.354v.289c.178-.025.344-.037.503-.074.158-.038.314-.103.474-.156.517.476.996.456 1.547-.091.165.036.446.02.515.126.124.186.235.15.369.139.33-.04.664-.08.988-.139a.187.187 0 0 0 .112-.11c.267.023.427.042.588.048.095 0 .202-.052.278-.02.575.228 1.161.196 1.742.217a.834.834 0 0 0 .51-.118c.211-.166.4-.1.607 0 .168.08.329.175.513.278.219-.117.431-.245.636-.384.502-.375 1.19-.613 1.112-1.438a3.801 3.801 0 0 0-.053-.532ZM54.203 17.248h.052c0-.044.01-.088.014-.139h.053l.014-.138h.065l.01-.092h.053l.01-.093h.065c0-.03.007-.061.01-.092h.053l.012-.139h.054l.035-.36h-.053l.02-.185h-.05l.008-.083h-.067v-.051h-.053v-.04h-.12v-.052h-.171v-.042h-.12V15.7h-.118v-.05h-.054v-.041h-.066v-.052h-.053v-.041h-.054v-.042h-.118v-.051h-.12v-.04h-.117v-.041h-.119v-.051h-.17v-.042h-.156v-.052h-.29v.052h-.127v.04h-.053l-.008.093h-.067v.04h-.053v.052h-.065v-.051h-.106v-.042h-.185v-.04h-.105v-.052h-.173v-.04h-.237v.04h-.417v.052h-.338v.04h-.357v.04h-.345v.052h-.292v.04h-.29v.042h-.29v.051h-.291v.042h-.225v.05h-.29v.041h-.274v.04h-.171v.052h-.238v.04h-.172v.052h-.12v.041h-.105v.04h-.12v.052h-.067v.042h-.105v.051h-.066l-.008.082h-.053v.052h-.053v.041h-.065l-.014.14h-.053c0 .047-.01.095-.014.138h-.066v.042h.066v.042h.053v.051h.12v.04h.17v.042h.173v.052h.12v.041h.172v.052h.12v.041h.117v.04h.12v.052h.106v.042h.066v.051h.12v.042h.053v.04h-.073v.052h.12v.041h.065v.052h.053v.041h.04l-.01.092h.067v.042h.053v.051h.053l-.008.082h.066l-.01.093h.053l-.01.092h.068c0 .032 0 .062-.01.093h.053l-.013.139h.053l-.01.093h.067l-.008.082h.052v.052h.05l-.01.091h.053v.04h.053l-.01.094h.067v.04h.053l-.01.093h.067v.042h.053l-.01.091h.053v.052h.065l-.008.082h.053v.051h.065l-.008.093h.03v.042h.238v-.042h.105c0 .045-.008.09-.013.14h-.052l-.012.138h-.053c0 .045-.01.09-.014.14h-.06l-.012.138h.118v.052h.118v.04h.053v.041h.12v.052h.052l-.048.493h.065l-.059.585h.053c-.02.211-.041.424-.064.637h.054l-.06.585h.068l-.027.268h.118v-.042h.053l.01-.092h.053l.018-.184h.066l.027-.267h.053c0-.032.007-.063.01-.093h.065v-.04h.052v-.042h.053v-.052h.12v-.04h.122v.04h-.053l-.018.185h-.066l-.013.14h-.053c-.007.057-.012.116-.018.174h-.067l-.018.185h-.053l-.018.185h-.052c0 .044-.01.089-.014.139h-.066c-.01.102-.02.205-.032.308h.067l-.054.545h-.067c-.008.092-.018.185-.028.278h-.052l-.017.175h-.067l-.018.185h-.057c0 .058-.012.116-.018.175h-.053l-.022.225h-.067l-.04.417h-.053c-.014.139-.028.267-.04.4h-.067c-.008.093-.018.185-.028.278h-.052l-.023.226h-.052l-.027.268h-.066c0 .062-.013.123-.019.185h-.052c-.009.075-.016.15-.023.226h-.066l-.021.216h-.054a11.21 11.21 0 0 1-.023.227h-.053c-.008.093-.017.184-.027.278h-.066l-.027.266h-.053l-.028.278h-.053c-.01.121-.023.24-.036.36h-.065l-.157 1.572h-.053l-.01.093h-.065l-.01.092h-.053c0 .044-.01.089-.014.139h-.052l-.009.093h-.066c0 .044-.009.089-.014.139h-.053l-.018.184h-.067l-.013.14h-.052c0 .058-.013.116-.018.174h-.053l-.018.185h-.067c0 .075-.014.15-.022.225h-.053l-.022.227h-.067l-.017.175h-.052l-.02.185h-.053c0 .06-.012.122-.018.185h-.066l-.017.173h-.053c0 .045-.01.09-.014.14h-.065c0 .031 0 .062-.01.092h-.053c0 .045-.008.09-.014.14h-.053l-.013.138h-.067l-.013.14h-.052l-.009.083h-.066c0 .047-.01.096-.014.139h-.053l-.009.081h-.052c0 .031 0 .062-.01.094h-.065l-.01.091h-.053v.042h-.053v.051h-.065l-.01.092h-.053v.042h-.065v.04h-.076v.051h-.12v.04h-.053v.052h-.066v.042h-.106v.04h-.067v.052h-.053v.041h-.091v.052h-.054v.04h-.055v.042h-.066v.051h-.053v.04h-.066v.042h-.052c0 .03-.007.061-.01.092h-.053v.051h-.065l-.008.082h-.053v.052h-.066l-.01.093h-.052l-.008.082h-.053c0 .047-.01.096-.014.139h-.067c0 .058-.011.116-.018.175h-.053v.051h.053c0 .059-.012.117-.018.175h.067v.04h.052l-.01.094h.053v.051h.119v.04h.004v.04h.105v.052h.067v.042h.171v.051h.118v.042h.173v.04h.172v.052h.172v.04h.118v.051h.173v.042h.172v.042h.118v.051h.118v.04h.173v.052h.12v.04h.052v.042h.12v.051h.118v.042h.054v.051h.118v.04h.067v.042h.052v.052h.053v.041h.067v.04h.053v.052h.067v.042h-.012v.051h.067v.042h.053v.04h.12v.052h.119v.041h.106v.052h.184v.041h.291v.042H50v-.04h.357v-.04h.171v-.052h.12v-.042h.105v-.051h.067v-.04h.12v-.042h.105v-.051h.12v-.042h.118v-.051h.172v-.04h.118v-.043h.053v-.05h.12v-.041h.052l.009-.093h.066l.009-.092h.054l.012-.139h.067l.036-.36h.053l.04-.417h.053l.036-.358h.067l.039-.402h.054l.035-.358h.107l.042-.417h.052l.049-.493h-.053c0-.031 0-.062.01-.092h-.067l.01-.092h-.053l.022-.226h.053c0-.059.011-.117.018-.174h.056l.02-.185h.052l.039-.401h.053l.023-.226h.066l.041-.416h.053l.08-.812h.068l.08-.811h.053c.024-.227.046-.452.068-.679h.053l.054-.544h.067l.053-.534h-.066l.028-.278h-.051l.016-.175h-.052l.02-.185h-.068c0-.075.016-.15.023-.226h-.053l.036-.359h-.061l.09-.904h-.053l.121-1.213h-.053l.055-.544h-.066c.015-.164.032-.328.049-.492h-.053c.02-.212.043-.425.064-.637h-.067l.149-1.49h.067l.27-2.701h-.066l.05-.503h.067l.053-.534h.052l.024-.226h.065l.016-.218ZM48.504 7.781h.05l-.029.278h.049l-.082.813h.061l-.017.16h.049c0 .038-.008.075-.011.111h.07v.05h.047v.049h.048v.062h.109l-.043.431h.048l-.016.161h.06l-.016.16h.049l-.011.111h.06v.049h.047l-.012.111h.05v.063h.059v.048h.047v.05h.06v.061h.047v.05h.049c0 .021 0 .04-.007.062h.02v.05h.108v.048h.03v.063h.049v.048h.108v.063h.06v.049h.097v.05h.062c0 .02 0 .04-.007.06h.108v.05h.049l-.007.062h.108v.05h.047v.049h.109v.062h.048v.049h.109v.05h.048l-.007.06h.11v.05h.109v.062h.047v.05h.108v.049h.035v.062h.157v.049h.157v.062h.156v.05h.217v.048h.108l-.007.062h.108v.049h.048v.062h.048v.049h.062v.05h.048l-.007.061h.017v.05h.049v.061h.048l-.01.099h.06v.061h.049l-.011.111h.06c0 .034 0 .067-.01.099h.049l-.017.161h.048l-.033.332h-.049c0 .054-.01.107-.015.16h-.049v.05h-.06l-.016.172h.108v.05h.05v.049h.108v.063h.058v.048h.047v.063h.109v.048h.108v.05h.108v.061h.048v.05h.108l-.007.062h.108v.05h.266v-.05h.206v-.063h.108v-.049h.108c0-.02 0-.041.007-.06h.156v-.05h.049v-.05h.108c0-.02 0-.041.007-.06h.108v-.05h.055v-.062h.11v-.05h.048v-.05h.061v-.06h.059v-.05h.11v-.062h.048v-.049h.061v-.05h.049v-.06h.061v-.05h.088v-.062h.048v-.049h.06v-.05h.108v-.06h.062v-.05h.048c0-.02 0-.041.007-.062h.06v-.049h.047v-.05h.109v-.06h.048v-.05h.06v-.05h.097v-.06h.061v-.05h.049v-.062h.11v-.048h.048v-.05h.109l.007-.061h.112v-.049h.05v-.063h.108v-.048h.047v-.049h.06c0-.02 0-.042.006-.062h.096v-.049h.06v-.061h.049v-.05h.108v-.049h.049l.007-.062h.06V11.8h.048c0-.02 0-.042.007-.061h.108v-.05h.11v-.049h.06v-.06h.049v-.05h.047l.007-.062h.06v-.05h.047c0-.036.008-.074.011-.11h.061v-.05h.075l.011-.111h.049c0-.036.007-.074.011-.11h.06c0-.033.007-.067.01-.099h.048l.027-.277h.062l.033-.334h-.06c0-.037.008-.073.01-.111h-.047v-.049h-.06c0-.037.007-.075.012-.11h-.049l.06-.593h.047l.017-.16h.06l.016-.16h-.265v-.062h-.217v-.05h-.157c0-.037.007-.074.01-.111h-.048c0-.038.009-.074.011-.111h-.06l.016-.16h-.047c0-.038.007-.074.01-.111h-.048l.015-.16h-.06l.017-.161h-.048l.015-.16h-.06l.011-.111h-.048c0-.038.008-.074.01-.111h-.046l.015-.16h-.06l.022-.159h-.047a11.8 11.8 0 0 1 .022-.22h-.06l.02-.21h-.047c0-.055.01-.107.015-.162h-.042l.007-.06h-.06v-.05h-.05c0-.019 0-.04.007-.06h-.06v-.05h-.05v-.05h-.108v-.06h-.206v-.049h-.373v.049h-.264c0 .02 0 .04-.007.06h-.157v.05h-.157v.051h-.109v.061h-.108v.05h-.111v.063h-.05v.048h-.108v.05h-.048v.061h-.108v.05h-.05v.05h-.108l-.007.06h-.108v.049h-.11v.062h-.415v.05h-.627v.05h-.218v.062h-.205v.048h-.265v.061h-.435v.05h-.266v-.048h-.417v-.061h-.157v-.05h-.176V7.46h-.153v-.05h-.108v-.048h-.157v-.063h-.157v-.048h-.134c0-.021 0-.042.007-.063h-.17V7.14h-.205v-.048h-.146v-.063h-.168V6.98h-.204v-.05h-.142v-.061h-.217v-.05h-.145v.05h-.157v.06h-.06v.05h-.06c0 .037 0 .074-.012.112h-.048c0 .053-.01.107-.016.16h-.064c-.006.07-.014.139-.022.21h.061l-.039.32ZM117.211 36.205h-.04v.02h-.044v.023h-.064v.02h-.068v.026h.025v.02h.044v.019h.039v.025h.058v-.025h.02v-.02h.019v-.02h.025v-.067h-.025l.011-.021ZM117.446 36.25h-.044v.042h-.02v.02h-.025v.02h-.019v.044h.019v.03h.024v-.025h.019v-.02h.02v-.023h.019v-.02h.021v-.044h-.021l.007-.025ZM116.447 36.355h-.089v.02h-.089v.031h-.103v.02h-.023v.02h.025v.024h.019v.02h.001v.019h.063v.025h.076v-.025h.039v-.02h.045v-.019h.025v-.025h.019v-.02h.045l.008-.087h-.064l.003.017ZM115.273 36.437h-.039v.025h.083v-.045h-.043l-.001.02Z" fill="#fff"/><path d="M76.843 37.3a.341.341 0 0 0 .064 0h-.064ZM75.365 37.689a.481.481 0 0 0-.286.237c-.025.038.056.252.092.252s.075-.026.079-.101c0-.124.017-.246.139-.271.02 0 .024-.05.014-.073-.01-.022-.024-.046-.038-.044ZM79.721 38.087a.115.115 0 0 0-.042.121c.013.042.042.032.069.024.075-.024.138-.147.22-.139-.083-.035-.16-.074-.247-.006ZM78.802 37.82c-.079.058-.173.04-.26.16.088.02.182.01.265-.03a.094.094 0 0 0 .038-.093c-.008-.026-.027-.051-.043-.036ZM76.22 37.98c-.058-.023-.089.05-.097.113-.008.064.039.075.08.086a.167.167 0 0 0 .106-.153c.006-.091-.058-.036-.089-.047ZM76.812 38.13c.128.067.13.067.217-.105l-.213.057c-.019.025-.019.039-.004.047ZM81.008 37.7a.265.265 0 0 0 .232-.102c-.137-.036-.137-.036-.232.102ZM77.84 37.318c-.129-.057-.129-.057-.243.075.094-.014.163.03.244-.075ZM71.445 37.21l.246.138c-.066-.13-.07-.132-.246-.139ZM80.331 37.518a.053.053 0 0 0 .046 0 .098.098 0 0 0-.046 0ZM80.38 37.518c.046 0 .1.008.13-.121-.05.035-.088.101-.13.12ZM84.188 37.648c-.03.016-.076.017-.088.092.066 0 .124.024.19-.058a.07.07 0 0 0-.102-.034ZM86.918 37.764a.234.234 0 0 0 .26-.024.256.256 0 0 0-.26.024ZM77.85 37.666c-.033 0-.066 0-.091.081a.138.138 0 0 0 .139-.015c-.003-.04-.02-.064-.048-.066ZM74.216 37.46a.075.075 0 0 0 .053.026c.042 0 .039-.042.035-.08-.005-.037 0-.07 0-.106a.668.668 0 0 1-.06.085c-.028.023-.064.037-.028.075ZM82.65 37.851l-.165.055c.042.054.092.063.164-.055ZM79.358 37.668c.075.018.128.022.182-.053-.058.042-.11-.03-.182.053ZM78.347 37.626a.07.07 0 0 0-.069.08c0 .033.04.034.066.026.026-.008.055 0 .058-.052.003-.051-.028-.054-.055-.054ZM86.216 37.71c-.01.01-.035.026-.04.044-.009.065.033.039.054.042.02.003.04-.017.037-.052-.003-.034-.02-.04-.051-.034ZM86.446 37.493a.045.045 0 0 0-.037.036.044.044 0 0 0 0 .018c0 .027 0 .066.032.046a.114.114 0 0 0 .039-.061c.01-.042-.016-.039-.034-.039ZM71.049 37.393a.055.055 0 0 0-.02.008.055.055 0 0 0-.015.015c0 .052.02.074.054.071.008 0 .018-.02.028-.029-.006-.036-.022-.06-.047-.065ZM70.364 37.346c.058 0 .112.058.184-.023a.139.139 0 0 0-.184.023ZM75.54 37.548c0 .009.017.01.028.016l.066-.06c-.016 0-.03-.02-.045-.018a.054.054 0 0 0-.04.02.052.052 0 0 0-.01.043ZM79.118 37.667c-.018.008-.022.027-.008.036a.075.075 0 0 0 .107-.014c-.024-.05-.061-.032-.1-.022ZM175 35.156v-.045h-.039v-.08h-.031v-.037h-.038v-.08h-.031v-.08h-.031v-.073h-.038v-.08h-.031v-.083h-.039v-.116h-.031l.007-.2h-.03l.014-.362h-.041v-.072h-.03v-.046h-.039v-.037h-.032v-.045h-.032v-.036h-.039v-.036h-.031v-.045h-.038v-.036h-.031v-.036h-.031v-.046h-.038v-.036h-.031v-.046h-.039v-.036h-.031v-.036h-.032v-.082h-.037v-.046h-.031v-.036h-.032v.043h-.038v-.046h-.032v-.036h-.07v-.044h-.031v-.036h-.038v-.037h-.031v-.045h-.07v-.037h-.031v-.044h-.07v-.038h-.039v-.036h-.062v-.044h-.07v-.036l-.069.007v-.046h-.07v-.036l-.069.007v-.036h-.031v-.045h-.069v-.036h-.032v-.036h-.031v-.045h-.069v-.036h-.039v-.044h-.031v-.036h-.031v-.036h-.038v-.046h-.031v-.036h-.071v-.046h-.032v-.036h-.039v-.037h-.032v-.044h-.037v-.036h-.031v.067h-.03v-.037h-.039v-.036h-.07v-.044h-.03v-.038h-.031V31.9h-.039v-.036h-.069v-.035h-.031v-.044h-.069v-.037h-.031v-.044h-.07v-.036h-.03v-.036h-.07v-.045h-.069v-.036h-.031v-.036h-.069v-.046h-.071v-.036h-.07v-.046h-.062v-.036h-.07v-.036h-.069v-.045h-.07v-.036h-.062v-.046h-.07v-.036h-.069v-.035h-.07v-.045l-.101.01v-.038l-.07.007v-.046l-.07.007v-.036h-.063v-.035l-.108.008v-.044h-.063v.082l-.069.007v-.046l-.071.007v-.038l-.07.007v-.036h-.062v-.046h-.07v-.036l-.101.01v-.046h-.07v-.036h-.069v-.038h-.07v-.045h-.069v-.037h-.063v-.034h-.069v-.046h-.07v-.036h-.069v-.046h-.07v-.036h-.062v-.038l-.07.007v-.046h-.069v-.036l-.071.007v-.046h-.031v-.036h-.069v-.036h-.07v-.046h-.062v-.036h-.039v-.046h-.07v-.036h-.062v-.036h-.039v-.044h-.07v-.037h-.061v-.044h-.069v-.038h-.039v-.036h-.063v-.046l-.069.007v-.036h-.07v-.036h-.069v-.044h-.063V29.6l-.108.009v.126l-.1.009v-.037h-.07v-.036l-.1.009v-.045h-.069V29.6h-.061v-.046l-.07.007v-.036h-.039v-.036h-.061v-.03h-.071v-.037h-.032v-.046h-.071v-.036l-.069.007v-.036h-.031v-.046h-.069v-.035h-.039v-.045h-.061v-.005h-.07v-.036h-.069V29.1h-.031v-.037h-.069v-.02h-.07v-.037l-.1.009v-.036h-.071v-.046l-.101.008v-.036l-.139.012v-.036l-.139.012v-.045h-.07v-.036l-.1.008v-.046l-.069.007v-.016h-.07v-.037h-.032v-.045h-.069v-.037h-.07v-.02h-.03v-.036l-.07.007v-.037h-.069v-.046h-.031v-.027h-.069v-.045h-.07v-.036h-.03v-.036h-.031v-.08h-.039v-.117h-.03v-.127h-.038v-.118h-.031v-.072h-.03v-.082h-.039v-.082h-.032v-.08h-.037v-.037h-.031v-.082h-.031v-.036h-.039v-.046h-.03v-.082h-.039v-.036h-.031v-.036h-.03v-.044h-.039v-.081h-.031v-.036h-.03v-.036h-.039v-.045h-.031v-.034h-.039v-.046h-.03v-.037h-.032v-.036h-.039v-.044h-.032v-.036h-.039v-.036h-.031V26.7h-.03v-.037l-.139.012v-.044h-.07v.046l-.139.01v.131h-.069l.01-.278h-.038v-.072h-.03v-.046l-.17.014v.046h-.071v.058h-.03v.037h-.031v.045h-.039v.037h-.031v.044h-.037v.036h-.063v.036h-.039v.046h-.03v.036h-.039v.045h-.031v.036h-.03v.036h-.039v.044h-.031v.078h-.039v.036h-.03v.045h-.031v.036h-.037v.082h-.032v.036h-.039v.046h-.031v.036h-.03v.08h-.039v.037h-.032v.08h-.031v.082h-.039v.082h-.03v.118h-.038l-.008.198h-.031l-.007.2h.031v.117h-.031v.081h-.032v.082h-.039v.073h-.03v.046h-.039v.082h-.031v.072h-.03v.044h-.038v.08h-.03v.073h-.039v.082h-.031v.046h-.032v.074h-.037v.082h-.031v.034h-.039v.082h-.03v.046h-.031v.072h-.039v.046h-.03v.132h-.039v.082h-.031v.036h-.03v.046h-.038v.036h-.031v.082h-.03v.037h-.039v.045h-.031v.053h-.039v.045h-.03v.037h-.07v.036h-.03v.045h-.02c-.033-.099-.139-.17-.328-.203 0-.01 0-.02.011-.028.526-1.473.301-10.379.445-10.838.591-2.49-.953-9.071 1.739-11.106 1.059-.751 7.409 2.953 5.025-.329-1.838-2.493-4.127-3.784-5.341-4.784-.404-.334-.343-1.129-.664-1.352-.528-.37-.985-.31-1.39.082a.093.093 0 0 0 .007-.016l-.007-.036a.583.583 0 0 0-.019.071 4.543 4.543 0 0 0-.128.14c-.013-.038-.024-.079-.035-.119-.041.05-.078.105-.111.161a.226.226 0 0 1-.104.113c.069.032.094 0 .118-.052.024-.051.051-.107.101-.116l.03.015a3.968 3.968 0 0 0-.519.9c-.012-.016-.032-.026-.069 0v.014a.41.41 0 0 1-.174.045.941.941 0 0 0 .204.025 9.515 9.515 0 0 0-.253.676h-.019a.05.05 0 0 0 0 .048c-.009.023-.015.048-.024.073a.813.813 0 0 0-.445-.076c.034.012.064.022.085.101.052-.01.154-.116.203-.04.008.097-.054.061-.11.092.093-.007.103.107.196.153l-.039.132-.1-.01.073.044.025-.026-.03.103-.087.278a.057.057 0 0 0-.038 0v.051c-.1.026-.091-.117-.15-.064-.041-.079-.115-.175-.036-.257l.128.013c-.033 0-.085.036-.067.07-.015-.05.207-.097.068-.175l-.105.045c-.039-.08-.139-.197-.073-.271-.139 0 .007.022-.154.046.184 0-.06.197.111.178-.154.023-.09.087-.247.139.042 0 .086-.012.044.054a.18.18 0 0 1 .031.023.155.155 0 0 1 .072-.02c.082.055.046.165.082.212-.032.036-.041-.028-.091-.014l.055.071c-.09-.014-.18.08-.206-.03l-.029.087c-.065.042-.107.11-.08.161-.031.04.072.124.011.075l.018.148h-.022c-.048.139.077.304-.125.433a.206.206 0 0 1 .013.089.198.198 0 0 1-.029.085h-.082c.013.062-.121.165-.044.203-.228.034-.11.278-.17.378l.103.016a.418.418 0 0 0 .017.235h.093c.061.084-.106.186-.12.307-.033-.01-.018-.04 0-.06-.236.121.092.317-.083.431.028.036.011.059-.017.08a.009.009 0 0 0 .002-.005.009.009 0 0 0-.002-.005v.014c-.018.012-.039.025-.057.04a.2.2 0 0 0 .057-.033.24.24 0 0 0 .017.102h-.101a.016.016 0 0 0 0 .01c-.044.032.041.033.119.021.014.021.031.04.051.054-.165.015.037.102-.139.127.073.029.037.168.167.215-.026.039-.053.08-.009.12h-.131l.156.102c-.088.049-.139.068-.224 0 .126.14.039.11.168.232l.153.014c0 .04.096.111.023.13-.072.02-.108.15-.139.279a.833.833 0 0 1-.138.382c.248-.03-.124.1.062.12-.06.01-.096.041-.139 0 .039.119-.117.17.029.26-.06.01-.08-.03-.117-.019.012.01.045.04.009.05-.036.011-.045-.02-.067-.04-.008.12.166.139.331.158-.088.056-.082.088.021.14-.057.019-.118.05-.128-.024-.014.041-.114.251.019.26-.036.013-.018.06 0 .07a.634.634 0 0 0-.033.194l.025-.025c.156.043.026.077.035.152h-.016c-.139.166.045.075-.108.238h.102c.212.02-.139.139-.076.243l.062-.033c.066.055-.31.139-.344.194-.019.011-.027-.02-.039-.036-.139.14.128.021.139.127-.073.016-.176-.03-.198.04-.062.035.204.208.058.302.057-.021.114-.04.149.008.011.075-.228.197-.064.267a.081.081 0 0 1-.045.012c.039.057.055.185.139.221-.351.047.13.353-.19.348v.165h-.032c-.033.111.039.151.111.19-.024.027-.051 0-.068 0-.081.163-.069.18.076.316l-.105.013c.057.038-.186.235-.081.395a.081.081 0 0 1-.044-.018c.104.18-.328.43.043.495l.08.118c.045-.154.163.02.231-.042.017.06-.128.156-.139.082l.02-.012c-.195-.025-.088.19-.221.187-.017.302-.153.596-.185.878l.157-.034-.018.097c-.038.026-.123.038-.11-.033-.09.039.063.116.096.118-.074.139-.174-.052-.181-.009v.057l.02-.014c.058.046.125.05.109.14-.034.054-.097.029-.104.05-.011 0-.016 0 0 .031l-.023.124.125-.051c.054.054-.017.116.125.057-.218.087-.113.462-.182.515a.23.23 0 0 1 .057.246c.026-.025.164-.042.139.04-.278-.023-.139.14-.326.216.116-.035.009.232.199.139-.028.068-.105 0-.175.06.096.157-.097.355-.074.555.037 0 .095-.033.139.009l-.191.11c.015.038.211.03.077.105.032-.011.08-.028.089 0-.205.396.094.79-.268 1.2.074-.058.079-.022.079.019.02-.028.092 0 .139-.01l-.15.17c.139.026 0 .179.131.19l-.021-.052c.098.022.2.007.288-.043 0 .107-.01.164-.01.164l-.368-.023a.032.032 0 0 1 .016-.011l-.058.008c-16.889-1.098-7.302-4.61-13.214 11.501-5.977 3.98-3.521-1.009-2.202-4.227.018-.492-.201-1.317.355-1.585 1.022-1.173-.139-2.78 1.035-3.824 4.183-2.674-6.649-2.918-7.352-1.97 4.015 1.907 2.641 9.265-1.347 12.77-2.085 1.836-4.614 1.083-3.565-3.156.471-.378-.504-1.01.032-1.232.808-.33-.072-1.09.445-1.604-.31-.748.684-1.729.182-2.156.794-3.223 2.224-6.3-3.83-5.367-.523.266-.166.775.287.935 1.048 1.121-2.033 2.702-4.15 2.85v-.027c.401-.107.622-.499.654-1.147.03-.617-.066-1.251.095-1.851a.191.191 0 0 0 0-.112c-.204-.277.026-.47.067-.746l-.621-.633c-.318.12-.628.304-.949.344-.601.075-1.207.063-1.807.098-1.063.06-2.126.138-3.197.188-.497.028-.995.034-1.494.052-.13 0-.261.022-.393.023-.607 0-1.215.13-1.825-.058-.062-.02-.158-.051-.19 0a.396.396 0 0 1-.291.19 1.992 1.992 0 0 0-.164-.138l-.186.058c-.046-.017-.09-.033-.139-.044-.356-.1-.718-.202-1.074-.33a.526.526 0 0 0-.506.025c.139.709-.189 1.424.107 2.122a6.4 6.4 0 0 1 .417.454c-.178.81-.389 1.602-.62 2.392a6.643 6.643 0 0 0-.202.88c-.139.955-.248 1.918-.417 2.869-.194 1.111-.537 2.194-.511 3.335 0 .105-.033.21-.04.317-.048.614-.091 1.23-.139 1.845-.031.417-.05.842-.091 1.262-.059.612-.151 1.222-.191 1.835-.021.165-.005.332.044.49h-.022l.211.548v.04h-.024v.024h.025v.02h.02v.023h.019v.04h.035v.024h.02v.04h.025v.024h.019v.044h.02v.02h.025v.02h.019v.024h.011v.02h.02v.023h.062v.021h.127v.043h-.02l-.017.173h-.033v.043h.063v-.024h.128v-.02h.386v-.019h.151v-.023h.088v-.02h.083v-.036h.139v-.02h.148v-.019h.107v-.023h.097v-.02h.083v-.025h.056v-.02h.043v-.019h.044l.01-.108h-.023l.012-.132h-.019v-.04h.107v-.023h.128v-.02h.025v.02h-.024v.024h-.039v.02h-.024v.044h-.019l-.007.064h.019v.02h.088v.024h.083v.02h.088v.019h.107v.025h.062v-.025h.034v-.02h.019v-.019h.024v-.025h.019v-.02h.02v-.023h.057v-.02h.023v-.019h.02v-.025h.019v-.02h-.039V36.4h-.044v-.025h-.107v.025h-.064v.02h-.044v.02h-.109v-.02h-.044v-.021h-.028v-.024h-.043v-.02h-.02v-.024h.02v-.02h.025v-.02h.019v-.024h.025v-.02h.064v.02h.049v.025h.324v-.024h.19v.025h.02v.063h-.02v.044h-.021v.04h-.025v.044h-.019v.044h-.025v.043h.023v-.023h.084v-.02h.108v-.025h.132v.025h.084v.018h.068v.025h.039v.02h.064v.019h.069v-.02h.017v-.019h.043v-.025h.044v-.02h.128v-.023h.202v-.02h.083v-.019h.045l.02-.215h-.009v-.064h.171v.02h.043v.019h.019v.044h.024l-.014.152h.062v.02h.128v.023h.088v-.024h.019v-.04h.016v-.045h.025v-.044h-.025v-.02h-.235v-.044h-.02v-.044h.278v-.02h.045v-.025h.019v-.02h.045v-.024h.108v-.02h.128v.021h.107v.024h.089v.019h.192v-.02h.044v-.026h.043v-.02h.02v-.019h.139v.02h.039v.02h.07v.024h.02v.02h.108v-.02h.011v-.064h.02v-.044h.062v-.024h.089v-.014h.064v-.02h.064v-.024h.043v.044h.025v.02h.041v.025h.025v.02h.019v.023h.021v.02h.044v.019h.025v.023h.014v.02h.02v.025h.025v.02h-.024v.019h-.021v.044h-.019v.025h.019v.02h.045v.02h.044v.023h.02v-.024h.019v-.039h.011v-.025h.02v-.044h.023v-.04h.02v-.023h.019v-.044h.025v-.02h.045v.064h.019v.043h.02v.045h.025v.02h.019v.024h.02v.04h.023v.024h.045v.02h.019v.023h.021v.02h.045v.02h.063v.023h.07v.02h.108v.02h.109v.024h.076v.02h.088v.023h.089v.02h.04v.019h.025v.043h-.025l-.008.089h.087v-.025h.045v-.02h.044v-.01H119v-.025h.171v.024h.083v.02h.069v.02h.601v.025h.128v.02h.306v.025h.19v.02h.088v.019h.064v.025h.064v.02h.069v-.02h.148v.02h.417v-.02h.126v-.025h.151v.025h.064v.02h.045v.024h.043v.02h.039v.02h.068v.023h.083v.02h.127v-.02h.068v-.025h.019v-.02h.045v-.044h.019v-.02h.064v.02h.07v.025h.039v.02h.068v.019h.046v.025h.236v-.024h.064v-.02h.025v-.019h.019v-.025h.02v-.02h.023v-.024h.03v-.02h.043v-.02h.044v-.023h.052v.063h.02l-.007.07h.02v.019h.539v-.063h.025v-.044h.02v-.045h.019v-.044h.024v-.064h.034v-.045h.02v-.038h.025v-.045h.019v-.044h.109v-.02h.105v-.023h.084v-.02h.025v-.02h-.024c0-.058.022-.152.035-.21.222-.622.399-2.01.225-2.42.072-.2.129-.425.209-.686-.06-.18-.119-.338-.167-.505a.907.907 0 0 1 0-.649 1.65 1.65 0 0 0 .071-.562c-.013-.619 0-1.251-.139-1.826a1.837 1.837 0 0 1 .011-.306c0-.17-.015-.339-.029-.62a.252.252 0 0 0 .066-.139c.038-.358.062-.72.085-1.08.01-.138.032-.269-.082-.37-.065-.059-.055-.362-.078-.533.332-.672.344-1.188.053-1.667.033-.18.071-.353.095-.532.023-.18.029-.354.044-.548l-.175.05c-.064-.751-.065-.768.196-.808l.069.694c.948-1.37 3.71 1.141 4.181 1.99-.061 1.47-2.264 3.81-.934 5.015a4.617 4.617 0 0 1-1.27 3.08c-.76.808.532 2.694 2.749 3.54 1.057.404 1.581-1.1 2.64-1.25.241-.21-.321-.772.215-.834 2.072.22 1.153-1.668 2.037-1.43.586.155 1.154-1.216 1.529.622l.071.093c3.256 4.308 3.817 3.057 6.293-.277 2.501-1.464.187-1.4 2.878.38.745.531.257 1.103 1.366 1.058 1.865.883 2.022-.007 3.601-.31 1.398.314 2.879-.512 4.185-.988 2.454-1.037.834.43 1.686 1.355 1.99 4.234 3.422 3.697 5.134 2.285l.01.009.023.02v-.045h.031v-.036h.039v-.045h.03V37.85h.031v-.045h.037v-.036h.032v-.044h.031v-.036h.039v-.035h.03v-.046h.039v-.037h.031v-.046h.03v-.036h.039v-.036h.07v-.046h.03v-.036h.032v-.045h.038v-.036h.069v-.036h.031v-.046h.031V37.1h.038v-.044l.071-.008v-.036h.032v-.036h.031v-.044h.039v-.038h.062v-.046h.038v-.036h.03v-.036h.039v-.044h.062v-.036h.038v-.037h.031v-.045h.039v-.07h.062V36.5h.039v-.036h.031v-.036h.039v-.046h.062v-.036h.038v-.046h.031v-.037h.069v-.037h.031v-.045h.039v-.036h.031v-.045h.07v-.037h.031v-.035h.038v-.046h.032v-.036l.07-.007v-.045h.03v-.036h.039v-.035h.031v-.11h.031v-.037h.037v-.036h.032v-.046h.039v-.036h.031v-.044h.03v-.038h.039v-.036h.031v-.044h.037v-.037h.032v-.063h.031v-.037h.039v-.036h.03v-.066h.071v-.037h.031v-.045h.069v-.036h.039v-.035h.061v-.046h.038v-.036h.062v-.046h.039v-.036h.07v-.036h.03v-.046h.07v.044l.24-.02v-.045h.063V34.7h.069v-.1h.039v-.036h.031v-.036h.03v-.045h.07v-.036h.039v-.036h.062v-.046h.039v-.036h.063v-.045l.069-.007v-.036h.07v-.036h.069v-.046l.102-.008v-.036l.95-.082h.071v-.046l.442-.038v-.036l.302-.026v-.036l.278-.024v-.044l.271-.024v-.036l.269-.024v-.044l.341-.03v-.035l.278-.024v-.078l.269-.023v-.046l.278-.023v-.047l.239-.02v-.047l.202-.016v-.036l.24-.021v.036l.139-.011v.044l.1-.008v.036l.071-.007v.05l.1-.008v.036h.07v.035h.061v.044h.071v.036l.1-.008v.044h.069v.037l.1-.009v.036h.07v.045l.101-.009v.037l.1-.009v.045h.07v.036l.101-.009v.037l.109-.01v.046l.101-.01v.036l.1-.008v.046l.132-.013v.036l.109-.008v.036l.139-.011v.044l.101-.008v.036l.109-.01v.037h.061v.046l.108-.01v.004l.102-.008v.045h.061v.037l.108-.01v.036h.063v.046l.069-.007v.037l.1-.01v.047h.07v.034h.069v.036h.07v.046l.101-.01v.037h.07v.044h.069v.036h.061v.038l.07-.007v.046l.071-.007v.036l.101-.008v.045l.07-.007V34.6h.069v.036h.063v.046l.069-.007v.037l.071-.007v.034l.1-.009v.038h.07v.036h.069v.044h.07v.037l.101-.009v.036h.061v.046l.109-.01v.037h.062v.046l.11-.01v.036h.061v.036l.109-.008v.044l.1-.008v.036l.101-.008v.007l.1-.009v.036h.07v-.037l.033.01Zm-16.803-19.792.028-.02c.025.037 0 .026-.028.013v.007Zm-38.58 17.677c-.288-.096-.653-.164-.862-.285-.383-.224-2.543.139-2.583.154-.103-.011-.66-.017-1.179.008.057-.066.114-.139.173-.197a.861.861 0 0 0 .157-.49 5.66 5.66 0 0 0 .008-.834c-.014-.261-.06-.523-.089-.784a2.869 2.869 0 0 1-.026-.307c0-.864 0-1.729-.016-2.593 0-.458-.018-.92-.065-1.376-.06-.593.261-1.188 0-1.777 0-.01.025-.027.029-.044.142-.592.281-1.185.417-1.779.02-.08.067-.175.042-.237-.168-.408-.111-.834-.075-1.244.264-.054.532-.107.809-.166.015-.036.052-.138.077-.194.289.006.578-.006.865-.036.305-.068.605-.152.901-.254l.091-.2c.12.048.243.085.369.11.3.028.6.038.902.059.247.018.496.092.722-.139.061-.064.175-.026.266-.026.406 0 .813-.053 1.214.008a.949.949 0 0 0 .106.01c.002.277.053.551.152.81.067.17.099.352.093.535-.028 1.362-.053 2.725-.113 4.087-.035.811-.139 1.618-.199 2.43-.04.542-.052 1.09-.098 1.63-.05.599-.055 1.218-.31 1.735a4.683 4.683 0 0 0-.225.778c-.01.034 0 .102-.012.112a.959.959 0 0 0-.241.455c-.291-.093-.648.257-1.3.04Zm4.94-10.67v-.03.038-.007Zm6.364 9.994c-.057-.116.264-.2.316-.096.053.105-.261.217-.316.096Zm25.612-1.1c-1.224.524-7.833 1.883-8.117.485.897-.263-.278-2.44.492-2.818.694-.268.139-1.123.514-1.734.108-.823-.355-1.39.19-2.449.492-.85-.196-2.404 1.154-3.196 1.497.184 4.895.488 5.453 1.279.465.095 1.471-.79 1.593.079-.017 2.883.417 6.043-1.279 8.354Zm1.724-8.157c-.366-.151.442-.74.475-.237a.49.49 0 0 1-.475.237Zm.96-13.52-.036-.015.033.03v.027a.884.884 0 0 0-.097.043l-.054-.123c.025-.012.068 0 .121.023a.221.221 0 0 0-.029-.023.114.114 0 0 1 .073-.02l-.011.058Zm.473-4.898c-.047.044-.027.034 0 0Zm-.441 3.057.034.01c-.021-.003-.034.005-.032-.013l-.002.003Zm.203.326-.171-.086c.061.01.122.015.184.014l-.013.072Zm.177-.972a.609.609 0 0 1-.262-.188l.073-.018-.059-.103c.071.033.174.089.278.15l-.029.145-.001.014Zm.157-.783-.157-.016.154.032c0 .033-.014.068-.022.101a1.228 1.228 0 0 1-.278-.051c.082-.067.173-.122.269-.164a.189.189 0 0 1 .049 0c.001.02-.007.055-.014.09l-.001.008Zm.089-.404a.228.228 0 0 1-.073-.085.226.226 0 0 0 .092 0l-.018.077-.001.008Zm.194-1.03c.029.035.04.097 0 .122a.098.098 0 0 0 .035-.023c-.036.139-.071.268-.106.407a.443.443 0 0 1-.203-.242c-.015-.114.123-.026.103-.05.085-.193-.251-.225-.082-.37.128-.045.216.04.299.04.015.094-.106.119-.118.179l.072-.063Zm.377-1.045a.058.058 0 0 1-.002-.039.061.061 0 0 1 .023-.032l-.021.071Zm.328-.921c0-.014-.034-.036-.01-.061a.032.032 0 0 1 .017-.005c.006 0 .011.002.016.005a.48.48 0 0 1-.023.061Z" fill="#fff"/><path d="M162.04 1.376c.04 0 .029-.085.036-.102-.074.028-.033.124-.036.102ZM160.714 2.072h-.019a.19.19 0 0 1-.036.041c.055.021.004.08.055-.041Z" fill="#fff"/><path d="M160.695 2.073c.032-.049-.06 0 0 0ZM160.57 2.301v-.087c-.037 0-.08.044-.085.01-.021.08.016.083.085.077ZM160.624 2.37c-.016 0-.025 0 0 .042v-.041ZM160.629 2.333c.032.028 0-.007 0-.05v.087c.02.005.06.028 0-.037ZM160.672 2.258c.05-.015.096-.045.095.04.064-.118-.028-.164-.095-.04ZM160.393 2.608c-.031.013-.071.047-.114.03a1 1 0 0 0 .122.03l-.008-.06ZM160.401 2.668l.013.088c.036-.056.019-.077-.013-.088ZM160.74 2.525l.012-.021a3.598 3.598 0 0 1-.027-.16c.004.061.008.123.015.18ZM160.147 2.89l-.047-.065.065.108-.018-.043ZM160.08 3.057c-.043-.049-.109 0-.13-.04a.245.245 0 0 0 .046.157c-.007-.04.016-.078.084-.117ZM159.995 3.18c.007.029.02.056.039.08a.405.405 0 0 0-.039-.08ZM160.343 2.858a.137.137 0 0 0-.106.016l.092.01.014-.026ZM160.333 2.883a.473.473 0 0 1-.03.052l.03-.052ZM160.347 2.851v.007c.006 0 .009 0 0-.007ZM160.715 2.747c-.037-.053-.098-.03-.13-.12.019.06.025.152.13.12ZM160.444 2.768l.017.097.053-.058c-.021-.008-.057-.011-.07-.039ZM160.469 2.908c0-.014 0-.029-.008-.043l-.019.021.027.022ZM160.162 3.17a.14.14 0 0 1 0 .114.405.405 0 0 0 .075-.109c-.022-.015-.059-.048-.075-.005ZM160.246 3.032v.008c0 .002.016-.002 0-.008ZM160.257 3.174c.029-.022.016-.047 0-.074a.215.215 0 0 1-.017.075c.006.007.017.01.017-.001ZM160.032 3.374a.392.392 0 0 0 .066-.036c-.033.007-.086.023-.066.036Z" fill="#fff"/><path d="M160.246 3.04a.093.093 0 0 1-.028 0c.008.021.018.04.032.059a.164.164 0 0 0-.004-.059ZM160.096 3.513v-.03a.31.31 0 0 1-.139.063.128.128 0 0 0 .069.086l.063-.132.007.013ZM160.336 3.474c.026-.08-.047-.08-.064-.139-.032.139-.03-.053-.115.025a.186.186 0 0 1 .007-.078.451.451 0 0 1-.066.054h.012l.029.017c-.032.032-.024 0-.029-.017h-.012l-.008.14a.267.267 0 0 0 .052-.124c.079.057.087.133.194.122ZM160.475 3.14l-.007.12.095-.025-.043-.014c.043-.053-.016-.06-.045-.08ZM159.975 3.64l-.084-.041.102.1-.018-.06ZM159.934 3.785l-.076-.028.033.052.043-.024ZM159.08 7.241c-.085.039-.213.08-.12.083l.092-.007a.07.07 0 0 1 .001-.042.065.065 0 0 1 .027-.034ZM159.535 5.236a.23.23 0 0 0-.077.092c.062-.04.148-.067.077-.092ZM158.497 11.61a.074.074 0 0 0 .022.02c.009.005.02.008.03.008a.05.05 0 0 0-.022-.023.048.048 0 0 0-.03-.005ZM159.458 5.328c-.048.029-.08.066-.028.115.01 0 .017-.013.025-.018a.148.148 0 0 1 .003-.097ZM157.957 18.774a.164.164 0 0 1 0-.054c-.011.01-.011.026 0 .054ZM159.709 4.345c0-.03-.008-.007 0 0ZM160.134 4.308ZM159.724 4.342a.202.202 0 0 0 .038-.033.18.18 0 0 0-.038.033ZM159.719 4.308a.233.233 0 0 0 .017-.025c-.013-.009-.024-.007-.017.025ZM159.709 4.345c0 .01 0 .022-.008.043a.114.114 0 0 1 .023-.046s-.013.006-.015.003ZM159.819 4.044c-.019 0-.049 0-.054-.013v.064c.008-.033.033-.039.054-.051ZM160.107 4.044c.082.015.066-.03.068-.08-.114-.034-.095.023-.068.08ZM160.185 3.911c-.044-.016-.016.014-.013.042a.063.063 0 0 1 .013-.042ZM159.745 4.46c.028-.019-.1-.037-.062-.043-.097-.045.082.169.062.042ZM160.194 4.404l.049-.064a.034.034 0 0 1-.018-.01.038.038 0 0 1-.01-.017c-.017.042-.051.085-.021.09ZM160.217 4.252a.126.126 0 0 0 0 .061.064.064 0 0 0 .007-.03.064.064 0 0 0-.007-.031ZM159.959 5.158l.01.082c.032.014.06 0 .053-.035-.007-.035-.026-.053-.063-.047ZM157.829 18.997l-.049.062.074-.042-.025-.02ZM16.06 14.8c-.086.314-.244.61-.329.923l-.108.485c0 .051 0 .104.061.082.061-.023.165-.09.164-.16 0-.171.108-.325.11-.499a.822.822 0 0 1 .154-.44 1.3 1.3 0 0 0 .225-.517.848.848 0 0 1 .14-.345c.08-.134.144-.276.192-.424.094-.173.158-.361.19-.556.024-.172.092-.334.198-.472.093-.139.097-.293.2-.417 0-.22.14-.417.224-.604.128-.333.277-.658.445-.973a.266.266 0 0 0 .054-.236c-.23.103-.399.22-.406.522a.519.519 0 0 1-.189.364c-.182.159-.182.403-.207.595a.746.746 0 0 1-.183.466c-.126.132-.171.32-.294.453 0 .215-.139.416-.168.626a.38.38 0 0 1-.117.245c-.064.058-.148.151-.139.22.045.202-.048.36-.168.523a.408.408 0 0 0-.05.14ZM14.639 16.855a.075.075 0 0 0 .055-.027 8.895 8.895 0 0 0 .39-.909c.11-.245.204-.498.277-.756-.086.09-.157.193-.208.307-.172.386-.352.768-.52 1.156a.306.306 0 0 0-.037.186.057.057 0 0 0 .043.043ZM14.341 18.253c-.015.14-.091.278-.102.417 0 .064.036.092.098.037a.242.242 0 0 0 .09-.115c.074-.181.119-.374.13-.57-.103.069-.206.155-.216.231ZM17.27 11.079a.088.088 0 0 0-.069.062c-.055.196-.172.381-.198.584a.157.157 0 0 0 .02.139 5.4 5.4 0 0 0 .215-.417c.044-.099.102-.182.058-.278-.01-.035.033-.094-.026-.09ZM16.233 13.047c.15-.317.343-.591.346-.938-.217.333-.38.757-.346.938ZM17.057 10.991a2.641 2.641 0 0 0-.306.685c.217-.182.235-.215.417-.713a.088.088 0 0 0-.11.028ZM17.64 10.631c.03-.082.053-.167.07-.254 0-.008-.01-.022-.02-.026s-.04.007-.055.027a1.565 1.565 0 0 0-.147.356.157.157 0 0 0 .151-.103ZM16.539 12.832a.913.913 0 0 0 .175-.441c-.159.151-.148.303-.175.441ZM14.444 17.655c.035-.116.103-.194.098-.315-.112.146-.113.146-.098.316ZM16.226 13.641c0-.008-.025-.015-.034-.01-.062.046-.055.109-.055.188.061-.063.103-.111.089-.178Z" fill="#fff"/><path d="M24.739 9.595c2.275-.182 5.299.877 7.44-.302 1.415-.278.797-2.427 2.21-2.732-.06-3.116 3.143-4.278 5.255-6.561-4.226.923-9.65 1.847-15.167 2.189a4.804 4.804 0 0 1-2.23-.383l-.048-.02-.139.057v.044l-.139.011v.047l-.26.02v.046l-.277.022v-.046h-.062v-.101h-.076v-.102h-.061v-.101l-.077.007V1.6l-.197.015-.008.339h-.061v.055l-.278.023V2l-.14.011v-.044h-.06v-.045h-.062v-.101h-.076v-.146h-.061v-.057h-.077v-.045l-.198.016v-.057l-.673.054v-.045l-.399.032v.045h-.061v.055l-.077.007v.102h-.06v.046l.138-.011v-.012l.398-.03v.044l.139-.01v.1l-.14.012v.044l-.138.011v-.044l-.199.015v-.055l-.199.015v-.045l-.139.012v-.046h-.06v-.057l-.14.01v-.045l-.076.007v-.057l-.123.01v-.045h-.075v-.046l-.122.011V1.56h-.076V1.53h-.062v.045h-.076v.057h-.061v.046h-.061v.045h-.077v.084l-.139.012v.044l-.458.038v-.046l-.14.01v-.058l-1.068.085v-.044h-.077v-.04h-.06v-.058l-.14.012v-.045l-.139.011v-.046h-.06V1.64h-.077v-.045h.076v-.101h.061v-.045l.077-.007V1.38l-.612.048v.148l.14-.011v.057l.198-.017V1.9l-.278.022v-.046l-.734.058v.042l-.417-.053-.058.018v-.025l-.123.01V1.88h-.076v-.045h-.061v-.057h-.076v-.084h-.06v-.147l-.199.017v-.036l-1.911.151v-.057l-1.668.139v-.045l-.81.064v-.044l-.336.026v-.057l-.278.023v-.045l-.324.021v-.057l-.596.049v.055l-.14.011v.043l-.138.012v.055l-.121.01v.046l-.14.01v.045h-.076v-.039l-.122.01v-.044l-.215.016V1.87l-.121.01v-.044l-.14.01v-.053l-.197.013v-.045l-.139.01v-.045l-.139.01v-.055l-.139.011v-.045l-.122.01V1.6l-.139.01v-.045h-.075v-.037h-.061v-.056h-.061v-.045h-.077V1.39h-.06v-.044l-.077.007v-.045h-.061V1.25l-.18.022v.055l-.813.062v-.053l-.26.02v-.044l-.214.017v-.046l-.122.011v-.057l-.133.013v-.048l-.14.011V1.16h-.06v-.04l-.14.01v-.045H2.35v-.056h-.061V.994l-.14.01V.949h-.062v-.04h-.076v-.04H1.95V.813h-.061V.777H1.81V.72H1.75V.686l-.04.009V.593h-.077V.556H1.57V.5h-.076V.46h-.061V.417h-.061V.36h-.077V.328l-.139.011V.295l-.122.01V.246l-.2.018V.22L.71.23v.048H.635v.057L.496.346V.39H.435v.046H.372v.12H.293v.046H.232V.76H.155l-.016.352h.075l-.007.35h.061l-.008.35-.214 1.667h.07c-.154.352-.16.787.014 1.323.584 2.71 3.71 3.224 6.032 4.145.973-.012 1.786 1.15 2.852.417.927-.093 1.732.727 2.445-.37 1.374.105 3.56.365 5.323.337l1.668.79c-.893 2.076-1.825 4.494-2.681 6.829a97.588 97.588 0 0 0-1.675 4.357 75.78 75.78 0 0 0-.774 2.282c-.04-.007-.04.118-.111.111.008-.055.06-.107.048-.167a.508.508 0 0 1 .087-.386.234.234 0 0 0 .047-.139c0-.122.044-.24.122-.335.028-.05.043-.108.074-.157.128-.205.139-.44.226-.66.088-.22.067-.485.203-.717-.054-.116.04-.205.095-.301a1.07 1.07 0 0 0 .154-.503.474.474 0 0 1 .08-.288c.102-.172.248-.35.234-.556a.41.41 0 0 1 .103-.303.497.497 0 0 0 .128-.278c-.043-.166.094-.277.12-.426.03-.084.05-.17.06-.259a.596.596 0 0 1 .196-.443c.046-.047.081-.099.06-.139-.043-.103.01-.188.054-.289.082-.183.223-.353.206-.556 0-.04.02-.066.058-.094.067-.09.1-.2.095-.313-.008-.015-.039-.032-.049-.025-.08.063-.173.088-.236.207-.096.182 0 .417-.211.556-.153.393-.367.778-.37 1.196 0 .127-.074.169-.158.206-.04.018-.077-.03-.131.022.061.149.022.337.054.5a.07.07 0 0 1-.002.057.069.069 0 0 1-.042.037c-.04.015-.077 0-.08-.04a.746.746 0 0 1-.026-.293c-.056.024-.07.055-.07.087a2.288 2.288 0 0 1-.194.826c-.022.06-.06.107-.115.098-.056-.01-.027-.072-.021-.116a.362.362 0 0 0 .01-.162c-.16.036-.187.072-.138.2a.365.365 0 0 0 .053.087.332.332 0 0 1 .026.305c-.072.232-.109.474-.11.717a1.168 1.168 0 0 1-.078.376c-.102.296-.207.592-.277.891a.79.79 0 0 1-.234.417.742.742 0 0 0-.238.417.388.388 0 0 1-.284.296c.06-.213.118-.4.162-.588.024-.101.14-.11.147-.18.038-.192.166-.356.194-.548a.631.631 0 0 1 .139-.356.488.488 0 0 0 .123-.201c.068-.212.224-.41.18-.638 0-.025.005-.049.015-.071a1.07 1.07 0 0 0 .054-.49c0-.046 0-.095-.035-.117-.096-.052-.073-.157-.06-.262.028-.137.072-.27.131-.397.072-.176.157-.35.213-.528.051-.208.131-.408.238-.595a.402.402 0 0 0 .045-.24c-.054.108-.087.185-.128.256a1.07 1.07 0 0 0-.196.52c0 .215-.152.417-.266.595a1.727 1.727 0 0 0-.31.755.652.652 0 0 1-.05.211c-.278.606-.462 1.24-.704 1.855a.499.499 0 0 0-.027.359c.225-.278.296-.609.425-.906.13-.298.245-.598.371-.912.061.072.025.132 0 .192-.22.622-.49 1.23-.753 1.837-.121.278-.123.566-.248.834-.01.022-.01.05.01.06.122.05.046.154 0 .23-.07.117-.097.246-.162.363a.095.095 0 0 0-.001.112c.008.011.018.02.03.027.09-.116.155-.249.193-.39.012-.044.039-.087.075-.087s.064.046.057.097a1.204 1.204 0 0 1-.118.417 7.416 7.416 0 0 0-.214.417c-.053.117-.088.24.037.29.055.021.02.087.04.12.07-.046.07-.139.116-.19.203-.255.27-.581.454-.845a.14.14 0 0 0 .027-.068c-.011-.17.065-.232.204-.231a.139.139 0 0 0 .049-.007c-.252.8-.489 1.604-.709 2.414-.047 0-.082.034-.117.054a.085.085 0 0 0-.041.1.048.048 0 0 0 .015.022l-.14.046-.016-.058-.164.054-.014-.046-.112.039-.014-.047-.227.076-.016-.058-.213.072-.014-.046-.503.17.014.046-.213.072.017.058-.44.149-.017-.058-.113.038-.014-.047-.062.021-.014-.046-.05.017-.017-.059-.114.04-.014-.046-.05.016-.017-.058-.112.037-.014-.046-.114.04-.013-.048-.114.039-.016-.058-.164.055-.013-.047-.164.056-.016-.059-.44.149-.013-.046-.227.075.014.047-.478.178.016.059-.277.093c0 .015.01.03.013.046l-.112.038-.014-.047-.05.018-.018-.058-.063.02c-.008-.03-.018-.06-.026-.092l-.052.016-.016-.057-.113.038-.014-.046-.05.017-.018-.059-.112.04-.014-.048-.113.039-.014-.047-.214.072-.016-.057-.502.17-.014-.048-.438.146c0-.042-.06-.047-.099-.032l-.17.066c-.038.015-.1.012-.096-.028a.441.441 0 0 1-.295.065l-.264.072-.02-.046-.168.04a.29.29 0 0 0-.229.04l-.026-.059a.17.17 0 0 1-.18.02l-.151.036a.088.088 0 0 0-.125 0l-.027-.054-.154.046a.08.08 0 0 0-.122 0c-.013-.05-.088-.037-.132-.01l-.025-.053-.105.026a.09.09 0 0 0-.126 0l-.026-.054-.092.018a.193.193 0 0 0-.182.018.166.166 0 0 0-.185.016l-.024-.052-.155.035a.277.277 0 0 0-.228.04c-.053-.093-.164-.01-.25.018 0-.015-.009-.03-.013-.047l-.227.076-.012-.045-.164.055-.017-.058-.05.017.03.104.05-.017.015.046.062-.021.017.058.051-.016.031.104.05-.017.014.046.062-.02.031.103-.278.094.014.045-.113.04.017.058-.113.037.028.093-.05.017.061.208.05-.016c.012.035.021.07.032.104l.063-.02c0 .014.008.03.014.046l.05-.018.03.105.05-.017.014.047.063-.022c0 .02.011.039.018.058l.05-.017.014.046.062-.02.014.045.05-.016.017.058.05-.017.03.105.065-.021c0 .015.008.03.014.046l.05-.017c.01.035.019.07.03.104l-.05.017.014.047-.064.02.018.06-.05.016.014.046-.051.017.013.047-.062.02.017.059-.05.017.013.046-.062.022.03.104-.05.017.014.047-.05.017.017.056.05-.016.014.047.05-.018.014.047.062-.02.032.104.05-.017.017.057.063-.02c0 .014.01.03.014.045l.05-.017c.005.016.01.031.013.047l.114-.038.017.058.05-.017.014.046.063-.02.016.058.102-.035.014.047.062-.022.014.047.113-.039.016.059.164-.056.014.047.1-.034.017.058.114-.038.012.046.064-.02.014.045.05-.016.017.058.05-.018.014.047.062-.02.019.056.112-.037.014.046.05-.017c0 .015.008.03.014.046l.05-.017.017.059.062-.021.014.046.114-.038.013.046.051-.017.017.058.05-.018.014.048.062-.023c0 .02.011.04.018.059l.05-.017.014.046.113-.038.014.046.05-.016.016.058.063-.02.014.045.05-.017c0 .02.012.04.018.059l.112-.04c0 .016.01.031.014.047l.05-.017.014.047.063-.022c0 .02.01.039.018.058l.05-.016.014.046.05-.017.016.058.113-.039.014.048.063-.021c0 .015.01.03.013.046l.05-.017.019.057.05-.017.013.047.113-.038.017.058.064-.02.012.045.052-.017.012.046.051-.017.017.059.063-.021c0 .015.01.03.014.046l.05-.017c0 .02.01.039.018.057l.062-.02.014.046.05-.018.014.048.05-.017.017.057.062-.02.014.045.05-.017.032.105.063-.021.014.047.05-.018.016.058.05-.016c0 .015.01.03.014.045l.063-.02.014.045.05-.016.03.104.064-.02.017.057.05-.016.014.046.05-.017.014.046.062-.021.031.104.051-.017.017.059.05-.018.014.047.063-.02.013.045.05-.017c.012.035.021.07.031.105l.064-.021.017.057.05-.017.014.047.05-.018.03.106.063-.022.014.047.051-.018.017.058.062-.02.028.092.05-.016.017.057.05-.017c0 .015.01.03.014.046l.062-.02.032.103.05-.016c0 .015.009.03.014.047l.063-.022.03.104.05-.017.014.047.05-.018.032.106.063-.022.03.104.05-.017.014.047.063-.022.03.106.05-.018c.012.035.021.07.032.104l.05-.017.014.048.063-.023.03.106.05-.018c.012.035.021.07.032.104l.05-.017.031.105.063-.021.03.104.05-.017.014.046.063-.02.032.104.05-.017.027.093.05-.017.031.105.063-.021.03.104.052-.017.025.103.062-.022.03.105.05-.018.029.093.05-.016c0 .02.01.039.018.058l.062-.022.03.105.05-.017.029.093.062-.021.017.058.051-.018.03.106.05-.018.06.197.062-.02c.036.119.07.24.107.359l.05-.017.151.51.063-.02.089.3.05-.016.044.15.05-.016.049.162.063-.02.044.15.05-.017.278.963-.05.016.139.465-.063.022.059.197.062-.022c.016.05.03.101.045.151l-.063.021.017.059-.1.033.014.047-.113.038.017.058-.063.02c0 .016.009.031.014.048l-.05.017.013.046-.05.016c.01.035.02.07.032.105l-.064.022.062.208.063-.02.014.045.05-.017.016.059.114-.04.014.048.327-.111-.014-.046.225-.076-.017-.059.1-.033.031.104.064-.02.03.104.05-.017.028.092.063-.021.03.104.05-.017.031.105.051-.017.031.104.063-.02.03.103.05-.016.046.15.063-.021.03.104.05-.016.028.093.05-.017.03.104.063-.02.032.104.05-.019.03.106.063-.022.03.104.052-.017.045.152.05-.017c.008.03.018.061.028.092l.062-.02.046.1.05-.017.03.104.063-.021.032.104.05-.017.014.046.05-.016.017.058.176-.06.014.047.1-.034-.014-.046.227-.077c0-.02-.013-.038-.018-.058l.164-.056.017.059.112-.038.014.046.114-.037.012.046.052-.017.017.057.112-.038.014.046.05-.017.018.059.113-.04a.484.484 0 0 0 .014.048l.05-.017c0 .016.008.031.014.046l.112-.037.017.057.164-.054.014.045.278-.094c.394.33.834.27 1.396-.688.103-.47.175-.946.215-1.425h.01l-.008-.024v-.027l.04-.012-.016-.058.062-.021-.026-.093.05-.017c-.011-.035-.02-.07-.032-.106l.051-.016c0-.02-.012-.04-.018-.057l.063-.023c-.008-.03-.018-.06-.026-.093l.05-.016-.032-.105.064-.02c-.012-.035-.021-.07-.032-.105l.051-.018c-.011-.034-.02-.07-.032-.104l.05-.016-.012-.046.062-.023-.018-.057.051-.016c0-.017-.01-.032-.013-.047l.062-.021-.014-.048.05-.016-.016-.059.05-.016-.014-.046.062-.021-.014-.047.05-.017-.016-.058.062-.021c0-.015-.008-.03-.014-.046l.05-.018-.03-.104.05-.017-.013-.046.063-.022c0-.02-.013-.038-.018-.057l.05-.018-.03-.104.05-.017c-.009-.03-.019-.061-.027-.093l.062-.02-.03-.105.05-.017-.05-.168c.008-.018.015-.036.024-.053l.026-.01-.008-.03c.139-.316.27-.58.375-.821l.04-.013-.014-.048a2.685 2.685 0 0 0 .23-1.596l.075-.025a.484.484 0 0 0-.014-.047l.05-.016-.017-.059.113-.037-.027-.093.063-.021-.049-.163.05-.017a4.861 4.861 0 0 0-.044-.151l.05-.017-.045-.151.063-.021-.03-.104.05-.017-.045-.151.062-.021a6.06 6.06 0 0 0-.044-.152l.05-.016-.03-.105.05-.016a6.18 6.18 0 0 0-.045-.152l.062-.02-.03-.105.05-.017-.045-.15.063-.022a6.18 6.18 0 0 0-.045-.151l.05-.017-.044-.151.05-.017-.047-.163.062-.02-.044-.15.05-.019-.045-.15.063-.022-.058-.196.05-.018-.048-.163.05-.016-.058-.197.063-.021-.063-.209.051-.016-.058-.195.049-.017-.017-.054c.293-.647.62-1.273.817-1.988.588-2.142.538-4.568.927-6.876.298-3.68 1.287-7.138 1.807-10.748.687.08 1.358.204 1.86.242ZM14.094 19.958c.033 0 .011.046 0 .074a.09.09 0 0 1-.035.076c-.032-.01-.02-.047-.025-.073-.004-.027.021-.08.057-.077h.003Zm-.988 3.838c-.011.028-.021.067-.052.07-.03.005-.016-.03-.01-.05.005-.021.006-.062.042-.069.037-.006.03.025.02.05Zm-.674 2.78-.046.014-.011-.038a.387.387 0 0 0 .082-.069l-.025.092ZM76.383 21.55a1.045 1.045 0 0 0-.231.545.206.206 0 0 0 0 .071c0 .03.02.063.065.063.046 0 .092.012.096-.04.004-.05.052-.113.042-.187-.011-.094.025-.232.108-.244.14-.023.14-.098.163-.18a.65.65 0 0 1 .074-.22.153.153 0 0 0 0-.212c-.028-.032-.04-.08.012-.089.163-.03.113-.139.102-.225 0-.049-.013-.096-.02-.139-.007-.043.011-.08.078-.075.093 0 .11-.047.118-.112.017-.16.061-.317.13-.462.013-.039.022-.079.03-.12.02-.065-.05-.056-.106-.096.237-.055.246-.227.298-.374 0-.02 0-.063-.017-.066-.12-.032-.051-.107-.074-.16-.022-.052.034-.122-.057-.138-.09-.017-.075.065-.1.105a.18.18 0 0 0-.025.103c-.006.14-.036.278-.089.407-.026.107-.122.225.099.346-.103-.01-.139-.007-.185.022a.417.417 0 0 0-.167.326c-.008.123.01.247-.127.33-.032.02-.021.09-.028.14a.887.887 0 0 1-.061.331c-.049.087-.128.159-.066.278.016.024-.04.045-.062.071ZM73.168 28.976a.32.32 0 0 0-.093.185 1.25 1.25 0 0 1-.12.335c-.163.238-.147.535-.314.773-.093.139-.018.291 0 .46a.585.585 0 0 0 .14-.331.148.148 0 0 1 .058-.118c.11-.088.11-.14.041-.267-.012-.022-.025-.054-.013-.07.058-.087.008-.239.187-.258a.05.05 0 0 0 .032-.04c0-.098.078-.14.149-.194a.123.123 0 0 0 .046-.147.122.122 0 0 0-.03-.046c-.091-.06-.069-.101-.047-.165a.082.082 0 0 0-.036-.117ZM77.663 16.245c-.043-.022-.067.013-.078.034a.397.397 0 0 0-.074.18v.09a.079.079 0 0 0 .042.08.112.112 0 0 0 .115-.021c.024-.021.06-.042.063-.067a1.481 1.481 0 0 0 0-.247c-.008-.017-.04-.036-.068-.049ZM77.011 18.142c-.175.14-.032.26.035.396.09-.053.073-.118.06-.186a1.209 1.209 0 0 1 .01-.453c-.073.032-.14.07-.098.16.014.03.02.06-.007.083ZM77.805 17.98c.077.016.068-.053.082-.095a.14.14 0 0 0 .013-.106.138.138 0 0 0-.066-.084.14.14 0 0 1-.074-.117c-.011.094-.028.188-.033.278a.11.11 0 0 0 .078.125ZM75.756 23.42c0-.09-.008-.18-.014-.31-.078.197-.139.358-.204.52.075-.02.22-.156.218-.21ZM74.03 27.578c0 .027 0 .05.033.057.034.009.046-.01.057-.033.04-.078.05-.167.095-.244a.124.124 0 0 0-.064-.162.972.972 0 0 0-.121.382ZM78.663 15.505c-.056-.017-.107.018-.098.06a.606.606 0 0 1-.063.32c-.012.035 0 .07.057.116.086-.131.059-.278.14-.408.005-.023.021-.073-.036-.088ZM77.18 16.276c.128-.11.09-.266.153-.388a.046.046 0 0 0 .006-.044.046.046 0 0 0-.035-.028c-.033-.008-.078.015-.073.044.016.113-.071.196-.078.3a.14.14 0 0 0 .026.116ZM75.536 23.63h.002-.002ZM75.467 24.103c.047-.092.068-.192.105-.285a.228.228 0 0 0-.027-.187.287.287 0 0 1-.05.166.417.417 0 0 0-.028.306ZM76.579 16.27a.396.396 0 0 0-.117.332c0 .025.035.038.085.028-.05-.125.062-.233.032-.36ZM74.237 27.049c.03-.011.074-.013.07-.047-.002-.035-.034-.04-.056-.046-.049-.015-.052.02-.054.048-.003.028 0 .048.04.045ZM77.164 17.733a.128.128 0 0 0-.043.153c.055-.037.097-.079.043-.153ZM77.12 17.886v.009s.002-.005 0-.009ZM77.196 17.382c-.008.02.01.03.035.033.025.003.065-.012.068-.048a.042.042 0 0 0-.012-.035.041.041 0 0 0-.015-.01.041.041 0 0 0-.02-.003c-.034.003-.045.037-.056.063ZM77.488 15.631c0-.01 0-.022-.009-.032l-.112.042s0 .008-.023.032c.069.001.126.018.144-.042ZM77.603 16.879c.02 0 .047 0 .046-.02a.267.267 0 0 0-.03-.068.176.176 0 0 0-.038.032c-.018.024-.014.045.022.056ZM76.063 22.596a.494.494 0 0 0-.097-.048c.026.027.033.04.043.043.01.003.04.048.054.005ZM76.92 15.285c0-.015-.013-.02-.027-.013a.037.037 0 0 0-.013.008.036.036 0 0 0-.008.013l.02.023c.006.006.033-.009.029-.031Z" fill="#fff"/><path d="M45.782 21.863c2.607-.349-.68-4.837-2.157-3.347-.774 2.27-5.464 11.044-3.358 3.005.962-2.21-4.01-5.534-5.067-3.189a5.709 5.709 0 0 1-.293 2.346c-.127.08 0 .257-.187.211.034.054.063.064.088.056l-.04.1a.167.167 0 0 0-.162.057c.009-.011 0-.018 0-.03-.065.017 0 .116-.101.126.067.088-.052.062.054.147l.045-.12a.615.615 0 0 0 .019.14 5.69 5.69 0 0 1-.064.131.223.223 0 0 1-.03-.101c-.052 0-.016.068-.069.073-.105-.084.062-.138.02-.26-.067 0 0 .173-.099.059.121.15-.096.095-.032.25l-.062-.05c0 .018.016.065 0 .085l-.059-.099c.03.111-.146.073-.147.157.083-.122.099.03.183.011-.016.212-.233-.034-.32.155.008-.03.1-.057.106 0a.242.242 0 0 1-.139.041c-.064.121.081.03.088.107-.107-.02 0 .078-.014.14l-.068-.048c-.139.096.115.132-.017.208l-.058-.114-.018.077-.068-.065c.01.104-.018.112-.085.16.058.019.115.095.078.152-.067.01-.049-.066-.095.02-.029-.047-.068-.105.018-.095-.02-.02-.029-.048-.048-.067-.075.009-.084.096-.103.124a.06.06 0 0 1 .037-.02l.01.181c-.037 0-.047-.029-.057-.057-.01.028.01.067-.01.105-.047-.048-.105-.085-.095-.152l-.018.152c-.03-.01-.106.01-.116-.02-.075.038 0 .224-.101.278a.058.058 0 0 1 0 .05c-.066.067-.181.085-.173.227l-.139-.021c-.029.086.173.02.124.162-.03.105-.104-.029-.153-.02.02.076.067.219-.068.237 0-.039.03-.047.039-.075l-.095.017c-.037-.14.03-.16-.086-.162.181.14-.139.235.036.38l-.066.008c.01-.01 0-.02.01-.028-.14 0 .093.153 0 .227-.04.022-.084.025-.09-.013l-.008.107a.02.02 0 0 1-.031-.007.02.02 0 0 1-.002-.012l-.063.113a.68.68 0 0 1 .042.139c-.049.008-.01-.03-.038-.04v.095a.08.08 0 0 1-.036-.139c-.228-.08.009.086-.193.128l.02-.075c-.132-.042-.13.032-.244.049.046.01.264 0 .259.093-.028.008-.053.027-.043.091-.066-.048-.077 0-.106.045l-.085-.068c-.01.066.037.096.055.153-.05.047-.124.006-.19-.024-.079.074.152.024.092.139-.087.044-.09.12-.102.243-.067.025-.046-.049-.085-.051l.036.097c-.01.008-.03-.011-.038-.02 0 .056.084.069.063.138.083.089-.23.011-.177.165-.039 0-.047-.05-.084-.07a.714.714 0 0 0 .019.279l-.11.023a.11.11 0 0 1 .068.025l-.05.058-.025-.02a.092.092 0 0 1 0 .047.077.077 0 0 0-.03-.035c-.011 0 0 .02.01.052l-.11-.054.033.034-.151.069c.01.055.027.114.043.173-.04.045-.077.09-.114.14.012-.045 0-.12.045-.154-.037.028-.07-.01-.076-.03l-.018.183c-.065-.055-.07-.014-.125 0 .092.049.08.098.054.14l-.063.074a.068.068 0 0 1-.02-.087.068.068 0 0 1 .02-.024c-.091-.008-.041.068-.016.13-.035.044-.07.085-.103.128a.038.038 0 0 1-.028-.01.07.07 0 0 0 0-.01l.01-.014-.011.01c-.556-1.214.4-3.188-.307-4.71 1.121-1.731-.409-4.61-2.502-3.711-1.155.048-.723 1.806-1.64 2.362-.528 1.046-4.703 2.25-3.18 3.271 4.535-.973 1.7 4.876 2.598 7.838.333.913-.735 1.182-.876 1.828.519.739-.139 1.623.834 1.974 4.12 6.75 5.673-.324 7.81-3.401 1.922-3.817.735 2.648 1.421 3.42 2.502 3.313 4.151 1.157 5.037-1.625.556-.442.111-1.25.877-1.613.156-.168-.317-.417.055-.467.442-.182.256-1.112.634-1.516.706-1.56 1.322-2.918 2.306-4.056.755-.966.748-2.622 1.529-3.633.11-.144.239-.273.382-.386ZM31.094 26l-.026-.02a.074.074 0 0 0 .042 0l-.016.02Zm1.129-1.676c0-.026-.02-.092.029-.074.061.075.014.067-.03.074Zm2.105 5.818c-.027 0-.062.025-.015 0 .407-.218.18.409.015 0Z" fill="#fff"/><path d="M32.522 23.874v-.036a.122.122 0 0 0 0 .036ZM32.383 24.04l.023.023c-.003-.014-.01-.024-.023-.024ZM31.465 25.465a.206.206 0 0 0-.073.017l.073-.017ZM33.162 22.873l-.04-.072c-.032.045.012.048.04.073ZM34.531 21.4h.01c-.01-.045-.012-.033-.01 0ZM32.48 23.961v-.01a.014.014 0 0 0 0 .01ZM31.417 25.507a.166.166 0 0 1 .041.02.035.035 0 0 0-.041-.02ZM33.17 22.887l-.01-.01.01.01ZM32.027 24.317h-.077l.018.02c.03.008.04 0 .059-.02ZM32.563 23.8l-.085-.049-.01.01.095.04ZM32.731 23.22c.034-.033.121 0 .028-.062a.209.209 0 0 0-.028.061ZM64.583 19.281v-.012s.002.008 0 .012ZM64.443 19.27a1.76 1.76 0 0 1-.432.098c-.036 0-.08-.01-.098.058 0 .015-.027-.007-.033.028a.208.208 0 0 0 .11-.007c.07-.015.139-.04.205-.057.067-.017.121-.018.18-.034.07-.021.14-.046.208-.075a.138.138 0 0 0-.14-.01ZM62.703 19.672c.029-.035.054-.01.08.014.027.023.017.018.027.015.062-.012.125-.019.189-.022a.186.186 0 0 1 .139.016c.01.003.02.003.029 0 .039 0 .044-.018.022-.075a.25.25 0 0 1-.01-.034c-.008-.023-.023-.034-.034-.025-.011.008 0 .026 0 .043 0 .016 0 .037-.021.036-.075 0-.149-.022-.222-.022-.05 0-.1-.021-.14.01-.04.033-.066-.01-.1.01.019.034.03.048.04.034ZM63.248 19.49a.26.26 0 0 0-.248-.015.743.743 0 0 1 .14.05c.04.015.073-.013.108-.035ZM63.531 19.52c.036-.06.09-.016.132-.029a.51.51 0 0 0 .12-.027.326.326 0 0 0-.169 0 .252.252 0 0 1-.17-.017c.029.07.06.06.087.073ZM62.737 19.89c.03.036.106.04.195.01a.236.236 0 0 0-.195-.01ZM62.264 19.532a.034.034 0 0 0 .016-.032.048.048 0 0 0-.022-.04c-.03-.009-.051 0-.057.067.013.021.033.028.063.005ZM62.21 23.446l-.009.012s.007-.008.008-.012Z" fill="#fff"/><path d="M62.346 23.483c.07-.014.14-.025.212-.032.077-.004.153-.004.23 0 .037 0 .078.021.105-.044.007-.015.027.011.036-.022a.213.213 0 0 0-.11-.01c-.07 0-.138.02-.21.028-.073.007-.123 0-.183 0s-.139.029-.217.044a.14.14 0 0 0 .137.036ZM63.669 23.411c-.034-.02-.071 0-.109.018a.26.26 0 0 0 .243.052.688.688 0 0 1-.134-.07ZM63.36 23.447c-.018-.076-.051-.07-.075-.087-.044.055-.09 0-.139.01a.558.558 0 0 0-.122.01c.052.023.11.032.167.026a.25.25 0 0 1 .17.041Z" fill="#fff"/></svg>