<svg width="160" height="160" fill="none" xmlns="http://www.w3.org/2000/svg"><path fill="#fff" fill-opacity=".1" d="M.5.5h159v159H.5z"/><path fill-rule="evenodd" clip-rule="evenodd" d="M50.134 114.619h.288c.195.473.38.514.579.401a.831.831 0 0 0 .086-.487c-.035-.442-.035-.87-.035-1.298-.004-.2-.02-.399-.048-.597a1.99 1.99 0 0 0-.068-.288l.01-.455-.195-2.69a12.656 12.656 0 0 0-.1-.963 14.434 14.434 0 0 1-.147-2.056c0-.114-.007-.232-.013-.352-.007-.123-.014-.247-.014-.368l-.124-1.713-.02-.25-.02-.209.033-.556c.014-.198.031-.397.062-.596.01-.156.01-.313 0-.469a4.874 4.874 0 0 1 .079-.95c.061-.311.09-.628.086-.945a3.464 3.464 0 0 1 .048-.593l.005-.04.017-.103c.03-.189.06-.382.06-.573l.373-4.52c.02-.244.038-.497.038-.723 0-.317.027-.633.079-.946l.017-.115c.015-.095.03-.192.03-.29l.045-.466-.024-.198-.404-3.283a14.634 14.634 0 0 1-.103-1.083c-.01-.241-.038-.502-.066-.758l-.01-.082-.164-1.336a8.657 8.657 0 0 0-.024-.186 3.223 3.223 0 0 1-.04-.42c-.02-.543-.088-1.094-.155-1.653l-.003-.03a4.02 4.02 0 0 1-.041-.476 12.603 12.603 0 0 0-.124-1.323l-.12-.977.23-3.66.438-6.973.038-.586.024-.288.034-.342v-.343c.004-.116-.004-.245-.012-.378a5.518 5.518 0 0 1-.015-.345l-.113-1.83c-.031-.243-.031-.51-.031-.726.018-.478-.013-.962-.043-1.45l-.015-.24-.165-2.686c.021-.31.021-.62 0-.93l-.113-1.825c-.027-.24-.027-.504-.027-.72V54.719c0-.135-.004-.271-.008-.407-.007-.273-.015-.544.008-.802a11.5 11.5 0 0 0 .034-1.196v-2.317c-.013-.48 0-.96.038-1.439.009-.16.009-.32 0-.48-.007-.613.014-1.21.055-1.792.034-.244.054-.49.058-.737l.03-.952a.904.904 0 0 0-.027-.206c-.072-.247-.157-.308-.25-.308H49.1c-.027.133-.062.133-.1.133a.34.34 0 0 0 0-.13h-.12a2.29 2.29 0 0 0-.116.49v.98l.003.51v.002c.005.6.01 1.2-.044 1.784v1.95c0 .081.002.165.005.248.004.166.009.331-.005.475-.038.514-.038 1.038-.038 1.566v2.323c-.038.31-.056.623-.054.936v.685l.037.686c.028.28.028.575.028.843-.007.36.01.72.03 1.086l.196 3.183c.044.45.062.895.044 1.33-.003.1.002.213.008.328.005.092.01.185.01.275l.044.733.02.317c.036.58.073 1.16.056 1.74-.001.139.024.277.075.407v.61c.003.06.003.121 0 .182-.01.05-.016.102-.02.154l-.025.209-.037.421-.059.85-.404 6.456-.016.286c-.011.236-.023.474-.052.68-.039.358-.06.717-.062 1.076-.053.17-.083.347-.09.525l-.078 1.233.209 1.714.04.3c.055.418.11.836.11 1.245.02.098.045.194.076.288l.031.244c-.001.311.017.622.055.932.044.322.085.644.12.966l.008.066.01.08c.023.195.047.392.047.57.014.36.055.716.1 1.08l.51 4.112.024.195-.062.733c-.027.26-.058.518-.106.771a3.767 3.767 0 0 0-.048.596c.003.353-.014.706-.045 1.076l-.192 2.317-.096 1.347c-.03.318-.068.64-.11.956a4.137 4.137 0 0 0-.047.71c.004.197-.014.395-.055.589-.073.392-.11.79-.11 1.189.002.157-.007.313-.027.469l-.005.029-.012.065a2.191 2.191 0 0 0-.051.403l-.028.254-.027.342.037.528.343 4.516v.237l.016.235v.001c.022.319.043.637.073.953.018.239.02.46.02.68 0 .196.002.39.014.595v.24c-.027.343-.01.688.048 1.028.029.144.045.325.062.507l.017.178.052.6c-.001.186.047.369.14.531l.048.044.036.035c.143.135.29.275.427.212.048.161.096.216.147.216ZM49.02 61.563h-.024l-.003-.069c.011.022.02.045.027.069ZM40.17 49.335l-.008.057.95-.064c.093 0 .182.051.268.274.022.06.035.122.037.185l.02.884c.019.228.019.457 0 .686 0 .538 0 1.09.045 1.655.009.148.009.297 0 .445-.01.443.005.885.045 1.326l.134 2.135c.03.368.041.738.034 1.107 0 .323.024.699.047 1.05l.004.064.017.27c.024.395.048.787.031 1.172 0 .199 0 .442.028.665.008.176.02.351.032.527.026.386.053.773.043 1.159 0 .289-.02.578-.062.864v2.484c0 .524 0 1.049-.048 1.563-.013.132-.009.286-.004.44.002.077.004.154.004.228v2.399c-.036.444-.05.89-.04 1.336v3.218l-.059 3.214-.082 4.397c.002.407-.019.814-.062 1.22 0 .07-.007.148-.013.228a3.578 3.578 0 0 0-.014.213c0 .528-.02 1.05-.08 1.553-.015.13-.017.283-.018.431 0 .043 0 .086-.002.127l-.024 1.24v.703c0 .288.03.561.059.84l.01.088.007.073.342 3.022.01.09c.028.27.057.545.066.798.004.291.036.582.096.867.04.205.068.438.092.658l.453 4.146c.024.223.037.449.048.662.002.183.023.365.061.544.061.286.09.578.086.871v.596c0 .11 0 .223.02.343.02.143.028.287.025.431-.026.351-.017.689-.009 1.033.004.174.008.35.008.53v1.577c0 .222 0 .452-.03.664-.05.626-.05 1.255 0 1.881.024.295.024.59.02.891v2.93c.023.088.04.177.048.268.01.182.01.365 0 .548a19.3 19.3 0 0 0-.072 1.196c0 .199-.068.414-.123.435-.24.034-.439-.007-.583-.466h-.288c-.05 0-.096-.058-.126-.209-.153.052-.306-.112-.44-.255l-.047-.05a.901.901 0 0 1-.1-.497v-.552c0-.219 0-.455-.023-.647a3.584 3.584 0 0 1 .037-.95v-.219c0-.194.017-.376.034-.561.018-.197.037-.396.035-.614v-1.313l.03-4.163c-.008-.445.006-.89.042-1.333a2.677 2.677 0 0 0 0-.435c0-.141 0-.281-.017-.422v-.552a2.22 2.22 0 0 0-.055-.541 3.638 3.638 0 0 1-.079-.648c-.017-.291-.038-.59-.068-.884l-.134-1.23-.23-2.125a10.673 10.673 0 0 0-.15-.98 2.988 2.988 0 0 1-.062-.544c-.013-.48-.05-.96-.113-1.436l-.034-.343-.415-3.793-.034-.343v-.428c0-.12.01-.233.03-.343.02-.201.028-.429.034-.647v-.909c.006-.287.033-.573.08-.856v-.227a1.497 1.497 0 0 1-.038-.27c.047-.474.07-.95.068-1.426l.048-2.556c-.002-.164.021-.327.069-.483a8.81 8.81 0 0 1 0-.994c.023-.198.023-.43.023-.66v-.228l.056-2.97v-2.968c0-.597 0-1.19.055-1.765V70.369a.911.911 0 0 1-.052-.373c.054-.54.053-1.093.052-1.647v-.924a4.794 4.794 0 0 1 .02-.551 11.9 11.9 0 0 0 .038-1.217v-2.374c-.027.067-.06.133-.1.195a.172.172 0 0 1-.178.075l-.181-.023a.888.888 0 0 0-.213 0 .406.406 0 0 1-.305-.076h-.072a2.79 2.79 0 0 0-.373-.12c-.09 0-.18-.02-.263-.038l-.08-.017h-.072l-1.37-.212a1.444 1.444 0 0 1-.432-.103.32.32 0 0 0-.141 0 .634.634 0 0 1-.343-.065.246.246 0 0 0-.174-.034.419.419 0 0 1-.216-.024 2.657 2.657 0 0 0-.285-.076l-.4-.061-.686-.11a1.06 1.06 0 0 0-.343 0 .342.342 0 0 1-.178-.024 1.535 1.535 0 0 0-.462-.12h-.11l-1.24-.192a1.125 1.125 0 0 1-.32-.086.885.885 0 0 0-.212-.058 4.242 4.242 0 0 0-.291-.044.686.686 0 0 1-.27-.107h-.073c-.014 0-.031.008-.047.016-.02.009-.038.017-.049.012a1.507 1.507 0 0 0-.455-.113l-.833-.137a.203.203 0 0 1-.147-.086.97.97 0 0 1-.326-.044 1.101 1.101 0 0 0-.288-.059l-1.933-.325a2.123 2.123 0 0 1-.565-.151.369.369 0 0 0-.106-.024h-.076a.13.13 0 0 1-.13.027 2.132 2.132 0 0 0-.606-.15l-.22-.038a.74.74 0 0 1-.174-.052 1.3 1.3 0 0 0-.391-.106l-.953-.16a1.289 1.289 0 0 1-.318-.087 1.137 1.137 0 0 0-.247-.068 5.496 5.496 0 0 0-.401-.069.723.723 0 0 1-.27-.106l-.686-.12a1.624 1.624 0 0 1-.46-.12.624.624 0 0 0-.212-.051l-.4-.072a.741.741 0 0 1-.182-.038 2.37 2.37 0 0 0-.363-.114 5.154 5.154 0 0 1-.004.124c-.013.187-.004.375.027.559.035.227.05.456.045.685 0 .302 0 .61.024.915l.069 1.275.12 2.204c.014.344.047.687.099 1.028.026.187.038.376.034.565-.014.496-.003.992.034 1.487l.02.343.217 3.934V73.58c0 .109-.015.217-.03.326l-.008.054c-.02.17-.03.36-.04.55l-.008.136c0 .18-.008.36-.016.54-.006.128-.012.255-.015.382-.008.295-.038.59-.089.88v.233c.017.092.028.185.031.278-.058.423-.072.862-.087 1.301l-.006.165-.089 2.632c.001.169-.024.336-.075.497.01.343.003.686-.024 1.028-.025.2-.03.433-.035.664a18.33 18.33 0 0 1-.006.251l-.103 3.06c.011.675.036 1.35.06 2.017l.036 1.04c.024.617.045 1.227 0 1.82V92.008a.957.957 0 0 1 .062.387c-.03.498-.013 1.008.004 1.52.005.14.01.28.013.42l.024.685v.57c-.022.418-.022.838 0 1.257l.106 3.012c0 .114.003.228.006.342.006.229.012.457-.006.686 0 .254 0 .531.017.802l.065 1.274c.014.296.008.593-.017.888l.113 2.193c.037.494.049.989.035 1.484-.005.229.002.457.02.685l.062 1.272c.017.19.023.381.02.572-.023.534.006 1.081.035 1.627.01.182.02.364.027.545l.024.463.024.463a2.01 2.01 0 0 1-.096.469h-.12a.395.395 0 0 1-.024-.123c-.034 0-.072 0-.092.133l-1.073.055c-.092 0-.182-.051-.267-.284a.738.738 0 0 1-.034-.192v-.908c-.009-.235 0-.469.023-.703.018-.555 0-1.12-.027-1.713a4.129 4.129 0 0 1 0-.456c.017-.457.008-.915-.027-1.371l-.113-2.2c-.028-.379-.035-.76-.021-1.141a7.168 7.168 0 0 0-.02-.824l-.018-.324a43.866 43.866 0 0 0-.011-.229c-.022-.423-.043-.843-.023-1.258 0-.206 0-.456-.017-.685l-.082-1.737a6.16 6.16 0 0 1 .03-.888l-.089-2.563a15.845 15.845 0 0 1 0-1.61v-.686l-.058-1.748c0-.076-.002-.156-.004-.235a3.643 3.643 0 0 1 .004-.45c.024-.457.024-.914 0-1.37l-.113-3.318a119.6 119.6 0 0 1 .06-1.996c.015-.44.03-.881.043-1.321l.154-4.54c.003-.422.03-.843.082-1.262.02-.133.027-.291.034-.442v-.013c.018-.542.038-1.08.107-1.6.015-.129.02-.28.023-.43l.004-.15.045-1.278v-.75c0-.343 0-.686-.024-1.028l-.171-3.132a11.938 11.938 0 0 1-.028-.919c.009-.3-.008-.6-.051-.898a8.166 8.166 0 0 1-.058-.67v-.015l-.237-4.294c0-.076-.002-.153-.004-.23a4.526 4.526 0 0 1 .004-.455 3.037 3.037 0 0 0-.034-.562c-.046-.298-.06-.6-.041-.901a3.805 3.805 0 0 0-.066-.901 3.326 3.326 0 0 1-.054-.46 9.62 9.62 0 0 0-.072-1.02c-.02-.194-.041-.388-.055-.583l-.12-1.621a9.405 9.405 0 0 1-.027-.686c-.001-.648-.05-1.295-.148-1.936a11.443 11.443 0 0 1-.096-.911l-.192-2.55-.037-.462a1.68 1.68 0 0 1-.069-.274 4.536 4.536 0 0 1-.044-.563c0-.407 0-.812-.031-1.233a.75.75 0 0 1 .082-.46c.188-.102.373-.075.569.385h.291c.048 0 .096.05.144.205.138-.063.285.07.428.2.027.026.055.05.082.074.092.151.14.324.141.5l.048.573.018.178c.016.17.033.34.06.487.06.322.076.65.049.976v.226c.013.202.014.391.014.583 0 .203 0 .408.017.63.023.235.04.471.057.708.01.14.02.28.032.42l.017.226.322 4.284.02.262c.024.29.047.578.052.864l.075.022c.076.017.147.05.21.096.167.075.345.126.527.15a.476.476 0 0 1 .14.038c.133.064.276.103.422.116l.685.117c.12.015.235.048.343.1.115.044.237.072.36.082.158.019.313.06.46.123a.84.84 0 0 0 .212.051l.171.03c.125.022.25.044.377.063a.73.73 0 0 1 .267.106l.805.137c.172.018.34.062.497.13a.83.83 0 0 0 .216.052l.549.092a.839.839 0 0 1 .212.055c.135.06.278.098.425.113l2.087.343 1.429.24c.135.01.267.044.39.1a.372.372 0 0 0 .14.04 1.8 1.8 0 0 1 .498.13.588.588 0 0 0 .178.038l.404.065c.084.015.167.036.247.065.103.042.212.07.322.083l.987.157c.098.012.195.035.288.069.09.039.188.053.284.04a.957.957 0 0 1 .22 0l1.37.213c.072.013.142.032.21.059a.36.36 0 0 0 .177.027.432.432 0 0 1 .285.051.452.452 0 0 0 .284.045.343.343 0 0 1 .144 0c.168.039.339.063.51.072l.511.082c.073.012.144.032.213.058.194.081.404.114.613.096.099-.005.198.002.295.02l.805.128.148.02a.322.322 0 0 1 .096-.034.453.453 0 0 1 .178.027l.06.025c.002-.076.006-.151.012-.227 0-.243 0-.514-.024-.77l-.079-1.234a5.964 5.964 0 0 1 0-.86l-.137-2.125-.006-.091c-.029-.45-.058-.899-.042-1.342a6.443 6.443 0 0 0-.027-.664l-.08-1.23c0-.085-.006-.173-.012-.26a2.665 2.665 0 0 1-.011-.296c.018-.53-.018-1.075-.055-1.62-.01-.16-.022-.32-.03-.48l-.028-.45-.001-.011c-.01 0-.018 0-.027-.002h-.185a.935.935 0 0 0-.22 0 .425.425 0 0 1-.311-.065h-.075a3.501 3.501 0 0 0-.384-.103c-.082 0-.162-.012-.243-.024l-.124-.017H38.1l-1.391-.158c-.15-.004-.3-.032-.442-.082a.303.303 0 0 0-.148 0 .686.686 0 0 1-.366-.051.254.254 0 0 0-.182-.028.402.402 0 0 1-.22 0 2.724 2.724 0 0 0-.29-.058 8.016 8.016 0 0 0-.415-.048l-.713-.082a1.106 1.106 0 0 0-.343 0 .372.372 0 0 1-.184-.017 1.496 1.496 0 0 0-.477-.1h-.113l-1.275-.14a1.34 1.34 0 0 1-.342-.072.902.902 0 0 0-.216-.048 3.02 3.02 0 0 0-.302-.034.739.739 0 0 1-.277-.093h-.076a.12.12 0 0 0-.05.018c-.019.01-.035.018-.046.013a1.588 1.588 0 0 0-.473-.093l-.52-.058-.395-.075a.215.215 0 0 1-.15-.086 1.12 1.12 0 0 1-.343-.055 1.155 1.155 0 0 0-.295-.061l-1.932-.415a2.186 2.186 0 0 1-.573-.161.4.4 0 0 0-.11-.028h-.075a.126.126 0 0 1-.133.024 2.215 2.215 0 0 0-.617-.16l-.223-.045a.6.6 0 0 1-.178-.055 1.318 1.318 0 0 0-.398-.11l-.966-.181a1.314 1.314 0 0 1-.343-.093 1.178 1.178 0 0 0-.25-.072 5.741 5.741 0 0 0-.411-.075.774.774 0 0 1-.274-.113l-.703-.13a1.715 1.715 0 0 1-.47-.13.833.833 0 0 0-.215-.059l-.408-.075a.742.742 0 0 1-.181-.045c-.22-.09-.45-.15-.686-.178l-.147-.027-.147-.028a.432.432 0 0 1-.13-.144l.023-.116a.044.044 0 0 1 .041 0 .113.113 0 0 0-.02-.106l.195-1.056a.343.343 0 0 1 .14-.23.113.113 0 0 1 .066 0l.284.09a.594.594 0 0 1 .216.099c.17.08.35.134.535.161.05.006.098.02.144.041.134.065.28.107.428.123l.706.134c.125.016.246.05.36.103.115.049.238.079.363.09.162.021.32.066.47.133.069.028.141.046.215.055l.559.102a.733.733 0 0 1 .27.113l.82.151c.175.02.346.068.507.14.07.027.144.045.22.056l.558.102c.073.012.146.032.215.059.138.063.285.105.436.123l2.124.394 1.12.206.285.034c.139.005.275.032.405.082.045.02.094.032.143.034a2 2 0 0 1 .515.113c.06.017.122.026.185.028l.414.048c.087.01.173.029.257.055.11.038.226.063.343.072l1.028.113c.1.009.199.028.295.058a.603.603 0 0 0 .29.03.715.715 0 0 1 .227 0l1.395.155c.073.01.145.028.216.051.06.017.124.017.185 0a.45.45 0 0 1 .291.042c.09.042.194.053.291.03a.314.314 0 0 1 .148 0c.172.031.346.048.52.052l.528.058c.075.01.148.027.22.052.201.072.417.097.63.072.099-.014.2-.014.298 0l.83.092h.15a.256.256 0 0 1 .096-.038.629.629 0 0 1 .182 0c.128.046.26.082.394.106a.181.181 0 0 1 .133.138.585.585 0 0 1-.205.507Zm-16.4-1.762v-.024a.065.065 0 0 0-.025.021l.024.003Zm16.722 17.83h-.024v-.062c.01.02.018.04.024.062Zm65.974 46.069-.091-.038c.046.078.081.162.105.25l-.086.086a.126.126 0 0 1-.068-.041.102.102 0 0 0-.021.063c0 .023.007.045.021.063l-.747.771a.27.27 0 0 1-.312.045.278.278 0 0 1-.106-.069l-.391-.428a2.375 2.375 0 0 1-.281-.343 7.352 7.352 0 0 0-.733-.805 1.405 1.405 0 0 1-.199-.216 5.091 5.091 0 0 0-.596-.641l-1.008-.983a4.823 4.823 0 0 1-.493-.538 4.634 4.634 0 0 0-.511-.528 6.457 6.457 0 0 1-.648-.685 3.222 3.222 0 0 0-.301-.319l-.795-.774a2.813 2.813 0 0 1-.363-.439l-1.169-1.144-.37-.364c-.059-.062-.117-.123-.171-.188a17.615 17.615 0 0 0-.25-.285 4.514 4.514 0 0 0-.343-.342v-.237l-.028-1.333a2.647 2.647 0 0 1 0-.438c.03-.293.036-.587.02-.881l-.095-4.235-.065-2.9c-.016-.27-.009-.54.02-.808a1.995 1.995 0 0 0 0-.291 7.26 7.26 0 0 1 .028-1.028 2.64 2.64 0 0 0 0-.367v-.82c-.01-.17-.01-.34 0-.51.014-.22.014-.44 0-.661l-.045-2.008c-.01-.195-.01-.391 0-.586a3.423 3.423 0 0 0 0-.737c0-.06-.007-.123-.014-.186-.006-.053-.011-.106-.013-.157l.223-.164 2.398-1.713a4.79 4.79 0 0 1 .37-.237 1.3 1.3 0 0 0 .292-.212c.138-.14.299-.257.476-.343.173-.088.33-.204.466-.343.065-.07.138-.133.216-.188.189-.11.358-.242.527-.375h.001c.1-.08.2-.158.305-.232l.846-.603c.119-.085.243-.164.37-.236.364-.2.702-.443 1.008-.723a4.81 4.81 0 0 1 .462-.367l1.33-.953.24-.174a.79.79 0 0 1 .116-.144c.09-.08.188-.151.291-.213.23-.127.453-.26.686-.411.113-.072.264-.103.305-.072a.487.487 0 0 1 .129.117l.988-.33a.267.267 0 0 1 .284.073.244.244 0 0 1 .059.088l.113.467c.035.12.055.244.058.37.047.296.12.587.219.87.029.075.05.153.062.233.036.234.097.464.182.685l.342 1.107c.068.19.117.384.148.583.038.199.094.394.167.582.09.246.157.5.203.758.022.117.054.231.096.342l.281.87c.048.15.078.306.089.463l.414 1.282c.099.266.172.54.22.819.023.117.056.231.099.343l.281.877c.042.111.074.226.096.343.042.234.108.464.199.685l.872 2.475.862-2.475a5.5 5.5 0 0 1 .377-.915.849.849 0 0 0 .068-.175l.045-.12a.296.296 0 0 1 .024-.212c.161-.315.295-.643.401-.98l.126-.343c.035-.097.076-.192.124-.284.109-.2.198-.412.264-.63l.551-1.543a3.43 3.43 0 0 1 .22-.514 3.4 3.4 0 0 0 .168-.4c.082-.217.161-.433.233-.652.052-.153.126-.299.219-.432l.397-1.124c.083-.256.187-.505.312-.743.056-.11.103-.225.141-.343l.233-.65c.028-.101.066-.199.113-.292.178-.35.326-.715.442-1.09l.086-.236.082-.24a.808.808 0 0 1 .199-.196l.109.042a.09.09 0 0 1 0 .068.111.111 0 0 0 .12-.03l1.028.342a.27.27 0 0 1 .182.236.316.316 0 0 1 0 .107l-.199.452c-.048.12-.108.236-.182.343a5.05 5.05 0 0 0-.37.85c-.023.08-.055.156-.096.229-.12.218-.216.447-.287.685l-.425 1.114a3.667 3.667 0 0 1-.244.569c-.093.186-.17.38-.229.579a4.76 4.76 0 0 1-.312.744c-.056.11-.103.224-.141.342l-.315.888a1.883 1.883 0 0 1-.216.432l-.466 1.305a4.793 4.793 0 0 1-.342.806c-.055.11-.101.224-.138.342l-.318.891a2.488 2.488 0 0 1-.144.343 3.952 3.952 0 0 0-.285.685l-1.185 3.393-.405 1.172.261.736c.083.206.145.42.185.638a.99.99 0 0 0 .062.233c.099.263.175.535.229.812.025.099.056.196.093.291l.226.634c.047.133.084.27.113.408.037.178.087.353.151.524l.551 1.56c.055.151.1.307.134.465.026.157.079.309.154.449.055.11.101.225.137.343l.73 2.21c.037.113.068.227.093.343.017.097.05.191.099.277.078.141.127.296.144.456.02.159.073.312.154.449.043.067.077.14.1.216.079.272.173.54.281.802l.274.812c.038.112.069.227.092.343.066.339.182.667.343.973.072.144.133.294.182.449l.435 1.278.082.229a.78.78 0 0 1 .092.124c.042.092.075.187.1.284.038.214.088.426.151.634.031.106 0 .237-.038.264a.438.438 0 0 1-.593-.027l-.274.089c-.048 0-.099 0-.158-.069a.83.83 0 0 1-.517 0c-.065 0-.134-.099-.182-.223l-.102-.281a2.455 2.455 0 0 0-.141-.325 1.045 1.045 0 0 1-.14-.497l-.038-.113c-.029-.093-.045-.184-.061-.275a1.781 1.781 0 0 0-.087-.349 7.482 7.482 0 0 1-.133-.381v-.001h-.001a6.536 6.536 0 0 0-.061-.183l-.038-.113-.743-2.138a4.215 4.215 0 0 1-.202-.686.825.825 0 0 0-.086-.219 1.73 1.73 0 0 1-.182-.569.696.696 0 0 0-.089-.281 1.067 1.067 0 0 1-.123-.343 8.334 8.334 0 0 0-.13-.466l-.216-.637-.374-1.1a2.738 2.738 0 0 0-.216-.497.964.964 0 0 1-.096-.281 3.905 3.905 0 0 0-.212-.757l-.058-.172-.686-1.96a3.246 3.246 0 0 1-.15-.52 2.523 2.523 0 0 0-.096-.343c-.052-.155-.103-.309-.161-.46a1.764 1.764 0 0 1-.1-.459l-.041-.116-.027-.034-.014-.017a5.07 5.07 0 0 1-.185.387 1.82 1.82 0 0 0-.113.294l-.23.652a3.233 3.233 0 0 1-.168.4c-.083.168-.155.341-.215.518l-.562 1.607a3.315 3.315 0 0 1-.196.459c-.08.142-.137.296-.168.456a2.97 2.97 0 0 1-.109.343l-.823 2.183a2.689 2.689 0 0 1-.154.342c-.049.09-.083.187-.103.288a1.298 1.298 0 0 1-.181.456c-.087.14-.145.296-.172.459a.852.852 0 0 1-.061.233 8.267 8.267 0 0 0-.299.819l-.315.826a3.368 3.368 0 0 1-.151.343 3.7 3.7 0 0 0-.373.986c-.037.162-.087.32-.147.473l-.49 1.299-.093.243a.834.834 0 0 1 0 .158 1.554 1.554 0 0 1-.106.288 6.515 6.515 0 0 0-.295.606c-.044.103-.144.192-.199.185a.43.43 0 0 1-.411-.4Zm-1.497-1.501c.225.274.465.536.719.784a.73.73 0 0 1 .031-.181l.103-.292c.041-.111.074-.226.099-.342.031-.176.103-.342.213-.483l.044-.117a2.4 2.4 0 0 1 .126-.248c.06-.108.121-.217.162-.345.05-.153.098-.276.146-.4l.067-.172.044-.113.819-2.176c.076-.237.174-.466.291-.685a.788.788 0 0 0 .076-.23 1.7 1.7 0 0 1 .226-.569.71.71 0 0 0 .113-.284c.021-.12.061-.236.12-.343.068-.147.137-.298.199-.452l.243-.644.421-1.121c.068-.172.12-.35.155-.531a.9.9 0 0 1 .106-.288 4.33 4.33 0 0 0 .343-.737l.061-.178.703-2.015c.057-.176.129-.347.216-.51a7.134 7.134 0 0 0 .308-.816 1.94 1.94 0 0 1 .216-.432l.041-.116a.52.52 0 0 1 0-.158c.121-.237.221-.485.298-.74l.323-.92a2.762 2.762 0 0 1-.165-.458 3.084 3.084 0 0 0-.154-.459l-1.08-3.057a4.792 4.792 0 0 1-.264-.925 1.325 1.325 0 0 0-.051-.175l-.038-.116a.28.28 0 0 1-.109-.178 5.698 5.698 0 0 0-.271-.994l-.113-.343a2.435 2.435 0 0 1-.076-.291 3.263 3.263 0 0 0-.168-.644l-.49-1.542a3.548 3.548 0 0 1-.133-.528 3.877 3.877 0 0 0-.106-.411l-.041-.126a45.426 45.426 0 0 0-.168-.515 1.745 1.745 0 0 1-.069-.476l-.36-1.104a4.075 4.075 0 0 1-.199-.76 2.043 2.043 0 0 0-.099-.343l-.206-.638a2.107 2.107 0 0 1-.085-.29 6.627 6.627 0 0 0-.066-.313l-.035.032-.029.023-.295.22a2.99 2.99 0 0 0-.343.27 1.537 1.537 0 0 1-.524.343l-.12.082c-.095.067-.193.12-.291.173-.124.068-.25.136-.37.231a6.84 6.84 0 0 1-.396.288l-.19.134-.12.086-2.231 1.6a5.456 5.456 0 0 1-.733.487c-.082.05-.158.11-.227.178a2.386 2.386 0 0 1-.592.411c-.11.05-.21.12-.295.206-.102.101-.218.189-.343.26l-.03.018a5.946 5.946 0 0 0-.46.297l-.665.477-1.144.822-.041.03v.021a.045.045 0 0 0 0 .042v.034l-.003.001c-.008.003-.035.011-.035.198v.702l.058 2.515c.009.22.002.44-.02.658-.009.145-.009.29 0 .435v.593c.006.19-.009.38-.045.566v.147a.96.96 0 0 1 .045.178 5.76 5.76 0 0 0-.02.943l.037 1.686a.796.796 0 0 1-.051.322c.026.217.032.436.02.654a4.87 4.87 0 0 0 0 .59l.09 3.92c.02.389.01.78-.028 1.168a1.553 1.553 0 0 0 0 .22v.15a.395.395 0 0 1 .055.247c-.021.183-.031.367-.031.552v.236l.034.031.147.147c.089.084.171.173.247.268.165.212.349.409.548.589l1.371 1.371c.161.15.311.311.449.483.107.131.221.256.343.374.192.195.387.387.586.572.135.134.257.283.363.442l1.004.98c.233.211.449.441.647.685.095.112.195.219.302.319l.583.569c.091.082.177.17.257.264Zm10.359-24.42h.02a.095.095 0 0 0 0-.04l-.02.04Zm-5.716.73h-.024l-.01-.024.034.024ZM20.229 97.084h.024v.065a.493.493 0 0 1-.024-.065Zm4.242-36.57v-.024a.071.071 0 0 0-.027.02l.027.004Zm48.612 43.307.175.23a.15.15 0 0 1 .034.137c.104.13.184.277.236.435a.148.148 0 0 1-.048.168l-.116.099a.83.83 0 0 0-.127.137.286.286 0 0 1-.226.141l-.048.038c-.041.029-.088.047-.134.065a.48.48 0 0 0-.164.089 2.252 2.252 0 0 1-.174.141l-.03.022-.015.012-.021.017-.048.037-.922.723a1.025 1.025 0 0 1-.315.206.255.255 0 0 0-.086.086.462.462 0 0 1-.25.181.187.187 0 0 0-.123.089.265.265 0 0 1-.14.12 2.703 2.703 0 0 0-.213.134l-.274.212-.473.371a.844.844 0 0 0-.192.209.25.25 0 0 1-.12.095 1.08 1.08 0 0 0-.343.216l-.072.059-.843.661a.926.926 0 0 1-.243.147.838.838 0 0 0-.161.093l-.046.036c-.051.04-.102.08-.15.122a.496.496 0 0 1-.229.099l-.048.041c0 .027 0 .072-.034.079a1.09 1.09 0 0 0-.343.216l-.569.442a.151.151 0 0 1-.065.036.147.147 0 0 1-.075.001.96.96 0 0 0-.065.065c-.042.046-.084.092-.151.117a.805.805 0 0 0-.202.147l-1.313 1.028a1.356 1.356 0 0 1-.425.264.389.389 0 0 0-.075.055l-.051.041c0 .041 0 .089-.052.103a1.546 1.546 0 0 0-.449.288 1.407 1.407 0 0 1-.147.116.619.619 0 0 1-.137.083.884.884 0 0 0-.291.181l-.648.507a.95.95 0 0 1-.24.148.82.82 0 0 0-.188.116c-.093.069-.185.137-.275.213a.512.512 0 0 1-.226.103l-.47.37c-.1.09-.217.163-.342.216a.62.62 0 0 0-.157.102l-.071.056-.041.033a5.292 5.292 0 0 1-.16.124.406.406 0 0 1-.13.089 1.835 1.835 0 0 0-.496.343l-.1.075-.1.079a.381.381 0 0 1-.17 0l-.076-.093a.043.043 0 0 1 0-.037.142.142 0 0 0-.089-.055 55.56 55.56 0 0 1-.273-.347c-.13-.166-.26-.332-.392-.496a.37.37 0 0 1-.092-.247.079.079 0 0 1 .027-.055c.046-.03.095-.056.143-.083l.027-.014.046-.026a.358.358 0 0 1 .185-.072 1.48 1.48 0 0 0 .404-.24.263.263 0 0 1 .107-.065.973.973 0 0 0 .19-.097.489.489 0 0 1-.063-.188c-.164.059-.327-.144-.467-.317l-.02-.025a1.03 1.03 0 0 1-.093-.525v-.586c0-.229 0-.479-.02-.685a4.119 4.119 0 0 1 .044-1.001v-.229c0-.207.02-.4.04-.595.02-.207.04-.415.04-.642v-1.388l.068-4.397c-.005-.47.018-.94.068-1.408a2.892 2.892 0 0 0 0-.456 6.195 6.195 0 0 1 .048-1.158 2.66 2.66 0 0 0 .02-.572 4.26 4.26 0 0 1 0-.686c.025-.308.045-.62.056-.932l.04-1.305.066-2.258v-1.046a2.964 2.964 0 0 1 0-.579c.03-.246.051-.5.062-.754l.023-.685-.027-.267-.449-4a11.364 11.364 0 0 1-.085-1.048c0-.208-.026-.446-.05-.662l-.002-.023c-.03-.312-.065-.627-.106-.94a6.404 6.404 0 0 1-.041-.904l-.024-.236a1.858 1.858 0 0 1-.076-.281 14.098 14.098 0 0 0-.126-1.501l-.179-1.61.072-1.23c.004-.174.033-.346.086-.511 0-.344.017-.687.051-1.028.029-.194.04-.416.05-.639.004-.101.01-.202.016-.3l.4-6.285.048-.802.035-.397v-.196c0-.055 0-.154.02-.154a.053.053 0 0 0 0-.027v-.782a1.06 1.06 0 0 1-.065-.394c.033-.622.003-1.263-.027-1.9l-.004-.087-.03-.713v-.583c.022-.428.022-.857 0-1.285l-.127-3.084c0-.113-.003-.226-.006-.34-.005-.232-.01-.466.006-.712v-.815l-.02-.655c0-.148-.022-.295-.043-.443a7.104 7.104 0 0 1-.026-.204c-.03-.301-.039-.603-.028-.905l-.223-2.234a15.09 15.09 0 0 1-.106-1.512c0-.154-.018-.333-.036-.505l-.019-.18-.13-1.292-.018-.181a4 4 0 0 1-.03-.405c0-.552-.057-1.114-.115-1.678v-.001a52.813 52.813 0 0 1-.053-.534l-.048-.47-.048-.473c.01-.163.033-.325.072-.483h.12c.017.04.027.08.031.123.034 0 .072-.02.086-.14l1.069-.106c.092 0 .185.044.28.277a.783.783 0 0 1 .045.196l.059.928c.017.24.017.48 0 .72 0 .572.048 1.151.113 1.747.02.155.03.31.034.466.006.468.037.934.093 1.399l.226 2.244v.01c.038.391.075.778.075 1.159 0 .264.03.533.059.803v.001c.013.122.026.245.037.368.069.503.099 1.01.09 1.518v.706l.071 1.778c.013.303.006.606-.02.908l.106 2.622.007.166v.001c.022.496.044.99.017 1.477v.706l.075 1.786c0 .079.003.16.006.24v.001c.005.162.01.323-.006.465v.356l-.027.305-.02.27-.035.545-.387 6.765-.185 3.553.102.915c.058.427.093.856.107 1.285.002.155.012.31.03.463l.002.013c.061.547.122 1.091.132 1.622 0 .128.018.275.036.42l.019.166.144 1.302.007.07c.025.25.052.507.058.745 0 .27.03.54.06.822.01.076.018.153.026.23l.342 3.19.024.22v.418c0 .127 0 .25-.027.37a5.19 5.19 0 0 0-.024.922v.685l-.127 4.397c0 .236-.024.473-.048.685-.01.137-.014.274-.01.412l.583-.474a.74.74 0 0 1 .267-.174.154.154 0 0 0 .072-.076.34.34 0 0 1 .212-.154.143.143 0 0 0 .103-.079.233.233 0 0 1 .117-.106c.063-.032.123-.069.181-.11a3.9 3.9 0 0 0 .23-.185c.13-.11.264-.216.397-.322a.657.657 0 0 0 .154-.181.185.185 0 0 1 .1-.086.79.79 0 0 0 .295-.182l.065-.051.706-.572a.568.568 0 0 1 .205-.124.634.634 0 0 0 .137-.082c.058-.04.113-.085.165-.134a.38.38 0 0 1 .198-.082l.042-.034c0-.024 0-.069.024-.072a.799.799 0 0 0 .288-.185l.476-.384a.137.137 0 0 1 .127-.027.504.504 0 0 0 .05-.056c.034-.04.068-.08.128-.099a.588.588 0 0 0 .168-.126l1.103-.898a1.06 1.06 0 0 1 .36-.223.275.275 0 0 0 .065-.044l.041-.035c0-.04 0-.085.041-.096.142-.056.271-.14.38-.246l.124-.1a.37.37 0 0 1 .117-.068.685.685 0 0 0 .25-.154l.541-.44a.686.686 0 0 1 .206-.126.648.648 0 0 0 .16-.096c.08-.057.156-.119.227-.185a.394.394 0 0 1 .199-.082l.394-.322a.792.792 0 0 1 .294-.182.457.457 0 0 0 .134-.089l.226-.185a.346.346 0 0 1 .11-.075 1.41 1.41 0 0 0 .421-.278l.083-.069.085-.068a.362.362 0 0 1 .158.024l.075.093v.034a.133.133 0 0 0 .086.058l.125.153c.184.228.37.456.56.68.06.066.097.15.103.24a.048.048 0 0 1 0 .048c-.032.02-.066.039-.1.058-.029.015-.057.03-.085.048a.342.342 0 0 1-.161.055.95.95 0 0 0-.343.202.185.185 0 0 1-.089.055.686.686 0 0 0-.274.164l-.394.322a.685.685 0 0 1-.23.137.686.686 0 0 0-.219.151.866.866 0 0 1-.295.182.403.403 0 0 0-.13.089c-.106.082-.212.164-.312.253a.425.425 0 0 1-.198.083l-.46.37a.845.845 0 0 1-.315.202.415.415 0 0 0-.134.089l-.128.105a6.9 6.9 0 0 1-.183.148.516.516 0 0 1-.134.086.8.8 0 0 0-.274.168l-1.19.966-.852.648a.637.637 0 0 1-.25.154.322.322 0 0 0-.096.052.954.954 0 0 1-.32.195.342.342 0 0 0-.109.076l-.059.048c-.056.047-.112.094-.17.136a.648.648 0 0 1-.162.096.74.74 0 0 0-.205.127l-.562.456a.685.685 0 0 1-.182.117.294.294 0 0 0-.16.133.424.424 0 0 1-.107.117l-.201.164h-.001c-.19.156-.38.311-.572.463a.55.55 0 0 1-.137.079.188.188 0 0 0-.1.085.235.235 0 0 1-.168.127.23.23 0 0 0-.16.13l-.004.007c-.016.032-.033.066-.062.079-.072.032-.125.087-.179.142a.957.957 0 0 1-.105.098c-.058.043-.113.09-.169.136l-.053.044a3.97 3.97 0 0 1-.07.056.55.55 0 0 1-.137.08.686.686 0 0 0-.342.283.697.697 0 0 1-.148.155l-.493.366-.082.069a.265.265 0 0 1-.021.079.298.298 0 0 1-.1.082l-.017.007c.005.112.002.224-.007.336-.034.394-.033.784-.032 1.175 0 .156 0 .313-.002.469l-.027 1.662c0 .237-.017.477-.038.686-.06.659-.07 1.323-.03 1.984.02.312.016.624 0 .939l-.042 2.614v.477c.023.092.037.186.045.281.012.193.012.386 0 .579-.016.171-.03.342-.042.515.025-.02.05-.041.073-.063.1-.091.217-.164.342-.216a.559.559 0 0 0 .154-.102c.127-.096.25-.192.374-.295a.556.556 0 0 1 .226-.1l.548-.431c.109-.099.234-.178.37-.233a.68.68 0 0 0 .158-.107l.374-.291a.58.58 0 0 1 .157-.103c.12-.045.228-.113.322-.198l1.416-1.118.973-.76a.84.84 0 0 1 .291-.182.362.362 0 0 0 .11-.062c.11-.098.239-.176.377-.229a.543.543 0 0 0 .127-.089l.091-.073c.061-.049.122-.097.186-.143a1.03 1.03 0 0 1 .185-.113.867.867 0 0 0 .24-.148l.685-.527a.917.917 0 0 1 .21-.137.393.393 0 0 0 .191-.155.691.691 0 0 1 .134-.13l.922-.726a.727.727 0 0 1 .16-.093.245.245 0 0 0 .12-.099.323.323 0 0 1 .2-.144.315.315 0 0 0 .191-.154l.006-.009c.02-.033.042-.071.073-.084.123-.081.238-.174.343-.277.056-.043.111-.088.166-.132.06-.048.118-.095.177-.139a.68.68 0 0 1 .16-.096.95.95 0 0 0 .415-.343.885.885 0 0 1 .182-.174l.545-.432.1-.079c0-.027 0-.062.03-.082a.42.42 0 0 1 .12-.1c.106-.042.207-.095.301-.157a.154.154 0 0 1 .172 0 .679.679 0 0 1 .25.493Zm-14.475-41.93h-.024l-.003-.065c.01.021.02.043.027.065Zm34.617 41.372a5.492 5.492 0 0 0-.178-.23.66.66 0 0 0-.236-.514.154.154 0 0 0-.172 0 2.136 2.136 0 0 1-.301.158.334.334 0 0 0-.12.096c-.03.02-.03.058-.03.085l-.1.079-.548.428a.997.997 0 0 0-.182.175.949.949 0 0 1-.415.343.677.677 0 0 0-.16.096l-.068.055c-.089.072-.18.147-.276.216a2.07 2.07 0 0 1-.342.277c-.028.011-.05.043-.07.073l-.004.007-.008.013a.313.313 0 0 1-.192.154.343.343 0 0 0-.2.144.225.225 0 0 1-.119.096.869.869 0 0 0-.161.096c-.309.24-.617.48-.922.723a.691.691 0 0 0-.134.13.386.386 0 0 1-.191.154 1.05 1.05 0 0 0-.213.137l-.07.053c-.214.162-.414.314-.615.471a.903.903 0 0 1-.243.148 1.033 1.033 0 0 0-.186.113 4.356 4.356 0 0 0-.185.143l-.038.03-.054.043a.6.6 0 0 1-.127.089c-.137.054-.265.13-.377.226a.312.312 0 0 1-.11.062.9.9 0 0 0-.294.181l-.97.761-1.422 1.114a1.128 1.128 0 0 1-.322.199.585.585 0 0 0-.158.099l-.373.291a.507.507 0 0 1-.158.106 1.235 1.235 0 0 0-.37.233l-.548.432a.526.526 0 0 0-.23.1c-.092.076-.188.15-.283.224l-.087.067a.618.618 0 0 1-.14.095c-.003-.09-.004-.18-.004-.27a5.726 5.726 0 0 0-.055-.576 1.818 1.818 0 0 0-.075-.277l-.045-.473-.243-2.601a10.482 10.482 0 0 0-.113-.932 13.122 13.122 0 0 1-.185-1.977 10.044 10.044 0 0 0-.038-.686l-.154-1.655c-.014-.157-.038-.37-.055-.5v-.87c.041.052.09.098.144.137.02.019.047.031.075.035a.13.13 0 0 0 .083-.015c.083-.057.173-.105.267-.144a.3.3 0 0 0 .1-.089c.02-.02.02-.055.02-.082l.082-.072.47-.398a.672.672 0 0 0 .147-.164c.08-.134.2-.24.343-.302a.606.606 0 0 0 .14-.089c.05-.04.1-.083.149-.124l.15-.126c.036-.03.069-.066.102-.101a.644.644 0 0 1 .185-.156c.03-.014.065-.055.065-.089a.266.266 0 0 1 .165-.14.259.259 0 0 0 .171-.134.17.17 0 0 1 .1-.09.659.659 0 0 0 .14-.088l.785-.669a.64.64 0 0 0 .113-.123.301.301 0 0 1 .16-.144.654.654 0 0 0 .182-.123c.135-.102.266-.217.397-.333l.179-.157a.726.726 0 0 1 .21-.134.685.685 0 0 0 .16-.106c.051-.038.1-.08.148-.123l.089-.076a.417.417 0 0 1 .11-.082c.12-.05.23-.12.325-.21a.279.279 0 0 1 .096-.057.662.662 0 0 0 .253-.165l.83-.706 1.206-1.028a.83.83 0 0 1 .277-.181.459.459 0 0 0 .137-.093c.065-.053.128-.107.19-.16a10.607 10.607 0 0 1 .13-.11.467.467 0 0 1 .136-.1.89.89 0 0 0 .322-.216l.466-.397a.407.407 0 0 0 .2-.093c.102-.092.208-.181.318-.27a.39.39 0 0 1 .133-.093.93.93 0 0 0 .299-.199.767.767 0 0 1 .226-.164.599.599 0 0 0 .23-.148l.404-.342a.685.685 0 0 1 .277-.179.273.273 0 0 0 .093-.061 1.06 1.06 0 0 1 .342-.22.343.343 0 0 0 .165-.065c.027-.015.06-.036.092-.056.044-.028.084-.053.096-.057.021-.007.021-.034.021-.051a.387.387 0 0 0-.11-.237l-.685-.815a.144.144 0 0 1-.086-.055.044.044 0 0 0 0-.034l-.078-.093a.371.371 0 0 0-.162 0l-.085.072-.086.072a1.404 1.404 0 0 1-.428.302.342.342 0 0 0-.11.082l-.233.195a.453.453 0 0 1-.137.096.872.872 0 0 0-.298.199l-.401.343a.394.394 0 0 0-.199.092 6.423 6.423 0 0 1-.233.199.826.826 0 0 1-.164.103.758.758 0 0 0-.21.137l-.551.47a.71.71 0 0 1-.254.167.412.412 0 0 0-.116.072c-.045.034-.086.072-.127.11-.112.11-.243.2-.387.264-.041.013-.041.058-.041.099l-.041.038c-.01.005-.018.013-.026.021-.013.013-.026.027-.043.027a1.14 1.14 0 0 0-.367.243l-1.117.956a.659.659 0 0 1-.175.137c-.058.02-.092.062-.125.103a.509.509 0 0 1-.056.062.15.15 0 0 0-.13.034l-.48.411a.854.854 0 0 1-.295.195c-.024.007-.024.052-.024.076l-.044.037a.394.394 0 0 0-.2.093c-.054.048-.109.096-.17.14a.5.5 0 0 1-.138.09.655.655 0 0 0-.212.133l-.716.614-.065.054a.805.805 0 0 1-.298.196.192.192 0 0 0-.103.092.656.656 0 0 1-.158.192l-.4.343a6.528 6.528 0 0 0-.096.08 4.29 4.29 0 0 1-.141.119 1.42 1.42 0 0 1-.185.12.233.233 0 0 0-.117.113.146.146 0 0 1-.106.082.344.344 0 0 0-.223.184c-.018.03-.04.063-.065.063a.788.788 0 0 0-.27.188l-.785.685-.041.035-.062.05c-.047.038-.094.075-.144.128a.34.34 0 0 1-.12.075 4.362 4.362 0 0 0-.007-.86 3.218 3.218 0 0 1 0-.575v-.686l-.062-4.396-.003-.112a7.275 7.275 0 0 0-.03-.574 5.499 5.499 0 0 1 0-.921v-.936l-.035-3.21a7.692 7.692 0 0 1 0-1.053c.017-.257.017-.545.017-.819v-1.895c.034-.535.034-1.083.034-1.638v-.466c.032-.429.04-.859.024-1.288v-.932l.25-3.636.48-6.727.038-.548.024-.27.034-.323v-.367c.002-.097-.008-.21-.017-.327a4.32 4.32 0 0 1-.02-.358l-.141-1.772-.009-.107c-.015-.193-.032-.402-.032-.578.01-.482-.031-.971-.072-1.464l-.014-.174-.205-2.597c.02-.302.02-.604 0-.905l-.14-1.765-.009-.102c-.015-.187-.03-.371-.03-.583v-1.514c0-.133-.001-.265-.003-.396-.004-.263-.008-.524.003-.777.012-.253.008-.51.004-.77-.002-.13-.004-.261-.004-.392l-.044-2.244c-.02-.465-.014-.93.017-1.395.009-.155.009-.31 0-.466a19.444 19.444 0 0 1 .027-1.737c.032-.238.047-.477.045-.716v-.926a.808.808 0 0 0-.03-.195c-.076-.24-.165-.298-.258-.298l-1.072.024c-.028.13-.062.13-.096.13a.342.342 0 0 0-.024-.127h-.12a2.4 2.4 0 0 0-.11.477v.949l.01.408c.018.611.035 1.222-.01 1.82v.585l.024 1.302v.703a15.022 15.022 0 0 0 0 1.521l.045 2.248a6.424 6.424 0 0 0-.041.912v.654l.05.651.008.107c.015.24.03.485.03.709 0 .35.024.713.052 1.056l.243 3.084c.044.428.066.858.065 1.288-.001.09.006.19.013.293.008.096.015.195.015.29l.055.712.016.215c.047.597.093 1.192.093 1.776 0 .136.027.27.08.394l.02.237c.02.11.02.236.02.343.005.07.005.139 0 .209v.134l-.02.194-.038.398-.058.802-.432 6.257c-.006.085-.01.172-.015.26-.012.234-.025.471-.057.676-.038.341-.059.684-.062 1.028-.057.163-.09.334-.096.507l-.082 1.203.017 1.566.002.164.001.11c.005.413.01.826-.027 1.23.006.096.02.191.045.284v.237c-.04.3-.058.602-.052.904V84.81c-.02.346-.02.709-.02 1.052l.044 4.023v.342c.02.506.012 1.013-.024 1.518a3.295 3.295 0 0 0 0 .58c.035.342.059.685.059 1.028l.03 2.25.018 1.306v.932c-.015.229-.01.458.017.686.022.19.022.382 0 .572a6.237 6.237 0 0 0 0 1.158c.01.152.01.304 0 .456-.02.154-.02.312-.02.47v.517l.047.507.411 4.349.02.229c.015.142.027.285.04.427.021.242.043.484.07.721.032.25.034.479.037.707.002.176.004.35.018.534l.021.229c-.023.334-.001.67.065.998.033.167.055.358.076.545l.017.14.058.579a1 1 0 0 0 .15.511c.032.025.063.053.094.08.056.05.113.1.17.138l-.089.069a.913.913 0 0 1-.322.196.282.282 0 0 0-.106.065c-.12.103-.256.184-.404.24a.424.424 0 0 0-.185.068l-.046.026c-.058.033-.116.066-.17.101a.083.083 0 0 0-.028.052.364.364 0 0 0 .093.246c.155.195.308.392.46.588l.001.002.2.257a.137.137 0 0 1 .09.058v.034l.071.096a.369.369 0 0 0 .175 0l.1-.079.099-.075c.146-.136.314-.246.497-.326a.628.628 0 0 0 .13-.089c.09-.072.178-.144.27-.212a.623.623 0 0 1 .158-.103 1.19 1.19 0 0 0 .343-.216l.47-.37a.497.497 0 0 0 .23-.099c.088-.076.177-.148.273-.216a1.03 1.03 0 0 1 .185-.113.926.926 0 0 0 .244-.148l.647-.507c.086-.076.185-.138.291-.181a.517.517 0 0 0 .138-.079l.15-.117c.13-.121.282-.218.446-.288.055-.013.055-.061.055-.102l.048-.042a.583.583 0 0 1 .078-.051 1.52 1.52 0 0 0 .425-.264c.29-.229.584-.457.878-.686l.438-.342a.812.812 0 0 1 .202-.147.355.355 0 0 0 .145-.111l.028-.03a.374.374 0 0 1 .04-.037.164.164 0 0 0 .076-.003.16.16 0 0 0 .068-.035l.565-.442c.1-.092.216-.166.343-.216.034-.003.034-.051.034-.079l.052-.038a.54.54 0 0 0 .226-.102c.063-.055.13-.107.198-.155a.769.769 0 0 1 .162-.095.89.89 0 0 0 .24-.144l.842-.662.076-.058c.1-.092.216-.165.342-.216a.229.229 0 0 0 .12-.096.828.828 0 0 1 .192-.205c.108-.08.212-.163.316-.246l.066-.053.091-.072.274-.212c.069-.049.141-.092.216-.13a.313.313 0 0 0 .137-.12.177.177 0 0 1 .052-.058.172.172 0 0 1 .072-.031.475.475 0 0 0 .25-.182.217.217 0 0 1 .089-.086c.117-.048.224-.118.315-.205l.922-.72.048-.037c.028-.023.055-.043.083-.063.052-.039.104-.077.16-.129a.502.502 0 0 1 .162-.09c.046-.018.092-.036.133-.065l.051-.037a.295.295 0 0 0 .226-.141.698.698 0 0 1 .127-.137l.117-.099a.147.147 0 0 0 .048-.168 1.338 1.338 0 0 0-.237-.435.15.15 0 0 0-.03-.137Zm-14.772-42.15h.024a.562.562 0 0 0-.028-.068l.004.069Zm9.869 31.081V92.167a.074.074 0 0 1 0 .027Zm38.255 23.531h-.292c-.051 0-.096-.062-.13-.226-.149.06-.299-.105-.437-.257l-.033-.037-.027-.028a1.091 1.091 0 0 1-.109-.542v-.606c0-.24 0-.501-.041-.713a4.112 4.112 0 0 1 0-1.028v-.24c0-.191.011-.372.022-.554.014-.237.028-.475.019-.734-.013-.284-.016-.572-.02-.859v-.004a38.093 38.093 0 0 0-.004-.34v-.014l-.1-.085a.325.325 0 0 1-.12-.247.111.111 0 0 1 .028-.069l.186-.172-.066-4.224c0-.164-.004-.328-.009-.491-.008-.327-.016-.654.009-.976a3.297 3.297 0 0 0-.028-.476 6.49 6.49 0 0 1-.027-1.207 2.7 2.7 0 0 0 0-.596 4.544 4.544 0 0 1-.031-.719v-.974l-.045-1.37-.078-2.348c0-.373-.038-.73-.079-1.086a3.575 3.575 0 0 1-.024-.603c.023-.345.015-.697.007-1.05-.003-.178-.007-.356-.007-.533V87.739c0-.374 0-.737.031-1.097 0-.12.006-.25.012-.383.005-.115.01-.232.012-.347v-.987c-.003-.315.016-.63.058-.942v-.25a1.579 1.579 0 0 1-.041-.298c.043-.459.039-.917.035-1.397l-.001-.176v-1.409c0-.301.013-.601.026-.901v-.002c.007-.167.014-.334.019-.501.003-.18.03-.36.082-.532a9.907 9.907 0 0 1 .034-1.09c.027-.205.033-.443.039-.68.003-.1.005-.2.009-.296l.257-6.51c.015-.57.055-1.135.095-1.686l.018-.254v-.614a1.123 1.123 0 0 1-.061-.414c.032-.457.021-.914.01-1.371-.005-.229-.01-.457-.01-.686V63.57c.022-.29.015-.587.007-.886-.004-.151-.007-.303-.007-.454l-.083-3.214v-3.317a7.48 7.48 0 0 1 .069-.946l.024-2.344c0-.531 0-1.063.058-1.58.019-.175.021-.38.023-.58l.001-.15v-1.37c0-.206 0-.432.017-.614.057-.565.061-1.148.066-1.733.001-.195.003-.39.006-.583v-.987c.026-.168.067-.334.124-.494h.119a.337.337 0 0 1 .018.134c.037 0 .072 0 .102-.134h1.073c.092 0 .178.069.25.319a.947.947 0 0 1 .021.206l-.045.966a5.45 5.45 0 0 1-.065.744 19.8 19.8 0 0 0-.079 1.812c.002.162-.005.323-.02.483a14.38 14.38 0 0 0-.059 1.453l-.024 2.344c0 .408 0 .813-.048 1.21-.034.284-.033.576-.032.87v.002c0 .117 0 .234-.002.351 0 .531-.017 1.06-.048 1.58v.73l.048 1.854c.007.314-.005.63-.038.942l.072 2.724c0 .193.005.385.009.577.008.382.017.763-.009 1.137v.733l.045 1.86v.734c0 .161-.015.346-.029.53l-.016.197-.034.736-.255 6.42.098-.087a.147.147 0 0 1 .14-.038c.124-.114.269-.201.428-.256a.179.179 0 0 1 .192.055l.131.133a.93.93 0 0 0 .171.144.416.416 0 0 1 .199.254l.048.058c.069.118.146.233.229.342.054.052.103.107.153.162l.101.11.048.054.963 1.028c.11.1.206.216.284.343.029.04.066.074.11.099.106.07.19.169.243.284a.269.269 0 0 0 .123.138.461.461 0 0 1 .158.157c.056.084.116.164.182.24.055.063.112.125.169.186l.115.126.494.531c.077.084.164.158.26.22a.34.34 0 0 1 .13.133c.08.144.18.276.298.39l.079.086.881.95c.081.08.15.173.205.274.04.065.086.126.138.181a4.1 4.1 0 0 0 .205.223.724.724 0 0 1 .154.257l.052.055c.031 0 .082.02.092.04.081.143.183.273.302.385.195.212.391.425.596.63a.236.236 0 0 1 .072.158c.027.027.057.05.088.074.057.045.115.09.155.162.059.083.128.158.206.223l1.412 1.45c.148.138.276.296.38.469.021.031.045.06.072.086l.055.055a.13.13 0 0 1 .127.054c.111.185.25.353.411.497l.161.165a.865.865 0 0 1 .116.147c.07.122.158.231.261.326l.685.712c.082.08.154.17.213.268.049.073.104.142.164.205.096.103.196.206.295.302a.68.68 0 0 1 .161.253l.507.518c.121.111.224.24.309.38.041.065.09.124.147.175l.291.302a.69.69 0 0 1 .127.14 2.6 2.6 0 0 0 .463.548l.106.11.106.11a.418.418 0 0 1 .024.191l-.086.086a.054.054 0 0 1-.039-.013.018.018 0 0 1-.005-.004.114.114 0 0 0-.041.1l-.212.207a.602.602 0 0 1 .006.074l.216.195a.144.144 0 0 1 .045.144c.129.109.23.248.294.404a.194.194 0 0 1-.044.206l-.127.154a1.227 1.227 0 0 0-.137.199.475.475 0 0 1-.25.24l-.055.058c-.048.05-.103.09-.16.132-.062.044-.126.09-.183.152-.062.068-.11.124-.156.178l-.108.124-.051.061-1.008 1.142a1.853 1.853 0 0 1-.342.342.364.364 0 0 0-.096.127.747.747 0 0 1-.274.291.334.334 0 0 0-.137.148.476.476 0 0 1-.151.185 3.01 3.01 0 0 0-.237.226c-.102.11-.198.223-.298.343l-.517.589c-.083.09-.153.19-.209.298a.387.387 0 0 1-.13.154 1.768 1.768 0 0 0-.384.367l-.079.092-.925 1.028c-.079.095-.169.18-.268.254a1.262 1.262 0 0 0-.178.165 4.577 4.577 0 0 0-.216.246.806.806 0 0 1-.253.196l-.055.061c0 .035 0 .089-.034.1a1.895 1.895 0 0 0-.377.366l-.617.703a.253.253 0 0 1-.161.096c-.063.105-.141.2-.233.281a1.313 1.313 0 0 0-.219.24l-1.429 1.641c-.136.17-.292.322-.466.452a.556.556 0 0 0-.086.089l-.031.093a.16.16 0 0 1-.008.075.158.158 0 0 1-.043.062 2.56 2.56 0 0 0-.494.487l-.161.188a1.12 1.12 0 0 1-.147.137 1.566 1.566 0 0 0-.343.312l-.685.809a1.662 1.662 0 0 1-.264.253 1.251 1.251 0 0 0-.206.199c-.103.11-.202.224-.298.343a.855.855 0 0 1-.253.198l-.525.569c-.108.14-.236.264-.38.367-.064.051-.121.11-.171.175l-.299.342a.678.678 0 0 1-.14.148 3.07 3.07 0 0 0-.174.147c.01.216.015.425.02.644l.044 2.742v.493c.023.097.04.196.052.295.011.201.011.402 0 .603-.024.432-.042.863-.042 1.312a.845.845 0 0 1-.109.487c-.254.068-.439.027-.603-.473Zm14.176-23.353a.6.6 0 0 0 .061.129l-.588.673c-.075.079-.141.166-.196.26-.113.204-.268.38-.456.518-.064.049-.123.104-.178.164l-.383.432c-.114.154-.239.3-.374.435a.395.395 0 0 0-.086.134.539.539 0 0 1-.212.243.528.528 0 0 0-.216.233.436.436 0 0 1-.13.154 1.197 1.197 0 0 0-.182.165l-1.007 1.144a.87.87 0 0 0-.144.199.719.719 0 0 1-.213.24 1.658 1.658 0 0 0-.233.23l-.736.832c-.079.095-.169.18-.268.254a1.558 1.558 0 0 0-.205.195l-.302.343a.998.998 0 0 1-.144.147 2.333 2.333 0 0 0-.414.39.532.532 0 0 1-.12.11c-.13.084-.246.188-.343.309l-1.059 1.213-1.545 1.775c-.098.13-.213.245-.343.343a.93.93 0 0 0-.175.174l-.408.466a.886.886 0 0 1-.171.175 1.963 1.963 0 0 0-.408.401l-.596.685a.806.806 0 0 0-.25.199l-.408.466a.928.928 0 0 1-.171.172c-.142.105-.269.23-.377.37a1.67 1.67 0 0 1-.285.291c-.111.079-.21.174-.294.281l-.042.047.007-.13v-.733l-.027-1.734c0-.253-.014-.506-.029-.759v-.001a10.766 10.766 0 0 1-.026-.953 3.955 3.955 0 0 0-.041-.473 4.668 4.668 0 0 1-.034-.96 4.805 4.805 0 0 0-.024-.959 3.34 3.34 0 0 1-.024-.6v-.73l-.155-4.578c-.006-.243-.02-.5-.044-.73a5.494 5.494 0 0 1-.034-.96c.013-.203.009-.413.004-.63a19.008 19.008 0 0 1-.004-.342v-3.338c0-.374.003-.737.03-1.1.024-.267.024-.562.024-.85v-1.37l-.001-.125-.002-.086c-.004-.141-.008-.282.003-.403.048-.565.048-1.138.048-1.713a4.325 4.325 0 0 1 0-.483c.034-.446.046-.893.035-1.34V80.08l.048-1.21.073-1.895.03.031.572.62c.068.077.143.146.226.206.179.12.328.281.435.47.04.066.086.127.137.185l.367.431c.132.119.254.247.367.384.03.04.07.072.116.093a.444.444 0 0 1 .202.219.484.484 0 0 0 .199.223c.053.033.097.079.127.133.04.066.086.127.137.185l.963 1.028c.05.058.108.108.171.151a.55.55 0 0 1 .202.216c.055.086.118.166.189.24l.685.76c.08.082.151.173.209.271.046.077.1.148.161.213l.285.312a.81.81 0 0 1 .123.144c.087.155.196.298.322.425a.492.492 0 0 1 .089.123c.065.128.15.244.254.343.342.37.685.736 1.028 1.079l1.528 1.566c.112.1.209.215.288.343a.774.774 0 0 0 .144.174l.401.415c.058.05.109.11.151.175.092.153.208.29.342.408l.59.606a.811.811 0 0 0 .161.25l.401.412c.056.051.106.11.147.174.084.141.188.27.308.38.098.083.183.18.251.289.063.11.143.209.236.294l.507.521c.113.098.209.214.285.343a.427.427 0 0 0 .096.116c.134.132.249.282.342.446Zm-14.971-30.464h.02a.303.303 0 0 0-.024-.072l.004.072Zm4.677 44.15v-.02a.193.193 0 0 0 0 .034v-.014Zm-25.937-11.569.158 9.705 1.37-.02-.157-9.702-.106-9.708-1.371.017.106 9.709Z" fill="#fff"/><path stroke="#DDD" d="M.5.5h159v159H.5z"/></svg>