<svg width="160" height="160" fill="none" xmlns="http://www.w3.org/2000/svg"><path fill="#fff" fill-opacity=".1" d="M.5.5h159v159H.5z"/><path fill-rule="evenodd" clip-rule="evenodd" d="m47.794 44.953.28.065c.049 0 .083.072.08.23.148-.023.249.135.348.29l.066.1a.928.928 0 0 1 0 .514l-.116.552-.031.159c-.033.17-.067.34-.083.492a3.69 3.69 0 0 1-.233.939l-.051.216a7.665 7.665 0 0 1-.142.508c-.064.208-.127.417-.173.65-.048.242-.102.484-.156.726l-.08.364-.049.22-.911 4.145-.161.737-.076.21-.058.153c-.041.103-.082.206-.13.305-.055.138-.098.28-.13.425-.09.364-.216.719-.374 1.06a2.45 2.45 0 0 0-.185.523c-.05.219-.118.432-.206.638-.11.28-.219.565-.318.85l-.411 1.2-.706 2.055c-.113.343-.206.648-.285.973-.042.183-.102.36-.178.532-.196.447-.369.905-.517 1.37l-.124.343-.144.432-2.995 2.714c-.264.24-.524.472-.802.685-.09.07-.179.147-.27.227-.086.074-.173.151-.267.225-.237.213-.473.425-.703.641a6.75 6.75 0 0 1-.716.569l-.178.161a1.672 1.672 0 0 1-.182.22c-.344.255-.666.549-.988.844l-.16.146-2.032 1.84-1.093-1.097a7.832 7.832 0 0 1-.343-.363.882.882 0 0 1-.089-.117.652.652 0 0 1-.055-.092 10.045 10.045 0 0 1-.747-.737 7.038 7.038 0 0 0-.393-.415c-.089-.089-.18-.18-.265-.27l-4.427-4.455-.456-.46-.569-.588-.133-.436-.069-.27a2.522 2.522 0 0 0-.058-.194 5.239 5.239 0 0 1-.048-.15l-.075-.218a.977.977 0 0 1-.175-.343 18.99 18.99 0 0 0-.583-1.84l-.226-.655-.039-.12a5.112 5.112 0 0 1-.125-.421 12.241 12.241 0 0 0-.37-1.193l-.98-2.837a11.74 11.74 0 0 1-.302-.973c-.055-.219-.133-.454-.208-.68l-.025-.078-.192-.561-.117-.772a6.218 6.218 0 0 1-.068-.873l-.319-2.146-.014-.093c-.067-.455-.135-.91-.157-1.36 0-.14-.025-.3-.05-.464a8.918 8.918 0 0 1-.032-.22l-.182-1.241a10.16 10.16 0 0 0-.025-.161 3.569 3.569 0 0 1-.05-.401c-.026-.52-.108-1.067-.189-1.612l-.075-.516-.065-.453-.069-.452c0-.158.017-.315.052-.47h.116a.31.31 0 0 1 .038.117c.034 0 .072-.02.082-.134l1.062-.137c.093 0 .185.038.292.26a.654.654 0 0 1 .054.186l.096.89c.031.228.046.457.045.686.028.591.089 1.18.181 1.765l.005.033c.02.139.04.289.047.412.025.45.076.897.154 1.34l.315 2.149a9.7 9.7 0 0 1 .127 1.117c.013.268.058.552.103.834l.044.287.09.633.04.316c.012.08.018.162.018.243v.024l.024.093c.032.144.088.306.144.468.02.061.042.122.061.183l.566 1.63c.096.277.171.56.226.847l.83 2.399.077.224c.15.432.3.862.402 1.294.059.221.128.44.21.654l.561 1.635.04.116v.001c.064.183.13.37.17.534l.116.449c.02.03.267.278.442.449l4.797 4.797 1.902 1.91.421-.385.1-.09c.289-.262.58-.525.884-.753.12-.094.234-.194.343-.301l.047-.043c.399-.359.792-.713 1.21-1.026.108-.085.226-.193.342-.3l.104-.094.973-.881c.206-.185.421-.374.627-.535.278-.216.541-.449.805-.685l1.995-1.806.089-.26.017-.049c.094-.273.191-.556.298-.808a5.48 5.48 0 0 0 .288-.846c.055-.22.121-.438.199-.652l1.37-4.04c.072-.216.158-.431.244-.637.074-.172.133-.35.178-.531a3.97 3.97 0 0 1 .294-.843c.127-.272.224-.557.288-.85a2.77 2.77 0 0 1 .12-.425c.052-.13.1-.26.148-.394l.12-.374.065-.342.079-.374.342-1.57c.052-.222.106-.448.168-.657.187-.613.326-1.24.415-1.875.035-.276.093-.547.154-.826l.014-.065.541-2.467.096-.449a2.57 2.57 0 0 1 0-.277c.03-.185.07-.368.12-.549.113-.383.223-.77.322-1.175.048-.199.154-.4.212-.415.216-.061.388.01.443.494ZM22.919 60.562h.027l-.044-.058.017.058Zm81.286 48.471-.267-.11c-.048-.02-.076-.072-.069-.181-.142-.017-.232-.15-.322-.281v-.001c-.02-.03-.041-.06-.062-.088a.493.493 0 0 1 .024-.364l.131-.366a4.44 4.44 0 0 0 .133-.439 1.71 1.71 0 0 1 .23-.575 3.344 3.344 0 0 1-.137-.199c-.258-.34-.54-.66-.843-.96a2.445 2.445 0 0 1-.22-.246 6.252 6.252 0 0 0-.654-.744l-1.107-1.148a5.84 5.84 0 0 1-.545-.62 6.7 6.7 0 0 0-.562-.614 8.17 8.17 0 0 1-.716-.805 4.698 4.698 0 0 0-.343-.37l-.873-.905a3.475 3.475 0 0 1-.401-.503l-1.285-1.333-.405-.422-.202-.23c-.106-.12-.209-.24-.305-.36a3.309 3.309 0 0 0-.192-.219l-.044-.048.027-.452.096-1.419c.005-.166.02-.332.048-.497.056-.327.092-.658.106-.99l.309-4.797.168-2.574-.021-.637a5.756 5.756 0 0 1 0-.912 2.683 2.683 0 0 0 0-.342 9.343 9.343 0 0 1 .017-1.162c.008-.14.008-.279 0-.418l-.027-.925a5.378 5.378 0 0 1 0-.58 6.794 6.794 0 0 0 0-.746l-.069-2.272v-.665a2.79 2.79 0 0 0-.02-.655 4.501 4.501 0 0 1-.038-.493l-.034-1.028 1.905-1.713a5.52 5.52 0 0 1 .387-.312 1.65 1.65 0 0 0 .302-.275c.142-.167.309-.312.493-.431.183-.121.346-.268.487-.436.065-.085.14-.163.222-.233.197-.147.37-.315.544-.483.105-.102.21-.204.32-.301l.881-.785c.122-.11.25-.215.383-.312a6.47 6.47 0 0 0 1.049-.939c.133-.149.281-.283.43-.42l.046-.042 1.371-1.237.25-.227a1.12 1.12 0 0 1 .117-.167c.095-.1.197-.193.305-.278.236-.171.473-.343.706-.548.113-.096.274-.158.322-.13.117.068.2.139.231.24a.104.104 0 0 0 .067-.101l1.028-.308a.266.266 0 0 1 .295.11.328.328 0 0 1 .058.106l.13.559c.038.142.061.288.069.435.056.348.137.692.243 1.028.034.09.057.183.068.278.043.284.111.564.203.836l.394 1.323c.073.223.129.453.168.685.043.233.104.462.185.685.095.296.17.599.222.905.027.141.062.281.107.418l.311 1.045c.054.179.087.363.1.548l.456 1.539a6.7 6.7 0 0 1 .246.977c.025.143.062.284.11.421l.308 1.049c.046.136.082.276.107.418.045.284.109.564.192.84l.664 2.427.507-1.585c.116-.399.26-.79.432-1.168.019-.04.035-.09.05-.138l.011-.035.018-.053.048-.151a.493.493 0 0 1 .034-.27c.181-.408.332-.827.453-1.255l.147-.452c.039-.125.086-.248.14-.367.118-.262.219-.53.302-.805l.747-1.926c.082-.221.177-.438.284-.648.057-.106.107-.228.155-.345.022-.053.043-.106.065-.155.109-.27.216-.541.318-.816.072-.19.164-.373.275-.544l.531-1.44c.114-.32.25-.63.408-.932.07-.14.132-.284.185-.431l.315-.813a3.06 3.06 0 0 1 .147-.342c.226-.444.422-.901.586-1.371l.113-.295.117-.294a1.13 1.13 0 0 1 .222-.254l.114.044a.206.206 0 0 1 0 .086.11.11 0 0 0 .126-.044l1.001.387c.086.03.151.103.161.277a.362.362 0 0 1-.024.13l-.257.566c-.06.148-.136.29-.226.421a8.445 8.445 0 0 0-.476 1.063 1.972 1.972 0 0 1-.124.284 5.43 5.43 0 0 0-.377.853l-.541 1.399a5.11 5.11 0 0 1-.319.709 5.906 5.906 0 0 0-.301.723 7.477 7.477 0 0 1-.405.929 3.51 3.51 0 0 0-.185.428l-.425 1.107c-.075.188-.167.37-.274.541l-.315.812c-.11.271-.209.542-.295.82a7.22 7.22 0 0 1-.373 1.027 3.063 3.063 0 0 0-.158.446l-.363 1.127c-.042.152-.096.3-.161.442a6.858 6.858 0 0 0-.326.878l-1.333 4.183.429 1.567c.078.251.135.51.171.77.01.096.029.19.055.282.096.322.168.65.216.983.021.116.05.23.085.343l.213.774c.044.161.08.325.106.49.033.214.08.426.14.634l.518 1.895a3.935 3.935 0 0 0 .064.213c.036.115.072.228.093.339.037.186.1.366.186.534.062.13.116.264.161.401l.873 2.546c.046.136.084.275.114.415.023.12.063.235.119.343.09.167.149.35.175.538.03.188.092.369.185.534.048.08.086.165.113.254.052.225.135.427.217.63.044.106.087.213.126.323l.343.966c.048.134.087.272.116.411.084.399.216.785.394 1.152.083.173.154.351.213.534l.521 1.515.096.277a.78.78 0 0 1 .099.148c.051.11.092.224.12.342.051.252.115.502.192.747a.382.382 0 0 1-.021.309c-.175.109-.356.14-.613-.082l-.278.085c-.048 0-.099 0-.164-.085-.109.065-.244.034-.381.002-.049-.011-.098-.023-.147-.03-.065 0-.144-.123-.199-.271l-.123-.342a3 3 0 0 0-.165-.387 1.527 1.527 0 0 1-.171-.59l-.044-.137a3.076 3.076 0 0 1-.08-.325c-.028-.135-.056-.271-.109-.412a11.723 11.723 0 0 1-.224-.659h-.001l-.008-.026-.044-.134-.878-2.556a6.095 6.095 0 0 1-.25-.826 1.09 1.09 0 0 0-.103-.264 2.463 2.463 0 0 1-.219-.685.982.982 0 0 0-.106-.343 1.508 1.508 0 0 1-.148-.4 8.106 8.106 0 0 0-.161-.549l-.257-.76-.449-1.313a4.552 4.552 0 0 0-.25-.593 1.124 1.124 0 0 1-.116-.343 6.09 6.09 0 0 0-.261-.897l-.061-.21-.651-2.398a3.888 3.888 0 0 1-.137-.63 3.312 3.312 0 0 0-.093-.419 10.709 10.709 0 0 0-.151-.562c-.05-.18-.08-.365-.089-.552l-.038-.14a.674.674 0 0 1-.085-.158 5.99 5.99 0 0 0-.073-.399 20.76 20.76 0 0 0-.071.245 5.673 5.673 0 0 1-.278.812 2.314 2.314 0 0 0-.106.292c-.092.35-.206.693-.343 1.028a2.713 2.713 0 0 0-.12.373l-.246.836c-.05.176-.11.349-.178.518-.089.217-.166.439-.23.665l-.603 2.056a5.867 5.867 0 0 1-.199.592c-.08.19-.138.39-.171.593a3.958 3.958 0 0 1-.11.456l-.634 2.166-.25.668a4.504 4.504 0 0 1-.188.432 1.597 1.597 0 0 0-.131.359 1.887 1.887 0 0 1-.222.576 1.914 1.914 0 0 0-.213.579c-.018.1-.046.197-.082.292-.101.215-.173.43-.244.646-.043.127-.085.254-.133.382l-.391 1.028a4.435 4.435 0 0 1-.185.431 6.057 6.057 0 0 0-.462 1.241 5.171 5.171 0 0 1-.192.596l-.146.358c.023.05.042.103.057.156l-.086.082a.179.179 0 0 1-.056-.03l-.034.085c.003.01.008.02.015.031l-.046.044-.373.916-.109.298a.917.917 0 0 1-.021.195 2.133 2.133 0 0 1-.133.363c-.124.247-.24.501-.343.764-.055.134-.165.251-.219.251-.203-.011-.353-.103-.391-.446Zm7.104-23.898c.009.047.019.094.03.14a6.511 6.511 0 0 1-.102.274c-.086.218-.155.441-.206.669a.836.836 0 0 0-.161.312c-.185.562-.36 1.137-.528 1.713a6.833 6.833 0 0 1-.318.956.643.643 0 0 0-.018.195l-.044.151c-.094.18-.169.368-.226.562-.055.202-.13.456-.178.607l-.016.049a4.155 4.155 0 0 1-.139.393 4.832 4.832 0 0 0-.229.661l-.758 2.584-.068.226c-.09.329-.205.65-.343.963-.051.12-.087.245-.109.373a5.18 5.18 0 0 1-.155.686l-.425 1.446-.048.168-.219.582c-.075.196-.157.388-.243.576a1.816 1.816 0 0 0-.151.435 1.15 1.15 0 0 1-.14.343c-.126.226-.22.468-.278.72a1.36 1.36 0 0 1-.096.291 6.53 6.53 0 0 0-.36.87l-1.028 2.742-.05.13a11.382 11.382 0 0 1-.371-.446 4.085 4.085 0 0 0-.281-.308l-.641-.661a4.8 4.8 0 0 1-.343-.37 7.27 7.27 0 0 0-.716-.802l-1.103-1.148a3.276 3.276 0 0 0-.405-.504 36.901 36.901 0 0 1-.64-.668 6.278 6.278 0 0 1-.384-.432 6.362 6.362 0 0 0-.494-.562l-1.518-1.573a6.285 6.285 0 0 1-.606-.685 3.68 3.68 0 0 0-.271-.312l-.123-.127.024-.343c.017-.23.047-.458.089-.685a.5.5 0 0 0-.031-.284v-.168c.002-.084.01-.168.024-.25.073-.435.12-.873.14-1.313l.285-4.434c.004-.222.021-.444.051-.665.031-.245.044-.493.038-.74a.947.947 0 0 0 .082-.343l.058-.88-.034-1.117a7.896 7.896 0 0 1 0-1.066.982.982 0 0 0-.048-.202v-.168a3.19 3.19 0 0 0 .038-.641c-.02-.237-.02-.46-.02-.686v-.493a5.951 5.951 0 0 0 0-.744l-.09-2.847v-.254a7.489 7.489 0 0 1 0-1.076 1.664 1.664 0 0 0 0-.41l-.01-.068a2.862 2.862 0 0 1-.034-.296v-.134l.647-.582.686-.614c.168-.147.339-.288.51-.421.128-.1.243-.215.343-.343.088-.105.192-.195.308-.267a3.04 3.04 0 0 0 .617-.538c.07-.083.148-.16.233-.226.27-.197.526-.41.768-.641l2.316-2.073.12-.11c.198-.174.376-.336.584-.525l.026-.023c.117-.106.24-.198.364-.29.108-.08.216-.16.321-.252l.124-.106a2.01 2.01 0 0 0 .548-.452c.108-.12.223-.235.343-.343l.305-.281c.046-.052.087-.101.119-.147.056.216.104.434.145.654.022.116.053.231.092.343l.226.764c.046.135.081.274.107.415.05.306.125.609.222.904l.394 1.32c.013.187.047.372.1.551.079.254.154.51.229.768.048.16.087.322.117.486.037.213.087.422.151.627l.541 1.817c.083.25.146.507.188.767.018.117.045.231.083.343l.123.418c.127.388.227.784.298 1.186.015.083.055.16.117.219l.041.14c.024.069.043.139.058.21.057.378.142.751.254 1.117l1.028 3.714c.059.183.107.37.144.559Zm3.2-9.036h.021a.44.44 0 0 0 0-.052l-.021.052Zm-5.431.15h-.024l-.01-.034.017.015a.153.153 0 0 1 .017.02ZM97.808 97.67h.02l.027.02-.048-.02Zm41.422 15.879h.291c.168.305.35.329.5.254.055-.017.114-.161.114-.298.003-.278.017-.545.041-.816.01-.123.01-.247 0-.37a.772.772 0 0 0-.055-.181v-.309l-.045-1.682c0-.202-.013-.404-.041-.603a5.529 5.529 0 0 1-.031-1.279c.009-.15.009-.301 0-.452l-.024-1.072c-.002-.131-.011-.261-.02-.391v-.001c-.014-.221-.029-.441-.014-.667 0-.098-.011-.196-.031-.292a1.837 1.837 0 0 1 0-.592 1.812 1.812 0 0 0 0-.597 1.349 1.349 0 0 1 0-.37v-.452l-.02-.709-.062-.686-.123-1.412a3.52 3.52 0 0 0-.059-.445 2.15 2.15 0 0 1-.054-.593c.002-.2-.007-.4-.028-.6l-.178-2.056a5.808 5.808 0 0 1-.028-.685c.004-.103-.002-.2-.008-.298-.004-.075-.009-.15-.009-.226l-.024-.874a3.022 3.022 0 0 1-.024-.38 7.7 7.7 0 0 0-.037-1.053 1.52 1.52 0 0 1 0-.301 5.18 5.18 0 0 0-.035-.826c-.051-.493-.078-.99-.078-1.487l-.048-1.487-.137-4.349a5.94 5.94 0 0 1 0-.905c.01-.15.01-.301 0-.452l-.035-1.144c-.01-.151-.01-.302 0-.453a6.64 6.64 0 0 0 0-1.055v-.411l-.188-1.344a2.871 2.871 0 0 0-.021-.586l-.157-1.13a3.073 3.073 0 0 1-.045-.45 6.755 6.755 0 0 0-.092-.973 5.731 5.731 0 0 1-.083-.75 4.92 4.92 0 0 0-.065-.747l-.199-1.436a5.405 5.405 0 0 1-.082-.898c.001-.1-.008-.2-.027-.298a7.742 7.742 0 0 1-.093-1.117 2.268 2.268 0 0 0 0-.466l-.003-.04.695-.56.042-.034c.071-.052.14-.108.205-.168.042-.04.093-.058.143-.077.041-.015.082-.03.118-.056l.044-.031a.237.237 0 0 0 .199-.124.41.41 0 0 1 .103-.12c.017-.019.036-.034.055-.05a.783.783 0 0 0 .048-.042.135.135 0 0 0 .039-.072.129.129 0 0 0-.009-.082 1.704 1.704 0 0 0-.25-.429.163.163 0 0 0-.007-.07.177.177 0 0 0-.034-.06l-.178-.226a.735.735 0 0 0-.257-.487.147.147 0 0 0-.158-.027 1.272 1.272 0 0 1-.264.137.28.28 0 0 0-.106.086.239.239 0 0 0-.02.078l-.083.069-.473.38a.667.667 0 0 0-.15.158.722.722 0 0 1-.36.284.731.731 0 0 0-.141.083c-.045.034-.088.07-.132.106a4.7 4.7 0 0 1-.169.133 1.588 1.588 0 0 1-.291.247c-.031.014-.066.052-.066.086a.244.244 0 0 1-.167.133.255.255 0 0 0-.172.127.16.16 0 0 1-.043.054.166.166 0 0 1-.06.032.588.588 0 0 0-.14.082l-.792.638a.43.43 0 0 0-.113.12.302.302 0 0 1-.164.133.81.81 0 0 0-.185.12c-.113.087-.224.177-.335.266l-.001.001-.243.196a.838.838 0 0 1-.209.13.657.657 0 0 0-.165.096l-.236.188a.405.405 0 0 1-.11.08.929.929 0 0 0-.343.198.255.255 0 0 1-.096.051.643.643 0 0 0-.257.158l-.836.685-1.22.984a.804.804 0 0 1-.277.171.39.39 0 0 0-.137.09c-.081.06-.16.124-.239.188l-.083.068a.438.438 0 0 1-.138.093.942.942 0 0 0-.342.202l-.47.38a.441.441 0 0 0-.202.082c-.103.09-.212.175-.319.257a.494.494 0 0 1-.137.093.88.88 0 0 0-.301.185.704.704 0 0 1-.223.154.643.643 0 0 0-.233.137l-.408.343a.715.715 0 0 1-.277.168.202.202 0 0 0-.093.058c-.1.088-.217.157-.342.202a.366.366 0 0 0-.168.059l-.035.02-.023.013-.021.012c-.037.02-.074.04-.11.064l-.003.003-.003.004-.002.003a.02.02 0 0 0-.004.007l-.002.005c-.003.008-.004.017-.003.026.004.09.039.174.099.24.237.278.463.555.686.836.017.004.034.01.048.02.015.01.028.024.037.038v.035l.076.092c.051.02.106.028.161.024l.086-.068a.836.836 0 0 1 .085-.069c.125-.121.271-.218.432-.284a.403.403 0 0 0 .11-.079l.236-.189a.468.468 0 0 1 .134-.089.872.872 0 0 0 .301-.185l.405-.325a.397.397 0 0 0 .202-.086c.075-.065.154-.13.236-.188a.673.673 0 0 1 .161-.1.692.692 0 0 0 .213-.126l.555-.45a.733.733 0 0 1 .257-.157.333.333 0 0 0 .116-.069c.027-.018.053-.04.079-.061l.038-.03.014-.011c.112-.109.245-.194.39-.25.041-.01.041-.055.041-.096l.042-.035a.209.209 0 0 1 .068-.044 1.12 1.12 0 0 0 .37-.23l1.128-.911a.751.751 0 0 1 .174-.13c.059-.019.094-.06.129-.1.018-.02.035-.04.056-.058a.138.138 0 0 0 .127-.028l.487-.39a.845.845 0 0 1 .298-.189c.027-.003.027-.048.027-.072l.041-.034a.413.413 0 0 0 .203-.086c.051-.047.109-.092.167-.136a.613.613 0 0 1 .144-.083.644.644 0 0 0 .209-.123l.723-.586.066-.052a.85.85 0 0 1 .301-.185.181.181 0 0 0 .103-.085.689.689 0 0 1 .161-.185l.179-.15c.014.167.024.334.03.503.004.126.018.252.041.376l.113.83c.027.148.043.298.048.449.007.325.038.649.093.97l.199 1.432c-.016.195-.009.392.02.586.041.276.079.554.113.832.028.174.044.35.048.525.007.23.027.458.062.685l.274 1.97v.374c.001.126-.007.252-.024.377a3.385 3.385 0 0 0 0 .377v.46a9.5 9.5 0 0 1 0 1.284.449.449 0 0 0 .058.254v.38c-.029.4-.029.802 0 1.203l.13 4.043c.012.201.012.403 0 .604-.009.228.001.458.031.685a.716.716 0 0 0-.048.343c.004.096.006.193.008.29.005.194.009.388.023.58l.076.864c.039.32.052.643.041.966a.891.891 0 0 0 .058.181v.155a2.439 2.439 0 0 0 0 .579c.021.203.038.405.051.606.009.15.009.3 0 .45a5.6 5.6 0 0 0 .024.685l.226 2.576v.23c.04.323.053.648.042.973-.004.126.007.251.034.374.051.218.084.441.099.665l.127 1.446c.031.277.031.558.031.836v.6a1.77 1.77 0 0 0 .02.442c.022.121.022.245 0 .366a2.726 2.726 0 0 0 0 .744c.019.097.026.196.021.295-.022.3-.022.601 0 .901l.069 2.817v.147c.01.129.011.249.011.374.001.113.001.231.009.366.01.161-.005.308-.019.454-.011.112-.022.224-.022.341v.147a1.629 1.629 0 0 0 0 .645c.023.144.037.289.041.435v.377a.477.477 0 0 0 .11.342l.066.043c.137.089.284.184.431.146.034.103.078.14.13.14Zm-1.765-33.109h-.024l-.003-.04a.31.31 0 0 1 .027.04Zm-12.22-13.364h-.291c-.147-.312-.343-.34-.627-.216-.052.014-.12.158-.12.295a9.94 9.94 0 0 1-.069.808c-.01.125-.01.25 0 .374a.876.876 0 0 0 .048.182v1.984a5.06 5.06 0 0 0 .021.603 5.33 5.33 0 0 1 0 1.275c-.028.143-.028.301-.028.452v1.069c0 .116.005.234.009.352.008.237.017.475-.009.703-.002.098.006.196.024.292.035.196.035.396 0 .593a1.843 1.843 0 0 0 0 .592c.016.123.016.248 0 .37a4.02 4.02 0 0 0-.027.453v.706l.021.702.044 1.412c.004.15.016.3.038.449.032.196.039.395.02.593-.01.2-.01.4 0 .6l.065 2.056c.015.228.015.457 0 .685-.01.174-.01.35 0 .524l.024.84c.009.125.009.251 0 .377-.029.35-.036.7-.02 1.052.007.099.007.198 0 .298a4.745 4.745 0 0 0 0 .826v1.483l-.038 1.488-.106 4.341c.002.3-.019.6-.062.898-.019.15-.029.301-.027.452l-.031 1.141a3.11 3.11 0 0 1-.024.453c-.05.348-.074.7-.072 1.052-.027.558-.027 1.117-.027 1.676-.042.19-.065.384-.069.579v1.141a4.01 4.01 0 0 1-.02.452 6.603 6.603 0 0 0-.059.973 5.58 5.58 0 0 1-.03.754 4.671 4.671 0 0 0-.048.747l-.021 1.446c.005.3-.014.599-.058.895-.009.1-.009.201 0 .301a7.07 7.07 0 0 1-.079 1.117 2.64 2.64 0 0 0-.065.46l-.041.596a.309.309 0 0 0 .024.127c.068.154.154.198.246.198h1.073c.031-.082.068-.082.103-.082a.175.175 0 0 0 .017.082h.175a1 1 0 0 0 .123-.301v-.61c-.01-.476.013-.953.069-1.426.01-.125.01-.251 0-.377v-.832c-.003-.15.004-.3.02-.449.045-.323.065-.648.058-.973l.021-1.443a2.75 2.75 0 0 0 .068-.579v-.84c.003-.175.014-.35.035-.524.028-.227.041-.456.041-.685l.027-1.981a5.435 5.435 0 0 1 .059-.826c.017-.125.027-.25.03-.377v-.456a9.31 9.31 0 0 1 .083-1.281.42.42 0 0 0-.045-.254v-.38c.058-.397.087-.798.086-1.2l.096-4.03a4.725 4.725 0 0 1 .024-.606 4.612 4.612 0 0 0 0-.685.776.776 0 0 0 .065-.343c.017-.291.017-.58.017-.867l-.028-.867a6.234 6.234 0 0 1 0-.966.906.906 0 0 0-.047-.185v-.151a2.88 2.88 0 0 0 .041-.58v-.61a3.011 3.011 0 0 1 0-.445 4.9 4.9 0 0 0 0-.685l-.083-2.584v-.23a6.369 6.369 0 0 1 0-.976 1.432 1.432 0 0 0 0-.37 4.773 4.773 0 0 1-.065-.685l-.044-1.447v-.836c.001-.094.008-.189.015-.282.008-.106.016-.212.016-.317a1.816 1.816 0 0 0 0-.442 1.075 1.075 0 0 1 0-.367 2.61 2.61 0 0 0 .017-.744 1.183 1.183 0 0 1 0-.29c.036-.3.049-.601.037-.902l.021-2.814V70.8l.001-.082v-.056c.002-.157.004-.313-.001-.502-.004-.15.015-.287.033-.424.016-.122.032-.243.032-.371v-.147c.052-.21.063-.428.031-.641a3.57 3.57 0 0 1-.024-.439v-.373a.464.464 0 0 0-.099-.343l-.05-.035h-.001c-.133-.095-.287-.204-.436-.17-.034-.103-.079-.141-.127-.141Zm.175 33.171h.02v.044a.072.072 0 0 1-.012-.021.09.09 0 0 1-.008-.023ZM31.87 78.093h-.288a.453.453 0 0 0-.6-.124c-.051.018-.1.134-.1.24v.638c-.002.098.007.195.028.291.013.05.033.096.058.14l.024.237.113 1.312c.013.158.036.315.069.47.08.326.109.662.086.997v.343l.072.836c.041.273.068.55.078.826a.78.78 0 0 0 .045.226c.046.15.06.31.041.466-.02.155-.008.312.034.463a.815.815 0 0 1 .028.287 3.014 3.014 0 0 0 0 .343l.137 1.58h-1.49a.86.86 0 0 1-.343-.034.55.55 0 0 0-.168 0h-.425a.443.443 0 0 1-.168 0 1.028 1.028 0 0 0-.394-.035h-.624a.466.466 0 0 0-.216-.051h-.421a.443.443 0 0 1-.168 0 1.086 1.086 0 0 0-.363-.038.86.86 0 0 1-.281 0 .684.684 0 0 0-.278-.034h-.538a.787.787 0 0 1-.343-.034.312.312 0 0 0-.113 0 1.14 1.14 0 0 1-.414-.052.374.374 0 0 0-.172-.054l-.223-.028c-.013-.003-.044.024-.044.024a.343.343 0 0 0-.072.23v.993a.127.127 0 0 1 .03.093c-.01-.02-.03 0-.03 0v.11a.344.344 0 0 0 .113.11h.23a1.46 1.46 0 0 1 .53.04.473.473 0 0 0 .141 0h.309a.443.443 0 0 1 .168 0 .932.932 0 0 0 .363.035h.535a.472.472 0 0 0 .219.055h.312a.686.686 0 0 1 .192.02.91.91 0 0 0 .253.027h.737a.791.791 0 0 1 .308.035c.045.01.091.016.137.017h.172c.159-.014.319 0 .473.041.04.017.072-.017.095-.045h.059a.219.219 0 0 1 .082 0c.145.043.296.058.446.045h1.497a.642.642 0 0 1 .036-.005 4.43 4.43 0 0 0 .002.443l.092 1.614c.014.177.014.355 0 .532-.01.136-.01.274 0 .41l.038.659c.007.098.007.196 0 .294a4.433 4.433 0 0 0 0 .826c.007.078.007.156 0 .233a2.953 2.953 0 0 0 0 .651l.133 2.327.196 3.403a2.56 2.56 0 0 1 0 .706c-.01.114-.01.228 0 .342v.898c.01.114.01.229 0 .343a4.474 4.474 0 0 0-.048.829v1.316c-.042.147-.063.3-.062.452v.895c.012.114.012.229 0 .343a4.36 4.36 0 0 0-.044.764 3.09 3.09 0 0 1-.021.593c-.03.193-.045.389-.041.585v1.131c.002.242-.02.483-.065.72a1.07 1.07 0 0 0 0 .236c.007.294-.014.588-.062.878a1.456 1.456 0 0 0-.061.342l-.035.47a.269.269 0 0 0 .278.25h1.072a.095.095 0 0 1 .1-.065c0 .022.007.043.02.061h.12a.754.754 0 0 0 .117-.236v-.48a6.393 6.393 0 0 1 .051-1.12 1.704 1.704 0 0 0 0-.298v-.655a2.025 2.025 0 0 1 0-.343c.04-.252.056-.508.045-.764v-1.134c.04-.15.06-.304.061-.459v-.658c0-.139.01-.277.028-.415.025-.176.036-.353.034-.531v-1.559a3.431 3.431 0 0 1 .038-.651c.016-.098.022-.196.02-.295v-.36a5.471 5.471 0 0 1 .052-1.007.271.271 0 0 0-.052-.199v-.12a1.468 1.468 0 0 1 0-.178 4.11 4.11 0 0 0 0-.942l-.185-3.167a3.264 3.264 0 0 1 0-.476 2.63 2.63 0 0 0-.04-.528.477.477 0 0 0 .044-.26l-.08-1.37a3.778 3.778 0 0 1 0-.762.547.547 0 0 0-.05-.14v-.12c.032-.15.043-.305.034-.46-.028-.16-.028-.318-.028-.479a3.012 3.012 0 0 1 0-.343 3.06 3.06 0 0 0 0-.53l-.116-2.033v-.181a3.75 3.75 0 0 1-.016-.142l.005-.004.005-.005c.012-.01.025-.02.037-.02h.061a.47.47 0 0 0 .216.054c.075-.005.151-.005.226 0 .056 0 .111.007.165.02a.786.786 0 0 0 .25.032h1.045a.932.932 0 0 1 .363.037.234.234 0 0 0 .137 0 .687.687 0 0 1 .25-.044h.539l.11-.001c.076 0 .153-.002.201 0 .033.002.066.007.099.012.04.006.083.013.124.013a.247.247 0 0 0 .165 0 .16.16 0 0 1 .137 0 .397.397 0 0 0 .274 0 .206.206 0 0 1 .11 0 .855.855 0 0 0 .342.027H39.378c.091.005.182.005.274 0a.42.42 0 0 1 .162.026.465.465 0 0 0 .133.026H40a.27.27 0 0 0 .24.023.437.437 0 0 1 .165-.027h.137a.127.127 0 0 0 .123-.092c.051-.147.076-.301.072-.456a.144.144 0 0 0 .051-.117v-.267a.629.629 0 0 0 .13-.531.14.14 0 0 0-.109-.106 1.507 1.507 0 0 1-.302-.055.311.311 0 0 0-.137 0c-.014.002-.026.013-.038.025-.01.01-.02.02-.03.02h-.737a.807.807 0 0 0-.223.023.822.822 0 0 1-.473 0 .706.706 0 0 0-.167-.024h-.398c-.13.016-.263.016-.394 0a.209.209 0 0 0-.106.024.271.271 0 0 1-.22 0 .294.294 0 0 0-.222 0 .21.21 0 0 1-.137 0 .682.682 0 0 0-.165-.024H36.01a.444.444 0 0 0-.164.024.371.371 0 0 1-.22 0 .832.832 0 0 0-.226-.02h-.764a.915.915 0 0 1-.254-.028.727.727 0 0 0-.195-.024h-.308a.503.503 0 0 1-.144 0 1.152 1.152 0 0 0-.39-.044c-.021 0-.042 0-.062-.004l-.093-1.065-.055-.655v-.473a.98.98 0 0 0-.038-.343.63.63 0 0 1-.02-.287 1.67 1.67 0 0 0-.038-.583.812.812 0 0 1-.034-.23 3.834 3.834 0 0 0-.027-.712l-.196-2.207v-.117a9.278 9.278 0 0 1-.013-.168 4.714 4.714 0 0 0-.042-.41 1.94 1.94 0 0 1-.007-.42c.003-.068.007-.137.007-.208v-.116a.984.984 0 0 0 0-.507 2.06 2.06 0 0 1-.058-.343l-.034-.291c-.017-.13-.062-.23-.124-.257a.86.86 0 0 0-.503-.124c-.038-.075-.086-.1-.137-.1Zm1.823 25.995h.024v.034a.142.142 0 0 1-.024-.034ZM28.47 89.014v-.02a.05.05 0 0 0 0 .02Zm19.841 23.24h.291c.158.36.34.394.473.319.055 0 .12-.185.12-.343.01-.322.031-.63.062-.939.012-.145.012-.29 0-.435a1.031 1.031 0 0 0-.048-.209v-2.306a5.98 5.98 0 0 0-.027-.703 7.364 7.364 0 0 1 0-1.48c.016-.174.024-.349.024-.524v-1.241c0-.136-.004-.271-.008-.407-.008-.273-.015-.545.008-.82 0-.114-.009-.229-.028-.342a2.44 2.44 0 0 1 0-.686 2.411 2.411 0 0 0 0-.685 1.815 1.815 0 0 1 0-.432c.017-.173.025-.347.024-.521l.024-3.282v-.525a2.888 2.888 0 0 1 0-.685c.031-.206.031-.449.031-.685l.02-2.4c.004-.266.01-.527.038-.787.035-.192.035-.404.035-.61v-.973a3.748 3.748 0 0 1 0-.442c.045-.405.067-.813.065-1.22-.002-.115.005-.23.02-.343a6.82 6.82 0 0 0 .048-.96v-8.515c-.008-.35.007-.7.045-1.049.017-.175.024-.351.02-.527v-1.33a4.382 4.382 0 0 1 0-.528c.044-.406.06-.815.048-1.223 0-.326.007-.652.014-.977.007-.325.014-.65.014-.973.043-.226.067-.455.072-.685l.02-1.326a4.29 4.29 0 0 1 .024-.525c.045-.375.066-.753.062-1.13a7.307 7.307 0 0 1 .034-.874 6.63 6.63 0 0 0 .055-.87l.027-1.68a6.956 6.956 0 0 1 .059-1.028 2.27 2.27 0 0 0 .02-.343c0-.435.027-.87.082-1.302.039-.174.062-.352.069-.53l.044-.686a.39.39 0 0 0-.023-.148c-.069-.181-.155-.23-.247-.23l-1.073-.016c-.03.096-.065.096-.103.096a.184.184 0 0 0 0-.096h-.12a1.465 1.465 0 0 0-.123.342v.686c.008.554-.017 1.107-.075 1.658a3.606 3.606 0 0 0 0 .439l-.017.97c.002.175-.006.35-.024.524a8.846 8.846 0 0 0-.062 1.13l-.028 1.68a3.746 3.746 0 0 0-.068.685v.977l-.003.094a5.723 5.723 0 0 1-.031.516c-.03.26-.046.522-.048.785l-.038 2.306a6.82 6.82 0 0 1-.041.96c-.02.133-.02.29-.02.435v.534c.012.495-.006.991-.056 1.484a.566.566 0 0 0 .049.298v.178c.005.088.005.176 0 .264-.05.462-.069.927-.059 1.391l-.017 4.685c.013.228.013.457 0 .685-.017.26-.017.521 0 .781a1.009 1.009 0 0 0-.058.38v2.016c.005.375-.012.75-.051 1.124a.952.952 0 0 0 .037.212v.178a3.719 3.719 0 0 0-.068.686v.706c0 .173-.01.347-.028.52-.029.26-.043.52-.04.782l-.028 3.005v.267c.006.378-.013.756-.055 1.131-.017.145-.017.29 0 .435.03.258.042.518.038.778v2.659c-.002.102-.008.206-.014.31v.001c-.007.124-.014.25-.014.375a2.18 2.18 0 0 0 0 .517c.023.142.023.287 0 .428a3.64 3.64 0 0 0 0 .864c.014.114.014.229 0 .343a8.298 8.298 0 0 0-.03 1.052v3.461c0 .096-.002.187-.003.278-.002.183-.005.366.002.585.006.177-.012.339-.03.501a3.752 3.752 0 0 0-.031.424v.172a2.153 2.153 0 0 0-.028.747c.028.168.028.339.028.51v.436a.598.598 0 0 0 .102.39l.023.019.025.02c.136.114.29.241.442.201.031.117.076.161.127.161Zm-.014-38.582h-.023l.003-.051a.317.317 0 0 1 .02.051Zm24.269-6.634.27.103a.157.157 0 0 1 .096.106c.158.058.302.147.425.26a.168.168 0 0 1 .041.186l-.054.168a.716.716 0 0 0-.045.202.37.37 0 0 1-.134.274l-.024.065c-.071.11-.134.224-.188.343-.016.058-.038.116-.06.176-.019.053-.039.108-.057.166l-.024.066-.462 1.243a1.371 1.371 0 0 1-.178.388.323.323 0 0 0-.038.133.572.572 0 0 1-.13.323.243.243 0 0 0-.069.16c0 .071-.022.14-.061.2a1.92 1.92 0 0 0-.124.253 5.5 5.5 0 0 0-.085.222l-.055.148-.237.637c-.038.1-.06.205-.068.312a.308.308 0 0 1-.059.165c-.09.125-.158.266-.202.414l-.037.1-.422 1.14c-.033.102-.08.198-.14.285a.891.891 0 0 0-.096.189 3.22 3.22 0 0 0-.103.267.573.573 0 0 1-.151.236l-.024.069c0 .01.002.022.005.035.004.024.009.048-.005.057a1.535 1.535 0 0 0-.195.415l-.281.764a.191.191 0 0 1-.106.124.844.844 0 0 1-.1.301 1.206 1.206 0 0 0-.103.264l-.637 1.785a1.985 1.985 0 0 1-.237.466.314.314 0 0 0-.04.1l-.028.065a.12.12 0 0 1 0 .13c-.11.17-.193.356-.247.552-.015.035-.027.071-.04.108a2.464 2.464 0 0 1-.035.094.751.751 0 0 1-.079.158c-.074.104-.13.22-.168.342l-.312.877a1.249 1.249 0 0 1-.14.288 1.21 1.21 0 0 0-.106.223 6.866 6.866 0 0 0-.134.374.645.645 0 0 1-.147.236l-.23.64c-.044.148-.11.288-.195.415a.69.69 0 0 0-.086.196l-.134.37a.614.614 0 0 1-.068.161 2.26 2.26 0 0 0-.274.617l-.048.133-.048.134a.438.438 0 0 1-.161.096l-.113-.041a.047.047 0 0 1 0-.041.117.117 0 0 0-.107 0l-.323-.117-.245.1a.141.141 0 0 1-.14 0 1.26 1.26 0 0 1-.49.106.158.158 0 0 1-.155-.103l-.076-.158a.779.779 0 0 0-.11-.178.377.377 0 0 1-.092-.288l-.024-.061a2.871 2.871 0 0 0-.092-.367c-.035-.065-.063-.132-.09-.2l-.05-.119-.028-.061-.521-1.21a1.373 1.373 0 0 1-.14-.404.297.297 0 0 0-.066-.12.59.59 0 0 1-.126-.322.226.226 0 0 0-.062-.161.377.377 0 0 1-.093-.189 1.856 1.856 0 0 0-.085-.267c-.04-.11-.088-.215-.137-.322l-.017-.038-.268-.624a1.03 1.03 0 0 0-.164-.27.311.311 0 0 1-.069-.158 1.468 1.468 0 0 0-.14-.435l-.045-.1-.48-1.11a1.143 1.143 0 0 1-.092-.301 1.051 1.051 0 0 0-.062-.203 2.96 2.96 0 0 0-.113-.26.707.707 0 0 1-.051-.274l-.028-.065a.202.202 0 0 0-.015-.012l-.011-.008c-.023-.015-.046-.031-.046-.045a1.349 1.349 0 0 0-.143-.429c-.103-.25-.213-.497-.326-.743a.213.213 0 0 1 0-.165.86.86 0 0 1-.137-.28 1.14 1.14 0 0 0-.11-.261l-.781-1.714a1.837 1.837 0 0 1-.182-.53.77.77 0 0 0-.04-.1l-.028-.065c-.041 0-.09-.038-.096-.09a1.936 1.936 0 0 0-.202-.561c-.031-.065-.062-.13-.09-.196a.8.8 0 0 1-.054-.168 1.055 1.055 0 0 0-.124-.366l-.383-.847a1.165 1.165 0 0 1-.103-.301.985.985 0 0 0-.08-.233 5.512 5.512 0 0 0-.16-.36.63.63 0 0 1-.058-.27l-.281-.617a1.431 1.431 0 0 1-.148-.432.687.687 0 0 0-.075-.199l-.161-.343a.491.491 0 0 1-.062-.16 2.288 2.288 0 0 0-.233-.631l-.058-.13-.058-.13a.445.445 0 0 1 .048-.179l.11-.048a.052.052 0 0 1 .034.024l.007-.004c.028-.015.055-.03.068-.071l.977-.446a.321.321 0 0 1 .263-.02.085.085 0 0 1 .048.044l.086.267c.026.07.038.145.034.22.028.175.083.345.161.504.024.04.04.086.045.133.023.14.07.276.137.401l.28.617c.055.108.092.223.11.343.024.12.066.236.127.342.072.136.123.281.151.432.014.07.038.137.072.199l.025.057.021.05c.057.132.115.266.177.38.036.086.055.18.055.273l.325.717c.08.145.136.302.165.466.015.07.04.136.075.199l.223.49c.033.062.057.13.072.198.023.142.069.279.137.405l.843 1.853c.067.15.136.299.204.447.126.274.252.547.371.825.061.115.1.24.117.37a.51.51 0 0 0 .038.137c.072.15.122.309.147.473a.83.83 0 0 0 .062.168l.157.343c.032.076.056.155.072.236.02.105.052.207.096.305l.384.887c.04.086.07.176.09.268a.49.49 0 0 0 .112.253c.043.057.077.12.103.185l.524 1.213c.028.067.048.136.062.206a.301.301 0 0 0 .072.158c.063.07.098.162.1.257a.411.411 0 0 0 .112.253c.035.032.061.072.076.117.054.157.123.308.206.452l.195.46c.027.064.048.132.061.202.03.191.106.373.222.528l.21-.583c.034-.114.086-.222.154-.32a1.34 1.34 0 0 0 .14-.342c.042-.148.108-.288.196-.414a.77.77 0 0 0 .086-.196c.057-.155.114-.316.168-.469l.014-.038a.705.705 0 0 1 .147-.236l.267-.744c.046-.16.116-.313.21-.452a.686.686 0 0 0 .085-.196l.181-.507a.827.827 0 0 1 .09-.192c.08-.118.141-.25.181-.387l.685-1.926.477-1.319c.038-.123.096-.238.171-.343a.396.396 0 0 0 .069-.123c.05-.159.124-.309.219-.445a.65.65 0 0 0 .072-.165l.137-.37a1.13 1.13 0 0 1 .11-.223c.06-.089.109-.186.144-.288l.342-.908c.03-.09.07-.176.12-.257a.507.507 0 0 0 .096-.246.73.73 0 0 1 .055-.206l.46-1.247c.027-.066.06-.129.099-.189a.288.288 0 0 0 .054-.164.412.412 0 0 1 .107-.257.411.411 0 0 0 .096-.264.359.359 0 0 1 .024-.137c.07-.152.125-.309.168-.47l.174-.47c.026-.065.058-.128.096-.188a1.21 1.21 0 0 0 .21-.562c.012-.095.037-.188.075-.277l.274-.74.048-.134a.26.26 0 0 1 0-.1.473.473 0 0 1 .058-.164c.074-.108.137-.223.188-.343a.17.17 0 0 1 .162-.089.61.61 0 0 1 .435.33Zm-4.918 14.818h-.024a.126.126 0 0 0 0 .027l.024-.027Zm5.648 26.581-.264.116a.141.141 0 0 1-.144 0 1.226 1.226 0 0 1-.487.117.16.16 0 0 1-.095-.027.163.163 0 0 1-.062-.076l-.083-.158a.79.79 0 0 0-.113-.178.376.376 0 0 1-.103-.288l-.027-.065a2.752 2.752 0 0 0-.103-.366c-.04-.075-.074-.154-.109-.232l-.038-.087-.031-.065-.558-1.217a1.281 1.281 0 0 1-.151-.401.297.297 0 0 0-.069-.123.602.602 0 0 1-.137-.325.268.268 0 0 0-.069-.162.378.378 0 0 1-.095-.185 3.668 3.668 0 0 0-.093-.27 3.171 3.171 0 0 0-.168-.343l-.284-.627a1.183 1.183 0 0 0-.175-.271.34.34 0 0 1-.075-.157 1.334 1.334 0 0 0-.155-.439l-.044-.099-.514-1.114a1.195 1.195 0 0 1-.103-.305.903.903 0 0 0-.065-.202 3.702 3.702 0 0 0-.12-.261.663.663 0 0 1-.062-.274l-.03-.068-.01-.008-.02-.013c-.02-.014-.04-.027-.043-.041a1.514 1.514 0 0 0-.154-.432c-.116-.25-.23-.497-.342-.75a.206.206 0 0 1 0-.168.83.83 0 0 1-.138-.288 1.026 1.026 0 0 0-.11-.264l-.767-1.751a1.797 1.797 0 0 1-.178-.541.341.341 0 0 0-.038-.1l-.03-.068c-.042-.017-.086-.038-.093-.09a1.98 1.98 0 0 0-.199-.575c-.012-.031-.026-.061-.04-.09v-.001c-.016-.037-.032-.072-.045-.108a.71.71 0 0 1-.055-.171c-.02-.132-.061-.26-.124-.377l-.377-.86a1.203 1.203 0 0 1-.099-.309 1.049 1.049 0 0 0-.075-.236 5.85 5.85 0 0 0-.161-.363.685.685 0 0 1-.055-.278l-.274-.627a1.562 1.562 0 0 1-.132-.366l-.071.152c-.02.04-.04.08-.058.121l-.03.062-.563 1.206a1.41 1.41 0 0 1-.209.37.27.27 0 0 0-.048.13.573.573 0 0 1-.16.312.257.257 0 0 0-.08.155.377.377 0 0 1-.078.195c-.053.078-.1.16-.144.243-.032.06-.06.12-.088.18a3.745 3.745 0 0 1-.08.163l-.291.62c-.047.096-.078.2-.093.305a.342.342 0 0 1-.075.158 1.37 1.37 0 0 0-.233.397l-.045.1-.52 1.103c-.041.098-.097.19-.165.27a1.074 1.074 0 0 0-.113.182 5.956 5.956 0 0 0-.12.26.648.648 0 0 1-.172.224l-.03.065v.096a1.467 1.467 0 0 0-.23.394c-.117.246-.23.493-.343.743a.216.216 0 0 1-.116.117.97.97 0 0 1-.12.291c-.053.08-.094.166-.123.257l-.771 1.737a1.87 1.87 0 0 1-.281.49.826.826 0 0 0-.048.096l-.028.066c0 .014.004.03.007.045.007.03.014.061-.007.088a1.89 1.89 0 0 0-.291.528l-.045.099a7.652 7.652 0 0 1-.044.1.728.728 0 0 1-.09.15c-.083.103-.149.219-.195.343l-.377.853a1.247 1.247 0 0 1-.16.278.951.951 0 0 0-.124.216 14.34 14.34 0 0 0-.125.265l-.036.078a.626.626 0 0 1-.168.226l-.274.623c-.054.145-.13.28-.226.401a.76.76 0 0 0-.103.189l-.161.342a.615.615 0 0 1-.079.158 2.306 2.306 0 0 0-.319.593l-.058.13-.062.134a.423.423 0 0 1-.164.082l-.11-.048a.053.053 0 0 1-.005-.022v-.008l.002-.007.003-.008a.138.138 0 0 0-.106 0l-.98-.435a.315.315 0 0 1-.192-.185.086.086 0 0 1 0-.065l.148-.243a.505.505 0 0 1 .14-.175c.112-.139.203-.294.27-.459a.327.327 0 0 1 .073-.124c.09-.11.161-.235.209-.37l.277-.623c.044-.11.104-.213.178-.305a1.17 1.17 0 0 0 .165-.319c.054-.144.13-.28.226-.401a.825.825 0 0 0 .103-.188c.075-.165.147-.326.22-.494a.702.702 0 0 1 .164-.223l.322-.726c.057-.157.14-.304.243-.435a.749.749 0 0 0 .1-.189l.222-.493a.658.658 0 0 1 .1-.189c.09-.111.162-.238.212-.373l.833-1.874.237-.531c.11-.252.222-.504.338-.751.048-.125.116-.241.203-.343a.423.423 0 0 0 .075-.12c.065-.155.152-.3.26-.428a.686.686 0 0 0 .083-.158l.168-.342a1.13 1.13 0 0 1 .13-.216c.065-.085.12-.177.164-.274l.411-.881c.039-.088.087-.17.144-.247.06-.073.1-.16.117-.253a.74.74 0 0 1 .069-.203l.565-1.21a.974.974 0 0 1 .113-.177.323.323 0 0 0 .069-.162.428.428 0 0 1 .126-.25.39.39 0 0 0 .117-.253.343.343 0 0 1 .038-.137c.079-.138.147-.283.202-.432l.212-.456c.032-.064.07-.125.113-.181a1.23 1.23 0 0 0 .257-.545c.02-.094.053-.185.096-.271l.343-.716.062-.13a.232.232 0 0 1 0-.096.527.527 0 0 1 .072-.161c.08-.1.153-.207.215-.32a.161.161 0 0 1 .168-.075.586.586 0 0 1 .25.127l.01.009v-.005l.984-.432a.342.342 0 0 1 .267-.017.1.1 0 0 1 .048.044l.083.271a.565.565 0 0 1 .03.223c.027.177.08.35.158.51.023.043.038.09.045.138.02.142.065.28.13.407l.274.624c.056.107.094.223.11.343.024.12.065.235.123.342.072.138.121.286.147.439.013.07.037.14.072.202l.028.066c.06.146.123.297.188.428a.73.73 0 0 1 .055.277l.319.727c.079.149.133.31.16.476.015.071.04.14.076.202l.216.497a.808.808 0 0 1 .069.206c.025.141.07.278.133.407l.83 1.885c.068.153.134.306.201.46.122.279.243.556.37.832.064.115.108.24.131.37.006.048.02.094.041.137.077.149.131.308.161.473a.58.58 0 0 0 .069.168l.164.36c.034.076.06.155.08.236.022.106.057.208.105.305l.408.888a1.6 1.6 0 0 1 .1.27.508.508 0 0 0 .116.254.84.84 0 0 1 .11.185l.562 1.213c.028.066.05.135.065.206a.32.32 0 0 0 .075.157c.066.07.105.161.11.257.01.097.052.187.12.257.036.03.063.069.079.113.059.157.131.308.215.453l.213.459c.028.066.05.135.065.206.039.2.126.388.254.548.057.076.106.159.144.247l.342.723.062.13a.365.365 0 0 1 .079.058.539.539 0 0 1 .079.161c.022.128.056.253.102.374a.167.167 0 0 1-.048.178.611.611 0 0 1-.552.072Zm-14.537-4.376h.02l-.02.031a.124.124 0 0 1 0-.031Zm31.376-36.667h.288c.051 0 .096.08.133.288.147-.072.3.142.436.335l.058.08c.082.219.118.452.106.685v.771c0 .306 0 .634.038.905.045.439.045.88 0 1.32v.308c0 .244-.012.476-.024.708-.015.298-.03.597-.02.926V75.55l.026 2.903v1.45c0 .307-.01.614-.019.922-.005.175-.011.351-.015.527l-.011.374c-.014.497-.029.996-.078 1.483-.01.2-.01.402 0 .603.016.509-.002 1.019-.055 1.525-.031.251-.04.505-.027.757a6.78 6.78 0 0 1-.02.912c-.025.404-.049.819-.062 1.23 0 .412-.018.826-.036 1.236v.003l-.02.474-.085 2.975c-.014.457-.003.914.031 1.37.015.255.015.51 0 .765a21.358 21.358 0 0 0-.041 1.712V102.83c0 .469 0 .928-.031 1.37-.017.246-.02.517-.023.783l-.001.136v2.296c-.489.013-.94.009-1.375.004-.211-.002-.418-.004-.623-.004h-.373c-.124.026-.25.043-.377.051-.431-.021-.871-.014-1.315-.007-.222.004-.446.007-.67.007l-3.488.161a3.21 3.21 0 0 1-.685-.038c-.197 0-.388.012-.58.024-.255.016-.513.033-.79.021h-.001c-.4 0-.685 0-1.545.034h-.257l-2.097-2.477-.107-5.908c0-.28-.003-.56-.007-.837-.006-.55-.013-1.094.007-1.627v-.778a1.758 1.758 0 0 1-.061-.524c.032-.573.021-1.158.01-1.746-.005-.295-.01-.59-.01-.886 0-.104-.002-.208-.004-.312-.004-.21-.008-.419.004-.627 0-.26 0-.538.02-.77.042-.519.042-1.052.041-1.597v-4.195c0-.473 0-.932.038-1.391.02-.341.024-.713.027-1.074V81.2c.002-.4.023-.801.066-1.2l.03-2.964c0-.685 0-1.347.065-2a9.52 9.52 0 0 0 .024-.667c0-.087.002-.174.004-.259l.02-1.713v-.775c.063-.724.07-1.469.077-2.215.003-.24.005-.48.01-.718v-1.251c.023-.211.066-.42.126-.624h.117a.69.69 0 0 1 .02.165c.034 0 .072-.017.1-.168h1.075c.093 0 .175.086.244.4.017.087.025.174.024.261l-.048 1.227c0 .25-.024.476-.048.698-.008.081-.017.163-.024.245a33.295 33.295 0 0 0-.09 2.295c0 .206 0 .436-.02.617-.052.534-.057 1.089-.063 1.644l-.002.196-.038 2.971c0 .518 0 1.028-.055 1.536-.04.368-.036.744-.032 1.121l.002.424c0 .685 0 1.347-.045 2.001-.016.185-.01.398-.005.61.002.106.005.213.005.316v2.357c-.001.397-.023.794-.065 1.19v3.447c0 .726 0 1.456-.041 2.165v.929l.04 2.35c0 .105.003.212.005.319.004.213.007.425-.004.61-.034.607-.02 1.227 0 1.854l.11 6.017 1.254 1.481h.062l5.839-.144c.19 0 .381-.004.572-.008.381-.009.762-.017 1.141.008h.617l1.059-.021c.171 0 .342 0 .555.031h.027v-1.885c0-.363 0-.74.02-1.079.028-.463.032-.922.032-1.391v-4.24c0-.414 0-.846.02-1.236a9.57 9.57 0 0 0 0-1.217 13.58 13.58 0 0 1-.024-.925c.012-1.291.054-2.581.096-3.87v-.003c.02-.643.041-1.285.058-1.928 0-.287.024-.579.047-.858l.005-.064c.022-.253.029-.507.02-.76a7.57 7.57 0 0 1 .041-1.217 7.57 7.57 0 0 0 .038-1.217c-.012-.2-.012-.4 0-.6.037-.463.041-.917.045-1.372.002-.265.005-.53.014-.797l.034-1.1v-1.096c0-.309 0-.627.017-.922.042-.873.034-1.747-.024-2.618a21.014 21.014 0 0 1-.038-1.237l-.034-3.448v-.627a3.116 3.116 0 0 1-.052-.37c0-.083-.002-.169-.004-.256a4.657 4.657 0 0 1 .004-.508c.025-.548.042-1.093.045-1.662-.012-.21.027-.419.113-.61.137-.14.322-.085.487.548ZM76.5 89.127h.024c0-.027 0-.058-.02-.09l-.004.09Zm26.204-2.937.158 9.705 1.37-.024-.157-9.701-.11-9.705-1.371.014.11 9.711Z" fill="#fff"/><path stroke="#DDD" d="M.5.5h159v159H.5z"/></svg>