<svg width="160" height="160" fill="none" xmlns="http://www.w3.org/2000/svg"><path fill="#fff" fill-opacity=".1" d="M.5.5h159v159H.5z"/><path fill-rule="evenodd" clip-rule="evenodd" d="M125.19 108.995h-.287c-.052 0-.096-.051-.127-.188-.15.048-.299-.092-.433-.218l-.023-.021-.034-.032a.731.731 0 0 1-.1-.445v-.497c0-.195 0-.404-.027-.579a2.885 2.885 0 0 1 .031-.85v-.195c0-.161.016-.322.032-.486.018-.184.037-.372.033-.566-.005-.244-.003-.453-.002-.663v-.001l.002-.32v-.195l.017-3.729a10 10 0 0 1 .038-1.199c.01-.129.01-.258 0-.387a6.726 6.726 0 0 1 0-.984 1.804 1.804 0 0 0-.021-.486 3.108 3.108 0 0 1-.041-.586v-.792l-.058-1.107-.103-1.915a8.192 8.192 0 0 0-.093-.884 2.365 2.365 0 0 1-.027-.49l.003-.096a3.03 3.03 0 0 1-.11-.108c-.074-.074-.148-.15-.243-.21a7.093 7.093 0 0 1-.3-.21l-.128-.093-.106-.047-1.624-1.159a3.166 3.166 0 0 1-.504-.397.678.678 0 0 0-.175-.113 1.24 1.24 0 0 1-.421-.316.551.551 0 0 0-.209-.154.786.786 0 0 1-.261-.174 3.47 3.47 0 0 0-.343-.271l-.479-.343-.836-.593a2.266 2.266 0 0 0-.412-.24.753.753 0 0 1-.216-.15 3.112 3.112 0 0 0-.534-.439l-.137-.09-1.532-1.003a2.437 2.437 0 0 1-.38-.288 2.049 2.049 0 0 0-.25-.195 7.969 7.969 0 0 0-.364-.237 1.43 1.43 0 0 1-.308-.274l-.089-.062c-.048 0-.113 0-.134-.037a3.276 3.276 0 0 0-.548-.408l-.097-.064c-.114.109-.24.205-.376.287a2.261 2.261 0 0 0-.343.246l-2.295 1.714c-.22.18-.461.332-.717.456a1.39 1.39 0 0 0-.137.089l-.089.062a.222.222 0 0 1-.12.14c-.274.131-.535.29-.778.473l-.267.185a1.42 1.42 0 0 1-.233.133 2.804 2.804 0 0 0-.507.299l-1.162.798c-.13.094-.269.176-.414.243-.113.055-.22.118-.323.189l-.085.056a5.338 5.338 0 0 0-.405.287 1.511 1.511 0 0 1-.376.181l-.376.257-.008.213c0 .267-.021.548-.052.798-.034.26-.044.523-.027.785v.596l-.141 3.742c0 .199-.024.404-.048.596a2.674 2.674 0 0 0 0 .49c.02.262.008.526-.037.785-.036.26-.036.524 0 .785.001.115-.006.231-.021.346a8.14 8.14 0 0 0-.009.936v.001c.005.155.009.31.009.464l-.024 1.419c0 .199 0 .404-.034.596a9.54 9.54 0 0 0-.024 1.69c.014.266.014.532 0 .798l-.031 2.228v.435c.02.08.035.161.045.243a3.38 3.38 0 0 1 0 .493c-.035.343-.062.706-.076 1.073 0 .178-.072.37-.123.391-.185.058-.367.017-.521-.394h-.288c-.051 0-.096-.052-.127-.189-.14.042-.268-.078-.397-.199l-.021-.019c-.021-.021-.043-.04-.065-.059a.766.766 0 0 1-.096-.449v-.497c0-.196 0-.408-.02-.583a2.745 2.745 0 0 1 .041-.853v-.199c0-.165.018-.33.037-.497.02-.181.04-.365.038-.555-.002-.244-.001-.455-.001-.666l.001-.113v-.403l.055-3.745c-.007-.4.01-.801.048-1.2.01-.13.01-.26 0-.39a3.93 3.93 0 0 1 .031-.987 2.01 2.01 0 0 0 .024-.49 3.054 3.054 0 0 1 0-.59c.024-.26.044-.528.058-.795l.045-1.11.068-1.922a7.849 7.849 0 0 0 0-.895c-.01-.165-.004-.33.017-.493.026-.195.047-.39.062-.586l-.216.15c-.071.054-.147.101-.226.141-.303.15-.592.329-.864.531l-.178.124-.178.123a.687.687 0 0 1-.247.024l-.065-.1a.56.56 0 0 1 .012-.027.087.087 0 0 1 .022-.02.106.106 0 0 0-.106-.051l-.606-.885a.28.28 0 0 1-.028-.284.171.171 0 0 1 .058-.072l.371-.21c.093-.06.194-.106.301-.136.242-.11.471-.242.686-.398a.666.666 0 0 1 .181-.106 2.52 2.52 0 0 0 .548-.343l.6-.408.093-2.49c.006-.3.03-.597.072-.892.026-.176.037-.379.047-.572v-.017c.018-.268.031-.538.038-.806.01-.256.041-.512.093-.764v-.202a1.576 1.576 0 0 1-.031-.247 11.1 11.1 0 0 0 .099-1.274l.103-2.296a1.35 1.35 0 0 1 .075-.432 7.362 7.362 0 0 1 .031-.891c.03-.265.044-.532.045-.799l.025-.55-.553-.388a3.265 3.265 0 0 1-.541-.432 1.541 1.541 0 0 0-.254-.196l-.483-.342a1.292 1.292 0 0 1-.213-.161 5.42 5.42 0 0 0-.801-.62l-.175-.127-.178-.124a.643.643 0 0 1-.11-.222l.068-.096a.081.081 0 0 1 .059 0 .109.109 0 0 0 0-.117l.617-.88a.272.272 0 0 1 .253-.123c.032 0 .063.009.089.027l.326.274c.088.066.167.144.233.233a4 4 0 0 0 .613.507c.062.035.117.08.165.133.15.151.316.285.497.398l.474.334.009-.194V71.57c-.014-.529.002-1.057.048-1.584.005-.099.005-.198 0-.298v-.205a.718.718 0 0 1-.052-.343c.043-.563.057-1.128.041-1.693v-.606a4.577 4.577 0 0 1 .018-.497c.032-.364.043-.729.03-1.093v-3.523a4.37 4.37 0 0 0 .004-.459c-.002-.077-.004-.153-.004-.227 0-.37 0-.743-.027-1.113a5.095 5.095 0 0 1 .041-.771l-.044-1.916a11.6 11.6 0 0 1 0-1.292 4.941 4.941 0 0 0 0-.596l-.024-1.107a4.639 4.639 0 0 1 0-.5c.032-.631.032-1.264 0-1.895v-.805c.017-.14.054-.278.109-.408h.117a.26.26 0 0 1 .024.106c.034 0 .072 0 .096-.11l1.072-.027c.093 0 .182.048.257.25.02.054.03.11.031.168l-.017.795c.001.204-.013.408-.041.61-.035.495-.044.991-.028 1.487.011.133.011.265 0 .398a9.49 9.49 0 0 0 0 1.192l.045 1.92c.021.33.021.662 0 .993a8.79 8.79 0 0 0 0 1c.022.432.022.864 0 1.296-.01.2-.01.4 0 .6 0 .268.008.536.016.804v.001c.006.236.013.472.015.71.001.257-.019.515-.058.77v2.234c.013.468 0 .936-.038 1.402-.012.2-.012.402 0 .603v1.522c.01.2.01.402 0 .603-.035.398-.048.799-.038 1.2v2.891a88.619 88.619 0 0 1-.059 1.547c.067.058.133.118.196.18.079.073.164.138.254.196l.661.462c.114.08.216.178.302.288l.973.686c.212.133.41.29.589.465.078.075.163.14.254.196l.661.466c.091.058.176.125.254.199.152.151.324.283.51.39l2.581 1.69 1.005.659.095-.07c.151-.125.317-.23.493-.315a1.04 1.04 0 0 0 .182-.113 4.03 4.03 0 0 1 .627-.401c.079-.044.153-.094.223-.15l.48-.344c.1-.074.205-.141.315-.202.142-.074.277-.16.404-.257l1.176-.87c.115-.085.237-.158.366-.22.128-.055.244-.134.343-.232.078-.074.163-.14.253-.196l1.676-1.107c.09-.058.184-.11.281-.154a.685.685 0 0 0 .216-.147.917.917 0 0 1 .343-.223.932.932 0 0 0 .342-.233.709.709 0 0 1 .161-.137c.216-.126.423-.266.621-.418l.634-.418c.089-.059.183-.11.281-.154.277-.123.532-.292.753-.5a2.53 2.53 0 0 1 .343-.258l.494-.325-.117-2.471c-.034-.53-.041-1.06-.02-1.59.005-.1.005-.199 0-.298v-.202a.807.807 0 0 1-.066-.343c.023-.571.013-1.143-.027-1.713l-.027-.607a4.576 4.576 0 0 1 0-.497 9.117 9.117 0 0 0 0-1.096l-.12-2.629v-.637c0-.08.012-.16.026-.244l.008-.053.007-.046c.025-.173.038-.364.052-.55l.003-.049.006-.086c.024-.37.042-.74.059-1.11.012-.26.045-.517.099-.771l.103-1.912c.01-.43.047-.86.11-1.285.022-.13.03-.28.038-.428l.01-.169.058-1.107c0-.168 0-.342.034-.5.083-.626.134-1.257.151-1.888l.02-.401.021-.404c.032-.138.079-.271.14-.398h.12a.212.212 0 0 1 0 .106c.038 0 .072 0 .107-.102l1.072.054c.093 0 .175.062.237.271a.633.633 0 0 1 .017.168c-.025.24-.047.48-.069.718v.001l-.007.07a4.282 4.282 0 0 1-.092.606 13.6 13.6 0 0 0-.141 1.48c0 .132-.012.264-.034.394-.058.394-.094.791-.106 1.19l-.1 1.915c-.01.33-.04.66-.089.987a9.78 9.78 0 0 0-.075.997c-.012.431-.049.861-.11 1.288a5.468 5.468 0 0 0-.048.6l-.054 1.028.02.398c.01.258.001.517-.027.774l.102 2.224c.036.465.043.932.021 1.398v.603l.069 1.518c.01.2.01.4 0 .6a9.94 9.94 0 0 0 0 1.196l.094 2.038.022-.013a.236.236 0 0 1 .24 0 .462.462 0 0 1 .11.5l.157.244a.144.144 0 0 1 .024.08.144.144 0 0 1-.024.08.907.907 0 0 1 .151.488c0 .061-.051.147-.144.215l-.216.151a1.564 1.564 0 0 0-.243.195.852.852 0 0 1-.069.063l-.068 1.788-.148 3.944c-.002.367-.03.733-.082 1.096-.017.131-.028.263-.031.395-.01.465-.046.93-.106 1.39-.015.112-.019.245-.023.372l-.004.133-.045 1.113v.645c-.015.299-.015.598 0 .897l.148 2.742c0 .113.004.229.009.344l.008.204.01.007a.464.464 0 0 1 .134.034 1.1 1.1 0 0 1 .215.15c.137.137.281.265.432.385a.24.24 0 0 1 .103.219.464.464 0 0 1-.435.325l-.175.234a.148.148 0 0 1-.154.044.367.367 0 0 1-.04.064c.004.057.007.115.009.173l.202 3.745v.596c-.005.164.005.328.031.49a3.2 3.2 0 0 1 .034.788 4.286 4.286 0 0 0 0 .785c.022.128.03.258.024.387a9.789 9.789 0 0 0-.007.938c.004.156.007.31.007.467v1.419c0 .202 0 .408-.024.6a9.768 9.768 0 0 0 0 1.693c.024.263.024.531.024.798v2.639c.024.078.04.158.048.239.011.165.011.33 0 .494a18.09 18.09 0 0 0-.065 1.076c0 .182-.068.373-.12.394-.205.123-.387.086-.545-.326Zm-13.457-26.64c.05.042.102.08.156.116l-.269.197-2.48 1.836a2.588 2.588 0 0 1-.542.343 1.788 1.788 0 0 0-.274.168l-.685.456a1.734 1.734 0 0 1-.271.171 3.321 3.321 0 0 0-.644.387l-.98.686a1.498 1.498 0 0 0-.374.181l-.665.456a1.67 1.67 0 0 1-.274.168c-.044.02-.089.041-.132.063l.022-.608c.011-.301.028-.6.066-.894.03-.21.058-.453.058-.686l.048-1.113.007-.157c.005-.118.011-.242.027-.344.064-.428.087-.866.109-1.31l.004-.084c.004-.133.016-.266.034-.398.053-.363.083-.73.089-1.096l.148-3.325c.065.054.132.104.202.151l1.151.81c.167.103.321.226.46.366.063.062.132.12.205.171l.267.185c.256.164.496.353.717.562a.228.228 0 0 0 .174.065l.089.062c.046.028.09.06.131.096.207.198.437.37.685.514l2.399 1.566c.121.07.235.15.342.24Zm2.903.097-.009-.006c.124-.087.254-.166.389-.234.019-.01.037-.04.055-.07a.621.621 0 0 1 .028-.043l.085-.065c.132-.045.256-.111.367-.196.106-.085.223-.17.343-.253a1.69 1.69 0 0 1 .267-.168 2.48 2.48 0 0 0 .404-.257l1.47-1.09.131-.096c.187-.137.389-.252.603-.342a.768.768 0 0 0 .219-.148c.112-.113.236-.213.37-.298l.853-.565.497-.343c.12-.075.244-.144.37-.209a.836.836 0 0 0 .257-.181.508.508 0 0 1 .22-.138 1.33 1.33 0 0 0 .445-.28.614.614 0 0 1 .165-.124c.196-.095.382-.21.555-.343l1.554-1.028-.033.874c-.003.072-.004.146-.006.22-.005.203-.01.406-.035.582a7.792 7.792 0 0 0-.024.89c-.049.14-.074.288-.075.436l-.086 2.296a11.15 11.15 0 0 1-.089 1.278c.002.083.012.166.031.247V83c-.053.253-.083.51-.089.768-.003.11-.009.223-.015.335a9.277 9.277 0 0 0-.016.47l-.001.017c-.01.194-.02.396-.047.576l-.004.026-.006.041c-.014.095-.028.184-.028.275v.651l.16 2.913a2.704 2.704 0 0 1-.667-.49 2.084 2.084 0 0 0-.243-.205l-.617-.442a6.243 6.243 0 0 1-.617-.429.622.622 0 0 0-.182-.103.869.869 0 0 1-.342-.243.988.988 0 0 0-.343-.25.703.703 0 0 1-.216-.15 2.264 2.264 0 0 0-.243-.206l-1.635-1.162a1.766 1.766 0 0 0-.27-.168 1.089 1.089 0 0 1-.343-.243 2.376 2.376 0 0 0-.343-.264l-1.22-.802a2.513 2.513 0 0 1-.384-.291 2.417 2.417 0 0 0-.298-.223l-.497-.343a1.336 1.336 0 0 1-.219-.154 3.753 3.753 0 0 0-.596-.452Zm9.509-17.422h.024a.32.32 0 0 0-.024-.058v.058Zm-20.416-.024h-.024v-.055a.516.516 0 0 1 .024.055ZM48.866 52.978l-.068-.28a.455.455 0 0 0 .065-.518.257.257 0 0 0-.243-.062 5.992 5.992 0 0 1-.59.09c-.09.012-.179.035-.264.068a.572.572 0 0 0-.12.082l-.215.055-1.196.308a3.018 3.018 0 0 0-.422.137 2.958 2.958 0 0 1-.908.233c-.115.012-.23.032-.343.059l-.76.195a6.267 6.267 0 0 1-.754.199.803.803 0 0 0-.199.079 1.027 1.027 0 0 1-.421.11 1.027 1.027 0 0 0-.425.099.755.755 0 0 1-.264.072c-.116.01-.23.03-.343.058l-2.011.517c-.108.025-.214.06-.316.103a1.18 1.18 0 0 1-.421.11c-.146.018-.29.048-.432.089l-1.47.377c-.16.044-.324.075-.49.092a2.558 2.558 0 0 0-.38.072l-.597.151c-.09.028-.18.049-.274.062-.257.023-.512.07-.76.14l-.11.024h-.079a.346.346 0 0 0-.113 0l-.072-.024-.1-.024-2.12-.538-3.085-.785a3.177 3.177 0 0 1-.634-.202 1.716 1.716 0 0 0-.315-.096l-.816-.209a1.765 1.765 0 0 1-.322-.096 3.643 3.643 0 0 0-.74-.233l-1.196-.305a1.585 1.585 0 0 0-.397-.16l-.816-.206a1.712 1.712 0 0 1-.315-.096 3.63 3.63 0 0 0-.685-.22 2.715 2.715 0 0 1-.531-.157 2.475 2.475 0 0 0-.525-.172l-1.028-.26a2.802 2.802 0 0 1-.627-.206.961.961 0 0 0-.212-.068 4.189 4.189 0 0 1-.782-.26 1.239 1.239 0 0 0-.312-.141l-.418-.14a.152.152 0 0 0-.096 0 .268.268 0 0 0-.198.205l-.264 1.028a.1.1 0 0 1 .034.113.078.078 0 0 0-.062 0l-.03.117a.651.651 0 0 0 .188.168l.22.058.215.055c.344.07.68.172 1.004.305.087.035.176.06.268.078l.592.151c.11.022.216.054.32.096.22.096.449.169.684.216l1.029.26c.123.075.257.13.397.165l.6.15c.124.033.247.073.366.12.153.065.312.117.473.155l1.415.343c.2.04.394.102.58.185.085.036.173.065.263.085l.343.086c.308.064.608.157.898.277a.257.257 0 0 0 .195 0l.11.028c.053.01.106.026.157.044.271.117.552.208.84.271l2.872.727c.146.025.29.064.428.116.156.055.318.093.483.113.06.06.137.1.22.117l1.307.32c-.011.225-.028.444-.05.663a3.02 3.02 0 0 0 0 .432c.01.072.025.143.048.212v2.303c-.005.229.003.458.024.686.05.492.05.988 0 1.48a5.207 5.207 0 0 0-.024.52v1.241c0 .137.004.274.008.41.007.272.015.543-.008.817-.002.115.006.23.024.343a2.42 2.42 0 0 1 0 .685 2.57 2.57 0 0 0 0 .686c.015.142.015.285 0 .428-.024.178-.024.35-.024.52v.823l-.034.82-.058 1.637c-.01.174-.01.348 0 .521.017.229.009.459-.024.685-.031.21-.052.453-.052.686l-.092 2.398a7.495 7.495 0 0 1-.062.785 4.391 4.391 0 0 0-.048.607l-.041.976c-.013.077-.013.156-.014.233 0 .072 0 .142-.01.206-.058.403-.09.81-.1 1.216-.004.115-.015.23-.034.343a7.287 7.287 0 0 0-.075.96l-.12 3.457-.171 5.058c-.005.344-.031.688-.08 1.028a4.255 4.255 0 0 0-.033.524l-.048 1.333c-.002.176-.012.35-.031.525-.068.399-.11.802-.127 1.206v1.953c-.04.226-.06.456-.062.685v1.33c.01.174.01.347 0 .521a9.586 9.586 0 0 0-.044 1.134c.01.293.003.586-.02.877-.035.289-.05.58-.042.871v1.679a7.02 7.02 0 0 1-.045 1.028 2.886 2.886 0 0 0 0 .343c.006.433-.014.867-.061 1.298a2.855 2.855 0 0 0-.062.535l-.034.685c-.001.051.007.1.024.148.072.178.157.226.25.226h1.134c.028-.096.065-.096.1-.096a.179.179 0 0 0 .02.092h.117c.056-.108.096-.223.12-.342v-.686c-.018-.552 0-1.105.051-1.655a3.637 3.637 0 0 0 0-.438v-.97a5.145 5.145 0 0 1 0-.524c.04-.375.056-.751.044-1.128v-1.675c.042-.227.063-.456.062-.686v-.977c.004-.204.007-.415.028-.606.025-.26.036-.523.034-.785V95.24a6.32 6.32 0 0 1 .068-.956c.02-.144.03-.29.035-.435l.02-.53c.002-.496.035-.99.1-1.481a.541.541 0 0 0-.041-.298V91.1c.063-.454.097-.912.102-1.37l.182-4.664a6.482 6.482 0 0 1 .03-.686c.02-.26.02-.521 0-.781.05-.12.074-.25.073-.38l.106-2.026c.003-.375.03-.749.082-1.12a.932.932 0 0 0-.03-.216v-.178c.05-.226.079-.455.085-.686.002-.107.008-.214.014-.322v-.001c.006-.127.013-.255.013-.383l.001-.013c.01-.171.02-.347.044-.504.037-.26.06-.522.065-.785l.113-3.002v-.267c.006-.378.035-.756.09-1.13a2.01 2.01 0 0 0 0-.433 6.57 6.57 0 0 1 0-.78l.064-1.683v-.977c.002-.102.008-.206.014-.31.007-.125.014-.25.014-.375a2.369 2.369 0 0 0 0-.518 1.373 1.373 0 0 1 0-.428 3.303 3.303 0 0 0 0-.864 1.662 1.662 0 0 1 0-.342 8.23 8.23 0 0 0 .034-1.052v-3.451c0-.096 0-.187.002-.278a19.33 19.33 0 0 0-.002-.586c-.003-.175.014-.335.031-.494.016-.142.03-.282.03-.43v-.172c.053-.247.063-.5.032-.75-.02-.17-.03-.34-.031-.511v-.435a.608.608 0 0 0-.103-.391l-.047-.039c-.114-.095-.24-.2-.368-.208a.312.312 0 0 1 .02-.014l.11-.03c.144.005.287-.011.425-.048.144-.041.288-.076.436-.11.105-.027.213-.047.322-.058.166-.015.33-.044.49-.09l1.84-.476.161-.04c.23-.07.467-.115.706-.134a.724.724 0 0 0 .264-.072c.15-.07.308-.125.47-.165l1.027-.264.6-.154c.144-.034.288-.062.432-.082.11-.01.216-.04.315-.09a.534.534 0 0 1 .264-.061 1.37 1.37 0 0 0 .531-.127.712.712 0 0 1 .206-.065c.22-.022.439-.067.65-.134l2.009-.517.106-.024.13-.033c.129-.033.248-.063.398-.108.109-.031.215-.04.32-.05.088-.008.174-.015.262-.035l.103-.028a.88.88 0 0 0 .466-.089c.099-.043.2-.079.305-.106l.267-.075c.114-.038.213-.096.213-.161a.9.9 0 0 0 .024-.51.147.147 0 0 0 .068-.152Zm-23.89 1.73v.025l-.039-.007.038-.017Zm8.963 40.762h.021v.052a.326.326 0 0 1-.02-.052Zm36.814 11.438-.278.079c-.051 0-.106 0-.181-.13-.113.081-.259.02-.416-.044a3 3 0 0 0-.132-.052.732.732 0 0 1-.237-.384l-.161-.459-.051-.138a4.281 4.281 0 0 0-.158-.393 2.735 2.735 0 0 1-.24-.802l-.062-.185c-.045-.146-.078-.286-.112-.425a5 5 0 0 0-.162-.572 17.101 17.101 0 0 1-.21-.619 35.684 35.684 0 0 0-.098-.296l-.062-.185-1.172-3.475a10.4 10.4 0 0 1-.343-1.127 2.552 2.552 0 0 0-.133-.343 3.792 3.792 0 0 1-.291-.922 1.612 1.612 0 0 0-.134-.459 2.92 2.92 0 0 1-.175-.548c-.061-.25-.127-.504-.198-.754l-.316-1.045-.545-1.8a8.24 8.24 0 0 0-.29-.818 2.394 2.394 0 0 1-.145-.463 9.988 9.988 0 0 0-.342-1.227l-.086-.284-.973-3.214a12.66 12.66 0 0 0-.087-.285 6.305 6.305 0 0 1-.157-.555 6.653 6.653 0 0 0-.164-.555v-.001c-.083-.25-.165-.5-.254-.746a4.074 4.074 0 0 1-.185-.73l-.065-.188a1.133 1.133 0 0 1-.116-.213c-.099-.407-.221-.807-.367-1.2l-.727-2.127a1.258 1.258 0 0 1-.082-.422 7.722 7.722 0 0 1-.291-.822 7.157 7.157 0 0 0-.243-.744l-.878-2.57-.579-2.542a13.747 13.747 0 0 1-.291-1.529c0-.06-.018-.125-.037-.19a1.728 1.728 0 0 1-.025-.098l-.04-.195a.686.686 0 0 1-.124-.312 15.355 15.355 0 0 0-.319-1.631l-.133-.58-.025-.123c-.025-.125-.05-.253-.061-.356a9.553 9.553 0 0 0-.202-1.055l-.573-2.516-.03-.136-.096-.264a5.01 5.01 0 0 1-.103-.323 7.753 7.753 0 0 0-.203-.563l-.03-.077c-.134-.343-.27-.685-.407-1.027l-.001-.001a4.603 4.603 0 0 1-.23-.723l-.685-1.741a10.495 10.495 0 0 1-.435-1.186 5.538 5.538 0 0 0-.206-.552l-.404-1.004a4.57 4.57 0 0 1-.138-.347l-.02.097c-.035.152-.078.29-.122.43-.054.173-.109.347-.145.544-.052.281-.1.502-.15.735l-.038.18-.038.184-.71 3.496a9.958 9.958 0 0 1-.263 1.113c-.033.12-.055.24-.066.364a4.12 4.12 0 0 1-.205.918 1.572 1.572 0 0 0-.103.453c-.018.186-.055.37-.11.548-.068.243-.133.486-.188.737l-.226 1.027-.388 1.79c-.06.275-.105.555-.136.835-.016.156-.048.31-.096.46a9.87 9.87 0 0 0-.305 1.195l-.062.282L50 74.176a8.035 8.035 0 0 1-.213.823c-.055.168-.1.342-.14.544-.059.25-.11.5-.161.75v.001a4.35 4.35 0 0 1-.21.685l-.04.189c.007.077.007.155 0 .233-.122.388-.219.782-.292 1.182l-.456 2.135a1.305 1.305 0 0 1-.144.394c-.039.28-.096.557-.171.83a7.236 7.236 0 0 0-.164.743l-.532 2.48-.397 2.51c-.07.498-.167.992-.291 1.48a1.514 1.514 0 0 0-.037.188l-.015.093-.027.188a.685.685 0 0 1 0 .343c-.131.521-.232 1.05-.302 1.583l-.089.569c-.023.156-.055.31-.096.462a8.87 8.87 0 0 0-.198 1.028l-.391 2.468-.041.246-.059.2-.051.153c-.034.103-.069.206-.11.305-.075.196-.14.418-.202.63-.1.343-.198.686-.288 1.029a4.248 4.248 0 0 1-.26.685l-.494 1.755c-.101.397-.226.789-.373 1.172a5.05 5.05 0 0 0-.171.545l-.288 1.028a3.819 3.819 0 0 1-.137.455c-.21.561-.39 1.133-.538 1.714l-.103.37-.106.37c-.057.124-.131.239-.22.343l-.113-.035a.259.259 0 0 1 0-.103c-.034 0-.072 0-.123.076l-1.028-.291c-.09-.024-.158-.1-.172-.305a.454.454 0 0 1 0-.161l.237-.717c.056-.186.129-.367.216-.541.173-.439.32-.887.442-1.343.03-.117.07-.232.116-.343.137-.352.252-.713.343-1.079l.497-1.758c.078-.305.176-.605.291-.898a7.63 7.63 0 0 0 .278-.912c.103-.397.23-.788.377-1.172.065-.157.116-.342.171-.544l.267-.943.052-.343a4.87 4.87 0 0 1 .175-.716l.342-2.1c.06-.441.144-.878.254-1.31.045-.186.08-.374.103-.565l.23-1.429c.024-.189.06-.377.105-.562.095-.369.168-.743.22-1.12l.432-2.718c.116-.6.245-1.197.373-1.795v-.001c.065-.299.13-.598.192-.897l.785-3.684c.063-.348.148-.691.257-1.028.038-.12.07-.243.096-.367.09-.436.204-.868.342-1.291.046-.154.082-.31.11-.466l.223-1.028c.048-.216.1-.443.164-.641.086-.271.151-.549.213-.83l.551-2.546.019-.083c.049-.222.1-.45.163-.653.078-.238.13-.482.158-.73.022-.19.055-.377.099-.562l.754-3.485c.041-.185.089-.374.144-.549.048-.149.08-.303.096-.459.024-.25.08-.494.168-.73a2.74 2.74 0 0 0 .15-.73 2.06 2.06 0 0 1 .052-.366 7.37 7.37 0 0 0 .171-.805c.03-.168.06-.336.096-.504l.278-1.32c.04-.185.085-.377.14-.551a8.589 8.589 0 0 0 .343-1.577c.026-.236.073-.47.122-.71l.008-.04.432-2.056.079-.377a1.354 1.354 0 0 1 0-.236 3.74 3.74 0 0 1 .092-.46c.095-.306.183-.616.26-.937v-.05l.012-.004c.038-.167.136-.338.19-.338.118-.061.239-.042.326.124l.686-.279c.085-.034.185-.017.342.14a.538.538 0 0 1 .086.145l.257.73c.072.187.129.38.171.575.136.466.298.924.487 1.371.052.12.097.242.134.367.109.374.242.742.397 1.1l.703 1.74c.133.298.248.604.342.916.097.31.212.616.343.914.167.389.312.786.435 1.19.057.188.126.372.206.551l.425 1.056.11.473c.055.245.09.495.106.747l.483 2.128c.115.443.202.892.26 1.346.015.128.048.274.081.418l.036.158.342 1.453c.05.19.088.382.113.576.052.387.125.772.22 1.151l.654 2.875.854 2.495 1.25 3.663c.125.336.23.68.312 1.028.027.127.063.252.106.374.154.429.285.866.395 1.309.04.159.091.316.15.469l.343 1.028c.078.214.142.433.192.655.058.287.14.565.226.85l.774 2.566.004.011c.074.247.151.503.202.743.05.252.124.5.223.737.073.18.137.364.192.551l1.062 3.513c.058.188.106.38.144.565.033.159.081.313.144.463.103.235.176.483.216.737.044.254.125.501.24.733.057.11.106.224.144.343.07.274.169.537.266.798.063.167.124.332.179.5l.442 1.316c.062.185.12.381.164.562.128.538.304 1.064.528 1.57.098.218.176.445.255.676l.02.057.685 2.056.127.374c.045.066.087.136.123.209.062.148.113.3.154.455.082.343.171.686.278 1.028.051.172.055.37 0 .405-.161.144-.346.174-.624-.155Zm-13.08-41.114h.024l-.034-.051.01.051ZM45.81 93.808h.02l-.02.058a.334.334 0 0 1 0-.058Zm10.76 14.273h-.288a.147.147 0 0 1-.075-.011.15.15 0 0 1-.059-.048 1.234 1.234 0 0 1-.497-.065.165.165 0 0 1-.08-.06.168.168 0 0 1-.033-.094l-.02-.182a.83.83 0 0 0-.045-.212.404.404 0 0 1 0-.315v-.072c.017-.131.028-.263.03-.394a2.97 2.97 0 0 1-.02-.222l-.004-.054-.006-.067v-.072l-.103-1.371a1.475 1.475 0 0 1 0-.442.308.308 0 0 0-.02-.144.622.622 0 0 1-.017-.363.246.246 0 0 0 0-.178.39.39 0 0 1-.024-.216 2.136 2.136 0 0 0 0-.295c0-.097-.009-.192-.018-.289a6.96 6.96 0 0 1-.01-.119l-.051-.705a1.027 1.027 0 0 0-.069-.323.341.341 0 0 1 0-.181 1.609 1.609 0 0 0 0-.48v-.11l-.092-1.26a1.17 1.17 0 0 1 0-.343 1.181 1.181 0 0 0 0-.22c-.003-.1-.011-.199-.024-.298a.734.734 0 0 1 .04-.288v-.072a.408.408 0 0 0-.02-.03c-.015-.023-.03-.045-.027-.059a1.555 1.555 0 0 0 0-.473l-.055-.842a.208.208 0 0 1 .048-.165.954.954 0 0 1-.027-.343 1.231 1.231 0 0 0 0-.294l-.117-1.964a1.971 1.971 0 0 1 0-.586.42.42 0 0 0 0-.113v-.072a.13.13 0 0 1-.058-.123c.03-.208.03-.42 0-.627v-.223a.667.667 0 0 1 0-.185c.02-.134.02-.27 0-.404l-.058-.967a1.192 1.192 0 0 1 0-.343c.01-.085.01-.171 0-.257 0-.137 0-.274-.024-.41a.708.708 0 0 1 .04-.285l-.04-.706a1.582 1.582 0 0 1 .017-.476.782.782 0 0 0 0-.22l-.024-.407a.842.842 0 0 1 0-.186 2.512 2.512 0 0 0 0-.685v-.298a.428.428 0 0 1 .113-.154h.116a.044.044 0 0 1 .024.037.11.11 0 0 0 .096-.047l1.073-.062a.308.308 0 0 1 .253.079.089.089 0 0 1 .031.058v.294a.554.554 0 0 1-.044.227c-.038.18-.048.365-.031.548a.43.43 0 0 1 0 .147 1.176 1.176 0 0 0 0 .439l.041.706c.019.121.019.245 0 .367a1.31 1.31 0 0 0 0 .366c.024.16.024.321 0 .48a.775.775 0 0 0 0 .22c0 .138.011.277.023.416l.004.047.007.091a.735.735 0 0 1-.044.288l.048.82c.027.17.027.343 0 .513a.806.806 0 0 0 0 .223l.03.559c.01.072.01.146 0 .219a1.371 1.371 0 0 0 0 .442l.127 2.121c.012.181.022.362.032.544.017.302.034.604.057.906.023.133.023.27 0 .404a.42.42 0 0 0 0 .147c.026.17.026.344 0 .514a.842.842 0 0 0 0 .185l.028.412c.008.085.008.171 0 .257a1.2 1.2 0 0 0 0 .342l.072 1.001c.01.098.01.197 0 .295a.51.51 0 0 0 .024.287.928.928 0 0 1 .038.22l.102 1.37c.007.073.007.147 0 .22a.34.34 0 0 0 .017.181.439.439 0 0 1 0 .288.46.46 0 0 0 .024.288.314.314 0 0 1 .035.141c0 .172.016.344.048.514l.034.52c.007.073.007.147 0 .22-.035.208-.02.422.044.623.029.095.045.193.048.292l.062.815v.148c0 .016.014.031.028.045.012.013.024.026.027.04.01.06.01.122 0 .182a2.19 2.19 0 0 0-.03.397.17.17 0 0 1-.11.155.6.6 0 0 1-.617-.089Zm-1.6-16.137h.023l-.024-.02v.02Zm38.334-37.437h-.29a.784.784 0 0 0-.563-.083.133.133 0 0 0-.116.096c-.01.091-.031.181-.062.268a.25.25 0 0 0 0 .123.104.104 0 0 0 .03.037l.021.021v.655a.578.578 0 0 0 .028.198c.05.135.05.284 0 .418a.443.443 0 0 0-.024.148v.343c.015.113.015.228 0 .342-.006.018.003.038.011.057.007.015.013.03.013.043a.202.202 0 0 1 0 .191.22.22 0 0 0 0 .196.154.154 0 0 1 0 .123.55.55 0 0 0-.024.148v.928a.376.376 0 0 0 .024.151.257.257 0 0 1 0 .195.744.744 0 0 0-.024.196v.685a.616.616 0 0 1-.031.223.503.503 0 0 0-.024.174v.278a.365.365 0 0 1 0 .123.808.808 0 0 0-.051.343.244.244 0 0 1-.021.1.562.562 0 0 0-.038.27V63.91a.686.686 0 0 1-.04.298.342.342 0 0 0 0 .147v.377c.01.05.01.101 0 .15a.75.75 0 0 0-.045.343v.552a.398.398 0 0 0-.062.192v.377c.005.05 0 .1-.017.147a.74.74 0 0 0-.041.323.598.598 0 0 1-.032.275 1.26 1.26 0 0 1-.349-.443 1.525 1.525 0 0 0-.12-.182l-.342-.398a2.732 2.732 0 0 1-.343-.39.367.367 0 0 0-.11-.093.429.429 0 0 1-.185-.219.439.439 0 0 0-.175-.226.312.312 0 0 1-.116-.134.956.956 0 0 0-.12-.185l-.87-1.052a.804.804 0 0 0-.154-.15.524.524 0 0 1-.186-.22 1.26 1.26 0 0 0-.167-.24l-.634-.767a1.289 1.289 0 0 1-.182-.271 1.108 1.108 0 0 0-.144-.213l-.257-.315a.727.727 0 0 1-.11-.144 1.676 1.676 0 0 0-.284-.425.386.386 0 0 1-.075-.123 1.218 1.218 0 0 0-.227-.343c-.184-.219-.36-.444-.536-.67-.118-.152-.237-.304-.358-.454l-1.295-1.655c-.1-.109-.18-.234-.237-.37a.852.852 0 0 0-.123-.182l-.343-.435a.774.774 0 0 1-.123-.181 1.685 1.685 0 0 0-.281-.429l-.5-.637a.686.686 0 0 0-.124-.257c-.116-.144-.23-.288-.343-.435a.758.758 0 0 1-.12-.182 1.68 1.68 0 0 0-.256-.397 1.12 1.12 0 0 1-.21-.299 1.106 1.106 0 0 0-.191-.308l-.432-.548a1.332 1.332 0 0 1-.233-.367.399.399 0 0 0-.079-.123 1.787 1.787 0 0 1-.284-.463.575.575 0 0 0-.09-.212l-.15-.247a.08.08 0 0 0-.059-.03.316.316 0 0 0-.257.078l-.843.665a.119.119 0 0 1-.05.089h-.007a.058.058 0 0 0-.035-.017l-.033.026-.039.005c-.22-.37-.404-.377-.559-.299a.569.569 0 0 0-.058.398c.045.343.072.685.096 1.028.014.16.04.317.076.473.021.076.049.15.082.223l.062.387.325 2.128c.041.257.082.507.144.757.132.53.215 1.072.25 1.617.01.186.034.38.062.573l.209 1.37c.024.169.055.336.086.503.052.276.103.552.126.837.015.125.043.248.082.367.073.244.11.496.11.75-.005.254.023.508.082.754a2.4 2.4 0 0 1 .062.473c.007.185.02.384.045.576l.435 3.591c.018.193.048.384.089.573.057.247.088.5.092.753.01.244.042.51.072.768l.316 2.621.01.081c.03.264.062.525.062.786v.182l.058.288.058.257.223 1.076.03.119v.001c.03.121.06.245.076.353a11.64 11.64 0 0 0 .277 1.383l.01.04c.024.096.049.193.049.28.046.347.115.69.209 1.028l.89 3.714.625 2.595.459 2.827c.07.38.118.762.144 1.147.014.194.04.386.075.576l.233 1.45c.037.191.063.384.079.579.031.45.09.897.175 1.34l.342 2.128c0 .25.02.5.059.747l.246 1.442c.04.19.068.38.086.573.033.416.09.83.171 1.24.067.316.116.635.148.956.022.32.064.638.127.953l.318 1.826c.076.378.128.76.154 1.145.008.128.026.255.052.38.052.275.096.55.13.828l-.144-.207a2.756 2.756 0 0 0-.277-.343 2.95 2.95 0 0 1-.542-.771c-.05-.1-.108-.196-.171-.288l-.453-.648a6.541 6.541 0 0 1-.455-.637.79.79 0 0 0-.144-.161 1.025 1.025 0 0 1-.254-.343 1.004 1.004 0 0 0-.243-.363.753.753 0 0 1-.161-.223 2.03 2.03 0 0 0-.172-.284l-1.199-1.714a2.02 2.02 0 0 0-.209-.26 1.195 1.195 0 0 1-.25-.36 2.995 2.995 0 0 0-.233-.38l-.853-1.261a3.264 3.264 0 0 1-.257-.432 2.372 2.372 0 0 0-.196-.343l-.342-.517a1.376 1.376 0 0 1-.151-.236c-.11-.24-.242-.47-.394-.686a1.025 1.025 0 0 1-.11-.195 2.672 2.672 0 0 0-.312-.528l-1.233-1.82-2.471-3.635-.147.658a7.046 7.046 0 0 1-.26.963c-.057.163-.1.33-.131.5l-.305 1.343a4.94 4.94 0 0 1-.134.528c-.028.075-.06.174-.083.248l-.013.04c-.021.06-.04.122-.054.185l-.09.384-.274 1.213a1.46 1.46 0 0 0-.154.404l-.185.822a2.1 2.1 0 0 1-.089.323c-.09.22-.157.45-.202.685-.032.183-.08.363-.144.538-.07.171-.123.35-.158.531l-.236 1.028c-.04.219-.103.433-.189.637a1.05 1.05 0 0 0-.065.213 4.288 4.288 0 0 1-.24.795c-.06.099-.105.206-.133.319l-.13.421a.189.189 0 0 0 0 .099.275.275 0 0 0 .212.196l1.049.236a.099.099 0 0 1 .048-.037.092.092 0 0 1 .061 0 .1.1 0 0 0 0 .061l.117.028a.797.797 0 0 0 .164-.196l.052-.219.048-.219a5.69 5.69 0 0 1 .28-1.028c.034-.087.058-.176.073-.268l.137-.603c.02-.109.05-.217.089-.322.09-.221.157-.45.202-.685l.233-1.028c.071-.127.123-.263.154-.405.041-.202.09-.404.137-.606.028-.127.066-.252.113-.374a3.22 3.22 0 0 0 .14-.48L76 94.926c.036-.202.093-.4.172-.59a1.48 1.48 0 0 0 .078-.263l.035-.14c.024-.1.089-.247.106-.25.008-.002.003-.019-.004-.042-.007-.023-.017-.053-.017-.082v-.038c.007-.007.002-.016-.003-.024-.008-.013-.014-.024.02-.024.056 0 .071-.065.09-.149l.003-.012v-.055l.456.686c.093.118.176.244.246.377.08.144.176.28.285.404a.473.473 0 0 0 .089.237l.72 1.062c.143.191.268.397.37.613.007.023.043.045.076.067l.033.022.062.096c.045.138.11.268.192.387.089.124.171.247.254.374.06.092.116.188.164.288.07.152.155.296.254.432l1.076 1.586.096.137c.142.196.266.405.37.624.04.083.094.159.16.223.12.117.228.246.323.383l.613.878.343.507c.082.123.16.25.233.38a.93.93 0 0 0 .195.264c.068.062.12.14.151.226.073.17.177.325.308.456.053.05.098.108.134.171.096.2.21.391.343.569l1.2 1.714.064.089.104.15c.063.093.126.186.211.299.072.094.119.189.165.284.038.077.076.154.127.23l.061.092a.876.876 0 0 0 .25.404c.075.079.145.163.21.251l.164.222c.075.096.161.148.226.148a.875.875 0 0 0 .487-.158.15.15 0 0 0 .164 0l.088-.058h.001l.282-.05a.441.441 0 0 0 .362-.063l.412-.072c.014-.1.048-.124.082-.124.004.036.017.07.038.1l.116-.021c.035-.132.051-.268.048-.404l-.065-.387-.068-.384a17.416 17.416 0 0 1-.264-1.81 4.385 4.385 0 0 0-.072-.479l-.185-1.056a5.447 5.447 0 0 0-.033-.177c-.026-.137-.053-.273-.053-.395-.032-.415-.09-.829-.171-1.237l-.316-1.823a4.878 4.878 0 0 0-.068-.744 32.77 32.77 0 0 1-.185-1.062 8.111 8.111 0 0 1-.093-.665 9.04 9.04 0 0 0-.096-.752l-.017-.108-.407-2.512a9.338 9.338 0 0 1-.13-1.055 5.424 5.424 0 0 0-.057-.463l-.002-.014-.093-.579c-.1-.537-.17-1.079-.212-1.624a.712.712 0 0 0-.103-.319l-.03-.192a2.258 2.258 0 0 0-.017-.097c-.013-.065-.025-.13-.025-.19a13.25 13.25 0 0 0-.192-1.525l-.4-2.47-.638-2.653a7.198 7.198 0 0 0-.061-.25 4.637 4.637 0 0 1-.11-.504 7.152 7.152 0 0 0-.21-.84 1.29 1.29 0 0 0-.04-.421l-.521-2.162c-.106-.4-.19-.805-.25-1.213a1.107 1.107 0 0 0-.093-.223l-.048-.189a4.284 4.284 0 0 0-.113-.736 20.357 20.357 0 0 1-.182-.761 6.033 6.033 0 0 1-.113-.562 5.39 5.39 0 0 0-.051-.319l-.051-.26c.013.01.009-.03.005-.079a.925.925 0 0 1-.005-.079l-.401-3.296-.035-.292a9.665 9.665 0 0 1-.106-1.247 2.27 2.27 0 0 0-.062-.476 8.125 8.125 0 0 1-.147-.85l-.223-1.847-.127-1.07a19.276 19.276 0 0 1-.065-.767 2.809 2.809 0 0 0-.078-.565 1.797 1.797 0 0 1-.052-.47c0-.32-.042-.637-.123-.946a2.263 2.263 0 0 1-.072-.37 10.237 10.237 0 0 0-.144-1.155l-.548-3.58-.031-.189-.042-.279a16.076 16.076 0 0 0-.106-.66 4.743 4.743 0 0 1-.057-.578c-.009-.15-.017-.297-.038-.45l-.028-.188c.005-.101.003-.202-.004-.302l.288.367a.71.71 0 0 0 .127.26c.086.103.172.21.25.319.054.067.1.14.138.216.046.1.105.192.174.277l.593.754c.09.101.164.217.216.343a.627.627 0 0 0 .1.154c.027.041.057.08.088.117l.045.058c.139.155.254.33.343.517a.13.13 0 0 0 .116.069l.045.058a.393.393 0 0 1 .065.09c.08.177.186.342.315.49l1.203 1.53c.069.072.127.151.175.237.03.077.082.126.133.176.025.024.05.048.072.075a.204.204 0 0 0 .055.16c.084.103.164.204.243.305.093.117.185.234.281.35.11.112.2.242.268.384.007.02.058.044.089.044l.048.055c.023.094.067.18.13.254.065.075.13.15.189.23a.793.793 0 0 1 .12.181c.046.099.107.19.181.27l.798.964.069.085c.11.116.2.25.267.394a.366.366 0 0 0 .117.137c.09.062.172.137.24.223l.445.538.035.041.037.043v.002c.065.075.129.15.189.23.058.076.112.156.16.24a.408.408 0 0 0 .145.16.24.24 0 0 1 .11.14.624.624 0 0 0 .222.285c.04.026.073.06.1.1.065.127.15.243.253.342l.87 1.052.045.055.056.07c.056.07.112.14.173.204.075.11.141.224.2.343l.044.055a.397.397 0 0 0 .178.257.903.903 0 0 1 .158.147l.12.134a.168.168 0 0 0 .181.061c.162-.048.312-.128.442-.236a.145.145 0 0 0 .14-.027l.21-.168h.394a.168.168 0 0 1 .1-.028c0 .028.02.028.02.028h.12a.342.342 0 0 0 .116-.1V68.8a.97.97 0 0 1 0-.1 1.15 1.15 0 0 1 .048-.47.37.37 0 0 0 0-.123v-.277a.342.342 0 0 1 0-.147.738.738 0 0 0 .045-.32v-.476a.343.343 0 0 0 .058-.191v-.278c0-.058.007-.116.024-.171a.561.561 0 0 0 .034-.223v-.655a.573.573 0 0 1 .038-.27.373.373 0 0 0 .02-.124v-.15a.982.982 0 0 1 .048-.422c.018-.034-.017-.062-.047-.082v-.052a.188.188 0 0 1 0-.075.91.91 0 0 0 .054-.394v-1.326a.482.482 0 0 1 0-.199c.028-.053.019-.1.01-.148a.372.372 0 0 1-.01-.071.126.126 0 0 0 .059-.11v-.572a.665.665 0 0 1 .04-.316c.004-.006-.006-.017-.017-.028-.011-.01-.023-.023-.023-.033v-.051a.315.315 0 0 0 .058-.189 2.005 2.005 0 0 1 0-.202c.001-.05.01-.1.024-.148a.545.545 0 0 0 .034-.219v-.928a.685.685 0 0 1 .045-.32.154.154 0 0 0 0-.122.552.552 0 0 1-.045-.223v-.751c0-.067.01-.134.028-.199a.192.192 0 0 0 0-.143.124.124 0 0 1 0-.124.301.301 0 0 0 0-.243.162.162 0 0 1 0-.096.687.687 0 0 0 .034-.298v-.977c0-.027 0-.053.002-.08.002-.052.005-.105-.002-.166-.006-.05.012-.096.029-.141.014-.04.029-.079.029-.12a.24.24 0 0 0 0-.048.2.2 0 0 0 .027-.212.343.343 0 0 1-.027-.144v-.124a.123.123 0 0 0-.103-.11 1.672 1.672 0 0 0-.49-.068.172.172 0 0 0-.127-.044Zm.182 10.924h.024v.017l-.024-.017Zm-6.782 28.946h.024l.007.051a.4.4 0 0 1-.03-.051Zm-10.897.654h-.02a.14.14 0 0 0 0 .035l.02-.035Zm31.372-7.61v-.02a.196.196 0 0 0 0 .033v-.013Zm27.243 21.581h.291c.161.408.343.446.463.387a.608.608 0 0 0 .116-.394c.007-.366.031-.729.059-1.072a4.12 4.12 0 0 0 0-.497 1.801 1.801 0 0 0-.052-.24v-2.632l-.001-.088a7.263 7.263 0 0 0-.03-.71 9.768 9.768 0 0 1 0-1.693c.021-.192.021-.397.021-.596v-1.419c0-.155-.004-.31-.008-.465-.007-.31-.015-.621.008-.936a2.509 2.509 0 0 0-.027-.388 2.945 2.945 0 0 1 0-.784 3.17 3.17 0 0 0 .017-.785 2.361 2.361 0 0 1 0-.49c.031-.192.031-.398.031-.596l.034-3.739a4.945 4.945 0 0 0-.017-.596 3.957 3.957 0 0 1 0-.785c.031-.253.031-.531.031-.798l.027-2.742c.003-.305.01-.6.041-.898l.069-.685.085-1.107.011-.141c.009-.123.018-.254.037-.359.077-.454.129-.911.158-1.37.01-.133.027-.264.051-.395.063-.36.103-.724.12-1.09l.302-3.93.216-2.79-.134-3.05c-.024-.399-.024-.8 0-1.199.01-.2.01-.4 0-.6l-.065-1.517c-.01-.2-.01-.4 0-.6.022-.467.016-.935-.017-1.401l-.096-2.224a4.77 4.77 0 0 0 .024-.775l-.021-.425.038-1.028c.001-.2.012-.398.034-.596.053-.429.082-.86.086-1.292.001-.333.019-.666.055-.997.041-.329.065-.66.072-.99l.061-1.92c.003-.397.031-.794.083-1.189.02-.131.029-.264.027-.397.009-.495.047-.99.113-1.48.042-.2.068-.403.079-.607l.058-.792a.501.501 0 0 0-.017-.168c-.068-.205-.151-.267-.243-.267l-1.073-.034c-.031.106-.068.106-.103.106a.275.275 0 0 0-.017-.106h-.14c-.06.126-.104.26-.13.398v.808c-.007.159-.012.317-.017.476-.015.477-.03.953-.097 1.416a4.647 4.647 0 0 0-.027.5l-.038 1.107c0 .2-.012.398-.034.596-.053.429-.081.86-.086 1.292l-.065 1.912a5.254 5.254 0 0 0-.085.771c-.003.158-.01.317-.017.475-.009.212-.018.425-.018.639l-.001.023c-.01.22-.02.454-.05.662-.031.11-.031.22-.031.326l-.02.343v.27l.113 2.632c.022.365.022.731 0 1.096v.497l.027.607c.039.57.047 1.142.024 1.713a.71.71 0 0 0 .065.343v.202c.005.1.005.201 0 .302a15.55 15.55 0 0 0 .017 1.586l.11 2.526-.209 2.714a9.15 9.15 0 0 0-.015.242c-.011.194-.022.39-.054.556a7.64 7.64 0 0 0-.058.895 1.28 1.28 0 0 0-.092.431l-.179 2.3c-.021.428-.066.855-.137 1.278 0 .083.007.165.021.247v.202a4.528 4.528 0 0 0-.12.767c-.017.268-.038.538-.062.806l-.011.111c-.016.164-.033.33-.061.482a5.12 5.12 0 0 0-.085.89l-.035 3.427v.305c.008.433-.01.865-.054 1.295a2.292 2.292 0 0 0 0 .497c.027.298.038.596.034.895l-.017 1.929v1.114c-.004.267-.017.534-.035.798a3.223 3.223 0 0 0 0 .59c.023.163.023.33 0 .493a4.401 4.401 0 0 0 0 .987 1.79 1.79 0 0 1 0 .387c-.029.4-.039.802-.027 1.203l.021 3.742v1.182c.005.202-.012.395-.028.585a5.332 5.332 0 0 0-.027.471v.198a3.054 3.054 0 0 0-.024.854c.034.171.034.383.034.582v.497a.737.737 0 0 0 .106.446l.053.048c.135.126.286.267.437.219.035.137.079.188.127.188Zm.391-43.968h-.024v-.059a.575.575 0 0 1 .024.059Z" fill="#fff"/><path stroke="#DDD" d="M.5.5h159v159H.5z"/></svg>