<svg width="127" height="29" fill="none" xmlns="http://www.w3.org/2000/svg"><path d="M1.766 27.32c-.003.19.01.383.04.572h-.474a3.02 3.02 0 0 0 .04-.573V24.4h-.79a3.594 3.594 0 0 0-.582.036v-.425c.191.027.385.039.578.035h1.974c.2.005.399-.007.596-.035v.425a3.58 3.58 0 0 0-.596-.035h-.786v2.92ZM3.372 27.892c.027-.19.039-.381.035-.573v-2.702a3.664 3.664 0 0 0-.035-.572h.45c-.031.19-.045.384-.04.577v.855c0 .084-.005.169-.015.253.069-.132.164-.248.278-.343.208-.186.48-.284.759-.274.592 0 .946.35.946.94v1.272c-.001.19.01.38.036.567H5.33c.028-.19.04-.381.036-.573v-1.196c0-.44-.218-.678-.611-.678a.876.876 0 0 0-.714.367 1.17 1.17 0 0 0-.253.531v.977c-.001.192.01.383.036.573l-.452-.001ZM6.775 24.046v.45h-.489v-.45h.489Zm-.02 1.118c-.027.19-.039.38-.035.572v1.588c-.002.191.01.383.035.573H6.3c.024-.19.036-.382.035-.573v-1.588a3.676 3.676 0 0 0-.035-.572h.455ZM7.564 27.082c.01.14.074.27.177.367.167.129.375.192.586.177.441 0 .72-.187.72-.489a.342.342 0 0 0-.158-.314c-.122-.076-.222-.106-.597-.182-.405-.085-.577-.146-.75-.262a.625.625 0 0 1-.273-.532.68.68 0 0 1 .219-.489c.218-.187.502-.282.789-.263.344 0 .61.081.794.244.138.12.233.281.269.46l-.4.066a.46.46 0 0 0-.122-.267.688.688 0 0 0-.526-.193c-.367 0-.633.187-.633.455a.312.312 0 0 0 .172.279c.177.087.367.145.562.172.489.111.654.172.805.289a.67.67 0 0 1 .244.526c0 .506-.43.82-1.124.82-.46 0-.814-.137-1.001-.395a.977.977 0 0 1-.163-.4l.41-.069ZM11.784 24.046v.45h-.49v-.45h.49Zm-.02 1.118c-.027.19-.039.38-.035.572v1.588c-.002.191.01.383.035.573h-.456c.025-.19.037-.382.036-.573v-1.588a3.681 3.681 0 0 0-.036-.572h.456ZM12.562 27.082a.57.57 0 0 0 .179.367c.167.129.376.192.586.177.441 0 .72-.187.72-.489a.342.342 0 0 0-.158-.314c-.122-.076-.222-.106-.597-.182-.405-.085-.577-.146-.75-.262a.625.625 0 0 1-.273-.532.681.681 0 0 1 .218-.489c.219-.187.502-.282.79-.263.345 0 .61.081.794.244.139.12.233.281.269.46l-.4.066a.46.46 0 0 0-.122-.267.688.688 0 0 0-.526-.193c-.367 0-.633.187-.633.455a.313.313 0 0 0 .172.28c.177.086.367.144.562.171.489.111.652.172.805.289a.67.67 0 0 1 .244.526c0 .506-.43.82-1.123.82-.461 0-.815-.137-1.003-.395a.992.992 0 0 1-.162-.4l.408-.069ZM17.067 24.413a3.772 3.772 0 0 0-.035.562v.192h.244a3.08 3.08 0 0 0 .517-.031v.376a3.135 3.135 0 0 0-.517-.03h-.244v1.761c0 .148.02.224.066.269.067.06.155.09.244.085a.7.7 0 0 0 .401-.13l.111.354c-.18.08-.375.119-.572.116a.7.7 0 0 1-.497-.156c-.1-.102-.141-.245-.141-.489v-1.805h-.202c-.152 0-.305.01-.456.03v-.385c.15.026.304.036.456.03h.202v-.19a3.799 3.799 0 0 0-.036-.563l.46.004ZM18.076 27.892c.027-.19.039-.381.036-.573v-2.702a3.668 3.668 0 0 0-.036-.572h.45c-.03.19-.044.384-.04.577v.855c.002.084-.003.169-.015.253.07-.13.163-.245.276-.34.208-.186.48-.284.76-.274.59 0 .945.35.945.941v1.272c-.002.19.01.379.036.567h-.456c.027-.19.04-.382.035-.573v-1.2c0-.44-.217-.678-.61-.678a.876.876 0 0 0-.714.367 1.17 1.17 0 0 0-.253.531v.977c-.002.192.01.383.036.573l-.45-.001ZM21.254 26.586c.015.338.066.525.203.709a.846.846 0 0 0 .71.343.827.827 0 0 0 .835-.591l.355.141a1.23 1.23 0 0 1-.279.42 1.268 1.268 0 0 1-.916.355c-.795 0-1.296-.557-1.296-1.433s.496-1.433 1.256-1.433c.652 0 1.124.42 1.221 1.1.006.054.026.252.036.389h-2.125Zm1.726-.319a.92.92 0 0 0-.268-.623.821.821 0 0 0-.598-.228.793.793 0 0 0-.718.44c-.068.128-.11.267-.122.411h1.706ZM25.254 28.955c.024-.188.036-.378.035-.567v-2.643c.002-.194-.01-.389-.035-.582h.404v.288c0 .07-.005.139-.014.208a1.155 1.155 0 0 1 1.032-.546c.78 0 1.254.531 1.254 1.412 0 .855-.488 1.412-1.244 1.412a1.205 1.205 0 0 1-1.042-.536c.013.117.02.236.02.354v.628c-.003.191.008.382.035.572h-.445Zm2.288-2.43c0-.69-.324-1.084-.89-1.084-.567 0-.978.435-.978 1.089-.017.297.084.59.28.815a.996.996 0 0 0 .692.268c.556-.005.896-.415.896-1.088ZM28.2 26.53c0-.876.526-1.433 1.35-1.433.825 0 1.344.557 1.344 1.428 0 .87-.526 1.432-1.344 1.432-.817 0-1.35-.551-1.35-1.427Zm.389-.01c0 .688.366 1.108.961 1.108s.958-.42.958-1.1c0-.679-.366-1.109-.947-1.109-.602-.003-.972.417-.972 1.101ZM31.742 24.046a3.62 3.62 0 0 0-.036.572v2.708c-.001.19.01.38.036.567h-.456c.025-.188.037-.377.036-.567v-2.714c.002-.19-.01-.38-.036-.567l.456.001ZM32.745 24.046v.45h-.49v-.45h.49Zm-.02 1.118c-.027.19-.039.38-.035.572v1.588c-.003.191.01.383.035.573h-.456c.024-.19.036-.382.036-.573v-1.588a3.822 3.822 0 0 0-.036-.572h.456ZM34.036 24.413a3.618 3.618 0 0 0-.036.562v.192h.245c.172.004.344-.006.515-.031v.376a3.12 3.12 0 0 0-.515-.03H34v1.761c0 .148.02.224.066.269a.34.34 0 0 0 .244.085.7.7 0 0 0 .4-.13l.111.354c-.18.08-.375.119-.572.116a.699.699 0 0 1-.496-.156c-.101-.102-.141-.245-.141-.489v-1.805h-.203c-.152 0-.305.01-.456.03v-.385c.15.026.303.036.456.03h.203v-.19a3.97 3.97 0 0 0-.036-.563l.46.004ZM35.529 24.046v.45h-.49v-.45h.49Zm-.02 1.118c-.028.19-.04.38-.037.572v1.588c-.001.191.01.383.037.573h-.456a4.59 4.59 0 0 0 .036-.573v-1.588a3.835 3.835 0 0 0-.036-.572h.456ZM37.983 26c-.146-.394-.39-.582-.764-.582-.557 0-.912.436-.912 1.114 0 .678.367 1.094.933 1.094a.745.745 0 0 0 .768-.583l.38.101c-.047.14-.118.272-.208.39a1.164 1.164 0 0 1-.956.425c-.794 0-1.306-.55-1.306-1.417 0-.866.506-1.448 1.28-1.448a1.148 1.148 0 0 1 .977.466c.073.098.133.205.178.319l-.37.122ZM39.037 27.082c.012.14.075.27.177.367.167.129.376.192.587.177.44 0 .72-.187.72-.489a.343.343 0 0 0-.158-.314c-.123-.076-.223-.106-.598-.182-.404-.085-.576-.146-.749-.262a.625.625 0 0 1-.273-.532.678.678 0 0 1 .217-.489c.22-.187.503-.282.79-.263.345 0 .611.081.795.244.138.12.233.281.268.46l-.4.066a.46.46 0 0 0-.121-.267.688.688 0 0 0-.527-.193c-.366 0-.633.187-.633.455a.313.313 0 0 0 .173.28c.177.086.366.144.562.171.488.111.652.172.805.289a.67.67 0 0 1 .244.526c0 .506-.431.82-1.124.82-.46 0-.815-.137-1.003-.395a.992.992 0 0 1-.161-.4l.41-.069ZM42.64 26.53c0-.876.527-1.433 1.352-1.433.824 0 1.343.557 1.343 1.428 0 .87-.524 1.43-1.338 1.43-.815 0-1.356-.55-1.356-1.425Zm.39-.01c0 .688.367 1.108.962 1.108s.956-.42.956-1.1c0-.679-.366-1.109-.947-1.109-.602-.003-.97.417-.97 1.101ZM45.886 25.487c-.155 0-.308.01-.461.03v-.385c.152.023.306.033.46.03h.208v-.297c0-.31.04-.472.156-.618a.796.796 0 0 1 .638-.245c.184-.002.366.033.536.102l-.106.34a.764.764 0 0 0-.419-.123.402.402 0 0 0-.344.137c-.056.082-.076.188-.076.425v.279h.253c.18.003.358-.007.536-.03v.38a3.317 3.317 0 0 0-.536-.03h-.254v1.832c-.003.19.009.38.035.567h-.456c.025-.19.037-.381.036-.573v-1.832l-.206.01ZM51.06 26c-.149-.394-.392-.582-.766-.582-.557 0-.91.436-.91 1.114 0 .678.366 1.094.93 1.094a.746.746 0 0 0 .77-.583l.38.101c-.048.14-.118.272-.208.39a1.164 1.164 0 0 1-.957.425c-.794 0-1.306-.55-1.306-1.417 0-.866.506-1.448 1.28-1.448a1.149 1.149 0 0 1 .978.466c.073.1.133.209.177.325l-.369.116ZM52.298 24.046c-.026.19-.038.38-.035.572v2.708c-.002.19.01.38.035.567h-.455c.026-.188.038-.377.035-.567v-2.714c.004-.19-.008-.38-.035-.567l.455.001ZM52.687 26.53c0-.876.527-1.433 1.351-1.433.825 0 1.344.557 1.344 1.428 0 .87-.524 1.43-1.333 1.43-.808 0-1.362-.55-1.362-1.425Zm.39-.01c0 .688.367 1.108.961 1.108.595 0 .957-.42.957-1.1 0-.679-.366-1.109-.947-1.109-.602-.003-.976.417-.976 1.101h.005ZM57.766 27.562c0-.074.004-.149.014-.222-.253.415-.567.602-1.022.602-.367 0-.648-.132-.81-.375-.1-.179-.15-.381-.142-.586V25.73c.003-.19-.009-.38-.035-.567h.455c-.025.19-.037.38-.035.572v1.18c0 .45.217.703.61.703a.869.869 0 0 0 .734-.4c.117-.148.197-.321.233-.506v-.977a3.876 3.876 0 0 0-.035-.572h.45c-.026.19-.038.38-.035.572v1.588c-.003.192.01.383.04.573h-.42l-.002-.334ZM60.842 27.644c0-.082.006-.163.016-.244a1.13 1.13 0 0 1-1.028.546c-.78 0-1.255-.537-1.255-1.417 0-.881.489-1.417 1.245-1.417a1.163 1.163 0 0 1 1.038.536l-.006-.076a1.578 1.578 0 0 1-.014-.269v-.678a3.902 3.902 0 0 0-.036-.576h.446c-.025.19-.037.38-.035.572v2.687c-.003.195.009.39.035.583h-.406v-.247Zm-1.867-1.129c-.016.279.057.555.207.79a.835.835 0 0 0 .678.303c.593 0 .978-.43.978-1.099a1.12 1.12 0 0 0-.284-.804.977.977 0 0 0-.689-.268c-.556 0-.89.404-.89 1.078ZM62.036 27.082c.012.14.075.27.178.366.167.13.376.193.587.178.44 0 .718-.187.718-.489a.341.341 0 0 0-.156-.314c-.122-.076-.223-.106-.597-.182-.406-.085-.578-.146-.749-.263a.624.624 0 0 1-.274-.531.677.677 0 0 1 .218-.489c.219-.187.502-.281.789-.263.344 0 .61.081.795.244.139.12.233.281.269.46l-.4.066a.459.459 0 0 0-.123-.267.693.693 0 0 0-.526-.193c-.367 0-.633.187-.633.455a.31.31 0 0 0 .172.279c.177.087.367.145.562.172.489.111.652.172.804.288a.667.667 0 0 1 .244.527c0 .506-.43.82-1.124.82-.46 0-.815-.137-1.001-.395a1.009 1.009 0 0 1-.163-.4l.41-.069ZM64.78 27.39v.502h-.5v-.502h.5ZM69.13 27.363c-.003.192.01.383.04.572h-.473c.031-.189.045-.38.04-.572v-2.92h-.789a3.747 3.747 0 0 0-.583.035v-.425c.192.027.385.039.578.035h1.975c.2.005.4-.007.597-.035v.425a3.726 3.726 0 0 0-.597-.036h-.785l-.002 2.921ZM70.735 27.94c.027-.19.04-.38.036-.572V24.66a3.669 3.669 0 0 0-.036-.572h.451c-.032.19-.046.384-.041.578v.855c0 .084-.004.169-.015.253.07-.132.164-.25.278-.345.209-.185.48-.283.759-.273.593 0 .947.349.947.942v1.27c-.002.19.01.379.035.567h-.456c.028-.19.04-.38.036-.572v-1.195c0-.44-.218-.678-.61-.678a.875.875 0 0 0-.714.367 1.175 1.175 0 0 0-.253.531v.977c-.002.192.01.383.035.572l-.452.003ZM73.914 26.629c.015.34.066.526.203.708a.843.843 0 0 0 .713.345.827.827 0 0 0 .836-.593l.354.142a1.221 1.221 0 0 1-.7.69c-.158.061-.326.09-.495.085-.795 0-1.296-.557-1.296-1.432 0-.875.496-1.433 1.256-1.433.652 0 1.124.42 1.222 1.1.006.056.025.252.035.39l-2.128-.002Zm1.726-.319a.92.92 0 0 0-.269-.622.816.816 0 0 0-.597-.228.793.793 0 0 0-.718.44c-.068.128-.11.267-.122.41h1.706ZM77.913 28.997c.024-.187.036-.377.035-.566v-2.643a4.11 4.11 0 0 0-.035-.581h.404v.29c0 .069-.005.138-.014.207a1.156 1.156 0 0 1 1.032-.547c.78 0 1.255.532 1.255 1.413 0 .855-.49 1.412-1.245 1.412a1.204 1.204 0 0 1-1.042-.537c.014.117.02.236.02.354v.63c-.003.19.009.382.035.571l-.445-.003Zm2.282-2.428c0-.689-.324-1.084-.89-1.084-.567 0-.978.435-.978 1.089-.013.297.09.588.288.81.189.174.437.27.694.267.553 0 .886-.409.886-1.082ZM80.858 26.574c0-.876.527-1.433 1.352-1.433.824 0 1.343.557 1.343 1.428 0 .871-.526 1.432-1.343 1.432-.818 0-1.352-.55-1.352-1.427Zm.39-.011c0 .689.367 1.11.962 1.11.594 0 .956-.421.956-1.1 0-.68-.367-1.11-.945-1.11-.603-.003-.973.417-.973 1.1ZM84.403 24.088a3.62 3.62 0 0 0-.035.572v2.708c-.002.19.01.379.035.567h-.456c.026-.188.038-.377.036-.567v-2.713c.002-.19-.01-.38-.036-.567h.456ZM85.405 24.088v.45h-.489v-.45h.489Zm-.021 1.119c-.027.19-.038.38-.035.572v1.588c-.002.19.01.382.035.571h-.454c.023-.19.035-.38.035-.571v-1.588a3.822 3.822 0 0 0-.035-.572h.454ZM86.696 24.453a3.59 3.59 0 0 0-.036.561v.193h.245c.172.004.344-.006.515-.03v.384a2.993 2.993 0 0 0-.516-.03h-.244v1.761c0 .147.02.223.066.269.067.06.155.09.245.085a.702.702 0 0 0 .399-.131l.111.354c-.18.082-.374.123-.572.122a.692.692 0 0 1-.496-.158c-.101-.101-.141-.244-.141-.488V25.53h-.203c-.153 0-.305.01-.456.03v-.385c.15.026.303.036.456.031h.203v-.193a3.954 3.954 0 0 0-.036-.56h.46ZM88.188 24.088v.45H87.7v-.45h.49Zm-.02 1.119c-.027.19-.039.38-.036.572v1.588c-.002.19.01.382.035.571h-.454c.024-.19.036-.38.035-.571v-1.588a3.822 3.822 0 0 0-.035-.572h.454ZM90.643 26.043c-.148-.396-.39-.583-.765-.583-.557 0-.911.435-.911 1.114 0 .68.366 1.093.932 1.093a.748.748 0 0 0 .768-.582l.38.101a1.37 1.37 0 0 1-.207.39 1.164 1.164 0 0 1-.957.425c-.794 0-1.306-.552-1.306-1.417s.506-1.448 1.28-1.448a1.145 1.145 0 0 1 .978.466c.073.1.132.208.177.323l-.37.118ZM91.696 27.125c.013.14.076.27.178.366.167.13.376.193.587.177.44 0 .72-.188.72-.488a.342.342 0 0 0-.159-.314c-.122-.076-.222-.106-.597-.182-.404-.086-.576-.147-.749-.264a.62.62 0 0 1-.273-.531.677.677 0 0 1 .217-.49c.22-.186.503-.28.79-.262.344 0 .611.08.794.245a.814.814 0 0 1 .27.46l-.401.066a.456.456 0 0 0-.123-.269.694.694 0 0 0-.526-.191c-.367 0-.633.186-.633.455a.313.313 0 0 0 .172.279c.175.085.363.142.555.17.489.112.652.172.805.29a.67.67 0 0 1 .244.526c0 .505-.43.82-1.123.82-.461 0-.815-.138-1.004-.395a1 1 0 0 1-.16-.401l.416-.067ZM95.3 26.574c0-.876.526-1.433 1.35-1.433.825 0 1.345.557 1.345 1.428 0 .871-.527 1.432-1.344 1.432-.817 0-1.351-.55-1.351-1.427Zm.39-.011c0 .689.366 1.11.96 1.11.596 0 .957-.421.957-1.1 0-.68-.366-1.11-.946-1.11-.601-.003-.968.417-.968 1.1h-.004ZM98.546 25.53c-.155 0-.309.01-.461.031v-.385c.152.023.306.034.46.031h.203v-.3c0-.307.04-.47.157-.616.116-.147.354-.244.637-.244.184-.003.366.032.537.1l-.107.34a.773.773 0 0 0-.42-.117.398.398 0 0 0-.343.137c-.056.08-.076.187-.076.425v.279h.253c.18.003.359-.007.536-.03v.384a3.185 3.185 0 0 0-.536-.03h-.253v1.832c-.003.19.01.379.035.567h-.455c.025-.19.037-.381.035-.572V25.53h-.203ZM102.038 26.629c.015.34.066.526.203.708a.835.835 0 0 0 .713.345.826.826 0 0 0 .835-.593l.355.142a1.212 1.212 0 0 1-.701.69c-.157.061-.325.09-.494.085-.795 0-1.296-.557-1.296-1.432 0-.875.496-1.433 1.256-1.433.652 0 1.123.42 1.222 1.1 0 .056.025.252.035.39l-2.128-.002Zm1.726-.319a.916.916 0 0 0-.269-.622.806.806 0 0 0-.593-.228.795.795 0 0 0-.719.44 1.069 1.069 0 0 0-.122.41h1.703ZM104.554 27.94c.026-.19.038-.38.035-.572V25.78a3.644 3.644 0 0 0-.035-.572h.41v.279c0 .025 0 .085-.01.182.051-.094.116-.18.192-.253a.992.992 0 0 1 .714-.264.818.818 0 0 1 .653.259.66.66 0 0 1 .156.293c.239-.39.512-.552.937-.552.334 0 .587.106.733.31.13.193.191.425.173.657v1.25c-.004.19.008.38.035.567h-.456c.03-.189.042-.38.036-.572v-1.196c0-.48-.177-.687-.583-.687a.755.755 0 0 0-.638.366 1.087 1.087 0 0 0-.167.522v.997c-.003.19.009.379.036.566h-.452c.027-.189.038-.38.035-.571v-1.193c0-.444-.202-.687-.567-.687a.792.792 0 0 0-.662.384 1.111 1.111 0 0 0-.167.506v.992c-.002.191.01.382.035.572l-.443.005ZM109.062 28.997c.025-.187.037-.377.036-.566v-2.643a3.9 3.9 0 0 0-.036-.581h.406v.29c0 .069-.006.138-.016.207a1.163 1.163 0 0 1 1.034-.547c.779 0 1.254.532 1.254 1.413 0 .855-.488 1.412-1.245 1.412a1.209 1.209 0 0 1-1.043-.537c.015.117.022.236.021.354v.63c-.003.19.009.382.035.57l-.446-.002Zm2.284-2.428c0-.689-.324-1.084-.891-1.084s-.977.435-.977 1.089c-.013.297.09.587.288.81.189.175.437.27.694.267.551 0 .886-.409.886-1.082ZM112.909 24.453a3.756 3.756 0 0 0-.035.561v.193h.244c.173.004.346-.006.517-.03v.384a3.01 3.01 0 0 0-.517-.03h-.244v1.761a.363.363 0 0 0 .066.269c.067.059.155.09.244.085a.704.704 0 0 0 .401-.131l.111.354a1.356 1.356 0 0 1-.572.122.693.693 0 0 1-.497-.158c-.1-.101-.142-.244-.142-.488V25.53h-.201c-.153 0-.305.01-.456.03v-.385c.151.026.303.036.456.031h.201v-.193a3.756 3.756 0 0 0-.035-.56h.459ZM114.404 24.088v.45h-.489v-.45h.489Zm-.021 1.119c-.027.19-.039.38-.036.572v1.588c-.001.191.011.383.037.573h-.456c.025-.19.037-.38.036-.572V25.78a3.645 3.645 0 0 0-.036-.572l.455-.001ZM114.919 27.94a3.22 3.22 0 0 0 .042-.572V25.78a3.42 3.42 0 0 0-.042-.572h.42v.345c.001.072-.004.145-.014.217a1.102 1.102 0 0 1 1.022-.61c.367 0 .648.131.81.38.104.175.153.378.142.582v1.25c-.004.19.008.379.035.567h-.455c.025-.19.037-.381.035-.572v-1.179c0-.456-.217-.699-.618-.699-.283 0-.511.122-.723.4-.12.144-.2.316-.234.5v.978c-.001.191.011.382.036.572h-.456ZM118.104 26.629c.014.34.066.526.202.708a.85.85 0 0 0 .714.345.83.83 0 0 0 .834-.593l.354.142a1.19 1.19 0 0 1-.277.42 1.263 1.263 0 0 1-.916.355c-.795 0-1.296-.557-1.296-1.432 0-.875.496-1.433 1.254-1.433.654 0 1.124.42 1.222 1.1 0 .056.026.252.035.39l-2.126-.002Zm1.726-.319a.92.92 0 0 0-.269-.622.82.82 0 0 0-.597-.228.792.792 0 0 0-.719.44 1.069 1.069 0 0 0-.122.41h1.707ZM120.887 27.125c.012.14.075.27.178.366.166.13.375.193.586.178.441 0 .719-.189.719-.49a.335.335 0 0 0-.157-.313c-.122-.076-.223-.106-.598-.182-.404-.086-.576-.147-.748-.264a.617.617 0 0 1-.274-.531.682.682 0 0 1 .219-.489c.219-.186.502-.28.789-.263.344 0 .611.081.795.245.138.12.232.281.268.46l-.4.066a.46.46 0 0 0-.122-.268.693.693 0 0 0-.527-.192c-.366 0-.632.187-.632.455a.314.314 0 0 0 .172.279c.176.085.364.142.558.17.489.112.654.172.805.29a.666.666 0 0 1 .245.526c0 .505-.43.82-1.124.82-.461 0-.815-.137-1.002-.395a.99.99 0 0 1-.163-.4l.413-.068ZM123.403 27.125a.57.57 0 0 0 .177.366c.167.13.377.193.588.178.439 0 .718-.189.718-.49a.335.335 0 0 0-.035-.178.351.351 0 0 0-.121-.135c-.123-.076-.224-.106-.598-.182-.405-.086-.578-.147-.749-.264a.628.628 0 0 1-.273-.531.68.68 0 0 1 .217-.489c.219-.186.502-.28.789-.263.345 0 .611.081.796.245a.815.815 0 0 1 .268.46l-.4.066a.468.468 0 0 0-.123-.269.686.686 0 0 0-.526-.191c-.367 0-.633.186-.633.455a.311.311 0 0 0 .172.278c.177.087.366.144.561.172.489.112.654.172.805.29a.664.664 0 0 1 .244.527c0 .505-.43.818-1.123.818-.461 0-.815-.136-1.002-.394a1.024 1.024 0 0 1-.163-.4l.411-.07ZM126.146 27.434v.506h-.501v-.501l.501-.005ZM53.686 17.362l.02-.007c-.015-.006-.024-.015-.02.007ZM55.044 15.209c-.958-.278-1.668.347-2.603.196a.43.43 0 0 1-.02-.034.01.01 0 0 1 .006 0l-.01-.01v-.004c.01 0 .032-.005.026.005.028-.028-.04-.042 0-.054h.003c-.014-.028-.029-.015-.054-.019a.113.113 0 0 1-.005-.016l.07-.016h-.037c0-.004 0-.011.018-.01-.026-.014-.016 0-.04-.005.033-.02-.016-.052.042-.057-.027-.006-.021.018-.04 0 .063-.006-.012-.023.017-.04.034.005.016.02.046.004-.056-.01.012-.033 0-.047-.044 0-.018-.032-.033-.056.014 0 .026-.045.043-.07h.003c-.045-.005-.035-.028-.044-.045a.07.07 0 0 1 .05.014v-.016a.035.035 0 0 1-.027-.02l.033.006c0-.021-.038-.044-.015-.07a.15.15 0 0 0-.037 0v-.009c.004-.003 0-.005 0-.007a.094.094 0 0 0 .003-.014h.013s-.01.008 0 .012a.057.057 0 0 1 .04-.026c-.015 0-.034 0-.037-.01 0-.021.03-.006.044-.017-.017-.006 0-.019-.035-.022 0-.005.018-.005.028-.007-.012-.01-.006-.036-.022-.042a.516.516 0 0 0 .005-.182h.008c-.008-.017-.021-.02 0-.042.018.019.018 0 .013.019.012-.02.032-.023 0-.049.03.01.04-.011.032-.023l-.024.013a.045.045 0 0 1 .004-.03l.04.009c.054-.037-.075-.087.011-.11-.026-.014-.022.021-.054.007.008-.02.07-.032.07-.039.026-.023-.056-.032-.037-.058-.015 0-.054 0-.065-.023.007-.019.063-.016.07 0 .006.016-.005.006-.01.005a.02.02 0 0 0 .011.011.02.02 0 0 0 .016 0l-.014-.004c.015-.009.017-.036.04-.026-.011-.017-.023-.01-.032 0 .025-.023.007-.04.025-.063-.008 0-.026.004-.025 0 .023-.036-.025-.02-.028-.047.024-.011.051.012.037-.016.017-.014.038 0 .05.01-.025-.028.024-.042.03-.054l.01.014a.025.025 0 0 1-.003-.01v-.01h-.03c.006-.007.007-.014.019-.012-.018-.01-.049 0-.07-.02.016-.007-.012-.032.027-.029-.016.026.029.006.04.023 0-.004 0-.008.004-.012h.006l.004.005c.04-.025-.04-.02-.035-.05.021.006.042 0 .038-.007 0 .012-.036 0-.051-.014.02-.016-.01-.023-.006-.032l-.01.01c-.02-.008-.016-.017-.02-.031.016 0 .009.014.017.01-.035-.02.045-.028.023-.053.015-.007.04.006.051 0-.024-.027.034-.02.015-.049-.03 0-.023.005-.048-.017l.013.044-.038-.033c0 .012.014.029.009.035-.022-.016-.015-.014-.04-.012.046-.01-.02-.037.012-.052l.07.013c.037-.024-.027-.058 0-.093l-.014.01c-.028-.01 0-.023-.01-.038a.094.094 0 0 0 .05-.004c-.017 0 .006-.027-.04-.038l.034-.012c.018-.028-.062-.047-.049-.075.025.014.045.003.06.026 0-.01.007-.017-.01-.02.017 0-.026-.033 0-.038-.009-.006-.033-.013-.03-.023a.06.06 0 0 1 .013 0c-.012 0-.013-.02-.04-.015.078-.017.01-.086.078-.1a.31.31 0 0 1-.004-.07c.007 0 .012 0 .008.006.028-.022-.064-.03-.033-.055.041-.008.017.02.033.014.08.01 0-.04.047-.05l.004.005c.03-.01-.022-.044-.01-.07h.01a.131.131 0 0 1-.048-.088c.029.014.014.015.046.016 0-.011-.05-.006-.054-.03a.155.155 0 0 1 .07-.012v.02c.044 0 .004-.025.014-.035l.018.005c0-.033-.046-.043-.035-.077h-.016c-.041-.028.03-.01 0-.036l.049.005a.308.308 0 0 1-.04-.077c.024.02.045.043.061.07.004-.012.006-.043-.016-.054.004.005.014.014.005.018-.033-.024-.047-.047-.041-.07.09.025.038-.058.112-.06-.023-.05.035-.081.04-.132-.075 0 0-.015-.07-.03 0-.012 0-.016.005-.016h.005l.051-.025c.023-.003.014.015.03.017.011-.023.034 0 .057-.015-.027 0-.035-.017-.022-.03l-.038.013c-.031-.045.07-.016.038-.061l.02.016c-.009-.021.017-.07-.037-.1.009 0 .03 0 .033.01.02-.042-.038-.113.006-.139l.017.008c0-.01-.029-.023-.009-.029.007 0 .017.008.02.004.001-.003-.027-.029-.014-.037l.018.014c.034-.037-.032-.077-.035-.116a.082.082 0 0 0 .09-.03h.008c.019-.049-.022-.096-.03-.147.063-.014.049-.09.092-.128a.052.052 0 0 1-.043-.022c.014-.007-.028-.038.02-.024v.003c.048.005.041-.02.047-.037l-.061-.02c.103-.02 0-.127.087-.13-.013-.014-.01-.028-.022-.043l.034.01a.138.138 0 0 0 .027-.081l.022.014c.008-.02-.09-.053-.086-.07l.052.008c.01-.036.063-.06.028-.11.008 0 .022.008.022.015.006-.017.053-.057-.018-.07.045.012.016-.037 0-.062l.032.013c-.037-.029-.049-.033-.054-.06.006-.003.028 0 .018.008.022-.013-.027-.023-.004-.04l.02.014c.007-.018-.005-.02-.026-.037-.01-.016.019-.033.05-.028-.018-.007-.04-.025-.028-.034a.035.035 0 0 1 .02.011c.032-.024-.024-.057.015-.069a.05.05 0 0 0 .02 0c-.008.024-.015.045-.018.042.031.009.042-.01.08.018-.019-.023-.06-.065-.04-.08h.01c.005-.004 0-.01 0-.015.008-.005.013-.007.015-.013.026.005.02-.02.025-.03-.033-.008-.024-.02-.055-.015v.015a.161.161 0 0 1-.006.026c-.014-.013-.026-.025-.004-.031l-.049-.03c.05 0 .083-.02.113-.015-.01-.036.009-.076-.047-.113-.006-.011.02-.005.031-.006.01 0 0 .013.01.018-.01-.022.01-.053-.032-.07.026-.015.036.025.038-.007l.012.008c.085-.038-.075-.127.023-.167a.022.022 0 0 1-.012 0c.062-.063.01-.166.096-.22.019-.018-.008-.029-.024-.048l.036.006-.034-.035a.02.02 0 0 1 0-.011c.01-.025.1-.02.061-.07h-.025c.01-.012 0-.048.027-.037-.004 0-.023-.013-.009-.015l.018.006-.02-.045c.023-.022.07.028.088-.01 0-.017-.04-.059-.054-.057 0 .005-.016.01-.035.005l-.004-.015.017.006-.017-.009c0-.02.004-.04.005-.06-.088-.343.066-.795-.316-.938-.309-.03-.95-.228-1.012.22a1.303 1.303 0 0 1-.077.17c-.013-.005-.017 0-.016.008 0 .01-.004.02-.01.029l-.01.01a.075.075 0 0 0-.01.012s-.005.006-.009.008c-.003.002-.012.004-.022-.006-.01-.01-.005-.013-.005-.018 0-.006.013-.006.005-.02l-.007-.004-.04.04a.497.497 0 0 0-.04.045.131.131 0 0 1-.055.035.061.061 0 0 0-.033.02.216.216 0 0 1-.047.041.281.281 0 0 1-.056.029.377.377 0 0 0-.061.033.271.271 0 0 1-.064.03c-.017.004-.033.01-.049.015-.005 0-.011 0-.015.005a.11.11 0 0 1-.084.03c-.013 0-.018.01-.024.023a.09.09 0 0 0 .058-.013.197.197 0 0 1 .055-.023.715.715 0 0 0 .162-.07.202.202 0 0 0 .048-.036.07.07 0 0 1 .038-.02.087.087 0 0 1 0 .077h-.012c-.004 0-.008-.009-.011 0-.003.008-.005.01-.025.006 0-.014.007-.015.009-.024.001-.01 0 0-.004 0-.005 0-.018.005-.01.026.009.02 0 .018 0 .02a.152.152 0 0 1-.034.021.045.045 0 0 1-.044 0 .02.02 0 0 0-.026.004s-.007 0 0 .015c.006.014.016.048-.013.028-.006.034-.035.019-.05.035-.014.016-.017.018-.032 0-.003-.004-.007-.004-.01 0-.005.022-.021.022-.036.017-.014-.006-.022.012-.035.015a.71.71 0 0 0-.093.026.383.383 0 0 1-.073.02.343.343 0 0 1-.075 0c-.032.027-.076 0-.107.029-.005.005-.01.008-.012 0-.014-.034-.016-.014-.023 0-.007.014-.014.009-.023.012-.018-.023-.033-.005-.047.004a.101.101 0 0 1-.07.017.803.803 0 0 0-.1-.006c-.006 0-.013 0-.012.013.001.012.008.004.013.004h.005c.008 0 .018-.011.023.01.005.022-.005.04-.02.04a.035.035 0 0 1-.013-.003c-.005-.012.007-.006.005-.016a.034.034 0 0 0-.037.01c-.013.012-.023.008-.035.006-.013-.002-.026-.011-.037 0a.012.012 0 0 1-.015 0c-.036-.03-.07-.005-.106-.011a.251.251 0 0 1-.107-.019c-.017.013-.037-.006-.053 0a.044.044 0 0 1-.042.006.024.024 0 0 0-.026.007c-.004.005-.015 0-.013.016 0 .005.001.01.004.013a.021.021 0 0 0 .01.008c.013 0 .024.01.036.006a.146.146 0 0 1 .073 0h.018c.022-.023.047-.009.07-.013a.014.014 0 0 1 .014.004c.01.02.025.02.04.025-.004.023-.023 0-.026.024.007 0 .014 0 .021.01a.05.05 0 0 1-.024.042c-.01.008-.025.01-.03.03l-.083.006a.03.03 0 0 1 0-.012c0-.007-.003-.013-.006-.011-.013.007-.024-.007-.037-.01-.013-.005-.026 0-.033.025a.068.068 0 0 1-.005.014h-.045c-.007-.006-.014-.004-.02 0h-.007l-.063.005v-.005c-.004-.012-.01-.006-.016-.005-.005 0-.01 0-.022-.028 0-.007-.006-.005-.01-.003a.029.029 0 0 0-.009.017c-.005.017-.017.024-.025.01-.013-.027-.029-.015-.043-.01a.1.1 0 0 1-.088 0c-.028-.016-.055.006-.082.022-.005 0-.009.008-.014.012h-.28l.014-.16h-.028c.04-.463.082-.933.125-1.41l-.066-.003v-.026h-.066v-.034h-.06v-.027h-.066v-.028h-.066v-.034h-.07v-.027h-.06v-.034h-.066v-.027l-.07-.003v-.027h-.07V8.17h-.07v-.028l-.064-.014v.028h-.07v.034h-.03v.027h-.07v.027h-.03v.034h-.038v.028h-.06v.035h-.037v.027h-.03l-.004.06h-.03v.029h-.037v.034h-.03v.027h-.037l-.003.06h-.03l-.023.036h-.03v.054h-.037l-.006.095h-.03c0 .03-.003.058-.005.087h-.037c0 .039-.005.077-.007.114h-.03l-.004.06h-.029c0 .02 0 .04-.003.06h-.038l-.003.06h-.03v.053h-.036l-.004.06h-.03c0 .02 0 .04-.003.059h-.03c0 .02 0 .04-.003.059h-.037v.026h-.029c0 .02 0 .04-.003.06h-.037c0 .019 0 .04-.003.059h-.03c0 .02 0 .04-.003.059h-.03v.052h-.036c0 .02 0 .04-.003.059h-.03l-.004.085h-.037c0 .038-.004.077-.006.116h-.029l-.01.2h-.03l-.016.332h-.036l-.01.196h-.03c0 .038-.003.075-.005.113h-.029l-.004.081h-.035v.056h-.029v.05h-.036v.056h-.028c0 .038 0 .074-.006.112h.03c-.026.009-.016.02 0 .033v.027h-.025l.024.01v.015c-.011 0-.024 0-.029-.005-.024.017.019.012-.008.028h-.01l.017.014c-.011 0-.037.004-.03-.005-.028.028.04.042 0 .054.015.029.03.014.056.019v-.023l-.064.016h.038c0 .004-.004.011-.02.01.027.015.017 0 .041.006-.032.02.017.052-.042.057.028.006.021-.018.04 0-.063.007.012.023-.017.04-.033-.004-.016-.02-.045-.004.056.01-.013.034 0 .048.045 0 .019.032.034.057-.014 0-.026.046-.043.07h-.008c.045.005.036.028.044.046a.08.08 0 0 1-.049-.015v.017a.033.033 0 0 1 .026.02l-.033-.006c0 .021.038.045.014.07.029 0 .077-.014.102.005v.007c-.017 0-.04 0-.046-.008-.006-.008.014.01.007.015l-.028-.014c-.014.012.023.008.02.018-.025 0-.018.007-.037.004 0 0 .01-.008 0-.013a.055.055 0 0 1-.039.027c.014 0 .032 0 .035.011 0 .021-.03.005-.043.017.017.007 0 .02.034.022 0 .006-.017.006-.027.008.015.011 0 .05.04.042.033.04-.025.074-.013.111h-.012c.012.023.003.049.028.07 0 .006-.024.013-.038.009.008.017.02.02 0 .041-.019-.018-.019.004-.013-.018-.013.02-.032.023 0 .05-.03-.012-.04.011-.032.022l.023-.012a.047.047 0 0 1 0 .031l-.041-.01c-.054.037.075.087-.012.11.027.016.023-.02.055-.006-.008.02-.07.033-.07.039-.025.024.057.033.038.06.015 0 .054 0 .065.023-.008.018-.064.016-.074 0-.01-.017.004-.007.01-.006a.018.018 0 0 0-.005-.007.017.017 0 0 0-.006-.004.019.019 0 0 0-.015 0l.013.005c-.016.008-.018.035-.04.026.01.017.022.01.031 0-.024.022-.006.04-.024.064.009 0 .026-.005.026 0-.024.036.024.02.027.048-.024.012-.052-.013-.037.016-.017.014-.039 0-.05-.01.025.028-.024.042-.031.055l-.01-.014a.024.024 0 0 1 .004.02h.03c-.007.007-.008.013-.02.011.018.011.05 0 .07.02-.015.008.012.033-.027.03.016-.026-.028-.006-.039-.023a.014.014 0 0 1-.005.012.01.01 0 0 1-.009-.004c-.04.025.04.02.034.05-.02-.007-.042 0-.038.007 0-.012.037 0 .052.014-.02.017.009.023.005.033l.01-.01c.02.007.016.016.021.031-.017 0-.01-.014-.018-.01.035.02-.045.028-.023.053-.016.007-.04-.006-.051 0 .023.027-.034.02-.015.049.03 0 .023-.005.048.017l-.013-.044.038.033c0-.012-.014-.029-.008-.036.021.017.014.015.04.013-.047.01.02.037-.013.052l-.07-.012c-.037.024.027.058 0 .093l.014-.01c.028.01 0 .025.01.04a.093.093 0 0 0-.05 0c.018 0-.006.027.04.039l-.034.011c-.018.028.062.048.048.076-.024-.014-.044-.003-.058-.027 0 .01-.009.018.008.022-.016 0 .027.033 0 .038.01.006.034.012.03.023h-.011c.012 0 .013.02.04.015-.08.017-.01.087-.08.101a.31.31 0 0 1 .005.07c-.007 0-.012 0-.008-.006-.028.023.064.03.033.056-.042.008-.017-.02-.034-.014-.079-.01.003.04-.047.051l-.003-.005c-.03.01.021.044.01.069h-.011a.132.132 0 0 1 .048.089c-.03-.014-.014-.015-.046-.016 0 .012.05.007.054.031a.155.155 0 0 1-.07.012v-.022c-.045 0-.004.027-.014.037l-.018-.005c0 .033.046.043.035.077h.015c.042.03-.03.01 0 .037l-.048-.005c.017.024.03.05.04.078a.245.245 0 0 1-.062-.07c0 .013-.005.043.016.055-.003-.006-.014-.015-.005-.018.034.024.048.047.04.07-.09-.025-.037.058-.112.06.024.051-.034.082-.04.135.075 0 0 .014.07.028 0 .013 0 .018-.005.018h-.004l-.052.024c-.023 0-.013-.014-.03-.017-.012.024-.034 0-.057.016.027 0 .035.018.022.03l.038-.012c.03.045-.07.016-.039.061l-.02-.017c.01.022-.017.07.038.1-.01 0-.031 0-.034-.008-.02.042.038.114-.007.14l-.017-.008c0 .01.03.023.01.028-.008 0-.017-.008-.02-.004-.001.003.026.03.013.038l-.017-.014c-.035.037.032.078.035.118a.083.083 0 0 0-.09.03h-.009c-.02.049.022.096.03.148-.064.014-.05.092-.093.13a.052.052 0 0 1 .043.021c-.014.008.028.04-.02.025-.049-.004-.042.022-.048.038l.062.02c-.104.021 0 .128-.088.132.013.014.009.028.021.043l-.033-.01a.142.142 0 0 0-.028.082l-.021-.014c-.009.021.089.054.085.074l-.052-.008c-.01.037-.063.062-.03.111-.006 0-.02-.007-.02-.014-.006.017-.053.057.017.07-.045-.013-.016.036 0 .062l-.032-.013c.037.029.048.033.053.06-.006.004-.027 0-.017-.008-.022.014.027.023 0 .04l-.018-.014c-.009.019.003.02.025.038.009.016-.019.034-.05.028.018.008.039.025.027.034a.032.032 0 0 1-.02-.011c-.032.026.024.06-.014.07a.05.05 0 0 0-.021 0c.008-.025.016-.046.018-.043-.03-.009-.042.01-.08-.018.019.023.06.065.04.081h-.011c-.004.004 0 .009 0 .014-.007.005-.012.008-.014.014-.026-.005-.02.02-.025.03.033.008.024.02.055.015 0 0-.004 0 0-.01.003-.01 0-.004 0-.005 0-.007 0-.016.005-.026.014.013.026.025.005.032a.87.87 0 0 1 .049.03c-.05 0-.084.019-.113.015.01.036-.01.076.046.114.006.011-.02.005-.031.006-.01 0 0-.013-.01-.019.01.023-.01.054.032.07-.026.016-.036-.025-.038.008l-.012-.008c-.07.03.019.093.008.139h-.008v.016a.08.08 0 0 1-.023.015.02.02 0 0 1 .012 0c-.063.064-.012.168-.097.223-.02.017.007.028.024.048l-.037-.006.033.034h-.006v.022c-.024.017-.087.019-.054.062h.026c-.009.013 0 .05-.027.039.003 0 .023.012.008.014l-.018-.005.02.045c-.022.023-.07-.028-.088.01 0 .017.04.06.053.058 0-.006.017-.011.035-.006l.006.017h.007v.126h.025v.088h.032v.015h.026v.043h.026v.02h.032v.044h.026v.043h.032v.02h-.003v.043h.025v.025h.032v.02h.025v.042h.026v.02h.057v.023h.032v.018h.026v.02h.082v.024h.114v.011h.082v-.018h.081v.018h.057v.024h.025v.019h.032v.019h.025v.042h.031v.061h.026v.043h.025v.041h.03v.043h.005v.037h.026v.042h.03v.023h.025v.037h.031v.023h.025v.041h.025v.018h.032v.041h.025v.019h.031v.042h.026v.018h.004v.04h.03v.024h.025v.018h.03v.04h.025v.019h.025v.04h.03v.019h.025v.04h.02v.041h.024v.018h.025v.041h.02v.04h.025v.04h.03v.037h.015v.04h.025v.022h.03v.018h.024v.018h.024v.023h.03v.018h.08v.022h.077v-.022h.079v.022h.03c0 .025-.004.05-.006.075h.025c0 .02-.004.038-.005.058h.03l-.007.078h.025l-.005.056h.054v-.018h.054v-.022h.024v-.017h.053v-.022h.024v-.017h.03l.004-.04h.023v-.017h.024c0-.019.003-.038.005-.057h.03l.006-.08h.024l.015-.172h.024c.01-.105.018-.209.027-.318h.032l.037-.417h.024l.023-.264h.03l.019-.209h.025l.02-.227h.024l.02-.208h.03l.022-.237h.024l.022-.234h.03l.024-.26h.025l.026-.284h.025l.014-.15h.032l.03-.316h.025l.036-.386h-.028l.05-.532h-.033l.128-1.39h.034l.095-1.018.013-.01a.14.14 0 0 1 .059-.028.06.06 0 0 0 .035-.016l.024-.02.028-.014a.301.301 0 0 1 .06-.02.34.34 0 0 0 .065-.025.28.28 0 0 1 .07-.02c.016 0 .034-.005.05-.007h.016a.106.106 0 0 1 .087-.018c.013 0 .02-.009.028-.02a.091.091 0 0 0-.06.005.206.206 0 0 1-.057.015.734.734 0 0 0-.17.045.23.23 0 0 0-.054.028.061.061 0 0 1-.04.016c-.007-.032 0-.07.014-.076.013-.006.007 0 .01.005.005.005.008.009.011 0 .004-.01.007-.01.026 0 0 .014-.01.013-.012.023s0 .003.004 0c.003-.004.018 0 .013-.025-.005-.025 0-.019.005-.02.005-.003.024-.012.038-.016a.048.048 0 0 1 .042.008.021.021 0 0 0 .027 0s.007 0 0-.015c-.006-.014-.008-.05.018-.026.011-.031.038-.013.055-.027.016-.015.02-.016.031 0 0 .005.008.005.01 0 .01-.021.025-.02.039-.011.014.008.024-.01.037-.01a.77.77 0 0 0 .096-.014.384.384 0 0 1 .15 0c.035-.023.075.012.11-.014.005-.004.01-.005.012 0 .007.036.013.017.022 0 .01-.017.016-.007.024-.009.015.026.033.01.048 0a.1.1 0 0 1 .07-.007.788.788 0 0 0 .098.02c.006 0 .014.004.014-.01 0-.015-.007-.007-.011-.007h-.007c-.007-.004-.02.008-.02-.013-.002-.022.01-.04.024-.038.005.001.01.003.014.006 0 .013-.009.004-.008.015.013.01.03 0 .038-.005a.032.032 0 0 1 .036 0c.012.004.024.014.037 0a.012.012 0 0 1 .014 0c.032.036.07.015.104.027a.26.26 0 0 1 .103.033c0 .006.003.012.005.018-.018.015-.028 0-.04-.013-.01-.012-.006-.01-.011-.01a.728.728 0 0 1-.096 0 .096.096 0 0 1-.07-.018.028.028 0 0 0-.014-.005c-.02 0-.024.006-.017.036v.018c0 .005.01.018.016.015.006-.004 0-.014 0-.022 0-.009.006-.018.012-.017.036.011.073.02.11.027.024 0 .047.018.07.005.013-.006.024 0 .038.004.39 1.66-.551 3.572-.584 5.174-.31 1.001 1.515 2.77 1.892 1.09.176-.393.651-.539.924-.878-.055-.386.168-.282.353-.525.284-.55 1.276-.644 1.221-1.37Zm-1.67-4.37c0 .008-.005.008-.012.007a.027.027 0 0 0 0-.013h-.004l.016.005Zm-6.896 4.906c0-.008.005-.008.012-.007a.026.026 0 0 0 0 .013h.004a.068.068 0 0 1-.016-.005v-.001Zm1.026-4.231c-.012-.008-.018-.017 0-.024v.023Zm-.016.011h.015v.024c-.011-.009-.02-.016-.017-.025l.002.001Zm.007.032h.007v.017c-.015-.003-.022-.008-.009-.018h.002Zm-.026-.391a.025.025 0 0 1 .015-.004v.018a.068.068 0 0 1-.017-.016l.002.002Zm.014.432a.025.025 0 0 0 .017.008v.014c-.013-.007-.02-.017-.02-.023h.003Zm.027.381v.028c-.045-.008-.018-.017-.002-.029l.002.001Zm-.025.397.006.006v.02h-.005c-.008-.01-.012-.02-.003-.027l.002.001Zm.042-.026h-.035v.012l-.014.013c-.02-.023-.057-.006-.041-.029.004.006 0-.02.03-.026-.013-.01-.027-.022-.014-.035.015 0 .05.01.06.008-.037-.013-.005-.045-.044-.062a.106.106 0 0 0 .037.008l-.03-.012c.011-.008.016-.009.035-.005.01-.026-.058 0-.03-.027 0 0 .007 0 .011.008.017-.03-.011-.063.006-.09h.006l-.004.085h.035l-.008.152Zm4.852 2.793a.041.041 0 0 0-.008-.004l.008.004Zm.539-3.647v-.009a.025.025 0 0 1-.002.008l.002.002Zm-.06.278h-.009v-.008c.003 0 .005.002.007.004l.002.004Zm-.011.016v-.015a.049.049 0 0 1 .012.01.016.016 0 0 1-.015 0l.003.005Zm.133-.428-.017.007.005-.012.012.005Zm-1.52-1.586c.015.011.026.004.036-.007.01-.012.006-.005.01 0 .006.02-.01.015-.012.024-.005.024-.02.012-.032.012-.011.001-.013-.014-.019-.022.006-.002.007-.015.018-.007Zm-.122.082c.01 0 .018.005.02.018v.008l-.03.011a.02.02 0 0 0 0-.013.015.015 0 0 1-.002-.007l.001-.008a.016.016 0 0 1 .005-.006.016.016 0 0 1 .006-.003Zm-.07.025c.008-.007.013 0 .017.007a.04.04 0 0 1 .005.018l-.023.006a.066.066 0 0 1-.006-.015c.003-.01.007-.012.01-.016h-.002Zm-.178-.082.044.035c.005.004.01.012.009.018-.006.023.003.058-.019.07-.006-.024 0-.05-.022-.07a.064.064 0 0 1-.01-.053h-.002Zm-.04.087a.026.026 0 0 1 .019.01c-.013.033.01.015.014.024.005.01.01.006.016 0 .006-.005.012 0 .016.012.003.012-.004.015-.007.021l-.027.007c-.02 0-.04-.01-.06-.004 0-.05 0-.05-.03-.065l.06-.005Zm-.081.095c-.02.012-.029-.007-.04-.03s-.027-.024-.037.006c-.005.016-.01.035-.025.009-.009-.014-.017-.01-.02.008 0 .007-.006.014-.012.009a.024.024 0 0 1-.006-.024c.012-.019.016-.042.033-.054.018-.012.035.005.052 0 .017-.006.038.04.062.042.005 0 .01.017.016.028v.006l-.02.004v-.004h-.003Zm-.654 1.609c-.014-.014-.026-.008-.036 0l-.003.002h-.006a.008.008 0 0 1-.003-.002c0-.021.013-.014.016-.023.01-.023.022-.008.034-.007.012 0 .01.015.015.024.004.01-.006.017-.015.006h-.002Zm.12-.07h.021a.02.02 0 0 1-.01.005l-.004-.001a.013.013 0 0 1-.005-.003h-.002Zm.248.096-.04-.04a.022.022 0 0 1-.005-.01.02.02 0 0 1-.001-.01.222.222 0 0 0 .008-.034h.02a.055.055 0 0 0 .012.04.069.069 0 0 1 .009.055h-.003Zm.05-.08c-.007 0-.017-.012-.017-.013h.063c.004.005.01.01.015.013h-.06Zm.19.007c-.02.01-.035-.01-.052-.005-.018.006-.02-.005-.026-.015h.1a.053.053 0 0 1-.02.02h-.002Zm.243.047a.016.016 0 0 1-.013-.008c-.009-.02-.024-.023-.038-.03.009-.022.024 0 .03-.02-.007 0-.014 0-.02-.013v-.005l.074-.007a.232.232 0 0 1 .007.024.148.148 0 0 0-.063 0 .12.12 0 0 0 .07.023c.005.012.008.025.011.038-.016.009-.035-.004-.055-.002h-.003Z" fill="#060910"/><path d="M52.536 14.197a.01.01 0 0 0 .002.005.01.01 0 0 0 .006.002c-.003-.004-.005-.007-.008-.007ZM52.592 14.117a.008.008 0 0 0-.003.005c.003-.001.006-.004.003-.005ZM52.48 14.928l.017.004-.016-.004ZM52.435 15.091c.015 0 .021.006.024.01h.025c.001-.006-.034-.008-.049-.01ZM52.427 15.371l.005.005-.005-.005ZM52.494 14.806h.012-.012ZM52.658 13.965c.003.007.002.004 0 0ZM52.917 12.528c-.034.01-.032-.035-.07-.019.012.001.048.035.07.02ZM52.698 13.602h-.016.016ZM52.604 13.864l.006-.007a.012.012 0 0 0-.006.007ZM52.678 13.451s.004 0 0-.006h-.004s.006.004.005.006ZM52.704 13.309h-.008v.004l.008-.005ZM52.643 13.974a.01.01 0 0 0 0 .006v-.006ZM53.334 10.816h-.009l.01.005-.001-.005ZM52.435 15.236c.014-.006.032-.012.036 0 .039-.035-.03.007-.025-.029a.324.324 0 0 0-.01.028ZM52.465 15.125c.007.015.02 0 .028 0-.013-.009-.016-.01-.028 0ZM52.498 14.52l.031.006c-.003-.011-.012 0-.03-.005ZM52.58 14.345l.004.006-.01-.02.005.014ZM52.728 13.34l-.039-.004c.006.009.048.019.039.004ZM52.778 12.9c.02 0 .035-.01.018-.022-.004.01-.022.017-.018.022ZM53.165 11.641l-.006-.019-.004.007.01.012ZM47.404 11.837l.005-.005a.009.009 0 0 0-.005.005ZM47.33 12.348a.01.01 0 0 0-.003-.004.01.01 0 0 0-.006-.003c.002.005.005.007.009.007ZM47.272 12.43l.004-.005c-.004.001-.006.002-.004.005ZM47.405 11.837l-.014.013c.013.002.01-.007.014-.013ZM47.385 11.61v-.007l-.017-.005.017.011ZM47.431 11.443c-.014 0-.021-.005-.024-.009h-.025c-.001.006.034.007.049.01ZM47.436 11.16l-.005-.005.005.005ZM46.319 16.721l-.019-.007.019.007ZM47.207 12.582c-.003-.007-.003-.003 0 0ZM46.942 14.038c.034-.01.032.035.07.019-.012-.001-.045-.035-.07-.019ZM47.164 12.95h.016a.04.04 0 0 0-.016 0ZM47.26 12.686l-.005.006a.011.011 0 0 0 .005-.006ZM47.185 13.103v.008h.004s-.006-.006-.004-.008ZM47.16 13.248h.007v-.005l-.008.005ZM47.221 12.576v-.006.006ZM46.428 16.161h-.005.005ZM46.518 15.771v.004h.01l-.01-.006v.002ZM47.48 12.333c.003-.006.005-.012-.015-.015l.015.015ZM47.477 12.351a.013.013 0 0 0 .003-.004v-.01a.013.013 0 0 0-.003-.004c0 .005-.005.012 0 .018ZM47.43 11.297c-.013.006-.031.012-.035 0-.04.036.03-.008.025.029l.01-.029ZM47.374 11.409c.012.01.016.011.027 0-.008-.015-.02 0-.027 0ZM47.367 12.02l-.031-.005c.003.012.012.005.031.005ZM47.29 12.213l-.004-.015-.004-.005.009.02ZM47.135 13.216l.039.004c-.009-.009-.048-.02-.04-.004ZM47.065 13.683c.005-.009.022-.015.017-.022-.02.001-.034.011-.017.022ZM46.69 14.935l.007.02.004-.007-.01-.013ZM35.227 11.314c.008.008.018.03.015.005v-.007a.02.02 0 0 1-.014.002ZM35.24 11.312c.006-.006-.006-.02 0 0ZM35.219 11.312h.008c-.004-.002-.006-.003-.008 0ZM66.317 5.527c.2-.17.213-.348.205-.546-.007-.152-.118-.208-.354-.174a8.631 8.631 0 0 0-.993.204c-.255.07-.55.07-.692.25-.006.007-.051 0-.074.003-.17.043-.369.066-.505.138-.334.172-.742.148-1.136.161-.355.011-.717 0-1.073.004-.534.012-1.064.054-1.599.046-.897-.014-1.796-.054-2.694-.091a.852.852 0 0 1-.357-.094c-.25-.15-.58-.126-.853-.219a.352.352 0 0 0-.18.022c-.18.058-.357.121-.559.192.014.06.038.119.07.173a2.6 2.6 0 0 1 .442.972c.07.284.132.556.606.728.245-.084.512-.086.759-.005l-.235.127.033.033.755-.062c.079.128.25.106.416.094.01-.101.015-.153.074-.171a.091.091 0 0 0 .008.024.042.042 0 0 1-.016.04c-.06.039-.042.07.015.106v.017c-.027.022-.094-.016-.1.037-.004.054-.031.103-.037.156a.44.44 0 0 1-.15.27c-.015.015-.035.026-.04.048a.044.044 0 0 0 .018.05c.018.012.032 0 .048-.005.06-.016.062-.07.099-.105.013.023.023.05.008.07-.065.076-.05.173-.08.258a.186.186 0 0 0 .012.188c.025.035.005.07-.01.102-.015.033-.032.086 0 .111.05.04.046.085.056.139.023-.028.031-.054.052-.063a.145.145 0 0 0 .035-.02c-.126.348-.28.69-.35 1.046l-.036-.01c-.045.248-.14.498-.195.746a.622.622 0 0 0-.028.087l-.042-.012c-.04.177-.09.351-.149.523-.054.173-.115.344-.178.515-.062.17-.13.34-.198.508-.267.55-.447 1.102-.651 1.668-.133.333-.218.698-.414.994-.032.03-.017.092-.055.139l-.036-.01c-.031.03-.017.093-.042.105a.472.472 0 0 0-.098.154.546.546 0 0 0 .032-.155.873.873 0 0 1-.13.213.015.015 0 0 0-.003.008.034.034 0 0 0 .028.045.033.033 0 0 0 .034-.022.352.352 0 0 0 .011-.025c.07.02.08.1.051.17.018.005.042-.008.06 0-.066.118-.062.255-.199.353-.007.018-.01.075-.017.093a2.399 2.399 0 0 0-.401.533c-.159.066-.317.14-.497.212a.647.647 0 0 0 .091.175c.023.025.041.054.052.086l-.02.07-.032-.006-.032.11-.04-.007-.032.11c-.151.125-.344.25-.284.432.098.292-.527.393-.009.537.013.061.147.105.35.14a.246.246 0 0 0-.196.09.156.156 0 0 1-.08.04c-.03.01-.046-.007-.025-.054a.055.055 0 0 0 0-.058l-.132.13-.01.011h-.093l.088.006a.058.058 0 0 0-.01.053c.019.093.082.097.135.122.053.026.05-.015.06-.06.003-.015.022-.022.037-.021l.25.009c.022 0 .04.013.032.05-.018.082.02.087.06.096a.257.257 0 0 0 .201-.012c.034-.022.066.033.085-.012.044-.115.095-.07.14-.05a.436.436 0 0 0 .195.031.218.218 0 0 0 .099-.046c.043-.03.035.065.07.066.014 0 .027.007.04 0 .07-.037.14.017.21-.044.031-.026.035.02.05.039.016.018-.006.036-.008.052-.013.102-.075.053-.113.093.025.046.06.1.096.038.055-.095.115-.088.177-.1.024-.006.063-.006.065-.036.005-.07.028-.052.053-.049.026.004.04 0 .06 0a.452.452 0 0 1 .276 0c-.038.05-.098.006-.127.094l.217-.03a.222.222 0 0 0 .19-.13v-.003l.023-.004.062.004c.016.062.037.1.088.062.022-.016.04-.005.058 0 .156.07.328.016.495.005a.967.967 0 0 1-.193-.05c.259.01.526.021.8.03l-.016.008.03.027c.007 0 .012 0 .014-.014a.04.04 0 0 0 0-.02h.034c.004.07.055.064.087.073.079.02.165.013.243.034.078.02.148-.025.22-.023a.28.28 0 0 0 .157-.064h.088a.07.07 0 0 0 .077 0c.265.006.533.01.8.013a.445.445 0 0 0-.05.022c.07.043.133.023.189.036.098.022.2.025.3.009.057-.019.116-.033.176-.042.123 0 .245-.007.367-.023 1.398-.01 2.9-.104 3.798-.287.11.035.218.075.338.118.19-.07.35-.12.495-.185.395-.183.923-.301.903-.695.004-.085 0-.17-.012-.254-.07-.27-.1-.352-.31-.245-.426.097-.232-.924-.025-1.126-.02-.191.083-.363.056-.566-.021-.157.124-.347-.122-.296-.355.08-.703.18-1.045.302-.265.089-.576.115-.711.314-.006.008-.055 0-.078.009-.177.06-.385.099-.523.183-.338.208-.769.212-1.188.256-.376.04-.76.053-1.137.089-.564.053-1.123.139-1.69.172-.48.029-.96.05-1.441.07.015-.05.031-.1.05-.147l-.054-.014a.427.427 0 0 0 .111-.278c-.017-.005-.024.012-.042.007.129-.278.12-.55.231-.833-.017-.005-.024.013-.042.007.11-.377.125-.764.2-1.15.103-.555.315-1.042.42-1.598.042-.235.137-.457.28-.65.14-.27.273-.539.264-.814a1.747 1.747 0 0 1 .075-.529 2.61 2.61 0 0 0 .098-.55c.017.004.053.014.06-.004.078-.445.326-.824.362-1.261.082.042.095-.09.06-.1.319-.335.663-.645 1.03-.928l.04.007c0-.008.005-.017.008-.026l.031.006.014-.045c.15 0 .299-.007.447-.015a.133.133 0 0 0 .087-.044c.187.023.299.039.411.049.067-.005.135-.004.202.004.386.13.801.143 1.21.18.123.016.25.006.369-.03.163-.064.29-.025.428.029.112.044.219.095.34.148.184-.053.34-.088.479-.14.386-.145.89-.22.904-.597.012-.08.015-.162.01-.244a7.028 7.028 0 0 0-.157-.784c-.073-.233-.1-.468.11-.646Zm-1.913 12.806.035.006a.45.45 0 0 0 .093 0l.025-.004a.915.915 0 0 1 .11.024l-.395.018a.508.508 0 0 1 .132-.044Zm-2.479 0c.2.01.32.018.44.02.07 0 .154-.026.21-.011a2 2 0 0 0 .18.038l-.908.003a.135.135 0 0 0 .078-.049v-.001Zm-1.25.031h.01a.33.33 0 0 1 .114.028h-.132a.206.206 0 0 0 .009-.026v-.002Zm-.232-.022c.029.004.062.006.096.008-.032.04-.061.014-.1 0l.004-.008Zm-3.095.255a.525.525 0 0 1-.237-.015l.252.011-.015.004Zm1.217-11.035c-.005.017-.007.045-.04.037-.032-.009-.022-.027-.018-.045.004-.019 0-.04.032-.035a.033.033 0 0 1 .026.015.032.032 0 0 1 .003.03l-.003-.002Zm-.117.764-.036-.01-.02.08a.052.052 0 0 1-.025-.023c0-.004-.02 0-.022.014l-.01.05c.018.005.03-.01.047-.005a4.486 4.486 0 0 1-.084.262.095.095 0 0 0-.033-.035c-.014-.012-.022-.028-.014-.042.031-.055 0-.101-.035-.15a.124.124 0 0 1-.028-.094.125.125 0 0 1 .05-.084c.043.032.005.07.033.101a.108.108 0 0 0 .036-.114.175.175 0 0 1 0-.087.492.492 0 0 0 .057-.25.08.08 0 0 1 .022-.058.204.204 0 0 0 .066-.178c-.006-.025.024-.035.045-.041.035-.01.023.021.035.033.023.022.058.017.06-.01a.504.504 0 0 1 .087-.233.376.376 0 0 0 .044-.115l.046.007c-.094.332-.22.658-.319.986l-.002-.004ZM74.464 17.287c-.065-.282-.126-.566-.21-.845-.077-.248-.126-.503 0-.712.127-.21.104-.398.07-.61-.024-.166-.11-.217-.271-.165a4.26 4.26 0 0 0-.673.295c-.171.091-.378.116-.456.322-.003.009-.036 0-.051.01-.115.059-.251.098-.339.185-.21.209-.504.216-.779.258-.249.038-.505.049-.755.083-.293.04-.581.1-.874.14.079-1.276.03-2.55.267-3.822.02-.201.042-.402.061-.604.039-.403.07-.806.07-1.21.009-.182.02-.363.032-.543.052-.722.14-1.437.121-2.154.006-.258.03-.516.07-.771.042-.255.068-.512.079-.77.03-.778.193-1.85.524-2.54.057-.118.036-.343 0-.5-.02-.089-.153-.131-.227-.209-.046-.046-.07-.135-.116-.174a4.444 4.444 0 0 0-.357-.266c-.14-.096-.194.077-.247.145-.128-.084-.234-.208-.33-.208-.24.01-.481.022-.72.042-.222.04-.523.028-.78.084-.256.055-.467.18-.504.495.21.348-.159.769-.045 1.152.046.096.13.209.266.173.235-.076.493-.383.699-.153.232.327.036.768.17 1.133a.1.1 0 0 0 .096-.02.584.584 0 0 0-.044.25c.148.594.124 1.209.043 1.822a.614.614 0 0 1 .362-.151c-.058.244-.135-.004-.18.175-.12.303-.039.625-.105.944-.02.17-.046.341-.076.512-.09.512-.22 1.025-.323 1.532-.038.182-.07.364-.091.547-.027.235-.053.471-.082.71-.029.237-.058.475-.092.713-.153 1.233-.46 2.403-1.252 3.496a.797.797 0 0 0-.062.094 1.154 1.154 0 0 1-.27-.053c-.034-.013-.09.014-.124.036-.12.076-.237.159-.371.25.017.064.04.125.07.184.196.321.343.67.437 1.033.084.305.164.595.52.75.146-.084.32-.15.534-.06l-.149.155.028.034.523-.123c.07.134.19.097.306.069-.013-.23-.013-.23.356-.177v.144c.09-.012.174-.018.253-.037.08-.018.158-.05.239-.077.26.237.5.228.777-.046.084.018.225.01.26.063.062.093.118.075.185.07.166-.02.334-.04.497-.07a.092.092 0 0 0 .056-.055c.135.011.215.021.296.024.047 0 .101-.026.14-.01.29.114.583.098.876.108.09.009.18-.012.256-.059.106-.082.201-.05.305 0 .085.04.166.088.258.14.11-.059.217-.123.32-.192.253-.188.599-.307.56-.72a1.995 1.995 0 0 0-.027-.266ZM46.255 8.624h.027c0-.022.005-.044.007-.07h.027l.007-.069h.032l.005-.046h.027l.005-.046h.033c0-.015.003-.03.005-.046h.026l.006-.07h.028l.017-.18h-.026l.01-.092h-.026l.004-.041h-.033v-.026h-.027v-.02h-.06v-.026h-.086v-.02h-.06V7.85h-.06v-.025h-.027v-.02h-.033v-.026h-.027v-.021h-.027v-.021h-.06v-.026h-.06v-.02h-.059v-.02h-.06v-.026h-.085v-.02h-.078v-.026h-.147v.025h-.063v.02h-.027l-.004.047h-.033v.02h-.027v.026h-.033v-.026h-.053v-.02h-.093v-.02h-.053v-.026h-.087v-.02h-.12v.02h-.209v.025h-.17v.02h-.18v.02h-.173v.026h-.146v.02h-.146v.021h-.146v.026h-.147v.02h-.113v.026h-.146v.02h-.138v.02h-.086v.027h-.119v.02h-.087v.025h-.06v.021h-.053v.02h-.06v.026h-.033v.021h-.054v.026h-.032l-.005.04h-.026v.026h-.027v.021h-.033l-.007.07h-.026c0 .023-.005.048-.007.07h-.034v.02h.034v.02h.026v.027h.06v.02h.086v.02h.087v.026h.06v.021h.087v.026h.06v.02h.06v.02h.06v.027h.053v.02h.033v.026h.06v.02h.027v.021h-.036v.026h.06v.02h.032v.026h.027v.021h.02l-.005.046h.034v.02h.026v.027h.027l-.004.04h.033l-.005.047h.027l-.005.046h.034c0 .016 0 .031-.005.047h.026l-.006.069h.027l-.005.047h.033l-.004.04h.027v.026h.025l-.005.046h.026v.02h.027l-.005.047h.034v.02h.026l-.005.046h.034v.021h.026l-.005.046h.027v.026h.033l-.004.04h.026v.027h.033l-.004.046h.015v.021H44v-.02h.053c0 .021-.004.044-.007.069h-.026l-.006.07h-.027c0 .021-.005.044-.007.069h-.03l-.006.069h.06v.026h.059v.02h.026v.02h.06v.026h.027a29.61 29.61 0 0 1-.024.247h.032l-.029.293h.027l-.033.318h.028l-.03.292h.033l-.013.134h.06v-.02h.026l.005-.046h.026l.01-.093h.033l.013-.133h.027c0-.016.003-.031.005-.047h.032v-.02h.027v-.02h.027v-.026h.06v-.02h.061v.02h-.026l-.01.092h-.033l-.006.07h-.027l-.009.087h-.033l-.01.092h-.026l-.01.093h-.026c0 .022-.005.044-.007.07h-.033l-.016.154h.034l-.027.272h-.034l-.014.139h-.026l-.009.087h-.033l-.01.093h-.028c0 .029-.006.058-.01.087h-.026l-.01.113h-.035l-.02.208h-.026l-.02.2h-.034l-.014.14h-.027l-.01.113H43.9l-.014.134h-.033c0 .03-.007.06-.01.092h-.026a5.35 5.35 0 0 0-.011.113h-.034l-.01.108h-.027a5.718 5.718 0 0 1-.011.113h-.027l-.014.14h-.033l-.014.133h-.026l-.014.139h-.027l-.018.18h-.033l-.079.785h-.026l-.005.047h-.033l-.005.046h-.027c0 .022-.005.044-.007.07h-.026l-.004.046h-.034c0 .022-.004.044-.007.07h-.026l-.01.092h-.033l-.006.07h-.027c0 .028-.006.058-.01.087h-.026l-.009.092h-.033c0 .038-.007.075-.011.113h-.027l-.011.113h-.034l-.008.088h-.027l-.01.092h-.026c0 .03-.006.061-.01.092h-.033l-.008.087h-.027c0 .022-.005.045-.007.07h-.032c0 .016 0 .03-.005.046h-.027c0 .022-.004.045-.007.07h-.026l-.007.07h-.034l-.006.069h-.027l-.004.041h-.034c0 .024-.005.048-.007.07h-.026l-.004.04h-.027c0 .016 0 .031-.005.047h-.033l-.004.046h-.027v.021h-.027v.026h-.032l-.005.046h-.027v.02h-.033v.02h-.038v.026h-.06v.02h-.027v.026h-.033v.021h-.053v.02h-.034v.026h-.027v.02h-.046v.026h-.027v.02h-.027v.021h-.034v.026h-.026v.02h-.033v.021h-.027c0 .015-.003.03-.005.046h-.026v.026h-.033l-.004.04h-.027v.026h-.033l-.005.047h-.026l-.004.04h-.027c0 .024-.005.049-.007.07h-.033c0 .03-.006.059-.01.088h-.026v.026h.026c0 .029-.006.058-.009.087h.034v.02h.026l-.004.047h.026v.026h.06v.02h.002v.02h.053v.026h.033v.02h.086v.026h.06v.02h.086v.021h.087v.026h.087v.02h.06v.026h.086v.02h.086v.021h.06v.026h.06v.02h.086v.026h.06v.02h.027v.02h.06v.027h.06v.02h.026v.026h.06v.02h.033v.021h.027v.026h.026v.02h.034v.02h.027v.026h.033v.021h-.005v.026h.033v.02h.027v.021h.06v.026h.06v.02h.053v.026h.093v.021h.146v.021h.49v-.02h.179v-.02h.086v-.026h.06v-.02h.053v-.026h.033v-.02h.06v-.021h.054v-.026h.06v-.021h.06v-.026h.086v-.02h.06v-.02h.026v-.026h.06v-.02h.026l.005-.047h.033l.004-.046h.028l.006-.07h.034l.018-.18h.026l.02-.208h.027l.018-.18h.034l.02-.2h.027l.017-.18h.054l.02-.208h.027l.025-.246h-.027c0-.015 0-.03.005-.046h-.033l.005-.046h-.027l.011-.113h.027c0-.03.005-.059.009-.087h.028l.01-.093h.026l.02-.2h.026l.012-.113h.033l.02-.208h.027l.041-.406h.034l.04-.406h.027l.034-.339h.026l.028-.272h.033l.027-.267h-.033l.014-.139h-.026l.008-.087h-.026l.01-.093h-.034c0-.037.008-.075.011-.113h-.026l.018-.18h-.03l.045-.452h-.027l.06-.606h-.026l.028-.272h-.033l.024-.246h-.026l.032-.319h-.034l.075-.745h.034l.136-1.35h-.034l.026-.252h.033c.01-.089.017-.178.027-.266h.026l.012-.114h.033l.008-.109ZM43.39 3.89h.025l-.014.14h.024l-.04.406h.03l-.008.08h.024c0 .019-.004.038-.005.056h.035v.025h.023v.024h.025v.031h.054l-.022.216h.025l-.008.08h.03l-.008.08h.024l-.005.056h.03v.024h.024l-.006.056h.025v.03h.03v.025h.023v.025h.03v.03h.024V5.3h.025c0 .01 0 .02-.004.03h.01v.025h.054v.025h.016v.03h.024v.025h.055v.031h.03v.025h.049v.025h.03c0 .01 0 .02-.003.03h.055v.025h.024l-.003.031h.054v.025h.024v.024h.054v.032h.025v.024h.054v.025h.025l-.004.03h.055v.025h.055v.031h.024v.025h.054v.024h.018V5.9h.079v.024h.079v.031h.078v.025h.109v.024h.054l-.003.031h.054v.024h.024v.032h.025v.024h.03v.025h.025l-.004.03h.009v.026h.024v.03h.025l-.005.05h.03v.03h.024l-.005.056h.03c0 .016 0 .033-.005.049h.024l-.008.08h.024l-.016.167h-.025c0 .027-.005.053-.008.08h-.024v.025h-.03l-.008.086h.054v.025h.025v.024h.054v.031h.03v.025h.023v.03h.055v.025h.054v.025h.055v.03h.024v.026h.054l-.004.03h.055v.025h.133V7.12h.104v-.03h.054v-.025h.055c0-.01 0-.021.004-.03h.078v-.026h.024v-.024h.055c0-.01 0-.021.003-.03h.055v-.026h.027v-.03h.055v-.025h.025v-.025h.03v-.03h.03v-.026h.055v-.03h.024v-.025h.031v-.025h.025v-.03h.03v-.025h.044v-.03h.025v-.025h.03v-.025h.055v-.03h.03v-.025h.025c0-.01 0-.021.003-.031h.03v-.025h.024v-.025h.055v-.03h.024v-.025h.03v-.025h.049v-.03h.03v-.025h.025v-.03h.055V6.25h.025v-.025h.054l.004-.03h.056V6.17h.025V6.14h.054v-.025h.024v-.024h.03c0-.01 0-.02.004-.031h.048v-.024h.03v-.031h.024V5.98h.055v-.024h.024l.004-.032h.03V5.9h.024c0-.01 0-.02.004-.03h.054v-.026h.056V5.82h.03v-.03h.024v-.025h.024l.003-.031h.03v-.025h.024c0-.018.004-.037.006-.055h.03V5.63h.038l.006-.056h.024c0-.018.004-.036.006-.054h.03c0-.017.003-.034.005-.05h.024l.014-.139h.031l.017-.166h-.03c0-.02.003-.037.005-.056h-.024v-.024h-.03c0-.02.003-.038.005-.056h-.024l.03-.296h.024l.008-.08h.03l.009-.08h-.134V4.54h-.109v-.025h-.079c0-.019.004-.037.006-.056h-.025c0-.018.005-.036.006-.055h-.03l.008-.08h-.024c0-.019.003-.037.005-.056h-.024l.008-.08h-.03l.008-.08h-.025l.008-.08h-.03l.006-.056h-.025c0-.018.004-.036.006-.055h-.024l.008-.08h-.03l.01-.08h-.023l.011-.11h-.03l.01-.105h-.024c0-.027.005-.053.008-.08h-.021l.003-.03h-.03v-.025h-.025c0-.01 0-.02.004-.03h-.031v-.025h-.025v-.025h-.054v-.03h-.103v-.025h-.188v.024h-.133c0 .01 0 .02-.004.031h-.079v.025h-.079v.025h-.054v.03h-.055v.026h-.056v.03h-.024v.025h-.055v.025h-.024v.03h-.055v.025h-.024v.025h-.055l-.003.03h-.055v.025h-.055v.031h-.209v.025h-.315v.025h-.11v.03h-.102v.025h-.134v.03h-.219v.026h-.133v-.025h-.21v-.03h-.079V3.76h-.088v-.03h-.077v-.026h-.055v-.024h-.079V3.65h-.079v-.025H44.3c0-.01 0-.02.004-.03h-.086V3.57h-.103v-.025h-.073v-.03h-.085V3.49h-.103v-.025h-.071v-.03h-.11V3.41H43.6v.024h-.079v.03h-.03v.026h-.03c0 .018 0 .037-.006.055h-.025c0 .027-.005.054-.007.08h-.032l-.012.105h.031l-.02.16ZM77.94 18.102h-.02v.01h-.023v.012h-.032v.01h-.034v.013h.012v.01h.023v.01h.02v.012h.028v-.013h.01v-.01h.01v-.01h.012v-.033h-.012l.005-.01ZM78.059 18.125h-.022v.021h-.01v.01h-.013v.01h-.01v.022h.01v.015h.012v-.012h.01v-.01h.01v-.012h.01v-.01h.01v-.022h-.01l.003-.012ZM77.556 18.177h-.045v.01h-.044v.016h-.052v.01h-.012v.01h.012v.012h.01v.01h.001v.01h.031v.012h.039v-.012h.02v-.01h.022v-.01h.012v-.012h.01v-.01h.023l.004-.044h-.032l.001.008ZM76.966 18.218h-.02v.013h.043v-.022h-.022l-.001.01ZM57.641 18.65h.033-.033ZM56.897 18.844a.24.24 0 0 0-.143.12c-.013.018.028.125.046.125s.037-.013.04-.05c0-.063.008-.124.069-.136.01 0 .012-.025.007-.036-.005-.012-.012-.023-.019-.023ZM59.088 19.044a.058.058 0 0 0-.02.06c.005.021.02.016.033.012.038-.012.07-.074.11-.07-.041-.017-.08-.036-.123-.002ZM58.625 18.91c-.04.029-.087.02-.13.08.044.01.09.005.132-.015a.048.048 0 0 0 .02-.047c-.005-.013-.014-.025-.022-.018ZM57.328 18.99c-.03-.012-.045.025-.049.057-.004.031.02.037.04.043a.084.084 0 0 0 .053-.077c.003-.046-.029-.018-.044-.024ZM57.626 19.065c.063.034.064.034.108-.052l-.106.028c-.01.013-.01.02-.002.024ZM59.735 18.85a.13.13 0 0 0 .116-.05c-.069-.019-.069-.019-.116.05Z" fill="#060910"/><path d="M58.142 18.659c-.065-.029-.065-.029-.122.037.047-.007.081.016.122-.037ZM54.926 18.605l.123.07c-.032-.066-.034-.067-.123-.07ZM59.395 18.759a.026.026 0 0 0 .023 0 .05.05 0 0 0-.023 0ZM59.42 18.759c.023 0 .05.004.064-.06-.024.017-.043.05-.064.06ZM61.334 18.824c-.015.008-.038.009-.044.046.033 0 .062.012.095-.03a.036.036 0 0 0-.021-.02.034.034 0 0 0-.03.004ZM62.707 18.882a.116.116 0 0 0 .13-.012.127.127 0 0 0-.13.012ZM58.147 18.833c-.017 0-.033 0-.046.04a.07.07 0 0 0 .07-.007c-.002-.02-.01-.032-.024-.033ZM56.32 18.73a.037.037 0 0 0 .027.013c.02 0 .02-.021.017-.04-.002-.018 0-.035 0-.053a.337.337 0 0 1-.03.042c-.014.012-.032.019-.014.038ZM60.56 18.926l-.082.027c.021.027.046.032.082-.027ZM58.906 18.834c.038.009.064.011.091-.026-.029.02-.055-.016-.09.026ZM58.397 18.813a.035.035 0 0 0-.034.04c0 .016.02.017.032.013.014-.004.028 0 .03-.026.001-.026-.014-.027-.028-.027ZM62.355 18.855c-.005.005-.018.013-.02.023-.005.033.016.02.027.02.01.002.02-.008.019-.026-.002-.017-.01-.02-.026-.017ZM62.47 18.747a.023.023 0 0 0-.015.009.023.023 0 0 0-.004.018c0 .014 0 .033.017.023a.057.057 0 0 0 .02-.03c.005-.022-.008-.02-.017-.02ZM54.727 18.696a.026.026 0 0 0-.017.012c0 .027.01.038.027.037.005 0 .01-.01.014-.015-.002-.019-.011-.03-.024-.034ZM54.383 18.673c.029 0 .056.029.092-.011a.07.07 0 0 0-.092.01ZM56.985 18.775c0 .004.01.005.015.008l.033-.03c-.007 0-.014-.01-.022-.01a.026.026 0 0 0-.02.01.03.03 0 0 0-.005.01.028.028 0 0 0 0 .012ZM58.785 18.833c-.009.005-.011.014-.004.018a.038.038 0 0 0 .053-.007c-.011-.025-.03-.016-.049-.01ZM107 17.578v-.022h-.019v-.04h-.016v-.019h-.019v-.04h-.016v-.04h-.015v-.037h-.02v-.04h-.015v-.04h-.02v-.06h-.015l.004-.098h-.016l.007-.182h-.02v-.036h-.015v-.023h-.02v-.019h-.016v-.022h-.016v-.018h-.02v-.018h-.015v-.022h-.02v-.018h-.015v-.018h-.015v-.023h-.02v-.018h-.015v-.023h-.02v-.018h-.015v-.018h-.016v-.041h-.019v-.023h-.016v-.018h-.016v.021h-.019v-.023h-.016v-.018h-.035v-.022h-.016v-.018h-.019v-.018h-.016v-.023h-.035v-.018h-.016v-.023h-.035v-.018h-.019v-.018h-.032v-.022h-.035v-.019l-.035.004v-.023h-.034v-.018l-.035.003v-.018h-.016v-.022h-.035v-.018h-.016v-.018h-.015v-.022h-.035v-.018h-.02v-.023h-.015v-.018h-.015v-.018h-.02v-.023h-.015v-.018h-.036v-.023h-.016v-.018h-.02v-.018h-.016v-.022h-.019v-.018h-.015v.033h-.015v-.018h-.02v-.018h-.035v-.022h-.015v-.019h-.016v-.022h-.019v-.018h-.035v-.018h-.016v-.022h-.034v-.018h-.016v-.022h-.035v-.018h-.015v-.018h-.035v-.022h-.035v-.019h-.015v-.018h-.035v-.022h-.036v-.018h-.035v-.023h-.031v-.019h-.035v-.018h-.035v-.022h-.035v-.018h-.032v-.023h-.035v-.018h-.035v-.017h-.035v-.023l-.051.005v-.02l-.034.004v-.023l-.036.004v-.018h-.032v-.018l-.054.005v-.022h-.032v.04l-.034.004v-.023l-.036.003v-.018l-.035.003v-.018h-.032v-.023h-.034v-.018l-.051.005v-.023h-.035v-.018h-.035v-.019h-.035v-.023h-.035v-.018h-.032v-.017h-.035v-.023h-.035v-.018h-.035v-.023h-.034v-.018h-.032v-.019l-.035.004v-.023h-.035v-.018l-.035.003v-.023h-.016v-.018h-.035v-.018h-.035v-.023h-.031v-.018h-.02v-.023h-.035v-.018h-.031v-.018h-.02v-.022h-.035v-.018h-.03v-.022h-.035v-.02h-.02v-.017h-.031v-.023l-.035.003v-.018h-.035v-.018h-.035v-.022h-.032V14.8l-.054.004v.063l-.05.004v-.018h-.035v-.018l-.051.004v-.022h-.035V14.8h-.03v-.023l-.035.004v-.018h-.02v-.018h-.031v-.016h-.035v-.018h-.016v-.023h-.036v-.018l-.035.004v-.018h-.015v-.023h-.035v-.018h-.02v-.023h-.031v-.002h-.035v-.018h-.035v-.023h-.015v-.018h-.035v-.01h-.035v-.018l-.05.004v-.018h-.036v-.023l-.051.004v-.018l-.07.006v-.018l-.07.006v-.022h-.034v-.019l-.051.005v-.023l-.035.003v-.008h-.035v-.018h-.016v-.023h-.035v-.018h-.035v-.01h-.015v-.019l-.035.004v-.018h-.035v-.023h-.015v-.014h-.035v-.022h-.035v-.018h-.016v-.018h-.015v-.04h-.02v-.06h-.015v-.062h-.019v-.06h-.015v-.036h-.016v-.04h-.019v-.042h-.016v-.04h-.019v-.018h-.015v-.04h-.016v-.019h-.019v-.023h-.016v-.04h-.019v-.019h-.016v-.018h-.015v-.022h-.02v-.04h-.015v-.019h-.015v-.018h-.02v-.022h-.015v-.017h-.02v-.023h-.015v-.018h-.016v-.018h-.02v-.023h-.016v-.018h-.02v-.018h-.015v-.022h-.015v-.019l-.07.007v-.023h-.035v.023l-.07.006v.065h-.035l.005-.139h-.019v-.036h-.015v-.023l-.086.007v.023h-.035v.03h-.016v.017h-.015v.023h-.02v.018h-.015v.022h-.019v.018h-.031v.019h-.02v.023h-.015v.018h-.02v.022h-.015v.018h-.015v.018h-.02v.022h-.015v.04h-.02v.017h-.015v.022h-.016v.018h-.019v.041h-.016v.018h-.019v.023h-.016v.018h-.015v.04h-.02v.019h-.016v.04h-.015v.041h-.02v.041h-.015v.06h-.019l-.004.098h-.015l-.004.1h.015v.058h-.015v.041h-.016v.041h-.02v.036h-.015v.023h-.019v.041h-.016v.036h-.015v.023h-.019v.04h-.015v.036h-.02v.041h-.015v.023h-.016v.037h-.019v.04h-.016v.018h-.019v.041h-.016v.023h-.015v.036h-.02v.023h-.015v.066h-.02v.041h-.015v.018h-.015v.023h-.019v.018h-.016v.041h-.015v.018h-.02v.023h-.015v.027h-.019v.022h-.016v.019h-.035v.018h-.015v.022h-.01c-.017-.05-.07-.085-.165-.102 0-.004 0-.01.006-.013.264-.737.151-5.19.223-5.42.297-1.245-.48-4.535.875-5.552.532-.376 3.725 1.476 2.527-.165-.925-1.246-2.076-1.892-2.686-2.392-.203-.167-.173-.564-.334-.676-.266-.185-.496-.155-.699.04l.004-.007-.004-.018a.427.427 0 0 0-.01.036 3.158 3.158 0 0 0-.064.07 1.447 1.447 0 0 1-.017-.06.662.662 0 0 0-.056.08.113.113 0 0 1-.053.057c.035.016.048 0 .06-.026.012-.026.026-.053.051-.058l.014.007c-.106.139-.194.29-.26.45-.007-.008-.016-.013-.035 0v.008a.206.206 0 0 1-.088.022.477.477 0 0 0 .103.012 4.564 4.564 0 0 0-.127.339h-.01a.027.027 0 0 0 0 .023l-.012.037a.411.411 0 0 0-.224-.038c.017.006.033.011.043.05.026-.005.078-.058.102-.02.004.05-.027.031-.055.046.047-.003.052.054.099.077l-.02.066-.05-.005.036.022.013-.013-.015.051-.044.14a.028.028 0 0 0-.019 0v.025c-.05.013-.046-.058-.076-.032-.02-.04-.057-.087-.018-.128l.065.006c-.017 0-.043.018-.034.035-.008-.025.104-.048.034-.087l-.053.022c-.02-.04-.07-.099-.036-.136-.07 0 .003.012-.078.023.093 0-.03.099.056.09-.077.011-.045.043-.124.069.02 0 .043-.006.022.027.006.003.01.007.016.012a.078.078 0 0 1 .036-.01c.041.027.023.082.041.106-.016.018-.02-.014-.046-.007l.028.035c-.046-.007-.09.04-.103-.015l-.015.044c-.033.02-.054.054-.04.08-.016.02.036.062.005.038l.009.073h-.011c-.024.07.039.152-.063.217a.096.096 0 0 1-.008.087h-.041c.006.031-.06.083-.022.101-.115.018-.056.14-.086.19l.052.008a.21.21 0 0 0 .009.117h.046c.031.042-.053.093-.06.154-.017-.006-.009-.02 0-.03-.119.06.046.158-.042.215.014.018.006.03-.008.04V3.59v.007c-.01.006-.02.012-.029.02.01-.004.02-.01.029-.017a.116.116 0 0 0 .008.052h-.05v.005c-.022.016.02.016.06.01.006.01.015.02.025.027-.083.008.018.05-.07.063.037.015.019.084.084.108-.013.02-.026.04-.005.06h-.065l.078.051c-.044.024-.07.034-.113 0 .064.07.02.055.085.116l.077.007c0 .02.048.056.012.065-.037.01-.055.075-.07.14a.416.416 0 0 1-.07.19c.125-.015-.062.05.031.06-.03.006-.048.021-.07 0 .02.06-.058.086.015.13-.03.006-.04-.014-.059-.009.006.005.023.02.005.025-.019.006-.023-.01-.034-.02-.004.06.083.07.166.08-.044.027-.04.043.01.069-.028.01-.058.025-.063-.012-.007.02-.058.126.01.13-.019.007-.01.03 0 .035a.315.315 0 0 0-.017.097l.012-.013c.078.022.013.04.018.077h-.008c-.07.082.022.037-.055.119h.051c.107.01-.07.069-.037.121l.03-.017c.034.028-.155.07-.172.098-.01.005-.014-.01-.02-.018-.07.07.065.01.07.063-.037.008-.089-.015-.1.02-.03.017.103.104.03.15.028-.01.057-.02.074.005.006.037-.114.099-.032.133a.04.04 0 0 1-.022.007c.02.028.027.092.07.11-.177.024.065.177-.096.174v.082h-.016c-.017.056.02.076.056.096-.012.013-.026 0-.034 0-.041.08-.035.09.038.157l-.053.007c.029.019-.094.118-.04.198a.042.042 0 0 1-.023-.01c.052.09-.165.216.022.248l.04.059c.023-.077.082.01.116-.02.009.029-.064.077-.07.04l.01-.006c-.098-.013-.044.095-.111.094-.008.15-.077.298-.093.439l.079-.018-.01.049c-.018.013-.06.019-.054-.017-.046.02.031.059.048.06-.037.069-.087-.026-.09-.005v.029l.009-.007c.03.023.063.024.055.07-.017.026-.049.014-.052.024-.006 0-.009 0 0 .016l-.012.062.063-.026c.027.027-.009.059.063.029-.11.044-.057.231-.092.258a.113.113 0 0 1 .029.123c.013-.013.082-.021.07.02-.14-.012-.07.07-.164.107.058-.017.004.116.1.07-.014.034-.053 0-.088.03.048.078-.049.178-.037.278.018 0 .047-.017.07.004l-.097.055c.008.02.107.015.04.053.016-.006.04-.014.044 0-.103.198.047.395-.135.6.037-.03.04-.011.04.009.01-.014.046 0 .07-.005l-.076.085c.07.013 0 .09.066.095l-.01-.026c.049.011.1.003.144-.021 0 .053-.004.082-.004.082l-.186-.012a.017.017 0 0 1 .009-.006l-.03.004c-8.492-.548-3.672-2.304-6.645 5.751-3.005 1.99-1.77-.504-1.107-2.113.01-.246-.101-.659.179-.793.514-.587-.07-1.39.52-1.912 2.104-1.337-3.343-1.46-3.697-.985 2.02.954 1.328 4.632-.677 6.385-1.048.918-2.32.542-1.793-1.578.237-.19-.253-.505.016-.616.407-.165-.036-.545.224-.802-.156-.374.344-.864.092-1.078.399-1.612 1.118-3.15-1.926-2.684-.263.134-.084.388.144.468.527.56-1.022 1.351-2.087 1.425v-.013c.202-.054.313-.25.329-.574.015-.309-.033-.626.048-.926a.1.1 0 0 0 0-.055c-.103-.14.013-.235.033-.373l-.312-.317c-.16.06-.316.152-.477.172-.302.038-.607.031-.909.049-.534.03-1.069.07-1.607.094-.25.014-.5.017-.752.026-.065 0-.13.011-.197.012-.306 0-.611.064-.918-.03-.031-.01-.08-.025-.096 0a.196.196 0 0 1-.146.096.981.981 0 0 0-.082-.07l-.094.03c-.023-.009-.045-.017-.07-.023-.179-.05-.361-.1-.54-.164a.266.266 0 0 0-.254.012c.07.354-.095.712.053 1.061.07.07.14.143.21.227-.09.405-.196.801-.312 1.196a3.307 3.307 0 0 0-.1.44c-.07.478-.126.96-.21 1.434-.098.556-.271 1.098-.258 1.668 0 .053-.016.106-.02.158-.024.307-.045.615-.07.923-.015.208-.025.421-.045.63-.03.307-.077.612-.097.919a.582.582 0 0 0 .023.245h-.012l.107.274v.019h-.012v.012h.012v.01h.01v.012h.01v.02h.017v.012h.01v.02h.013v.012h.01v.022h.01v.01h.012v.01h.01v.012h.005v.01h.01v.012h.032v.01h.063v.022h-.01l-.008.086h-.017v.021h.032v-.011h.064v-.01h.194v-.01h.076v-.012h.044v-.01h.042v-.017h.07v-.01h.074v-.01h.054v-.012h.049v-.01h.042v-.012h.028v-.01h.022v-.01h.022l.005-.054h-.012l.006-.066h-.01v-.02h.054v-.01h.065v-.01h.012v.01h-.012v.01h-.02v.01h-.011v.023h-.01l-.003.032h.01v.01h.043v.012h.042v.01h.044v.01h.054v.012h.032v-.012h.016v-.01h.01v-.01h.012v-.012h.01v-.01h.01v-.012h.028v-.01h.012v-.01h.01v-.012h.01v-.01h-.02v-.01h-.022v-.012h-.054v.013h-.032v.01h-.023v.01h-.054v-.01h-.022v-.011h-.014v-.012h-.022v-.01h-.01v-.012h.01v-.01h.012v-.01h.01v-.012h.013v-.01h.032v.01h.025v.012h.162v-.011h.096v.012h.01v.031h-.01v.023h-.01v.02h-.013v.021h-.01v.023h-.012v.021h.011v-.012h.043v-.01h.054v-.012h.066v.012h.042v.01h.034v.012h.02v.01h.032v.01h.035v-.01h.009v-.01h.021v-.012h.023v-.01h.064v-.012h.101v-.01h.042v-.01h.022l.011-.107h-.005v-.032h.086v.01h.022v.01h.01v.022h.011l-.007.075h.032v.01h.064v.012h.044v-.012h.01v-.02h.008v-.022h.012v-.023h-.012v-.01h-.118v-.021h-.01V18.1h.14v-.01h.022v-.012h.01v-.01h.022v-.012h.055v-.01h.064v.01h.054v.012h.044v.01h.097v-.01h.022v-.013h.022v-.01h.01v-.01h.07v.01h.02v.01h.035v.013h.01v.01h.054v-.01h.006v-.032h.01v-.023h.03v-.011h.046v-.007h.032v-.01h.032v-.013h.022v.023h.012v.01h.02v.012h.013v.01h.01v.011h.01v.01h.023v.01h.012v.012h.007v.01h.01v.012h.013v.01h-.012v.01h-.01v.022h-.01v.012h.01v.01h.022v.01h.022v.011h.01v-.011h.01v-.02h.005v-.012h.01v-.023h.012v-.02h.01v-.01h.01v-.023h.012v-.01h.022v.032h.01v.022h.01v.022h.012v.01h.01v.012h.01v.02h.012v.012h.022v.01h.01v.012h.01v.01h.023v.01h.032v.01h.035v.011h.055v.01h.054v.012h.039v.01h.044v.011h.044v.01h.02v.01h.013v.021h-.013l-.004.045h.044v-.013h.023v-.01h.022v-.005h.032v-.012h.086v.012h.042v.01h.034v.01h.303v.013h.064v.01h.154v.012h.096v.01h.044v.01h.032v.012h.032v.01h.035v-.01h.074v.01h.21v-.01h.063v-.013h.077v.013h.032v.01h.022v.012h.022v.01h.02v.01h.034v.011h.041v.01h.064v-.01h.034v-.012h.01v-.01h.022v-.022h.01v-.01h.032v.01h.035v.012h.02v.01h.034v.01h.023v.012h.119v-.011h.032v-.01h.013v-.01h.01v-.012h.01v-.01h.011v-.013h.015v-.01h.022v-.01h.022v-.01h.026v.03h.01l-.003.035h.01v.01h.27v-.031h.013v-.023h.01v-.022h.01v-.022h.012v-.032h.017v-.022h.01v-.02h.013v-.022h.01v-.022h.054v-.01h.053v-.012h.042v-.01h.013v-.01h-.012c0-.028.01-.076.017-.105.112-.31.2-1.005.113-1.21.037-.1.065-.212.105-.343-.03-.09-.06-.169-.084-.252a.45.45 0 0 1 0-.324.805.805 0 0 0 .036-.282c-.006-.309 0-.625-.07-.913a.976.976 0 0 1 .006-.152c0-.085-.008-.17-.015-.31a.126.126 0 0 0 .033-.07c.02-.18.031-.36.043-.54.005-.07.016-.134-.041-.185-.033-.03-.028-.18-.04-.266.168-.336.173-.594.027-.834.017-.09.036-.176.048-.266.012-.09.014-.177.022-.274l-.088.025c-.032-.376-.033-.384.099-.404l.035.347c.476-.685 1.865.57 2.102.995-.03.735-1.139 1.905-.47 2.508a2.303 2.303 0 0 1-.639 1.54c-.382.403.268 1.346 1.383 1.77.532.202.795-.55 1.328-.626.12-.105-.162-.385.107-.417 1.042.11.58-.833 1.025-.715.295.078.58-.607.769.312l.035.046c1.638 2.154 1.92 1.529 3.165-.139 1.258-.731.094-.7 1.447.19.375.266.13.552.687.53.938.441 1.017-.004 1.811-.156.703.157 1.447-.255 2.104-.494 1.235-.518.42.215.848.678 1 2.117 1.72 1.849 2.582 1.143l.005.004.011.01v-.023h.016v-.018h.019v-.022h.016V18.925h.015v-.022h.019v-.018h.016v-.023h.016v-.018h.019v-.017h.015v-.023h.02v-.019h.015v-.023h.016v-.018h.019v-.018h.035v-.023h.016v-.018h.016v-.022h.019v-.018h.035v-.018h.015v-.023h.015v-.053h.02v-.023l.036-.003v-.018h.016v-.018h.015v-.023h.02v-.018h.031v-.023h.019v-.018h.015v-.018h.02v-.023h.031v-.018h.019v-.018h.016v-.023h.019v-.034h.032v-.023h.019v-.018h.015v-.018h.02v-.023h.031v-.018h.019v-.023h.016v-.02h.035v-.017h.015v-.023h.02v-.018h.016v-.023h.035v-.018h.015v-.018h.02v-.023h.016v-.018l.035-.003v-.022h.015v-.018h.02v-.018h.015v-.055h.015v-.018h.019v-.018h.016v-.023h.02v-.018h.015v-.023h.016v-.018h.019v-.018h.016v-.023h.018v-.018h.016v-.032h.016v-.018h.019v-.018h.016v-.033h.035v-.018h.016v-.023h.035v-.018h.019V17.5h.031v-.023h.019v-.018h.031v-.023h.02v-.018h.035v-.018h.015v-.023h.035v.023l.121-.01v-.023h.032v-.018h.034v-.05h.02v-.018h.015v-.018h.016v-.023h.035v-.018h.019v-.018h.032v-.022h.019v-.019h.032v-.022l.035-.003v-.018h.035v-.018h.035v-.023l.051-.004v-.019l.478-.04h.035v-.023l.223-.02v-.017l.151-.014v-.018l.14-.011v-.023l.136-.011v-.018l.136-.012v-.023l.171-.014v-.018l.14-.012v-.039l.135-.012v-.023l.14-.01v-.024l.12-.01v-.024l.102-.008v-.018l.121-.01v.017l.07-.005v.022l.05-.004v.018l.036-.003v.025l.05-.005v.018h.035v.018h.031v.022h.035v.018l.051-.004v.022h.034v.018l.051-.004v.018h.035v.022l.051-.004v.018l.05-.004v.022h.035v.018l.051-.004v.018l.055-.005v.023l.051-.005v.019l.05-.005v.023l.066-.006v.018l.055-.004v.018l.07-.005v.022l.051-.004v.018l.054-.005v.018h.031v.023l.054-.005v.002l.051-.004v.023h.031v.018l.055-.005v.018h.031v.023l.035-.004v.02l.05-.006v.023h.035v.018h.035v.018h.035v.023l.051-.005v.018h.035v.022h.035v.018h.031v.019l.035-.004v.023l.036-.003v.018l.051-.004v.023l.034-.004V17.3h.035v.018h.032v.023l.035-.004v.02l.035-.004v.016l.051-.004v.019h.035v.018h.035v.022h.035v.018l.051-.004v.018h.03v.023l.055-.005v.018h.031v.023l.056-.005v.018h.03v.019l.055-.005v.023l.05-.005v.018l.051-.004v.004l.05-.004v.018h.035v-.02l.017.006Zm-8.45-9.896.015-.01c.012.018 0 .013-.014.007v.003Zm-19.4 8.838c-.144-.048-.328-.082-.433-.142-.193-.112-1.279.07-1.299.077a6.597 6.597 0 0 0-.593.004c.029-.033.058-.07.087-.099a.426.426 0 0 0 .079-.245 2.75 2.75 0 0 0 .004-.417c-.007-.13-.03-.26-.045-.391a1.436 1.436 0 0 1-.013-.154c0-.432 0-.864-.008-1.296 0-.23-.009-.46-.032-.688-.03-.297.131-.594 0-.889 0-.005.012-.014.014-.022.072-.296.141-.592.21-.89.01-.039.034-.087.02-.118-.084-.204-.055-.417-.037-.622l.407-.083c.008-.018.026-.07.04-.097.144.003.29-.003.434-.018.153-.034.304-.076.453-.127l.046-.1c.06.024.122.042.185.055.15.014.302.02.454.03.124.008.249.045.363-.07.03-.032.088-.013.133-.013.204 0 .41-.027.611.004a.497.497 0 0 0 .053.005c.001.138.027.275.077.405.034.085.05.176.046.267-.014.681-.026 1.363-.056 2.044-.018.405-.07.81-.1 1.215-.02.27-.027.545-.05.815-.025.3-.027.61-.156.868a2.377 2.377 0 0 0-.113.389c-.005.016 0 .05-.005.055a.476.476 0 0 0-.122.228c-.146-.046-.326.129-.654.02Zm2.484-5.334v-.015.018-.003Zm3.2 4.997c-.028-.059.133-.1.16-.048.026.052-.132.108-.16.048Zm12.88-.55c-.615.261-3.939.94-4.082.242.451-.131-.14-1.22.247-1.41.35-.133.07-.56.259-.866.054-.412-.178-.695.096-1.224.247-.426-.099-1.202.58-1.598.753.091 2.461.244 2.742.639.234.048.74-.395.801.04-.008 1.441.21 3.021-.643 4.176Zm.867-4.079c-.184-.076.222-.37.239-.119a.245.245 0 0 1-.24.12Zm.483-6.76-.018-.008.016.016v.013a.408.408 0 0 0-.049.021l-.027-.06c.013-.007.034 0 .06.01a.1.1 0 0 0-.014-.01.059.059 0 0 1 .037-.011l-.005.029Zm.237-2.45c-.023.023-.013.018 0 0Zm-.221 1.53.017.004c-.01-.001-.017.003-.016-.006l-.001.001Zm.102.163-.086-.043c.03.004.061.007.092.006l-.006.037Zm.089-.487a.306.306 0 0 1-.132-.094l.037-.009-.03-.051c.036.017.088.045.14.075l-.015.072v.007Zm.079-.39-.08-.01.078.017c0 .016-.007.034-.011.05a.625.625 0 0 1-.14-.025.618.618 0 0 1 .136-.082.094.094 0 0 1 .024 0c0 .01-.003.028-.007.045v.004Zm.044-.203a.113.113 0 0 1-.036-.042.114.114 0 0 0 .046 0l-.009.038v.004Zm.098-.515c.015.017.02.049 0 .061a.046.046 0 0 0 .018-.012l-.053.204a.22.22 0 0 1-.103-.12c-.007-.058.062-.014.052-.026.043-.096-.126-.112-.041-.185.064-.023.108.02.15.02.008.047-.053.06-.06.09l.037-.032Zm.19-.522a.03.03 0 0 1 .01-.036l-.01.036Zm.165-.461c0-.007-.017-.018-.005-.03a.015.015 0 0 1 .016 0 .237.237 0 0 1-.011.03Z" fill="#060910"/><path d="M100.482.689c.021 0 .015-.043.019-.052-.038.014-.017.063-.019.052ZM99.817 1.036h-.01a.093.093 0 0 1-.018.021c.028.01.002.04.028-.021Z" fill="#060910"/><path d="M99.807 1.037c.016-.025-.03 0 0 0ZM99.744 1.151v-.044c-.018 0-.04.022-.043.005-.01.04.009.042.043.04ZM99.772 1.185c-.008 0-.013 0 0 .022v-.022ZM99.773 1.167c.017.014 0-.004 0-.026v.045c.01.002.03.014 0-.019ZM99.795 1.13c.025-.009.048-.023.048.02.032-.06-.014-.083-.048-.02ZM99.655 1.304c-.016.006-.036.024-.057.015.02.007.04.011.06.015l-.003-.03ZM99.659 1.334l.006.045c.018-.029.01-.04-.006-.045ZM99.83 1.262l.005-.01a2.67 2.67 0 0 1-.013-.08l.007.09ZM99.53 1.445l-.023-.033.033.055-.01-.022ZM99.498 1.529c-.022-.025-.055 0-.066-.02a.123.123 0 0 0 .023.078c-.003-.02.008-.039.043-.058ZM99.455 1.59c.004.015.01.029.02.04a.209.209 0 0 0-.02-.04ZM99.63 1.43a.071.071 0 0 0-.053.007l.046.005.007-.013ZM99.625 1.442a.204.204 0 0 1-.016.026l.016-.026ZM99.632 1.426v.003c.002 0 .004 0 0-.003ZM99.816 1.374c-.018-.027-.049-.016-.065-.06.01.03.013.076.065.06ZM99.68 1.384l.01.05.026-.03c-.01-.005-.029-.006-.035-.02Z" fill="#060910"/><path d="M99.694 1.455c0-.008 0-.015-.004-.022l-.01.01.014.012ZM99.54 1.585a.075.075 0 0 1 0 .057.21.21 0 0 0 .037-.055c-.011-.007-.03-.024-.038-.002ZM99.58 1.516v.004c0 .001.009-.001 0-.004ZM99.586 1.588c.015-.012.009-.025 0-.038a.105.105 0 0 1-.008.038c.002.004.008.005.008 0ZM99.474 1.687a.197.197 0 0 0 .034-.018c-.017.003-.044.012-.034.018Z" fill="#060910"/><path d="M99.581 1.52h-.014c.004.01.01.02.016.03.001-.01 0-.02-.002-.03ZM99.504 1.756v-.015a.153.153 0 0 1-.07.032.064.064 0 0 0 .036.043l.03-.066.004.006ZM99.625 1.737c.014-.04-.023-.04-.031-.07-.016.07-.016-.026-.058.013a.097.097 0 0 1 .003-.039.253.253 0 0 1-.032.027h.005l.015.008c-.016.016-.012 0-.015-.008h-.005l-.005.07a.13.13 0 0 0 .026-.062c.04.028.044.066.097.06ZM99.696 1.57l-.004.06.048-.013-.022-.007c.022-.026-.008-.03-.022-.04ZM99.445 1.82l-.043-.02.052.05-.01-.03ZM99.425 1.893l-.04-.014.018.026.022-.012ZM98.993 3.62c-.042.02-.106.04-.06.042l.046-.003a.034.034 0 0 1 .014-.039ZM99.224 2.618a.116.116 0 0 0-.04.047c.032-.02.076-.034.04-.047ZM98.701 5.805a.03.03 0 0 0 .027.014.025.025 0 0 0-.027-.014ZM99.184 2.664c-.023.014-.04.033-.014.057.005 0 .009-.006.013-.009a.073.073 0 0 1 .001-.048ZM98.43 9.388a.08.08 0 0 1 0-.028c-.006.005-.006.013 0 .028ZM99.311 2.173c0-.016-.004-.004 0 0ZM99.525 2.154ZM99.318 2.171a.107.107 0 0 0 .02-.017.086.086 0 0 0-.02.017ZM99.316 2.154a.095.095 0 0 0 .009-.013c-.007-.004-.012-.003-.009.013Z" fill="#060910"/><path d="M99.31 2.173c0 .005 0 .01-.003.022a.061.061 0 0 1 .012-.024s-.007.003-.008.002ZM99.367 2.022c-.01 0-.025 0-.028-.006v.032c.005-.017.017-.02.028-.026ZM99.51 2.023c.043.007.035-.016.035-.04-.058-.018-.048.01-.034.04ZM99.55 1.956c-.022-.009-.007.007-.006.021 0-.007.002-.015.006-.021ZM99.33 2.23c.014-.01-.05-.018-.032-.021-.05-.024.042.085.032.021ZM99.555 2.203l.025-.033a.018.018 0 0 1-.014-.013c-.009.02-.027.043-.011.046ZM99.566 2.126a.063.063 0 0 0 0 .031.033.033 0 0 0 0-.03ZM99.437 2.579l.005.042c.016.007.03 0 .027-.018-.004-.018-.014-.027-.032-.024ZM98.365 9.498l-.024.032.037-.021-.013-.01ZM27.075 7.4c-.042.157-.122.305-.165.461l-.054.243c0 .026 0 .052.03.04.031-.01.084-.044.083-.08 0-.085.055-.162.055-.248a.41.41 0 0 1 .078-.22.647.647 0 0 0 .113-.26.423.423 0 0 1 .07-.171c.04-.067.073-.138.097-.212a.882.882 0 0 0 .095-.278.502.502 0 0 1 .1-.237c.047-.069.049-.146.1-.208 0-.11.07-.208.113-.302a4.31 4.31 0 0 1 .224-.487.134.134 0 0 0 .027-.118c-.116.052-.2.11-.204.262a.258.258 0 0 1-.095.182c-.091.079-.091.201-.104.297a.372.372 0 0 1-.092.233c-.063.066-.086.16-.148.226 0 .108-.07.209-.084.314a.19.19 0 0 1-.06.122c-.031.03-.074.076-.069.11.022.101-.024.18-.085.262a.203.203 0 0 0-.025.069ZM26.361 8.428a.038.038 0 0 0 .028-.014 2.708 2.708 0 0 0 .335-.832.54.54 0 0 0-.104.153c-.087.193-.177.384-.262.578a.152.152 0 0 0-.019.093.029.029 0 0 0 .022.022ZM26.211 9.127c-.007.069-.045.139-.051.208 0 .032.018.046.05.019a.12.12 0 0 0 .044-.058.873.873 0 0 0 .065-.285c-.051.034-.103.077-.108.116ZM27.683 5.54a.044.044 0 0 0-.034.03c-.028.099-.087.191-.1.292a.078.078 0 0 0 .01.07c.04-.07.075-.139.108-.208.022-.05.051-.091.029-.14-.005-.017.016-.047-.013-.045ZM27.163 6.523c.075-.158.172-.295.174-.469-.11.167-.191.379-.174.47ZM27.578 5.496c-.068.106-.12.221-.154.342.109-.09.118-.107.21-.356a.044.044 0 0 0-.056.014ZM27.87 5.316a.824.824 0 0 0 .035-.127c0-.005-.005-.012-.01-.014s-.02.004-.027.014a.784.784 0 0 0-.074.178.079.079 0 0 0 .076-.051ZM27.317 6.416a.457.457 0 0 0 .087-.22c-.079.075-.073.15-.087.22ZM26.264 8.828c.017-.059.051-.098.048-.158-.055.073-.056.073-.048.158ZM27.159 6.82c0-.003-.013-.007-.017-.004-.031.023-.028.054-.028.094.03-.032.052-.056.045-.09Z" fill="#060910"/><path d="M31.44 4.797c1.144-.09 2.665.439 3.742-.15.711-.14.4-1.214 1.111-1.366-.03-1.559 1.58-2.14 2.642-3.281-2.125.461-4.852.923-7.626 1.094a2.428 2.428 0 0 1-1.122-.19l-.024-.011-.07.028v.023l-.07.005v.024l-.13.01v.022l-.14.011V.994h-.03V.943h-.04v-.05h-.03V.84l-.038.004V.8l-.1.007-.004.17h-.03v.028l-.14.01V1l-.07.006V.984h-.031V.962h-.03V.91h-.04V.838h-.03V.809h-.038V.787l-.1.008V.766l-.339.027V.771l-.2.016V.81h-.031v.028l-.038.004v.05h-.031v.023l.07-.005V.903l.2-.015V.91l.07-.005v.05l-.07.006v.022l-.07.006V.966l-.1.008V.946l-.1.008V.932l-.07.005V.914h-.03V.886l-.07.005V.868l-.04.004V.843l-.06.005V.826h-.038V.803l-.062.006V.78h-.038V.764h-.031v.023h-.038v.029h-.031v.023h-.031V.86h-.038v.042l-.07.006V.93l-.231.019V.927l-.07.005V.903l-.537.043V.923h-.039v-.02h-.03V.875l-.07.005V.858l-.07.006V.84h-.031V.82H26.6V.798h.038V.747h.03V.725l.04-.004V.69L26.4.714v.074l.07-.006v.029l.1-.009V.95l-.14.01V.939l-.37.03v.02l-.209-.026-.03.009V.958l-.06.005V.941h-.04V.918h-.03V.889h-.038V.848h-.03V.774l-.1.008V.764l-.961.076V.811l-.839.07V.859l-.407.032V.868l-.17.014V.853l-.14.011V.842l-.162.01V.824l-.3.024v.028l-.07.006v.021l-.07.006v.028l-.06.004v.023l-.07.006v.022h-.039v-.02l-.061.006V.955l-.109.009V.935l-.06.005V.918l-.07.005V.896l-.1.007V.88l-.07.006V.863l-.07.005V.841l-.07.005V.823l-.06.005V.8l-.07.006V.783h-.039V.764h-.03V.736h-.031V.714h-.038v-.02h-.031v-.02l-.039.003V.654h-.03V.625l-.09.011v.028l-.41.03V.669l-.13.01V.658l-.108.008V.642l-.061.006V.619l-.067.006V.602l-.07.005V.58h-.03V.56l-.07.005V.542h-.04V.514h-.03V.497l-.07.005V.474h-.031v-.02h-.039v-.02h-.03V.406h-.031V.388h-.04V.361h-.03V.343l-.02.004v-.05h-.039v-.02h-.031V.25h-.039V.23h-.03V.208h-.031V.181h-.039V.164l-.07.006V.147l-.061.005V.124l-.1.009V.11l-.062.005v.024h-.039v.028l-.07.006v.022h-.03v.023h-.032v.06h-.04V.3h-.03V.38h-.039l-.008.176h.038l-.004.175h.03l-.003.175-.108.834h.036c-.078.175-.081.393.007.661.293 1.355 1.865 1.612 3.033 2.073.489-.007.898.574 1.434.208.466-.046.87.363 1.23-.185.69.052 1.789.182 2.676.168l.839.396a69.727 69.727 0 0 0-1.349 3.414 48.503 48.503 0 0 0-.842 2.179c-.135.377-.265.758-.389 1.14-.02-.003-.02.06-.056.056.004-.028.03-.053.024-.083a.254.254 0 0 1 .044-.193.117.117 0 0 0 .024-.07c0-.061.022-.12.061-.167.014-.025.022-.054.037-.079.064-.103.07-.22.114-.33.044-.11.034-.242.102-.358-.027-.059.02-.103.048-.151a.533.533 0 0 0 .077-.252.236.236 0 0 1 .04-.143c.052-.087.125-.176.118-.278a.202.202 0 0 1 .052-.152.248.248 0 0 0 .064-.139c-.021-.083.048-.139.061-.213a.652.652 0 0 0 .03-.13.298.298 0 0 1 .099-.221c.023-.024.04-.05.03-.07-.022-.05.005-.093.027-.144.041-.092.112-.176.103-.278 0-.02.01-.033.03-.047.033-.045.05-.1.047-.156-.004-.008-.02-.016-.024-.013-.04.031-.088.044-.12.104-.047.09 0 .208-.105.277-.077.197-.185.39-.186.599 0 .063-.037.084-.08.103-.02.009-.038-.016-.066.01.031.075.012.169.028.25a.034.034 0 0 1-.001.029.035.035 0 0 1-.022.018c-.02.008-.038 0-.04-.02a.371.371 0 0 1-.013-.146c-.028.012-.035.027-.035.043-.006.143-.04.283-.098.414-.01.03-.03.053-.058.048-.027-.005-.013-.036-.01-.057a.179.179 0 0 0 .005-.082c-.08.018-.094.037-.07.1.007.016.016.03.027.044a.164.164 0 0 1 .014.152 1.211 1.211 0 0 0-.056.359.582.582 0 0 1-.039.188c-.052.148-.104.296-.14.446a.395.395 0 0 1-.117.208.371.371 0 0 0-.12.208.193.193 0 0 1-.143.148c.03-.106.06-.2.082-.293.012-.051.07-.055.074-.09.019-.097.083-.179.097-.275a.314.314 0 0 1 .07-.177.243.243 0 0 0 .062-.101c.035-.106.113-.205.09-.32 0-.011.003-.023.008-.034a.531.531 0 0 0 .027-.245c0-.024 0-.048-.017-.06-.048-.025-.037-.078-.03-.13a.85.85 0 0 1 .066-.198c.036-.089.078-.176.106-.264.026-.105.067-.205.12-.298a.2.2 0 0 0 .023-.12c-.027.054-.044.092-.064.128a.533.533 0 0 0-.099.26c0 .107-.077.209-.134.298a.862.862 0 0 0-.156.377.322.322 0 0 1-.025.106c-.14.303-.232.62-.354.927a.248.248 0 0 0-.014.18c.114-.14.15-.305.214-.454.065-.148.123-.298.187-.455.03.036.012.066 0 .095-.11.312-.247.615-.379.919-.06.139-.062.283-.124.417-.005.01-.006.025.005.03.061.025.023.077 0 .115-.036.058-.05.123-.082.181a.046.046 0 0 0-.009.038.048.048 0 0 0 .008.019c.004.005.01.01.015.013a.542.542 0 0 0 .098-.195c.006-.022.02-.043.037-.043.019 0 .033.022.029.048a.6.6 0 0 1-.06.209c-.038.07-.074.139-.107.208-.027.058-.044.12.019.144.027.012.01.044.02.061.035-.023.035-.07.058-.095.102-.127.136-.29.229-.423a.07.07 0 0 0 .013-.034c-.006-.084.033-.116.103-.115a.07.07 0 0 0 .024-.004c-.127.4-.245.802-.356 1.207-.024 0-.042.018-.059.027a.043.043 0 0 0-.021.05.023.023 0 0 0 .008.012l-.07.022-.009-.029-.082.027-.007-.022-.057.019-.007-.024-.114.039-.008-.03-.107.037-.007-.023-.253.084.007.023-.107.036.009.03-.221.074-.01-.03-.056.02-.007-.023-.031.01-.007-.023-.025.008-.009-.029-.057.02-.007-.023-.025.008-.009-.03-.056.02-.007-.023-.058.02-.006-.024-.057.019-.009-.03-.082.029-.006-.024-.083.028-.008-.03-.221.075-.007-.023-.114.037.007.024-.24.09.008.028-.14.047c0 .008.005.015.007.023l-.057.02-.006-.024-.026.009-.009-.03-.031.01c-.004-.014-.01-.03-.013-.046l-.026.009-.009-.029-.056.019-.007-.023-.025.008-.01-.029-.056.02-.007-.024-.057.02-.007-.024-.107.036-.009-.028-.252.084-.007-.023-.22.073c0-.021-.03-.024-.05-.016l-.086.032c-.019.008-.05.007-.048-.014a.222.222 0 0 1-.148.033l-.133.036-.01-.023-.084.02a.148.148 0 0 0-.116.02l-.013-.03a.086.086 0 0 1-.09.01l-.076.018a.043.043 0 0 0-.049-.01.043.043 0 0 0-.014.01l-.013-.027-.078.023a.041.041 0 0 0-.048-.01.041.041 0 0 0-.014.01c-.006-.025-.044-.018-.066-.005l-.012-.026-.053.013a.044.044 0 0 0-.05-.01.045.045 0 0 0-.013.01.452.452 0 0 0-.014-.027l-.046.01a.098.098 0 0 0-.091.008.085.085 0 0 0-.093.008l-.012-.026-.078.017a.14.14 0 0 0-.115.02c-.027-.046-.083-.005-.125.01 0-.008-.005-.016-.007-.024l-.114.038-.006-.023-.083.028-.008-.03-.025.01.015.051.025-.008.007.023.032-.01.008.029.026-.009.015.053.025-.009.007.023.032-.01.015.052-.14.046.007.023-.056.02.008.029-.056.019.014.046-.026.008.031.105.025-.009.016.053.032-.01c0 .007.004.014.007.023l.025-.01.015.053.026-.009.006.024.032-.011c0 .01.005.02.009.03l.025-.01.007.024.032-.01.007.022.025-.008.008.029.025-.008.016.052.032-.01c0 .007.004.015.007.022l.025-.008.015.052-.025.008.007.024-.032.01.01.03-.026.008.007.023-.026.008.007.024-.031.01.008.03-.025.008.007.023-.032.01.016.053-.025.008.007.024-.026.008.009.029.025-.009.007.024.025-.009.007.024.032-.01.016.051.025-.008.008.028.032-.01c0 .008.005.015.007.023l.025-.008a.247.247 0 0 1 .007.023l.057-.02.008.03.026-.008.007.023.031-.01.008.028.051-.017.007.024.032-.011.007.023.056-.02.009.03.082-.028.007.024.05-.018.009.03.057-.02.007.024.032-.01.007.022.025-.008.008.029.026-.01.007.025.03-.01.01.028.057-.02.007.024.025-.008c0 .007.004.015.007.022l.025-.008.008.03.032-.011.007.023.057-.019.006.023.026-.008.009.029.025-.01.007.024.031-.01c0 .009.006.019.01.028l.024-.008.007.023.057-.019.007.023.025-.008.009.029.031-.01.007.022.025-.008c0 .01.006.02.01.03l.056-.02c0 .008.005.015.007.023l.025-.008.007.023.031-.011c0 .01.006.02.01.03l.025-.01.007.024.025-.009.008.03.057-.02.007.024.031-.01c0 .007.005.015.007.022l.025-.008.01.028.025-.008.007.024.056-.02.009.03.032-.011.006.023.026-.008.006.023.026-.009.009.03.03-.011c0 .008.006.015.008.023l.025-.008c0 .01.006.019.01.028l.03-.01.008.023.025-.009.007.024.025-.008.008.028.032-.01.007.022.025-.008.016.052.031-.01.007.024.026-.01.008.03.025-.009c0 .008.005.016.007.023l.032-.01.007.023.025-.009.015.053.032-.01.009.028.025-.008.007.023.025-.009.007.023.031-.01.016.052.026-.008.008.029.025-.01.007.025.032-.01.007.022.025-.008.015.052.032-.01.009.028.025-.008.007.023.025-.009.015.053.032-.011.007.023.026-.009.008.03.031-.01.014.046.026-.009.008.029.025-.008c0 .007.005.015.007.023l.032-.011.016.052.025-.008c0 .007.004.015.007.023l.031-.01.016.051.025-.008.007.024.025-.01.016.053.031-.01.016.052.025-.009.007.024.031-.011a1.2 1.2 0 0 1 .016.052l.025-.009.016.052.025-.008.007.024.032-.011.015.053.025-.01.016.053.025-.009.016.052.031-.01.016.052.025-.008.007.023.031-.01.016.051.025-.008.014.047.026-.009.015.052.031-.01.016.052.026-.008.012.051.032-.011.015.053.025-.01.014.047.025-.008c0 .01.006.02.01.03l.03-.012.016.053.025-.01.014.047.032-.01.008.03.026-.01.015.053.026-.01.029.1.031-.011.054.18.025-.008c.025.084.05.17.077.255l.031-.01.045.15.025-.008.022.075.025-.009.025.082.031-.01.023.074.025-.008.14.481-.025.009.07.232-.032.01.03.1.03-.012.023.076-.031.01.008.03-.05.016.007.024-.057.019.008.029-.031.01c0 .008.004.016.007.024l-.025.008.006.023-.025.009.016.052-.032.01.031.105.032-.01.007.023.025-.009.008.03.058-.02.007.024.164-.056-.007-.023.113-.038-.008-.03.05-.016.015.052.032-.01.016.052.025-.009.014.046.031-.01.016.052.025-.008.015.052.026-.009.016.053.031-.01.015.051.026-.008.023.075.031-.01.015.052.026-.009.014.047.025-.009.015.053.032-.01.016.051.025-.009.015.053.032-.011.015.052.026-.008.022.076.026-.009.013.046.032-.01.023.05.025-.009.016.052.03-.01.017.052.025-.008.007.023.025-.009.009.03.088-.03.008.023.05-.017-.007-.023.114-.038c0-.01-.007-.02-.01-.03l.083-.027.008.029.057-.019.007.023.057-.019.007.023.026-.008.008.028.056-.018.008.023.025-.009.009.03.056-.02a.227.227 0 0 0 .007.024l.026-.009c0 .008.004.015.006.023l.057-.019.009.029.082-.027.007.023.14-.047c.198.164.42.134.702-.344.052-.235.088-.474.108-.713h.005l-.004-.012v-.013l.02-.006-.008-.03.032-.01-.014-.047.025-.008-.016-.053.026-.008c0-.01-.006-.02-.009-.029l.032-.01-.014-.047.025-.009-.016-.052.032-.01-.016-.052.026-.01-.016-.051.025-.009-.006-.023.032-.01-.01-.03.026-.008c0-.008-.005-.016-.007-.023l.032-.01-.007-.024.025-.009-.008-.029.025-.008-.007-.023.031-.01-.007-.024.025-.008-.008-.03.031-.01c0-.008-.004-.015-.007-.023l.026-.009-.016-.052.025-.009-.006-.022.032-.011c0-.01-.007-.02-.01-.029l.026-.009-.016-.052.025-.008-.013-.047.032-.01-.016-.053.025-.008-.025-.084.012-.026.013-.005-.004-.015c.07-.158.136-.29.189-.411l.02-.006-.007-.025c.12-.247.16-.526.116-.797l.037-.013a.213.213 0 0 0-.007-.023l.025-.009-.008-.029.056-.019-.013-.046.032-.01-.025-.082.025-.008a2.388 2.388 0 0 0-.022-.076l.025-.008-.022-.076.031-.01-.015-.053.025-.008-.022-.076.031-.01a3.235 3.235 0 0 0-.022-.076l.025-.008-.015-.052.025-.009a3.615 3.615 0 0 0-.023-.075l.032-.01a1.466 1.466 0 0 0-.016-.053l.026-.008a2.395 2.395 0 0 0-.023-.076l.032-.01a3.095 3.095 0 0 0-.023-.076l.026-.008-.023-.076.025-.008-.024-.082.032-.01-.022-.075.025-.01-.023-.074.032-.011-.03-.098.026-.01-.024-.08.025-.01-.03-.098.032-.01-.031-.104.026-.009-.03-.097.025-.008-.009-.027c.148-.324.312-.637.411-.995.296-1.07.27-2.283.466-3.437.15-1.84.648-3.57.909-5.374.345.04.683.102.935.12ZM26.087 9.98c.017 0 .006.023 0 .037a.045.045 0 0 1-.017.038c-.016-.005-.01-.024-.013-.037-.002-.013.01-.04.029-.038h.001Zm-.497 1.919c-.005.014-.01.033-.026.036-.015.002-.008-.016-.005-.026.003-.01.003-.03.022-.034.018-.004.014.012.01.024Zm-.339 1.39-.023.007-.005-.02a.224.224 0 0 0 .041-.033l-.013.046ZM57.41 10.775a.52.52 0 0 0-.116.273.1.1 0 0 0 0 .035c0 .015.01.031.033.031s.046.007.048-.02c.002-.025.026-.056.02-.093-.005-.047.013-.116.055-.122.07-.011.07-.049.082-.09a.324.324 0 0 1 .037-.11.077.077 0 0 0 0-.106c-.014-.016-.02-.04.006-.044.082-.016.057-.07.051-.113 0-.024-.006-.048-.01-.07-.003-.021.006-.039.04-.037.047 0 .055-.024.06-.056a.706.706 0 0 1 .065-.23.511.511 0 0 0 .015-.06c.01-.033-.026-.03-.053-.05.118-.026.123-.113.149-.186 0-.01 0-.031-.008-.033-.06-.016-.026-.053-.037-.08-.012-.026.016-.06-.029-.07-.045-.008-.038.033-.05.054a.09.09 0 0 0-.013.051.617.617 0 0 1-.045.204c-.013.053-.061.112.05.173-.052-.006-.07-.004-.093.01a.208.208 0 0 0-.084.163c-.004.062.005.124-.064.166-.016.01-.01.045-.014.07 0 .056-.01.112-.03.165-.025.043-.065.08-.034.14.008.01-.02.021-.031.035ZM55.793 14.488a.16.16 0 0 0-.047.093.622.622 0 0 1-.06.167c-.083.119-.074.268-.158.386-.047.07-.01.146 0 .23a.292.292 0 0 0 .07-.165.073.073 0 0 1 .03-.06c.055-.043.055-.069.02-.132-.006-.012-.012-.028-.007-.035.03-.044.004-.12.095-.13a.024.024 0 0 0 .016-.02c0-.048.039-.07.074-.096a.062.062 0 0 0 .008-.097c-.045-.03-.034-.05-.023-.082a.04.04 0 0 0 .004-.034.04.04 0 0 0-.022-.025ZM58.053 8.123c-.022-.012-.033.006-.04.016a.198.198 0 0 0-.036.09v.046a.04.04 0 0 0 .02.04.056.056 0 0 0 .059-.011c.011-.01.03-.02.03-.033a.751.751 0 0 0 0-.124c-.003-.008-.02-.018-.033-.024ZM57.725 9.07c-.088.07-.016.13.017.199.045-.026.037-.06.03-.093a.603.603 0 0 1 .005-.227c-.036.016-.07.035-.049.08.007.016.01.03-.003.042ZM58.124 8.99c.04.008.034-.027.041-.048a.07.07 0 0 0-.026-.095.07.07 0 0 1-.037-.058c-.005.047-.014.094-.016.139a.055.055 0 0 0 .038.062ZM57.094 11.71c0-.045-.004-.09-.007-.155l-.102.26c.037-.01.11-.078.109-.105ZM56.226 13.79c0 .012 0 .024.017.028.016.004.023-.006.028-.017.02-.039.025-.083.047-.122a.062.062 0 0 0-.032-.08.485.485 0 0 0-.06.19ZM58.556 7.752c-.028-.008-.053.01-.05.03a.303.303 0 0 1-.03.16c-.007.018 0 .035.028.058.043-.065.03-.139.07-.203.002-.012.01-.037-.018-.045ZM57.81 8.138c.065-.055.046-.133.078-.194a.023.023 0 0 0-.015-.036c-.017-.004-.039.008-.037.022.008.056-.035.098-.039.15a.069.069 0 0 0 .013.058ZM56.984 11.815ZM56.949 12.052c.023-.046.034-.096.053-.143a.115.115 0 0 0-.014-.094c0 .03-.008.06-.025.084a.208.208 0 0 0-.014.153ZM57.507 8.135a.198.198 0 0 0-.058.166c0 .013.017.019.042.014-.025-.062.032-.117.016-.18ZM56.33 13.525c.015-.006.037-.007.036-.024-.002-.017-.017-.02-.029-.023-.024-.008-.025.01-.027.024-.001.014 0 .024.02.023ZM57.803 8.867a.064.064 0 0 0-.022.076c.028-.019.049-.04.022-.076Z" fill="#060910"/><path d="M57.781 8.943a.01.01 0 0 1 0 .004v-.004ZM57.818 8.692c-.004.01.005.015.018.017.012 0 .033-.007.034-.025a.02.02 0 0 0-.006-.018.02.02 0 0 0-.017-.006c-.018.001-.023.018-.03.032ZM57.964 7.816c0-.005 0-.012-.004-.016l-.056.02s0 .005-.011.016c.034.001.062.01.071-.02ZM58.023 8.44c.01 0 .024 0 .024-.01a.133.133 0 0 0-.015-.034.091.091 0 0 0-.02.016c-.01.012-.007.023.011.028ZM57.25 11.298a.253.253 0 0 0-.05-.024c.013.014.017.02.022.022.005.001.02.024.027.002ZM57.68 7.643c0-.008-.007-.01-.014-.007a.017.017 0 0 0-.006.005.017.017 0 0 0-.004.006l.01.011c.003.004.017-.004.015-.015ZM42.022 10.932c1.31-.175-.342-2.419-1.085-1.674-.39 1.135-2.747 5.522-1.688 1.503.483-1.105-2.017-2.768-2.549-1.595a2.84 2.84 0 0 1-.147 1.173c-.064.04 0 .128-.094.105.017.028.032.032.044.028a1.415 1.415 0 0 1-.02.05.086.086 0 0 0-.081.029c.004-.006 0-.01 0-.015-.033.009 0 .058-.051.063.034.044-.026.031.027.073l.023-.06c0 .024.003.047.01.07l-.033.066a.11.11 0 0 1-.015-.05c-.026 0-.008.034-.035.036-.053-.042.031-.07.01-.13-.033 0 0 .087-.05.03.062.075-.047.047-.015.125l-.032-.025c0 .009.009.032 0 .042l-.03-.05c.016.056-.072.037-.073.08.042-.062.05.014.092.005-.008.105-.117-.018-.16.077.003-.015.05-.029.052 0a.122.122 0 0 1-.07.02c-.032.061.041.016.044.054-.053-.01 0 .039-.006.07l-.035-.024c-.07.048.058.066-.008.104l-.03-.057-.009.039-.034-.033c.006.052-.009.056-.042.08.029.01.058.048.039.076-.034.005-.025-.033-.048.01-.015-.024-.034-.052.01-.047-.01-.01-.015-.025-.025-.034-.038.004-.042.048-.052.062a.03.03 0 0 1 .019-.01l.005.09c-.019 0-.024-.014-.029-.028-.005.014.005.034-.005.052-.023-.023-.053-.042-.048-.075l-.009.075c-.015-.005-.053.005-.058-.01-.038.02 0 .112-.051.14a.029.029 0 0 1 .003.012c0 .004-.001.009-.003.012-.033.034-.09.043-.087.114l-.07-.01c-.014.043.087.01.063.08-.015.053-.053-.014-.077-.01.01.038.033.11-.035.119 0-.02.015-.024.02-.037l-.047.008c-.02-.07.014-.08-.044-.08.091.069-.07.117.018.189l-.033.004c.005-.005 0-.01.005-.014-.07 0 .047.077 0 .114-.02.01-.042.012-.045-.007l-.004.054a.01.01 0 0 1-.006.002c-.002 0-.004 0-.006-.002a.01.01 0 0 1-.004-.004v-.006l-.032.056c.01.023.016.046.02.07-.024.004-.004-.015-.018-.02v.047a.04.04 0 0 1-.032-.028.04.04 0 0 1 .014-.04c-.115-.041.004.042-.098.063l.01-.037c-.066-.021-.065.015-.122.024.023.005.133 0 .13.046-.014.005-.027.014-.022.046-.033-.024-.038 0-.053.022l-.043-.034c-.005.034.019.048.028.077-.025.023-.063.003-.096-.012-.04.037.077.012.047.07-.044.022-.046.06-.052.121-.034.013-.023-.024-.043-.026l.019.049c-.005.004-.015-.006-.02-.01 0 .028.043.034.032.069.042.045-.115.006-.089.083-.02 0-.023-.025-.042-.035a.354.354 0 0 0 .01.139l-.056.012c.013 0 .025.004.035.012l-.026.029-.012-.01a.045.045 0 0 1 0 .024.038.038 0 0 0-.016-.018c-.005 0 0 .01.006.026l-.056-.027.017.017-.076.034c.005.028.014.057.021.087-.02.022-.038.045-.057.07.006-.023 0-.06.023-.077-.019.014-.035-.005-.038-.015l-.01.092c-.032-.028-.035-.007-.062 0 .046.024.04.048.027.07l-.031.037a.034.034 0 0 1-.011-.044.035.035 0 0 1 .01-.012c-.046-.004-.02.034-.008.065l-.051.064h-.008a.019.019 0 0 1-.007-.005v-.005l.005-.007-.005.005c-.28-.607.201-1.594-.155-2.355.564-.866-.205-2.305-1.258-1.856-.58.025-.363.904-.824 1.181-.266.524-2.365 1.125-1.6 1.636 2.281-.486.855 2.438 1.307 3.92.168.456-.37.59-.44.913.26.37-.07.811.419.987 2.072 3.375 2.853-.162 3.927-1.7.966-1.91.37 1.324.715 1.71 1.258 1.656 2.087.578 2.533-.813.28-.22.056-.625.44-.807.079-.084-.159-.208.029-.233.222-.091.128-.556.318-.758.355-.78.665-1.46 1.16-2.028.38-.483.376-1.311.768-1.816.056-.072.12-.137.193-.193ZM34.636 13l-.013-.01a.037.037 0 0 0 .02 0l-.007.01Zm.567-.838c0-.013-.01-.046.015-.037.03.038.007.034-.015.037Zm1.06 2.909c-.015 0-.032.013-.008 0 .204-.109.09.204.007 0ZM35.354 11.937v-.018.018Z" fill="#060910"/><path d="m35.283 12.02.012.012c0-.007-.005-.012-.012-.012ZM34.824 12.732a.106.106 0 0 0-.038.009l.038-.009ZM35.676 11.437l-.02-.037c-.017.023.006.025.02.037ZM36.364 10.7h.005c-.005-.023-.007-.016-.005 0ZM35.333 11.98v-.004.005ZM34.798 12.753a.084.084 0 0 1 .02.011.017.017 0 0 0-.008-.01.018.018 0 0 0-.012 0ZM35.68 11.444l-.005-.006.005.006ZM35.105 12.159h-.038l.009.01c.015.004.02 0 .03-.01ZM35.375 11.9l-.043-.024-.005.005.048.02ZM35.459 11.61c.017-.016.061 0 .014-.03a.103.103 0 0 0-.014.03ZM51.476 9.64v-.006.007ZM51.406 9.635a.884.884 0 0 1-.218.049c-.018 0-.04-.005-.049.029 0 .008-.014-.003-.017.014a.105.105 0 0 0 .056-.004c.035-.007.07-.02.103-.028.034-.008.06-.01.09-.017.036-.01.07-.023.105-.037a.07.07 0 0 0-.07-.006ZM50.53 9.836c.015-.017.028-.005.04.007.014.012.01.009.014.008a.737.737 0 0 1 .095-.012.094.094 0 0 1 .07.009h.015c.02 0 .022-.01.011-.038a.117.117 0 0 1-.005-.017c-.004-.011-.012-.017-.017-.013-.006.005 0 .014 0 .022 0 .008 0 .019-.01.018-.039 0-.076-.011-.113-.011-.024 0-.05-.01-.07.005-.02.016-.033-.005-.05.005.01.017.015.024.02.017ZM50.804 9.745a.13.13 0 0 0-.124-.008.371.371 0 0 1 .07.025c.02.008.036-.006.054-.017ZM50.947 9.76c.018-.03.044-.008.066-.014a.253.253 0 0 0 .06-.014.164.164 0 0 0-.084 0 .126.126 0 0 1-.085-.009c.014.036.03.03.043.037ZM50.548 9.945c.015.018.053.02.097.005a.119.119 0 0 0-.097-.005ZM50.31 9.767a.017.017 0 0 0 .008-.016.024.024 0 0 0-.003-.012.023.023 0 0 0-.008-.009c-.016-.005-.026 0-.029.034.006.011.017.015.032.003ZM50.282 11.723l-.004.006s.004-.004.004-.006ZM50.351 11.742a.939.939 0 0 1 .107-.016c.039-.002.077-.002.116 0 .018 0 .039.01.053-.023.003-.007.013.006.018-.01a.108.108 0 0 0-.055-.005c-.036 0-.07.01-.107.013-.036.004-.061 0-.091 0s-.07.015-.11.023a.07.07 0 0 0 .07.018ZM51.016 11.706c-.017-.01-.036 0-.054.009a.13.13 0 0 0 .121.025.347.347 0 0 1-.067-.034ZM50.86 11.724c-.01-.039-.026-.035-.038-.044-.022.028-.045 0-.07.005a.28.28 0 0 0-.06.005.168.168 0 0 0 .083.013c.03-.004.06.004.085.02Z" fill="#060910"/></svg>