<svg width="24" height="41" fill="none" xmlns="http://www.w3.org/2000/svg"><path fill-rule="evenodd" clip-rule="evenodd" d="M0 0v3h3V0H0Zm3.5 6.4v-3h3v3h-3ZM7 9.9v-3h3v3H7Zm3.5 3.5v-3h3v3h-3ZM14 6.9v3h3v-3h-3ZM21 3V0h3v3h-3Zm-3.5.4v3h3v-3h-3Z" fill="#DDD" fill-opacity=".3"/><path fill-rule="evenodd" clip-rule="evenodd" d="M0 13.4v3h3v-3H0Zm3.5 6.4v-3h3v3h-3ZM7 23.3v-3h3v3H7Zm3.5 3.5v-3h3v3h-3Zm3.5-6.5v3h3v-3h-3Zm7-3.9v-3h3v3h-3Zm-3.5.4v3h3v-3h-3Z" fill="#DDD" fill-opacity=".6"/><path fill-rule="evenodd" clip-rule="evenodd" d="M0 26.8v3h3v-3H0Zm3.5 6.4v-3h3v3h-3ZM7 36.7v-3h3v3H7Zm3.5 3.5v-3h3v3h-3Zm3.5-6.5v3h3v-3h-3Zm7-3.9v-3h3v3h-3Zm-3.5.4v3h3v-3h-3Z" fill="#DDD"/></svg>